<?xml version="1.0" encoding="iso-8859-1"?>
<!-- Generator: Adobe Illustrator 16.0.0, SVG Export Plug-In . SVG Version: 6.00 Build 0)  -->
<!DOCTYPE svg PUBLIC "-//W3C//DTD SVG 1.1//EN" "http://www.w3.org/Graphics/SVG/1.1/DTD/svg11.dtd">
<svg version="1.1" id="Layer_1" xmlns="http://www.w3.org/2000/svg" xmlns:xlink="http://www.w3.org/1999/xlink" x="0px" y="0px"
	 width="64px" height="64px" viewBox="0 0 64 64" style="enable-background:new 0 0 64 64;" xml:space="preserve">
<g>
	<path style="fill:#FFD7AF;" d="M24.784,37.638v4.029c0,1.467,0.57,2.854,1.552,3.781l0.858,0.812h-1.594v13.64h11.723V46.26h-0.432
		l0.866-0.811c0.991-0.927,1.567-2.323,1.567-3.797v-4.403L24.784,37.638z"/>
	<path style="fill:#F5CDA5;" d="M24.784,40.25c1.957,2.249,4.407,3.477,7.123,3.477c2.854,0,5.417-1.34,7.418-3.809v-2.669
		l-14.541,0.348V40.25z"/>
	<path style="fill:#C06345;" d="M31.745,30.178c0,0-2.834,3.59-6.778,0.874c0,0,3.534,0.119,4.664-2.154h2.114V30.178z"/>
	<path style="fill:#FFD7AF;" d="M20.583,30.251c0,0-1.881,2.003-2.794-2.771c-0.977-5.103-0.942-7.872,0.809-8.456
		c1.119-0.372,1.439,0.581,1.439,0.581L20.583,30.251z"/>
	<path style="fill:#FED9AE;" d="M31.815,41.768c6.889,0,12.173-7.217,12.173-19.17c0-14.907-4.373-18.369-12.173-18.369
		c-7.799,0-12.173,3.462-12.173,18.369C19.643,34.551,24.927,41.768,31.815,41.768z"/>
	<path style="fill:#FFD7AF;" d="M43.224,30.251c0,0,1.881,2.003,2.794-2.771c0.977-5.103,0.943-7.872-0.809-8.456
		c-1.118-0.372-1.439,0.581-1.439,0.581L43.224,30.251z"/>
	<path style="fill:#FFE1B9;" d="M31.968,4.229v37.528c6.813-0.106,12.021-7.296,12.021-19.16
		C43.988,7.789,39.671,4.276,31.968,4.229z"/>
	<path style="fill:#DC843A;" d="M34.082,30.647h-2.114h-2.114c-1.13,2.273-4.665,2.154-4.665,2.154
		c3.944,2.716,6.779-0.875,6.779-0.875s2.834,3.591,6.778,0.875C38.746,32.802,35.212,32.921,34.082,30.647z"/>
	<path style="fill:#DC843A;" d="M32.022,0C21.671,0,15.037,4.738,17.808,19.39c0.431,2.276,2.188,4.446,2.188,4.446h1.457
		c0,0-2.479-12.756,1.604-14.579c3.245-1.448,6.778,2.261,8.966,2.261c2.187,0,5.721-3.709,8.966-2.261
		c4.082,1.823,1.604,14.579,1.604,14.579h1.458c0,0,1.756-2.17,2.187-4.446C49.007,4.738,42.373,0,32.022,0z"/>
	<path style="fill:#3E506F;" d="M53.553,53.208c-0.346-1.172-1.163-2.145-2.256-2.686l-8.891-4.399l-8.037,0.137
		c0,0,0.51,8.665-2.369,12c-2.879-3.335-2.37-12-2.37-12l-8.036-0.137l-8.891,4.399c-1.093,0.541-1.911,1.514-2.256,2.686L7.271,64
		H32h24.729L53.553,53.208z"/>
	<polygon style="fill:#67849F;" points="24.766,41.148 23.726,42.132 20.719,46.123 27.061,52.246 29.63,46.26 	"/>
	<polygon style="fill:#67849F;" points="39.234,41.148 40.273,42.132 43.28,46.123 36.938,52.246 34.369,46.26 	"/>
</g>
</svg>
