<?xml version="1.0" encoding="iso-8859-1"?>
<!-- Generator: Adobe Illustrator 16.0.0, SVG Export Plug-In . SVG Version: 6.00 Build 0)  -->
<!DOCTYPE svg PUBLIC "-//W3C//DTD SVG 1.1//EN" "http://www.w3.org/Graphics/SVG/1.1/DTD/svg11.dtd">
<svg version="1.1" id="Layer_1" xmlns="http://www.w3.org/2000/svg" xmlns:xlink="http://www.w3.org/1999/xlink" x="0px" y="0px"
	 width="64px" height="64px" viewBox="0 0 64 64" style="enable-background:new 0 0 64 64;" xml:space="preserve">
<g>
	<g>
		<path style="fill:#DFB64C;" d="M46.677,19.518c0,0,0.036,13.965-4.116,17.521l-0.952-0.66l-1.04,1.774l-4.681-1.774L46.677,19.518
			z"/>
	</g>
	<g>
		<path style="fill:#DFB64C;" d="M20.221,38.153c0,0-3.997-12.505-3.627-18.636c0.374-6.133,3.178,0.975,3.178,0.975l6.395,13.984
			c0,0-1.559,2.366-1.559,2.563l-1.32-1.055v1.055l-1.918-1.055L20.221,38.153z"/>
	</g>
	<g>
		<g>
			<path style="fill:#FFE9BA;" d="M19.038,44.566l3.957-0.729c0.018,0,0.018,0,0.037,0c2.132-0.02,3.88-1.729,3.937-3.859v-2.899
				c-4.664-2.88-7.931-9.62-7.931-17.475c0-10.483,5.8-15.82,12.961-15.82l0,0l0,0c7.162,0,12.961,5.337,12.961,15.82
				c0,7.854-3.265,14.595-7.93,17.475v2.899c0.057,2.131,1.805,3.84,3.936,3.859c0.021,0,0.021,0,0.038,0l3.956,0.729
				c8.756,2.707,10.37,9.198,10.37,16.666V64H31.999l0,0H8.67v-2.768C8.67,53.765,10.284,47.273,19.038,44.566z"/>
		</g>
		<g>
			<path style="fill:#FFE9BA;" d="M26.949,39.363c0,0,0-0.02,0.02-0.037v0.037C26.949,39.363,26.949,39.363,26.949,39.363z"/>
		</g>
	</g>
	<g>
		<g>
			<path style="fill:#FFE9BA;" d="M22.475,32.432c1.229,1.997,2.765,3.591,4.494,4.647v2.745c0.997,0.326,2.034,0.499,3.092,0.499
				c2.572,0,4.973-1.019,6.97-2.785v-0.459c-1.518,0.863-3.169,1.324-4.897,1.324C28.292,38.403,24.817,36.08,22.475,32.432z"/>
		</g>
		<g>
			<path style="fill:#FFE9BA;" d="M26.949,39.363c0,0,0,0,0.02,0v-0.037C26.949,39.344,26.949,39.363,26.949,39.363z"/>
		</g>
	</g>
	<g>
		<g>
			<path style="fill:#414953;" d="M8.67,61.232V64h46.66v-2.768c0-7.468-1.614-13.959-10.37-16.666l-3.956-0.729
				c-0.018,0-0.018,0-0.038,0c-0.769,0-1.498-0.231-2.112-0.652c-1.536,2.13-4.031,3.514-6.854,3.514s-5.319-1.384-6.855-3.514
				c-0.614,0.421-1.344,0.652-2.112,0.652c-0.019,0-0.019,0-0.036,0l-3.957,0.729C10.282,47.273,8.67,53.765,8.67,61.232z"/>
		</g>
		<g>
			<path style="fill:#414953;" d="M26.949,39.363c0,0,0,0,0.02,0v-0.037C26.949,39.344,26.949,39.363,26.949,39.363z"/>
		</g>
	</g>
	<g>
		<path style="fill:#C77543;" d="M37.107,37.039c0.383-0.211,0.767-0.459,1.131-0.729c0.021,0,0.021,0,0.041-0.018
			c0.018-0.022,0.018-0.022,0.018-0.04c0.077-0.077,0.154-0.173,0.23-0.269C38.066,36.368,37.605,36.732,37.107,37.039z"/>
	</g>
	<g>
		<path style="fill:#EED59C;" d="M26.969,37.079v2.247c-0.02,0.018-0.02,0.037-0.02,0.037s0,0,0.02,0v0.461
			c0.997,0.326,2.034,0.499,3.092,0.499c2.572,0,4.973-1.019,6.97-2.785c0.421-0.384,0.823-0.786,1.208-1.228
			c0.021,0,0.021,0,0.041-0.018c0.018-0.022,0.018-0.022,0.018-0.04c0.077-0.077,0.154-0.173,0.23-0.269
			c-0.461,0.384-0.922,0.748-1.42,1.055c-0.021,0.02-0.039,0.04-0.077,0.04c-1.518,0.863-3.169,1.324-4.897,1.324
			C28.292,38.403,26.969,37.079,26.969,37.079z"/>
	</g>
	<g>
		<path style="fill:#DFB64C;" d="M25.367,7.596c0,0,9.688,1.91,14.641,6.959c4.952,5.05,1.819,9.043,3.23,14.972
			c0,0,4.33-5.489,3.37-14.251c-0.961-8.76-5.456-15.001-14.609-14.162c0,0-3.032-2.038-7.833-0.6
			c-3.829,1.15-9.73,13.166-6.875,22.996c0.725,2.489,2.009,4.84,4.03,6.838C21.321,30.348,15.885,14.915,25.367,7.596z"/>
	</g>
	<g>
		<ellipse style="fill:#FFE9BA;" cx="43.777" cy="25.188" rx="1.871" ry="3.367"/>
	</g>
	<g>
		<ellipse style="fill:#FFE9BA;" cx="20.222" cy="25.188" rx="1.871" ry="3.367"/>
	</g>
	<g>
		<path style="fill:#DFB64C;" d="M42.451,17.164c0.08-0.295,0.13-0.587,0.099-0.865c-0.159-1.397-2.542-1.744-2.542-1.744
			s0.7,1.782,1.119,4.963c0,0,0.522-0.611,0.937-1.394c0.634,4.055,0.104,7.063,0.104,7.063c1.609-2.55,1.746-3.043,2.288-3.13
			c0.324-0.053,0.413-0.392,0.413-0.392C43.715,19.481,42.956,18.072,42.451,17.164z"/>
	</g>
	<g>
		<path style="fill:#DFB64C;" d="M25.367,7.596c0.475,0.102,7.279,4.723,10.001,5.361l-1.36-3.76L25.367,7.596z"/>
	</g>
	<g>
		<path style="fill:#DFB64C;" d="M25.111,35.984c0,0,3.215,2.799,6.395,2.419c0,0,4.322-0.259,6.667-2.419
			c0,0-1.913,2.656-5.114,3.952l-0.239-1.099l-0.801,1.099L31.1,38.879l-0.228,1.058C30.872,39.937,26.406,37.69,25.111,35.984z"/>
	</g>
	<g>
		<g>
			<path d="M29.445,61.525c-0.155,0.404-0.627,0.603-1.056,0.441l-6.897-2.632c-0.428-0.164-0.648-0.626-0.493-1.032l4.393-11.516
				c0.157-0.406,0.627-0.602,1.054-0.439l6.901,2.634c0.428,0.162,0.646,0.624,0.492,1.031L29.445,61.525z"/>
		</g>
		<g>
			<path style="fill:#7E817A;" d="M29.032,60.131c-0.155,0.406-0.608,0.61-1.015,0.456l-5.328-2.036
				c-0.407-0.154-0.61-0.608-0.455-1.015l3.569-9.352c0.153-0.409,0.608-0.611,1.016-0.456l5.328,2.033
				c0.407,0.155,0.61,0.609,0.455,1.016L29.032,60.131z"/>
		</g>
		<g>
			<path style="fill:#BBBDB9;" d="M22.689,58.551c-0.407-0.154-0.61-0.608-0.455-1.015l3.569-9.352
				c0.153-0.409,0.608-0.611,1.016-0.456l5.328,2.033c0.407,0.155,0.61,0.609,0.455,1.016L22.689,58.551z"/>
		</g>
	</g>
	<g>
		<path style="fill:#FFFFFF;" d="M43.776,27.618c0,0.517-0.42,0.937-0.936,0.937l0,0c-0.516,0-0.935-0.42-0.935-0.937v-2.514
			c0-0.517,0.419-0.936,0.935-0.936l0,0c0.516,0,0.936,0.419,0.936,0.936V27.618z"/>
	</g>
	<g>
		<path style="fill:#FFFFFF;" d="M21.157,27.618c0,0.517-0.42,0.937-0.937,0.937l0,0c-0.516,0-0.937-0.42-0.937-0.937v-2.514
			c0-0.517,0.421-0.936,0.937-0.936l0,0c0.517,0,0.937,0.419,0.937,0.936V27.618z"/>
	</g>
	<g>
		<path style="fill:#FFFFFF;" d="M36.185,54.429c-0.9-0.672-0.492-1.894-0.062-3.189c0.518-1.555,1.006-3.024-0.427-3.791
			c-0.569-0.301-1.14-0.427-1.693-0.548c-0.931-0.205-1.893-0.416-2.707-1.475c-1.555-2.018-0.542-3.141,0.529-4.331
			c0.255-0.28,0.516-0.571,0.762-0.886c0.766-0.984,1.006-1.857,0.714-2.594c-0.831-2.091-5.612-2.824-7.413-3.103
			c-2.297-0.351-4.104-1.085-5.453-3.524c-0.626-1.131-1.48-3.486-0.241-4.313l0.268,0.399c-0.875,0.583-0.224,2.567,0.394,3.681
			c1.259,2.275,2.887,2.943,5.106,3.284c1.874,0.286,6.854,1.052,7.786,3.397c0.358,0.906,0.098,1.938-0.782,3.065
			c-0.257,0.33-0.524,0.628-0.782,0.912c-1.094,1.216-1.818,2.018-0.508,3.719c0.709,0.919,1.507,1.095,2.431,1.297
			c0.585,0.128,1.189,0.262,1.814,0.594c1.793,0.957,1.163,2.847,0.658,4.366c-0.389,1.176-0.728,2.19-0.106,2.653L36.185,54.429z"
			/>
	</g>
	<g>
		<path style="fill:#FFFFFF;" d="M35.614,54.912l0.473-0.499c0.286-0.301,0.613-0.595,0.961-0.904
			c1.1-0.985,2.237-2.005,2.239-3.438c0.002-0.468-0.226-0.88-0.467-1.315c-0.276-0.503-0.563-1.021-0.464-1.631
			c0.141-0.859,0.754-1.372,1.348-1.867c0.654-0.547,1.272-1.065,1.348-2.044c0.104-1.337-0.745-2.609-1.566-3.84
			c-1.149-1.726-2.341-3.509-1.099-5.584c0.499-0.834,1.179-1.493,1.835-2.133c1.197-1.162,2.33-2.262,2.267-4.293l0.481-0.016
			c0.068,2.244-1.193,3.469-2.412,4.653c-0.635,0.616-1.292,1.255-1.758,2.034c-1.087,1.815-0.03,3.397,1.085,5.071
			c0.866,1.298,1.762,2.642,1.646,4.145c-0.089,1.181-0.85,1.814-1.521,2.373c-0.549,0.46-1.068,0.894-1.179,1.576
			c-0.072,0.446,0.162,0.872,0.41,1.322c0.26,0.472,0.527,0.957,0.525,1.548c-0.001,1.648-1.275,2.79-2.399,3.796
			c-0.23,0.206-0.453,0.405-0.656,0.602l0.096,0.11c-0.147,0.131-0.319,0.211-0.511,0.237L35.614,54.912z"/>
	</g>
	<g>
		<path style="fill:#FFFFFF;" d="M37.84,55.678c0,0.531-0.429,0.959-0.959,0.959h-1.239c-0.531,0-0.96-0.428-0.96-0.959v-1.127
			c0-0.529,0.429-0.959,0.96-0.959h1.239c0.53,0,0.959,0.43,0.959,0.959V55.678z"/>
	</g>
	<g>
		<g>
			
				<rect x="15.195" y="48.96" transform="matrix(0.8682 -0.4963 0.4963 0.8682 -22.8094 14.8226)" style="fill:#999B95;" width="2.6" height="2.768"/>
		</g>
		<g>
			<path style="fill:#EFAC15;" d="M23.178,58.321c0.276,0.483,0.109,1.097-0.374,1.374l-1.454,0.831
				c-0.483,0.275-1.097,0.106-1.373-0.375l-4.124-7.218c-0.275-0.48-0.107-1.095,0.374-1.371l1.454-0.831
				c0.485-0.274,1.099-0.107,1.373,0.372L23.178,58.321z"/>
		</g>
		<g>
			<rect x="15.777" y="49.917" transform="matrix(0.8682 -0.4961 0.4961 0.8682 -22.9719 14.6287)" width="0.559" height="1.296"/>
		</g>
		<g>
			<rect x="16.722" y="49.376" transform="matrix(0.8694 -0.4941 0.4941 0.8694 -22.4952 14.9321)" width="0.559" height="1.297"/>
		</g>
	</g>
	<g>
		<g>
			<path style="fill:#7E817A;" d="M22.913,54.6c-0.002,0.22,0.179,0.399,0.397,0.399l0,0c0.221-0.003,0.4-0.18,0.4-0.399v-7.538
				c0-0.22-0.18-0.399-0.4-0.399l0,0c-0.219,0-0.401,0.18-0.399,0.399L22.913,54.6z"/>
		</g>
		<g>
			<path style="fill:#7E817A;" d="M23.912,47.584c0,0.332-0.27,0.598-0.6,0.601l0,0c-0.333-0.003-0.603-0.269-0.603-0.601v-1.842
				c0-0.336,0.27-0.602,0.601-0.602l0,0c0.333,0,0.602,0.266,0.6,0.599L23.912,47.584z"/>
		</g>
		<g>
			<path style="fill:#E0910E;" d="M24.618,61.257c0,0.434-0.351,0.784-0.784,0.784h-1.046c-0.434-0.002-0.784-0.351-0.784-0.783
				v-8.234c0-0.432,0.351-0.781,0.782-0.783l1.048,0.002c0.434-0.002,0.784,0.35,0.784,0.783V61.257z"/>
		</g>
	</g>
	<g>
		<path style="fill:#1B2431;" d="M31.583,63.038c0,0.531-0.431,0.962-0.96,0.962H18.154c-0.53,0-0.959-0.431-0.959-0.962v-6.322
			c0-0.53,0.429-0.96,0.959-0.96h12.469c0.529,0,0.96,0.43,0.96,0.96V63.038z"/>
	</g>
	<g>
		<defs>
			
				<ellipse id="SVGID_1_" transform="matrix(-0.7072 -0.707 0.707 -0.7072 36.3834 123.5431)" cx="43.775" cy="54.237" rx="3.681" ry="5.927"/>
		</defs>
		<clipPath id="SVGID_2_">
			<use xlink:href="#SVGID_1_"  style="overflow:visible;"/>
		</clipPath>
		<g style="clip-path:url(#SVGID_2_);">
			
				<ellipse transform="matrix(-0.7072 -0.707 0.707 -0.7072 36.3834 123.5431)" style="fill:#A4D2E6;" cx="43.775" cy="54.237" rx="3.681" ry="5.927"/>
		</g>
		<g style="clip-path:url(#SVGID_2_);">
			<g>
				
					<rect x="41.107" y="53.098" transform="matrix(-0.7072 -0.707 0.707 -0.7072 38.6679 122.6914)" style="fill:#606060;" width="7.266" height="0.481"/>
			</g>
		</g>
		<g style="clip-path:url(#SVGID_2_);">
			<g>
				
					<rect x="46.131" y="49.405" transform="matrix(-0.7081 -0.7061 0.7061 -0.7081 42.6956 121.0671)" style="fill:#606060;" width="0.48" height="4.609"/>
			</g>
		</g>
	</g>
	<g>
		<path style="fill:#1B2431;" d="M47.965,63.038c0,0.531-0.432,0.962-0.961,0.962h-12.47c-0.529,0-0.959-0.431-0.959-0.962v-6.322
			c0-0.53,0.43-0.96,0.959-0.96h12.47c0.529,0,0.961,0.43,0.961,0.96V63.038z"/>
	</g>
	<g>
		<circle style="fill:#606060;" cx="44.869" cy="53.243" r="1.052"/>
	</g>
</g>
</svg>
