<?xml version="1.0" encoding="iso-8859-1"?>
<!-- Generator: Adobe Illustrator 16.0.0, SVG Export Plug-In . SVG Version: 6.00 Build 0)  -->
<!DOCTYPE svg PUBLIC "-//W3C//DTD SVG 1.1//EN" "http://www.w3.org/Graphics/SVG/1.1/DTD/svg11.dtd">
<svg version="1.1" id="Layer_1" xmlns="http://www.w3.org/2000/svg" xmlns:xlink="http://www.w3.org/1999/xlink" x="0px" y="0px"
	 width="64px" height="64px" viewBox="0 0 64 64" style="enable-background:new 0 0 64 64;" xml:space="preserve">
<g>
	<path style="fill-rule:evenodd;clip-rule:evenodd;fill:#F2EFDC;" d="M11.223,64h39.15l5.588-5.839
		c-0.102-9.771-9.844-7.249-14.9-9.296c-1.219-0.494-2.162-1.147-2.803-2.002c-1.53-2.042-1.592-5.248-1.354-10.246l-12.069-0.156
		c1.203,4.611,1.043,9.47-0.656,11.649c-0.434,0.558-2.252,0.994-4.16,1.352c-2.603,0.488-5.872,0.873-7.277,1.167
		c-3.966,0.825-4.469,5.987-4.26,8.083C8.692,60.817,10.21,62.981,11.223,64z"/>
	<path style="fill-rule:evenodd;clip-rule:evenodd;fill:#FC611F;" d="M56.346,64c-0.027-3.22-0.295-7.97-0.705-9.551
		c-0.411-1.58-1.962-3.248-3.394-3.954c-2.777-1.371-6.537-0.921-9.651-1.25c-1.352-0.355-2.947-1.067-3.809-2.184
		c0.199,3.18-3.621,4.68-7.448,4.635c-3.609-0.042-7.219-1.466-7.718-3.907c-2.075,1.946-5.95,2.027-8.564,2.276
		c-3.457,0.059-5.14,0.99-6.441,4.181C7.915,55.965,7.67,60.898,7.654,64H56.346z"/>
	<path style="fill-rule:evenodd;clip-rule:evenodd;fill:#DCD9C8;" d="M24.835,36.461c1.141,4.947,1.326,8.909-1.14,11.756
		c6.608-0.745,10.814-2.843,13.038-8.43c-0.02-1.337,0.088-1.383,0.172-3.17L24.835,36.461z"/>
	<path style="fill-rule:evenodd;clip-rule:evenodd;fill:#F2EFDC;" d="M19.362,21.132c-1.124-1.68-2.448-0.537-2.038,1.498
		c0.335,1.658,1.102,3.543,1.524,5.435c0.292,1.293,0.757,2.213,1.894,1.972l-0.125-5.394L19.362,21.132z"/>
	<path style="fill-rule:evenodd;clip-rule:evenodd;fill:#F2EFDC;" d="M42.83,21.132c1.125-1.68,2.448-0.537,2.037,1.498
		c-0.334,1.658-1.1,3.543-1.522,5.435c-0.292,1.293-0.758,2.213-1.895,1.972l0.126-5.394L42.83,21.132z"/>
	<path style="fill-rule:evenodd;clip-rule:evenodd;fill:#F2EFDC;" d="M42.279,25.91c0.496-3.32,0.908-6.772,0.361-9.904
		C41.578,9.919,37.572,5.29,31.096,5.312c-7.172,0.024-10.676,2.87-11.728,9.729c-0.687,4.481-0.409,7.375,0.348,11.153
		c0.909,4.535,1.96,15.545,11.292,15.545C40.34,41.739,41.553,30.771,42.279,25.91z"/>
	<path style="fill-rule:evenodd;clip-rule:evenodd;" d="M29.214,18.26l-0.411-6.383l-0.412,6.383l-1.802,0.053l-0.154-6.23
		l-0.722,6.128h-5.046c-0.248,5.894-0.518,11.532,2.06,20.645c-8.178-5.171-9.767-8.999-8.98-20.189
		C14.705,5.037,28.94-5.286,38.07,2.917c8.068,2.404,9.591,6.816,10.098,14.883c0.716,11.395-1.179,16.038-8.656,20.745
		c2.258-7.257,1.816-12.904,2.162-20.542C37.52,18.305,33.266,18.25,29.214,18.26z"/>
	<path style="fill-rule:evenodd;clip-rule:evenodd;fill:#FDC00F;" d="M24.612,46.796c-1.611,0.762-2.467,1.615-2.732,2.583
		c-1.013,3.704,4.769,7.213,8.274,7.48l1.119-5.167C28.323,51.468,22.893,50.154,24.612,46.796z"/>
	<path style="fill-rule:evenodd;clip-rule:evenodd;fill:#FDC00F;" d="M38.163,46.728c1.612,0.762,2.451,1.682,2.716,2.651
		c1.014,3.704-4.768,7.213-8.273,7.48l-1.135-5.15C34.418,51.485,39.883,50.087,38.163,46.728z"/>
</g>
</svg>
