<?xml version="1.0" encoding="iso-8859-1"?>
<!-- Generator: Adobe Illustrator 16.0.0, SVG Export Plug-In . SVG Version: 6.00 Build 0)  -->
<!DOCTYPE svg PUBLIC "-//W3C//DTD SVG 1.1//EN" "http://www.w3.org/Graphics/SVG/1.1/DTD/svg11.dtd">
<svg version="1.1" id="Layer_1" xmlns="http://www.w3.org/2000/svg" xmlns:xlink="http://www.w3.org/1999/xlink" x="0px" y="0px"
	 width="64px" height="64px" viewBox="0 0 64 64" style="enable-background:new 0 0 64 64;" xml:space="preserve">
<g>
	<g>
		<path style="fill:#EDBE70;" d="M48.805,39.842c-10.703,5.123-23.125,5.117-33.83,0c1.467-4.895,2.203-7.34,3.67-12.234
			c8.428,4.016,18.064,4.016,26.492,0C46.604,32.502,47.338,34.947,48.805,39.842z"/>
	</g>
	<path style="fill:#EDBE70;" d="M31.844,0.877c2.375-2.826,20.119,0.339,18.197,21.927c-0.748,8.41-10.172,12.207-10.172,12.207
		h-8.025V0.877z"/>
	<path style="fill:#EDBE70;" d="M31.889,0.877C29.516-1.949,11.77,1.216,13.691,22.805c0.75,8.41,10.172,12.207,10.172,12.207h8.025
		V0.877z"/>
	<path style="fill:#FED9AE;" d="M52.324,53.906c-0.346-0.676-0.883-1.223-1.551-1.579c-2.117-1.13-7.068-3.821-10.314-5.921
		c-0.467-0.299-0.844-0.703-1.133-1.166c-0.359-0.787-0.939-2.447-1.25-5.459h-0.063h-5.982l0,0h-0.063l0,0h-5.982h-0.063
		c-0.311,3.012-0.891,4.672-1.252,5.459c-0.285,0.463-0.664,0.867-1.129,1.166c-3.248,2.1-8.199,4.791-10.318,5.921
		c-0.666,0.356-1.203,0.903-1.549,1.579L6.5,64h25.469h0.063H57.5L52.324,53.906z"/>
	<path style="fill:#F5CDA5;" d="M38.076,39.781h-6.045l0,0h-6.045c-0.047,0.471-0.104,0.9-0.164,1.309
		c1.816,1.447,3.926,2.225,6.209,2.225s4.393-0.777,6.209-2.227C38.182,40.682,38.125,40.25,38.076,39.781z"/>
	<polygon style="fill:#C24E46;" points="46.529,50.061 31.969,59.725 31.936,59.725 17.371,50.061 14.738,51.511 16.867,64 
		31.936,64 31.969,64 47.033,64 49.162,51.511 	"/>
	<path style="fill:#FED9AE;" d="M31.844,42.004c7.121,0,12.584-7.459,12.584-19.816c0-15.408-4.521-18.988-12.584-18.988
		S19.26,6.779,19.26,22.188C19.26,34.545,24.725,42.004,31.844,42.004z"/>
	<path style="fill:#FFE1B9;" d="M32,3.201v38.795c7.043-0.111,12.428-7.543,12.428-19.809C44.428,6.881,39.963,3.25,32,3.201z"/>
	<path style="fill:#FFD7AF;" d="M20.232,30.1c0,0-1.943,2.072-2.889-2.863c-1.008-5.275-0.973-8.137,0.836-8.742
		c1.156-0.385,1.49,0.602,1.49,0.602L20.232,30.1z"/>
	<path style="fill:#FFD7AF;" d="M43.637,30.1c0,0,1.943,2.072,2.889-2.863c1.008-5.275,0.973-8.137-0.836-8.742
		c-1.158-0.385-1.49,0.602-1.49,0.602L43.637,30.1z"/>
	<path style="fill:#EDBE70;" d="M41.865,5.504c-2.758-2.107-8.443-3.563-9.977-3.534V1.968c-0.008,0-0.016,0.002-0.023,0.002
		c-0.004,0-0.021,0-0.021,0c-1.531-0.029-7.221,1.426-9.975,3.534c-10.1,7.721-2.035,20.004-2.035,20.004
		c-0.453-12.791,1.43-14.283,3.164-15.18c1.732-0.893,5.273,1.861,8.801,1.861h0.137c3.523,0,7.064-2.754,8.799-1.861
		c1.732,0.896,3.617,2.389,3.164,15.18C43.898,25.508,51.961,13.225,41.865,5.504z"/>
</g>
</svg>
