<?xml version="1.0" encoding="iso-8859-1"?>
<!-- Generator: Adobe Illustrator 16.0.0, SVG Export Plug-In . SVG Version: 6.00 Build 0)  -->
<!DOCTYPE svg PUBLIC "-//W3C//DTD SVG 1.1//EN" "http://www.w3.org/Graphics/SVG/1.1/DTD/svg11.dtd">
<svg version="1.1" id="Layer_1" xmlns="http://www.w3.org/2000/svg" xmlns:xlink="http://www.w3.org/1999/xlink" x="0px" y="0px"
	 width="64px" height="64px" viewBox="0 0 64 64" style="enable-background:new 0 0 64 64;" xml:space="preserve">
<g id="_x33_">
	<g>
		<g>
			<polygon style="fill:#CCA692;" points="24.35,31.519 24.313,32.235 24.012,38.165 32.393,45.791 35.322,43.11 40.074,38.765 
				40.444,31.476 			"/>
			<path style="fill:#E2BBA1;" d="M33.627,9.089c-2.145-0.82-4.955-0.972-7.116-0.316c-2.179,0.66-4.53,2.085-4.942,4.339
				c-0.295,1.618,0.424,3.251,0.159,4.898c-0.069,0.434-0.188,1.416-0.88,0.942c-0.286-0.196-0.104-0.728-0.409-0.962
				c-0.677-0.52-1.008,0.31-1.061,0.81c-0.188,1.783-0.013,3.748,0.755,5.413c0.445,0.964,1.119,1.267,1.771,1.98
				c0.724,0.791,0.522,2.261,0.759,3.216c0.161,0.647,0.423,1.246,0.794,1.773c0.789,1.129,2.23,1.711,3.147,2.746
				c0.858,0.972,1.649,1.937,2.863,2.597c0.731,0.397,1.778,0.456,2.743,0.461c0.125,0.012,0.252,0.024,0.38,0.033l1.421-28.017
				C33.884,9.032,33.752,9.054,33.627,9.089z"/>
			<path style="fill:#F9CFB3;" d="M46.819,20.192c-0.003-0.504-0.247-1.361-0.974-0.914c-0.328,0.203-0.201,0.751-0.505,0.916
				c-0.735,0.4-0.755-0.588-0.779-1.026c-0.097-1.666,0.784-3.217,0.653-4.857c-0.182-2.283-2.377-3.939-4.478-4.816
				c-1.967-0.821-4.575-0.978-6.726-0.491L32.591,37.02c0.849,0.066,1.728,0.064,2.396-0.215c1.275-0.534,2.16-1.412,3.112-2.293
				c1.017-0.937,2.51-1.37,3.409-2.413c0.422-0.487,0.744-1.056,0.969-1.684c0.332-0.926,0.281-2.409,1.08-3.123
				c0.723-0.645,1.423-0.878,1.963-1.791C46.452,23.922,46.826,21.985,46.819,20.192z"/>
			<path style="fill:#5F5C54;" d="M20.417,16.603c0.244,0.953,0.252,1.653,0.167,2.594c-0.012,0.125-0.032,0.315-0.039,0.521
				l1.281,0.065c0.025-0.249,0.025-0.486,0.023-0.633c-0.003-0.688,0.052-1.23,0.125-1.911c0.098-0.915,0.023-1.863,0.168-2.769
				c0.379-2.383,2.661-3.96,5.111-4.015c1.799-0.04,3.577,0.395,5.373,0.489c2.219,0.117,3.271-0.828,5.072-1.755
				c0.482-0.25,0.206-0.298,0.689-0.156c0.313,0.091,0.699,0.516,0.967,0.686c1.613,1.034,4.555,2.127,4.932,4.153
				c0.298,1.593,0.139,3.199,0.012,4.796c-0.018,0.226-0.287,1.435-0.276,2.24l1,0.051c0.369-0.949,0.863-2.24,0.993-2.743
				c0.525-2.012,0.471-2.911,0.617-3.771c0.518-3.048,0.848-5.976-1.05-8.65c-2.031-2.863-5.165-4.637-6.894-4.519
				c-0.099,0.007-1.266,0.045-1.125,0.176c-0.586-0.546-1.656-0.636-2.404-0.843C31.174-0.49,25.956,1.589,22.9,3.937
				c-3.227,2.479-2.941,5.893-2.756,9.167C20.21,14.245,20.135,15.501,20.417,16.603z"/>
		</g>
		<g>
			<path style="fill:#BAD1DD;" d="M27.475,63.692h15.807c-0.255-1.875-0.549-3.746-0.936-5.605
				c-0.816-3.933-1.506-7.048-4.402-9.823c-1.234-1.184-3.696-5.07-5.455-4.722c-1.465,0-5.607,5.918-6.017,7.186
				c-0.155,0.479-0.224,0.896-0.235,1.29c-0.037,1.147,0.404,2.087,0.59,3.688C27.135,58.353,27.299,61.025,27.475,63.692z"/>
			<path style="fill:#3D5872;" d="M30.445,61.192l1.096,2.5h5.965l0.543-1.7c0.017-0.054,0.017-0.116,0-0.176L34.66,49.438
				c-0.109-0.402-0.088-0.813,0.063-1.156l0.833-1.896c0.035-0.116,0-0.256-0.092-0.354c-0.406-0.438-0.813-0.875-1.22-1.313
				c-0.276-0.297-0.604-0.582-0.78-0.957c-0.127-0.269-0.463-0.877-0.784-0.655c-0.28,0.192-0.353,0.526-0.522,0.797
				c-0.169,0.271-0.448,0.492-0.658,0.723c-0.305,0.334-0.608,0.667-0.911,0.999c-0.077,0.084-0.091,0.219-0.038,0.342l1.125,2.052
				c0.205,0.372,0.29,0.79,0.24,1.178L30.42,61.015C30.41,61.071,30.42,61.134,30.445,61.192z"/>
			<path style="fill:#728D96;" d="M64,63.692c-0.171-1.604-0.791-8.467-1.116-10.521c-0.388-2.44-0.896-4.979-2.439-6.907
				c-1.698-2.123-2.417-3.189-5.108-3.57c-2.969-0.419-12.068-2.295-13.776-3.179c-0.937,3.946-1.593,8.076-2.519,12.036
				c-0.016,0.07-1.569,6.619-2.818,12.141H64z"/>
			<path style="fill:#E4F4FF;" d="M40.447,35.517l-7.451,7.307c-0.109,0.108-0.291,0.094-0.42-0.032l-8.463-8.381l-3.471,6.274
				l6.691,11.441l5.248-8.673c0.11-0.183,0.371-0.162,0.512,0.041l6.775,9.796l2.719-11.854L40.447,35.517z"/>
			<path style="fill:#647C82;" d="M40.274,63.692c2.329-5.635,5.075-10.063,7.333-13.192c-1.43-0.747-2.861-1.493-4.292-2.239
				l4.731-2.133c-0.275-0.814-0.9-2.087-1.736-3.814c-1.25-2.582-4.191-4.588-4.847-4.848L38.778,52.07l-0.942,3.632l-1.807,7.99
				H40.274z"/>
		</g>
		<g>
			<path style="fill:#647C82;" d="M32.855,63.692c-1.684-5.309-4.007-10.554-5.867-15.735l-3.256-9.092c0,0-0.086,0.028-0.248,0.071
				c-0.59,0.156-2.158,1.145-4.127,1.674c-3.84,1.051-7.818,2.744-11.713,3.377C0.889,45.085,0.123,56.321,0,63.692H32.855z"/>
			<path style="fill:#728D96;" d="M18.029,51.275c3.189,3.889,6.428,7.39,9.451,12.417h5.634l-3.415-8.775l-2.709-6.963
				l-3.742-11.506c-0.59,0.155-6.689,6.608-6.827,7.356l6.823,2.744L18.029,51.275z"/>
		</g>
	</g>
</g>
</svg>
