<?xml version="1.0" encoding="iso-8859-1"?>
<!-- Generator: Adobe Illustrator 16.0.0, SVG Export Plug-In . SVG Version: 6.00 Build 0)  -->
<!DOCTYPE svg PUBLIC "-//W3C//DTD SVG 1.1//EN" "http://www.w3.org/Graphics/SVG/1.1/DTD/svg11.dtd">
<svg version="1.1" id="Layer_1" xmlns="http://www.w3.org/2000/svg" xmlns:xlink="http://www.w3.org/1999/xlink" x="0px" y="0px"
	 width="64px" height="64px" viewBox="0 0 64 64" style="enable-background:new 0 0 64 64;" xml:space="preserve">
<g>
	<g>
		<path style="fill:#774E3E;" d="M31.999,0L31.999,0L31.999,0c6.721,0,12.168,5.419,12.168,12.104c0,3.25-0.959,5.539-1.527,5.698
			c-1.804,0.506-5.531-7.786-10.64-7.786h-0.001l0,0c-5.108,0-8.836,8.292-10.639,7.786c-0.569-0.159-1.528-2.448-1.528-5.698
			C19.832,5.419,25.279,0,31.999,0z"/>
		<g>
			<path style="fill:#F9D5BE;" d="M8.803,43.963c0.257-4.877,7.379-5.839,12.898-6.738c2.949-0.479,3.875-3.543,4.104-6.294
				c1.87,1.733,4.28,3.503,6.193,3.503c1.892,0,4.314-1.777,6.193-3.514c0.229,2.753,1.152,5.824,4.106,6.305
				c5.519,0.899,12.641,1.861,12.897,6.738C55.452,48.839,55.325,64,55.325,64H32.288h-0.576H8.675
				C8.675,64,8.547,48.839,8.803,43.963z"/>
			<path style="fill:#F9D5BE;" d="M25.806,30.931c0.038-0.459,0.063-0.913,0.069-1.342h12.25c0.005,0.425,0.03,0.875,0.067,1.331
				c-1.879,1.736-4.301,3.514-6.193,3.514C30.086,34.434,27.676,32.664,25.806,30.931z"/>
			<path style="opacity:0.35;fill:#C69E89;" d="M25.806,30.931c0.038-0.459,0.063-0.913,0.069-1.342h12.25
				c0.005,0.425,0.03,0.875,0.067,1.331c-1.879,1.736-4.301,3.514-6.193,3.514C30.086,34.434,27.676,32.664,25.806,30.931z"/>
		</g>
		<path style="fill:#F9D5BE;" d="M19.706,16.177c0.609-0.212,1.167,0.142,1.604,0.607c-0.021-0.604-0.016-1.065,0.002-1.312
			c0-7.226,5.672-11.33,10.688-11.339c5.017,0.009,10.689,4.113,10.689,11.339c0.019,0.246,0.023,0.707,0.003,1.312
			c0.436-0.466,0.994-0.819,1.603-0.607c0.972,0.338,0.49,6.253-2.345,7.313c-0.087,0.033-0.154,0.04-0.232,0.061
			c-0.368,1.366-0.86,2.694-1.528,3.792c-0.77,1.267-5.222,6.222-8.189,6.222c-3.007,0-7.419-4.955-8.188-6.222
			c-0.668-1.098-1.16-2.426-1.528-3.792c-0.077-0.021-0.146-0.027-0.232-0.061C19.215,22.43,18.735,16.515,19.706,16.177z"/>
		<path style="fill:#774E3E;" d="M31.658,1.394c9.406,0,12.837,6.834,12.509,12.403c-0.146,2.505-1.227,5.798-1.227,5.798
			c-0.121,0.167-0.578,0.064-0.53-0.235c0.819-5.091-1.644-9.79-2.87-10.223c-6.263-1.625-9.049,7.42-17.014,2.771
			c-0.953,2.181-1.379,4.952-0.977,7.451c0.049,0.3-0.418,0.402-0.539,0.235c0,0-1.176-3.762-1.179-6.269
			C19.829,10.842,20.983,1.394,31.658,1.394z"/>
	</g>
	<path style="fill:#FFFFFF;" d="M8.803,43.963c0.257-4.877,7.379-5.839,12.898-6.738c1.84-0.3,2.893-1.605,3.48-3.213l6.828,3.489
		l6.808-3.489c0.587,1.607,1.64,2.913,3.48,3.213c5.519,0.899,12.641,1.861,12.897,6.738C55.452,48.839,55.325,64,55.325,64H32.288
		h-0.576H8.675C8.675,64,8.547,48.839,8.803,43.963z"/>
	<path style="fill:#0D1014;" d="M26.211,36.382v4.168c0,0.563,0.609,0.914,1.097,0.632l9.383-5.433
		c0.487-0.281,1.097,0.07,1.097,0.633v4.168c0,0.563-0.609,0.914-1.097,0.632l-9.383-5.433
		C26.821,35.468,26.211,35.819,26.211,36.382z"/>
	<path style="fill:#0D1014;" d="M42.298,37.225L32,53.479L21.702,37.225c-8.626,1.241-10.049,2.637-10.049,2.637
		C17.29,43.238,18.229,64,18.229,64h27.542c0,0,0.939-20.762,6.576-24.139C52.347,39.861,50.924,38.466,42.298,37.225z"/>
	<g>
		<rect x="30.743" y="40.446" style="opacity:0.35;fill:#CCCCCC;" width="2.535" height="13.861"/>
		<circle style="fill:#FFFFFF;" cx="32.01" cy="41.981" r="0.699"/>
		<circle style="fill:#FFFFFF;" cx="32.01" cy="45.814" r="0.699"/>
		<circle style="fill:#FFFFFF;" cx="32.01" cy="49.647" r="0.699"/>
	</g>
</g>
</svg>
