<?xml version="1.0" encoding="iso-8859-1"?>
<!-- Generator: Adobe Illustrator 16.0.0, SVG Export Plug-In . SVG Version: 6.00 Build 0)  -->
<!DOCTYPE svg PUBLIC "-//W3C//DTD SVG 1.1//EN" "http://www.w3.org/Graphics/SVG/1.1/DTD/svg11.dtd">
<svg version="1.1" id="Layer_1" xmlns="http://www.w3.org/2000/svg" xmlns:xlink="http://www.w3.org/1999/xlink" x="0px" y="0px"
	 width="64px" height="64px" viewBox="0 0 64 64" style="enable-background:new 0 0 64 64;" xml:space="preserve">
<g>
	<path style="fill:#333333;" d="M21.759,5.104C18.883-1.949,5.945-2.717,5.945,9.381c0,9.932,6.015,9.861,6.015,15.805
		c0,2.803-2.798,3.496-2.798,3.496s0.498,3.119,4.689,3.119c3.563,0,4.821-2.422,4.821-2.422L21.759,5.104z"/>
	<path style="fill:#333333;" d="M42.241,5.104c2.875-7.052,15.813-7.821,15.813,4.277c0,9.932-6.015,9.861-6.015,15.805
		c0,2.803,2.797,3.496,2.797,3.496s-0.497,3.119-4.689,3.119c-3.563,0-4.82-2.422-4.82-2.422L42.241,5.104z"/>
	<path style="fill:#333333;" d="M32.017,3.207c-2.271-2.746-18.648,0.408-16.869,21.629c0.695,8.291,9.441,12.028,9.441,12.028
		h7.407h0.041h7.406c0,0,8.747-3.737,9.441-12.028C50.663,3.615,34.286,0.461,32.017,3.207z"/>
	<path style="fill:#FFD7AF;" d="M31.994,51.729l7.063-5.605c0,0-1.017-1.367-1.452-5.607h-5.61l0,0h-5.61
		c-0.437,4.24-1.452,5.607-1.452,5.607L31.994,51.729L31.994,51.729L31.994,51.729L31.994,51.729L31.994,51.729z"/>
	<path style="fill:#F5CDA5;" d="M37.604,40.517h-5.61l0,0h-5.61c-0.045,0.436-0.097,0.836-0.152,1.213
		c1.687,1.346,3.644,2.066,5.763,2.066s4.076-0.721,5.763-2.066C37.701,41.353,37.649,40.952,37.604,40.517z"/>
	<path style="fill:#FED9AE;" d="M31.994,42.45c6.608,0,11.679-6.923,11.679-18.392c0-14.301-4.196-17.623-11.679-17.623
		c-7.483,0-11.68,3.322-11.68,17.623C20.314,35.527,25.386,42.45,31.994,42.45z"/>
	<path style="fill:#FFE1B9;" d="M32.14,6.438v36.005c6.536-0.104,11.533-7.001,11.533-18.384C43.673,9.852,39.53,6.48,32.14,6.438z"
		/>
	<path style="fill:#FFD7AF;" d="M21.217,31.402c0,0-1.805,1.922-2.681-2.658c-0.937-4.895-0.903-7.553,0.774-8.113
		c1.075-0.357,1.384,0.559,1.384,0.559L21.217,31.402z"/>
	<path style="fill:#FFD7AF;" d="M42.938,31.402c0,0,1.805,1.922,2.682-2.658c0.936-4.895,0.903-7.553-0.775-8.113
		c-1.074-0.357-1.384,0.559-1.384,0.559L42.938,31.402z"/>
	<path style="fill:#333333;" d="M43.29,21.883h1.153c0,0,1.731-7.5-1.363-13.322S32.328,3.422,32.065,3.422
		c-0.262,0-7.396-0.105-10.123,5.453c-2.728,5.561-3.619,4.25-2.098,13.008h1.153c0,0,0.577-5.666,2.36-6.609
		c-0.734,1.836,0.07,6.609,0.07,6.609h6.015l1.259-3.691l0.698,3.357h7.273c0,0,0.21-3.428-0.419-6.854c0,0,2.237,4.826,2.098,6.715
		L43.29,21.883z"/>
	<path style="fill:#DB7B13;" d="M55.808,64l-3.112-9.026c-0.338-0.977-1.024-1.797-1.929-2.299l-7.286-4.049l-11.414-0.08v-0.002
		H32.03h-0.037v0.002l-11.414,0.08l-7.285,4.049c-0.904,0.502-1.591,1.322-1.929,2.299L8.253,64h23.764h0.027H55.808z"/>
	<path style="fill:#CC5525;" d="M24.932,43.796l-4.617,4.26c0,0,4.858,11.816,11.679,0.488L24.932,43.796z"/>
	<path style="fill:#CC5525;" d="M39.129,43.796l4.616,4.26c0,0-4.857,11.816-11.679,0.488L39.129,43.796z"/>
</g>
</svg>
