<?xml version="1.0" encoding="iso-8859-1"?>
<!-- Generator: Adobe Illustrator 16.0.0, SVG Export Plug-In . SVG Version: 6.00 Build 0)  -->
<!DOCTYPE svg PUBLIC "-//W3C//DTD SVG 1.1//EN" "http://www.w3.org/Graphics/SVG/1.1/DTD/svg11.dtd">
<svg version="1.1" id="Layer_1" xmlns="http://www.w3.org/2000/svg" xmlns:xlink="http://www.w3.org/1999/xlink" x="0px" y="0px"
	 width="64px" height="64px" viewBox="0 0 64 64" style="enable-background:new 0 0 64 64;" xml:space="preserve">
<g>
	<g>
		<g>
			<path style="fill:#774E3E;" d="M32.001,11.451L32.001,11.451L32.001,11.451c-6.282,0-11.374,5.066-11.374,11.315
				c0,3.037,0.896,5.177,1.428,5.325c1.687,0.474,5.17-7.276,9.945-7.276l0,0h0.001c4.775,0,8.259,7.75,9.944,7.276
				c0.532-0.148,1.429-2.288,1.429-5.325C43.374,16.518,38.282,11.451,32.001,11.451z"/>
			<g>
				<path style="fill:#F9D5BE;" d="M53.682,52.544c-0.239-4.558-6.897-5.458-12.055-6.298c-2.759-0.448-3.624-3.313-3.838-5.883
					c-1.747,1.62-4.001,3.274-5.789,3.274c-1.768,0-4.031-1.661-5.788-3.285c-0.213,2.573-1.077,5.444-3.838,5.894
					c-5.158,0.84-11.816,1.74-12.056,6.298C10.078,57.103,10.198,64,10.198,64H31.73h0.539h21.532
					C53.802,64,53.922,57.103,53.682,52.544z"/>
				<path style="fill:#F9D5BE;" d="M37.789,40.363c-0.036-0.43-0.06-0.854-0.064-1.254H26.275c-0.005,0.396-0.028,0.816-0.063,1.243
					c1.757,1.624,4.021,3.285,5.788,3.285C33.788,43.638,36.042,41.983,37.789,40.363z"/>
				<path style="opacity:0.35;fill:#C69E89;" d="M37.789,40.363c-0.036-0.43-0.06-0.854-0.064-1.254H26.275
					c-0.005,0.396-0.028,0.816-0.063,1.243c1.757,1.624,4.021,3.285,5.788,3.285C33.788,43.638,36.042,41.983,37.789,40.363z"/>
			</g>
			<path style="fill:#F9D5BE;" d="M43.491,26.572c-0.569-0.197-1.091,0.133-1.498,0.567c0.019-0.564,0.015-0.996-0.003-1.226
				c0-6.754-5.302-10.591-9.99-10.599c-4.689,0.008-9.99,3.845-9.99,10.599c-0.018,0.229-0.022,0.661-0.003,1.226
				c-0.408-0.435-0.93-0.765-1.498-0.567c-0.908,0.316-0.459,5.845,2.191,6.836c0.081,0.031,0.145,0.037,0.218,0.057
				c0.344,1.277,0.804,2.52,1.428,3.545c0.72,1.184,4.881,5.815,7.654,5.815c2.811,0,6.935-4.632,7.654-5.815
				c0.624-1.025,1.084-2.268,1.429-3.545c0.072-0.02,0.136-0.025,0.217-0.057C43.949,32.417,44.399,26.889,43.491,26.572z"/>
			<path style="fill:#774E3E;" d="M32.319,12.754c-8.791,0-11.998,6.389-11.692,11.594c0.138,2.341,1.146,5.42,1.146,5.42
				c0.114,0.156,0.541,0.06,0.496-0.221c-0.766-4.758,1.536-10.572,2.683-10.976c5.854-1.52,8.557,5.817,15.902,2.591
				c0.892,2.038,1.289,6.049,0.913,8.385c-0.045,0.28,0.391,0.377,0.505,0.221c0,0,1.099-3.517,1.102-5.86
				C43.377,21.586,42.297,12.754,32.319,12.754z"/>
		</g>
		<g>
			<path style="fill:#FFFFFF;" d="M53.682,52.544c-0.239-4.558-6.897-5.458-12.055-6.298c-1.722-0.28-2.705-1.5-3.254-3.004
				c0,0-1.998,1.268-3.764,2.32c-0.499,0.298-0.804,0.834-0.804,1.415v0.88h-3.609v-0.88c0-0.581-0.305-1.118-0.804-1.416
				c-1.767-1.053-3.766-2.319-3.766-2.319c-0.549,1.503-1.532,2.724-3.253,3.004c-5.158,0.84-11.816,1.74-12.056,6.298
				C10.078,57.103,10.198,64,10.198,64H31.73h0.539h21.532C53.802,64,53.922,57.103,53.682,52.544z"/>
			<g>
				<polygon style="opacity:0.55;fill:#CCCCCC;" points="23.101,49.272 24.591,64 38.39,64 39.88,48.678 				"/>
				<polygon style="fill:#FFFFFF;" points="23.61,49.697 25.101,64 38.899,64 40.39,49.146 				"/>
				<g>
					<circle style="opacity:0.75;fill:#CCCCCC;" cx="26.868" cy="52.591" r="0.643"/>
					<circle style="opacity:0.75;fill:#CCCCCC;" cx="37.133" cy="52.591" r="0.643"/>
					<circle style="opacity:0.75;fill:#CCCCCC;" cx="27.341" cy="57.226" r="0.643"/>
					<circle style="opacity:0.75;fill:#CCCCCC;" cx="36.628" cy="57.226" r="0.643"/>
					<circle style="opacity:0.75;fill:#CCCCCC;" cx="27.748" cy="61.86" r="0.643"/>
					<circle style="opacity:0.75;fill:#CCCCCC;" cx="36.222" cy="61.86" r="0.643"/>
				</g>
			</g>
		</g>
	</g>
	<path style="fill:#FFFFFF;" d="M41.432,3.867c-0.954,0-1.854,0.231-2.652,0.632C37.665,1.855,35.05,0,32,0c-0.003,0-0.006,0-0.01,0
		c-0.003,0-0.006,0-0.01,0c-3.049,0-5.664,1.855-6.778,4.499c-0.8-0.4-1.698-0.632-2.653-0.632c-3.275,0-5.93,2.655-5.93,5.931
		c0,2.674,1.771,4.933,4.203,5.673l0.394,3.639c4.02-2.504,7.668-3.401,10.774-3.47c3.106,0.068,6.755,0.966,10.775,3.47
		l0.393-3.639c2.433-0.74,4.204-2.999,4.204-5.673C47.362,6.522,44.707,3.867,41.432,3.867z"/>
</g>
</svg>
