<?xml version="1.0" encoding="iso-8859-1"?>
<!-- Generator: Adobe Illustrator 16.0.0, SVG Export Plug-In . SVG Version: 6.00 Build 0)  -->
<!DOCTYPE svg PUBLIC "-//W3C//DTD SVG 1.1//EN" "http://www.w3.org/Graphics/SVG/1.1/DTD/svg11.dtd">
<svg version="1.1" id="Layer_1" xmlns="http://www.w3.org/2000/svg" xmlns:xlink="http://www.w3.org/1999/xlink" x="0px" y="0px"
	 width="64px" height="64px" viewBox="0 0 64 64" style="enable-background:new 0 0 64 64;" xml:space="preserve">
<g>
	<path style="fill-rule:evenodd;clip-rule:evenodd;fill:#F2EFDC;" d="M3.591,58.744h56.809c1.276-1.2,2.485-2.47,3.601-3.822
		c0.001-1.015-0.01-1.748-0.038-2.049c-0.546-5.823-2.546-7.07-9.41-6.974c-0.836-0.014-1.763,0.002-2.789,0.043
		c-2.344-0.152-9.986-0.744-11.262-5.044c-0.614-2.07-0.771-5.207-0.302-7.304l-8.119,0.156l-8.119-0.156
		c0.766,3.431,0.169,5.953-1.209,7.844c-1.953,2.68-5.682,3.888-10.19,4.479c-0.924-0.026-1.763-0.032-2.521-0.008
		c-7.328-0.173-9.425,0.979-9.984,6.963C0.027,53.173,0.01,53.911,0,54.934C1.113,56.281,2.318,57.547,3.591,58.744z"/>
	<path style="fill-rule:evenodd;clip-rule:evenodd;fill:#FDC00F;" d="M63.998,61.104c-0.005-3.236-0.017-8.021-0.036-8.231
		c-0.546-5.823-2.546-7.07-9.41-6.974c-0.836-0.014-1.763,0.002-2.789,0.043c-1.749-0.114-6.441-0.473-9.245-2.43
		c-0.47,8.229-22.236,7.501-21.011-0.745c-2.1,1.773-5.263,2.667-8.945,3.15c-0.924-0.026-1.763-0.032-2.521-0.008
		c-7.328-0.173-9.425,0.979-9.984,6.963c-0.021,0.212-0.035,5.048-0.045,8.231H63.998z"/>
	<g>
		<path style="fill-rule:evenodd;clip-rule:evenodd;fill:#F2EFDC;" d="M22.605,27.188l0.471-5.602
			c-0.832-0.817-1.429-1.357-1.862-2.028c-1.19-1.848-1.938-2.272-2.661-1.734c-0.293,0.219-0.397,0.911-0.226,1.781
			c0.301,1.521,1.259,3.788,1.561,5.119C20.13,25.796,21.531,29.465,22.605,27.188z"/>
		<path style="fill-rule:evenodd;clip-rule:evenodd;fill:#F2EFDC;" d="M41.383,27.188l-0.469-5.602
			c0.831-0.817,1.429-1.357,1.86-2.028c1.19-1.848,1.938-2.272,2.662-1.734c0.293,0.219,0.396,0.911,0.226,1.781
			c-0.3,1.521-1.26,3.788-1.561,5.119C43.859,25.796,42.457,29.465,41.383,27.188z"/>
	</g>
	<path style="fill-rule:evenodd;clip-rule:evenodd;fill:#DCD9C8;" d="M20.699,43.32c4.814-0.467,8.386-0.022,15.63-5.271
		c0.99-0.718,2.176-2.432,3.663-3.492c0.052-0.44,0.121-0.582,0.207-0.963l-8.119,0.156l-8.119-0.156
		C24.173,34.545,25.052,41.192,20.699,43.32z"/>
	<path style="fill-rule:evenodd;clip-rule:evenodd;fill:#F2EFDC;" d="M32.206,38.467c-0.046,0.003-0.093,0.004-0.139,0.004
		c-1.687,0.012-2.525-0.016-3.442-0.403c-0.886-0.377-1.316-1.246-2.535-2.42c-1.036-0.999-2.897-2.017-3.351-3.104
		c-0.621-1.49-0.377-3.132-0.765-5.444c-0.309-1.843-1.175-3.479-1.276-5.323c-0.106-1.993,0.214-4.001,0.146-6.252
		c-0.066-2.201-0.129-4.023,0.142-5.57c0.272-1.559,0.883-2.854,2.155-3.99l0,0c0,0,0,0,0-0.004
		c0.703-0.624,1.501-1.156,2.369-1.594c0.009-0.003,0.019-0.006,0.028-0.01c0.057-0.026,0.114-0.056,0.171-0.084
		c0.033-0.016,0.063-0.03,0.097-0.049c0.044-0.021,0.092-0.043,0.136-0.062c0.045-0.018,0.09-0.04,0.135-0.058
		c0.049-0.026,0.098-0.045,0.146-0.063c0.043-0.021,0.085-0.039,0.129-0.058c0.062-0.025,0.123-0.053,0.187-0.073
		c0.027-0.011,0.058-0.025,0.089-0.036c0.09-0.037,0.185-0.07,0.275-0.103c0,0,0,0,0.003-0.004c2.312-0.836,4.935-1.072,7.42-0.703
		c2.476,0.365,4.809,1.333,6.543,2.879c1.267,1.136,1.872,2.422,2.146,3.976c0.271,1.539,0.216,3.355,0.152,5.548
		c-0.064,2.247,0.261,4.244,0.155,6.23c-0.099,1.838-0.962,3.475-1.264,5.313c-0.378,2.307-0.136,3.937-0.75,5.432
		c-0.452,1.092-2.299,2.123-3.329,3.131c-1.214,1.189-1.641,2.061-2.521,2.451C34.575,38.408,33.766,38.461,32.206,38.467z"/>
	<g>
		<path style="fill-rule:evenodd;clip-rule:evenodd;fill:#232426;" d="M32.084,37.108c4.221-0.057,7.271-3.092,8.342-5.646
			c1.031-2.456,0.799-6.283,3.191-10.339c-1.803,3.389-1.473,9.227-2.076,11.031c-0.419,1.248-1,1.437-1.727,2.089
			c-2.583,2.319-3.282,3.793-5.254,4.135c-0.893,0.155-3.687,0.166-4.616,0.042c-2.124-0.285-2.715-1.786-5.384-4.177
			c-0.726-0.65-1.306-0.841-1.725-2.089c-0.605-1.805-0.528-7.029-1.833-11.328c1.577,1.347,2.022,7.746,2.904,10.477
			C24.69,33.721,28.535,37.158,32.084,37.108z"/>
		<path style="fill-rule:evenodd;clip-rule:evenodd;fill:#232426;" d="M26.826,34.166c-0.381-3.954,1.26-3.35,3.6-5.087
			c0.906-0.674,0.223-0.308,1.763-0.174c1.652-0.144,0.837-0.502,1.843,0.232c1.736,1.268,4.478,1.729,2.725,5.164
			c0.373-3.143-0.282-3.007-3.049-3.619c-0.66-0.146-1.002-0.166-1.501,0.245c-0.46-0.381-0.725-0.376-1.339-0.275
			C28.208,31.081,27.186,31.262,26.826,34.166z"/>
	</g>
</g>
</svg>
