<?xml version="1.0" encoding="iso-8859-1"?>
<!-- Generator: Adobe Illustrator 16.0.0, SVG Export Plug-In . SVG Version: 6.00 Build 0)  -->
<!DOCTYPE svg PUBLIC "-//W3C//DTD SVG 1.1//EN" "http://www.w3.org/Graphics/SVG/1.1/DTD/svg11.dtd">
<svg version="1.1" id="Layer_1" xmlns="http://www.w3.org/2000/svg" xmlns:xlink="http://www.w3.org/1999/xlink" x="0px" y="0px"
	 width="64px" height="64px" viewBox="0 0 64 64" style="enable-background:new 0 0 64 64;" xml:space="preserve">
<g id="_x35_">
	<g>
		<g>
			<path style="fill:#2B2924;" d="M44.133,5.421c-0.211-0.219-0.416-0.433-0.613-0.632C43.717,4.989,43.922,5.203,44.133,5.421z"/>
			<path style="fill:#2B0D04;" d="M18.191,17.461c0.021-1.019,0.078-2.042,0.221-3.075C19.561,6.037,26.831-1.21,35.63,0.169
				c9.388,1.473,14.093,8.394,15.026,17.703c0.32,3.192-0.241,5.844,0.682,8.939c0.987,3.31,2.098,6.579,3.003,9.913
				c1.438,5.309,2.884,10.635,3.649,16.082c0.461,3.281,0.248,7.398-2.725,8.861c-1.275,0.627-2.766,0.572-4.186,0.504
				c-9.58-0.459-19.164-1.037-28.75-1.381c-2.811-0.1-6.752,1.09-9.337,0.027c-9.799-4.025-0.311-17.031,1.719-22.662
				c1.427-3.957,2.493-8.043,3.171-12.196C18.357,23.052,18.134,20.268,18.191,17.461z"/>
		</g>
		<g>
			<path style="fill:#DEB09D;" d="M24.637,39.406c0,0,1.907-4.16,1.188-9c-0.551-3.71,14.862,1.368,14.862,1.368
				s-0.634,3.529,0,6.613c0.633,3.084-7.372,8.992-7.372,8.992l-5.267-2.686l-0.738,0.754L24.637,39.406z"/>
			<path style="fill:#F9CFB3;" d="M37.98,12.921c0.898-0.622,4.407-2.268,4.273-3.496c0.156,1.434,0.886,2.644,1.266,4.002
				c0.427,1.521,1.045,2.967,1.348,4.534c0.563,2.91,0.59,6.269-0.375,9.105c-0.898,2.641-2.737,4.683-4.783,6.523
				c-0.146,0.131-0.292,0.262-0.438,0.391c-1.633,1.451-3.248,2.135-4.849,2.09l-0.04-21.328
				C35.647,14.128,36.892,13.677,37.98,12.921z"/>
			<path style="fill:#E2BBA1;" d="M28.608,18.413c1.927-1.074,5.708-3.761,5.813-3.709V36.07c-1.601,0.045-3.216-0.639-4.848-2.09
				c-0.147-0.129-0.294-0.26-0.438-0.391c-2.218-1.995-4.198-4.028-4.698-6.939c-0.066-0.384-0.278-0.841-0.666-0.864
				c-1.271-0.077-1.863-2.283-2.114-3.622C23.667,20.535,26.389,19.651,28.608,18.413z"/>
		</g>
	</g>
	<g>
		<path style="fill:#E6E7E8;" d="M30.487,64h4.6l4.784-11.268c0.15-0.355,0.099-0.76-0.137-1.068
			c-1.663-2.17-4.155-4.506-6.947-5.223c-2.793,0.717-5.284,3.053-6.947,5.223c-0.236,0.309-0.288,0.713-0.137,1.068L30.487,64z"/>
		<path style="fill:#728D96;" d="M61.568,64c-0.453-4.939-1.088-9.539-1.682-11.76c-1.271-4.764-4.084-6.023-8.758-7.451
			c-0.709-0.217-10.736-2.354-10.099-4.439c-2.109,6.9-4.247,13.816-6.367,20.723c-0.301,0.977-0.601,1.951-0.9,2.928H61.568z"/>
		<path style="fill:#647C82;" d="M14.701,64h16.892c-0.3-0.977-0.599-1.951-0.899-2.928c-2.121-6.906-4.253-13.822-6.368-20.723
			c0,0.338-4.175,2.941-4.663,3.137c-1.924,0.762-3.576,0.787-5.289,1.129C15.436,50.895,14.969,57.451,14.701,64z"/>
		<g>
			<path style="fill:#3D5872;" d="M29.083,62.625c-0.014,0.055-0.01,0.111,0.011,0.164L29.565,64h6.443l0.471-1.211
				c0.021-0.053,0.024-0.109,0.012-0.164l-2.406-10.922c-0.076-0.348-0.027-0.709,0.14-1.021l0.914-1.719
				c0.041-0.104,0.017-0.221-0.063-0.301c-0.314-0.311-0.628-0.623-0.942-0.936c-0.216-0.215-0.496-0.426-0.676-0.672
				s-0.272-0.537-0.55-0.723c-0.317-0.213-0.59,0.287-0.689,0.51c-0.139,0.311-0.427,0.535-0.666,0.771
				c-0.352,0.35-0.703,0.699-1.055,1.049c-0.079,0.08-0.104,0.197-0.063,0.301l0.913,1.719c0.167,0.313,0.217,0.674,0.141,1.021
				L29.083,62.625z"/>
			<path style="fill:#FFFFFF;" d="M23.061,43.684l1.8-5.16l1.447,2.627c1.637,2.311,5.21,4.639,6.479,4.672
				c1.269-0.033,4.684-2.25,6.479-4.672l1.447-2.627l1.801,5.16c0.025,0.074,0.027,0.154,0.004,0.23l-3.296,10.672
				c-0.092,0.299-0.495,1.895-0.679,0.109l-1.845-3.203c-0.215-0.373-0.467-0.727-0.75-1.055l-3.161-3.941l-3.162,3.941
				c-0.283,0.328-0.534,0.682-0.749,1.055l-1.845,3.203c-0.185,1.785-0.587,0.189-0.68-0.109l-3.296-10.672
				C23.033,43.838,23.034,43.758,23.061,43.684z"/>
			<g>
				<path style="fill:#647C82;" d="M39.679,64c2.896-4.32,5.57-8.186,5.446-8.408c-0.004-0.004-3.041-5.438-3.041-5.438l4.14,0.445
					c-0.425-1.316-1.377-7.771-2.594-8.422l-2.337-1.881l-4.976,14.826L33.627,64H39.679z"/>
				<path style="fill:#728D96;" d="M20.449,55.592c-0.126,0.227,2.484,4.076,5.354,8.408h6.144l-2.69-8.877L24.28,40.297
					l-2.337,1.881c-1.217,0.65-2.168,7.105-2.593,8.422l4.14-0.445C23.49,50.154,20.452,55.588,20.449,55.592z"/>
			</g>
		</g>
		<path style="fill:#647C82;" d="M15.639,64c-0.218-2.439-0.536-4.871-0.477-7.33c0.099-4.027-0.115-8.07-0.789-12.055
			c-0.842,0.168-1.699,0.414-2.61,0.863C7.9,47.387,5.172,53.373,3.987,57.256C3.301,59.506,2.827,61.75,2.432,64H15.639z"/>
	</g>
</g>
</svg>
