<?xml version="1.0" encoding="iso-8859-1"?>
<!-- Generator: Adobe Illustrator 16.0.0, SVG Export Plug-In . SVG Version: 6.00 Build 0)  -->
<!DOCTYPE svg PUBLIC "-//W3C//DTD SVG 1.1//EN" "http://www.w3.org/Graphics/SVG/1.1/DTD/svg11.dtd">
<svg version="1.1" id="Layer_1" xmlns="http://www.w3.org/2000/svg" xmlns:xlink="http://www.w3.org/1999/xlink" x="0px" y="0px"
	 width="64px" height="64px" viewBox="0 0 64 64" style="enable-background:new 0 0 64 64;" xml:space="preserve">
<g>
	<path style="fill:#FFD7AF;" d="M19.873,28.09c0,0-2.029,2.162-3.016-2.99c-1.053-5.509-1.018-8.498,0.873-9.127
		c1.209-0.402,1.555,0.627,1.555,0.627L19.873,28.09z"/>
	<path style="fill:#FFD7AF;" d="M24.02,35.854v3.897c0,1.418,0.639,2.762,1.736,3.659l3.398,2.77
		c1.729,1.412,4.213,1.417,5.949,0.015l3.447-2.784c1.109-0.896,1.754-2.247,1.754-3.673v-4.26L24.02,35.854z"/>
	<path style="fill:#F5CDA5;" d="M24.02,38.719c2.191,2.427,4.936,3.752,7.98,3.752c3.195,0,6.064-1.447,8.305-4.112v-2.88
		L24.02,35.854V38.719z"/>
	<path style="fill:#FED9AE;" d="M32,40.521c7.436,0,13.139-7.789,13.139-20.693C45.139,3.736,40.418,0,32,0
		c-8.42,0-13.141,3.736-13.141,19.828C18.859,32.732,24.564,40.521,32,40.521z"/>
	<path style="fill:#FFD7AF;" d="M44.313,28.09c0,0,2.031,2.162,3.018-2.99c1.053-5.509,1.018-8.498-0.873-9.127
		C45.25,15.57,44.902,16.6,44.902,16.6L44.313,28.09z"/>
	<path style="fill:#FFE1B9;" d="M32.164,0.002v40.509c7.354-0.114,12.975-7.874,12.975-20.683
		C45.139,3.844,40.479,0.052,32.164,0.002z"/>
	<path style="fill:#48525E;" d="M19.885,45.47l-10.48,6.789c-0.992,0.644-1.709,1.637-2.004,2.782L5.086,64H32.01V46.979
		L19.885,45.47z"/>
	<polygon style="fill:#67849F;" points="24.031,39.491 23.203,39.491 19.885,45.47 27.807,53.26 32.01,46.979 	"/>
	<path style="fill:#48525E;" d="M44.115,45.449l10.48,6.789c0.992,0.645,1.707,1.637,2.004,2.782l2.314,8.959H31.99V46.958
		L44.115,45.449z"/>
	<polygon style="fill:#67849F;" points="39.969,39.473 40.797,39.473 44.115,45.449 36.193,53.239 31.99,46.958 	"/>
	<path style="fill:#969696;" d="M18.859,19.828c0,0-3.328-1.982-1.063-11.225c1.49-6.075,5.41-5.782,5.41-5.782
		S19.307,8.996,18.859,19.828z"/>
	<path style="fill:#969696;" d="M45.156,19.828c0,0,3.328-1.982,1.063-11.225c-1.49-6.075-5.41-5.782-5.41-5.782
		S44.709,8.996,45.156,19.828z"/>
</g>
</svg>
