<?xml version="1.0" encoding="iso-8859-1"?>
<!-- Generator: Adobe Illustrator 16.0.0, SVG Export Plug-In . SVG Version: 6.00 Build 0)  -->
<!DOCTYPE svg PUBLIC "-//W3C//DTD SVG 1.1//EN" "http://www.w3.org/Graphics/SVG/1.1/DTD/svg11.dtd">
<svg version="1.1" id="Layer_1" xmlns="http://www.w3.org/2000/svg" xmlns:xlink="http://www.w3.org/1999/xlink" x="0px" y="0px"
	 width="64px" height="64px" viewBox="0 0 64 64" style="enable-background:new 0 0 64 64;" xml:space="preserve">
<g>
	<g>
		<path style="fill:#231E1C;" d="M32.001,3.516L32.001,3.516L32.001,3.516c-6.621,0-11.987,5.34-11.987,11.926
			c0,3.201,0.945,5.455,1.505,5.611c1.776,0.5,5.448-7.668,10.481-7.668l0,0h0.001c5.032,0,8.704,8.168,10.48,7.668
			c0.56-0.156,1.505-2.41,1.505-5.611C43.986,8.855,38.62,3.516,32.001,3.516z"/>
		<g>
			<path style="fill:#F9D5BE;" d="M54.85,46.824c-0.253-4.805-7.269-5.753-12.705-6.638c-2.906-0.473-3.817-3.49-4.044-6.2
				c-1.842,1.707-4.217,3.45-6.102,3.45c-1.862,0-4.248-1.751-6.1-3.462c-0.225,2.713-1.135,5.738-4.045,6.212
				c-5.437,0.885-12.452,1.833-12.705,6.638C8.896,51.628,9.022,64,9.022,64h22.692h0.569h22.692
				C54.977,64,55.103,51.628,54.85,46.824z"/>
			<path style="fill:#F9D5BE;" d="M38.101,33.986c-0.037-0.453-0.063-0.9-0.067-1.322H25.967c-0.006,0.418-0.03,0.861-0.067,1.311
				c1.852,1.711,4.237,3.462,6.1,3.462C33.884,37.437,36.259,35.693,38.101,33.986z"/>
			<path style="opacity:0.35;fill:#C69E89;" d="M38.101,33.986c-0.037-0.453-0.063-0.9-0.067-1.322H25.967
				c-0.006,0.418-0.03,0.861-0.067,1.311c1.852,1.711,4.237,3.462,6.1,3.462C33.884,37.437,36.259,35.693,38.101,33.986z"/>
		</g>
		<path style="fill:#F9D5BE;" d="M44.11,19.453c-0.6-0.209-1.149,0.139-1.579,0.598c0.021-0.596,0.016-1.051-0.003-1.293
			c0-7.117-5.587-11.16-10.528-11.17c-4.942,0.01-10.529,4.053-10.529,11.17c-0.019,0.242-0.022,0.697-0.003,1.293
			c-0.43-0.459-0.979-0.807-1.579-0.598c-0.957,0.332-0.482,6.158,2.31,7.203c0.086,0.033,0.153,0.039,0.229,0.059
			c0.362,1.348,0.848,2.656,1.505,3.736c0.759,1.248,5.145,6.13,8.067,6.13c2.962,0,7.308-4.882,8.066-6.13
			c0.657-1.08,1.143-2.389,1.505-3.736c0.076-0.02,0.144-0.025,0.229-0.059C44.593,25.611,45.067,19.785,44.11,19.453z"/>
		<path style="fill:#231E1C;" d="M32.336,4.889c-9.265,0-12.645,6.732-12.322,12.219c0.146,2.467,1.209,5.711,1.209,5.711
			c0.12,0.166,0.57,0.064,0.522-0.23c-0.564-3.508,0.286-6.777,1.32-9.086c0.756-1.686,2.834-4.873,9.271-4.977
			c3.501-0.055,7.194,1.303,8.994,5.225c0.94,2.148,1.359,6.375,0.962,8.838c-0.047,0.295,0.412,0.396,0.532,0.23
			c0,0,1.158-3.705,1.161-6.176C43.989,14.197,42.852,4.889,32.336,4.889z"/>
	</g>
	<g>
		<path style="fill:#242F42;" d="M48.296,8.896c-0.872-1.078-5.23-5.021-4.795-6.207c0.437-1.184-10.809-2.287-11.452-2.682
			c-0.017-0.012-0.032-0.01-0.048,0c-0.016-0.01-0.032-0.012-0.049,0C31.31,0.402,20.064,1.506,20.5,2.689
			c0.437,1.186-3.923,5.129-4.795,6.207s0.981,2.553,3.706,4.525c2.37,1.717,10.517,0.922,12.59,0.688
			c2.071,0.234,10.219,1.029,12.59-0.688C47.314,11.449,49.167,9.975,48.296,8.896z"/>
		<path style="fill:#253950;" d="M42.787,10.316c0-1.889-4.829-3.422-10.786-3.422c-5.958,0-10.788,1.533-10.788,3.422
			c0,1.891-4.31,6.217,10.788,3.424C47.096,16.533,42.787,12.207,42.787,10.316z"/>
		<path style="fill:#242F42;" d="M42.787,14.125c0,1.891-4.829,3.422-10.786,3.422c-5.958,0-10.788-1.531-10.788-3.422
			s4.83-2.303,10.788-2.303C37.958,11.822,42.787,12.234,42.787,14.125z"/>
		<path style="fill:#FFBF40;" d="M33.784,2.742c-0.115-0.52-0.616-0.867-1.141-0.781c-0.209,0.035-0.412,0.051-0.605,0.053
			c-0.193-0.002-0.396-0.018-0.605-0.053c-0.527-0.088-1.025,0.266-1.142,0.787c-0.114,0.514-0.289,1.135-0.543,1.691
			c-0.156,0.34-0.01,0.75,0.329,0.91c0.388,0.182,0.876,0.457,1.282,0.824c0.377,0.342,0.95,0.379,1.322,0.033
			c0.328-0.305,0.714-0.549,1.059-0.729c0.453-0.238,0.675-0.811,0.483-1.285C34.024,3.703,33.883,3.182,33.784,2.742z"/>
	</g>
	<path style="fill:#242F42;" d="M54.85,46.824c-0.253-4.805-7.269-5.753-12.705-6.638c-1.461-0.237-2.418-1.119-3.037-2.282
		L32,43.338l-7.108-5.434c-0.619,1.163-1.575,2.045-3.037,2.282c-5.437,0.885-12.452,1.833-12.705,6.638
		C8.896,51.628,9.022,64,9.022,64h22.692h0.569h22.692C54.977,64,55.103,51.628,54.85,46.824z"/>
	<polygon style="fill:#0D1014;" points="34.466,43.338 29.514,43.338 30.977,46.667 30.277,64 33.643,64 32.89,46.667 	"/>
	<polygon style="fill:#273651;" points="31.989,43.338 28.198,47.68 21.93,39.827 24.892,37.904 	"/>
	<polygon style="fill:#273651;" points="32,43.338 35.792,47.68 42.06,39.827 39.098,37.904 	"/>
	<g>
		<circle style="fill:#FFBF40;" cx="42.601" cy="54.14" r="2.161"/>
		<circle style="fill:#FFAB05;" cx="42.601" cy="54.14" r="1.563"/>
		<polygon style="fill:#FAED26;" points="42.601,53.088 42.918,53.731 43.629,53.834 43.114,54.335 43.236,55.043 42.601,54.709 
			41.966,55.043 42.086,54.335 41.573,53.834 42.283,53.731 		"/>
	</g>
	<g>
		<path style="fill:#0D1014;" d="M22.326,21.373c0.295,1.963,1.388,3.594,3.773,3.594c1.918,0,4.867-1.609,4.867-3.594
			c0-1.986-1.462-3.156-4.32-3.299C24.264,17.955,21.777,17.709,22.326,21.373z"/>
		<path style="fill:#0D1014;" d="M41.651,21.373c-0.294,1.963-1.388,3.594-3.773,3.594c-1.865,0-4.867-1.609-4.867-3.594
			c0-1.986,1.462-3.156,4.32-3.299C39.715,17.955,42.201,17.709,41.651,21.373z"/>
		<rect x="28.629" y="19.404" style="fill:#0D1014;" width="8.306" height="1.09"/>
		<rect x="41.038" y="19.404" style="fill:#0D1014;" width="1.749" height="1.09"/>
		<rect x="21.213" y="19.404" style="fill:#0D1014;" width="1.749" height="1.09"/>
	</g>
</g>
</svg>
