<?xml version="1.0" encoding="iso-8859-1"?>
<!-- Generator: Adobe Illustrator 16.0.0, SVG Export Plug-In . SVG Version: 6.00 Build 0)  -->
<!DOCTYPE svg PUBLIC "-//W3C//DTD SVG 1.1//EN" "http://www.w3.org/Graphics/SVG/1.1/DTD/svg11.dtd">
<svg version="1.1" id="Layer_1" xmlns="http://www.w3.org/2000/svg" xmlns:xlink="http://www.w3.org/1999/xlink" x="0px" y="0px"
	 width="64px" height="64px" viewBox="0 0 64 64" style="enable-background:new 0 0 64 64;" xml:space="preserve">
<g>
	<path style="fill-rule:evenodd;clip-rule:evenodd;fill:#F2EFDC;" d="M15.875,63.736h32.245c4.113-1.988,7.808-4.704,10.903-7.996
		c-0.019-1.179-0.036-2.034-0.051-2.326c-0.329-6.878-2.007-7.836-9.6-7.507c-2.731,0.119-8.263-0.667-9.774-4.522
		c-0.705-1.797-0.689-4.655-0.271-6.531l-7.259,0.141l-7.259-0.141c0.418,1.876,0.408,4.725-0.271,6.531
		c-1.385,3.686-6.618,4.627-8.999,4.522c-7.729-0.335-9.329,0.664-9.617,7.882c-0.013,0.32-0.015,1.42-0.011,2.9
		C8.805,59.555,12.168,61.943,15.875,63.736z"/>
	<path style="fill-rule:evenodd;clip-rule:evenodd;fill:#FC611F;" d="M60.608,64c0.002-0.916-0.007-11.636-0.032-11.908
		c-0.532-5.681-2.612-6.491-10.198-6.185c-1.624,0.066-4.311-0.102-6.541-0.988c-4.545,5.467-6.819,17.521-12.049,17.854
		c-3.393,0.216-6.357-11.42-12.813-17.351c-1.895,0.643-3.988,0.54-5.344,0.484c-7.584-0.307-9.664,0.504-10.197,6.185
		C3.414,52.304,3.4,60.27,3.391,64H60.608z"/>
	<g>
		<path style="fill-rule:evenodd;clip-rule:evenodd;fill:#F2EFDC;" d="M23.597,29.126l0.419-5.008
			c-0.742-0.731-1.276-1.213-1.663-1.814c-1.064-1.651-1.732-2.032-2.381-1.551c-0.262,0.195-0.354,0.815-0.201,1.593
			c0.269,1.36,1.126,3.387,1.396,4.578C21.383,27.882,22.637,31.162,23.597,29.126z"/>
		<path style="fill-rule:evenodd;clip-rule:evenodd;fill:#F2EFDC;" d="M40.387,29.126l-0.42-5.008
			c0.743-0.731,1.276-1.213,1.664-1.814c1.064-1.651,1.733-2.032,2.38-1.551c0.263,0.195,0.355,0.815,0.202,1.593
			c-0.269,1.36-1.127,3.387-1.396,4.578C42.601,27.882,41.348,31.162,40.387,29.126z"/>
	</g>
	<path style="fill-rule:evenodd;clip-rule:evenodd;fill:#DCD9C8;" d="M24.231,42.238c2.736-1.169,5.861-1.722,8.345-2.088
		c1.391-0.207,2.207-0.455,3.292-1.313c0.858-0.68,1.945-2.174,3.275-3.123c0.047-0.393,0.109-0.52,0.185-0.861l-7.259,0.141
		l-7.259-0.141C24.999,35.704,25.577,40.092,24.231,42.238z"/>
	<path style="fill-rule:evenodd;clip-rule:evenodd;fill:#F2EFDC;" d="M28.519,38.117c-5.369-2.444-6.87-9.316-7.119-13.831
		c-0.094-1.783,0.683-3.576,0.622-5.591c-0.061-1.968-0.115-3.597,0.126-4.979c0.913-5.236,7.554-6.808,11.926-6.16
		c7.174,1.061,8.086,4.854,7.905,11.09c-0.057,2.009,0.724,3.794,0.63,5.57c-0.242,4.526-2.188,11.903-7.646,14.048
		c-0.616,0.269-1.688,0.961-2.885,0.97C30.845,39.245,29.145,38.383,28.519,38.117z"/>
	<path style="fill-rule:evenodd;clip-rule:evenodd;fill:#0E2F3E;" d="M28.519,38.117c-3.871-1.764-5.73-5.826-6.562-9.649
		c-0.396-1.826-0.733-4.036-0.436-5.902c0.48,4.42,2.122,8.085,6.936,10.277c0.626,0.266,2.326,1.126,3.559,1.116
		c1.199-0.01,2.271-0.702,2.887-0.971c4.908-1.928,7.036-6.003,7.579-10.516c0.354,2.167-0.155,4.831-0.747,6.908
		c-1.052,3.69-3.13,7.452-6.771,8.883c-0.616,0.269-1.688,0.961-2.885,0.97C30.845,39.245,29.145,38.383,28.519,38.117z"/>
	<path style="fill-rule:evenodd;clip-rule:evenodd;fill:#0E2F3E;" d="M27.609,34.538c-0.34-3.536,0.605-2.966,2.697-4.52
		c0.81-0.603,0.198-0.274,1.575-0.154c1.477-0.129,0.748-0.449,1.648,0.208c1.552,1.133,4.003,1.546,2.436,4.617
		c0.076-0.639-0.816,0.848-0.846,0.487c-0.104-1.228,0.033-3.086-1.879-3.508c-0.591-0.132-0.896-0.364-1.342,0.003
		c-0.411-0.34-0.617-0.12-1.166-0.032c-2.113,0.342-1.324,1.949-1.736,3.806C28.945,35.677,27.644,34.25,27.609,34.538z"/>
	<path style="fill-rule:evenodd;clip-rule:evenodd;fill:#0E2F3E;" d="M35.406,12.782c-2.247-0.201-3.685-0.982-5.96,0.088
		c-1.83-0.279-3.961-0.644-4.627,0.152c-0.432,0.517-0.822,1.37-0.342,3.145l-0.827-0.892c-0.427,2.101-0.584,2.75-0.496,4.899
		l-0.994-0.802c-0.389,1.954-0.746,2.893-0.3,6.037c-0.709-2.354-0.672-4.795-1.48-5.279c-0.309-4.318-0.396-4.549,0.456-8.885
		l-0.994,0.557c0.294-0.701,0.511-1.175,0.891-1.826c-0.529,0.087-0.927,0.392-1.471,1.023c1.055-2.148,2.912-3.044,4.347-5.188
		c-0.725-0.1-1.27,0.318-1.779,0.646c1.016-2.316,2.229-2.702,3.994-3.452c-0.448-0.876-0.483-0.785-0.642-1.803
		c1.362,1.462,3.667,1.113,5.01,0.868C29.606,1.5,29.1,1.137,29.28,0c0.439,1.027,1.034,1.13,1.863,1.381l-0.56-0.957
		c1.564,1.132,2.854,1.505,4.616,2.204c1.148,0.527,5.181,2.961,5.465,0.936c0.363,0.953,0.2,1.407-0.414,1.737
		c0.77,0.05,1.146-0.019,1.914-0.123c-0.334,0.16-0.669,0.318-1.004,0.479c2.628,1.57,2.207,2.71,2.65,5.967
		c-0.31-1.426-0.488-1.708-1.16-2.983c0.4,1.411,1.04,3.156,1.201,4.23c0.092,0.613,0.07,1.18,0.001,1.712
		c0.121,0.535,0.175,1.185,0.147,1.974c-0.08-0.513-0.141-0.965-0.245-1.366c-0.117,0.638-0.269,1.236-0.318,1.823
		c-0.049,0.586,0.3,1.162,0.208,1.736c-0.248,1.539-0.339,1.246-0.435,2.803c-0.168-0.998-0.353-0.229-0.394-1.243l-0.403,3.367
		c-0.032-2.305-0.529-4.7-0.702-6.188c-0.027-0.237-0.671-0.663-0.704-0.88c-0.334-1.509-0.804-2.699-1.466-3.851
		c-0.437-0.422-0.902-0.543-1.332-0.508C37.201,12.329,36.01,12.836,35.406,12.782z"/>
</g>
</svg>
