<?xml version="1.0" encoding="iso-8859-1"?>
<!-- Generator: Adobe Illustrator 16.0.0, SVG Export Plug-In . SVG Version: 6.00 Build 0)  -->
<!DOCTYPE svg PUBLIC "-//W3C//DTD SVG 1.1//EN" "http://www.w3.org/Graphics/SVG/1.1/DTD/svg11.dtd">
<svg version="1.1" id="Layer_1" xmlns="http://www.w3.org/2000/svg" xmlns:xlink="http://www.w3.org/1999/xlink" x="0px" y="0px"
	 width="64px" height="64px" viewBox="0 0 64 64" style="enable-background:new 0 0 64 64;" xml:space="preserve">
<g>
	<g>
		<path style="fill:#3A3E42;" d="M47.011,19.493c0-9.734-4.747-14.39-14.766-14.572V4.903c-0.085,0-0.16,0.008-0.245,0.009
			c-0.084-0.001-0.158-0.009-0.244-0.009v0.018C21.737,5.104,16.99,9.759,16.99,19.493c0,10.668,12.234,11.011,12.234,11.011h4.471
			C33.695,30.504,47.011,29.818,47.011,19.493z"/>
	</g>
	<g>
		<g>
			<path style="fill:#E3C7AA;" d="M43.083,58.134H23.266L20.36,41.049l0.563-0.219c0.251-0.097,6.123-2.449,6.123-8.949v-0.496
				h9.906v0.496c0,6.519,6.061,8.926,6.123,8.949l0.564,0.219L43.083,58.134z"/>
			<path style="fill:#E3C7AA;" d="M23.585,57.756h19.131l0.537-16.45l-0.313-0.122c-0.062-0.023-6.365-2.504-6.365-9.303v-0.117
				h-9.148v0.117c0,6.766-6.105,9.203-6.365,9.303l-0.275,0.106L23.585,57.756z"/>
		</g>
	</g>
	<g>
		<path style="fill:#F0DE33;" d="M53.989,46.069c-1.952-1.952-4.455-4.001-11.627-5.837l-2.111,12.972H23.75l-2.285-12.972
			c-7.174,1.836-9.501,3.885-11.453,5.837C6.483,49.598,7.737,58.679,7.737,64h48.526C56.264,58.679,57.517,49.598,53.989,46.069z"
			/>
	</g>
	<g>
		<path style="fill:#3A3E42;" d="M46.115,18.879C44.74,9.768,41.446,6.051,31.757,6.051c-7.986,0-12.501,3.717-13.876,12.828
			c-1.724,11.42,7.658-3.287,14.117-3.287C38.752,15.592,47.838,30.299,46.115,18.879z"/>
	</g>
	<g>
		<path style="fill:#FFE5CB;" d="M44.615,21.965c0.006-0.161,0.012-0.325,0.012-0.485c0-7.661-5.654-11.889-12.631-11.889
			c-6.975,0-12.63,4.228-12.63,11.889c0,0.162,0.006,0.325,0.011,0.488c-0.718,0.317-1.246,1.304-1.246,2.483
			c0,1.435,0.777,2.601,1.733,2.601c0.14,0,0.272-0.031,0.401-0.078c1.861,5.798,6.411,10.853,11.73,10.853
			c5.323,0,9.87-5.057,11.731-10.855c0.131,0.049,0.266,0.081,0.408,0.081c0.957,0,1.734-1.166,1.734-2.601
			C45.87,23.267,45.338,22.279,44.615,21.965z"/>
		<path style="fill:#E3C7AA;" d="M31.996,38.204c-5.735,0-10.186-5.525-11.98-10.782c-1.262,0.142-2.264-1.229-2.264-2.971
			c0-1.185,0.488-2.232,1.239-2.705c-0.003-0.096-0.004-0.182-0.004-0.267c0-7.337,5.229-12.268,13.009-12.268
			c7.781,0,13.01,4.931,13.01,12.268c0,0.087-0.001,0.175-0.004,0.263c0.755,0.471,1.247,1.52,1.247,2.709
			c0,1.744-1.019,3.131-2.271,2.97C42.182,32.679,37.731,38.204,31.996,38.204z M20.507,26.485l0.12,0.373
			c1.637,5.1,5.893,10.589,11.369,10.589c5.478,0,9.733-5.49,11.371-10.592l0.121-0.376l0.37,0.136
			c0.106,0.039,0.195,0.058,0.277,0.058c0.735,0,1.355-1.018,1.355-2.222c0-0.997-0.422-1.876-1.026-2.139l-0.237-0.104l0.009-0.258
			c0.006-0.156,0.013-0.315,0.013-0.472c0-7.951-6.154-11.511-12.253-11.511c-6.098,0-12.252,3.56-12.252,11.511
			c0,0.14,0.005,0.281,0.01,0.422l0.009,0.256l-0.232,0.156c-0.601,0.267-1.021,1.146-1.021,2.138c0,1.204,0.621,2.222,1.355,2.222
			c0.082,0,0.169-0.018,0.273-0.056L20.507,26.485z"/>
	</g>
	<g>
		<g>
			<path style="fill:#3A3E42;" d="M31.077,5.506c0.181,0,0.348,0.014,0.523,0.017c0.177-0.003,0.345-0.017,0.525-0.017H31.077z"/>
		</g>
		<g>
			<path style="fill:#3A3E42;" d="M31.601,5.522c-16.3,0-13.417,16.694-13.417,16.694s5.794,0.721,6.125-9.008
				c8.677,14.773,21.706,7.084,21.706,7.084S45.502,5.865,31.601,5.522z"/>
		</g>
	</g>
	<g>
		<g>
			<circle style="fill:#FF8B26;" cx="32" cy="45.092" r="1.578"/>
		</g>
		<g>
			<g>
				<circle style="fill:#FF8B26;" cx="29.003" cy="43.512" r="1.084"/>
			</g>
			<g>
				<circle style="fill:#FF8B26;" cx="26.899" cy="42.11" r="1.084"/>
			</g>
			<g>
				<circle style="fill:#FF8B26;" cx="24.763" cy="40.708" r="1.084"/>
			</g>
			<g>
				<circle style="fill:#FF8B26;" cx="34.997" cy="43.512" r="1.084"/>
			</g>
			<g>
				<circle style="fill:#FF8B26;" cx="37.101" cy="42.11" r="1.084"/>
			</g>
			<g>
				<circle style="fill:#FF8B26;" cx="39.238" cy="40.708" r="1.085"/>
			</g>
		</g>
	</g>
	<g>
		<ellipse style="fill:#3A3E42;" cx="32" cy="7.443" rx="8.467" ry="7.445"/>
	</g>
	<g>
		<path style="fill:#3A3E42;" d="M47.011,19.493c0-9.734-4.747-14.39-14.766-14.572V4.903c-0.085,0-0.16,0.008-0.245,0.009
			c-0.084-0.001-0.158-0.009-0.244-0.009v0.018C21.737,5.104,16.99,9.759,16.99,19.493c0,10.668,12.234,11.011,12.234,11.011h4.471
			C33.695,30.504,47.011,29.818,47.011,19.493z"/>
	</g>
	<g>
		<g>
			<path style="fill:#E3C7AA;" d="M43.083,58.134H23.266L20.36,41.049l0.563-0.219c0.251-0.097,6.123-2.449,6.123-8.949v-0.496
				h9.906v0.496c0,6.519,6.061,8.926,6.123,8.949l0.564,0.219L43.083,58.134z"/>
			<path style="fill:#E3C7AA;" d="M23.585,57.756h19.131l0.537-16.45l-0.313-0.122c-0.062-0.023-6.365-2.504-6.365-9.303v-0.117
				h-9.148v0.117c0,6.766-6.105,9.203-6.365,9.303l-0.275,0.106L23.585,57.756z"/>
		</g>
	</g>
	<g>
		<path style="fill:#F0DE33;" d="M53.989,46.069c-1.952-1.952-4.455-4.001-11.627-5.837l-2.111,12.972H23.75l-2.285-12.972
			c-7.174,1.836-9.501,3.885-11.453,5.837C6.483,49.598,7.737,58.679,7.737,64h48.526C56.264,58.679,57.517,49.598,53.989,46.069z"
			/>
	</g>
	<g>
		<path style="fill:#3A3E42;" d="M46.115,18.879C44.74,9.768,41.446,6.051,31.757,6.051c-7.986,0-12.501,3.717-13.876,12.828
			c-1.724,11.42,7.658-3.287,14.117-3.287C38.752,15.592,47.838,30.299,46.115,18.879z"/>
	</g>
	<g>
		<path style="fill:#FFE5CB;" d="M44.615,21.965c0.006-0.161,0.012-0.325,0.012-0.485c0-7.661-5.654-11.889-12.631-11.889
			c-6.975,0-12.63,4.228-12.63,11.889c0,0.162,0.006,0.325,0.011,0.488c-0.718,0.317-1.246,1.304-1.246,2.483
			c0,1.435,0.777,2.601,1.733,2.601c0.14,0,0.272-0.031,0.401-0.078c1.861,5.798,6.411,10.853,11.73,10.853
			c5.323,0,9.87-5.057,11.731-10.855c0.131,0.049,0.266,0.081,0.408,0.081c0.957,0,1.734-1.166,1.734-2.601
			C45.87,23.267,45.338,22.279,44.615,21.965z"/>
		<path style="fill:#E3C7AA;" d="M31.996,38.204c-5.735,0-10.186-5.525-11.98-10.782c-1.262,0.142-2.264-1.229-2.264-2.971
			c0-1.185,0.488-2.232,1.239-2.705c-0.003-0.096-0.004-0.182-0.004-0.267c0-7.337,5.229-12.268,13.009-12.268
			c7.781,0,13.01,4.931,13.01,12.268c0,0.087-0.001,0.175-0.004,0.263c0.755,0.471,1.247,1.52,1.247,2.709
			c0,1.744-1.019,3.131-2.271,2.97C42.182,32.679,37.731,38.204,31.996,38.204z M20.507,26.485l0.12,0.373
			c1.637,5.1,5.893,10.589,11.369,10.589c5.478,0,9.733-5.49,11.371-10.592l0.121-0.376l0.37,0.136
			c0.106,0.039,0.195,0.058,0.277,0.058c0.735,0,1.355-1.018,1.355-2.222c0-0.997-0.422-1.876-1.026-2.139l-0.237-0.104l0.009-0.258
			c0.006-0.156,0.013-0.315,0.013-0.472c0-7.951-6.154-11.511-12.253-11.511c-6.098,0-12.252,3.56-12.252,11.511
			c0,0.14,0.005,0.281,0.01,0.422l0.009,0.256l-0.232,0.156c-0.601,0.267-1.021,1.146-1.021,2.138c0,1.204,0.621,2.222,1.355,2.222
			c0.082,0,0.169-0.018,0.273-0.056L20.507,26.485z"/>
	</g>
	<g>
		<g>
			<path style="fill:#3A3E42;" d="M31.077,5.506c0.181,0,0.348,0.014,0.523,0.017c0.177-0.003,0.345-0.017,0.525-0.017H31.077z"/>
		</g>
		<g>
			<path style="fill:#3A3E42;" d="M31.601,5.522c-16.3,0-13.417,16.694-13.417,16.694s5.794,0.721,6.125-9.008
				c8.677,14.773,21.706,7.084,21.706,7.084S45.502,5.865,31.601,5.522z"/>
		</g>
	</g>
	<g>
		<g>
			<circle style="fill:#FF8B26;" cx="32" cy="45.092" r="1.578"/>
		</g>
		<g>
			<g>
				<circle style="fill:#FF8B26;" cx="29.003" cy="43.512" r="1.084"/>
			</g>
			<g>
				<circle style="fill:#FF8B26;" cx="26.899" cy="42.11" r="1.084"/>
			</g>
			<g>
				<circle style="fill:#FF8B26;" cx="24.763" cy="40.708" r="1.084"/>
			</g>
			<g>
				<circle style="fill:#FF8B26;" cx="34.997" cy="43.512" r="1.084"/>
			</g>
			<g>
				<circle style="fill:#FF8B26;" cx="37.101" cy="42.11" r="1.084"/>
			</g>
			<g>
				<circle style="fill:#FF8B26;" cx="39.238" cy="40.708" r="1.085"/>
			</g>
		</g>
	</g>
	<g>
		<ellipse style="fill:#3A3E42;" cx="32" cy="7.443" rx="8.467" ry="7.445"/>
	</g>
</g>
</svg>
