<?xml version="1.0" encoding="iso-8859-1"?>
<!-- Generator: Adobe Illustrator 16.0.0, SVG Export Plug-In . SVG Version: 6.00 Build 0)  -->
<!DOCTYPE svg PUBLIC "-//W3C//DTD SVG 1.1//EN" "http://www.w3.org/Graphics/SVG/1.1/DTD/svg11.dtd">
<svg version="1.1" id="Layer_1" xmlns="http://www.w3.org/2000/svg" xmlns:xlink="http://www.w3.org/1999/xlink" x="0px" y="0px"
	 width="64px" height="64px" viewBox="0 0 64 64" style="enable-background:new 0 0 64 64;" xml:space="preserve">
<g id="_x31_1">
	<g>
		<g>
			<path style="fill:#B7233C;" d="M51.765,61.708c-0.869-10.57-2.322-29.533-2.025-34.854c0.876-22.042-8.794-25.9-14.846-26.7
				c-6.742-0.891-17.474,1.803-20.1,15.279c-2.059,10.56-0.892,35.831-0.29,46.274H51.765z"/>
		</g>
		<g>
			<g>
				<path style="fill:#E2B477;" d="M20.566,22.381c-0.224-0.591-0.185-1.15-0.596-1.688c-0.374-0.491-0.958-0.835-1.574-0.848
					c-1.962-0.042-2.195,2.354-1.454,3.661c0.37,0.655,0.919,1.197,1.265,1.864c0.585,1.13,0.763,2.771,2.341,2.947
					c0.917,0.102,1.416-0.224,1.645-0.747c0.436-0.999-0.112-2.719-0.618-3.586C21.269,23.461,20.779,22.947,20.566,22.381z"/>
			</g>
			<g>
				<g>
					<path style="fill:#D2A965;" d="M24.423,29.365c0.615,3.857,1.428,8.545,0.121,11.895c-1.492,3.826-3.379,4.592-6.799,5.915
						c1.593,2.173,3.094,4.431,4.967,6.367c1.873,1.938,4.18,3.563,6.816,4.118c0.806,0.17,1.644,0.211,2.472,0.148V29.268
						C29.05,29.178,24.487,29.096,24.423,29.365z"/>
				</g>
				<g>
					<path style="fill:#E2B477;" d="M21.499,9.447c-3.313,4.611-3.209,11.035-1.211,16.147C21.901,29.721,26.995,36.782,32,36.633
						V4.296C28.033,4.118,23.79,6.262,21.499,9.447z"/>
				</g>
				<g>
					<path style="fill:#F967A9;" d="M31.997,64v-7.814c-7.849-0.621-11.467-5.217-14.253-9.008
						c-8.117,3.062-9.556,3.708-12.279,7.789c-0.224,0.335-0.406,0.693-0.547,1.07C4.507,57.141,3.663,59.752,3.003,64H31.997z"/>
				</g>
			</g>
		</g>
		<g>
			<g>
				<path style="fill:#EDBD83;" d="M45.604,19.845c-0.616,0.013-1.2,0.356-1.574,0.848c-0.411,0.538-0.373,1.098-0.596,1.688
					c-0.214,0.566-0.703,1.08-1.008,1.604c-0.506,0.867-1.054,2.587-0.618,3.586c0.228,0.523,0.728,0.849,1.645,0.747
					c1.578-0.176,1.755-1.817,2.341-2.947c0.345-0.667,0.895-1.209,1.265-1.864C47.798,22.198,47.565,19.803,45.604,19.845z"/>
			</g>
			<g>
				<g>
					<path style="fill:#E2B477;" d="M39.456,41.26c-1.308-3.35-0.494-8.037,0.121-11.895c-0.064-0.27-4.627-0.188-7.577-0.098
						v28.541c0.828,0.063,1.665,0.021,2.472-0.148c2.637-0.556,4.943-2.181,6.816-4.118c1.873-1.937,3.373-4.194,4.967-6.367
						C42.836,45.852,40.948,45.086,39.456,41.26z"/>
				</g>
				<g>
					<path style="fill:#EDBD83;" d="M32,4.296l-0.093,32.337c5.005,0.149,10.191-6.912,11.805-11.038
						c1.998-5.112,2.104-11.536-1.212-16.147C40.21,6.262,35.967,4.118,32,4.296z"/>
				</g>
				<g>
					<path style="fill:#E54E9A;" d="M60.997,64c-0.66-4.248-1.505-6.859-1.916-7.963c-0.14-0.377-0.322-0.735-0.546-1.07
						c-2.724-4.081-4.162-4.728-12.279-7.789c-2.787,3.791-6.405,8.387-14.253,9.008V64H60.997z"/>
				</g>
			</g>
		</g>
		<g>
			<path style="fill:#B7233C;" d="M44.791,7.478c-0.381-0.305-6.548-4.188-7.005-4.264c-0.457-0.077-11.115,0.152-11.42,0.457
				C26.062,3.975,19.057,8.924,18.524,9v10.506l0.928,2.438c0,0-0.472-4.111,0.747-6.929c1.218-2.816,5.24-5.938,5.24-5.938
				s2.525,3.198,7.778,4.188c-1.751-1.37-3.578-3.73-3.578-3.73s4.721,3.73,6.396,4.34c-0.381-1.065-1.903-3.959-1.903-3.959
				s4.645,2.894,5.558,5.596c0.762-0.646-1.129-4.378-1.129-4.378s5.957,5.258,5.316,10.404c1.479-2.263,3.045-2.619,2.378-4.542
				C46.18,16.778,45.172,7.782,44.791,7.478z"/>
		</g>
	</g>
	<g>
		<circle style="fill:#A4D7E7;" cx="20.526" cy="29.805" r="1.559"/>
	</g>
	<g>
		<circle style="fill:#A4D7E7;" cx="43.208" cy="29.895" r="1.559"/>
	</g>
</g>
</svg>
