<?xml version="1.0" encoding="iso-8859-1"?>
<!-- Generator: Adobe Illustrator 16.0.0, SVG Export Plug-In . SVG Version: 6.00 Build 0)  -->
<!DOCTYPE svg PUBLIC "-//W3C//DTD SVG 1.1//EN" "http://www.w3.org/Graphics/SVG/1.1/DTD/svg11.dtd">
<svg version="1.1" id="Layer_1" xmlns="http://www.w3.org/2000/svg" xmlns:xlink="http://www.w3.org/1999/xlink" x="0px" y="0px"
	 width="64px" height="64px" viewBox="0 0 64 64" style="enable-background:new 0 0 64 64;" xml:space="preserve">
<g id="_x36_">
	<g>
		<g>
			<g>
				<path style="fill:#F0D09F;" d="M22.051,21.788c0.107-0.574-0.243-1.547-0.458-2.075c-0.064-0.157-0.135-0.334-0.223-0.498
					c-0.134-0.25-0.31-0.477-0.569-0.581c-1.106-0.446-2.152,1.087-2.243,2.013c-0.022,0.222-0.022,0.453-0.007,0.688
					c0.015,0.484,0.124,0.946,0.28,1.393c0.079,0.222,0.168,0.44,0.268,0.659c1.093,1.468,1.093,4.635,3.467,3.051
					c0.79-0.791,0-3.166-0.518-3.958C22.011,22.264,22.005,22.035,22.051,21.788z"/>
			</g>
			<g>
				<path style="fill:#E2B477;" d="M43.2,18.634c-0.259,0.104-0.434,0.331-0.568,0.581c-0.089,0.164-0.158,0.341-0.222,0.498
					c-0.216,0.528-0.566,1.501-0.459,2.075c0.046,0.247,0.041,0.476,0.003,0.691c-0.517,0.792-1.309,3.167-0.517,3.958
					c2.374,1.584,2.374-1.583,3.466-3.051c0.1-0.219,0.189-0.438,0.268-0.659c0.156-0.446,0.267-0.908,0.28-1.393
					c0.016-0.235,0.015-0.467-0.007-0.688C45.354,19.721,44.309,18.188,43.2,18.634z"/>
			</g>
		</g>
		<g>
			<g>
				<path style="fill:#D2A965;" d="M38.848,32.953c-0.011,0.011-0.023,0.021-0.033,0.03c-0.234,0.249-0.475,0.499-0.73,0.747
					c-1.528,1.481-3.402,2.854-5.292,3.188c-0.134,0.025-0.462,0.037-0.791,0.037c-0.209,0-0.413-0.006-0.572-0.016v12.277
					c0.129-0.008,0.251-0.008,0.389-0.026c0.07,0.009,0.326,0.009,0.396,0c4.022,0.553,4.063-3.669,7.161-7.21
					c-0.263-1.769-0.496-3.617-0.692-5.539C38.51,34.738,38.829,34.299,38.848,32.953z"/>
			</g>
			<g>
				<path style="fill:#E2B477;" d="M25.84,33.654c-0.229-0.224-0.443-0.449-0.655-0.675c-0.009-0.009-0.019-0.018-0.028-0.026
					c-0.097,1.596,0.246,1.785,0.073,3.488c-0.195,1.922-0.431,3.771-0.693,5.539c2.991,3.42,3.256,7.461,6.893,7.236V36.939
					c-0.09-0.006-0.169-0.012-0.218-0.021C29.289,36.579,27.382,35.165,25.84,33.654z"/>
			</g>
			<g>
				<path style="fill:#F0D09F;" d="M21.134,13.693c-0.106,0.617-0.169,1.258-0.185,1.914c-0.311,2.248,0.258,8.588,0.26,8.721
					c0.057,2.855,1.277,5.522,3.111,7.689c0.264,0.313,0.559,0.637,0.864,0.962c0.212,0.226,0.427,0.451,0.655,0.675
					c1.542,1.511,3.449,2.925,5.371,3.264c0.049,0.01,0.128,0.016,0.218,0.021V6.62C25.098,7.034,22.035,8.438,21.134,13.693z"/>
			</g>
			<g>
				<path style="fill:#E2B477;" d="M42.869,13.693c-0.93-5.416-4.141-6.744-10.868-7.111c-0.197,0.01-0.381,0.025-0.572,0.038
					v30.319c0.159,0.01,0.363,0.016,0.572,0.016c0.329,0,0.657-0.012,0.791-0.037c1.89-0.333,3.764-1.706,5.292-3.188
					c0.256-0.248,0.496-0.498,0.73-0.747c0.308-0.327,0.603-0.652,0.868-0.966c1.834-2.167,3.054-4.834,3.11-7.689
					c0.002-0.133,0.57-6.473,0.26-8.721C43.038,14.951,42.975,14.311,42.869,13.693z"/>
			</g>
		</g>
		<g>
			<path style="fill:#894E3A;" d="M20.97,5.16c-2.613,3.054-2.424,6.275-1.626,10.063c0.211,1.003,0.77,4.602,1.513,7.489
				c0.112,0.436,0.679,0.106,0.962,0.147c0.377-1.177-0.011-6.694,0.283-8.21c0.281-1.448,0.605-4.064,1.789-5.009
				c0.877-0.699,2.058-0.906,3.179-0.863c1.121,0.044,2.22,0.312,3.332,0.455c0.415,0.055,0.849,0.045,1.291,0.004V0.795
				c-0.486,0.026-0.972,0.063-1.456,0.11C26.746,1.254,23.301,2.438,20.97,5.16z"/>
		</g>
		<g>
			<path style="fill:#7B371C;" d="M42.108,0.007c-3.39,0.828-6.927,0.591-10.416,0.788v8.441c2.093-0.198,4.421-1.201,6.295-0.578
				c2.103,0.699,3.252,4.691,3.721,6.63c0.556,2.298,0.366,4.554,0.44,6.906c0.336-0.054,0.673-0.107,1.009-0.161
				c0.595-3.295,2.51-6.101,2.667-9.637c0.031-0.707,0.011-1.416-0.055-2.119C45.678,9.315,43.349-0.295,42.108,0.007z"/>
		</g>
		<g>
			<g>
				<path style="fill:#FFFFFF;" d="M24.7,40.839l-3.844,3.345c0.722,1.43,1.638,3.019,2.803,4.678
					c1.518,2.161,3.084,3.906,4.484,5.275c0,0,1.055-4.221,3.824-6.322C27.747,46.373,24.7,40.839,24.7,40.839z"/>
			</g>
			<g>
				<path style="fill:#78919E;" d="M31.974,64l-0.006-16.187c0,0-1.844,3.948-3.956,2.896l-3.261-8.144l-2.873,1.322l-3.34,1.542
					l-1.028,0.317l-2.731,0.854l-6.939,2.153c-0.784,0.244-1.488,0.68-2.05,1.273l-2.668,2.825
					c-0.625,0.665-1.052,1.487-1.219,2.391C1.707,56.303,1.406,62.006,1.039,64H31.974z"/>
			</g>
		</g>
		<g>
			<g>
				<path style="fill:#6A828C;" d="M62.961,64c-0.368-1.994-0.668-7.697-0.864-8.755c-0.166-0.903-0.594-1.726-1.219-2.391
					l-2.667-2.825c-0.562-0.594-1.267-1.029-2.051-1.273l-6.939-2.153l-2.73-0.854l-1.028-0.317l-3.341-1.542l-2.872-1.322
					l-3.261,8.144c-2.112,1.052-3.957-2.896-3.957-2.896L32.025,64H62.961z"/>
			</g>
		</g>
	</g>
	<g>
		<g>
			<path style="fill:#BAD1DD;" d="M38.39,64l1.771-8.822l-7.377-8.233h-0.994c0,0-7.759,8.152-7.703,8.743L25.847,64H38.39z"/>
		</g>
		<g>
			<path style="fill:#1C75BC;" d="M30.697,52.42L29.045,64h6.134l-1.651-11.58c-0.084-0.378-0.029-0.773,0.152-1.115l0.996-1.872
				c0.045-0.113,0.019-0.243-0.068-0.328c-0.383-0.382-0.767-0.763-1.15-1.144c-0.26-0.26-0.574-0.502-0.726-0.841
				c-0.108-0.243-0.406-0.788-0.752-0.558c-0.303,0.203-0.403,0.521-0.6,0.788c-0.196,0.269-0.501,0.499-0.736,0.733
				c-0.343,0.34-0.686,0.68-1.027,1.021c-0.087,0.085-0.112,0.215-0.068,0.328l0.996,1.872C30.726,51.646,30.78,52.042,30.697,52.42
				z"/>
		</g>
		<g>
			<path style="fill:#E4F4FF;" d="M32.311,46.274c-0.112,0.109-0.284,0.109-0.397,0l-7.411-7.179l-1.656,5.21l3.202,11.382
				l5.821-8.793c0.119-0.18,0.367-0.18,0.485,0l5.821,8.793l3.203-11.382l-1.656-5.21L32.311,46.274z"/>
		</g>
		<g>
			<path style="fill:#64787D;" d="M17.633,52.347L21.59,64h6.781l-0.511-1.68l-2.224-10.686l-2.797-8.313
				c-0.633,0.186-2.749,1.123-4.889,1.767c-0.618,1.345-0.712,2.405-0.947,3.137l4.801,2.359L17.633,52.347z"/>
			<path style="fill:#64787D;" d="M42.597,64l3.997-11.653l-4.176-1.763l4.799-2.359c-0.235-0.731-0.323-1.578-0.947-2.924
				c-2.13-0.643-4.25-1.789-4.883-1.979l-3.804,11.283l-1.222,7.716L35.79,64H42.597z"/>
		</g>
	</g>
</g>
</svg>
