<?xml version="1.0" encoding="iso-8859-1"?>
<!-- Generator: Adobe Illustrator 16.0.0, SVG Export Plug-In . SVG Version: 6.00 Build 0)  -->
<!DOCTYPE svg PUBLIC "-//W3C//DTD SVG 1.1//EN" "http://www.w3.org/Graphics/SVG/1.1/DTD/svg11.dtd">
<svg version="1.1" id="Layer_1" xmlns="http://www.w3.org/2000/svg" xmlns:xlink="http://www.w3.org/1999/xlink" x="0px" y="0px"
	 width="64px" height="64px" viewBox="0 0 64 64" style="enable-background:new 0 0 64 64;" xml:space="preserve">
<g>
	<g>
		<g>
			<path style="fill:#3A3E42;" d="M48.886,16.151C47.346,5.486,43.265,0.222,32.204,0.02V0c-0.093,0-0.177,0.01-0.271,0.01
				C31.842,0.01,31.76,0,31.666,0v0.02C20.607,0.222,16.527,5.486,14.987,16.151c-1.93,13.366-2.135,21.351-2.135,21.351
				s14.944,6.428,19.081,6.019c4.357,0.43,19.213-6.072,19.213-6.072S50.814,29.518,48.886,16.151z"/>
		</g>
		<g>
			<g>
				<path style="fill:#E3C7AA;" d="M32.808,58.58H31.19L19.738,40.585l0.595-0.229c0.264-0.103,6.448-2.579,6.448-9.427v-0.522
					h10.436v0.522c0,6.866,6.383,9.401,6.448,9.427l0.594,0.229L32.808,58.58z"/>
				<path style="fill:#3A3E42;" d="M33.026,58.979h-2.056l-11.83-18.591l1.048-0.406c0.254-0.098,6.194-2.469,6.194-9.054v-0.921
					h11.232v0.921c0,6.552,6.132,9.03,6.193,9.055l1.048,0.405L33.026,58.979z M31.409,58.182h1.18l11.072-17.4l-0.141-0.054
					c-0.066-0.026-6.703-2.667-6.703-9.799v-0.124h-9.637v0.124c0,7.126-6.431,9.692-6.704,9.799l-0.141,0.054L31.409,58.182z"/>
			</g>
		</g>
		<g>
			<path style="fill:#3A3E42;" d="M46.865,15.586C45.417,4.924,41.948,0.574,31.743,0.574c-8.413,0-13.169,4.35-14.616,15.012
				c-1.814,13.366,8.066-3.846,14.869-3.846C39.11,11.74,48.681,28.952,46.865,15.586z"/>
		</g>
		<g>
			<path style="fill:#FFE5CB;" d="M45.287,19.346c0.006-0.17,0.012-0.342,0.012-0.511c0-8.069-5.957-12.522-13.304-12.522
				S18.69,10.766,18.69,18.835c0,0.17,0.007,0.342,0.012,0.514c-0.756,0.335-1.312,1.373-1.312,2.615c0,1.512,0.818,2.74,1.826,2.74
				c0.146,0,0.286-0.033,0.423-0.082c1.959,6.106,6.75,11.43,12.355,11.43s10.396-5.325,12.356-11.433
				c0.138,0.051,0.28,0.085,0.43,0.085c1.008,0,1.826-1.229,1.826-2.74C46.607,20.717,46.047,19.677,45.287,19.346z"/>
			<path style="fill:#E3C7AA;" d="M31.995,36.451c-6.042,0-10.729-5.82-12.62-11.357c-1.326,0.151-2.384-1.295-2.384-3.13
				c0-1.247,0.515-2.351,1.305-2.849c-0.002-0.095-0.004-0.188-0.004-0.28c0-7.729,5.507-12.921,13.703-12.921
				c8.195,0,13.702,5.192,13.702,12.921c0,0.091-0.001,0.184-0.004,0.275c0.795,0.496,1.313,1.601,1.313,2.854
				c0,1.839-1.066,3.298-2.392,3.129C42.724,30.631,38.036,36.451,31.995,36.451z M19.893,24.107L20.02,24.5
				c1.724,5.372,6.207,11.153,11.976,11.153c5.77,0,10.252-5.783,11.976-11.156l0.128-0.396l0.39,0.144
				c0.113,0.041,0.206,0.061,0.293,0.061c0.773,0,1.428-1.072,1.428-2.341c0-1.049-0.445-1.976-1.081-2.253l-0.249-0.108
				l0.009-0.271c0.007-0.165,0.012-0.332,0.012-0.496c0-8.375-6.481-12.124-12.904-12.124c-6.424,0-12.905,3.749-12.905,12.124
				c0,0.123,0.004,0.247,0.008,0.371l0.011,0.399l-0.245,0.108c-0.633,0.28-1.074,1.206-1.074,2.25c0,1.269,0.653,2.341,1.428,2.341
				c0.086,0,0.178-0.019,0.288-0.059L19.893,24.107z"/>
		</g>
		<g>
			<g>
				<path style="fill:#3A3E42;" d="M31.488,2.01c0.175,0,0.34,0.013,0.512,0.017c0.172-0.004,0.335-0.017,0.51-0.017H31.488z"/>
			</g>
			<g>
				<path style="fill:#3A3E42;" d="M32,2.026c-13.544,0.335-14.042,14.42-14.042,14.42h28.083C46.041,16.446,45.543,2.361,32,2.026z
					"/>
			</g>
		</g>
		<g>
			<g>
				<path style="fill:#32C7A4;" d="M55.161,45.114c-2.057-2.057-7.356-5.507-14.911-7.439c0,0-2.145,3.439-6.602,4.161l-1.744,12.88
					l-1.572-12.903c-4.067-0.776-6.582-4.138-6.582-4.138c-7.556,1.933-12.854,5.383-14.911,7.439
					C5.123,48.83,6.444,58.395,6.444,64h51.112C57.557,58.395,58.876,48.83,55.161,45.114z"/>
			</g>
		</g>
	</g>
	<g>
		<g>
			<path style="fill:#3A3E42;" d="M48.886,16.151C47.346,5.486,43.265,0.222,32.204,0.02V0c-0.093,0-0.177,0.01-0.271,0.01
				C31.842,0.01,31.76,0,31.666,0v0.02C20.607,0.222,16.527,5.486,14.987,16.151c-1.93,13.366-2.135,21.351-2.135,21.351
				s14.944,6.428,19.081,6.019c4.357,0.43,19.213-6.072,19.213-6.072S50.814,29.518,48.886,16.151z"/>
		</g>
		<g>
			<g>
				<path style="fill:#E3C7AA;" d="M32.808,58.58H31.19L19.738,40.585l0.595-0.229c0.264-0.103,6.448-2.579,6.448-9.427v-0.522
					h10.436v0.522c0,6.866,6.383,9.401,6.448,9.427l0.594,0.229L32.808,58.58z"/>
				<path style="fill:#3A3E42;" d="M33.026,58.979h-2.056l-11.83-18.591l1.048-0.406c0.254-0.098,6.194-2.469,6.194-9.054v-0.921
					h11.232v0.921c0,6.552,6.132,9.03,6.193,9.055l1.048,0.405L33.026,58.979z M31.409,58.182h1.18l11.072-17.4l-0.141-0.054
					c-0.066-0.026-6.703-2.667-6.703-9.799v-0.124h-9.637v0.124c0,7.126-6.431,9.692-6.704,9.799l-0.141,0.054L31.409,58.182z"/>
			</g>
		</g>
		<g>
			<path style="fill:#3A3E42;" d="M46.865,15.586C45.417,4.924,41.948,0.574,31.743,0.574c-8.413,0-13.169,4.35-14.616,15.012
				c-1.814,13.366,8.066-3.846,14.869-3.846C39.11,11.74,48.681,28.952,46.865,15.586z"/>
		</g>
		<g>
			<path style="fill:#FFE5CB;" d="M45.287,19.346c0.006-0.17,0.012-0.342,0.012-0.511c0-8.069-5.957-12.522-13.304-12.522
				S18.69,10.766,18.69,18.835c0,0.17,0.007,0.342,0.012,0.514c-0.756,0.335-1.312,1.373-1.312,2.615c0,1.512,0.818,2.74,1.826,2.74
				c0.146,0,0.286-0.033,0.423-0.082c1.959,6.106,6.75,11.43,12.355,11.43s10.396-5.325,12.356-11.433
				c0.138,0.051,0.28,0.085,0.43,0.085c1.008,0,1.826-1.229,1.826-2.74C46.607,20.717,46.047,19.677,45.287,19.346z"/>
			<path style="fill:#E3C7AA;" d="M31.995,36.451c-6.042,0-10.729-5.82-12.62-11.357c-1.326,0.151-2.384-1.295-2.384-3.13
				c0-1.247,0.515-2.351,1.305-2.849c-0.002-0.095-0.004-0.188-0.004-0.28c0-7.729,5.507-12.921,13.703-12.921
				c8.195,0,13.702,5.192,13.702,12.921c0,0.091-0.001,0.184-0.004,0.275c0.795,0.496,1.313,1.601,1.313,2.854
				c0,1.839-1.066,3.298-2.392,3.129C42.724,30.631,38.036,36.451,31.995,36.451z M19.893,24.107L20.02,24.5
				c1.724,5.372,6.207,11.153,11.976,11.153c5.77,0,10.252-5.783,11.976-11.156l0.128-0.396l0.39,0.144
				c0.113,0.041,0.206,0.061,0.293,0.061c0.773,0,1.428-1.072,1.428-2.341c0-1.049-0.445-1.976-1.081-2.253l-0.249-0.108
				l0.009-0.271c0.007-0.165,0.012-0.332,0.012-0.496c0-8.375-6.481-12.124-12.904-12.124c-6.424,0-12.905,3.749-12.905,12.124
				c0,0.123,0.004,0.247,0.008,0.371l0.011,0.399l-0.245,0.108c-0.633,0.28-1.074,1.206-1.074,2.25c0,1.269,0.653,2.341,1.428,2.341
				c0.086,0,0.178-0.019,0.288-0.059L19.893,24.107z"/>
		</g>
		<g>
			<g>
				<path style="fill:#3A3E42;" d="M31.488,2.01c0.175,0,0.34,0.013,0.512,0.017c0.172-0.004,0.335-0.017,0.51-0.017H31.488z"/>
			</g>
			<g>
				<path style="fill:#3A3E42;" d="M32,2.026c-13.544,0.335-14.042,14.42-14.042,14.42h28.083C46.041,16.446,45.543,2.361,32,2.026z
					"/>
			</g>
		</g>
		<g>
			<g>
				<path style="fill:#32C7A4;" d="M55.161,45.114c-2.057-2.057-7.356-5.507-14.911-7.439c0,0-2.145,3.439-6.602,4.161l-1.744,12.88
					l-1.572-12.903c-4.067-0.776-6.582-4.138-6.582-4.138c-7.556,1.933-12.854,5.383-14.911,7.439
					C5.123,48.83,6.444,58.395,6.444,64h51.112C57.557,58.395,58.876,48.83,55.161,45.114z"/>
			</g>
		</g>
	</g>
</g>
</svg>
