<?xml version="1.0" encoding="iso-8859-1"?>
<!-- Generator: Adobe Illustrator 16.0.0, SVG Export Plug-In . SVG Version: 6.00 Build 0)  -->
<!DOCTYPE svg PUBLIC "-//W3C//DTD SVG 1.1//EN" "http://www.w3.org/Graphics/SVG/1.1/DTD/svg11.dtd">
<svg version="1.1" id="Layer_1" xmlns="http://www.w3.org/2000/svg" xmlns:xlink="http://www.w3.org/1999/xlink" x="0px" y="0px"
	 width="64px" height="64px" viewBox="0 0 64 64" style="enable-background:new 0 0 64 64;" xml:space="preserve">
<g>
	<g>
		<path style="fill:#9C603E;" d="M36.616,11.92c-0.438,0.095-6.723,4.361-9.233,4.951l1.256-3.472L36.616,11.92z"/>
	</g>
	<g>
		<g>
			<path style="fill:#FFE9BA;" d="M43.966,46.057l-3.652-0.672c-0.017,0-0.017,0-0.034,0c-1.969-0.019-3.582-1.598-3.635-3.563
				v-2.679c4.308-2.658,7.321-8.883,7.321-16.134C43.966,13.328,38.612,8.4,32,8.4l0,0h-0.001c-6.611,0-11.967,4.928-11.967,14.608
				c0,7.251,3.015,13.476,7.322,16.134v2.679c-0.052,1.966-1.666,3.545-3.634,3.563c-0.019,0-0.019,0-0.035,0l-3.653,0.672
				c-8.084,2.5-9.573,8.493-9.573,15.389V64h21.54H32h21.541v-2.555C53.541,54.55,52.051,48.557,43.966,46.057z"/>
		</g>
		<g>
			<path style="fill:#FFE9BA;" d="M36.662,41.254c0,0,0-0.019-0.018-0.036v0.036C36.662,41.254,36.662,41.254,36.662,41.254z"/>
		</g>
	</g>
	<g>
		<g>
			<path style="fill:#FFE9BA;" d="M40.793,34.852c-1.135,1.845-2.553,3.315-4.148,4.291v2.535c-0.921,0.302-1.878,0.461-2.854,0.461
				c-2.375,0-4.592-0.939-6.436-2.571v-0.425c1.4,0.798,2.926,1.224,4.522,1.224C35.423,40.366,38.631,38.222,40.793,34.852z"/>
		</g>
		<g>
			<path style="fill:#FFE9BA;" d="M36.662,41.254c0,0,0,0-0.018,0v-0.036C36.662,41.235,36.662,41.254,36.662,41.254z"/>
		</g>
	</g>
	<g>
		<g>
			<path style="fill:#414953;" d="M53.541,61.445V64H10.459v-2.555c0-6.896,1.489-12.889,9.573-15.389l3.653-0.672
				c0.017,0,0.017,0,0.035,0c0.709,0,1.383-0.215,1.951-0.604c1.417,1.967,3.722,3.244,6.328,3.244s4.911-1.277,6.329-3.244
				c0.568,0.389,1.242,0.604,1.95,0.604c0.018,0,0.018,0,0.034,0l3.653,0.672C52.053,48.557,53.541,54.55,53.541,61.445z"/>
		</g>
		<g>
			<path style="fill:#414953;" d="M36.662,41.254c0,0,0,0-0.018,0v-0.036C36.662,41.235,36.662,41.254,36.662,41.254z"/>
		</g>
	</g>
	<g>
		<path style="fill:#FFE9BA;" d="M27.283,39.106c-0.353-0.194-0.708-0.424-1.046-0.672c-0.017,0-0.017,0-0.035-0.018
			c-0.018-0.021-0.018-0.021-0.018-0.036c-0.07-0.071-0.142-0.159-0.213-0.248C26.397,38.487,26.823,38.822,27.283,39.106z"/>
	</g>
	<g>
		<path style="fill:#EED59C;" d="M36.645,39.143v2.075c0.018,0.018,0.018,0.036,0.018,0.036s0,0-0.018,0v0.424
			c-0.921,0.302-1.878,0.461-2.854,0.461c-2.375,0-4.592-0.939-6.436-2.571c-0.39-0.354-0.762-0.727-1.117-1.133
			c-0.017,0-0.017,0-0.035-0.018c-0.018-0.021-0.018-0.021-0.018-0.036c-0.07-0.071-0.142-0.159-0.213-0.248
			c0.426,0.354,0.852,0.689,1.312,0.974c0.02,0.019,0.036,0.036,0.071,0.036c1.4,0.798,2.926,1.224,4.522,1.224
			C35.423,40.366,36.645,39.143,36.645,39.143z"/>
	</g>
	<g>
		<path style="fill:#9C603E;" d="M38.124,11.92c0,0-8.946,1.765-13.519,6.426c-4.573,4.663-1.68,8.35-2.983,13.824
			c0,0-3.998-5.069-3.111-13.158C19.396,10.923,23.549,5.16,32,5.937c0,0,2.8-1.884,7.231-0.554
			c4.433,1.328,11.87,18.42,2.627,27.545C41.858,32.928,46.877,18.679,38.124,11.92z"/>
	</g>
	<g>
		<ellipse style="fill:#FFE9BA;" cx="21.125" cy="28.163" rx="1.727" ry="3.108"/>
	</g>
	<g>
		<ellipse style="fill:#FFE9BA;" cx="42.874" cy="28.163" rx="1.727" ry="3.108"/>
	</g>
	<g>
		<path style="fill:#9C603E;" d="M23.118,19.574c0.098-0.389-0.452,0.509-3.002,5.338c0,0,0.082,0.313,0.383,0.361
			c0.5,0.08,0.627,0.535,2.111,2.89C22.61,28.163,21.919,24.327,23.118,19.574z"/>
	</g>
	<g>
		<path style="fill:#9C603E;" d="M24.605,18.346c0,0-0.646,1.646-1.035,4.582c0,0-1.457-1.68-1.313-2.972
			C22.404,18.666,24.605,18.346,24.605,18.346z"/>
	</g>
	<g>
		<path style="fill:#FFFFFF;" d="M25.672,44.781L28.89,64h7.885l1.555-19.219C38.329,44.781,32.731,51.588,25.672,44.781z"/>
	</g>
	<g>
		<g>
			<path d="M35.437,51.588c0,0.49-0.396,0.887-0.887,0.887h-3.558c-0.491,0-0.888-0.396-0.888-0.887v-2.072
				c0-0.49,0.396-0.888,0.888-0.888h3.558c0.491,0,0.887,0.397,0.887,0.888V51.588z"/>
		</g>
		<g>
			<polygon style="fill:#FFFFFF;" points="26.844,43.572 32.624,48.025 29.938,53.362 25.672,44.781 			"/>
		</g>
		<g>
			<polygon style="fill:#FFFFFF;" points="37.153,43.572 32.623,48.025 35.309,53.362 38.329,44.781 			"/>
		</g>
		<g>
			<polygon points="31.941,52.475 29.514,64 35.437,64 33.32,52.475 			"/>
		</g>
	</g>
	<g>
		<g>
			<path style="fill:#EFAC15;" d="M45.858,15.168c-0.027-7.72-6.166-14.504-13.814-14.504c-7.647,0-13.904,6.813-13.904,14.554
				h0.085v0.699c0,0.49,0.397,0.887,0.887,0.887h25.862c0.49,0,0.887-0.396,0.887-0.887V15.18
				C45.86,15.176,45.858,15.174,45.858,15.168z"/>
		</g>
		<g>
			<path style="fill:#E0910E;" d="M36.537,10.813c-0.348,0.347-0.908,0.347-1.255,0l-0.704-0.706c-0.347-0.346-0.347-0.908,0-1.254
				l5.483-5.484c0.348-0.347,0.907-0.347,1.256,0l0.703,0.706c0.347,0.346,0.347,0.907,0,1.253L36.537,10.813z"/>
		</g>
		<g>
			<path style="fill:#E0910E;" d="M42.788,14.016c0,0.276-0.224,0.499-0.499,0.499H21.348c-0.275,0-0.5-0.223-0.5-0.499l0,0
				c0-0.273,0.225-0.498,0.5-0.498h20.941C42.564,13.518,42.788,13.742,42.788,14.016L42.788,14.016z"/>
		</g>
		<g>
			<path style="fill:#E0910E;" d="M33.148,8.643c0,0.49-0.397,0.886-0.887,0.886h-0.997c-0.49,0-0.887-0.396-0.887-0.886V0.887
				c0-0.49,0.396-0.887,0.887-0.887h0.997c0.489,0,0.887,0.396,0.887,0.887V8.643z"/>
		</g>
		<g>
			<path style="fill:#E0910E;" d="M29.168,8.854c0.347,0.346,0.347,0.908,0,1.254l-0.705,0.706c-0.347,0.347-0.906,0.347-1.254,0
				l-5.484-5.485c-0.347-0.346-0.347-0.907,0-1.253l0.705-0.706c0.348-0.347,0.907-0.347,1.254,0L29.168,8.854z"/>
		</g>
		<g>
			<path style="fill:#FED17C;" d="M29.168,10.113l-0.479,0.461l-6.72-6.736l0.461-0.463c0.355-0.353,0.905-0.353,1.26,0l5.479,5.48
				C29.522,9.192,29.522,9.759,29.168,10.113z"/>
		</g>
		<g>
			<path style="fill:#FED17C;" d="M32.427,9.528l-0.664-0.014l0.012-9.513h0.652c0.501,0,0.89,0.388,0.89,0.889v7.748
				C33.329,9.127,32.929,9.528,32.427,9.528z"/>
		</g>
		<g>
			<path style="fill:#FED17C;" d="M35.277,10.807l-0.46-0.479l6.737-6.72l0.462,0.461c0.353,0.354,0.353,0.902,0,1.259l-5.479,5.479
				C36.198,11.161,35.632,11.161,35.277,10.807z"/>
		</g>
	</g>
</g>
</svg>
