<?xml version="1.0" encoding="iso-8859-1"?>
<!-- Generator: Adobe Illustrator 16.0.0, SVG Export Plug-In . SVG Version: 6.00 Build 0)  -->
<!DOCTYPE svg PUBLIC "-//W3C//DTD SVG 1.1//EN" "http://www.w3.org/Graphics/SVG/1.1/DTD/svg11.dtd">
<svg version="1.1" id="Layer_1" xmlns="http://www.w3.org/2000/svg" xmlns:xlink="http://www.w3.org/1999/xlink" x="0px" y="0px"
	 width="64px" height="64px" viewBox="0 0 64 64" style="enable-background:new 0 0 64 64;" xml:space="preserve">
<g>
	<g>
		<path style="fill:#C6BDB9;" d="M32,10.726C32,10.726,32,10.726,32,10.726L32,10.726c5.94,0,10.753,4.789,10.753,10.697
			c0,2.872-0.848,4.895-1.35,5.035c-1.594,0.448-4.888-6.88-9.403-6.88l0,0c-0.001,0-0.001,0-0.001,0
			c-4.515,0-7.809,7.328-9.402,6.88c-0.502-0.141-1.35-2.163-1.35-5.035C21.248,15.515,26.061,10.726,32,10.726z"/>
		<g>
			<path style="fill:#F9D5BE;" d="M11.502,49.575c0.227-4.309,6.521-5.159,11.397-5.953c2.607-0.425,3.425-3.132,3.627-5.563
				c1.652,1.532,3.783,3.096,5.474,3.096c1.672,0,3.812-1.57,5.473-3.105c0.2,2.433,1.018,5.147,3.629,5.572
				c4.876,0.794,11.17,1.645,11.396,5.953C52.726,53.885,52.612,64,52.612,64H32.255h-0.51H11.388
				C11.388,64,11.275,53.885,11.502,49.575z"/>
			<path style="fill:#F9D5BE;" d="M26.527,38.06c0.034-0.406,0.057-0.807,0.062-1.186h10.825c0.005,0.375,0.026,0.772,0.061,1.176
				c-1.661,1.535-3.801,3.105-5.473,3.105C30.31,41.155,28.179,39.592,26.527,38.06z"/>
			<path style="opacity:0.35;fill:#C69E89;" d="M26.527,38.06c0.034-0.406,0.057-0.807,0.062-1.186h10.825
				c0.005,0.375,0.026,0.772,0.061,1.176c-1.661,1.535-3.801,3.105-5.473,3.105C30.31,41.155,28.179,39.592,26.527,38.06z"/>
		</g>
		<path style="fill:#F9D5BE;" d="M21.136,25.021c0.538-0.187,1.031,0.125,1.416,0.536c-0.018-0.534-0.014-0.941,0.003-1.158
			c0-6.385,5.013-10.013,9.445-10.021c4.433,0.008,9.446,3.636,9.446,10.021c0.016,0.217,0.021,0.624,0.002,1.158
			c0.386-0.411,0.879-0.723,1.417-0.536c0.858,0.299,0.434,5.526-2.072,6.464c-0.077,0.028-0.137,0.034-0.205,0.053
			c-0.325,1.207-0.761,2.381-1.351,3.351c-0.68,1.119-4.615,5.498-7.237,5.498c-2.657,0-6.557-4.379-7.236-5.498
			c-0.59-0.97-1.025-2.144-1.351-3.351c-0.068-0.019-0.129-0.024-0.205-0.053C20.703,30.548,20.278,25.32,21.136,25.021z"/>
		<path style="fill:#C6BDB9;" d="M32.32,11.957c-8.311,0-11.343,6.04-11.054,10.962c0.13,2.212,1.084,5.123,1.084,5.123
			c0.107,0.148,0.512,0.057,0.469-0.208c-0.724-4.499,1.128-7.636,2.472-8.87c2.625-2.481,12.956-3.112,15.099,2.286
			c0.844,1.926,1.22,4.375,0.863,6.584c-0.043,0.265,0.37,0.356,0.478,0.208c0,0,1.038-3.324,1.041-5.54
			C42.774,20.308,41.754,11.957,32.32,11.957z"/>
	</g>
	<path d="M11.502,49.575c0.227-4.309,6.521-5.159,11.397-5.953c1.627-0.266,2.557-1.419,3.075-2.84l6.034,5.032l6.017-5.032
		c0.519,1.42,1.448,2.574,3.076,2.84c4.876,0.794,11.17,1.645,11.396,5.953C52.726,53.885,52.612,64,52.612,64H32.255h-0.51H11.388
		C11.388,64,11.275,53.885,11.502,49.575z"/>
	<path style="fill:#C04028;" d="M36.979,42.853L32,52.013l-4.979-9.16c-2.255-0.029-5.805,1.024-5.783,1.098
		C22.605,48.501,30.5,56.788,32,58.336c1.501-1.548,9.395-9.835,10.761-14.386C42.783,43.877,39.233,42.823,36.979,42.853z"/>
	<polygon style="fill:#0D1014;" points="34.237,45.5 29.782,45.5 31.098,48.495 30.469,64 33.497,64 32.82,48.495 	"/>
	<polygon style="opacity:0.55;fill:#CCCCCC;" points="37.949,40.078 31.973,45.396 26.052,40.078 23.275,43.57 26.169,49.228 
		31.982,46.218 37.832,49.228 40.727,43.57 	"/>
	<polygon style="fill:#FFFFFF;" points="37.948,39.675 31.973,44.992 26.052,39.675 23.165,42.847 26.358,48.703 31.982,45.814 
		37.643,48.703 40.836,42.847 	"/>
	<g>
		<polygon points="15.459,9.108 24.678,12.569 37.055,12.576 46.411,9.125 35.118,0 		"/>
		<polygon points="19.423,16.482 18.871,16.482 18.821,9.571 19.374,9.571 		"/>
		<path style="fill:#FCCC42;" d="M20.193,19.065l0.152-0.035l-0.576-1.983l-0.016,0.004c0.054-0.096,0.088-0.204,0.087-0.321
			c-0.003-0.381-0.335-0.688-0.743-0.688c-0.407-0.001-0.735,0.307-0.732,0.688c0.001,0.158,0.062,0.302,0.158,0.418l-0.71,1.824
			l0.148,0.048l0.684-1.757c0.005,0.004,0.01,0.008,0.015,0.011l-0.514,1.789l0.152,0.036l0.501-1.745
			c0.007,0.003,0.013,0.007,0.021,0.01l-0.339,1.782l0.155,0.024l0.333-1.757l-0.151,1.75l0.157,0.013l0.152-1.76
			c0.009,0,0.018-0.002,0.025-0.002l0.014,1.76h0.157l-0.014-1.785c0.008-0.002,0.016-0.004,0.023-0.007l0.179,1.794l0.157-0.012
			l-0.185-1.846c0.006-0.003,0.012-0.006,0.018-0.01l0.352,1.827l0.155-0.023l-0.368-1.91c0.002-0.004,0.005-0.007,0.008-0.009
			L20.193,19.065z"/>
		<path d="M42.001,17.724l-20.127-0.011l-0.05-7.015c0.613-4.417,18.11-5.673,20.127,0.071L42.001,17.724z"/>
	</g>
</g>
</svg>
