<?xml version="1.0" encoding="iso-8859-1"?>
<!-- Generator: Adobe Illustrator 16.0.0, SVG Export Plug-In . SVG Version: 6.00 Build 0)  -->
<!DOCTYPE svg PUBLIC "-//W3C//DTD SVG 1.1//EN" "http://www.w3.org/Graphics/SVG/1.1/DTD/svg11.dtd">
<svg version="1.1" id="Layer_1" xmlns="http://www.w3.org/2000/svg" xmlns:xlink="http://www.w3.org/1999/xlink" x="0px" y="0px"
	 width="64px" height="64px" viewBox="0 0 64 64" style="enable-background:new 0 0 64 64;" xml:space="preserve">
<g>
	<path style="fill:#C06345;" d="M53.686,19.727c4.07-2.108,1.164-10.687-4.362-7.634c4.071-5.598-3.198-8.796-5.016-6.688
		c0-6.179-9.567-7.134-12.366-2.044V3.224c-2.8-5.089-12.249-3.998-12.249,2.181c-1.818-2.107-9.087,1.091-5.017,6.688
		c-5.525-3.053-8.433,5.525-4.361,7.634C4.498,18.49,2.39,30.559,11.258,30.559c-3.779,2.326,0,13.739,8.216,9.451
		c-0.357,4.219,5.053,8.209,8.48,4.621c0.058-0.06,0.114-0.122,0.171-0.187l3.816-14.799v-4.652l3.933,19.451
		c0.056,0.064,0.112,0.127,0.17,0.187c3.429,3.588,8.838-0.402,8.48-4.621c8.216,4.288,11.995-7.125,8.216-9.451
		C61.61,30.559,59.503,18.49,53.686,19.727z"/>
	<path style="fill:#FFD7AF;" d="M31.908,52.97l7.342-5.828c0,0-1.058-1.42-1.51-5.828h-5.833l0,0h-5.832
		c-0.454,4.408-1.51,5.828-1.51,5.828L31.908,52.97L31.908,52.97L31.908,52.97L31.908,52.97L31.908,52.97z"/>
	<path style="fill:#F5CDA5;" d="M37.74,41.313h-5.833l0,0h-5.832c-0.048,0.453-0.101,0.868-0.159,1.262
		c1.754,1.398,3.788,2.147,5.991,2.147c2.204,0,4.238-0.749,5.992-2.147C37.841,42.182,37.786,41.767,37.74,41.313z"/>
	<path style="fill:#FED9AE;" d="M31.908,43.325c6.871,0,12.14-7.198,12.14-19.12c0-14.867-4.361-18.32-12.14-18.32
		c-7.78,0-12.142,3.453-12.142,18.32C19.766,36.127,25.038,43.325,31.908,43.325z"/>
	<path style="fill:#FFE1B9;" d="M32.057,5.887v37.429c6.796-0.106,11.991-7.276,11.991-19.11
		C44.048,9.437,39.741,5.933,32.057,5.887z"/>
	<path style="fill:#C06345;" d="M43.212,10.507c-6.323-8.125-10.981-4.784-11.288-4.55c-0.307-0.234-4.963-3.575-11.286,4.55
		c-6.545,8.408-0.29,18.743-0.29,18.743h0.869c0,0-0.289-7.141,1.02-10.487s4.072-4.834,5.234-4.834
		c1.156,0,2.225,1.763,4.437,1.781v0.003c0.005,0,0.01-0.001,0.017-0.001c0.006,0,0.011,0.001,0.018,0.001V15.71
		c2.21-0.019,3.279-1.781,4.436-1.781c1.163,0,3.925,1.487,5.233,4.834s1.02,10.487,1.02,10.487h0.87
		C43.501,29.25,49.755,18.915,43.212,10.507z"/>
	<path style="fill:#FFD7AF;" d="M20.705,31.839c0,0-1.876,1.998-2.787-2.763c-0.974-5.09-0.939-7.852,0.806-8.434
		c1.116-0.372,1.438,0.579,1.438,0.579L20.705,31.839z"/>
	<path style="fill:#FFD7AF;" d="M43.285,31.839c0,0,1.876,1.998,2.787-2.763c0.974-5.09,0.939-7.852-0.806-8.434
		c-1.118-0.372-1.438,0.579-1.438,0.579L43.285,31.839z"/>
	<path style="fill:#ED7064;" d="M52.345,53.389c-0.457-1.189-1.411-2.12-2.61-2.546l-10.416-3.701l-7.376,4.754l-7.376-4.754
		L14.15,50.843c-1.201,0.426-2.155,1.356-2.612,2.546L7.46,64h24.481h24.482L52.345,53.389z"/>
	<polygon style="fill:#F0F0F0;" points="46.197,49.585 41.649,61.62 31.923,61.62 31.891,61.62 22.164,61.62 17.653,49.599 
		14.969,50.552 17.353,64 31.891,64 31.923,64 46.459,64 48.732,50.486 	"/>
</g>
</svg>
