<?xml version="1.0" encoding="iso-8859-1"?>
<!-- Generator: Adobe Illustrator 16.0.0, SVG Export Plug-In . SVG Version: 6.00 Build 0)  -->
<!DOCTYPE svg PUBLIC "-//W3C//DTD SVG 1.1//EN" "http://www.w3.org/Graphics/SVG/1.1/DTD/svg11.dtd">
<svg version="1.1" id="Layer_1" xmlns="http://www.w3.org/2000/svg" xmlns:xlink="http://www.w3.org/1999/xlink" x="0px" y="0px"
	 width="64px" height="64px" viewBox="0 0 64 64" style="enable-background:new 0 0 64 64;" xml:space="preserve">
<g>
	<g>
		<g>
			<path style="fill:#FFE9BA;" d="M19.039,44.567l3.956-0.729c0.018,0,0.018,0,0.038,0c2.132-0.02,3.879-1.729,3.936-3.859V37.08
				c-4.664-2.881-7.93-9.621-7.93-17.475c0-10.484,5.8-15.82,12.961-15.82l0,0l0,0c7.161,0,12.961,5.336,12.961,15.82
				c0,7.854-3.265,14.594-7.93,17.475v2.899c0.056,2.131,1.805,3.84,3.936,3.859c0.02,0,0.02,0,0.038,0l3.956,0.729
				c8.755,2.709,10.369,9.196,10.369,16.666V64H32l0,0H8.67v-2.767C8.67,53.764,10.284,47.276,19.039,44.567z"/>
		</g>
		<g>
			<path style="fill:#FFE9BA;" d="M26.949,39.364c0,0,0-0.018,0.02-0.037v0.037C26.949,39.364,26.949,39.364,26.949,39.364z"/>
		</g>
	</g>
	<g>
		<g>
			<path style="fill:#FFE9BA;" d="M22.475,32.432c1.229,1.996,2.766,3.591,4.494,4.648v2.745c0.998,0.326,2.034,0.5,3.092,0.5
				c2.573,0,4.974-1.018,6.971-2.785v-0.46c-1.519,0.863-3.169,1.324-4.898,1.324C28.293,38.404,24.818,36.08,22.475,32.432z"/>
		</g>
		<g>
			<path style="fill:#FFE9BA;" d="M26.949,39.364c0,0,0,0,0.02,0v-0.037C26.949,39.347,26.949,39.364,26.949,39.364z"/>
		</g>
	</g>
	<g>
		<g>
			<path style="fill:#FFFFFF;" d="M8.67,61.233V64h46.66v-2.767c0-7.47-1.614-13.957-10.369-16.666l-3.956-0.729
				c-0.019,0-0.019,0-0.038,0c-0.769,0-1.498-0.23-2.113-0.652C37.317,45.317,34.823,46.7,32,46.7c-2.824,0-5.32-1.383-6.855-3.514
				c-0.615,0.422-1.345,0.652-2.113,0.652c-0.019,0-0.019,0-0.036,0l-3.956,0.729C10.282,47.276,8.67,53.764,8.67,61.233z"/>
		</g>
	</g>
	<g>
		<path style="fill:#C77543;" d="M37.107,37.041c0.383-0.212,0.768-0.462,1.131-0.729c0.021,0,0.021,0,0.041-0.019
			c0.019-0.021,0.019-0.021,0.019-0.04c0.076-0.077,0.153-0.173,0.23-0.268C38.067,36.37,37.605,36.732,37.107,37.041z"/>
	</g>
	<g>
		<path style="fill:#EED59C;" d="M26.969,37.08v2.247c-0.02,0.02-0.02,0.037-0.02,0.037s0,0,0.02,0v0.461
			c0.998,0.326,2.034,0.5,3.092,0.5c2.573,0,4.974-1.018,6.971-2.785c0.421-0.385,0.823-0.787,1.207-1.229
			c0.021,0,0.021,0,0.041-0.019c0.019-0.021,0.019-0.021,0.019-0.04c0.076-0.077,0.153-0.173,0.23-0.268
			c-0.461,0.385-0.923,0.747-1.421,1.056c-0.021,0.019-0.039,0.039-0.076,0.039c-1.519,0.863-3.169,1.324-4.898,1.324
			C28.293,38.404,26.969,37.08,26.969,37.08z"/>
	</g>
	<g>
		<path style="fill:#C77543;" d="M25.367,7.594c0,0,9.688,1.912,14.642,6.961c4.952,5.051,1.819,9.043,3.23,14.971
			c0,0,4.329-5.49,3.37-14.25C45.647,6.514,41.153,0.274,32,1.114c0,0-3.032-2.039-7.834-0.6c-4.8,1.439-12.854,19.949-2.844,29.833
			C21.322,30.348,15.885,14.914,25.367,7.594z"/>
	</g>
	<g>
		<ellipse style="fill:#FFE9BA;" cx="43.777" cy="25.186" rx="1.871" ry="3.367"/>
	</g>
	<g>
		<ellipse style="fill:#FFE9BA;" cx="20.222" cy="25.186" rx="1.871" ry="3.367"/>
	</g>
	<g>
		<path style="fill:#C77543;" d="M41.619,15.885c-0.107-0.422,0.489,0.551,3.25,5.781c0,0-0.089,0.34-0.414,0.391
			c-0.541,0.088-0.678,0.58-2.287,3.129C42.168,25.186,42.92,21.031,41.619,15.885z"/>
	</g>
	<g>
		<path style="fill:#C77543;" d="M40.009,14.555c0,0,0.7,1.781,1.119,4.961c0,0,1.58-1.818,1.423-3.217
			C42.392,14.9,40.009,14.555,40.009,14.555z"/>
	</g>
	<g>
		<path style="fill:#C77543;" d="M25.367,7.594c0.475,0.104,7.28,4.725,10.001,5.365l-1.36-3.764L25.367,7.594z"/>
	</g>
	<g>
		<path d="M34.087,50.797c0,0.531-0.319,0.961-0.717,0.961h-2.285c-0.397,0-0.717-0.43-0.717-0.961v-1.999
			c0-0.529,0.319-0.959,0.717-0.959h2.285c0.397,0,0.717,0.43,0.717,0.959V50.797z"/>
	</g>
	<g>
		<path d="M38.98,46.729c-0.134-0.287-0.394-0.461-0.682-0.518c-0.003,0-0.017-0.006-0.017-0.006v0.002
			c-0.184-0.031-0.373-0.029-0.556,0.053l-4.996,2.227c-0.462-0.113-0.946,0.115-1.12,0.571l-0.059,0.15
			c-0.16,0.416,0,0.861,0.348,1.109c0.202,0.266,0.516,0.41,0.846,0.375l5.016,1.924c0.495,0.191,1.05-0.057,1.24-0.553l0.058-0.15
			c0.294-1.049-0.296-2.594-0.296-2.594C39.451,47.948,39.291,47.169,38.98,46.729z"/>
	</g>
	<g>
		<path d="M25.799,52.502c0.138,0.287,0.396,0.461,0.683,0.52c0.004,0,0.016,0.004,0.016,0.004l0,0
			c0.185,0.031,0.375,0.027,0.559-0.055l4.994-2.223c0.461,0.111,0.946-0.119,1.12-0.574l0.059-0.152
			c0.16-0.416-0.002-0.861-0.346-1.107c-0.203-0.267-0.518-0.407-0.846-0.374l-5.017-1.926c-0.496-0.191-1.053,0.059-1.241,0.557
			l-0.058,0.148c-0.293,1.047,0.296,2.591,0.296,2.591C25.329,51.285,25.49,52.064,25.799,52.502z"/>
	</g>
	<g>
		<path d="M21.187,43.989c0,0,3.203,17.61,11.054,20.011H16.538l1.528-19.442C18.066,44.558,18.009,44.386,21.187,43.989z"/>
	</g>
	<g>
		<path d="M42.954,43.989c0,0-3.203,17.61-11.055,20.011h15.702l-1.528-19.442C46.073,44.558,46.131,44.386,42.954,43.989z"/>
	</g>
</g>
</svg>
