<?xml version="1.0" encoding="iso-8859-1"?>
<!-- Generator: Adobe Illustrator 16.0.0, SVG Export Plug-In . SVG Version: 6.00 Build 0)  -->
<!DOCTYPE svg PUBLIC "-//W3C//DTD SVG 1.1//EN" "http://www.w3.org/Graphics/SVG/1.1/DTD/svg11.dtd">
<svg version="1.1" id="Layer_1" xmlns="http://www.w3.org/2000/svg" xmlns:xlink="http://www.w3.org/1999/xlink" x="0px" y="0px"
	 width="64px" height="64px" viewBox="0 0 64 64" style="enable-background:new 0 0 64 64;" xml:space="preserve">
<g>
	<path style="fill:#CC5525;" d="M36.054,4.314c3.089-5.083,20.115-9.178,19.796,9.1c-0.28,16.076-9.316,18.273-6.164,24.412
		c1.345,2.617,6.164-1.559,6.164-1.559s-0.998,7.432-7.67,7.432c-6.673,0-7.502-6.402-7.008-12.012L36.054,4.314z"/>
	<g>
		<path style="fill:#FFD7AF;" d="M29.562,51.645l7.074-5.613c0,0-1.02-1.369-1.455-5.617h-5.619l0,0h-5.62
			c-0.437,4.248-1.454,5.617-1.454,5.617L29.562,51.645v0.002l0,0l0,0V51.645z"/>
		<path style="fill:#F5CDA5;" d="M35.181,40.414h-5.619l0,0h-5.62c-0.045,0.439-0.097,0.838-0.152,1.217
			c1.689,1.346,3.649,2.068,5.772,2.068c2.122,0,4.083-0.723,5.771-2.07C35.277,41.252,35.225,40.852,35.181,40.414z"/>
		<path style="fill:#FFD7AF;" d="M18.68,31.285c0,0-1.808,1.926-2.686-2.662c-0.938-4.902-0.904-7.564,0.776-8.125
			c1.076-0.359,1.386,0.559,1.386,0.559L18.68,31.285z"/>
		<path style="fill:#FED9AE;" d="M29.475,42.354c6.619,0,11.697-6.936,11.697-18.424c0-14.324-4.203-17.652-11.697-17.652
			c-7.496,0-11.698,3.328-11.698,17.652C17.776,35.418,22.854,42.354,29.475,42.354z"/>
		<path style="fill:#FFD7AF;" d="M40.436,31.285c0,0,1.808,1.926,2.687-2.662c0.938-4.902,0.904-7.564-0.776-8.125
			c-1.076-0.359-1.386,0.559-1.386,0.559L40.436,31.285z"/>
		<path style="fill:#FFE1B9;" d="M29.619,6.281v36.063c6.548-0.104,11.553-7.012,11.553-18.414
			C41.172,9.699,37.021,6.324,29.619,6.281z"/>
	</g>
	<path style="fill:#CC5525;" d="M29.063,3.545c-13.339,0-14.368,13.076-13.753,17.791c0.31,2.363,2.165,4.627,2.165,4.627
		s0.488-6.379,4.622-8.199s10.176-0.84,13.101-5.254c3.434,5.227,4.962,7.426,5.634,13.453C44.645,21.967,47.667,3.684,29.063,3.545
		z"/>
	<path style="fill:#E9635E;" d="M48.931,55.125c-0.264-1.08-0.943-2.01-1.892-2.59l-9.89-6.047l-7.53,2.707l-7.529-2.707
		l-9.89,6.047c-0.948,0.58-1.628,1.51-1.892,2.59L8.146,64h21.474h21.475L48.931,55.125z"/>
	<path style="fill:#F0F0F0;" d="M36.727,44.303l-0.863-0.135L29.562,48.4l-6.297-4.258l-0.868,0.16l-2.816,4.553
		c0,0,3.193,7.307,9.981,2.041c6.788,5.266,9.981-2.041,9.981-2.041L36.727,44.303z"/>
	<g>
		<circle style="fill:#FFFFFF;" cx="29.437" cy="53.396" r="0.7"/>
		<circle style="fill:#FFFFFF;" cx="29.437" cy="56.422" r="0.7"/>
		<circle style="fill:#FFFFFF;" cx="29.437" cy="59.447" r="0.7"/>
		<circle style="fill:#FFFFFF;" cx="29.437" cy="62.473" r="0.7"/>
	</g>
</g>
</svg>
