<?xml version="1.0" encoding="iso-8859-1"?>
<!-- Generator: Adobe Illustrator 16.0.0, SVG Export Plug-In . SVG Version: 6.00 Build 0)  -->
<!DOCTYPE svg PUBLIC "-//W3C//DTD SVG 1.1//EN" "http://www.w3.org/Graphics/SVG/1.1/DTD/svg11.dtd">
<svg version="1.1" id="Layer_1" xmlns="http://www.w3.org/2000/svg" xmlns:xlink="http://www.w3.org/1999/xlink" x="0px" y="0px"
	 width="64px" height="64px" viewBox="0 0 64 64" style="enable-background:new 0 0 64 64;" xml:space="preserve">
<g>
	<path style="fill:#FFD7AF;" d="M51.02,48.059c-6.377-2.762-9.439-6.124-10.765-8.039c-0.52-0.749-0.799-1.64-0.799-2.551v-2.602
		l-14.93,0.398v2.228c0,0.921-0.281,1.812-0.809,2.565c-1.344,1.926-4.41,5.26-10.736,8C3.476,52.175,4.823,59.211,4.823,64h27.168
		h0.019h27.167C59.177,59.211,60.524,52.175,51.02,48.059z"/>
	<path style="fill:#F5CDA5;" d="M24.526,37.948c2.01,2.308,4.524,3.569,7.313,3.569c2.931,0,5.562-1.377,7.617-3.912v-2.739
		l-14.93,0.358V37.948z"/>
	<path style="fill:#FFD7AF;" d="M20.321,27.682c0,0-1.932,2.058-2.869-2.846c-1.002-5.237-0.968-8.082,0.83-8.681
		c1.148-0.382,1.479,0.597,1.479,0.597L20.321,27.682z"/>
	<path style="fill:#FED9AE;" d="M31.853,39.506c7.073,0,12.5-7.409,12.5-19.683c0-15.305-4.491-18.86-12.5-18.86
		c-8.008,0-12.498,3.556-12.498,18.86C19.355,32.097,24.781,39.506,31.853,39.506z"/>
	<path style="fill:#FFD7AF;" d="M43.566,27.682c0,0,1.932,2.058,2.869-2.846c1.002-5.237,0.968-8.082-0.83-8.681
		c-1.148-0.382-1.479,0.597-1.479,0.597L43.566,27.682z"/>
	<path style="fill:#FFE1B9;" d="M32.009,0.965v38.53c6.996-0.108,12.343-7.489,12.343-19.672
		C44.353,4.619,39.919,1.012,32.009,0.965z"/>
	<path style="fill:#8B6D5F;" d="M31.905,0.004V0c-0.017,0-0.032,0.002-0.049,0.002C31.838,0.002,31.823,0,31.806,0v0.004
		c-13.7,0.064-14.461,13.373-14.061,15.486c0.439,2.326,2.052,6.771,2.052,6.771c1.166-4.28-0.938-12.461,2.487-13.752
		c3.424-1.291,7.417,0.92,9.493,0.92c2.078,0,6.071-2.211,9.495-0.92c3.425,1.291,1.321,9.472,2.487,13.752
		c0,0,1.612-4.445,2.052-6.771C46.212,13.377,45.604,0.068,31.905,0.004z"/>
	<path style="fill:#F95F51;" d="M47.587,46.349c-1.034-0.565-4.369-3.075-4.369-3.075s4.512,16.362-11.258,16.383
		c-15.768-0.021-11.177-16.383-11.177-16.383s-3.335,2.51-4.369,3.075V64l15.547-0.075L47.587,64V46.349z"/>
</g>
</svg>
