<?xml version="1.0" encoding="iso-8859-1"?>
<!-- Generator: Adobe Illustrator 16.0.0, SVG Export Plug-In . SVG Version: 6.00 Build 0)  -->
<!DOCTYPE svg PUBLIC "-//W3C//DTD SVG 1.1//EN" "http://www.w3.org/Graphics/SVG/1.1/DTD/svg11.dtd">
<svg version="1.1" id="Layer_1" xmlns="http://www.w3.org/2000/svg" xmlns:xlink="http://www.w3.org/1999/xlink" x="0px" y="0px"
	 width="64px" height="64px" viewBox="0 0 64 64" style="enable-background:new 0 0 64 64;" xml:space="preserve">
<g>
	<g>
		<g>
			<path style="fill:#FFE9BA;" d="M44.813,44.788l-3.911-0.721c-0.018,0-0.018,0-0.037,0c-2.107-0.02-3.836-1.71-3.892-3.816v-2.865
				c4.611-2.848,7.84-9.513,7.84-17.277c0-10.365-5.733-15.642-12.814-15.642l0,0l0,0c-7.08,0-12.814,5.276-12.814,15.642
				c0,7.765,3.229,14.43,7.841,17.277v2.865c-0.056,2.106-1.784,3.797-3.892,3.816c-0.02,0-0.02,0-0.037,0l-3.912,0.721
				c-8.655,2.677-10.25,9.094-10.25,16.478V64h23.064l0,0h23.066v-2.734C55.065,53.882,53.471,47.465,44.813,44.788z"/>
		</g>
		<g>
			<path style="fill:#FFE9BA;" d="M36.993,39.644c0,0,0-0.019-0.02-0.037v0.037C36.993,39.644,36.993,39.644,36.993,39.644z"/>
		</g>
	</g>
	<g>
		<g>
			<path style="fill:#FFE9BA;" d="M41.416,32.789c-1.216,1.975-2.733,3.551-4.442,4.597V40.1c-0.986,0.322-2.012,0.493-3.058,0.493
				c-2.543,0-4.916-1.007-6.891-2.753v-0.454c1.501,0.853,3.133,1.309,4.843,1.309C35.665,38.694,39.1,36.397,41.416,32.789z"/>
		</g>
		<g>
			<path style="fill:#FFE9BA;" d="M36.993,39.644c0,0,0,0-0.02,0v-0.037C36.993,39.625,36.993,39.644,36.993,39.644z"/>
		</g>
	</g>
	<g>
		<g>
			<path style="fill:#414953;" d="M55.065,61.266V64H8.935v-2.734c0-7.384,1.595-13.801,10.25-16.478l3.912-0.721
				c0.018,0,0.018,0,0.037,0c0.76,0,1.481-0.229,2.09-0.646c1.518,2.106,3.984,3.474,6.775,3.474c2.792,0,5.26-1.367,6.778-3.474
				c0.608,0.417,1.329,0.646,2.088,0.646c0.021,0,0.021,0,0.039,0l3.91,0.721C53.471,47.465,55.065,53.882,55.065,61.266z"/>
		</g>
		<g>
			<path style="fill:#FFE9BA;" d="M36.993,39.644c0,0,0,0-0.02,0v-0.037C36.993,39.625,36.993,39.644,36.993,39.644z"/>
		</g>
	</g>
	<g>
		<path style="fill:#FFE9BA;" d="M26.949,37.347c-0.378-0.21-0.758-0.456-1.12-0.722c-0.019,0-0.019,0-0.037-0.019
			c-0.019-0.021-0.019-0.021-0.019-0.039c-0.076-0.076-0.152-0.17-0.229-0.265C26.001,36.683,26.457,37.042,26.949,37.347z"/>
	</g>
	<g>
		<path style="fill:#EED59C;" d="M36.974,37.386v2.221c0.02,0.019,0.02,0.037,0.02,0.037s0,0-0.02,0V40.1
			c-0.986,0.322-2.012,0.493-3.058,0.493c-2.543,0-4.916-1.007-6.891-2.753c-0.416-0.38-0.815-0.779-1.196-1.215
			c-0.019,0-0.019,0-0.037-0.019c-0.019-0.021-0.019-0.021-0.019-0.039c-0.076-0.076-0.152-0.17-0.229-0.265
			c0.456,0.38,0.912,0.739,1.404,1.044c0.021,0.019,0.039,0.039,0.076,0.039c1.501,0.853,3.133,1.309,4.843,1.309
			C35.665,38.694,36.974,37.386,36.974,37.386z"/>
	</g>
	<g>
		<path style="fill:#C77543;" d="M39.437,11.794c0,0-6.329,9.333-16.137,9.808c0,0-1.187,8.296,2.529,15.023
			c0,0-3.379,3.322-9.708-0.608c0,0-15.919-35.439,15.148-33.558c0,0,3.576-3.894,10.146-1.882
			c8.215,2.514,17.162,15.804,5.703,34.874c0,0-2.087,1.522-9.077,1.035C38.042,36.486,46.396,30.778,39.437,11.794z"/>
	</g>
	<g>
		<path style="fill:#9C603E;" d="M23.3,21.602c0,0-4.729-1.147-3.492-6.96c0,0-2.92,5.092,3.356,8.488L23.3,21.602z"/>
	</g>
	<g>
		<polygon style="fill:#FFFFFF;" points="21.677,44.329 27.572,63.942 36.993,64 42.921,44.44 40.902,44.067 31.999,46.896 
			23.696,44.024 		"/>
	</g>
	<g>
		<polygon style="fill:#BEBFBC;" points="25.224,43.422 31.665,49.025 28.789,54.739 21.215,44.414 		"/>
	</g>
	<g>
		<polygon style="fill:#BEBFBC;" points="39.277,43.672 32.334,49.025 35.21,54.739 42.921,44.44 		"/>
	</g>
	<g>
		<polygon style="fill:#FFFFFF;" points="25.913,42.702 31.665,47.127 28.789,52.841 21.677,43.653 		"/>
	</g>
	<g>
		<polygon style="fill:#FFFFFF;" points="38.087,42.702 32.334,47.127 35.21,52.841 42.321,43.653 		"/>
	</g>
	<g>
		<rect x="31.665" y="49.025" style="fill:#BEBFBC;" width="0.808" height="14.579"/>
	</g>
	<g>
		<g>
			<g>
				<path style="fill:#414953;" d="M32.473,34.948l0.012-0.947c7.522,0.103,9.208-5.618,9.277-5.865l0.915,0.254
					C42.659,28.457,40.746,35.064,32.473,34.948z"/>
			</g>
		</g>
		<g>
			<path style="fill:#2D3037;" d="M34.585,34.617c-0.068,0.521-0.545,0.885-1.065,0.815l-2.56-0.337
				c-0.521-0.068-0.886-0.543-0.818-1.063l0.048-0.357c0.068-0.522,0.545-0.887,1.065-0.818l2.56,0.337
				c0.521,0.069,0.888,0.545,0.818,1.063L34.585,34.617z"/>
		</g>
		<g>
			<path style="fill:#2D3037;" d="M43.577,28.911c-0.067,0.519-0.545,0.884-1.064,0.815l-0.309-0.038
				c-0.52-0.069-0.887-0.546-0.818-1.066l0.267-2.012c0.068-0.52,0.544-0.885,1.063-0.816l0.31,0.041
				c0.52,0.068,0.887,0.546,0.817,1.064L43.577,28.911z"/>
		</g>
	</g>
	<g>
		<g>
			<g>
				<path style="fill:#2D3037;" d="M23.671,28.329c0.121,0.51-0.194,1.021-0.704,1.142l-0.304,0.072
					c-0.511,0.12-1.021-0.194-1.143-0.704l-0.468-1.975c-0.119-0.51,0.194-1.021,0.705-1.142l0.304-0.073
					c0.51-0.119,1.021,0.195,1.143,0.705L23.671,28.329z"/>
			</g>
		</g>
	</g>
	<g>
		<rect x="18.061" y="54.51" style="fill:#FFFFFF;" width="28.613" height="9.49"/>
	</g>
	<g>
		<rect x="16.537" y="54.931" style="fill:#DFB64C;" width="31.392" height="9.069"/>
	</g>
	<g>
		<path style="fill:#2D3037;" d="M35.581,55.304c0,0.633-0.425,1.146-0.948,1.146h-4.372c-0.524,0-0.95-0.514-0.95-1.146v-1.587
			c0-0.634,0.426-1.147,0.95-1.147h4.372c0.523,0,0.948,0.514,0.948,1.147V55.304z"/>
	</g>
	<g>
		<g>
			
				<ellipse transform="matrix(0.8949 0.4463 -0.4463 0.8949 25.4018 -16.3483)" style="fill:#DFB64C;" cx="47.407" cy="45.751" rx="0.638" ry="0.845"/>
		</g>
		<g>
			<path style="fill:#D05B51;" d="M45.229,52.644c-0.235,0.469-0.805,0.659-1.273,0.424l-0.318-0.157
				c-0.471-0.236-0.66-0.805-0.426-1.273l2.652-5.321c0.235-0.469,0.804-0.659,1.273-0.425l0.317,0.157
				c0.472,0.234,0.661,0.806,0.428,1.274L45.229,52.644z"/>
		</g>
		<g>
			<path style="fill:#D05B51;" d="M41.898,59.318c-0.232,0.47-0.803,0.66-1.272,0.426l-0.319-0.158
				c-0.469-0.235-0.659-0.805-0.425-1.273l2.653-5.321c0.234-0.469,0.804-0.659,1.273-0.424l0.319,0.157
				c0.468,0.235,0.659,0.804,0.424,1.273L41.898,59.318z"/>
		</g>
		<g>
			<path style="fill:#D05B51;" d="M41.821,59.423c-0.411,0.819-2.015,2.398-2.329,2.242c-0.316-0.158-0.125-2.262,0.284-3.084
				c0.41-0.82,0.883-0.047,1.197,0.111C41.289,58.849,42.229,58.603,41.821,59.423z"/>
		</g>
		<g>
			<path style="fill:#DFB64C;" d="M43.471,55.072c-0.1,0.199-0.339,0.278-0.538,0.181l0,0c-0.199-0.1-0.28-0.341-0.181-0.539
				l3.832-7.683c0.1-0.199,0.34-0.28,0.54-0.182l0,0c0.198,0.101,0.279,0.341,0.18,0.54L43.471,55.072z"/>
		</g>
		<g>
			<path style="fill:#7E817A;" d="M39.438,62.256c-0.048,0.099-0.17,0.138-0.27,0.089l0,0c-0.1-0.051-0.139-0.17-0.089-0.27
				l0.35-0.701c0.049-0.099,0.169-0.141,0.27-0.09l0,0c0.099,0.049,0.139,0.171,0.091,0.269L39.438,62.256z"/>
		</g>
		<g>
			
				<rect x="45.475" y="47.155" transform="matrix(0.8948 0.4465 -0.4465 0.8948 26.0706 -15.8085)" style="fill:#DFB64C;" width="2.205" height="0.515"/>
		</g>
		<g>
			
				<rect x="39.682" y="58.876" transform="matrix(0.8949 0.4463 -0.4463 0.8949 30.6339 -11.9976)" style="fill:#DFB64C;" width="2.205" height="0.307"/>
		</g>
	</g>
</g>
</svg>
