<?xml version="1.0" encoding="iso-8859-1"?>
<!-- Generator: Adobe Illustrator 16.0.0, SVG Export Plug-In . SVG Version: 6.00 Build 0)  -->
<!DOCTYPE svg PUBLIC "-//W3C//DTD SVG 1.1//EN" "http://www.w3.org/Graphics/SVG/1.1/DTD/svg11.dtd">
<svg version="1.1" id="Layer_1" xmlns="http://www.w3.org/2000/svg" xmlns:xlink="http://www.w3.org/1999/xlink" x="0px" y="0px"
	 width="64px" height="64px" viewBox="0 0 64 64" style="enable-background:new 0 0 64 64;" xml:space="preserve">
<g>
	<path style="fill-rule:evenodd;clip-rule:evenodd;fill:#FDC00F;" d="M47.203,13.347C47.21,5.634,40.005-0.132,31.984,0.021
		C12.281,0.402,11.448,18.878,18.886,31.275c4.585,7.642,8.378,9.755,13.069,9.032C43.214,38.569,47.327,19.825,47.203,13.347z"/>
	<path style="fill-rule:evenodd;clip-rule:evenodd;fill:#F2EFDC;" d="M58.643,64c-0.02-3.625-0.312-6.795-0.773-8.566
		c-0.448-1.729-2.146-3.554-3.714-4.328c-1.65-0.813-3.617-1.105-5.617-1.136c-6.288-0.098-7.988-0.388-9.362-2.501
		c-1.935-2.213-2.083-5.794-1.809-11.549l-13.209-0.173c1.24,4.758,1.193,9.57-0.379,12.127c-2.439,2.573-7.561,1.835-10.283,2.096
		c-3.782,0.064-5.663,1.75-7.088,5.242C5.623,57.138,5.362,60.52,5.357,64H58.643z"/>
	<path style="fill-rule:evenodd;clip-rule:evenodd;fill:#FC611F;" d="M50.851,64c-0.104-0.155-0.196-0.32-0.306-0.47
		c-9.281-5.139-34.68-4.366-36.926,0.298c-0.059,0.053-0.112,0.115-0.169,0.172H50.851z"/>
	<path style="fill-rule:evenodd;clip-rule:evenodd;fill:#DCD9C8;" d="M24.158,35.747c1.247,5.415,1.452,9.751-1.248,12.866
		c7.231-0.814,11.833-3.111,14.268-9.224c-0.022-1.464,0.095-1.513,0.189-3.47L24.158,35.747z"/>
	<path style="fill-rule:evenodd;clip-rule:evenodd;fill:#FDC00F;" d="M15.872,29.851c0.614,3.247,1.993,6.479,4.932,8.992
		c-0.362-6.233-2.443-18.125-4.854-22.765C15.567,15.34,15.259,26.603,15.872,29.851z"/>
	<path style="fill-rule:evenodd;clip-rule:evenodd;fill:#FDC00F;" d="M22.002,27.632c0.989,4.333,1.575,11.48-0.614,16.742
		c-0.3,0.716-1.055-0.45-1.572,0.198c-0.345-2.604-1.061-4.938-0.912-6.838C19.164,34.397,20.741,31.851,22.002,27.632z"/>
	<path style="fill-rule:evenodd;clip-rule:evenodd;fill:#FDAA10;" d="M22.002,27.632c-0.614,2.653-2.263,7.248-2.563,10.793
		c-0.212,2.492,0.345,4.005,1.948,5.949c0.493,0.598-1.055-0.45-1.572,0.198c-0.345-2.604-1.061-4.938-0.912-6.838
		C19.164,34.397,20.741,31.851,22.002,27.632z"/>
	<path style="fill-rule:evenodd;clip-rule:evenodd;fill:#FDC00F;" d="M16.612,32.37c-0.175,5.057,0.134,11.771,5.343,16.225
		C21.536,41.372,19.807,38.501,16.612,32.37z"/>
	<path style="fill-rule:evenodd;clip-rule:evenodd;fill:#FDAA10;" d="M16.612,32.37c1.5,4.017,3.413,8.632,4.769,12.775
		c0.365,1.114,0.219,2.485,0.574,3.449C21.536,41.372,19.807,38.501,16.612,32.37z"/>
	<path style="fill-rule:evenodd;clip-rule:evenodd;fill:#FDC00F;" d="M22.843,37.24c1.126,4.929,2.088,11.582-2.188,16.938
		C19.705,47.007,20.862,43.86,22.843,37.24z"/>
	<path style="fill-rule:evenodd;clip-rule:evenodd;fill:#FDAA10;" d="M22.843,37.24c-2.108,9.156-2.358,13.747-2.188,16.938
		C19.705,47.007,20.862,43.972,22.843,37.24z"/>
	<path style="fill-rule:evenodd;clip-rule:evenodd;fill:#FDC00F;" d="M17.648,41.696c-0.176,5.054,0.133,11.769,5.345,16.223
		C22.572,50.696,20.843,47.825,17.648,41.696z"/>
	<path style="fill-rule:evenodd;clip-rule:evenodd;fill:#FDAA10;" d="M17.648,41.696c1.622,3.578,3.969,8.619,5.345,16.223
		C22.572,50.696,20.843,47.825,17.648,41.696z"/>
	<path style="fill-rule:evenodd;clip-rule:evenodd;fill:#FDC00F;" d="M23.723,45.697c1.124,4.931,2.715,7.209-1.563,12.566
		C21.212,51.09,21.757,50.909,23.723,45.697z"/>
	<path style="fill-rule:evenodd;clip-rule:evenodd;fill:#FDAA10;" d="M23.723,45.697c-1.576,5.775-0.914,8.342-1.563,12.566
		C21.212,51.09,21.757,50.909,23.723,45.697z"/>
	<path style="fill-rule:evenodd;clip-rule:evenodd;fill:#FDC00F;" d="M23.751,64c0.014-0.062,0.021-0.119,0.037-0.183
		c0.014,0.067,0.028,0.121,0.042,0.183h0.696c0.66-2.164,1.862-1.782-1.058-7.458l-2.072,0.505
		c-1.018,3.028-0.793,4.828,0.141,6.953H23.751z"/>
	<path style="fill-rule:evenodd;clip-rule:evenodd;fill:#FDAA10;" d="M21.493,56.007l1.863-0.087
		c0.261-0.013,0.486,0.192,0.497,0.453l0.027,0.53c0.011,0.261-0.193,0.486-0.455,0.497l-1.862,0.087
		c-0.262,0.014-0.486-0.192-0.498-0.453l-0.024-0.529C21.027,56.243,21.232,56.018,21.493,56.007z"/>
	<path style="fill-rule:evenodd;clip-rule:evenodd;fill:#FDC00F;" d="M45.908,30.296c-0.613,3.246-1.994,6.478-4.931,8.991
		c0.362-6.234,2.441-18.124,4.852-22.766C46.212,15.785,46.522,27.046,45.908,30.296z"/>
	<path style="fill-rule:evenodd;clip-rule:evenodd;fill:#FDC00F;" d="M39.779,28.075c-0.991,4.336-1.574,11.482,0.612,16.743
		c0.3,0.717,1.057-0.45,1.575,0.197c0.344-2.603,1.061-4.936,0.912-6.837C42.615,34.844,41.041,32.294,39.779,28.075z"/>
	<path style="fill-rule:evenodd;clip-rule:evenodd;fill:#FDAA10;" d="M39.779,28.075c0.615,2.655,2.264,7.25,2.563,10.794
		c0.211,2.492-0.347,4.005-1.951,5.949c-0.493,0.599,1.057-0.45,1.575,0.197c0.344-2.603,1.061-4.936,0.912-6.837
		C42.615,34.844,41.041,32.294,39.779,28.075z"/>
	<path style="fill-rule:evenodd;clip-rule:evenodd;fill:#FDC00F;" d="M45.169,32.816c0.176,5.057-0.135,11.77-5.345,16.224
		C40.246,41.816,41.976,38.946,45.169,32.816z"/>
	<path style="fill-rule:evenodd;clip-rule:evenodd;fill:#FDAA10;" d="M45.169,32.816c-1.5,4.016-3.414,8.63-4.771,12.773
		c-0.364,1.115-0.216,2.486-0.574,3.45C40.246,41.816,41.976,38.946,45.169,32.816z"/>
	<path style="fill-rule:evenodd;clip-rule:evenodd;fill:#FDC00F;" d="M38.939,37.684c-1.126,4.932-2.09,11.583,2.187,16.94
		C42.077,47.451,40.917,44.305,38.939,37.684z"/>
	<path style="fill-rule:evenodd;clip-rule:evenodd;fill:#FDAA10;" d="M38.939,37.684c2.105,9.156,2.358,13.75,2.187,16.94
		C42.077,47.451,40.917,44.417,38.939,37.684z"/>
	<path style="fill-rule:evenodd;clip-rule:evenodd;fill:#FDC00F;" d="M44.133,42.141c0.174,5.054-0.135,11.77-5.345,16.223
		C39.21,51.142,40.939,48.271,44.133,42.141z"/>
	<path style="fill-rule:evenodd;clip-rule:evenodd;fill:#FDAA10;" d="M44.133,42.141c-1.624,3.578-3.971,8.619-5.345,16.223
		C39.21,51.142,40.939,48.271,44.133,42.141z"/>
	<path style="fill-rule:evenodd;clip-rule:evenodd;fill:#FDC00F;" d="M38.059,46.142c-1.126,4.932-2.716,7.21,1.561,12.565
		C40.57,51.534,40.024,51.354,38.059,46.142z"/>
	<path style="fill-rule:evenodd;clip-rule:evenodd;fill:#FDAA10;" d="M38.059,46.142c1.576,5.776,0.914,8.344,1.561,12.565
		C40.57,51.534,40.024,51.354,38.059,46.142z"/>
	<path style="fill-rule:evenodd;clip-rule:evenodd;fill:#FDC00F;" d="M40.434,64c0.771-1.939,0.897-3.691-0.049-6.508l-2.074-0.506
		c-2.703,5.252-1.871,5.316-1.21,7.014H40.434z"/>
	<path style="fill-rule:evenodd;clip-rule:evenodd;fill:#FDAA10;" d="M40.286,56.451l-1.862-0.086
		c-0.262-0.013-0.486,0.191-0.498,0.453l-0.024,0.528c-0.012,0.264,0.193,0.486,0.455,0.5l1.862,0.086
		c0.261,0.014,0.486-0.191,0.498-0.454l0.024-0.53C40.752,56.688,40.548,56.463,40.286,56.451z"/>
	<g>
		<path style="fill-rule:evenodd;clip-rule:evenodd;fill:#F2EFDC;" d="M43.85,18.972c1.231-1.839,2.68-0.588,2.231,1.64
			c-0.367,1.815-1.205,3.879-1.669,5.946c-0.317,1.419-0.826,2.423-2.072,2.157l0.138-5.9L43.85,18.972z"/>
		<path style="fill-rule:evenodd;clip-rule:evenodd;fill:#F2EFDC;" d="M18.169,18.972c-1.231-1.839-2.68-0.588-2.229,1.64
			c0.364,1.815,1.202,3.879,1.667,5.946c0.317,1.419,0.826,2.423,2.071,2.157l-0.137-5.9L18.169,18.972z"/>
		<path style="fill-rule:evenodd;clip-rule:evenodd;fill:#F2EFDC;" d="M36.063,38.516c1.516-1.348,2.669-2.611,4.104-4.927
			c1.702-2.748,2.371-4.635,3.081-9.39c0.543-3.633,0.993-7.41,0.394-10.838C42.482,6.7,38.097,1.635,31.009,1.659
			C23.162,1.686,19.327,4.8,18.174,12.307c-0.75,4.905-0.446,8.07,0.383,12.206c0.916,4.581,1.712,7.159,3.657,9.894
			c1.229,1.73,2.185,2.89,3.422,3.966c2.516,2.186,3.876,3.15,5.276,3.15C32.352,41.522,33.827,40.505,36.063,38.516z"/>
	</g>
	<path style="fill-rule:evenodd;clip-rule:evenodd;fill:#FDC00F;" d="M43.164,16.685c-0.612,0.184-1.423,0.354-2.39,0.508
		c-0.435-3.245-1.166-4.879-3.119-8.621c1.817,3.678,2.548,6.013,2.807,8.669c-0.852,0.129-1.811,0.245-2.847,0.344
		c-0.315-5.718-1.05-7.714-3.681-12.519c2.065,4.801,2.852,8.139,2.883,12.59c-1.581,0.132-3.319,0.229-5.126,0.273
		c-0.135-3.474-0.234-6.916-0.311-10.4c0,3.561-0.3,6.904-0.478,10.419c-1.482,0.024-3,0.016-4.507-0.033
		c-0.322-2.974-0.478-6.494,0.414-9.544c-1.099,2.807-1.559,6.159-1.383,9.508c-0.997-0.044-1.984-0.105-2.948-0.187
		c0.088-3.712,0.431-6.066,2.074-9.642c-0.074,0.069-0.148,0.142-0.223,0.214c-1.471,2.896-1.89,4.687-2.383,9.379
		c-0.849-0.079-1.678-0.175-2.476-0.29c-0.497,2.885,0.595,9.862,0.536,10.547c-2.268-6.902-4.38-12.898-2.928-19.005
		c1.124-4.727,5.441-9.195,14.496-8.879c8.657,0.303,12.452,4.882,13.509,9.448c1.36,5.877-1.807,16.323-2.688,16.596
		C43.022,22.159,43.529,19.526,43.164,16.685z"/>
	<g>
		<path style="fill-rule:evenodd;clip-rule:evenodd;fill:#FC611F;" d="M59.978,64c0.042-0.034,0.087-0.064,0.128-0.098
			c-1.594-3.474-5.355-5.162-9.628-0.238L50.593,64H59.978z"/>
		<path style="fill-rule:evenodd;clip-rule:evenodd;fill:#FC611F;" d="M13.407,64l0.115-0.336c-4.272-4.924-8.033-3.235-9.628,0.238
			C3.936,63.936,3.98,63.966,4.022,64H13.407z"/>
	</g>
</g>
</svg>
