<?xml version="1.0" encoding="iso-8859-1"?>
<!-- Generator: Adobe Illustrator 16.0.0, SVG Export Plug-In . SVG Version: 6.00 Build 0)  -->
<!DOCTYPE svg PUBLIC "-//W3C//DTD SVG 1.1//EN" "http://www.w3.org/Graphics/SVG/1.1/DTD/svg11.dtd">
<svg version="1.1" id="Layer_1" xmlns="http://www.w3.org/2000/svg" xmlns:xlink="http://www.w3.org/1999/xlink" x="0px" y="0px"
	 width="64px" height="64px" viewBox="0 0 64 64" style="enable-background:new 0 0 64 64;" xml:space="preserve">
<g id="_x34__1_">
	<path style="fill:#DEB09D;" d="M19.043,54.227c1.465,2.508,2.932,5.016,4.398,7.523c0.166,0.281,0.775,1.182,1.479,2.25h5.914
		c2.402-3.387,5.053-6.6,7.961-9.566c4.668-4.768,9.045-7.77,14.74-11.227c-2.146,1.303-4.098,0.254-6.379,0.227
		c-1.455-0.018-2.32-0.475-2.65-0.596c-0.455-0.168-2.738-1.041-3.98-2.6c-2.443-3.064-1.424-8.685-1.424-8.685
		s-2.746,0.412-7.557,0.104c-1.502-0.097-3.008-0.347-4.51-0.392c-0.701-0.021-1.918-0.166-2.531,0.257
		c-0.531,0.366-0.715,0.521-0.742,0.677c-0.09,0.499,0.191,0.991,0.279,1.129c0.768,1.227,0.316,4.725-1.176,6.803
		c-0.545,0.758-2.264,1.779-5.699,3.82c-1.277,0.76-2.582,1.471-2.705,2.684c-0.053,0.514,0.082,1.068,0.459,1.654
		C16.178,50.246,17.807,52.113,19.043,54.227z"/>
	<path style="fill:#E2BBA1;" d="M18.191,10.086c-1.184,2.578-1.43,5.597-1.109,8.536c-1.969,0.187-1.49,2.835-0.559,5.072
		c0.545,1.307,1.24,2.474,1.693,2.926c0.52,0.519,1.012,0.773,1.457,0.846c1.83,4.006,4.395,7.698,8.385,9.454
		c0.785,0.346,1.568,0.531,2.342,0.586V3.092C25.348,2.941,20.496,5.061,18.191,10.086z"/>
	<path style="fill:#F9CFB3;" d="M44.512,17.72C44.318,12.588,42.268,7.573,37.746,5c-0.766-0.437-1.604-0.803-2.514-1.088
		c-1.58-0.494-3.217-0.771-4.832-0.819v34.414c5.154,0.359,9.92-5.248,12.293-10.43c2.18-1.15,3.756-3.548,3.914-6.117
		C46.682,19.756,45.826,17.832,44.512,17.72z"/>
	<path style="fill:#FFFFFF;" d="M36.355,64c2.701-8.625,4.984-16.961,5.068-20.396c-12.998,8.494-19.293,0.811-19.293,0.811
		L17.66,63.779c0,0,0.01,0.088,0.025,0.221H36.355z"/>
	<path style="fill:#1C75BC;" d="M61.303,48.799c-0.314-1.523-1.256-2.828-2.57-3.637c-0.129-0.125-0.264-0.254-0.436-0.385
		c-1.102-0.844-2.576-1.195-3.844-1.541c-6.982-1.893-13.928-2.998-13.928-2.998c0.086,3.186,1.158,6.566-1.393,12.738
		C36.984,58.178,34.053,61.82,32,64h20.938h3.32h7.092C63.139,60.811,61.654,50.512,61.303,48.799z"/>
	<path style="fill:#1C75BC;" d="M2.697,48.799c0.314-1.523,1.254-2.828,2.57-3.637c0.129-0.125,0.262-0.254,0.434-0.385
		c1.104-0.844,2.578-1.195,3.846-1.541c6.982-1.893,13.318-3.105,13.318-3.105c-0.111,2.752,0.047,7.523,2.141,12.951
		C27.066,58.428,30.09,62.035,32,64H11.061H7.74H0.65C0.861,60.811,2.344,50.512,2.697,48.799z"/>
	<path style="fill:#186EA8;" d="M40.922,64c3.051-3.93,6.084-7.566,9.039-10.891l-4.039-2.643l4.039-5.043l-3.35-4.436l-6.449-1.33
		c-0.078,3.195-0.289,7.434-2.1,12.676C36.264,57.539,33.803,61.443,31.9,64H40.922z"/>
	<path style="fill:#186EA8;" d="M22.881,64c-3.051-3.93-6.084-7.566-9.039-10.891l4.039-2.643l-4.039-5.043l2.891-3.58l6.133-1.713
		c0.371,3.105,1.105,6.926,2.568,11.131C27.326,56.705,29.805,60.965,31.9,64H22.881z"/>
	<path style="fill:#594A42;" d="M16.918,18.54c0.217,1.554,0.58,3.075,1.063,4.514c-1.311-3.904,1.084-10.245,3.547-13.306
		c9.635,6.586,19.795,9.49,21.539,12.271c0.33-0.924,0.619-1.877,0.996-2.781c0.105-0.248,0.227-1.107,0.494-1.237
		c0.084-0.041,0.834-0.106,0.777,0.028c0.225-4.313,0.252-9.038-2.607-12.479c-2.842-3.422-7.232-5.635-11.729-5.548
		C20.969,0.196,15.648,9.486,16.918,18.54z"/>
	<path style="fill:#594A42;" d="M47.262,38.271c0.102,4.967-2.172,9.926-6.006,13.104c1.684-2.506,1.588-5.816,0.828-8.73
		c-0.76-2.92-2.109-5.66-2.773-8.604c-0.092-0.408-0.17-0.822-0.227-1.249c1.447-1.709,2.668-3.693,3.563-5.621
		C45.473,30.147,47.178,34.178,47.262,38.271z"/>
</g>
</svg>
