<?xml version="1.0" encoding="iso-8859-1"?>
<!-- Generator: Adobe Illustrator 16.0.0, SVG Export Plug-In . SVG Version: 6.00 Build 0)  -->
<!DOCTYPE svg PUBLIC "-//W3C//DTD SVG 1.1//EN" "http://www.w3.org/Graphics/SVG/1.1/DTD/svg11.dtd">
<svg version="1.1" id="Layer_1" xmlns="http://www.w3.org/2000/svg" xmlns:xlink="http://www.w3.org/1999/xlink" x="0px" y="0px"
	 width="64px" height="64px" viewBox="0 0 64 64" style="enable-background:new 0 0 64 64;" xml:space="preserve">
<g>
	<g>
		<path style="fill:#774E3E;" d="M31.998,0L31.998,0H32c6.938,0,12.562,5.596,12.562,12.497c0,3.356-0.99,5.719-1.577,5.884
			c-1.862,0.522-5.71-8.038-10.984-8.038h-0.001l0,0c-5.274,0-9.123,8.561-10.985,8.038c-0.587-0.165-1.577-2.527-1.577-5.884
			C19.437,5.596,25.061,0,31.998,0z"/>
		<g>
			<path style="fill:#F9D5BE;" d="M8.051,45.389c0.265-5.034,7.619-6.028,13.316-6.955c3.046-0.496,4.002-3.659,4.238-6.499
				c1.93,1.79,4.42,3.616,6.395,3.616c1.952,0,4.453-1.834,6.394-3.628c0.234,2.843,1.188,6.014,4.239,6.511
				c5.697,0.927,13.051,1.921,13.315,6.955C56.214,50.424,56.081,64,56.081,64H32.298h-0.596H7.918
				C7.918,64,7.786,50.424,8.051,45.389z"/>
			<path style="fill:#F9D5BE;" d="M25.605,31.935c0.039-0.474,0.065-0.942,0.071-1.385h12.646c0.005,0.438,0.031,0.902,0.07,1.373
				c-1.94,1.794-4.441,3.628-6.394,3.628C30.025,35.551,27.535,33.725,25.605,31.935z"/>
			<path style="opacity:0.35;fill:#C69E89;" d="M25.605,31.935c0.039-0.474,0.065-0.942,0.071-1.385h12.646
				c0.005,0.438,0.031,0.902,0.07,1.373c-1.94,1.794-4.441,3.628-6.394,3.628C30.025,35.551,27.535,33.725,25.605,31.935z"/>
		</g>
		<path style="fill:#F9D5BE;" d="M19.307,16.702c0.629-0.219,1.205,0.146,1.655,0.627c-0.021-0.624-0.016-1.101,0.003-1.354
			c0-7.46,5.855-11.697,11.035-11.706c5.179,0.009,11.035,4.246,11.035,11.706c0.019,0.254,0.023,0.73,0.003,1.354
			c0.45-0.48,1.026-0.846,1.654-0.627c1.003,0.349,0.507,6.456-2.421,7.551c-0.09,0.033-0.159,0.041-0.239,0.062
			c-0.38,1.411-0.889,2.782-1.578,3.916c-0.795,1.308-5.392,6.424-8.454,6.424c-3.105,0-7.66-5.116-8.455-6.424
			c-0.688-1.134-1.197-2.505-1.577-3.916c-0.08-0.021-0.15-0.028-0.24-0.062C18.801,23.158,18.304,17.051,19.307,16.702z"/>
		<path style="fill:#774E3E;" d="M32.374,1.438c-9.711,0-13.254,7.057-12.915,12.807c0.151,2.585,1.266,5.985,1.266,5.985
			c0.126,0.174,0.599,0.066,0.549-0.243C20.427,14.732,22.97,9.88,24.236,9.434c6.466-1.679,9.342,7.66,17.564,2.861
			c0.985,2.251,1.425,5.112,1.009,7.692c-0.05,0.31,0.432,0.417,0.558,0.243c0,0,1.213-3.884,1.216-6.472
			C44.587,11.194,43.395,1.438,32.374,1.438z"/>
	</g>
	<path style="fill:#FFFFFF;" d="M8.051,45.389c0.265-5.034,7.619-6.028,13.315-6.955c1.901-0.31,2.988-1.658,3.594-3.318l7.05,3.603
		l7.029-3.603c0.606,1.66,1.692,3.009,3.594,3.318c5.697,0.927,13.051,1.921,13.315,6.955C56.214,50.424,56.081,64,56.081,64H32.298
		h-0.596H7.918C7.918,64,7.786,50.424,8.051,45.389z"/>
	<path style="fill:#0D1014;" d="M26.023,37.563v4.304c0,0.581,0.63,0.943,1.133,0.652l9.688-5.608
		c0.503-0.292,1.132,0.071,1.132,0.652v4.304c0,0.581-0.629,0.943-1.132,0.652l-9.688-5.608
		C26.653,36.618,26.023,36.981,26.023,37.563z"/>
	<path style="fill:#0D1014;" d="M42.632,38.434L32,55.214l-10.634-16.78c-8.904,1.28-10.374,2.721-10.374,2.721
		C16.813,44.642,17.782,64,17.782,64h28.435c0,0,0.97-19.358,6.79-22.846C53.007,41.154,51.537,39.714,42.632,38.434z"/>
	<g>
		<rect x="30.702" y="41.759" style="opacity:0.35;fill:#CCCCCC;" width="2.616" height="14.311"/>
		<circle style="fill:#FFFFFF;" cx="32.01" cy="43.343" r="0.722"/>
		<circle style="fill:#FFFFFF;" cx="32.01" cy="47.301" r="0.722"/>
		<circle style="fill:#FFFFFF;" cx="32.01" cy="51.259" r="0.722"/>
	</g>
</g>
</svg>
