<?xml version="1.0" encoding="iso-8859-1"?>
<!-- Generator: Adobe Illustrator 16.0.0, SVG Export Plug-In . SVG Version: 6.00 Build 0)  -->
<!DOCTYPE svg PUBLIC "-//W3C//DTD SVG 1.1//EN" "http://www.w3.org/Graphics/SVG/1.1/DTD/svg11.dtd">
<svg version="1.1" id="Layer_1" xmlns="http://www.w3.org/2000/svg" xmlns:xlink="http://www.w3.org/1999/xlink" x="0px" y="0px"
	 width="64px" height="64px" viewBox="0 0 64 64" style="enable-background:new 0 0 64 64;" xml:space="preserve">
<g>
	<g>
		<ellipse style="fill:#BD8025;" cx="32" cy="40.213" rx="12.485" ry="13.51"/>
	</g>
	<g>
		<g>
			<path style="fill:#FFE9BA;" d="M44.8,44.809l-3.906-0.72c-0.019,0-0.019,0-0.039,0c-2.104-0.02-3.831-1.708-3.886-3.812v-2.863
				c4.607-2.845,7.831-9.502,7.831-17.259C44.8,9.801,39.073,4.53,32,4.53l0,0l0,0c-7.073,0-12.801,5.271-12.801,15.625
				c0,7.757,3.225,14.414,7.832,17.259v2.863c-0.057,2.104-1.783,3.792-3.887,3.812c-0.02,0-0.02,0-0.039,0l-3.906,0.72
				c-8.648,2.675-10.24,9.084-10.24,16.461V64H32l0,0h23.041v-2.73C55.041,53.893,53.448,47.483,44.8,44.809z"/>
		</g>
		<g>
			<path style="fill:#FFE9BA;" d="M36.987,39.67c0,0,0-0.019-0.018-0.037v0.037C36.987,39.67,36.987,39.67,36.987,39.67z"/>
		</g>
	</g>
	<g>
		<g>
			<path style="fill:#FFE9BA;" d="M41.406,32.823c-1.215,1.972-2.73,3.546-4.437,4.591v2.711c-0.987,0.322-2.012,0.493-3.055,0.493
				c-2.541,0-4.912-1.006-6.884-2.751v-0.453c1.499,0.852,3.128,1.307,4.836,1.307C35.661,38.721,39.094,36.427,41.406,32.823z"/>
		</g>
		<g>
			<path style="fill:#FFE9BA;" d="M36.987,39.67c0,0,0,0-0.018,0v-0.037C36.987,39.651,36.987,39.67,36.987,39.67z"/>
		</g>
	</g>
	<g>
		<g>
			<path style="fill:#D05B51;" d="M55.041,61.27V64H8.959v-2.73c0-7.377,1.592-13.786,10.24-16.461l3.906-0.72
				c0.02,0,0.02,0,0.039,0c0.757,0,1.479-0.228,2.086-0.646c1.517,2.104,3.981,3.472,6.77,3.472s5.253-1.368,6.77-3.472
				c0.607,0.418,1.328,0.646,2.087,0.646c0.019,0,0.019,0,0.037,0l3.907,0.72C53.449,47.483,55.041,53.893,55.041,61.27z"/>
		</g>
		<g>
			<path style="fill:#D05B51;" d="M36.987,39.67c0,0,0,0-0.018,0v-0.037C36.987,39.651,36.987,39.67,36.987,39.67z"/>
		</g>
	</g>
	<g>
		<path style="fill:#FFE9BA;" d="M26.956,37.375c-0.38-0.209-0.76-0.455-1.12-0.721c-0.018,0-0.018,0-0.037-0.018
			c-0.018-0.021-0.018-0.021-0.018-0.039c-0.077-0.076-0.153-0.171-0.229-0.266C26.008,36.712,26.463,37.071,26.956,37.375z"/>
	</g>
	<g>
		<path style="fill:#EED59C;" d="M36.97,37.414v2.219c0.018,0.019,0.018,0.037,0.018,0.037s0,0-0.018,0v0.455
			c-0.987,0.322-2.012,0.493-3.055,0.493c-2.541,0-4.912-1.006-6.884-2.751c-0.416-0.38-0.815-0.777-1.195-1.213
			c-0.018,0-0.018,0-0.037-0.018c-0.018-0.021-0.018-0.021-0.018-0.039c-0.077-0.076-0.153-0.171-0.229-0.266
			c0.456,0.38,0.911,0.739,1.404,1.043c0.019,0.019,0.037,0.039,0.075,0.039c1.499,0.852,3.128,1.307,4.836,1.307
			C35.661,38.721,36.97,37.414,36.97,37.414z"/>
	</g>
	<g>
		<path style="fill:#DFB64C;" d="M22.797,15.01c0,0,7.193,3.793,18.609,0c0,0,3.031,9.569,0.671,15.488
			c-2.549,6.388-5.108,9.779-4.426,12.945c2.637,12.218,14.855-0.935,14.855-0.935s-3.793,2.369-6.953-0.475
			c0,0,6.636,0.163,7.269-2.364c0,0-6.637,1.802-8.375-2.816c0,0,2.845,1.229,4.899,0.521c0,0-6.135-1.24-3.951-5.298
			c4.424-8.218,7.427-30.185-11.177-32.009c0,0-15.058-1.653-19.166,11.307s5.373,21.442,1.58,22.891c0,0,1.265,1.447,2.528,0
			c0,0-0.632,3.572-5.847,2.588c0,0,1.977,3.152,6.32,0.521c0,0-1.579,4.827-7.269,2.295c0,0,0.633,4.736,6.638,2.05
			c0,0-3.813,6.478-10.045,0.631c0,0,6.567,13.59,15.418,2.369c0,0,2.667-2.079,0.157-8.388S20.585,29.549,22.797,15.01z"/>
	</g>
	<g>
		<path style="fill:#DFB64C;" d="M42.394,17.623c0,0,1.978,6.163-1.618,10.588c0,0,3.672-1.094,4.778-3.787
			C46.66,21.731,42.394,17.623,42.394,17.623z"/>
	</g>
	<g>
		<path style="fill:#DFB64C;" d="M21.367,21.211c0,0-0.842,7.568,3.447,9.396c0,0-3.949,0.548-5.547-2.214
			C17.671,25.629,21.367,21.211,21.367,21.211z"/>
	</g>
	<g>
		<path style="fill:#BD8025;" d="M30.891,0.645c0,0-4.655,5.041-4.636,14.05h2.317C28.572,14.694,28.081,7.299,30.891,0.645z"/>
	</g>
	<g>
		<path style="fill:#BD8025;" d="M32,0.645c0,0-0.16,13.575-0.73,14.05h2.949L32,0.645z"/>
	</g>
	<g>
		<path style="fill:#BD8025;" d="M33.207,0.645c0,0,3.651,7.023,2.963,14.05c0,0,2.074-0.119,2.962-0.712
			C39.132,13.982,35.576,2.953,33.207,0.645z"/>
	</g>
	<g>
		<g>
			<path style="fill:#FFFFFF;" d="M42.02,52.102c-0.245-0.111-0.354-0.4-0.243-0.646c0.109-0.244,0.398-0.354,0.645-0.242
				l3.438,1.552l0.555-1.229l-3.438-1.552c-0.245-0.11-0.354-0.399-0.244-0.646c0.111-0.244,0.4-0.354,0.646-0.242l3.438,1.553
				l0.499-1.105c0.122-0.27,0.002-0.588-0.27-0.71l-4.783-2.159c-0.271-0.125-0.589-0.002-0.713,0.268l-6.05,13.397
				c-0.121,0.271-0.002,0.59,0.269,0.712l4.784,2.159c0.271,0.124,0.589,0.001,0.712-0.269l0.37-0.821l-3.438-1.551
				c-0.246-0.111-0.354-0.399-0.244-0.646c0.111-0.245,0.399-0.355,0.645-0.244l3.438,1.555l0.554-1.23l-3.438-1.552
				c-0.246-0.109-0.354-0.398-0.244-0.645c0.112-0.247,0.401-0.355,0.646-0.245l3.438,1.555l0.553-1.229l-3.437-1.554
				c-0.246-0.107-0.355-0.399-0.244-0.644c0.111-0.243,0.399-0.354,0.646-0.243l3.438,1.551l0.555-1.229l-3.437-1.551
				c-0.247-0.111-0.355-0.402-0.245-0.646c0.111-0.244,0.4-0.354,0.645-0.242l3.438,1.552l0.555-1.229L42.02,52.102z"/>
		</g>
	</g>
	<g>
		<g>
			<polygon style="fill:#414953;" points="24.784,51.465 23.509,51.953 19.285,38.09 			"/>
		</g>
		<g>
			<path style="fill:#2D3037;" d="M27.543,57.439l0.002-0.002l-2.761-5.973l-1.275,0.488l-0.571,6.029h0.004
				c0,0-0.001,0.003-0.003,0.005c-0.728,0.898-0.969,2.134-0.528,3.286c0.664,1.728,2.589,2.584,4.317,1.923
				c1.716-0.658,2.573-2.585,1.91-4.313C28.408,58.285,28.017,57.801,27.543,57.439z M26.268,61.997
				c-1.092,0.418-2.305-0.122-2.723-1.215c-0.275-0.719-0.125-1.505,0.334-2.069c0.224-0.277,0.523-0.504,0.884-0.641
				c1.079-0.415,2.293,0.127,2.704,1.205C27.887,60.369,27.347,61.582,26.268,61.997z"/>
		</g>
		<g>
			<path style="fill:#2D3037;" d="M34.364,55.793c-0.618-1.069-1.729-1.66-2.885-1.66c-0.003,0-0.003,0-0.004,0l0.002-0.004
				l-5.045-3.354l-1.183,0.684l2.902,5.906l0,0c-0.018,0.596,0.114,1.205,0.435,1.759c0.925,1.604,2.961,2.152,4.553,1.231
				C34.743,59.432,35.288,57.396,34.364,55.793z M32.496,59.243c-1,0.579-2.282,0.233-2.866-0.779
				c-0.577-1.003-0.233-2.283,0.768-2.86c0.334-0.191,0.697-0.283,1.053-0.283c0.727-0.002,1.435,0.377,1.82,1.045
				C33.854,57.378,33.512,58.659,32.496,59.243z"/>
		</g>
		<g>
			<polygon style="fill:#BEBFBC;" points="25.25,51.459 23.389,50.967 19.285,38.09 26.433,50.775 			"/>
		</g>
		<g>
			<circle style="fill:#414953;" cx="24.28" cy="49.789" r="0.812"/>
		</g>
	</g>
	<g>
		<path style="fill:#D6726B;" d="M30.027,61.744V64H16.792v-2.256c0-0.512,0.417-0.949,0.946-0.949H29.08
			C29.61,60.795,30.027,61.232,30.027,61.744z"/>
	</g>
	<g>
		<path style="fill:#D6726B;" d="M47.399,61.744V64H34.162v-2.256c0-0.512,0.416-0.949,0.948-0.949h11.341
			C46.963,60.795,47.399,61.232,47.399,61.744z"/>
	</g>
	<g>
		<g>
			<g>
				<path style="fill:#BEBFBC;" d="M20.224,56.586c0.003,0.912-0.735,1.651-1.646,1.653c-0.398,0.002-0.766-0.14-1.05-0.374
					c-0.145-0.115-0.269-0.26-0.363-0.417c-0.153-0.248-0.24-0.54-0.241-0.855c-0.003-0.909,0.734-1.65,1.646-1.651
					C19.479,54.938,20.221,55.675,20.224,56.586z"/>
			</g>
			<g>
				<path style="fill:#BEBFBC;" d="M19.282,59.95c0.002,0.364-0.293,0.661-0.658,0.661l-0.082,0.002
					c-0.365,0-0.661-0.295-0.661-0.657l-0.006-1.935c0-0.362,0.294-0.658,0.659-0.658l0.082-0.002c0.363,0,0.66,0.294,0.661,0.657
					L19.282,59.95z"/>
			</g>
		</g>
		<g>
			<g>
				<path style="fill:#2D3037;" d="M19.224,56.402c0.211,0.887-0.335,1.775-1.222,1.988c-0.388,0.092-0.776,0.039-1.108-0.123
					c-0.167-0.082-0.318-0.191-0.449-0.325c-0.206-0.206-0.357-0.47-0.431-0.774c-0.212-0.886,0.335-1.775,1.221-1.988
					C18.121,54.968,19.013,55.515,19.224,56.402z"/>
			</g>
			<g>
				<path style="fill:#2D3037;" d="M19.081,59.893c0.085,0.356-0.133,0.711-0.488,0.795l-0.082,0.021
					c-0.353,0.082-0.707-0.134-0.793-0.489l-0.448-1.878c-0.085-0.355,0.135-0.712,0.488-0.795l0.08-0.021
					c0.354-0.082,0.71,0.134,0.794,0.489L19.081,59.893z"/>
			</g>
		</g>
		<g>
			<path style="fill:#2D3037;" d="M21.202,60.074c0.111,0.465-0.086,0.91-0.44,0.994l-4.012,0.958
				c-0.354,0.085-0.732-0.222-0.844-0.688l-0.179-0.749c-0.11-0.466,0.088-0.91,0.441-0.995l4.013-0.957
				c0.354-0.086,0.732,0.222,0.842,0.687L21.202,60.074z"/>
		</g>
	</g>
</g>
</svg>
