<?xml version="1.0" encoding="iso-8859-1"?>
<!-- Generator: Adobe Illustrator 16.0.0, SVG Export Plug-In . SVG Version: 6.00 Build 0)  -->
<!DOCTYPE svg PUBLIC "-//W3C//DTD SVG 1.1//EN" "http://www.w3.org/Graphics/SVG/1.1/DTD/svg11.dtd">
<svg version="1.1" id="Layer_1" xmlns="http://www.w3.org/2000/svg" xmlns:xlink="http://www.w3.org/1999/xlink" x="0px" y="0px"
	 width="64px" height="64px" viewBox="0 0 64 64" style="enable-background:new 0 0 64 64;" xml:space="preserve">
<g>
	<path style="fill:#EDBE70;" d="M32.018,1.914c2.298-2.735,19.478,0.328,17.617,21.229c-0.725,8.144-9.848,11.817-9.848,11.817
		h-7.77V1.914z"/>
	<path style="fill:#EDBE70;" d="M45.672,6.858c1.478-4.397,15.483-5.575,15.483,11.154c0,6.333-3.283,7.646-3.283,13.555
		c0,5.909,4.924,6.565,6.128,5.034c0,0-12.036,12.036-18.847-5.184L45.672,6.858z"/>
	<path style="fill:#EDBE70;" d="M18.328,6.858C16.851,2.461,2.845,1.283,2.845,18.013c0,6.333,3.283,7.646,3.283,13.555
		c0,5.909-4.924,6.565-6.128,5.034c0,0,12.036,12.036,18.847-5.184L18.328,6.858z"/>
	<path style="fill:#FFD7AF;" d="M32.018,51.409l7.367-5.848c0,0-1.061-1.426-1.515-5.849h-5.853l0,0h-5.852
		c-0.455,4.423-1.516,5.849-1.516,5.849L32.018,51.409L32.018,51.409L32.018,51.409L32.018,51.409L32.018,51.409z"/>
	<path style="fill:#F5CDA5;" d="M37.87,39.713h-5.853l0,0h-5.852c-0.048,0.455-0.102,0.872-0.159,1.266
		c1.759,1.403,3.801,2.154,6.011,2.154c2.211,0,4.252-0.751,6.012-2.154C37.971,40.585,37.916,40.168,37.87,39.713z"/>
	<path style="fill:#EDBE70;" d="M32.061,1.914c-2.298-2.735-19.477,0.328-17.617,21.229c0.726,8.144,9.849,11.817,9.849,11.817
		h7.769V1.914z"/>
	<path style="fill:#FED9AE;" d="M32.018,41.731c6.894,0,12.182-7.222,12.182-19.186c0-14.918-4.376-18.384-12.182-18.384
		S19.835,7.628,19.835,22.546C19.835,34.51,25.124,41.731,32.018,41.731z"/>
	<path style="fill:#FFE1B9;" d="M32.169,4.165v37.557c6.818-0.107,12.03-7.302,12.03-19.176C44.199,7.726,39.878,4.211,32.169,4.165
		z"/>
	<path style="fill:#FFD7AF;" d="M20.776,30.205c0,0-1.882,2.006-2.797-2.771c-0.977-5.107-0.942-7.879,0.809-8.462
		c1.121-0.374,1.443,0.581,1.443,0.581L20.776,30.205z"/>
	<path style="fill:#FFD7AF;" d="M43.434,30.205c0,0,1.883,2.006,2.797-2.771c0.977-5.107,0.942-7.879-0.809-8.462
		c-1.12-0.374-1.442,0.581-1.442,0.581L43.434,30.205z"/>
	<path style="fill:#EDBE70;" d="M31.974,11.114c-3.414,0-6.842-2.665-8.52-1.8c-1.679,0.866-3.502,2.311-3.063,14.694
		c0,0-7.807-10.14,1.969-17.615c2.691-2.059,8.274-3.478,9.701-3.423l0,0L31.974,11.114z"/>
	<path style="fill:#EDBE70;" d="M32.105,11.114c3.413,0,6.841-2.665,8.52-1.8c1.678,0.866,3.501,2.311,3.063,14.694
		c0,0,7.806-10.14-1.97-17.615c-2.691-2.059-8.274-3.478-9.701-3.423l0,0L32.105,11.114z"/>
	<path style="fill:#DF695C;" d="M53.522,52.131c-0.338-1.071-1.077-1.972-2.061-2.516l-13.193-7.27c0,0-0.284,4.971-6.1,4.971
		c-5.814,0-6.401-4.971-6.401-4.971l-12.917,7.268c-0.969,0.545-1.693,1.438-2.028,2.497L7.404,62.936h23.977h0.701h24.853
		L53.522,52.131z"/>
</g>
</svg>
