<?xml version="1.0" encoding="iso-8859-1"?>
<!-- Generator: Adobe Illustrator 16.0.0, SVG Export Plug-In . SVG Version: 6.00 Build 0)  -->
<!DOCTYPE svg PUBLIC "-//W3C//DTD SVG 1.1//EN" "http://www.w3.org/Graphics/SVG/1.1/DTD/svg11.dtd">
<svg version="1.1" id="Layer_1" xmlns="http://www.w3.org/2000/svg" xmlns:xlink="http://www.w3.org/1999/xlink" x="0px" y="0px"
	 width="64px" height="64px" viewBox="0 0 64 64" style="enable-background:new 0 0 64 64;" xml:space="preserve">
<g id="_x39__1_">
	<g>
		<polygon style="fill:#DEB09D;" points="24.415,33.711 24.415,34.477 24.415,40.807 32.771,48.477 35.435,45.463 39.753,40.578 
			39.753,32.794 		"/>
		<path style="fill:#F9CFB3;" d="M45.515,20.433c-0.027-0.535-0.314-1.437-1.013-0.92c-0.315,0.234-0.161,0.81-0.455,1.003
			c-0.71,0.468-0.778-0.586-0.826-1.051c-0.18-1.771,0.617-3.47,0.405-5.209c-0.295-2.423-2.559-4.066-4.689-4.888
			c-2.113-0.815-4.911-0.805-7.081-0.049c-0.116-0.04-0.24-0.07-0.36-0.105v29.905c0.12-0.002,0.241-0.004,0.36-0.01
			c0.959,0.047,2,0.041,2.747-0.344c1.239-0.637,2.072-1.621,2.974-2.609c0.962-1.055,2.423-1.594,3.265-2.754
			c0.394-0.543,0.685-1.166,0.877-1.848c0.283-1.003,0.157-2.58,0.915-3.383c0.685-0.726,1.369-1.012,1.859-2.015
			C45.338,24.427,45.612,22.343,45.515,20.433z"/>
		<path style="fill:#E2BBA1;" d="M24.774,9.369c-2.131,0.821-4.395,2.465-4.689,4.888c-0.212,1.739,0.584,3.438,0.404,5.209
			c-0.047,0.465-0.115,1.519-0.825,1.051c-0.294-0.193-0.14-0.769-0.455-1.003c-0.698-0.517-0.985,0.385-1.013,0.92
			c-0.098,1.91,0.176,3.994,1.022,5.724c0.49,1.003,1.175,1.289,1.858,2.015c0.759,0.803,0.633,2.38,0.916,3.383
			c0.191,0.683,0.483,1.305,0.877,1.848c0.841,1.16,2.302,1.699,3.264,2.754c0.902,0.988,1.735,1.973,2.975,2.609
			c0.654,0.336,1.534,0.379,2.387,0.354V9.214C29.381,8.574,26.774,8.597,24.774,9.369z"/>
		<path style="fill:#824327;" d="M19.118,18.037c0.289,1.002,0.333,1.747,0.296,2.754c-0.005,0.134-0.017,0.338-0.012,0.559h1.274
			c0.013-0.268,0-0.521-0.008-0.676c-0.038-0.731-0.012-1.313,0.027-2.043c0.051-0.979-0.07-1.984,0.027-2.958
			c0.256-2.558,2.443-4.36,4.873-4.551c1.783-0.14,3.572,0.228,5.36,0.23c2.209,0.005,3.206-1.06,4.947-2.144
			c0.468-0.291,0.19-0.328,0.677-0.204c0.316,0.08,0.722,0.512,0.995,0.68c1.654,1.014,4.629,2.018,5.105,4.156
			c0.376,1.681,0.299,3.399,0.254,5.106c-0.007,0.241-0.213,1.543-0.161,2.402h0.995c0.318-1.032,0.744-2.435,0.849-2.977
			c0.42-2.171,0.32-3.125,0.422-4.049c0.36-3.273,0.54-6.41-1.479-9.155C41.4,2.228,38.2,0.509,36.49,0.728
			c-0.099,0.012-1.255,0.116-1.108,0.248c-0.609-0.549-1.678-0.588-2.431-0.768c-4.014-0.957-9.09,1.539-12.006,4.204
			c-3.079,2.814-2.624,6.436-2.274,9.912C18.793,15.537,18.782,16.879,19.118,18.037z"/>
	</g>
	<g>
		<path style="fill:#BAD1DD;" d="M35.922,64l3.831-10.248l-7.04-7.855h-0.947c0,0-7.403,7.777-7.351,8.342L28.479,64H35.922z"/>
		<path style="fill:#3D5872;" d="M28.22,62.484c-0.014,0.057-0.01,0.117,0.012,0.172L28.755,64h6.638l0.522-1.344
			c0.021-0.055,0.025-0.115,0.013-0.172l-2.504-11.363c-0.08-0.361-0.028-0.738,0.146-1.064l0.95-1.787
			c0.043-0.107,0.018-0.23-0.064-0.313c-0.366-0.363-0.732-0.729-1.098-1.09c-0.249-0.248-0.549-0.48-0.693-0.805
			c-0.104-0.23-0.387-0.75-0.717-0.531c-0.289,0.195-0.386,0.498-0.572,0.754c-0.187,0.254-0.479,0.475-0.703,0.699
			c-0.326,0.322-0.653,0.648-0.98,0.973c-0.082,0.082-0.107,0.205-0.064,0.313l0.95,1.787c0.174,0.326,0.226,0.703,0.146,1.064
			L28.22,62.484z"/>
		<g>
			<path style="fill:#78919E;" d="M30.001,64l-4.105-13.629l-2.411-8.012c0,0-0.089,0.027-0.258,0.078
				c-0.604,0.18-2.215,0.666-4.257,1.279c-5.483,1.662-14.034,4.258-14.264,4.412c-0.195,0.133-2.255,4.293-3.952,7.77
				c-0.352,0.719-0.533,1.508-0.533,2.309V64H30.001z"/>
			<path style="fill:#6A828C;" d="M63.779,64v-5.592c0-1.137-0.26-2.258-0.76-3.279c-1.611-3.291-3.396-6.877-3.576-7
				c-0.234-0.154-8.785-2.75-14.269-4.412c-2.032-0.613-3.648-1.096-4.252-1.279c-0.174-0.051-0.263-0.078-0.263-0.078
				l-3.366,10.846L33.944,64H63.779z"/>
		</g>
		<path style="fill:#E4F4FF;" d="M39.869,38.406l-7.592,6.852c-0.116,0.104-0.292,0.104-0.408,0l-7.593-6.852l-1.697,4.973
			l3.281,10.859l5.964-8.389c0.122-0.172,0.376-0.172,0.498,0l5.964,8.389l3.28-10.859L39.869,38.406z"/>
		<path style="fill:#64787D;" d="M39.053,64l6.839-12.949l-3.985-1.682l4.58-2.252c-0.226-0.697-0.717-2.117-1.312-3.4
			c-2.032-0.613-3.648-1.096-4.252-1.279l-3.629,10.768l-1.166,3.465L33.635,64H39.053z"/>
		<path style="fill:#64787D;" d="M18.258,51.051L24.993,64h5.255l-2.23-7.33l-2.122-6.299l-2.669-7.934
			c-0.604,0.18-2.215,0.666-4.257,1.279c-0.59,1.283-1.086,2.703-1.312,3.4l4.58,2.252L18.258,51.051z"/>
	</g>
</g>
</svg>
