<?xml version="1.0" encoding="iso-8859-1"?>
<!-- Generator: Adobe Illustrator 16.0.0, SVG Export Plug-In . SVG Version: 6.00 Build 0)  -->
<!DOCTYPE svg PUBLIC "-//W3C//DTD SVG 1.1//EN" "http://www.w3.org/Graphics/SVG/1.1/DTD/svg11.dtd">
<svg version="1.1" id="Layer_1" xmlns="http://www.w3.org/2000/svg" xmlns:xlink="http://www.w3.org/1999/xlink" x="0px" y="0px"
	 width="64px" height="64px" viewBox="0 0 64 64" style="enable-background:new 0 0 64 64;" xml:space="preserve">
<g>
	<g>
		<g>
			<g>
				<path style="fill:#E3C7AA;" d="M32.991,59.156h-1.981L19.595,41.22l1.01-0.391c0.244-0.095,5.977-2.383,5.977-8.736v-0.889
					h10.836v0.889c0,6.321,5.916,8.713,5.976,8.736l1.013,0.391L32.991,59.156z"/>
			</g>
		</g>
		<g>
			<path style="fill:#F0DE33;" d="M31.87,0.01V0c-0.077,0-0.158,0.004-0.237,0.004C31.556,0.004,31.475,0,31.397,0v0.01
				c-8.069,0.188-18.805,5.213-18.022,18.503c0.661,11.221,9.048,15.988,18.127,16.079v0.004c0.044,0,0.087-0.001,0.131-0.001
				c0.044,0,0.088,0.001,0.132,0.001v-0.004c9.08-0.091,17.467-4.858,18.127-16.079C50.676,5.223,39.94,0.197,31.87,0.01z"/>
		</g>
		<g>
			<path style="fill:#FFE5CB;" d="M44.82,20.552c0.006-0.164,0.011-0.33,0.011-0.493c0-7.785-5.746-12.081-12.836-12.081
				c-7.088,0-12.835,4.296-12.835,12.081c0,0.165,0.006,0.33,0.011,0.496c-0.729,0.323-1.267,1.325-1.267,2.523
				c0,1.459,0.79,2.644,1.763,2.644c0.141,0,0.276-0.032,0.407-0.079c1.891,5.891,6.514,11.027,11.92,11.027
				c5.409,0,10.032-5.138,11.923-11.03c0.133,0.049,0.271,0.082,0.414,0.082c0.973,0,1.763-1.185,1.763-2.644
				C46.095,21.875,45.554,20.871,44.82,20.552z"/>
			<path style="fill:#E3C7AA;" d="M31.995,37.055c-5.829,0-10.351-5.615-12.175-10.957c-1.273,0.146-2.3-1.251-2.3-3.02
				c0-1.203,0.497-2.268,1.26-2.748c-0.003-0.099-0.004-0.185-0.004-0.271c0-7.456,5.313-12.466,13.22-12.466
				c7.908,0,13.221,5.01,13.221,12.466c0,0.088-0.001,0.178-0.003,0.267c0.768,0.479,1.267,1.545,1.267,2.753
				c0,1.697-0.943,3.028-2.147,3.028c-0.053,0-0.106-0.003-0.16-0.01C42.347,31.439,37.824,37.055,31.995,37.055z M20.319,25.146
				l0.123,0.38c1.663,5.182,5.988,10.76,11.553,10.76c5.566,0,9.893-5.579,11.557-10.763l0.123-0.383l0.376,0.139
				c0.108,0.039,0.197,0.059,0.281,0.059c0.747,0,1.378-1.034,1.378-2.259c0-1.012-0.429-1.906-1.043-2.174l-0.24-0.104l0.009-0.262
				c0.006-0.159,0.011-0.32,0.011-0.479c0-8.08-6.253-11.696-12.451-11.696c-6.197,0-12.45,3.616-12.45,11.696
				c0,0.142,0.004,0.283,0.009,0.427l0.008,0.259l-0.235,0.163c-0.61,0.271-1.038,1.163-1.038,2.171
				c0,1.225,0.631,2.259,1.378,2.259c0.081,0,0.172-0.019,0.277-0.057L20.319,25.146z"/>
		</g>
		<g>
			<g>
				<path style="fill:#339ECC;" d="M31.146,3.827c0.166,0,0.322,0.014,0.484,0.019c0.162-0.005,0.318-0.019,0.484-0.019H31.146z"/>
			</g>
			<g>
				<path style="fill:#F0DE33;" d="M31.631,0.916C18.801,1.3,18.327,21.031,18.327,21.031s17.345-3.343,18.81-11.644
					c4.708,3.047,6.338,7.38,6.102,13.37C43.091,26.487,55.688,6.891,31.631,0.916z"/>
			</g>
		</g>
		<g>
			<g>
				<path style="fill:#339ECC;" d="M54.345,45.779c-1.983-1.984-7.097-5.313-14.386-7.178c0,0-0.031,0.052-0.093,0.138
					c0.508,0.73,0.807,1.616,0.807,2.573c0,2.494-2.021,4.516-4.516,4.516c-1.762,0-3.283-1.011-4.027-2.48
					c-0.745,1.47-2.267,2.48-4.028,2.48c-2.495,0-4.516-2.021-4.516-4.516c0-0.887,0.259-1.713,0.701-2.41
					c-0.162-0.188-0.246-0.301-0.246-0.301c-7.29,1.865-12.402,5.193-14.386,7.178C6.07,49.364,7.343,58.592,7.343,64h49.313
					C56.656,58.592,57.929,49.364,54.345,45.779z"/>
			</g>
			<path style="fill:#339ECC;" d="M39.866,38.373c-0.442,0.629-2.495,3.266-6.275,3.877l-1.394-0.007c0-0.002,0.001-0.004,0-0.006
				l-1.806-0.01c-3.195-0.61-5.396-2.87-6.104-3.691c-0.441,0.698-0.701,1.523-0.701,2.41c0,2.494,2.021,4.515,4.516,4.515
				c1.761,0,6.293,0,8.055,0c2.494,0,4.516-2.021,4.516-4.515C40.673,39.989,40.374,39.104,39.866,38.373z"/>
			<path style="fill:#FFFFFF;" d="M40.231,39.087c-0.441,0.629-2.494,3.265-6.274,3.877l-1.722-0.008c0-0.001,0.001-0.004,0-0.005
				l-2.21-0.01c-3.194-0.611-5.396-2.871-6.104-3.691c-0.441,0.697-1.066,1.522-1.066,2.41c0,2.494,2.387,4.515,4.882,4.515
				c1.748,0,3.637-0.997,4.394-2.45c0.755,1.453,2.646,2.45,4.394,2.45c2.493,0,4.883-2.021,4.883-4.515
				C41.406,40.703,40.74,39.817,40.231,39.087z"/>
		</g>
		<g>
			<g>
				<circle style="fill:#FFFFFF;" cx="32" cy="46.752" r="0.881"/>
			</g>
			<g>
				<circle style="fill:#FFFFFF;" cx="32" cy="49.883" r="0.881"/>
			</g>
			<g>
				<path style="fill:#FFFFFF;" d="M32.881,53.014c0,0.486-0.395,0.879-0.881,0.879s-0.881-0.393-0.881-0.879
					c0-0.488,0.395-0.882,0.881-0.882S32.881,52.525,32.881,53.014z"/>
			</g>
			<g>
				<circle style="fill:#FFFFFF;" cx="32" cy="56.143" r="0.881"/>
			</g>
			<g>
				<circle style="fill:#FFFFFF;" cx="32" cy="59.273" r="0.881"/>
			</g>
			<g>
				<circle style="fill:#FFFFFF;" cx="32" cy="62.404" r="0.881"/>
			</g>
		</g>
	</g>
	<g>
		<g>
			<g>
				<path style="fill:#E3C7AA;" d="M32.991,59.156h-1.981L19.595,41.22l1.01-0.391c0.244-0.095,5.977-2.383,5.977-8.736v-0.889
					h10.836v0.889c0,6.321,5.916,8.713,5.976,8.736l1.013,0.391L32.991,59.156z"/>
			</g>
		</g>
		<g>
			<path style="fill:#F0DE33;" d="M31.87,0.01V0c-0.077,0-0.158,0.004-0.237,0.004C31.556,0.004,31.475,0,31.397,0v0.01
				c-8.069,0.188-18.805,5.213-18.022,18.503c0.661,11.221,9.048,15.988,18.127,16.079v0.004c0.044,0,0.087-0.001,0.131-0.001
				c0.044,0,0.088,0.001,0.132,0.001v-0.004c9.08-0.091,17.467-4.858,18.127-16.079C50.676,5.223,39.94,0.197,31.87,0.01z"/>
		</g>
		<g>
			<path style="fill:#FFE5CB;" d="M44.82,20.552c0.006-0.164,0.011-0.33,0.011-0.493c0-7.785-5.746-12.081-12.836-12.081
				c-7.088,0-12.835,4.296-12.835,12.081c0,0.165,0.006,0.33,0.011,0.496c-0.729,0.323-1.267,1.325-1.267,2.523
				c0,1.459,0.79,2.644,1.763,2.644c0.141,0,0.276-0.032,0.407-0.079c1.891,5.891,6.514,11.027,11.92,11.027
				c5.409,0,10.032-5.138,11.923-11.03c0.133,0.049,0.271,0.082,0.414,0.082c0.973,0,1.763-1.185,1.763-2.644
				C46.095,21.875,45.554,20.871,44.82,20.552z"/>
			<path style="fill:#E3C7AA;" d="M31.995,37.055c-5.829,0-10.351-5.615-12.175-10.957c-1.273,0.146-2.3-1.251-2.3-3.02
				c0-1.203,0.497-2.268,1.26-2.748c-0.003-0.099-0.004-0.185-0.004-0.271c0-7.456,5.313-12.466,13.22-12.466
				c7.908,0,13.221,5.01,13.221,12.466c0,0.088-0.001,0.178-0.003,0.267c0.768,0.479,1.267,1.545,1.267,2.753
				c0,1.697-0.943,3.028-2.147,3.028c-0.053,0-0.106-0.003-0.16-0.01C42.347,31.439,37.824,37.055,31.995,37.055z M20.319,25.146
				l0.123,0.38c1.663,5.182,5.988,10.76,11.553,10.76c5.566,0,9.893-5.579,11.557-10.763l0.123-0.383l0.376,0.139
				c0.108,0.039,0.197,0.059,0.281,0.059c0.747,0,1.378-1.034,1.378-2.259c0-1.012-0.429-1.906-1.043-2.174l-0.24-0.104l0.009-0.262
				c0.006-0.159,0.011-0.32,0.011-0.479c0-8.08-6.253-11.696-12.451-11.696c-6.197,0-12.45,3.616-12.45,11.696
				c0,0.142,0.004,0.283,0.009,0.427l0.008,0.259l-0.235,0.163c-0.61,0.271-1.038,1.163-1.038,2.171
				c0,1.225,0.631,2.259,1.378,2.259c0.081,0,0.172-0.019,0.277-0.057L20.319,25.146z"/>
		</g>
		<g>
			<g>
				<path style="fill:#339ECC;" d="M31.146,3.827c0.166,0,0.322,0.014,0.484,0.019c0.162-0.005,0.318-0.019,0.484-0.019H31.146z"/>
			</g>
			<g>
				<path style="fill:#F0DE33;" d="M31.631,0.916C18.801,1.3,18.327,21.031,18.327,21.031s17.345-3.343,18.81-11.644
					c4.708,3.047,6.338,7.38,6.102,13.37C43.091,26.487,55.688,6.891,31.631,0.916z"/>
			</g>
		</g>
		<g>
			<g>
				<path style="fill:#339ECC;" d="M54.345,45.779c-1.983-1.984-7.097-5.313-14.386-7.178c0,0-0.031,0.052-0.093,0.138
					c0.508,0.73,0.807,1.616,0.807,2.573c0,2.494-2.021,4.516-4.516,4.516c-1.762,0-3.283-1.011-4.027-2.48
					c-0.745,1.47-2.267,2.48-4.028,2.48c-2.495,0-4.516-2.021-4.516-4.516c0-0.887,0.259-1.713,0.701-2.41
					c-0.162-0.188-0.246-0.301-0.246-0.301c-7.29,1.865-12.402,5.193-14.386,7.178C6.07,49.364,7.343,58.592,7.343,64h49.313
					C56.656,58.592,57.929,49.364,54.345,45.779z"/>
			</g>
			<path style="fill:#339ECC;" d="M39.866,38.373c-0.442,0.629-2.495,3.266-6.275,3.877l-1.394-0.007c0-0.002,0.001-0.004,0-0.006
				l-1.806-0.01c-3.195-0.61-5.396-2.87-6.104-3.691c-0.441,0.698-0.701,1.523-0.701,2.41c0,2.494,2.021,4.515,4.516,4.515
				c1.761,0,6.293,0,8.055,0c2.494,0,4.516-2.021,4.516-4.515C40.673,39.989,40.374,39.104,39.866,38.373z"/>
			<path style="fill:#FFFFFF;" d="M40.231,39.087c-0.441,0.629-2.494,3.265-6.274,3.877l-1.722-0.008c0-0.001,0.001-0.004,0-0.005
				l-2.21-0.01c-3.194-0.611-5.396-2.871-6.104-3.691c-0.441,0.697-1.066,1.522-1.066,2.41c0,2.494,2.387,4.515,4.882,4.515
				c1.748,0,3.637-0.997,4.394-2.45c0.755,1.453,2.646,2.45,4.394,2.45c2.493,0,4.883-2.021,4.883-4.515
				C41.406,40.703,40.74,39.817,40.231,39.087z"/>
		</g>
		<g>
			<g>
				<circle style="fill:#FFFFFF;" cx="32" cy="46.752" r="0.881"/>
			</g>
			<g>
				<circle style="fill:#FFFFFF;" cx="32" cy="49.883" r="0.881"/>
			</g>
			<g>
				<path style="fill:#FFFFFF;" d="M32.881,53.014c0,0.486-0.395,0.879-0.881,0.879s-0.881-0.393-0.881-0.879
					c0-0.488,0.395-0.882,0.881-0.882S32.881,52.525,32.881,53.014z"/>
			</g>
			<g>
				<circle style="fill:#FFFFFF;" cx="32" cy="56.143" r="0.881"/>
			</g>
			<g>
				<circle style="fill:#FFFFFF;" cx="32" cy="59.273" r="0.881"/>
			</g>
			<g>
				<circle style="fill:#FFFFFF;" cx="32" cy="62.404" r="0.881"/>
			</g>
		</g>
	</g>
</g>
</svg>
