<?xml version="1.0" encoding="iso-8859-1"?>
<!-- Generator: Adobe Illustrator 16.0.0, SVG Export Plug-In . SVG Version: 6.00 Build 0)  -->
<!DOCTYPE svg PUBLIC "-//W3C//DTD SVG 1.1//EN" "http://www.w3.org/Graphics/SVG/1.1/DTD/svg11.dtd">
<svg version="1.1" id="Layer_1" xmlns="http://www.w3.org/2000/svg" xmlns:xlink="http://www.w3.org/1999/xlink" x="0px" y="0px"
	 width="64px" height="64px" viewBox="0 0 64 64" style="enable-background:new 0 0 64 64;" xml:space="preserve">
<g id="_x38__1_">
	<g>
		<g>
			<path style="fill:#2B2924;" d="M20.662,5.42c0.211-0.22,0.416-0.432,0.611-0.633C21.078,4.989,20.873,5.201,20.662,5.42z"/>
			<path style="fill:#D4A700;" d="M46.646,17.451c-0.055-1.017-0.141-2.048-0.281-3.071c-1.182-8.596-8.506-15.858-17.711-14.12
				c-2.295,0.433-5.756,1.058-6.771,3.575c-4.107-0.352-5.92,5.744-6.447,8.887c-0.107,0.641-0.201,1.281-0.271,1.927
				c-0.332,2.988-0.178,6.003-0.01,8.997c0.148,2.686,0.713,5.764,2.189,8.068c1.156,1.8,2.863,4.365,4.795,5.4
				c3.961,2.123,8.27,1.912,12.561,1.246c2.113-0.328,4.326-0.408,6.182-1.738c2.291-1.643,3.449-3.207,4.193-5.97
				C46.229,26.36,46.887,21.901,46.646,17.451z"/>
		</g>
		<g>
			<path style="fill:#E2A77D;" d="M40.145,39.381c0,0-1.904-4.156-1.188-8.993c0.551-3.707-14.854,1.367-14.854,1.367
				s0.635,3.526,0.002,6.608c-0.635,3.082,7.365,8.984,7.365,8.984l5.264-2.684l0.738,0.756L40.145,39.381z"/>
			<path style="fill:#F0B784;" d="M26.809,12.916c-0.896-0.623-4.402-2.267-4.27-3.495c-0.275,2.537-1.598,4.211-2.824,6.29
				c-0.004,0.011-0.006,0.021-0.012,0.031C19.381,16.603,18.869,17.3,18.412,18c-0.352,0.663-0.674,1.325-0.895,1.91
				c-0.092,0.413-0.121,0.86-0.051,1.367c0.105,0.755,0.619,4.396,2.256,4.493c0.387,0.023,0.6,0.48,0.666,0.864
				c0.498,2.909,2.479,4.941,4.693,6.933c0.146,0.131,0.293,0.262,0.439,0.393c1.68,1.492,3.344,2.178,4.99,2.086V15.021
				C29.195,14.389,27.938,13.698,26.809,12.916z"/>
			<path style="fill:#FFC28E;" d="M41.27,18.995c-3.361-1.088-7.285-2.305-10.758-3.974v21.026c0.018-0.002,0.033,0,0.051,0
				c1.664,0.109,3.344-0.578,5.041-2.086c0.316-0.279,0.631-0.563,0.943-0.848c0.951-0.872,1.869-1.786,2.643-2.819
				c0.805-1.076,0.967-2.299,1.111-3.548c0.064-0.538,0.582-0.708,1.033-1.007c0.959-0.636,1.191-1.265,1.469-2.702
				C43.264,20.633,43.777,19.807,41.27,18.995z"/>
		</g>
	</g>
	<g>
		<path style="fill:#E6E7E8;" d="M27.963,64h8.074l3.041-11.301c0.152-0.355,0.1-0.76-0.137-1.068
			c-1.66-2.168-4.15-4.502-6.941-5.219c-2.791,0.717-5.281,3.051-6.943,5.219c-0.234,0.309-0.287,0.713-0.135,1.068L27.963,64z"/>
		<g>
			<path style="fill:#414042;" d="M29.764,64c-2-6.516-4.01-17.174-6.004-23.688c0.092,0.297-4.166,2.951-4.658,3.145
				c-2.867,1.139-4.916,1.217-7.896,1.99c-2.461,0.639-5.926,1.443-7.486,3.559C2.941,50.057,2.352,58.527,2.082,64H29.764z"/>
			<path style="fill:#231F20;" d="M61.918,64c-0.27-5.473-0.859-13.943-1.637-14.994c-1.561-2.115-5.025-2.92-7.486-3.559
				c-2.98-0.773-5.029-0.852-7.896-1.99c-0.492-0.193-4.75-2.848-4.658-3.145C38.246,46.826,36.236,57.484,34.234,64H61.918z"/>
		</g>
		<path style="fill:#3D5872;" d="M30.703,51.67L28.898,64h6.203l-1.805-12.33c-0.076-0.346-0.027-0.709,0.139-1.021l0.914-1.717
			c0.041-0.104,0.016-0.221-0.063-0.301c-0.352-0.35-0.703-0.697-1.055-1.047c-0.238-0.238-0.525-0.461-0.664-0.771
			c-0.1-0.223-0.373-0.723-0.689-0.51c-0.277,0.186-0.371,0.477-0.551,0.721c-0.178,0.246-0.459,0.457-0.674,0.672
			c-0.314,0.313-0.629,0.625-0.941,0.936c-0.08,0.08-0.104,0.197-0.063,0.301l0.912,1.717C30.73,50.961,30.779,51.324,30.703,51.67z
			"/>
		<path style="fill:#FFFFFF;" d="M41.721,43.656L39.92,38.5l-1.445,2.625c-1.635,2.307-5.207,4.635-6.475,4.67
			c-1.268-0.035-4.682-2.25-6.475-4.67L24.078,38.5l-1.799,5.156c-0.025,0.074-0.027,0.156-0.004,0.23l3.295,10.666
			c0.092,0.299,0.494,1.893,0.678,0.109l1.844-3.203c0.215-0.373,0.465-0.727,0.748-1.053L32,46.467l3.16,3.939
			c0.283,0.326,0.533,0.68,0.748,1.053l1.844,3.203c0.184,1.783,0.586,0.189,0.678-0.109l3.295-10.666
			C41.748,43.813,41.746,43.73,41.721,43.656z"/>
		<path style="fill:#231F20;" d="M19.67,55.559c-0.082,0.146,1.066,6.031,2.686,8.441h7.564l-1.447-8.912L23.5,40.271l-2.336,1.879
			c-1.217,0.652-2.168,7.102-2.592,8.416l4.137-0.443C22.709,50.123,19.674,55.553,19.67,55.559z"/>
		<path style="fill:#414042;" d="M41.697,64c1.594-2.41,2.715-8.293,2.633-8.441c-0.004-0.006-3.039-5.436-3.039-5.436l4.137,0.443
			c-0.424-1.314-1.375-7.764-2.592-8.416L40.5,40.271l-4.973,14.816L34.08,64H41.697z"/>
	</g>
	<path style="fill:#231F20;" d="M43.344,20.12l-0.379-0.997l-2.373,0.477c-0.094-0.162-0.201-0.317-0.334-0.461
		c-0.785-0.848-2.273-1.335-4.078-1.335c-1.77,0-3.893,0.504-4.791,1.621l-0.025-0.047c-0.508,0.258-0.939,0.349-1.293,0.352
		c-0.354-0.003-0.785-0.094-1.293-0.352l-0.025,0.047c-0.9-1.117-3.021-1.621-4.791-1.621c-1.807,0-3.293,0.487-4.078,1.335
		c-0.133,0.144-0.242,0.299-0.336,0.461l-2.07-0.394l-0.209,0.995l1.975,0.342c-0.018,0.16-0.023,0.323-0.01,0.491
		c0.186,2.443,2.533,3.721,4.758,3.721c0.061,0,0.121-0.001,0.182-0.002c0.414-0.014,0.824-0.073,1.219-0.177
		c1.672-0.439,3.006-1.644,3.654-3.308c0.092-0.23,0.135-0.46,0.137-0.685c0.322,0.09,0.619,0.131,0.889,0.132
		c0.27-0.001,0.566-0.042,0.889-0.132c0,0.225,0.045,0.454,0.135,0.685c0.65,1.664,1.982,2.868,3.656,3.308
		c0.395,0.104,0.803,0.163,1.219,0.177c0.061,0.001,0.121,0.002,0.182,0.002c2.223,0,4.572-1.277,4.758-3.721
		c0.012-0.168,0.006-0.331-0.012-0.491L43.344,20.12z M28.131,20.911c-0.533,1.367-1.625,2.357-2.99,2.717
		c-0.322,0.084-0.66,0.133-1,0.144l-0.15,0.002c-1.771,0-3.639-0.966-3.779-2.814c-0.033-0.455,0.094-0.831,0.391-1.152
		c0.592-0.64,1.848-1.021,3.359-1.021c1.842,0,3.561,0.561,4.088,1.331C28.219,20.366,28.246,20.62,28.131,20.911z M36.15,23.773
		L36,23.771c-0.34-0.011-0.678-0.06-1-0.144c-1.367-0.359-2.457-1.35-2.992-2.717c-0.113-0.291-0.088-0.545,0.084-0.795
		c0.527-0.771,2.246-1.331,4.088-1.331c1.512,0,2.766,0.382,3.357,1.021c0.299,0.321,0.426,0.697,0.391,1.152
		C39.787,22.807,37.922,23.773,36.15,23.773z"/>
</g>
</svg>
