<?xml version="1.0" encoding="iso-8859-1"?>
<!-- Generator: Adobe Illustrator 16.0.0, SVG Export Plug-In . SVG Version: 6.00 Build 0)  -->
<!DOCTYPE svg PUBLIC "-//W3C//DTD SVG 1.1//EN" "http://www.w3.org/Graphics/SVG/1.1/DTD/svg11.dtd">
<svg version="1.1" id="Layer_1" xmlns="http://www.w3.org/2000/svg" xmlns:xlink="http://www.w3.org/1999/xlink" x="0px" y="0px"
	 width="64px" height="64px" viewBox="0 0 64 64" style="enable-background:new 0 0 64 64;" xml:space="preserve">
<g>
	<g>
		<ellipse style="fill:#9C603E;" cx="32" cy="35.65" rx="12.494" ry="18.063"/>
	</g>
	<g>
		<g>
			<path style="fill:#FFE9BA;" d="M44.811,44.792l-3.91-0.721c-0.02,0-0.02,0-0.039,0c-2.105-0.019-3.832-1.71-3.891-3.814v-2.866
				c4.613-2.847,7.84-9.509,7.84-17.271c0-10.363-5.732-15.638-12.813-15.638l0,0l0,0c-7.078,0-12.809,5.274-12.809,15.638
				c0,7.762,3.227,14.424,7.838,17.271v2.866c-0.057,2.104-1.785,3.796-3.891,3.814c-0.02,0-0.02,0-0.039,0l-3.908,0.721
				c-8.656,2.677-10.248,9.091-10.248,16.474V64h23.057l0,0h23.061v-2.734C55.059,53.883,53.465,47.469,44.811,44.792z"/>
		</g>
		<g>
			<path style="fill:#FFE9BA;" d="M36.99,39.648c0,0,0-0.019-0.018-0.037v0.037C36.99,39.648,36.99,39.648,36.99,39.648z"/>
		</g>
	</g>
	<g>
		<g>
			<path style="fill:#FFE9BA;" d="M43.273,29.021c0.947-5.959-1.859-14.044-1.859-14.044c-11.426,3.796-18.621,0-18.621,0
				c-2.883,13.778-1.289,14.937,0.857,19.34c-2.734-3.437-4.461-8.522-4.461-14.196c0-5.181,1.422-9.092,3.756-11.71
				c2.316-2.601,5.525-3.93,9.053-3.93c7.082,0,12.813,5.276,12.813,15.64C44.811,23.347,44.242,26.382,43.273,29.021z"/>
		</g>
		<g>
			<path style="fill:#FFE9BA;" d="M36.99,39.648c0,0,0,0-0.018,0v-0.037C36.99,39.63,36.99,39.648,36.99,39.648z"/>
		</g>
	</g>
	<g>
		<g>
			<path style="fill:#FFFFFF;" d="M55.059,61.266V64H8.941v-2.734c0-7.383,1.592-13.797,10.248-16.474l3.908-0.721
				c0.02,0,0.02,0,0.039,0c0.76,0,1.479-0.229,2.088-0.646c1.518,2.105,3.984,3.474,6.773,3.474c2.793,0,5.26-1.368,6.777-3.474
				c0.609,0.417,1.328,0.646,2.088,0.646c0.018,0,0.018,0,0.039,0l3.908,0.721C53.467,47.469,55.059,53.883,55.059,61.266z"/>
		</g>
	</g>
	<g>
		<g>
			<path style="fill:#FFE9BA;" d="M36.99,39.648c0,0,0,0-0.018,0v-0.037C36.99,39.63,36.99,39.648,36.99,39.648z"/>
		</g>
	</g>
	<g>
		<g>
			<path style="fill:#FFE9BA;" d="M41.414,32.796c-1.217,1.975-2.732,3.55-4.441,4.595v2.714c-0.988,0.323-2.012,0.493-3.057,0.493
				c-2.543,0-4.916-1.006-6.889-2.752v-0.455c1.5,0.853,3.133,1.309,4.84,1.309C35.664,38.699,39.098,36.403,41.414,32.796z"/>
		</g>
		<g>
			<path style="fill:#FFE9BA;" d="M36.99,39.648c0,0,0,0-0.018,0v-0.037C36.99,39.63,36.99,39.648,36.99,39.648z"/>
		</g>
	</g>
	<g>
		<path style="fill:#FFE9BA;" d="M26.953,37.353c-0.381-0.21-0.76-0.456-1.123-0.722c-0.018,0-0.018,0-0.035-0.018
			c-0.02-0.021-0.02-0.021-0.02-0.039c-0.078-0.077-0.152-0.171-0.229-0.266C26.002,36.688,26.457,37.049,26.953,37.353z"/>
	</g>
	<g>
		<path style="fill:#EED59C;" d="M36.973,37.391v2.221c0.018,0.019,0.018,0.037,0.018,0.037s0,0-0.018,0v0.456
			c-0.988,0.323-2.012,0.493-3.057,0.493c-2.543,0-4.916-1.006-6.889-2.752c-0.418-0.38-0.816-0.779-1.197-1.215
			c-0.018,0-0.018,0-0.035-0.018c-0.02-0.021-0.02-0.021-0.02-0.039c-0.078-0.077-0.152-0.171-0.229-0.266
			c0.455,0.38,0.91,0.74,1.406,1.044c0.018,0.018,0.035,0.038,0.074,0.038c1.5,0.853,3.133,1.309,4.84,1.309
			C35.664,38.699,36.973,37.391,36.973,37.391z"/>
	</g>
	<g>
		<path style="fill:#9C603E;" d="M51.549,40.199c-0.512,2.068-1.746,4.289-3.264,6.055c-0.174-0.096-0.361-0.191-0.551-0.285
			c-0.209-0.113-0.436-0.228-0.666-0.322c-0.227-0.115-0.475-0.209-0.721-0.304c-0.494-0.21-1.006-0.38-1.537-0.551l-3.908-0.721
			c-0.021,0-0.021,0-0.039,0c-0.381,0-0.742-0.058-1.102-0.171c-0.133-0.039-0.266-0.076-0.377-0.133
			c-0.115-0.058-0.229-0.113-0.344-0.171c-0.096-0.058-0.189-0.113-0.266-0.171c-0.514-0.305-0.93-0.741-1.234-1.271
			c0.152-2.506,2.373-4.65,5.012-10.572c0.342-0.776,0.57-1.649,0.721-2.562c0.947-5.959-1.859-14.044-1.859-14.044
			c-11.426,3.796-18.621,0-18.621,0c-2.883,13.778-1.289,14.937,0.857,19.34c0.283,0.588,0.568,1.251,0.871,1.992
			c1.463,3.682,1.176,5.901,0.664,7.136c-0.15,0.095-0.303,0.189-0.473,0.266c-0.305,0.151-0.627,0.247-0.951,0.304
			c-0.209,0.039-0.418,0.058-0.625,0.058c-0.02,0-0.02,0-0.039,0l-3.908,0.721c-1.082,0.341-2.051,0.722-2.924,1.177
			c-0.285,0.152-0.551,0.285-0.816,0.456c-0.342,0.208-0.684,0.417-0.986,0.626c-0.02,0.02-0.02,0.038-0.039,0.038
			c-2.125-2.847-2.998-7.478-2.998-7.478S9.68,22.89,15.033,11.333C20.764-1.004,34.221,0.021,34.221,0.021
			C52.838,1.843,53.295,33.271,51.549,40.199z"/>
	</g>
	<g>
		<path style="fill:#C77543;" d="M31.141,2.792c0.891-0.65-8.406,2.689-8.287,10.913l2.451,0.949
			C25.305,14.654,25.305,7.063,31.141,2.792z"/>
	</g>
	<g>
		<g>
			<path d="M33.996,50.555c0,0.523-0.318,0.947-0.711,0.947h-2.26c-0.393,0-0.707-0.424-0.707-0.947v-1.979
				c0-0.523,0.314-0.949,0.707-0.949h2.26c0.393,0,0.711,0.426,0.711,0.949V50.555z"/>
		</g>
		<g>
			<path d="M38.832,46.533c-0.135-0.284-0.391-0.456-0.676-0.514c-0.002,0-0.016-0.005-0.016-0.005v0.003
				c-0.182-0.031-0.369-0.031-0.551,0.051l-4.938,2.2c-0.455-0.111-0.934,0.115-1.107,0.567l-0.057,0.148
				c-0.158,0.41,0.002,0.852,0.342,1.095c0.199,0.265,0.512,0.405,0.836,0.371l4.959,1.901c0.488,0.189,1.037-0.056,1.225-0.547
				l0.059-0.146c0.289-1.037-0.293-2.565-0.293-2.565C39.295,47.736,39.135,46.966,38.832,46.533z"/>
		</g>
		<g>
			<path d="M25.801,52.238c0.135,0.284,0.393,0.456,0.676,0.514c0.004,0,0.016,0.004,0.016,0.004l0,0
				c0.182,0.029,0.371,0.028,0.551-0.055l4.938-2.197c0.457,0.111,0.934-0.116,1.107-0.566l0.057-0.15
				c0.158-0.411,0-0.851-0.342-1.096c-0.199-0.263-0.512-0.402-0.836-0.37l-4.961-1.902c-0.486-0.188-1.037,0.059-1.223,0.549
				l-0.059,0.146c-0.291,1.037,0.293,2.563,0.293,2.563C25.336,51.036,25.498,51.805,25.801,52.238z"/>
		</g>
	</g>
	<g>
		<path d="M21.242,43.822c0,0,3.166,17.408,10.926,19.78h-15.52l1.51-19.217C18.158,44.386,18.102,44.216,21.242,43.822z"/>
	</g>
	<g>
		<path d="M42.758,43.822c0,0-3.166,17.408-10.928,19.78h15.521l-1.51-19.217C45.842,44.386,45.898,44.216,42.758,43.822z"/>
	</g>
</g>
</svg>
