<?xml version="1.0" encoding="iso-8859-1"?>
<!-- Generator: Adobe Illustrator 16.0.0, SVG Export Plug-In . SVG Version: 6.00 Build 0)  -->
<!DOCTYPE svg PUBLIC "-//W3C//DTD SVG 1.1//EN" "http://www.w3.org/Graphics/SVG/1.1/DTD/svg11.dtd">
<svg version="1.1" id="Layer_1" xmlns="http://www.w3.org/2000/svg" xmlns:xlink="http://www.w3.org/1999/xlink" x="0px" y="0px"
	 width="64px" height="64px" viewBox="0 0 64 64" style="enable-background:new 0 0 64 64;" xml:space="preserve">
<g>
	<g>
		<g>
			<path style="fill:#FFFFFF;" d="M23.504,36.809c-1.737,1.709-3.605,2.451-3.752,2.506l-0.623,0.237L31.15,58.041h1.697
				l12.023-18.49l-0.625-0.236c-0.035-0.013-1.876-0.739-3.629-2.422c-2.434,0.648-5.307,1.028-8.396,1.028
				C28.997,37.921,26.003,37.51,23.504,36.809z"/>
			<path style="fill:#E3C7AA;" d="M37.477,29.629v-0.536H26.522v0.536c0,3.331-1.456,5.645-3.019,7.18
				c2.499,0.701,8.717,2.752,8.717,2.752s5.963-2.02,8.396-2.668C39.01,35.349,37.477,33.002,37.477,29.629z"/>
		</g>
		<g>
			<path style="fill:#3A3E42;" d="M55.798,44.595c-2.112-2.113-7.558-5.657-15.321-7.644l0.063,6.975c0,0-6.528,13.001-8.54,14.506
				c-2.012-1.505-8.148-14.506-8.148-14.506l-0.327-6.975c-7.763,1.986-13.208,5.53-15.321,7.644
				C4.385,48.413,5.741,58.241,5.741,64H58.26C58.26,58.241,59.615,48.413,55.798,44.595z"/>
		</g>
		<g>
			<path style="fill:#FFFFFF;" d="M31.92,60.891l-1.18-0.882c-2.171-1.626-6.842-11.201-8.75-15.243l-0.172-0.441l-0.25-6.891
				l0.819-0.029l0.247,6.807l0.097,0.205c3.025,6.408,6.847,13.698,8.501,14.936l0.688,0.516l0.689-0.516
				c1.646-1.23,5.665-8.51,8.878-14.91l0.124-0.248l-0.046-6.737l0.819-0.007l0.048,6.935l-0.213,0.425
				c-2.024,4.034-6.966,13.589-9.12,15.2L31.92,60.891z"/>
		</g>
		<g>
			<rect x="42.92" y="53.885" style="fill:#FFFFFF;" width="8.824" height="1.913"/>
		</g>
		<g>
			<polygon style="fill:#3A3E42;" points="38.31,39.186 33.479,40.479 33.479,40.116 30.521,40.116 30.521,40.479 25.689,39.186 
				25.689,44.396 30.521,43.104 30.521,43.466 33.479,43.466 33.479,43.104 38.31,44.396 			"/>
		</g>
		<g>
			<g>
				<circle style="fill:#3A3E42;" cx="32" cy="47.831" r="1.094"/>
			</g>
			<g>
				<circle style="fill:#3A3E42;" cx="32" cy="51.926" r="1.094"/>
			</g>
		</g>
		<g>
			<polygon style="fill:#FFFFFF;" points="50.587,54.551 43.885,54.551 45.779,48.674 			"/>
		</g>
		<g>
			<path style="fill:#3A3E42;" d="M47.275,15.427C45.787,4.469,44.449,0,31.737,0C19.884,0,18.206,4.469,16.719,15.427
				c-1.864,13.732,8.288-3.954,15.277-3.954C39.307,11.473,49.14,29.159,47.275,15.427z"/>
		</g>
		<g>
			<path style="fill:#FFE5CB;" d="M45.653,19.288c0.007-0.175,0.013-0.352,0.013-0.526c0-8.29-6.12-17.155-13.67-17.155
				c-7.549,0-13.67,8.865-13.67,17.155c0,0.177,0.007,0.354,0.013,0.529c-0.777,0.345-1.35,1.411-1.35,2.688
				c0,1.553,0.841,2.814,1.877,2.814c0.15,0,0.294-0.034,0.435-0.084c2.013,6.273,6.937,11.743,12.695,11.743
				S42.68,30.98,44.692,24.706c0.142,0.052,0.288,0.087,0.441,0.087c1.036,0,1.877-1.262,1.877-2.814
				C47.011,20.697,46.436,19.628,45.653,19.288z"/>
			<path style="fill:#E3C7AA;" d="M31.996,36.862c-6.208,0-11.024-5.98-12.967-11.669c-1.365,0.15-2.449-1.332-2.449-3.215
				c0-1.282,0.529-2.415,1.341-2.928c-0.003-0.106-0.005-0.198-0.005-0.289c0-8.291,6.021-17.564,14.08-17.564
				s14.079,9.273,14.079,17.564c0,0.095-0.001,0.189-0.004,0.285c0.817,0.509,1.35,1.644,1.35,2.932
				c0,1.887-1.092,3.373-2.458,3.215C43.021,30.882,38.204,36.862,31.996,36.862z M19.562,24.181l0.129,0.403
				c1.771,5.519,6.378,11.459,12.306,11.459c5.929,0,10.535-5.941,12.306-11.463l0.131-0.405l0.4,0.146
				c0.116,0.043,0.212,0.063,0.301,0.063c0.795,0,1.467-1.102,1.467-2.404c0-1.079-0.456-2.031-1.11-2.314l-0.257-0.111l0.011-0.28
				c0.006-0.17,0.012-0.341,0.012-0.511c0-7.743-5.792-16.745-13.26-16.745s-13.26,9.002-13.26,16.745
				c0,0.146,0.005,0.291,0.009,0.436l0.01,0.276l-0.251,0.193c-0.65,0.287-1.104,1.237-1.104,2.312c0,1.303,0.672,2.404,1.467,2.404
				c0.088,0,0.182-0.02,0.297-0.06L19.562,24.181z"/>
		</g>
		<g>
			<path style="fill:#3A3E42;" d="M18.119,19.198c5.274,0,1.579-10.946,5.868-10.946c0,0,3.119,1.17,8.207,1.17
				c5.44,0,8.765-1.346,8.765-1.346c3.305,0-0.408,13.435,5.798,10.732c0,0,0.236-19.135-14.803-18.01
				C17.748,0.799,15.799,19.198,18.119,19.198z"/>
		</g>
	</g>
	<g>
		<path style="fill:#FFFFFF;" d="M23.504,36.809c-1.737,1.709-3.605,2.451-3.752,2.506l-0.623,0.237L31.15,58.041h1.697
			l12.023-18.49l-0.625-0.236c-0.035-0.013-1.876-0.739-3.629-2.422c-2.434,0.648-5.307,1.028-8.396,1.028
			C28.997,37.921,26.003,37.51,23.504,36.809z"/>
		<path style="fill:#E3C7AA;" d="M37.477,29.629v-0.536H26.522v0.536c0,3.331-1.456,5.645-3.019,7.18
			c2.499,0.701,8.717,2.752,8.717,2.752s5.963-2.02,8.396-2.668C39.01,35.349,37.477,33.002,37.477,29.629z"/>
	</g>
	<g>
		<path style="fill:#3A3E42;" d="M55.798,44.595c-2.112-2.113-7.558-5.657-15.321-7.644l0.063,6.975c0,0-6.528,13.001-8.54,14.506
			c-2.012-1.505-8.148-14.506-8.148-14.506l-0.327-6.975c-7.763,1.986-13.208,5.53-15.321,7.644C4.385,48.413,5.741,58.241,5.741,64
			H58.26C58.26,58.241,59.615,48.413,55.798,44.595z"/>
	</g>
	<g>
		<path style="fill:#FFFFFF;" d="M31.92,60.891l-1.18-0.882c-2.171-1.626-6.842-11.201-8.75-15.243l-0.172-0.441l-0.25-6.891
			l0.819-0.029l0.247,6.807l0.097,0.205c3.025,6.408,6.847,13.698,8.501,14.936l0.688,0.516l0.689-0.516
			c1.646-1.23,5.665-8.51,8.878-14.91l0.124-0.248l-0.046-6.737l0.819-0.007l0.048,6.935l-0.213,0.425
			c-2.024,4.034-6.966,13.589-9.12,15.2L31.92,60.891z"/>
	</g>
	<g>
		<rect x="42.92" y="53.885" style="fill:#FFFFFF;" width="8.824" height="1.913"/>
	</g>
	<g>
		<polygon style="fill:#3A3E42;" points="38.31,39.186 33.479,40.479 33.479,40.116 30.521,40.116 30.521,40.479 25.689,39.186 
			25.689,44.396 30.521,43.104 30.521,43.466 33.479,43.466 33.479,43.104 38.31,44.396 		"/>
	</g>
	<g>
		<g>
			<circle style="fill:#3A3E42;" cx="32" cy="47.831" r="1.094"/>
		</g>
		<g>
			<circle style="fill:#3A3E42;" cx="32" cy="51.926" r="1.094"/>
		</g>
	</g>
	<g>
		<polygon style="fill:#FFFFFF;" points="50.587,54.551 43.885,54.551 45.779,48.674 		"/>
	</g>
	<g>
		<path style="fill:#3A3E42;" d="M47.275,15.427C45.787,4.469,44.449,0,31.737,0C19.884,0,18.206,4.469,16.719,15.427
			c-1.864,13.732,8.288-3.954,15.277-3.954C39.307,11.473,49.14,29.159,47.275,15.427z"/>
	</g>
	<g>
		<path style="fill:#FFE5CB;" d="M45.653,19.288c0.007-0.175,0.013-0.352,0.013-0.526c0-8.29-6.12-17.155-13.67-17.155
			c-7.549,0-13.67,8.865-13.67,17.155c0,0.177,0.007,0.354,0.013,0.529c-0.777,0.345-1.35,1.411-1.35,2.688
			c0,1.553,0.841,2.814,1.877,2.814c0.15,0,0.294-0.034,0.435-0.084c2.013,6.273,6.937,11.743,12.695,11.743
			S42.68,30.98,44.692,24.706c0.142,0.052,0.288,0.087,0.441,0.087c1.036,0,1.877-1.262,1.877-2.814
			C47.011,20.697,46.436,19.628,45.653,19.288z"/>
		<path style="fill:#E3C7AA;" d="M31.996,36.862c-6.208,0-11.024-5.98-12.967-11.669c-1.365,0.15-2.449-1.332-2.449-3.215
			c0-1.282,0.529-2.415,1.341-2.928c-0.003-0.106-0.005-0.198-0.005-0.289c0-8.291,6.021-17.564,14.08-17.564
			s14.079,9.273,14.079,17.564c0,0.095-0.001,0.189-0.004,0.285c0.817,0.509,1.35,1.644,1.35,2.932c0,1.887-1.092,3.373-2.458,3.215
			C43.021,30.882,38.204,36.862,31.996,36.862z M19.562,24.181l0.129,0.403c1.771,5.519,6.378,11.459,12.306,11.459
			c5.929,0,10.535-5.941,12.306-11.463l0.131-0.405l0.4,0.146c0.116,0.043,0.212,0.063,0.301,0.063c0.795,0,1.467-1.102,1.467-2.404
			c0-1.079-0.456-2.031-1.11-2.314l-0.257-0.111l0.011-0.28c0.006-0.17,0.012-0.341,0.012-0.511c0-7.743-5.792-16.745-13.26-16.745
			s-13.26,9.002-13.26,16.745c0,0.146,0.005,0.291,0.009,0.436l0.01,0.276l-0.251,0.193c-0.65,0.287-1.104,1.237-1.104,2.312
			c0,1.303,0.672,2.404,1.467,2.404c0.088,0,0.182-0.02,0.297-0.06L19.562,24.181z"/>
	</g>
	<g>
		<path style="fill:#3A3E42;" d="M18.119,19.198c5.274,0,1.579-10.946,5.868-10.946c0,0,3.119,1.17,8.207,1.17
			c5.44,0,8.765-1.346,8.765-1.346c3.305,0-0.408,13.435,5.798,10.732c0,0,0.236-19.135-14.803-18.01
			C17.748,0.799,15.799,19.198,18.119,19.198z"/>
	</g>
</g>
</svg>
