<?xml version="1.0" encoding="iso-8859-1"?>
<!-- Generator: Adobe Illustrator 16.0.0, SVG Export Plug-In . SVG Version: 6.00 Build 0)  -->
<!DOCTYPE svg PUBLIC "-//W3C//DTD SVG 1.1//EN" "http://www.w3.org/Graphics/SVG/1.1/DTD/svg11.dtd">
<svg version="1.1" id="Layer_1" xmlns="http://www.w3.org/2000/svg" xmlns:xlink="http://www.w3.org/1999/xlink" x="0px" y="0px"
	 width="64px" height="64px" viewBox="0 0 64 64" style="enable-background:new 0 0 64 64;" xml:space="preserve">
<g>
	<g>
		<g>
			<path style="fill:#FFE9BA;" d="M44.911,44.4l-3.941-0.727c-0.018,0-0.018,0-0.037,0c-2.123-0.02-3.865-1.723-3.922-3.844v-2.889
				c4.648-2.87,7.9-9.586,7.9-17.408c0-10.445-5.777-15.763-12.912-15.763l0,0h-0.002c-7.133,0-12.91,5.317-12.91,15.763
				c0,7.822,3.252,14.538,7.9,17.408v2.889c-0.057,2.121-1.799,3.824-3.922,3.844c-0.02,0-0.02,0-0.037,0L19.087,44.4
				c-8.725,2.697-10.33,9.163-10.33,16.604v2.756h23.24h0.002h23.242v-2.756C55.241,53.563,53.634,47.098,44.911,44.4z"/>
		</g>
		<g>
			<path style="fill:#FFE9BA;" d="M37.03,39.217c0,0,0-0.02-0.02-0.038v0.038C37.03,39.217,37.03,39.217,37.03,39.217z"/>
		</g>
	</g>
	<g>
		<g>
			<path style="fill:#FCDEC7;" d="M55.241,61.004v2.756H8.757v-2.756c0-7.44,1.605-13.906,10.33-16.604l3.941-0.727
				c0.018,0,0.018,0,0.037,0c0.764,0,1.492-0.229,2.105-0.649c1.531,2.122,4.016,3.501,6.828,3.501s5.299-1.379,6.828-3.501
				c0.613,0.42,1.342,0.649,2.105,0.649c0.02,0,0.02,0,0.037,0l3.941,0.727C53.636,47.098,55.241,53.563,55.241,61.004z"/>
		</g>
		<g>
			<path style="fill:#FCDEC7;" d="M37.03,39.217c0,0,0,0-0.02,0v-0.038C37.03,39.197,37.03,39.217,37.03,39.217z"/>
		</g>
	</g>
	<g>
		<defs>
			<path id="SVGID_1_" d="M55.241,61.004v2.756H8.757v-2.756c0-7.44,1.605-13.906,10.33-16.604l3.941-0.727c0.018,0,0.018,0,0.037,0
				c0.764,0,1.492-0.229,2.105-0.649c1.531,2.122,4.016,3.501,6.828,3.501s5.299-1.379,6.828-3.501
				c0.613,0.42,1.342,0.649,2.105,0.649c0.02,0,0.02,0,0.037,0l3.941,0.727C53.636,47.098,55.241,53.563,55.241,61.004z"/>
		</defs>
		<clipPath id="SVGID_2_">
			<use xlink:href="#SVGID_1_"  style="overflow:visible;"/>
		</clipPath>
		<g style="clip-path:url(#SVGID_2_);">
			<g>
				<rect x="8.198" y="40.445" style="fill:#FF7F58;" width="47.602" height="0.479"/>
			</g>
		</g>
		<g style="clip-path:url(#SVGID_2_);">
			<g>
				<rect x="8.198" y="43.012" style="fill:#FF7F58;" width="47.602" height="0.479"/>
			</g>
		</g>
		<g style="clip-path:url(#SVGID_2_);">
			<g>
				<rect x="8.198" y="45.574" style="fill:#FF7F58;" width="47.602" height="0.479"/>
			</g>
		</g>
		<g style="clip-path:url(#SVGID_2_);">
			<g>
				<rect x="8.198" y="48.14" style="fill:#FF7F58;" width="47.602" height="0.479"/>
			</g>
		</g>
		<g style="clip-path:url(#SVGID_2_);">
			<g>
				<rect x="8.198" y="50.702" style="fill:#FF7F58;" width="47.604" height="0.478"/>
			</g>
		</g>
		<g style="clip-path:url(#SVGID_2_);">
			<g>
				<rect x="8.198" y="53.265" style="fill:#FF7F58;" width="47.604" height="0.479"/>
			</g>
		</g>
		<g style="clip-path:url(#SVGID_2_);">
			<g>
				<rect x="8.198" y="55.831" style="fill:#FF7F58;" width="47.602" height="0.479"/>
			</g>
		</g>
		<g style="clip-path:url(#SVGID_2_);">
			<g>
				<rect x="8.198" y="58.395" style="fill:#FF7F58;" width="47.602" height="0.476"/>
			</g>
		</g>
		<g style="clip-path:url(#SVGID_2_);">
			<g>
				<rect x="8.198" y="60.958" style="fill:#FF7F58;" width="47.602" height="0.479"/>
			</g>
		</g>
		<g style="clip-path:url(#SVGID_2_);">
			<g>
				<rect x="8.198" y="63.521" style="fill:#FF7F58;" width="47.602" height="0.479"/>
			</g>
		</g>
	</g>
	<g>
		<g>
			<path style="fill:#FFE9BA;" d="M41.487,32.311c-1.225,1.989-2.754,3.578-4.477,4.631v2.736c-0.994,0.324-2.027,0.495-3.08,0.495
				c-2.563,0-4.953-1.014-6.943-2.774v-0.457c1.51,0.858,3.156,1.318,4.879,1.318C35.69,38.26,39.153,35.944,41.487,32.311z"/>
		</g>
		<g>
			<path style="fill:#FFE9BA;" d="M37.03,39.217c0,0,0,0-0.02,0v-0.038C37.03,39.197,37.03,39.217,37.03,39.217z"/>
		</g>
	</g>
	<g>
		<path style="fill:#FFE9BA;" d="M26.911,36.903c-0.383-0.212-0.766-0.461-1.129-0.729c-0.018,0-0.018,0-0.039-0.018
			c-0.018-0.02-0.018-0.02-0.018-0.039c-0.076-0.077-0.154-0.174-0.23-0.268C25.954,36.233,26.413,36.595,26.911,36.903z"/>
	</g>
	<g>
		<path style="fill:#EED59C;" d="M37.011,36.941v2.237c0.02,0.019,0.02,0.038,0.02,0.038s0,0-0.02,0v0.461
			c-0.994,0.324-2.027,0.495-3.08,0.495c-2.563,0-4.953-1.014-6.943-2.774c-0.422-0.383-0.822-0.783-1.205-1.224
			c-0.018,0-0.018,0-0.039-0.018c-0.018-0.02-0.018-0.02-0.018-0.039c-0.076-0.077-0.154-0.174-0.23-0.268
			c0.459,0.383,0.918,0.744,1.416,1.053c0.02,0.019,0.037,0.038,0.076,0.038c1.51,0.858,3.156,1.318,4.879,1.318
			C35.69,38.26,37.011,36.941,37.011,36.941z"/>
	</g>
	<g>
		<path style="fill:#9C603E;" d="M38.608,7.566c0,0-9.654,1.904-14.588,6.934c-4.934,5.033-1.813,9.009-3.219,14.916
			c0,0-4.313-5.47-3.357-14.197C18.401,6.491,22.88,0.274,31.999,1.11c0,0,3.021-2.033,7.803-0.597
			c4.783,1.434,12.807,19.873,2.834,29.722C42.636,30.235,48.052,14.86,38.608,7.566z"/>
	</g>
	<g>
		<ellipse style="fill:#FFE9BA;" cx="20.267" cy="25.094" rx="1.863" ry="3.354"/>
	</g>
	<g>
		<ellipse style="fill:#FFE9BA;" cx="43.732" cy="25.094" rx="1.864" ry="3.354"/>
	</g>
	<g>
		<path style="fill:#9C603E;" d="M22.415,15.826c0.105-0.42-0.488,0.549-3.238,5.759c0,0,0.088,0.339,0.414,0.391
			c0.539,0.086,0.674,0.578,2.277,3.118C21.868,25.094,21.12,20.954,22.415,15.826z"/>
	</g>
	<g>
		<path style="fill:#9C603E;" d="M24.021,14.5c0,0-0.697,1.775-1.117,4.943c0,0-1.572-1.812-1.414-3.205
			C21.644,14.845,24.021,14.5,24.021,14.5z"/>
	</g>
	<g>
		<path style="fill:#9C603E;" d="M38.608,7.566c-0.475,0.103-7.256,4.707-9.965,5.343l1.355-3.747L38.608,7.566z"/>
	</g>
	<g>
		<g>
			<g>
				<path style="fill:#2D3037;" d="M29.214,26.833h-4.607c-1.16,0-2.105-0.944-2.105-2.105V21.65c0-1.161,0.945-2.105,2.105-2.105
					h4.607c1.16,0,2.105,0.944,2.105,2.105v3.077C31.319,25.889,30.374,26.833,29.214,26.833z M24.606,20.502
					c-0.633,0-1.148,0.516-1.148,1.148v3.077c0,0.633,0.516,1.148,1.148,1.148h4.607c0.635,0,1.148-0.516,1.148-1.148V21.65
					c0-0.633-0.514-1.148-1.148-1.148H24.606z"/>
			</g>
		</g>
		<g>
			<g>
				<path style="fill:#2D3037;" d="M40.911,26.833h-4.609c-1.16,0-2.104-0.944-2.104-2.105V21.65c0-1.161,0.943-2.105,2.104-2.105
					h4.609c1.16,0,2.104,0.944,2.104,2.105v3.077C43.015,25.889,42.071,26.833,40.911,26.833z M36.302,20.502
					c-0.633,0-1.146,0.516-1.146,1.148v3.077c0,0.633,0.514,1.148,1.146,1.148h4.609c0.633,0,1.148-0.516,1.148-1.148V21.65
					c0-0.633-0.516-1.148-1.148-1.148H36.302z"/>
			</g>
		</g>
		<g>
			<g>
				<path style="fill:#2D3037;" d="M34.319,25.046c-0.51-0.575-1.051-0.856-1.566-0.848c-0.869,0.019-1.533,0.823-1.541,0.831
					l-0.744-0.602c0.039-0.045,0.939-1.152,2.256-1.185c0.855,0.001,1.602,0.371,2.311,1.166L34.319,25.046z"/>
			</g>
		</g>
		<g>
			<g>
				<path style="fill:#2D3037;" d="M42.538,24.196c-0.098,0-0.197-0.03-0.283-0.092c-0.213-0.155-0.26-0.455-0.104-0.669
					l1.629-2.225c0.158-0.215,0.457-0.255,0.672-0.104c0.211,0.157,0.258,0.455,0.102,0.668l-1.631,2.227
					C42.829,24.13,42.685,24.196,42.538,24.196z"/>
			</g>
		</g>
		<g>
			<g>
				<path style="fill:#2D3037;" d="M22.749,24.196c-0.146,0-0.293-0.066-0.387-0.195l-1.629-2.227
					c-0.156-0.213-0.111-0.511,0.104-0.668c0.213-0.155,0.512-0.111,0.668,0.104l1.629,2.225c0.158,0.214,0.111,0.514-0.102,0.669
					C22.946,24.166,22.847,24.196,22.749,24.196z"/>
			</g>
		</g>
	</g>
	<g>
		<path d="M35.034,50.369c0,0.529-0.428,0.956-0.957,0.956h-3.84c-0.527,0-0.957-0.427-0.957-0.956v-2.237
			c0-0.529,0.43-0.958,0.957-0.958h3.84c0.529,0,0.957,0.429,0.957,0.958V50.369z"/>
	</g>
	<g>
		<polygon style="fill:#FFFFFF;" points="26.202,42.066 31.999,46.525 29.101,52.283 21.935,43.024 		"/>
	</g>
	<g>
		<polygon style="fill:#FFFFFF;" points="37.796,42.066 31.997,46.525 34.897,52.283 42.063,43.024 		"/>
	</g>
	<g>
		<polygon points="31.263,51.325 28.644,63.76 35.034,63.76 32.749,51.325 		"/>
	</g>
	<g>
		<path style="fill:#FCDEC7;" d="M37.03,39.217c0,0,0,0-0.02,0v-0.038C37.03,39.197,37.03,39.217,37.03,39.217z"/>
	</g>
	<g>
		<g>
			<g>
				<g>
					<g>
						<polygon style="fill:#414953;" points="52.739,63.838 49.261,50.287 24.864,56.548 26.735,63.838 						"/>
					</g>
				</g>
			</g>
			<g>
				<g>
					<g>
						<polygon style="fill:#FFFFFF;" points="52.739,63.838 49.325,50.536 25.276,56.709 27.106,63.838 						"/>
					</g>
				</g>
			</g>
			<g>
				<g>
					<g>
						<polygon style="fill:#2D3037;" points="49.556,63.838 46.874,53.39 46.472,53.495 49.126,63.838 						"/>
					</g>
				</g>
				<g>
					<g>
						<polygon style="fill:#2D3037;" points="47.808,63.838 45.231,53.811 44.827,53.915 47.376,63.838 						"/>
					</g>
				</g>
				<g>
					<g>
						<polygon style="fill:#2D3037;" points="46.058,63.838 43.593,54.234 43.188,54.337 45.626,63.838 						"/>
					</g>
				</g>
				<g>
					<g>
						<polygon style="fill:#2D3037;" points="44.308,63.838 41.95,54.655 41.542,54.76 43.872,63.838 						"/>
					</g>
				</g>
				<g>
					<g>
						<polygon style="fill:#2D3037;" points="42.55,63.838 40.302,55.079 39.899,55.182 42.122,63.838 						"/>
					</g>
				</g>
				<g>
					<g>
						<polygon style="fill:#2D3037;" points="40.802,63.838 38.661,55.499 38.255,55.604 40.368,63.838 						"/>
					</g>
				</g>
				<g>
					<g>
						<polygon style="fill:#2D3037;" points="39.05,63.838 37.017,55.921 36.614,56.024 38.62,63.838 						"/>
					</g>
				</g>
				<g>
					<g>
						<polygon style="fill:#2D3037;" points="37.3,63.838 35.376,56.344 34.97,56.449 36.866,63.838 						"/>
					</g>
				</g>
				<g>
					<g>
						<polygon style="fill:#2D3037;" points="35.546,63.838 33.731,56.768 33.325,56.871 35.114,63.838 						"/>
					</g>
				</g>
				<g>
					<g>
						<polygon style="fill:#2D3037;" points="33.798,63.838 32.091,57.188 31.685,57.293 33.362,63.838 						"/>
					</g>
				</g>
			</g>
			<g>
				<g>
					<g>
						<path style="fill:#414953;" d="M28.411,63.838h2.918c0.279-0.409,0.393-0.927,0.262-1.441c-0.244-0.95-1.211-1.521-2.16-1.278
							c-0.949,0.246-1.523,1.212-1.279,2.162C28.204,63.486,28.298,63.672,28.411,63.838z"/>
					</g>
				</g>
			</g>
			<g>
				<g>
					<g>
						
							<rect x="27.919" y="60.139" transform="matrix(0.2487 0.9686 -0.9686 0.2487 80.7245 16.6291)" style="fill:#2D3037;" width="3.448" height="0.417"/>
					</g>
				</g>
			</g>
			<g>
				<g>
					<g>
						
							<rect x="27.13" y="60.339" transform="matrix(0.2483 0.9687 -0.9687 0.2483 80.3396 17.5638)" style="fill:#2D3037;" width="3.445" height="0.42"/>
					</g>
				</g>
			</g>
		</g>
	</g>
</g>
</svg>
