<?xml version="1.0" encoding="iso-8859-1"?>
<!-- Generator: Adobe Illustrator 16.0.0, SVG Export Plug-In . SVG Version: 6.00 Build 0)  -->
<!DOCTYPE svg PUBLIC "-//W3C//DTD SVG 1.1//EN" "http://www.w3.org/Graphics/SVG/1.1/DTD/svg11.dtd">
<svg version="1.1" id="Layer_1" xmlns="http://www.w3.org/2000/svg" xmlns:xlink="http://www.w3.org/1999/xlink" x="0px" y="0px"
	 width="64px" height="64px" viewBox="0 0 64 64" style="enable-background:new 0 0 64 64;" xml:space="preserve">
<g>
	<path style="fill-rule:evenodd;clip-rule:evenodd;" d="M41.417,14.704c6.064-9.251-2.704-15.075-11.221-14.686
		c-9.35,0.426-16.777,8.084-5.566,20.859C33.27,23.487,29.255,36.46,41.417,14.704z"/>
	<path style="fill-rule:evenodd;clip-rule:evenodd;fill:#0D2F3B;" d="M24.721,47.661c0.493-1.06,0.837-1.444,2.097-1.5l0.68,2.279
		l-1.572,1.247l-1.254-0.157L24.721,47.661z"/>
	<path style="fill-rule:evenodd;clip-rule:evenodd;fill:#0D2F3B;" d="M38.296,47.661c-0.492-1.06-0.837-1.444-2.096-1.5l-0.68,2.279
		l1.572,1.247l1.254-0.157L38.296,47.661z"/>
	<path style="fill-rule:evenodd;clip-rule:evenodd;fill:#F2EFDC;" d="M13.546,63.892c0.009,0.028,0.018,0.077,0.027,0.108h34.828
		l0.118-0.942l5.533-3.855c-0.094-8.992-9.06-6.672-13.714-8.556c-3.8-1.538-4.136-4.743-3.825-11.271L25.406,39.23
		c1.106,4.243,0.96,8.717-0.604,10.723c-0.398,0.512-2.073,0.914-3.827,1.244c-2.396,0.448-5.405,0.805-6.699,1.073
		c-3.649,0.761-4.112,5.51-3.921,7.438C10.607,62.229,12.895,61.804,13.546,63.892z"/>
	<path style="fill-rule:evenodd;clip-rule:evenodd;fill:#14B0BF;" d="M13.546,63.892c0.009,0.028,0.018,0.077,0.027,0.108h34.828
		l0.118-0.942l5.533-3.855c-0.082-8.003-7.194-7.045-12.039-8.066c-3.008,5.124-14.738,8.588-21.039,0.062
		c-2.396,0.448-5.405,0.805-6.699,1.073c-3.649,0.761-4.112,5.51-3.921,7.438C10.607,62.229,12.895,61.804,13.546,63.892z"/>
	<path style="fill-rule:evenodd;clip-rule:evenodd;fill:#2F5B74;" d="M37.558,64h16.645c0.067-0.05,0.139-0.094,0.206-0.144
		c0.031-3.406-0.228-6.44-0.651-8.069c-0.377-1.454-1.805-2.989-3.122-3.641c-2.557-1.261-6.018-0.847-8.883-1.148
		c-0.375-0.101-0.733-0.213-1.073-0.353c-1.677-0.678-2.233-2.258-2.803-3.73C38.445,53.119,37.982,58.334,37.558,64z"/>
	<path style="fill-rule:evenodd;clip-rule:evenodd;fill:#DCD9C8;" d="M25.406,39.23c1.049,4.554,1.221,8.2-1.05,10.82
		c6.082-0.686,9.952-2.617,11.999-7.757c-0.018-1.232,0.08-1.272,0.158-2.918L25.406,39.23z"/>
	<path style="fill-rule:evenodd;clip-rule:evenodd;fill:#2F5B74;" d="M9.799,64h16.004c-0.396-4.889-0.965-9.398-0.713-15.373
		c-0.046,0.158,0.043-0.974-0.002-0.831c-0.786,2.454-1.584,2.928-4.113,3.401c-1.415,0.265-3.133,0.418-4.567,0.556
		c-3.181,0.054-4.73,0.91-5.929,3.847c-0.727,1.78-0.923,5.036-0.884,8.259C9.661,63.907,9.732,63.951,9.799,64z"/>
	<path style="fill-rule:evenodd;clip-rule:evenodd;fill:#416F8A;" d="M20.408,57.089c0.836,1.65,1.49,4.271,2.024,6.911h3.98
		c-0.379-5.381-1.008-11.606-1.303-17.108c-2.69,2.492-2.859,2.748-6.231,4.193c1.786,1.67,3.599,3.26,5.439,4.87L20.408,57.089z"/>
	<path style="fill-rule:evenodd;clip-rule:evenodd;fill:#416F8A;" d="M40.791,64c0.338-2.596,0.839-5.075,1.77-6.911l-3.91-1.134
		c1.84-1.611,3.653-3.2,5.439-4.87c-3.372-1.445-3.542-1.721-6.233-4.213C37.582,51.978,37.104,58.329,36.955,64H40.791z"/>
	<path style="fill-rule:evenodd;clip-rule:evenodd;fill:#F2EFDC;" d="M20.369,25.123c-1.035-1.547-2.253-0.495-1.876,1.379
		c0.309,1.526,1.013,3.261,1.402,4.999c0.269,1.193,0.696,2.039,1.743,1.816l-0.116-4.964L20.369,25.123z"/>
	<path style="fill-rule:evenodd;clip-rule:evenodd;fill:#F2EFDC;" d="M41.967,25.123c1.035-1.547,2.254-0.495,1.876,1.379
		c-0.309,1.526-1.013,3.261-1.402,4.999c-0.267,1.193-0.696,2.039-1.743,1.816l0.116-4.964L41.967,25.123z"/>
	<path style="fill-rule:evenodd;clip-rule:evenodd;fill:#F2EFDC;" d="M35.419,41.559c1.274-1.134,2.244-2.195,3.451-4.144
		c1.431-2.31,1.992-3.897,2.591-7.896c0.456-3.056,0.835-6.232,0.332-9.115c-0.979-5.603-4.664-9.862-10.625-9.843
		c-6.601,0.023-9.826,2.642-10.795,8.956c-0.631,4.125-0.376,6.787,0.321,10.264c0.771,3.853,1.441,6.022,3.077,8.323
		c1.033,1.452,1.837,2.428,2.876,3.332c2.116,1.84,3.26,2.65,4.439,2.65C32.296,44.087,33.538,43.231,35.419,41.559z"/>
	<path style="fill-rule:evenodd;clip-rule:evenodd;" d="M31.847,8.441c7.889-1.508,12.568,3.704,14.122,11.1
		c1.516,7.207-4.064,15.741-7.41,18.761c1.557-5.366,3.305-10.84,2.832-15.102c-0.515,0.153-1.197,0.297-2.01,0.426
		c-0.366-2.729-0.981-4.104-2.624-7.251c1.528,3.095,2.143,5.058,2.36,7.291c-0.716,0.109-1.521,0.207-2.395,0.289
		c-0.265-4.809-0.883-6.487-3.096-10.528c1.738,4.037,2.398,6.845,2.426,10.589c-1.33,0.111-2.792,0.192-4.311,0.23
		c-0.114-2.922-0.198-5.817-0.261-8.748c0,2.995-0.254,5.808-0.402,8.763c-1.247,0.021-2.523,0.014-3.789-0.027
		c-0.271-2.501-0.403-5.463,0.348-8.025c-0.926,2.358-1.311,5.178-1.164,7.995c-0.838-0.037-1.669-0.089-2.479-0.157
		c0.073-3.122,0.36-5.103,1.743-8.109c-0.063,0.06-0.125,0.12-0.186,0.181c-1.238,2.435-1.591,3.941-2.005,7.889
		c-0.715-0.067-1.411-0.149-2.082-0.245c-0.107,0.555-0.187,1.121-0.235,1.697c-0.389,4.532,0.729,9.197,3.04,14.115
		c-2.138-1.426-10.605-10.493-8.351-20.249c1.83-7.913,6.921-13.158,14.84-10.787C31.125,8.489,31.486,8.456,31.847,8.441z"/>
</g>
</svg>
