<?xml version="1.0" encoding="iso-8859-1"?>
<!-- Generator: Adobe Illustrator 16.0.0, SVG Export Plug-In . SVG Version: 6.00 Build 0)  -->
<!DOCTYPE svg PUBLIC "-//W3C//DTD SVG 1.1//EN" "http://www.w3.org/Graphics/SVG/1.1/DTD/svg11.dtd">
<svg version="1.1" id="Layer_1" xmlns="http://www.w3.org/2000/svg" xmlns:xlink="http://www.w3.org/1999/xlink" x="0px" y="0px"
	 width="64px" height="64px" viewBox="0 0 64 64" style="enable-background:new 0 0 64 64;" xml:space="preserve">
<g id="_x32_">
	<g>
		<g>
			<g>
				<g>
					<g>
						<g>
							<path style="fill:#CCA692;" d="M41.606,34.865l0.037,0.729c0.2,3.942-0.44,6.305,2.664,9.171
								c1.27,1.172,2.577,2.699,2.291,4.402c-0.268,1.598-1.876,2.644-3.457,2.997c-1.58,0.354-3.234,0.221-4.825,0.521
								c-1.859,0.352-3.63,1.292-5.521,1.219c-2.307-0.088-4.269-1.658-5.909-3.281s-3.233-3.436-5.394-4.25
								c-0.395-0.148-0.899-0.414-0.805-0.826c0.04-0.174,0.184-0.301,0.317-0.418c3.842-3.328,4.474-5.438,4.227-10.308
								L41.606,34.865z"/>
							<path style="fill:#F9CFB3;" d="M32.169,12.047c0.967,0.261,2.276-0.984,2.9-1.492c1.132-0.921,2.418-1.653,3.788-2.155
								c1.003-0.367,2.106-0.611,3.134-0.32c1.51,0.428,2.506,1.947,2.787,3.491c0.57,3.146-1.011,6.402-0.505,9.553
								c0.07,0.44,0.192,1.439,0.895,0.959c0.291-0.2,0.105-0.74,0.416-0.979c0.688-0.528,1.025,0.314,1.079,0.823
								c0.193,1.814,0.014,3.814-0.768,5.507c-0.453,0.98-1.138,1.288-1.803,2.016c-0.736,0.805-0.531,2.3-0.771,3.271
								c-0.163,0.66-0.431,1.268-0.808,1.806c-0.803,1.147-2.27,1.739-3.202,2.794c-0.873,0.987-1.678,1.969-2.913,2.641
								c-0.744,0.404-1.808,0.464-2.79,0.469c-0.127,0.013-0.257,0.023-0.386,0.034L31.776,11.96
								C31.907,11.99,32.042,12.012,32.169,12.047z"/>
							<path style="fill:#E2BBA1;" d="M18.747,23.342c0.003-0.511,0.252-1.385,0.991-0.929c0.334,0.207,0.204,0.765,0.514,0.933
								c0.747,0.408,0.768-0.6,0.792-1.045c0.099-1.695-0.797-3.273-0.664-4.941c0.121-1.529-0.034-3.103,0.447-4.603
								c0.418-1.3,1.243-2.496,2.416-3.194c1.084-0.646,2.436-0.828,3.652-0.491c1.07,0.296,1.813,0.942,2.534,1.75
								c0.785,0.878,1.155,0.87,2.347,1.139l1.446,28.502c-0.865,0.065-1.758,0.065-2.438-0.219
								c-1.297-0.544-2.197-1.438-3.166-2.333c-1.034-0.953-2.553-1.394-3.469-2.455c-0.428-0.496-0.756-1.074-0.985-1.714
								c-0.338-0.94-0.285-2.449-1.099-3.176c-0.734-0.655-1.447-0.894-1.997-1.822C19.121,27.139,18.74,25.167,18.747,23.342z"/>
							<path style="fill:#594A42;" d="M45.87,19.8c-0.275,1.287-0.59,2.501-0.854,3.553c-0.121,0.484-0.228,1.026-0.382,1.491
								c-0.067,0.203-0.075,0.381-0.227,0.561c-0.036,0.041-0.583,0.415-0.573,0.316c0.184-1.823,0.383-3.554,0.187-5.384
								c-0.337-3.148,0.251-8.292-4.24-8.117c-1.348,0.053-2.626,0.573-3.898,1.019c-1.273,0.445-2.63,0.826-3.957,0.586
								c-2.09-0.376-3.718-2.215-5.825-2.477c-3.245-0.403-4.47,2.445-4.64,5.109c-0.116,1.82-0.296,3.479-0.149,5.336
								c0.056,0.703,0.301,1.326,0.395,2.019c0.039,0.293,0.519,2.34,0.366,2.477c-0.115,0.103-0.279-0.056-0.352-0.192
								c-2.463-4.721-4.086-11.188-1.142-16.273c0.59-1.019,1.453-1.846,2.304-2.658c2.405-2.296,4.812-4.591,7.217-6.888
								c0.078-0.073,0.156-0.147,0.25-0.2c0.452-0.242,0.971,0.143,1.364,0.472c4.16,3.482,10.125,3.82,13.471,8.591
								C47.113,11.887,46.651,16.137,45.87,19.8z"/>
						</g>
						<g>
							<path style="fill:#CAD9E0;" d="M27.341,62.831c0.083,0.391,0.178,0.778,0.264,1.169h9.73c1.15-2.369,2.2-4.764,3.495-7.111
								c1.408-2.569,3.37-4.799,4.611-7.469c0.533-1.147,1.04-2.477,0.809-3.765c-0.318-1.771-2.92-2.466-2.92-2.466
								c-0.962,0.91-3.993,3.541-8.65,3.955c-6.606,0.586-11.07-3.768-11.708-4.411c-0.207,2.099-0.185,4.429,0.648,6.397
								C25.505,53.589,26.355,58.221,27.341,62.831z"/>
							<path style="fill:#6A3D9B;" d="M10.415,52.879c0.095,3.71,0.292,7.414,0.447,11.121h18.557L26.17,53.91
								c0,0-3.006-11.248-3.198-11.177c-1.631,0.606-1.797,0.991-3.252,1.749c-1.701,0.886-3.545,1.426-5.438,1.801
								c-1.17,0.23-6.15,1.812-6.641,3.101C7.235,50.452,10.386,51.711,10.415,52.879z"/>
							<path style="fill:#6A3D9B;" d="M52.717,64c0.457-5.368,1.366-10.754,1.923-15.974c-1.739-0.723-3.506-2.145-5.447-2.705
								c-1.176-0.339-6.344-2.384-6.344-2.384s-4.118,12.391-5.304,15.283c-0.345,0.842-1.337,3.08-2.474,5.779H52.717z"/>
						</g>
					</g>
				</g>
			</g>
		</g>
		<g>
			<path style="fill:#594A42;" d="M35.071,21.787v2.246c0,0,3.864-2.147,7.487-2.246C42.559,20.42,35.071,21.787,35.071,21.787z"/>
			<path style="fill:#594A42;" d="M30.751,21.787v2.246c0,0-3.864-2.147-7.487-2.246C23.264,20.42,30.751,21.787,30.751,21.787z"/>
		</g>
		<path style="fill:#594A42;" d="M42.981,32.42c0.028,0.16-0.048,0.316-0.123,0.461c-0.181,0.35-0.351,0.686-0.591,0.975
			c-0.229,0.275-0.354,0.65-0.538,0.965c-0.381,0.648-0.89,1.322-1.499,1.762c-1.486,1.114-3.087,2.178-4.74,3.006
			c-0.251,0.126-0.519,0.255-0.798,0.233c-0.781-0.063-1.28-2.065-1.996-0.761c-0.152,0.278-0.247,0.607-0.504,0.794
			c-1.351,0.981-4.246-1.743-5.226-2.462c-0.462-0.339-0.92-0.687-1.315-1.101c-0.372-0.388-0.685-0.829-0.995-1.268
			c-0.598-0.846-1.215-1.739-1.326-2.769c-0.068,0.695-0.132,1.423,0.138,2.067c0.074,0.179,0.173,0.345,0.271,0.511
			c0.738,1.251,1.423,2.553,2.557,3.506c1.051,0.883,2.287,1.504,3.391,2.313c0.871,0.638,2.016,1.086,3.194,1.26
			c1.163-0.174,2.318-0.628,3.217-1.283c1.164-0.85,2.498-1.526,3.665-2.495c0.422-0.351,0.789-0.759,1.134-1.183
			c0.325-0.4,0.747-0.822,0.979-1.283c0.193-0.384,0.363-0.76,0.578-1.139C42.822,33.879,43.121,33.201,42.981,32.42z"/>
	</g>
	<g id="_x33__1_">
		<path style="fill:#6A3D9B;" d="M14.204,64c0.011-0.371,0.038-0.74,0.038-1.111c0-2.969-0.743-5.844-1.4-8.716
			c-0.278-1.216-0.53-2.466-0.416-3.72c0.101-1.101,0.798-2.212,0.663-3.322c-0.013-0.102-0.038-0.211-0.121-0.271
			c-0.108-0.077-0.259-0.034-0.383,0.014c-0.454,0.173-0.925,0.352-1.408,0.54c-2.138,0.834-5.095,1.477-6.525,3.447
			c-1.95,2.682-3.109,7.152-3.888,10.321C0.53,62.131,0.297,63.061,0.063,64H14.204z"/>
		<path style="fill:#6A3D9B;" d="M53.082,52.996c-0.198,3.672-0.59,7.332-0.812,11.004h11.666c-0.729-2.875-1.439-5.736-2.09-8.541
			c-0.798-3.438-3.334-7.372-7.251-7.332C51.883,48.154,53.179,51.181,53.082,52.996z"/>
	</g>
</g>
</svg>
