<?xml version="1.0" encoding="iso-8859-1"?>
<!-- Generator: Adobe Illustrator 16.0.0, SVG Export Plug-In . SVG Version: 6.00 Build 0)  -->
<!DOCTYPE svg PUBLIC "-//W3C//DTD SVG 1.1//EN" "http://www.w3.org/Graphics/SVG/1.1/DTD/svg11.dtd">
<svg version="1.1" id="Layer_1" xmlns="http://www.w3.org/2000/svg" xmlns:xlink="http://www.w3.org/1999/xlink" x="0px" y="0px"
	 width="64px" height="64px" viewBox="0 0 64 64" style="enable-background:new 0 0 64 64;" xml:space="preserve">
<g>
	<path style="fill-rule:evenodd;clip-rule:evenodd;fill:#F2EFDC;" d="M55.938,64c-0.001-3.385-0.268-6.366-0.695-8.008
		c-0.402-1.553-1.929-3.192-3.336-3.887c-1.806-0.892-4.033-1-6.22-1.064c-2.865-0.085-5.111-0.04-7.221-2.259
		c-2.221-2.613-1.81-6.839-1.644-10.321l-11.867-0.154c1.107,4.242,1.041,8.699-0.342,11.009c-0.003-0.133-0.007-0.265-0.007-0.393
		c-0.487,0.55-0.712,1.437-4.386,2.167c-0.204,0.037-0.413,0.075-0.624,0.112c-1.373,0.227-2.928,0.354-4.255,0.481
		c-3.397,0.057-5.054,0.973-6.334,4.109C8.279,57.581,8.054,60.763,8.063,64H55.938z"/>
	<path style="fill-rule:evenodd;clip-rule:evenodd;fill:#FC611F;" d="M55.938,64c-0.001-3.385-0.268-6.366-0.695-8.008
		c-0.269-1.033-1.034-2.106-1.931-2.913C48.85,55.864,40.974,57.714,32,57.714c-8.955,0-16.819-1.841-21.285-4.618
		c-0.674,0.627-1.218,1.5-1.707,2.697C8.279,57.581,8.054,60.763,8.063,64H55.938z"/>
	<path style="fill-rule:evenodd;clip-rule:evenodd;fill:#DCD9C8;" d="M24.955,38.307c1.122,4.863,1.37,8.894-1.153,11.692
		c6.724-0.754,8.913-4.719,12.851-8.422c-0.02-1.315,0.085-1.358,0.17-3.116L24.955,38.307z"/>
	<path style="fill-rule:evenodd;clip-rule:evenodd;fill:#F2EFDC;" d="M19.574,23.235c-1.105-1.652-2.408-0.528-2.003,1.473
		c0.328,1.631,1.081,3.483,1.497,5.341c0.286,1.275,0.744,2.178,1.862,1.94l-0.123-5.303L19.574,23.235z"/>
	<path style="fill-rule:evenodd;clip-rule:evenodd;fill:#F2EFDC;" d="M42.646,23.235c1.106-1.652,2.408-0.528,2.004,1.473
		c-0.328,1.631-1.08,3.483-1.497,5.341c-0.286,1.275-0.745,2.178-1.862,1.94l0.123-5.303L42.646,23.235z"/>
	<path style="fill-rule:evenodd;clip-rule:evenodd;fill:#F2EFDC;" d="M35.652,40.793c1.36-1.21,2.397-2.346,3.687-4.427
		c1.528-2.467,2.13-4.164,2.767-8.434c0.488-3.265,0.894-6.659,0.355-9.739c-1.044-5.984-4.982-10.535-11.35-10.513
		c-7.051,0.022-10.497,2.82-11.532,9.566c-0.675,4.406-0.401,7.25,0.343,10.965c0.825,4.115,1.539,6.433,3.288,8.891
		c1.104,1.553,1.962,2.596,3.072,3.562c2.26,1.963,3.481,2.83,4.741,2.83C32.316,43.494,33.644,42.579,35.652,40.793z"/>
	<path style="fill-rule:evenodd;clip-rule:evenodd;fill:#FDC00F;" d="M25.705,42.326c-0.514-2.808-1.678-3.782-2.696-5.287
		c0.418,0.836,0.331,0.626,0.986,2.241c-0.914-0.877-1.928-2.589-2.407-3.947c0.061,0.294,0.11,0.748,0.262,1.416
		c-1.665-3.756-5.638-8.276-6.563-13.556c0.371,3.075,1.453,6.177,3.797,9.385c-6.347-7.504-6.668-19.381-0.803-23.718
		c-3.341,2.266-4.35,6.03-4.282,11.449c-1.686-5.564,0.43-13.985,6.406-16.071c1.733-0.605,3.174-0.757,4.795-0.236
		c0.022-0.044,0.046-0.087,0.069-0.129c-7.24-1.247-10.629,2.975-11.853,9.513C13.7,6.22,17.903,1.567,26.101,2.615
		c0.037-0.044,0.073-0.09,0.111-0.133c-2.745-1.146-7.038,0.154-10.04,2.104c3.359-2.585,7.669-3.662,10.521-2.614
		c5.076-4.858,16.844,0.15,18.372,5.407c-1.582-2.157-5.741-5.678-12.946-5.972c5.953,0.931,15.395,4.417,14.686,11.79
		c0.705,1.792,0.971,3.602,0.637,6.096c-0.084,1.71-0.487,3.02-1.148,4.319c0.678-2.583,0.777-4.332,0.363-5.321
		c-0.249,2.811-1.106,4.707-1.738,5.225c-1.169-0.738-1.751-0.386-2.702,3.383c0.338-4.115-0.188-4.9-2.002-6.147
		c-2.856-1.962-6.798-1.726-10.607-2.83c1.22,0.928,1.696,1.186,3.007,1.646c-0.579-0.02-8.823-0.236-11.901-6.069
		c-0.297,2.131-0.115,3.832,0.312,5.402c-0.293-0.462-0.514-0.884-0.677-1.283c0.368,2.288,1.309,4.456,2.694,6.392
		c-2.509-2.516-3.286-4.461-3.661-6.263c-0.247,1.729-0.321,3.131-0.181,4.61c0.91,3.334,2.915,6.157,5.424,9.066
		c-1.468-0.646-2.734-1.473-3.811-2.434C22.271,33.447,25.173,37.981,25.705,42.326L25.705,42.326z M46.703,12.951
		c-0.204-1.074-0.613-1.726-1.202-2.483c0.02,0.064,0.04,0.131,0.061,0.197C46.008,11.46,46.394,12.207,46.703,12.951z"/>
</g>
</svg>
