<?xml version="1.0" encoding="iso-8859-1"?>
<!-- Generator: Adobe Illustrator 16.0.0, SVG Export Plug-In . SVG Version: 6.00 Build 0)  -->
<!DOCTYPE svg PUBLIC "-//W3C//DTD SVG 1.1//EN" "http://www.w3.org/Graphics/SVG/1.1/DTD/svg11.dtd">
<svg version="1.1" id="Layer_1" xmlns="http://www.w3.org/2000/svg" xmlns:xlink="http://www.w3.org/1999/xlink" x="0px" y="0px"
	 width="64px" height="64px" viewBox="0 0 64 64" style="enable-background:new 0 0 64 64;" xml:space="preserve">
<g>
	<g>
		<path style="fill:#9C603E;" d="M48.713,18.797c0,11.114-10.239,20.125-17.193,20.125s-15.616-9.011-15.616-20.125
			C15.903,7.684,24.145,0,31.999,0C41.168,0,48.713,7.684,48.713,18.797z"/>
	</g>
	<g>
		<g>
			<path style="fill:#FFE9BA;" d="M44.476,45.294l-3.808-0.702c-0.018,0-0.018,0-0.037,0c-2.051-0.018-3.733-1.664-3.788-3.715
				v-2.791c4.49-2.772,7.633-9.262,7.633-16.821c0-10.092-5.581-15.229-12.477-15.229l0,0l0,0c-6.894,0-12.476,5.138-12.476,15.229
				c0,7.56,3.143,14.049,7.633,16.821v2.791c-0.055,2.051-1.736,3.697-3.788,3.715c-0.019,0-0.019,0-0.037,0l-3.808,0.702
				c-8.429,2.606-9.981,8.854-9.981,16.044V64h22.457l0,0h22.459v-2.662C54.458,54.147,52.904,47.9,44.476,45.294z"/>
		</g>
		<g>
			<path style="fill:#FFE9BA;" d="M36.86,40.285c0,0,0-0.019-0.018-0.037v0.037C36.86,40.285,36.86,40.285,36.86,40.285z"/>
		</g>
	</g>
	<g>
		<g>
			<path style="fill:#FFE9BA;" d="M41.168,33.611c-1.183,1.923-2.661,3.457-4.325,4.475v2.643c-0.96,0.314-1.959,0.48-2.977,0.48
				c-2.477,0-4.787-0.98-6.71-2.681v-0.442c1.461,0.83,3.051,1.274,4.715,1.274C35.567,39.36,38.913,37.124,41.168,33.611z"/>
		</g>
		<g>
			<path style="fill:#FFE9BA;" d="M36.86,40.285c0,0,0,0-0.018,0v-0.037C36.86,40.267,36.86,40.285,36.86,40.285z"/>
		</g>
	</g>
	<g>
		<g>
			<path style="fill:#3D95CA;" d="M54.458,61.338V64H9.542v-2.662c0-7.19,1.553-13.438,9.981-16.044l3.808-0.702
				c0.019,0,0.019,0,0.037,0c0.739,0,1.441-0.223,2.033-0.628c1.479,2.05,3.881,3.382,6.598,3.382c2.719,0,5.121-1.332,6.6-3.382
				c0.592,0.405,1.295,0.628,2.033,0.628c0.02,0,0.02,0,0.037,0l3.808,0.702C52.905,47.9,54.458,54.147,54.458,61.338z"/>
		</g>
	</g>
	<g>
		<path style="fill:#FFE9BA;" d="M27.083,38.049c-0.369-0.204-0.739-0.444-1.09-0.703c-0.019,0-0.019,0-0.037-0.018
			c-0.019-0.02-0.019-0.02-0.019-0.038c-0.074-0.073-0.147-0.166-0.222-0.258C26.158,37.402,26.603,37.752,27.083,38.049z"/>
	</g>
	<g>
		<path style="fill:#EED59C;" d="M36.843,38.086v2.162c0.018,0.019,0.018,0.037,0.018,0.037s0,0-0.018,0v0.443
			c-0.96,0.314-1.959,0.48-2.977,0.48c-2.477,0-4.787-0.98-6.71-2.681c-0.405-0.37-0.793-0.758-1.163-1.183
			c-0.019,0-0.019,0-0.037-0.018c-0.019-0.02-0.019-0.02-0.019-0.038c-0.074-0.073-0.147-0.166-0.222-0.258
			c0.442,0.37,0.887,0.72,1.367,1.017c0.019,0.018,0.037,0.037,0.073,0.037c1.461,0.83,3.051,1.274,4.715,1.274
			C35.567,39.36,36.843,38.086,36.843,38.086z"/>
	</g>
	<g>
		<path style="fill:#9C603E;" d="M23.809,35.018c0,0-5.455-6.614-4.285-13.753c1.169-7.139,5.339-3.243,7.56-7.634
			c0,0-1.342,3.725-2.221,4.391c0,0,5.741-2.687,8.334-6.418c0,0-0.109,2.143-1.61,3.472c0,0,7.813-1.213,9.582-7.451
			c1.768-6.237-6.048-3.004-9.88-4.159S8.146,10.426,23.809,35.018z"/>
	</g>
	<g>
		<path style="fill:#9C603E;" d="M38.084,7.008c0,0,8.035,12.884,5.083,21.063c-1.999,5.54-3.502,7.582-3.502,7.582
			s7.554-6.271,8.123-13.359C48.357,15.205,38.084,7.008,38.084,7.008z"/>
	</g>
	<g>
		<path style="fill:#9C603E;" d="M16.113,15.941c0,0-2.404,8.115,3.14,15.553V28.65c0,0-0.159-4.296,0.143-6.275
			C19.695,20.395,16.113,15.941,16.113,15.941z"/>
	</g>
	<g>
		<path style="fill:#9C603E;" d="M48.209,18.557c0,0,1.015,8.774-5.705,15.576l0.477-2.941c0,0,0.876-4.412,0.911-6.508
			C43.927,22.589,48.209,18.557,48.209,18.557z"/>
	</g>
	<g>
		<polygon style="fill:#FFFFFF;" points="15.699,46.819 20.229,63.936 42.947,63.936 48.917,47.328 46.019,45.77 40.175,57.234 
			24.502,57.234 18.862,45.386 		"/>
	</g>
	<g>
		<polygon style="fill:#FFFFFF;" points="26.495,42.973 32.097,47.281 29.296,52.845 22.372,43.898 		"/>
	</g>
	<g>
		<polygon style="fill:#FFFFFF;" points="37.696,42.973 32.096,47.281 34.896,52.845 41.821,43.898 		"/>
	</g>
</g>
</svg>
