<?xml version="1.0" encoding="iso-8859-1"?>
<!-- Generator: Adobe Illustrator 16.0.0, SVG Export Plug-In . SVG Version: 6.00 Build 0)  -->
<!DOCTYPE svg PUBLIC "-//W3C//DTD SVG 1.1//EN" "http://www.w3.org/Graphics/SVG/1.1/DTD/svg11.dtd">
<svg version="1.1" id="Layer_1" xmlns="http://www.w3.org/2000/svg" xmlns:xlink="http://www.w3.org/1999/xlink" x="0px" y="0px"
	 width="64px" height="64px" viewBox="0 0 64 64" style="enable-background:new 0 0 64 64;" xml:space="preserve">
<g>
	<g>
		<path style="fill:#DFB64C;" d="M46.75,25.137c0,9.556-8.803,17.304-14.781,17.304c-5.979,0-13.427-7.748-13.427-17.304
			c0-9.555,7.086-16.161,13.839-16.161C40.264,8.976,46.75,15.582,46.75,25.137z"/>
	</g>
	<g>
		<g>
			<path style="fill:#FFE9BA;" d="M42.727,47.919l-3.274-0.605c-0.015,0-0.015,0-0.031,0c-1.764-0.016-3.211-1.431-3.257-3.194
				v-2.398c3.859-2.383,6.563-7.963,6.563-14.463c0-8.676-4.799-13.092-10.728-13.092l0,0l0,0c-5.927,0-10.726,4.416-10.726,13.092
				c0,6.5,2.702,12.08,6.563,14.463v2.398c-0.047,1.764-1.493,3.179-3.257,3.194c-0.017,0-0.017,0-0.032,0l-3.273,0.605
				c-7.247,2.24-8.582,7.611-8.582,13.792V64h19.308l0,0h19.31v-2.289C51.309,55.53,49.973,50.159,42.727,47.919z"/>
		</g>
		<g>
			<path style="fill:#FFE9BA;" d="M36.179,43.611c0,0,0-0.016-0.015-0.031v0.031C36.179,43.611,36.179,43.611,36.179,43.611z"/>
		</g>
	</g>
	<g>
		<g>
			<path style="fill:#FFE9BA;" d="M39.883,37.873c-1.018,1.653-2.289,2.973-3.719,3.848v2.272c-0.826,0.271-1.685,0.412-2.56,0.412
				c-2.129,0-4.116-0.842-5.769-2.305v-0.38c1.256,0.714,2.623,1.096,4.054,1.096C35.067,42.816,37.944,40.894,39.883,37.873z"/>
		</g>
		<g>
			<path style="fill:#FFE9BA;" d="M36.179,43.611c0,0,0,0-0.015,0V43.58C36.179,43.596,36.179,43.611,36.179,43.611z"/>
		</g>
	</g>
	<g>
		<g>
			<path style="fill:#FFFFFF;" d="M51.309,61.711V64H12.691v-2.289c0-6.181,1.335-11.552,8.582-13.792l3.273-0.605
				c0.016,0,0.016,0,0.032,0c0.635,0,1.239-0.19,1.747-0.539c1.271,1.763,3.338,2.908,5.673,2.908c2.338,0,4.403-1.146,5.675-2.908
				c0.508,0.349,1.112,0.539,1.747,0.539c0.017,0,0.017,0,0.032,0l3.274,0.605C49.974,50.159,51.309,55.53,51.309,61.711z"/>
		</g>
		<g>
			<path style="fill:#FFFFFF;" d="M36.179,43.611c0,0,0,0-0.015,0V43.58C36.179,43.596,36.179,43.611,36.179,43.611z"/>
		</g>
	</g>
	<g>
		<path style="fill:#FFE9BA;" d="M27.772,41.688c-0.317-0.174-0.636-0.381-0.938-0.604c-0.016,0-0.016,0-0.031-0.015
			c-0.017-0.018-0.017-0.018-0.017-0.032c-0.063-0.064-0.127-0.144-0.19-0.223C26.978,41.133,27.359,41.435,27.772,41.688z"/>
	</g>
	<g>
		<path style="fill:#EED59C;" d="M36.164,41.721v1.859c0.015,0.016,0.015,0.031,0.015,0.031s0,0-0.015,0v0.382
			c-0.826,0.271-1.685,0.412-2.56,0.412c-2.129,0-4.116-0.842-5.769-2.305c-0.349-0.317-0.683-0.651-1.001-1.017
			c-0.016,0-0.016,0-0.031-0.015c-0.017-0.018-0.017-0.018-0.017-0.032c-0.063-0.064-0.127-0.144-0.19-0.223
			c0.381,0.318,0.763,0.62,1.176,0.873c0.017,0.016,0.032,0.033,0.063,0.033c1.256,0.714,2.623,1.096,4.054,1.096
			C35.067,42.816,36.164,41.721,36.164,41.721z"/>
	</g>
	<g>
		<g>
			<path style="fill:#DFB64C;" d="M21.951,33.553c1.123,3.24,3.007,5.53,3.007,5.53C23.707,37.118,22.718,35.277,21.951,33.553z"/>
		</g>
		<g>
			<path style="fill:#DFB64C;" d="M45.936,24.931c0,0-0.271,0.257-0.657,0.655c-0.945-3.374-3.891-6.699-5.948-8.699
				c0.218-0.421,0.412-0.865,0.553-1.355c1.52-5.364-5.2-2.583-8.495-3.576c-2.386-0.721-11.743,2.746-11.613,12.743
				c-0.714-1.116-1.433-2.017-1.433-2.017s-2.068,6.977,2.699,13.371v-2.445c0,0-0.04-1.152-0.033-2.463
				c0.27,0.777,0.572,1.575,0.943,2.408c-0.648-1.868-1.046-4.048-0.678-6.295c1.005-6.138,4.59-2.788,6.499-6.563
				c0,0-1.153,3.202-1.909,3.774c0,0,4.937-2.309,7.165-5.518c0,0-0.094,1.843-1.385,2.985c0,0,4.699-0.742,7.124-4.127
				c1.871,3.75,4.575,10.476,2.833,15.301c-1.718,4.762-3.011,6.518-3.011,6.518s1.232-1.024,2.663-2.682l-0.222,1.374
				C46.808,32.475,45.936,24.931,45.936,24.931z"/>
		</g>
	</g>
	<g>
		<path style="fill:#BBBDB9;" d="M45.982,61.088c0,0.219-0.178,0.396-0.396,0.396H39.02c-0.221,0-0.398-0.178-0.398-0.396l0,0
			c0-0.22,0.178-0.397,0.398-0.397h6.566C45.805,60.69,45.982,60.868,45.982,61.088L45.982,61.088z"/>
	</g>
	<g>
		<path style="fill:#BBBDB9;" d="M26.543,61.088c0,0.219-0.178,0.396-0.397,0.396h-6.566c-0.22,0-0.396-0.178-0.396-0.396l0,0
			c0-0.22,0.177-0.397,0.396-0.397h6.566C26.365,60.69,26.543,60.868,26.543,61.088L26.543,61.088z"/>
	</g>
	<g>
		<ellipse style="fill:#FFFFFF;" cx="32.263" cy="10.132" rx="17.136" ry="10.13"/>
	</g>
	<g>
		<path style="fill:#FFFFFF;" d="M45.747,18.416c0,1.498-1.267,2.712-2.828,2.712H22.01c-1.562,0-2.827-1.214-2.827-2.712l0,0
			c0-1.498,1.266-2.714,2.827-2.714h20.909C44.48,15.702,45.747,16.918,45.747,18.416L45.747,18.416z"/>
	</g>
	<g>
		<path style="fill:#BBBDB9;" d="M32.991,15.781c0,0.521-0.422,0.942-0.942,0.942l0,0c-0.521,0-0.942-0.422-0.942-0.942v-4.413
			c0-0.521,0.422-0.941,0.942-0.941l0,0c0.521,0,0.942,0.421,0.942,0.941V15.781z"/>
	</g>
	<g>
		<path style="fill:#BBBDB9;" d="M28.283,15.426c0.146,0.499-0.14,1.023-0.639,1.17l0,0c-0.5,0.147-1.023-0.139-1.17-0.636
			l-1.246-4.237c-0.146-0.498,0.141-1.021,0.64-1.17l0,0c0.499-0.146,1.023,0.141,1.17,0.639L28.283,15.426z"/>
	</g>
	<g>
		<path style="fill:#BBBDB9;" d="M23.386,15.601c0.262,0.448,0.107,1.028-0.343,1.288l0,0c-0.451,0.26-1.027,0.105-1.288-0.342
			l-2.216-3.818c-0.261-0.449-0.106-1.027,0.343-1.287l0,0c0.45-0.261,1.028-0.109,1.288,0.341L23.386,15.601z"/>
	</g>
	<g>
		<path style="fill:#BBBDB9;" d="M37.64,15.955c-0.144,0.501-0.666,0.791-1.166,0.646l0,0c-0.501-0.144-0.79-0.666-0.646-1.166
			l1.219-4.24c0.144-0.5,0.665-0.791,1.166-0.646l0,0c0.501,0.143,0.79,0.666,0.646,1.165L37.64,15.955z"/>
	</g>
	<g>
		<path style="fill:#BBBDB9;" d="M42.25,16.533c-0.278,0.439-0.861,0.569-1.301,0.291l0,0c-0.44-0.279-0.57-0.862-0.292-1.301
			l2.364-3.728c0.279-0.438,0.861-0.569,1.301-0.29l0,0c0.44,0.279,0.57,0.862,0.292,1.302L42.25,16.533z"/>
	</g>
	<g>
		<path style="fill:#BBBDB9;" d="M33.33,60.631l-1.145,3.338h-0.208l-1.144-3.338l-1.812-5.244l-2.431,1.59l-6.69-10.202
			c0,0,7.071-2.369,7.93-2.655L32.09,56.88L33.33,60.631z"/>
	</g>
	<g>
		<path style="fill:#BBBDB9;" d="M44.278,46.741l-6.69,10.22l-2.432-1.606l-1.826,5.276l-1.145,3.338h-0.208l-1.144-3.338
			l1.256-3.751l4.259-12.793C37.206,44.375,44.278,46.741,44.278,46.741z"/>
	</g>
</g>
</svg>
