<?xml version="1.0" encoding="iso-8859-1"?>
<!-- Generator: Adobe Illustrator 16.0.0, SVG Export Plug-In . SVG Version: 6.00 Build 0)  -->
<!DOCTYPE svg PUBLIC "-//W3C//DTD SVG 1.1//EN" "http://www.w3.org/Graphics/SVG/1.1/DTD/svg11.dtd">
<svg version="1.1" id="Layer_1" xmlns="http://www.w3.org/2000/svg" xmlns:xlink="http://www.w3.org/1999/xlink" x="0px" y="0px"
	 width="64px" height="64px" viewBox="0 0 64 64" style="enable-background:new 0 0 64 64;" xml:space="preserve">
<g id="_x31_">
	<g>
		<g>
			<g>
				<path style="fill:#E2A77D;" d="M40.624,32.896c0.117,0.766-0.079,1.583-0.034,2.377c0.069,1.23,0.553,2.088,1.01,3.199
					c0.19,0.463,0.32,0.957,0.578,1.385c0.655,1.094,1.977,1.56,3.192,1.943c-1.114,3.964-6.758,6.573-10.337,7.826
					c-0.49,0.172-1.006,0.332-1.521,0.268c-0.521-0.064-0.984-0.348-1.429-0.623c-3.162-1.963-6.323-3.926-9.484-5.888
					c1.359-1.67,1.789-3.634,1.762-5.735c-0.005-0.442-0.065-4.832-0.167-4.832c0.023,0,0.047,0,0.07,0
					C29.653,32.83,35.266,32.454,40.624,32.896z"/>
				<path style="fill:#FFC28E;" d="M31.173,9.899c1.222-3.128,2.291-0.99,2.919-1.502c1.139-0.926,2.433-1.664,3.812-2.169
					c1.009-0.369,2.119-0.615,3.153-0.321c1.52,0.431,2.522,1.958,2.804,3.512c0.574,3.167-1.017,6.442-0.508,9.613
					c0.071,0.442,0.193,1.448,0.9,0.964c0.293-0.2,0.105-0.745,0.419-0.985c0.693-0.531,1.032,0.317,1.086,0.83
					c0.193,1.825,0.014,3.837-0.772,5.54c-0.456,0.986-1.146,1.296-1.813,2.028c-0.741,0.809-0.535,2.314-0.776,3.291
					c-0.164,0.664-0.435,1.275-0.813,1.816c-0.809,1.155-2.284,1.75-3.222,2.811c-0.879,0.994-1.688,1.981-2.932,2.656
					c-0.749,0.408-1.82,0.469-2.809,0.474c-0.128,0.013-0.258,0.023-0.389,0.034l-1.454-28.68
					C30.909,9.841,31.124,10.022,31.173,9.899z"/>
				<path style="fill:#F0B784;" d="M17.669,21.265c0.001-0.515,0.253-1.393,0.996-0.934c0.336,0.207,0.205,0.768,0.517,0.938
					c0.753,0.409,0.771-0.603,0.798-1.051c0.099-1.707-0.803-3.294-0.67-4.973c0.123-1.539-0.034-3.122,0.451-4.631
					c0.42-1.308,1.251-2.513,2.431-3.216c1.092-0.649,2.45-0.832,3.675-0.493c1.078,0.297,1.825,0.948,2.551,1.761
					c0.789,0.884,1.163,0.875,2.361,1.146l1.454,28.68c-0.869,0.067-1.769,0.065-2.452-0.221c-1.306-0.545-2.21-1.446-3.186-2.346
					c-1.04-0.96-2.569-1.402-3.49-2.471c-0.431-0.5-0.761-1.082-0.991-1.726c-0.34-0.946-0.287-2.466-1.105-3.196
					c-0.739-0.659-1.456-0.897-2.01-1.833C18.044,25.084,17.661,23.102,17.669,21.265z"/>
				<path style="fill:#D4A700;" d="M44.911,17.663c-0.224,1.043-0.38,2.082-0.349,3.117l-1.31,0.067
					c-0.027-0.257-0.026-0.499-0.026-0.648c0.004-0.704-0.052-1.259-0.126-1.957c-0.475-4.427,1.382-9.252-5.036-9.364
					c-2.262-0.04-4.471,1.164-6.728,1.315c-2.668,0.179-5.385-0.948-7.698-2.286c-0.274-0.16-0.567-0.334-0.884-0.309
					c-0.276,0.023-0.517,0.197-0.727,0.38c-2.244,1.944-1.465,3.786-1.63,6.358c-0.116,1.83-0.298,3.499-0.15,5.369
					c0.061,0.757,0.256,1.488,0.277,2.252c-2.016,0.755-1.583-1.483-1.973-2.647c-1.26-3.761-0.458-8.278-0.813-12.24
					c-0.039-0.424-0.077-0.854-0.011-1.274c0.11-0.696,0.499-1.32,0.963-1.851c2.304-2.634,6.161-3.092,9.648-3.373
					c2.525-0.203,5.385-0.83,7.9-0.455c2.171,0.324,4.231,0.776,6.464,0.946c0.432,0.032,0.901,0.081,1.208,0.387
					c0.242,0.24,0.331,0.592,0.404,0.926C45.391,7.222,45.956,12.771,44.911,17.663z"/>
			</g>
			<g>
				<path style="fill:#E4F4FF;" d="M21.543,64h16.054c0.141-2.132,0.29-4.267,0.536-6.382c0.191-1.639,0.643-2.601,0.604-3.775
					c-0.012-0.403-0.082-0.831-0.241-1.32c-0.004-0.013-0.014-0.031-0.018-0.045c0.969-2.202,1.937-4.332,2.581-6.626
					c0.128-0.454,1.873-3.699,2.853-4.87c0.263-0.313,0.47-0.479,0.577-0.402c-0.408-0.29-0.817-0.58-1.225-0.871
					c-0.145-0.103-0.298-0.209-0.475-0.228c-0.263-0.028-0.501,0.139-0.713,0.297c-2.716,2.018-5.83,3.641-9.192,4.019
					c-3.363,0.378-6.998-0.647-9.222-3.197c-3.202,2.326-0.042,9.48,0.676,12.607c-1.063,2.026-1.555,4.264-2.092,6.85
					C21.975,61.366,21.75,62.682,21.543,64z"/>
				<path style="fill:#706451;" d="M28.42,64l-2.521-10.787l-2.846-12.169c0,0-0.1,0.046-0.293,0.117
					c-0.542,0.216-2.259,2.175-4.085,2.973c-0.006-0.193-0.018-0.382-0.028-0.57c-0.205,0.051-0.404,0.106-0.619,0.149
					C11.157,45.124,6.9,45.757,6.635,45.961c-0.409,0.31-0.675,1.234-0.891,1.678c-0.643,1.306-1.246,2.629-1.877,3.936
					c-1.052,2.175-1.201,4.423-1.473,6.737c-0.033,0.305-0.066,0.604-0.11,0.906c-0.117,0.881-0.487,1.64-0.715,2.486
					c-0.195,0.74-0.259,1.52-0.307,2.296H28.42z"/>
				<path style="fill:#877960;" d="M16.86,52.29c2.068,2.864,4.536,6.789,6.742,11.71h4.705l-1.443-6.386l-3.255-14.397l0.751-5.569
					c-0.67,0.266-11.052,6.219-11.333,7.052l8.228,5.299C19.79,50.762,18.325,51.525,16.86,52.29z"/>
			</g>
			<g>
				<path style="fill:#877960;" d="M63.515,64c-0.345-2.526-0.626-5.063-0.818-7.606c-0.215-2.834-0.367-5.793-1.777-8.262
					c-2.181-3.813-11.008-3.198-15.089-4.297c-2.016-0.542-3.672-3.222-4.275-3.383C41.389,40.408,41.3,40.38,41.3,40.38
					l-3.332,9.307C36.272,54.405,34.195,59.178,32.54,64H63.515z"/>
				<polygon style="fill:#5E5346;" points="14.181,64 14.313,58.874 13.677,64 				"/>
				<path style="fill:#706451;" d="M6.257,64c0.022-0.756,0.048-1.513,0.103-2.264c0.253-3.427,0.763-6.827,1.104-10.245
					c0.111-1.118,1.459-6.268-1.373-5.238c-1.559,0.567-2.096,2.527-2.497,3.954c-0.583,2.07-1.123,4.126-1.582,6.235
					C1.464,58.954,0.969,61.476,0.485,64H6.257z"/>
				<path style="fill:#706451;" d="M32.395,64h6.175c2.772-4.226,5.691-7.408,8.569-10.917l-5.338-4.838l9.442-3.637
					c0,0-9.788-7.824-10.393-7.983l0.122,4.67l-5.78,15.517L32.395,64z"/>
			</g>
		</g>
	</g>
	<path style="fill:#414042;" d="M45.282,18.583l-0.371-0.92c0,0-4.119,0.037-6.113,0.102c-1.952,0.063-4.28,0.668-5.235,1.873
		l-0.029-0.049c-0.552,0.291-1.025,0.4-1.415,0.416c-0.391,0.01-0.87-0.07-1.44-0.325l-0.024,0.052
		c-1.031-1.143-3.393-1.599-5.345-1.536c-1.994,0.064-6.865,0.761-6.865,0.761l-0.28,1.266l2.028,1.021
		c-0.014,0.169-0.015,0.341,0.005,0.516c0.287,2.563,2.922,3.824,5.377,3.746c0.067-0.003,0.135-0.006,0.201-0.01
		c0.457-0.028,0.907-0.106,1.339-0.229c1.834-0.52,3.264-1.835,3.926-3.606c0.092-0.245,0.133-0.488,0.127-0.725
		c0.358,0.082,0.688,0.116,0.984,0.108c0.298-0.012,0.625-0.066,0.977-0.171c0.01,0.236,0.066,0.477,0.173,0.715
		c0.773,1.726,2.285,2.946,4.148,3.348c0.438,0.096,0.893,0.144,1.351,0.143c0.067,0,0.134-0.001,0.201-0.003
		c2.455-0.078,5.004-1.506,5.127-4.08c0.009-0.177-0.003-0.349-0.028-0.516L45.282,18.583z M30.018,21.315
		c-0.544,1.456-1.715,2.536-3.211,2.962c-0.354,0.1-0.725,0.163-1.101,0.187l-0.166,0.008c-1.955,0.063-4.048-0.889-4.266-2.826
		c-0.053-0.477,0.075-0.878,0.393-1.227c0.632-0.692,2.006-1.138,3.674-1.19c2.034-0.065,3.95,0.462,4.558,1.253
		C30.096,20.739,30.133,21.005,30.018,21.315z M38.968,24.043l-0.167,0.002c-0.376,0.001-0.75-0.039-1.109-0.117
		c-1.521-0.328-2.758-1.329-3.394-2.749c-0.136-0.303-0.115-0.57,0.065-0.839c0.556-0.829,2.435-1.478,4.468-1.543
		c1.668-0.053,3.067,0.304,3.742,0.954c0.34,0.327,0.493,0.719,0.471,1.199C42.95,22.897,40.923,23.98,38.968,24.043z"/>
</g>
</svg>
