<?xml version="1.0" encoding="iso-8859-1"?>
<!-- Generator: Adobe Illustrator 16.0.0, SVG Export Plug-In . SVG Version: 6.00 Build 0)  -->
<!DOCTYPE svg PUBLIC "-//W3C//DTD SVG 1.1//EN" "http://www.w3.org/Graphics/SVG/1.1/DTD/svg11.dtd">
<svg version="1.1" id="Layer_1" xmlns="http://www.w3.org/2000/svg" xmlns:xlink="http://www.w3.org/1999/xlink" x="0px" y="0px"
	 width="64px" height="64px" viewBox="0 0 64 64" style="enable-background:new 0 0 64 64;" xml:space="preserve">
<g>
	<path style="fill-rule:evenodd;clip-rule:evenodd;fill:#F2EFDC;" d="M63.582,64c0.063-0.067,0.132-0.131,0.195-0.197
		c-0.021-1.411-0.044-2.437-0.06-2.787c-0.395-8.229-2.402-15.152-11.487-14.758c-3.27,0.143-9.887-0.798-11.697-5.411
		c-0.844-2.15-0.825-5.571-0.323-7.815l-8.687,0.168l-8.686-0.168c0.5,2.244,0.487,5.653-0.324,7.815
		c-1.658,4.409-7.919,5.536-10.769,5.411c-9.248-0.4-11.164,6.571-11.507,15.209C0.226,61.778,0.222,62.713,0.223,64H63.582z"/>
	<path style="fill-rule:evenodd;clip-rule:evenodd;fill:#0E2F3E;" d="M63.582,64c0.063-0.067,0.132-0.131,0.195-0.197
		c-0.021-1.411-0.044-2.437-0.06-2.787c-0.395-8.229-2.402-15.152-11.487-14.758c-3.27,0.143-9.887-0.798-11.697-5.411
		c-4.016,2.897-12.188,4.181-18.02,0c-1.658,4.409-7.919,5.536-10.769,5.411c-9.248-0.4-11.164,6.571-11.507,15.209
		C0.226,61.778,0.222,62.713,0.223,64H63.582z"/>
	<g>
		<path style="fill-rule:evenodd;clip-rule:evenodd;fill:#F2EFDC;" d="M21.387,26.177l0.503-5.991
			c-0.891-0.876-1.528-1.452-1.992-2.172c-1.273-1.977-2.072-2.432-2.848-1.854c-0.313,0.233-0.425,0.975-0.241,1.906
			c0.321,1.627,1.348,4.052,1.67,5.477C18.738,24.688,20.238,28.614,21.387,26.177z"/>
		<path style="fill-rule:evenodd;clip-rule:evenodd;fill:#F2EFDC;" d="M41.479,26.177l-0.504-5.991
			c0.891-0.876,1.53-1.452,1.992-2.172c1.273-1.977,2.072-2.432,2.848-1.854c0.314,0.233,0.425,0.975,0.242,1.906
			c-0.321,1.627-1.348,4.052-1.67,5.477C44.127,24.688,42.628,28.614,41.479,26.177z"/>
	</g>
	<path style="fill-rule:evenodd;clip-rule:evenodd;fill:#DCD9C8;" d="M22.146,41.869c3.274-1.4,7.015-2.062,9.985-2.5
		c1.666-0.247,2.641-0.544,3.939-1.57c1.027-0.813,2.327-2.602,3.919-3.736c0.057-0.471,0.13-0.622,0.221-1.031l-8.687,0.168
		l-8.686-0.168C23.063,34.049,23.756,39.299,22.146,41.869z"/>
	<path style="fill-rule:evenodd;clip-rule:evenodd;fill:#F2EFDC;" d="M27.276,36.937c-6.424-2.926-8.22-11.148-8.518-16.551
		c-0.114-2.134,0.815-4.278,0.743-6.689c-0.071-2.355-0.138-4.305,0.15-5.959c1.092-6.267,9.04-8.146,14.272-7.371
		c8.584,1.269,9.675,5.809,9.46,13.27c-0.07,2.405,0.867,4.54,0.754,6.666c-0.292,5.416-2.62,14.244-9.149,16.81
		c-0.737,0.322-2.02,1.15-3.454,1.161C30.06,38.286,28.025,37.254,27.276,36.937z"/>
	<path style="fill-rule:evenodd;clip-rule:evenodd;" d="M27.276,36.937c-3.963-1.804-6.164-5.625-7.34-9.557
		c1.738,2.793,2.594,3.946,5.798,6.577c-0.241-1.421-0.077-2.644,0.384-3.871c0.345,0.187,0.708,0.366,1.086,0.54
		c0.748,0.316,2.782,1.347,4.259,1.336c1.434-0.014,2.716-0.841,3.454-1.163c0.648-0.255,1.258-0.541,1.827-0.856
		c0.503,1.276,0.688,2.539,0.439,4.015c2.985-2.45,3.93-3.618,5.449-6.022c-1.366,3.917-3.763,7.652-7.644,9.177
		c-0.737,0.322-2.02,1.15-3.454,1.161C30.06,38.286,28.025,37.254,27.276,36.937z"/>
	<path style="fill-rule:evenodd;clip-rule:evenodd;" d="M26.188,32.653c-0.407-4.231,0.724-3.549,3.227-5.407
		c0.97-0.721,0.238-0.329,1.887-0.186c1.768-0.153,0.895-0.537,1.973,0.249c1.856,1.355,4.79,1.851,2.913,5.524
		c0.092-0.764-0.976,1.016-1.012,0.585c-0.123-1.471,0.04-3.693-2.249-4.2c-0.706-0.156-1.072-0.435-1.606,0.005
		c-0.491-0.406-0.738-0.144-1.396-0.037c-2.526,0.408-1.583,2.331-2.075,4.553C27.787,34.017,26.229,32.309,26.188,32.653z"/>
	<path style="fill-rule:evenodd;clip-rule:evenodd;" d="M19.427,22.4c-1.429-8.897-2.093-11.421,4.252-14.001l3.411,0.727
		C23.221,11.005,19.401,9.653,19.427,22.4z"/>
	<path style="fill-rule:evenodd;clip-rule:evenodd;" d="M43.747,22.4c1.431-8.897,2.095-11.421-4.251-14.001l-3.41,0.727
		C39.953,11.005,43.773,9.653,43.747,22.4z"/>
	<ellipse style="fill-rule:evenodd;clip-rule:evenodd;fill:#0E2F3E;" cx="31.448" cy="11.154" rx="17.516" ry="2.189"/>
	<path style="fill-rule:evenodd;clip-rule:evenodd;fill:#0E2F3E;" d="M18.835,11.342c-0.018-1.427,0.021-2.69,0.22-3.821
		c0.928-5.318,6.974-8.503,12.076-7.085c8.13-1.989,12.722,3.05,12.877,10.869C45.333,10.225,22.321,12.976,18.835,11.342z"/>
</g>
</svg>
