<?xml version="1.0" encoding="iso-8859-1"?>
<!-- Generator: Adobe Illustrator 16.0.0, SVG Export Plug-In . SVG Version: 6.00 Build 0)  -->
<!DOCTYPE svg PUBLIC "-//W3C//DTD SVG 1.1//EN" "http://www.w3.org/Graphics/SVG/1.1/DTD/svg11.dtd">
<svg version="1.1" id="Layer_1" xmlns="http://www.w3.org/2000/svg" xmlns:xlink="http://www.w3.org/1999/xlink" x="0px" y="0px"
	 width="64px" height="64px" viewBox="0 0 64 64" style="enable-background:new 0 0 64 64;" xml:space="preserve">
<g>
	<g>
		<path style="fill:#FFD7AF;" d="M32.107,51.275l6.85-5.436c0,0-0.986-1.326-1.41-5.439h-5.439h-0.002h-5.441
			c-0.422,4.113-1.408,5.439-1.408,5.439l6.85,5.436l0,0H32.107L32.107,51.275L32.107,51.275z"/>
		<path style="fill:#F5CDA5;" d="M37.547,40.4h-5.439h-0.002h-5.441c-0.043,0.424-0.094,0.811-0.146,1.177
			c1.635,1.306,3.533,2.003,5.588,2.003c2.057,0,3.955-0.697,5.59-2.003C37.643,41.211,37.592,40.824,37.547,40.4z"/>
		<path style="fill:#FFD7AF;" d="M21.654,31.561c0,0-1.75,1.865-2.6-2.577c-0.908-4.748-0.877-7.325,0.752-7.869
			c1.041-0.347,1.34,0.541,1.34,0.541L21.654,31.561z"/>
		<path style="fill:#FED9AE;" d="M32.105,42.276c6.41,0,11.328-6.715,11.328-17.838c0-13.87-4.07-17.093-11.328-17.093
			c-7.256,0-11.326,3.223-11.326,17.093C20.779,35.562,25.695,42.276,32.105,42.276z"/>
		<path style="fill:#FFD7AF;" d="M42.721,31.561c0,0,1.75,1.865,2.6-2.577c0.91-4.748,0.879-7.325-0.752-7.869
			c-1.041-0.347-1.34,0.541-1.34,0.541L42.721,31.561z"/>
		<path style="fill:#FFE1B9;" d="M32.248,7.348v34.921c6.34-0.101,11.186-6.79,11.186-17.83
			C43.434,10.659,39.416,7.391,32.248,7.348z"/>
	</g>
	<path style="fill:#969696;" d="M32,4.408c-12.916,0-13.912,12.662-13.316,17.228c0.299,2.289,2.096,4.479,2.096,4.479
		s0.473-6.176,4.477-7.938c4.002-1.763,9.852-0.813,12.684-5.087c3.326,5.06,4.807,7.189,5.455,13.025
		C47.086,22.246,50.014,4.543,32,4.408z"/>
	<ellipse style="fill:#969696;" cx="32.001" cy="4.408" rx="7.296" ry="4.408"/>
	<path style="fill:#89CCDD;" d="M55.061,64l-3.018-8.753c-0.328-0.949-0.994-1.742-1.871-2.23l-7.064-3.927l-11.072-0.079l0,0H32
		h-0.035l0,0l-11.07,0.079l-7.066,3.927c-0.877,0.488-1.543,1.281-1.871,2.23L8.939,64h23.047h0.027H55.061z"/>
	<path style="fill:#F0F0F0;" d="M25.115,44.405l-4.479,4.13c0,0,4.713,11.463,11.328,0.476L25.115,44.405z"/>
	<path style="fill:#F0F0F0;" d="M38.885,44.405l4.479,4.13c0,0-4.713,11.463-11.328,0.476L38.885,44.405z"/>
</g>
</svg>
