<?xml version="1.0" encoding="iso-8859-1"?>
<!-- Generator: Adobe Illustrator 16.0.0, SVG Export Plug-In . SVG Version: 6.00 Build 0)  -->
<!DOCTYPE svg PUBLIC "-//W3C//DTD SVG 1.1//EN" "http://www.w3.org/Graphics/SVG/1.1/DTD/svg11.dtd">
<svg version="1.1" id="Layer_1" xmlns="http://www.w3.org/2000/svg" xmlns:xlink="http://www.w3.org/1999/xlink" x="0px" y="0px"
	 width="64px" height="64px" viewBox="0 0 64 64" style="enable-background:new 0 0 64 64;" xml:space="preserve">
<g>
	<g>
		<g>
			<g>
				<path style="fill:#FFE5CB;" d="M32.79,57.944h-1.58L20.022,40.365l0.58-0.226c0.259-0.099,6.301-2.52,6.301-9.208v-0.51h10.193
					v0.51c0,6.707,6.236,9.184,6.3,9.208l0.581,0.226L32.79,57.944z"/>
				<path style="fill:#E3C7AA;" d="M33.003,58.334h-2.007l-11.558-18.16l1.023-0.397c0.248-0.095,6.052-2.412,6.052-8.845v-0.9
					h10.972v0.9c0,6.408,5.99,8.821,6.051,8.845l1.024,0.396L33.003,58.334z M31.423,57.555h1.152l10.817-16.998l-0.138-0.053
					c-0.063-0.024-6.549-2.576-6.549-9.572v-0.121h-9.414v0.121c0,6.961-6.282,9.469-6.549,9.572l-0.138,0.053L31.423,57.555z"/>
			</g>
		</g>
		<g>
			<path style="fill:#FFFFFF;" d="M54.625,45.16c-2.009-2.008-6.444-5.008-13.824-6.896c0,0-6.888,6.259-8.801,7.689
				c-1.912-1.431-8.8-7.689-8.8-7.689c-7.382,1.889-11.816,4.889-13.825,6.896c-3.63,3.631-2.34,12.975-2.34,18.45h49.931
				C56.966,58.135,58.254,48.791,54.625,45.16z"/>
			<path style="fill:#F0DE33;" d="M57.355,64H6.645v-0.39c0-1.059-0.049-2.27-0.101-3.553C6.327,54.654,6.055,47.93,9.099,44.885
				c1.38-1.379,5.507-4.824,14.004-6.998l0.203-0.053l0.155,0.141c0.066,0.062,6.39,5.804,8.538,7.487
				c2.149-1.684,8.473-7.426,8.54-7.487l0.155-0.141l0.203,0.053c8.496,2.174,12.623,5.619,14.003,6.998
				c3.044,3.045,2.773,9.77,2.556,15.175c-0.052,1.282-0.101,2.493-0.101,3.551V64z"/>
		</g>
		<g>
			<g>
				<g>
					<g>
						<polygon style="fill:#FF8B26;" points="22.958,38.197 31.499,45.5 26.261,49.34 21.02,38.981 						"/>
					</g>
				</g>
			</g>
			<g>
				<g>
					<g>
						<polygon style="fill:#FF8B26;" points="41.104,38.197 32.564,45.5 37.803,49.34 43.044,38.981 						"/>
					</g>
				</g>
			</g>
		</g>
		<g>
			<g>
				<circle style="fill:#FF8B26;" cx="29.354" cy="51.459" r="1.138"/>
			</g>
			<g>
				<circle style="fill:#FF8B26;" cx="29.354" cy="55.717" r="1.138"/>
			</g>
			<g>
				<circle style="fill:#FF8B26;" cx="29.354" cy="59.974" r="1.138"/>
			</g>
		</g>
		<g>
			<rect x="42.943" y="51.094" style="fill:#FF8B26;" width="6.443" height="3.467"/>
		</g>
		<g>
			<rect x="31.072" y="45.128" style="fill:#FF8B26;" width="1.759" height="18.482"/>
		</g>
	</g>
	<g>
		<path style="fill:#3A3E42;" d="M46.522,17.383C45.107,6.965,41.718,2.716,31.75,2.716c-8.218,0-12.864,4.249-14.279,14.667
			c-1.772,13.057,7.88-3.758,14.526-3.758C38.947,13.625,48.296,30.439,46.522,17.383z"/>
	</g>
	<g>
		<path style="fill:#FFE5CB;" d="M44.979,21.055c0.007-0.167,0.013-0.333,0.013-0.499c0-7.883-5.82-12.233-12.998-12.233
			c-7.178,0-12.997,4.351-12.997,12.233c0,0.167,0.007,0.335,0.012,0.503c-0.738,0.326-1.281,1.34-1.281,2.554
			c0,1.478,0.8,2.676,1.784,2.676c0.142,0,0.279-0.032,0.413-0.079c1.914,5.965,6.595,11.166,12.069,11.166
			c5.476,0,10.157-5.202,12.072-11.169c0.135,0.049,0.273,0.082,0.42,0.082c0.984,0,1.784-1.198,1.784-2.676
			C46.271,22.395,45.723,21.377,44.979,21.055z"/>
		<path style="fill:#E3C7AA;" d="M31.995,37.765c-5.902,0-10.48-5.687-12.327-11.095c-1.298,0.133-2.329-1.266-2.329-3.058
			c0-1.219,0.503-2.296,1.274-2.783c-0.003-0.099-0.005-0.187-0.005-0.273c0-7.551,5.38-12.623,13.387-12.623
			c8.007,0,13.387,5.072,13.387,12.623c0,0.09-0.002,0.18-0.005,0.27c0.777,0.484,1.283,1.563,1.283,2.787
			c0,1.795-1.03,3.205-2.336,3.057C42.476,32.078,37.896,37.765,31.995,37.765z M20.172,25.705l0.124,0.385
			c1.684,5.248,6.063,10.896,11.698,10.896c5.635,0,10.016-5.649,11.701-10.897l0.124-0.387l0.38,0.139
			c0.111,0.041,0.202,0.059,0.287,0.059c0.756,0,1.395-1.047,1.395-2.286c0-1.024-0.435-1.93-1.057-2.2l-0.243-0.106l0.009-0.265
			c0.007-0.163-0.014-0.327,0.013-0.485C46.04,11.776,38.27,8.712,31.995,8.712c-6.275,0-14.792,3.325-12.607,11.844
			c0.036,0.14,0.005,0.289,0.01,0.434l0.008,0.263l-0.238,0.163c-0.617,0.272-1.049,1.177-1.049,2.197
			c0,1.239,0.639,2.286,1.395,2.286c0.082,0,0.175-0.018,0.281-0.057L20.172,25.705z"/>
	</g>
	<g>
		<path style="fill:#3A3E42;" d="M44.872,15.284c0,0-15.951,1.472-18.749-5.014c0,0-7.232,6.183-7.386,8.351
			c0,0-1.535-13.046,12.981-13.046C44.776,5.575,44.872,15.284,44.872,15.284z"/>
	</g>
	<g>
		<path style="fill:#3362A3;" d="M48.622,16.492C47.903,4.664,43.041,0,31.7,0c-5.448,0-9.396,1.33-12.067,4.069
			c-2.65,2.716-4.063,6.816-4.303,12.49c-0.751,0.238-1.301,0.635-1.277,0.837c0.309,2.773,1.326,11.119,1.326,11.119
			c0.072,0.516,0.835,1.789,1.544,1.689l0.322-0.044l1.061-0.147c0,0,1.555-0.642,1.483-1.157l-1.495-11.968
			c0,0-0.685-0.354-1.474-0.473c0.246-5.184,1.518-8.897,3.872-11.311c2.379-2.438,5.979-3.623,11.008-3.623
			c10.366,0,14.702,4.057,15.424,14.796c-0.854,0.089-1.631,0.487-1.631,0.487l-1.497,11.968c-0.07,0.515,0.446,1.014,1.157,1.112
			l0.327,0.045c-0.073,0.669-0.225,1.213-0.706,1.604c-1.051,0.854-3.631,1.384-8.067,0.873l0.005-0.031
			c0.071-0.511-0.199-0.973-0.601-1.027l-4.007-0.556c-0.401-0.056-0.787,0.315-0.858,0.826l-0.128,0.928
			c-0.07,0.513,0.198,0.973,0.601,1.029l4.009,0.555c0.354,0.05,0.683-0.244,0.808-0.666c4.894,0.572,7.592-0.026,8.913-1.099
			c0.768-0.625,0.992-1.442,1.092-2.288l0.323,0.044c0.708,0.099,1.473-1.174,1.543-1.689c0,0,1.019-8.347,1.328-11.119
			C49.755,17.086,49.286,16.733,48.622,16.492z"/>
	</g>
	<g>
		<g>
			<g>
				<path style="fill:#FFE5CB;" d="M32.79,57.944h-1.58L20.022,40.365l0.58-0.226c0.259-0.099,6.301-2.52,6.301-9.208v-0.51h10.193
					v0.51c0,6.707,6.236,9.184,6.3,9.208l0.581,0.226L32.79,57.944z"/>
				<path style="fill:#E3C7AA;" d="M33.003,58.334h-2.007l-11.558-18.16l1.023-0.397c0.248-0.095,6.052-2.412,6.052-8.845v-0.9
					h10.972v0.9c0,6.408,5.99,8.821,6.051,8.845l1.024,0.396L33.003,58.334z M31.423,57.555h1.152l10.817-16.998l-0.138-0.053
					c-0.063-0.024-6.549-2.576-6.549-9.572v-0.121h-9.414v0.121c0,6.961-6.282,9.469-6.549,9.572l-0.138,0.053L31.423,57.555z"/>
			</g>
		</g>
		<g>
			<path style="fill:#FFFFFF;" d="M54.625,45.16c-2.009-2.008-6.444-5.008-13.824-6.896c0,0-6.888,6.259-8.801,7.689
				c-1.912-1.431-8.8-7.689-8.8-7.689c-7.382,1.889-11.816,4.889-13.825,6.896c-3.63,3.631-2.34,12.975-2.34,18.45h49.931
				C56.966,58.135,58.254,48.791,54.625,45.16z"/>
			<path style="fill:#F0DE33;" d="M57.355,64H6.645v-0.39c0-1.059-0.049-2.27-0.101-3.553C6.327,54.654,6.055,47.93,9.099,44.885
				c1.38-1.379,5.507-4.824,14.004-6.998l0.203-0.053l0.155,0.141c0.066,0.062,6.39,5.804,8.538,7.487
				c2.149-1.684,8.473-7.426,8.54-7.487l0.155-0.141l0.203,0.053c8.496,2.174,12.623,5.619,14.003,6.998
				c3.044,3.045,2.773,9.77,2.556,15.175c-0.052,1.282-0.101,2.493-0.101,3.551V64z"/>
		</g>
		<g>
			<g>
				<g>
					<g>
						<polygon style="fill:#FF8B26;" points="22.958,38.197 31.499,45.5 26.261,49.34 21.02,38.981 						"/>
					</g>
				</g>
			</g>
			<g>
				<g>
					<g>
						<polygon style="fill:#FF8B26;" points="41.104,38.197 32.564,45.5 37.803,49.34 43.044,38.981 						"/>
					</g>
				</g>
			</g>
		</g>
		<g>
			<g>
				<circle style="fill:#FF8B26;" cx="29.354" cy="51.459" r="1.138"/>
			</g>
			<g>
				<circle style="fill:#FF8B26;" cx="29.354" cy="55.717" r="1.138"/>
			</g>
			<g>
				<circle style="fill:#FF8B26;" cx="29.354" cy="59.974" r="1.138"/>
			</g>
		</g>
		<g>
			<rect x="42.943" y="51.094" style="fill:#FF8B26;" width="6.443" height="3.467"/>
		</g>
		<g>
			<rect x="31.072" y="45.128" style="fill:#FF8B26;" width="1.759" height="18.482"/>
		</g>
	</g>
	<g>
		<path style="fill:#3A3E42;" d="M46.522,17.383C45.107,6.965,41.718,2.716,31.75,2.716c-8.218,0-12.864,4.249-14.279,14.667
			c-1.772,13.057,7.88-3.758,14.526-3.758C38.947,13.625,48.296,30.439,46.522,17.383z"/>
	</g>
	<g>
		<path style="fill:#FFE5CB;" d="M44.979,21.055c0.007-0.167,0.013-0.333,0.013-0.499c0-7.883-5.82-12.233-12.998-12.233
			c-7.178,0-12.997,4.351-12.997,12.233c0,0.167,0.007,0.335,0.012,0.503c-0.738,0.326-1.281,1.34-1.281,2.554
			c0,1.478,0.8,2.676,1.784,2.676c0.142,0,0.279-0.032,0.413-0.079c1.914,5.965,6.595,11.166,12.069,11.166
			c5.476,0,10.157-5.202,12.072-11.169c0.135,0.049,0.273,0.082,0.42,0.082c0.984,0,1.784-1.198,1.784-2.676
			C46.271,22.395,45.723,21.377,44.979,21.055z"/>
		<path style="fill:#E3C7AA;" d="M31.995,37.765c-5.902,0-10.48-5.687-12.327-11.095c-1.298,0.133-2.329-1.266-2.329-3.058
			c0-1.219,0.503-2.296,1.274-2.783c-0.003-0.099-0.005-0.187-0.005-0.273c0-7.551,5.38-12.623,13.387-12.623
			c8.007,0,13.387,5.072,13.387,12.623c0,0.09-0.002,0.18-0.005,0.27c0.777,0.484,1.283,1.563,1.283,2.787
			c0,1.795-1.03,3.205-2.336,3.057C42.476,32.078,37.896,37.765,31.995,37.765z M20.172,25.705l0.124,0.385
			c1.684,5.248,6.063,10.896,11.698,10.896c5.635,0,10.016-5.649,11.701-10.897l0.124-0.387l0.38,0.139
			c0.111,0.041,0.202,0.059,0.287,0.059c0.756,0,1.395-1.047,1.395-2.286c0-1.024-0.435-1.93-1.057-2.2l-0.243-0.106l0.009-0.265
			c0.007-0.163-0.014-0.327,0.013-0.485C46.04,11.776,38.27,8.712,31.995,8.712c-6.275,0-14.792,3.325-12.607,11.844
			c0.036,0.14,0.005,0.289,0.01,0.434l0.008,0.263l-0.238,0.163c-0.617,0.272-1.049,1.177-1.049,2.197
			c0,1.239,0.639,2.286,1.395,2.286c0.082,0,0.175-0.018,0.281-0.057L20.172,25.705z"/>
	</g>
	<g>
		<path style="fill:#3A3E42;" d="M44.872,15.284c0,0-15.951,1.472-18.749-5.014c0,0-7.232,6.183-7.386,8.351
			c0,0-1.535-13.046,12.981-13.046C44.776,5.575,44.872,15.284,44.872,15.284z"/>
	</g>
	<g>
		<path style="fill:#3362A3;" d="M48.622,16.492C47.903,4.664,43.041,0,31.7,0c-5.448,0-9.396,1.33-12.067,4.069
			c-2.65,2.716-4.063,6.816-4.303,12.49c-0.751,0.238-1.301,0.635-1.277,0.837c0.309,2.773,1.326,11.119,1.326,11.119
			c0.072,0.516,0.835,1.789,1.544,1.689l0.322-0.044l1.061-0.147c0,0,1.555-0.642,1.483-1.157l-1.495-11.968
			c0,0-0.685-0.354-1.474-0.473c0.246-5.184,1.518-8.897,3.872-11.311c2.379-2.438,5.979-3.623,11.008-3.623
			c10.366,0,14.702,4.057,15.424,14.796c-0.854,0.089-1.631,0.487-1.631,0.487l-1.497,11.968c-0.07,0.515,0.446,1.014,1.157,1.112
			l0.327,0.045c-0.073,0.669-0.225,1.213-0.706,1.604c-1.051,0.854-3.631,1.384-8.067,0.873l0.005-0.031
			c0.071-0.511-0.199-0.973-0.601-1.027l-4.007-0.556c-0.401-0.056-0.787,0.315-0.858,0.826l-0.128,0.928
			c-0.07,0.513,0.198,0.973,0.601,1.029l4.009,0.555c0.354,0.05,0.683-0.244,0.808-0.666c4.894,0.572,7.592-0.026,8.913-1.099
			c0.768-0.625,0.992-1.442,1.092-2.288l0.323,0.044c0.708,0.099,1.473-1.174,1.543-1.689c0,0,1.019-8.347,1.328-11.119
			C49.755,17.086,49.286,16.733,48.622,16.492z"/>
	</g>
</g>
</svg>
