<?xml version="1.0" encoding="iso-8859-1"?>
<!-- Generator: Adobe Illustrator 16.0.0, SVG Export Plug-In . SVG Version: 6.00 Build 0)  -->
<!DOCTYPE svg PUBLIC "-//W3C//DTD SVG 1.1//EN" "http://www.w3.org/Graphics/SVG/1.1/DTD/svg11.dtd">
<svg version="1.1" id="Layer_1" xmlns="http://www.w3.org/2000/svg" xmlns:xlink="http://www.w3.org/1999/xlink" x="0px" y="0px"
	 width="64px" height="64px" viewBox="0 0 64 64" style="enable-background:new 0 0 64 64;" xml:space="preserve">
<g>
	<path style="fill:#E89D6B;" d="M32,3.377L32,3.377C32,3.377,32,3.377,32,3.377c-6.158,0-11.816,8.604-11.816,19.219
		c0,2.823,0.168,3.187,0.021,11.289c-0.121,6.71,23.37,4.948,23.265-0.58c-0.153-8.059,0.347-7.647,0.347-10.709
		C43.817,11.981,38.159,3.377,32,3.377z"/>
	<path style="fill:#F9D5BE;" d="M54.774,47.551c-0.252-4.788-7.245-5.732-12.662-6.615c-2.897-0.472-3.806-3.479-4.03-6.18
		c-1.836,1.702-4.204,3.439-6.083,3.439c-1.856,0-4.234-1.745-6.08-3.451c-0.224,2.703-1.131,5.72-4.031,6.191
		c-5.418,0.883-12.411,1.827-12.663,6.615S9.099,64,9.099,64h22.617h0.567H54.9C54.9,64,55.026,52.339,54.774,47.551z"/>
	<path style="fill:#F9D5BE;" d="M38.082,34.756c-0.038-0.451-0.063-0.896-0.068-1.317H25.987c-0.006,0.417-0.03,0.858-0.067,1.306
		c1.846,1.706,4.224,3.451,6.08,3.451C33.878,38.195,36.246,36.458,38.082,34.756z"/>
	<path style="opacity:0.55;fill:#DBBBA9;" d="M38.082,34.756c-0.038-0.451-0.063-0.896-0.068-1.317H25.987
		c-0.006,0.417-0.03,0.858-0.067,1.306c1.846,1.706,4.224,3.451,6.08,3.451C33.878,38.195,36.246,36.458,38.082,34.756z"/>
	<path style="fill:#F9D5BE;" d="M44.071,20.271c-0.598-0.208-1.146,0.139-1.573,0.596c0.02-0.593,0.015-1.047-0.004-1.288
		c0-7.094-5.568-11.124-10.495-11.133c-4.925,0.009-10.494,4.039-10.494,11.133c-0.018,0.241-0.022,0.695-0.003,1.288
		c-0.428-0.457-0.976-0.804-1.573-0.596c-0.953,0.331-0.481,6.14,2.302,7.18c0.086,0.032,0.152,0.04,0.229,0.06
		c0.361,1.342,0.845,2.646,1.5,3.724c0.756,1.243,5.128,6.108,8.04,6.108c2.954,0,7.286-4.865,8.042-6.108
		c0.654-1.077,1.139-2.382,1.5-3.724c0.076-0.02,0.143-0.027,0.228-0.06C44.553,26.41,45.024,20.602,44.071,20.271z"/>
	<path style="fill:#FFFFFF;" d="M54.774,47.551c-0.252-4.788-7.245-5.732-12.662-6.615c-1.646-0.268-2.649-1.355-3.251-2.74
		c0,0-4.399,2.024-6.861,2.024c-2.373,0-6.843-2.067-6.861-2.024c-0.602,1.385-1.604,2.473-3.251,2.74
		c-5.418,0.883-12.411,1.827-12.663,6.615S9.099,64,9.099,64H54.9C54.9,64,55.026,52.339,54.774,47.551z"/>
	<path style="fill:#E89D6B;" d="M31.644,5.754c9.235,0,12.604,6.711,12.283,12.18c-0.145,2.458-1.204,5.692-1.204,5.692
		c-0.12,0.164-0.553,0.065-0.521-0.231c0.796-7.558-4.141-4.495-3.778-11.283c0,0-7.002,4.825-15.725,3.202
		c-0.018-0.003-0.019-0.019-0.019-0.019c-0.937,2.141-1.354,5.646-0.959,8.1c0.047,0.295-0.411,0.396-0.53,0.231
		c0,0-1.153-3.693-1.157-6.156C20.03,15.032,21.164,5.754,31.644,5.754z"/>
	<circle style="fill:#FFFFFF;" cx="21.548" cy="28.233" r="0.684"/>
	<circle style="fill:#FFFFFF;" cx="42.423" cy="28.233" r="0.684"/>
	<path style="fill:#FFFFFF;" d="M31.99,0c-3.235-0.016-6.924,0.965-10.795,3.881c-0.67,0.504-1.064,1.3-1.064,2.139v8.711
		c0,0,4.801-4.463,11.859-4.438c7.059-0.024,11.86,4.438,11.86,4.438V6.02c0-0.839-0.394-1.635-1.063-2.139
		C38.914,0.965,35.227-0.016,31.99,0z"/>
	<g>
		<circle style="opacity:0.35;fill:#54433C;" cx="35.178" cy="52.112" r="0.836"/>
		<circle style="opacity:0.35;fill:#54433C;" cx="35.178" cy="57.948" r="0.836"/>
		<rect x="32.216" y="47.256" style="opacity:0.35;fill:#54433C;" width="0.674" height="16.744"/>
	</g>
	<polygon style="fill:#3362A3;" points="34.691,5.396 32.673,5.396 32.673,3.377 31.328,3.377 31.328,5.396 29.31,5.396 29.31,6.74 
		31.328,6.74 31.328,8.759 32.673,8.759 32.673,6.74 34.691,6.74 	"/>
</g>
</svg>
