<?xml version="1.0" encoding="iso-8859-1"?>
<!-- Generator: Adobe Illustrator 16.0.0, SVG Export Plug-In . SVG Version: 6.00 Build 0)  -->
<!DOCTYPE svg PUBLIC "-//W3C//DTD SVG 1.1//EN" "http://www.w3.org/Graphics/SVG/1.1/DTD/svg11.dtd">
<svg version="1.1" id="Layer_1" xmlns="http://www.w3.org/2000/svg" xmlns:xlink="http://www.w3.org/1999/xlink" x="0px" y="0px"
	 width="64px" height="64px" viewBox="0 0 64 64" style="enable-background:new 0 0 64 64;" xml:space="preserve">
<g>
	<g>
		<path style="fill:#774E3E;" d="M31.999,4.758L31.999,4.758h0.002c6.33,0,11.463,5.105,11.463,11.405
			c0,3.063-0.903,5.218-1.439,5.368c-1.699,0.479-5.211-7.335-10.023-7.335h-0.002l0,0c-4.813,0-8.325,7.813-10.024,7.335
			c-0.536-0.15-1.439-2.306-1.439-5.368C20.535,9.863,25.667,4.758,31.999,4.758z"/>
		<g>
			<path style="fill:#F9D5BE;" d="M10.145,46.181c0.241-4.595,6.952-5.503,12.151-6.349c2.781-0.453,3.652-3.339,3.869-5.93
				c1.762,1.633,4.033,3.3,5.836,3.3c1.781,0,4.063-1.675,5.834-3.312c0.215,2.594,1.085,5.488,3.869,5.941
				c5.199,0.846,11.91,1.754,12.151,6.349C54.098,50.775,53.977,64,53.977,64H32.272h-0.545H10.023
				C10.023,64,9.902,50.775,10.145,46.181z"/>
			<path style="fill:#F9D5BE;" d="M26.165,33.902c0.035-0.434,0.06-0.861,0.064-1.266h11.541c0.006,0.401,0.029,0.824,0.064,1.254
				c-1.771,1.637-4.053,3.312-5.834,3.312C30.198,37.202,27.927,35.535,26.165,33.902z"/>
			<path style="opacity:0.35;fill:#C69E89;" d="M26.165,33.902c0.035-0.434,0.06-0.861,0.064-1.266h11.541
				c0.006,0.401,0.029,0.824,0.064,1.254c-1.771,1.637-4.053,3.312-5.834,3.312C30.198,37.202,27.927,35.535,26.165,33.902z"/>
		</g>
		<path style="fill:#F9D5BE;" d="M20.416,20c0.574-0.199,1.101,0.134,1.511,0.572c-0.02-0.569-0.015-1.004,0.003-1.236
			c0-6.807,5.344-10.676,10.071-10.684c4.726,0.008,10.07,3.877,10.07,10.684c0.018,0.232,0.021,0.667,0.002,1.236
			c0.411-0.438,0.938-0.771,1.511-0.572c0.915,0.318,0.462,5.893-2.21,6.892c-0.081,0.03-0.145,0.037-0.219,0.057
			c-0.346,1.287-0.811,2.539-1.439,3.573c-0.725,1.193-4.92,5.861-7.715,5.861c-2.834,0-6.991-4.668-7.717-5.861
			c-0.629-1.034-1.093-2.286-1.439-3.573c-0.073-0.02-0.137-0.026-0.219-0.057C19.954,25.893,19.501,20.318,20.416,20z"/>
		<path style="fill:#774E3E;" d="M31.679,6.07c8.861,0,12.094,6.439,11.785,11.688c-0.139,2.359-1.155,5.463-1.155,5.463
			c-0.114,0.158-0.546,0.061-0.5-0.222c0.772-4.796-1.548-9.226-2.704-9.632c-5.9-1.531-8.525,6.99-16.03,2.611
			c-0.899,2.055-1.299,4.666-0.92,7.021c0.046,0.282-0.394,0.38-0.509,0.222c0,0-1.107-3.544-1.11-5.907
			C20.532,14.974,21.62,6.07,31.679,6.07z"/>
	</g>
	<path style="fill:#FFFFFF;" d="M10.145,46.181c0.241-4.595,6.952-5.503,12.151-6.349c1.735-0.282,2.728-1.513,3.28-3.028
		l6.434,5.366l6.415-5.366c0.553,1.516,1.545,2.746,3.279,3.028c5.199,0.846,11.91,1.754,12.151,6.349
		C54.098,50.775,53.977,64,53.977,64H32.272h-0.545H10.023C10.023,64,9.902,50.775,10.145,46.181z"/>
	<polygon style="fill:#0D1014;" points="34.385,41.834 29.635,41.834 31.038,45.027 30.367,64 33.596,64 32.873,45.027 	"/>
	<polygon style="opacity:0.55;fill:#CCCCCC;" points="38.343,36.055 31.971,41.724 25.658,36.055 22.697,39.777 25.782,45.81 
		31.98,42.6 38.218,45.81 41.304,39.777 	"/>
	<polygon style="fill:#FFFFFF;" points="38.341,35.624 31.971,41.293 25.658,35.624 22.579,39.006 25.984,45.25 31.98,42.17 
		38.015,45.25 41.42,39.006 	"/>
	<g>
		<path style="fill:#0F2228;" d="M43.304,3.084C40.326,0.853,34.566,0,32.01,0c-2.743,0-8.316,0.853-11.294,3.084
			c-0.77,0.577-3.512,3.162,1.145,6.053c0.738,0.459,8.021,4.396,10.149,4.275c2.128,0.121,9.411-3.816,10.149-4.275
			C46.815,6.246,44.073,3.661,43.304,3.084z"/>
		<g>
			<g>
				<path style="fill:#F8E038;" d="M42.763,9.96c-0.057-0.145-0.096-0.279-0.096-0.4c0-1.273-4.739-2.308-10.585-2.308
					c-5.847,0-10.588,1.034-10.588,2.308c0,0.166-0.071,0.361-0.164,0.569C24.086,9.116,31.927,6.958,42.763,9.96z"/>
				<path style="fill:#212D48;" d="M20.997,11.6c0.376,0.854,2.628,1.341,11.085,0.268c8.292,1.055,10.614,0.604,11.056-0.221
					C31.511,9.824,23.849,10.98,20.997,11.6z"/>
				<path style="fill:#F8E038;" d="M42.937,10.358c-11.167-1.724-18.65-0.698-21.68-0.072c-0.201,0.437-0.435,0.914-0.26,1.313
					c2.852-0.619,10.514-1.775,22.141,0.047C43.345,11.261,43.141,10.793,42.937,10.358z"/>
				<path style="fill:#212D48;" d="M42.937,10.358c-0.063-0.138-0.126-0.271-0.174-0.398C31.927,6.958,24.086,9.116,21.33,10.129
					c-0.023,0.051-0.048,0.104-0.073,0.157C24.286,9.66,31.77,8.635,42.937,10.358z"/>
			</g>
			<path style="fill:#2F3D4A;" d="M43.138,11.352c4.122,3.148-5.21,4.019-11.056,4.019c-5.847,0-14.918-1.165-11.085-4.083
				c0,0,5.238-1.388,11.085-1.388C37.928,9.899,43.138,11.352,43.138,11.352z"/>
		</g>
		<ellipse style="fill:#F8E038;" cx="32.12" cy="4.982" rx="2.058" ry="1.001"/>
		<path style="fill:#2F3D4A;" d="M33.556,4.564C33.526,4.447,33.331,4.45,33.277,4.4c-0.187-0.173-0.403-0.058-0.403-0.058
			c-0.152,0.11-0.781,0.576-1.219,0.899c-0.096,0.02-0.197,0.038-0.301,0.055l-0.117-0.348l-0.049,0.032
			c-0.02,0.06-0.009,0.206,0.008,0.34c-0.313,0.044-0.627,0.066-0.842,0.027c0,0,0.182,0.11,0.55,0.138
			c0.013,0.047,0.049,0.085,0.101,0.085c0.049,0,0.082-0.034,0.098-0.077c0.035-0.001,0.079-0.006,0.117-0.008
			c0.006,0.029,0.009,0.053,0.012,0.069c-0.003,0.003-0.009,0.007-0.009,0.007c-0.099,0.149,0.175,0.084,0.175,0.084l0.055-0.018
			l0.765-0.237c0.135-0.005,0.35-0.02,0.565-0.039c0.008,0.058,0.055,0.102,0.113,0.102c0.065,0,0.117-0.052,0.117-0.114
			c0-0.002,0-0.005-0.001-0.007c0.048-0.004,0.095-0.008,0.138-0.012c-0.006,0.012-0.015,0.021-0.015,0.034
			c0,0.05,0.041,0.09,0.091,0.09c0.051,0,0.092-0.04,0.092-0.09c0-0.019-0.011-0.034-0.021-0.049
			c0.109-0.01,0.182-0.018,0.182-0.018c-0.08-0.004-0.162-0.011-0.242-0.019c-0.004,0-0.006-0.004-0.01-0.004
			c-0.002,0-0.002,0.002-0.005,0.002c-0.097-0.009-0.19-0.021-0.276-0.033c-0.016-0.006-0.031-0.011-0.049-0.011
			c-0.003,0-0.006,0.003-0.009,0.003c-0.033-0.005-0.065-0.01-0.095-0.015l0.441-0.137c0.238-0.075,0.31-0.233,0.327-0.354
			C33.573,4.633,33.556,4.564,33.556,4.564z"/>
	</g>
	<g>
		
			<rect x="12.308" y="42.654" transform="matrix(-0.2056 -0.9786 0.9786 -0.2056 -25.2366 65.9422)" style="fill:#0F2228;" width="3.677" height="1.12"/>
		
			<rect x="14.251" y="42.446" transform="matrix(-0.2056 -0.9786 0.9786 -0.2056 -22.4911 67.3533)" style="fill:#0F2228;" width="3.681" height="0.718"/>
		
			<rect x="16" y="42.078" transform="matrix(-0.2057 -0.9786 0.9786 -0.2057 -20.021 68.6249)" style="fill:#0F2228;" width="3.679" height="0.718"/>
		
			<rect x="19.628" y="41.181" transform="matrix(-0.2059 -0.9786 0.9786 -0.2059 -14.8933 71.263)" style="fill:#0F2228;" width="3.68" height="0.986"/>
		
			<rect x="17.751" y="41.709" transform="matrix(-0.205 -0.9788 0.9788 -0.205 -17.5688 69.8691)" style="fill:#0F2228;" width="3.677" height="0.721"/>
		
			<rect x="13.378" y="42.455" transform="matrix(-0.2054 -0.9787 0.9787 -0.2054 -23.728 66.7145)" style="fill:#FFDA32;" width="3.679" height="1.068"/>
		
			<rect x="15.124" y="42.085" transform="matrix(-0.2055 -0.9787 0.9787 -0.2055 -21.2586 67.9808)" style="fill:#FFDA32;" width="3.683" height="1.068"/>
		
			<rect x="16.874" y="41.719" transform="matrix(-0.2054 -0.9787 0.9787 -0.2054 -18.7949 69.2469)" style="fill:#FFDA32;" width="3.68" height="1.068"/>
		
			<rect x="18.625" y="41.353" transform="matrix(-0.2061 -0.9785 0.9785 -0.2061 -16.3066 70.5438)" style="fill:#FFDA32;" width="3.677" height="1.067"/>
	</g>
	<g>
		
			<rect x="47.938" y="42.655" transform="matrix(0.2058 -0.9786 0.9786 0.2058 -2.7569 83.0317)" style="fill:#0F2228;" width="3.677" height="1.119"/>
		
			<rect x="45.991" y="42.446" transform="matrix(0.2059 -0.9786 0.9786 0.2059 -3.9026 80.8014)" style="fill:#0F2228;" width="3.681" height="0.718"/>
		
			<rect x="44.244" y="42.078" transform="matrix(0.2054 -0.9787 0.9787 0.2054 -4.9161 78.8197)" style="fill:#0F2228;" width="3.679" height="0.718"/>
		
			<rect x="40.616" y="41.181" transform="matrix(0.2059 -0.9786 0.9786 0.2059 -7.0671 74.6397)" style="fill:#0F2228;" width="3.68" height="0.986"/>
		
			<rect x="42.496" y="41.709" transform="matrix(0.205 -0.9788 0.9788 0.205 -5.932 76.8351)" style="fill:#0F2228;" width="3.677" height="0.721"/>
		
			<rect x="46.866" y="42.455" transform="matrix(0.2054 -0.9787 0.9787 0.2054 -3.3731 81.8238)" style="fill:#FFDA32;" width="3.679" height="1.069"/>
		
			<rect x="45.117" y="42.086" transform="matrix(0.2057 -0.9786 0.9786 0.2057 -4.4107 79.8048)" style="fill:#FFDA32;" width="3.683" height="1.067"/>
		
			<rect x="43.37" y="41.719" transform="matrix(0.2054 -0.9787 0.9787 0.2054 -5.4285 77.8208)" style="fill:#FFDA32;" width="3.68" height="1.068"/>
		
			<rect x="41.623" y="41.353" transform="matrix(0.2061 -0.9785 0.9785 0.2061 -6.4844 75.7808)" style="fill:#FFDA32;" width="3.677" height="1.067"/>
	</g>
</g>
</svg>
