<?xml version="1.0" encoding="iso-8859-1"?>
<!-- Generator: Adobe Illustrator 16.0.0, SVG Export Plug-In . SVG Version: 6.00 Build 0)  -->
<!DOCTYPE svg PUBLIC "-//W3C//DTD SVG 1.1//EN" "http://www.w3.org/Graphics/SVG/1.1/DTD/svg11.dtd">
<svg version="1.1" id="Layer_1" xmlns="http://www.w3.org/2000/svg" xmlns:xlink="http://www.w3.org/1999/xlink" x="0px" y="0px"
	 width="64px" height="64px" viewBox="0 0 64 64" style="enable-background:new 0 0 64 64;" xml:space="preserve">
<g id="_x31_2">
	<g>
		<g>
			<path style="fill:#414042;" d="M44.354,29.971c1.154,3.515,2.023,11.638,0.171,14.929c5.118-9.09,4.484-19.599,4.039-29.611
				C48.207,7.288,41.521,0.393,33.441,0.014c-2.906-0.135-6.3,0.671-7.511,3.316c-2.641-0.724-5.515,0.511-7.435,2.464
				c-9.837,10.013-0.236,27.239,5.252,36.848c-1.541-2.697-0.918-6.682-1.613-9.625c-0.642-2.72-1.1-4.494,0.531-7.166
				c0.145-0.237,0.314-0.48,0.572-0.583c0.38-0.151,0.824,0.067,1.063,0.397s0.322,0.745,0.399,1.146
				c0.68,3.506,1.422,8.823,3.829,11.639c2.182,2.551,6.466,3.02,7.964-0.369c1.686-3.816,4.38-7.219,5.958-11.216
				c0.365-0.259,0.795,0.228,0.972,0.639C43.77,28.313,44.08,29.136,44.354,29.971z"/>
		</g>
		<g>
			<g>
				<path style="fill:#E2B477;" d="M20.943,23.753c-0.215-0.571-0.178-1.112-0.575-1.634c-0.362-0.474-0.928-0.807-1.522-0.819
					c-1.898-0.04-2.123,2.276-1.406,3.542c0.357,0.633,0.889,1.156,1.223,1.802c0.566,1.093,0.737,2.681,2.264,2.851
					c0.888,0.098,1.369-0.217,1.59-0.724c0.421-0.966-0.108-2.63-0.599-3.468C21.623,24.797,21.15,24.301,20.943,23.753z"/>
			</g>
			<g>
				<g>
					<path style="fill:#D2A965;" d="M24.673,30.507c0.595,3.729,1.381,8.262,0.117,11.5c-1.443,3.701-3.268,4.441-6.575,5.719
						c1.541,2.102,2.992,4.285,4.803,6.158c1.812,1.873,4.042,3.445,6.593,3.984c0.778,0.164,1.589,0.203,2.39,0.145v-27.6
						C29.147,30.326,24.735,30.247,24.673,30.507z"/>
				</g>
				<g>
					<path style="fill:#E2B477;" d="M21.846,11.247c-3.205,4.459-3.104,10.67-1.172,15.615C22.234,30.852,27.16,37.68,32,37.535
						V6.266C28.164,6.093,24.061,8.167,21.846,11.247z"/>
				</g>
				<g>
					<path style="fill:#6A3D9B;" d="M31.997,64v-7.559c-7.589-0.6-11.088-5.043-13.782-8.711c-7.851,2.961-9.241,3.586-11.875,7.533
						c-0.216,0.322-0.392,0.67-0.528,1.033C5.415,57.365,4.598,59.893,3.96,64H31.997z"/>
				</g>
			</g>
		</g>
		<g>
			<g>
				<path style="fill:#EDBF88;" d="M45.155,21.3c-0.596,0.013-1.161,0.346-1.522,0.819c-0.397,0.521-0.36,1.063-0.576,1.634
					c-0.206,0.548-0.68,1.044-0.975,1.55c-0.488,0.838-1.018,2.502-0.598,3.468c0.221,0.507,0.703,0.821,1.59,0.724
					c1.527-0.17,1.697-1.758,2.264-2.851c0.335-0.646,0.866-1.169,1.224-1.802C47.277,23.577,47.053,21.26,45.155,21.3z"/>
			</g>
			<g>
				<g>
					<path style="fill:#E2B477;" d="M39.211,42.008c-1.264-3.238-0.478-7.771,0.117-11.5c-0.063-0.261-4.475-0.182-7.328-0.094v27.6
						c0.801,0.059,1.611,0.02,2.391-0.145c2.55-0.539,4.78-2.111,6.592-3.984c1.811-1.873,3.262-4.057,4.803-6.158
						C42.479,46.449,40.653,45.709,39.211,42.008z"/>
				</g>
				<g>
					<path style="fill:#EDBF88;" d="M32,6.266l-0.09,31.269c4.841,0.145,9.856-6.683,11.416-10.673
						c1.933-4.945,2.034-11.156-1.172-15.615C39.939,8.167,35.836,6.093,32,6.266z"/>
				</g>
				<g>
					<path style="fill:#5D388E;" d="M60.04,64c-0.639-4.107-1.454-6.635-1.853-7.703c-0.135-0.363-0.312-0.711-0.527-1.033
						c-2.634-3.947-4.024-4.572-11.875-7.533c-2.694,3.668-6.192,8.111-13.783,8.711V64H60.04z"/>
				</g>
			</g>
		</g>
		<g>
			<path style="fill:#414042;" d="M44.369,9.342c-0.368-0.295-6.331-4.049-6.773-4.123c-0.441-0.074-10.75,0.147-11.044,0.441
				c-0.294,0.295-7.068,5.08-7.583,5.154v10.159l0.897,2.356c0,0-0.456-3.977,0.722-6.701c1.231-2.845,4.153-4.776,5.89-7.336
				c-1.6,2.357,7.088,4.723,7.813,4.975c3.534,1.235,5.52,5.294,6.059,8.756c0.947,6.084,0.888,12.324-0.175,18.388
				c2.379-3.736,4.109-8.074,4.738-12.472c0.483-3.383,1.09-7.963,0.746-11.297C45.5,16.095,45.607,10.333,44.369,9.342z"/>
		</g>
	</g>
</g>
</svg>
