<?xml version="1.0" encoding="iso-8859-1"?>
<!-- Generator: Adobe Illustrator 16.0.0, SVG Export Plug-In . SVG Version: 6.00 Build 0)  -->
<!DOCTYPE svg PUBLIC "-//W3C//DTD SVG 1.1//EN" "http://www.w3.org/Graphics/SVG/1.1/DTD/svg11.dtd">
<svg version="1.1" id="Layer_1" xmlns="http://www.w3.org/2000/svg" xmlns:xlink="http://www.w3.org/1999/xlink" x="0px" y="0px"
	 width="64px" height="64px" viewBox="0 0 64 64" style="enable-background:new 0 0 64 64;" xml:space="preserve">
<g>
	<g>
		<path style="fill:#774E3E;" d="M32.002,0H32l0,0C14.133,0,14.236,25.78,17.238,34.518c0.314,0.916,7.418,2.571,14.742,2.646
			c7.326,0.074,14.385-1.763,14.783-2.646C50.359,26.563,48.592,0,32.002,0z"/>
		<path style="fill:#F9D5BE;" d="M55.99,45.469c-0.266-5.044-7.631-6.04-13.338-6.969c-3.053-0.497-4.01-3.665-4.246-6.509
			c-1.934,1.792-4.428,3.622-6.406,3.622c-1.955,0-4.461-1.839-6.404-3.635c-0.236,2.847-1.191,6.024-4.246,6.521
			c-5.709,0.929-13.074,1.925-13.34,6.969C7.744,50.512,7.877,64,7.877,64h23.824h0.598h23.824
			C56.123,64,56.256,50.512,55.99,45.469z"/>
		<path style="fill:#F9D5BE;" d="M38.406,31.991c-0.039-0.477-0.066-0.945-0.072-1.389H25.666c-0.006,0.439-0.031,0.904-0.07,1.376
			c1.943,1.796,4.449,3.635,6.404,3.635C33.979,35.613,36.473,33.783,38.406,31.991z"/>
		<path style="opacity:0.55;fill:#DBBBA9;" d="M38.406,31.991c-0.039-0.477-0.066-0.945-0.072-1.389H25.666
			c-0.006,0.439-0.031,0.904-0.07,1.376c1.943,1.796,4.449,3.635,6.404,3.635C33.979,35.613,36.473,33.783,38.406,31.991z"/>
		<path style="fill:#F9D5BE;" d="M44.715,16.731c-0.629-0.219-1.207,0.146-1.656,0.628c0.02-0.626,0.016-1.103-0.004-1.356
			C43.055,8.53,37.188,4.284,32,4.275C26.813,4.284,20.945,8.53,20.945,16.003c-0.018,0.254-0.023,0.73-0.002,1.356
			c-0.451-0.481-1.029-0.847-1.658-0.628c-1.004,0.349-0.508,6.467,2.426,7.563c0.09,0.034,0.158,0.042,0.24,0.063
			c0.381,1.413,0.889,2.787,1.58,3.923c0.795,1.31,5.4,6.434,8.469,6.434c3.109,0,7.674-5.124,8.469-6.434
			c0.691-1.136,1.201-2.51,1.582-3.923c0.08-0.021,0.15-0.028,0.238-0.063C45.223,23.198,45.721,17.08,44.715,16.731z"/>
		<circle style="fill:#FFFFFF;" cx="42.885" cy="25.78" r="0.783"/>
		<circle style="fill:#FFFFFF;" cx="21.179" cy="25.78" r="0.782"/>
		<path style="fill:#774E3E;" d="M32.354,1.44c-9.727,0-13.275,7.069-12.938,12.83c0.152,2.59,1.27,5.996,1.27,5.996
			c0.125,0.172,0.582,0.068,0.549-0.244c-0.838-7.961,4.361-4.734,3.98-11.885c0,0,3.293,7.024,12.645,5.146
			c2.709-0.759,3.918-1.773,3.918-1.773c0.014-0.013,0.02-0.021,0.02-0.021c0.988,2.256,1.428,5.948,1.012,8.533
			c-0.051,0.311,0.432,0.416,0.559,0.244c0,0,1.215-3.891,1.219-6.484C44.588,11.214,43.395,1.44,32.354,1.44z"/>
	</g>
	<g>
		<path d="M55.271,45.511c-0.258-4.893-7.404-5.858-12.939-6.76c-1.682-0.273-2.707-1.385-3.322-2.8
			c0.531,2.998-2.131,10.864-7.023,9.721c-5.131,1.026-7.053-9.591-6.996-9.721c-0.615,1.415-1.641,2.526-3.322,2.8
			c-5.535,0.901-12.682,1.867-12.939,6.76S8.6,63.662,8.6,63.662H55.4C55.4,63.662,55.527,50.403,55.271,45.511z"/>
		<path d="M55.99,45.469c-0.266-5.044-7.631-6.04-13.338-6.969c-1.734-0.282-2.791-1.429-3.426-2.887l-0.287,4.356L32,50.558
			L25.125,39.97l-0.352-4.356c-0.633,1.458-1.691,2.604-3.424,2.887c-5.709,0.929-13.074,1.925-13.34,6.969
			C7.744,50.512,7.877,64,7.877,64h48.246C56.123,64,56.256,50.512,55.99,45.469z"/>
		<rect x="46.705" y="55.264" style="fill:#FFFFFF;" width="9.451" height="8.736"/>
		<rect x="7.844" y="55.264" style="fill:#FFFFFF;" width="9.451" height="8.736"/>
		<path style="fill:#FFFFFF;" d="M32,45.672c0,0-1.563,4.138-6.049,2.889c-2.502-0.696-4.459-3.499-6.051-9.826
			c0,0,4.627-2.2,5.002-3.438C24.902,35.297,27.561,45.261,32,45.672z"/>
		<path style="fill:#FFFFFF;" d="M31.984,45.672c0,0,1.563,4.138,6.049,2.889c2.5-0.696,4.459-3.499,6.051-9.826
			c0,0-4.627-2.2-5.002-3.438C39.082,35.297,36.424,45.261,31.984,45.672z"/>
		<polygon style="fill:#FFFFFF;" points="45.471,38.978 42.059,54.599 21.91,54.599 18.498,38.978 17.848,39.089 20.553,64 
			43.416,64 46.121,39.089 		"/>
	</g>
</g>
</svg>
