<?xml version="1.0" encoding="iso-8859-1"?>
<!-- Generator: Adobe Illustrator 16.0.0, SVG Export Plug-In . SVG Version: 6.00 Build 0)  -->
<!DOCTYPE svg PUBLIC "-//W3C//DTD SVG 1.1//EN" "http://www.w3.org/Graphics/SVG/1.1/DTD/svg11.dtd">
<svg version="1.1" id="Layer_1" xmlns="http://www.w3.org/2000/svg" xmlns:xlink="http://www.w3.org/1999/xlink" x="0px" y="0px"
	 width="64px" height="64px" viewBox="0 0 64 64" style="enable-background:new 0 0 64 64;" xml:space="preserve">
<g id="_x37_">
	<g>
		<g>
			<g>
				<polygon style="fill:#E2A77D;" points="39.775,32.525 39.812,33.229 40.105,39.045 31.887,46.523 29.013,43.895 24.352,39.633 
					23.989,32.482 				"/>
				<path style="fill:#FFC28E;" d="M30.677,10.527c0.932,0.25,2.194-0.951,2.797-1.439c1.091-0.889,2.331-1.596,3.651-2.078
					c0.967-0.354,2.031-0.59,3.021-0.311c1.456,0.414,2.416,1.879,2.687,3.367c0.55,3.033-0.975,6.172-0.486,9.209
					c0.067,0.426,0.185,1.389,0.862,0.924c0.281-0.191,0.102-0.713,0.402-0.943c0.663-0.51,0.988,0.305,1.039,0.795
					c0.186,1.75,0.013,3.676-0.74,5.309c-0.436,0.945-1.097,1.242-1.737,1.943c-0.71,0.775-0.512,2.217-0.744,3.152
					c-0.157,0.637-0.415,1.223-0.778,1.742c-0.773,1.105-2.188,1.678-3.087,2.693c-0.843,0.951-1.617,1.898-2.81,2.545
					c-0.718,0.391-1.743,0.449-2.689,0.453c-0.123,0.012-0.247,0.023-0.372,0.031l-1.395-27.479
					C30.424,10.471,30.554,10.494,30.677,10.527z"/>
				<path style="fill:#F0B784;" d="M17.737,21.416c0.001-0.492,0.242-1.336,0.954-0.895c0.322,0.197,0.196,0.734,0.495,0.898
					c0.722,0.393,0.739-0.578,0.765-1.008c0.095-1.635-0.769-3.156-0.641-4.764c0.116-1.475-0.033-2.992,0.432-4.438
					c0.402-1.254,1.198-2.408,2.329-3.08c1.045-0.623,2.348-0.799,3.521-0.473c1.033,0.283,1.749,0.908,2.444,1.686
					c0.757,0.848,1.114,0.84,2.262,1.098l1.395,27.479c-0.834,0.064-1.695,0.064-2.351-0.209c-1.25-0.523-2.117-1.387-3.052-2.25
					c-0.997-0.92-2.461-1.344-3.344-2.365c-0.413-0.48-0.729-1.037-0.951-1.654c-0.325-0.906-0.274-2.361-1.059-3.061
					c-0.708-0.633-1.396-0.861-1.925-1.758C18.098,25.076,17.729,23.176,17.737,21.416z"/>
				<path style="fill:#2B0D04;" d="M43.84,17.965c-0.214,1-0.364,1.996-0.334,2.986l-1.256,0.064
					c-0.025-0.244-0.024-0.479-0.024-0.621c0.004-0.674-0.05-1.207-0.121-1.875c-0.312-2.916,0.736-12.545-5.261-9.514
					c-0.881,0.445-1.657,1.074-2.52,1.555c-2.485,1.387-5.676,1.42-8.189,0.086c-1.401-0.744-3.637-2.469-5.105-0.887
					c-0.958,1.031-0.596,3.75-0.677,5.018c-0.111,1.754-0.285,3.354-0.144,5.145c0.058,0.727,0.245,1.426,0.266,2.158
					c-1.932,0.723-1.517-1.422-1.89-2.537c-0.62-1.852-0.764-3.547-0.864-5.447c-0.099-1.859-0.753-3.889-0.169-5.738
					c1.146-3.627,6.017-5.631,9.396-6.381c3.646-0.811,7.654-0.623,11.221,0.473c1.475,0.453,3.747,1.162,4.786,2.389
					c1.049,1.236,1.155,3.529,1.443,5.109C44.879,12.596,44.394,15.369,43.84,17.965z"/>
			</g>
		</g>
		<g>
			<g>
				<g>
					<g>
						<path style="fill:#FFFFFF;" d="M24.445,38.188l-3.977,3.396c0.746,1.453,1.694,3.068,2.898,4.752
							c1.572,2.197,3.192,3.967,4.642,5.359c0,0,1.091-4.289,3.958-6.422C27.6,43.809,24.445,38.188,24.445,38.188z"/>
					</g>
					<g>
						<path style="fill:#414042;" d="M31.973,62.523l-0.006-17.252c0,0-1.908,4.012-4.095,2.941l-3.374-8.27l-2.973,1.342
							l-3.456,1.566l-1.065,0.322l-2.825,0.869l-4.044,1.23c-2.87,0.873-5.468,2.467-7.548,4.629l-0.471,0.49
							c-0.646,0.676-1.089,1.51-1.261,2.428C0.659,53.855,0.362,60.596,0,62.523H31.973z"/>
					</g>
				</g>
				<g>
					<g>
						<path style="fill:#231F20;" d="M64,62.523c-0.362-1.928-0.66-8.668-0.856-9.703c-0.171-0.918-0.614-1.752-1.261-2.428l0,0
							c-2.388-2.484-5.372-4.314-8.668-5.316l-3.395-1.033l-2.826-0.869l-1.064-0.322l-3.456-1.566l-2.973-1.342l-3.374,8.27
							c-2.187,1.07-4.095-2.941-4.095-2.941l-0.006,17.252H64z"/>
					</g>
				</g>
			</g>
			<g>
				<g>
					<path style="fill:#BAD1DD;" d="M38.69,62.523l1.754-9.771l-7.635-8.361h-1.027c0,0-8.029,8.279-7.972,8.879l1.733,9.254H38.69z
						"/>
				</g>
				<g>
					<path style="fill:#3D5872;" d="M30.65,49.951l-1.662,12.572h6.255L33.58,49.951c-0.086-0.383-0.03-0.785,0.158-1.133
						l1.03-1.902c0.047-0.115,0.019-0.246-0.069-0.332c-0.397-0.387-0.794-0.775-1.191-1.162c-0.27-0.264-0.594-0.51-0.751-0.854
						c-0.112-0.248-0.42-0.801-0.778-0.566c-0.313,0.205-0.418,0.527-0.621,0.801c-0.201,0.271-0.518,0.506-0.762,0.744
						c-0.354,0.346-0.708,0.691-1.063,1.037c-0.09,0.086-0.117,0.217-0.07,0.332l1.03,1.902
						C30.682,49.166,30.737,49.568,30.65,49.951z"/>
				</g>
				<g>
					<path style="fill:#E4F4FF;" d="M32.321,43.709c-0.116,0.111-0.294,0.111-0.412,0l-7.669-7.291l-1.714,5.291l3.314,11.561
						l6.023-8.93c0.123-0.184,0.38-0.184,0.502,0l6.024,8.93l3.314-11.561l-1.714-5.291L32.321,43.709z"/>
				</g>
				<g>
					<path style="fill:#414042;" d="M43.076,62.523l6.38-12.646l-6.677-1.789l7.321-2.398c-1.052-1.242-1.731-1.82-3.334-2.969
						c-2.968-1.732-4.979-2.584-5.634-2.777L37.777,52.17l-1.784,10.354H43.076z"/>
					<path style="fill:#231F20;" d="M14.778,49.877l6.339,12.646h7.064l-2.766-13.369l-2.317-9.211
						c-0.655,0.189-3.359,0.766-5.636,2.561c-1.291,0.926-2.244,1.887-3.334,3.186l7.32,2.398L14.778,49.877z"/>
				</g>
			</g>
		</g>
	</g>
	<g id="_x39_">
		<path style="fill:#020202;" d="M44.067,18.887l-0.356-0.883c0,0-3.946,0.035-5.856,0.098c-1.871,0.059-4.102,0.639-5.017,1.795
			l-0.027-0.047c-0.529,0.277-0.983,0.383-1.356,0.396c-0.374,0.01-0.833-0.066-1.38-0.311l-0.023,0.051
			c-0.988-1.096-3.25-1.531-5.122-1.473c-1.91,0.063-6.576,0.729-6.576,0.729l-0.27,1.213l1.943,0.979
			c-0.013,0.16-0.014,0.326,0.005,0.494c0.275,2.455,2.801,3.664,5.152,3.588c0.064-0.002,0.128-0.004,0.191-0.008
			c0.438-0.027,0.871-0.102,1.284-0.219c1.757-0.5,3.127-1.758,3.761-3.457c0.088-0.234,0.127-0.467,0.121-0.693
			c0.344,0.078,0.66,0.111,0.944,0.104c0.285-0.012,0.598-0.063,0.936-0.164c0.009,0.227,0.063,0.455,0.166,0.686
			c0.741,1.652,2.189,2.822,3.974,3.209c0.42,0.09,0.855,0.137,1.295,0.137c0.063-0.002,0.128-0.002,0.192-0.004
			c2.352-0.076,4.795-1.443,4.912-3.91c0.009-0.17-0.003-0.334-0.026-0.494L44.067,18.887z M29.441,21.504
			c-0.521,1.396-1.643,2.43-3.076,2.836c-0.339,0.096-0.694,0.156-1.055,0.18l-0.158,0.008c-1.874,0.061-3.88-0.852-4.088-2.707
			c-0.051-0.457,0.071-0.842,0.376-1.176c0.606-0.662,1.922-1.09,3.521-1.141c1.948-0.063,3.784,0.443,4.366,1.201
			C29.517,20.951,29.552,21.205,29.441,21.504z M38.017,24.115l-0.159,0.004c-0.36,0-0.719-0.037-1.063-0.111
			c-1.457-0.316-2.643-1.275-3.251-2.635c-0.13-0.291-0.11-0.547,0.063-0.805c0.532-0.793,2.332-1.416,4.28-1.479
			c1.599-0.051,2.938,0.291,3.586,0.914c0.326,0.314,0.473,0.689,0.451,1.148C41.833,23.02,39.89,24.057,38.017,24.115z"/>
	</g>
</g>
</svg>
