<?xml version="1.0" encoding="iso-8859-1"?>
<!-- Generator: Adobe Illustrator 16.0.0, SVG Export Plug-In . SVG Version: 6.00 Build 0)  -->
<!DOCTYPE svg PUBLIC "-//W3C//DTD SVG 1.1//EN" "http://www.w3.org/Graphics/SVG/1.1/DTD/svg11.dtd">
<svg version="1.1" id="Layer_1" xmlns="http://www.w3.org/2000/svg" xmlns:xlink="http://www.w3.org/1999/xlink" x="0px" y="0px"
	 width="64px" height="64px" viewBox="0 0 64 64" style="enable-background:new 0 0 64 64;" xml:space="preserve">
<g>
	<path style="fill:#FFD7AF;" d="M20.725,30.238c0,0-1.873,1.996-2.783-2.759c-0.973-5.083-0.938-7.841,0.805-8.422
		c1.117-0.372,1.436,0.578,1.436,0.578L20.725,30.238z"/>
	<path style="fill:#FFD7AF;" d="M24.486,37.402v5.928c0,1.469,0.742,2.839,1.969,3.646c2.184,1.435,5.416,3.549,5.48,3.549
		c0.068,0,3.359-2.118,5.582-3.553c1.242-0.802,1.996-2.185,1.996-3.662v-6.253L24.486,37.402z"/>
	<path style="fill:#F5CDA5;" d="M24.486,40.045c2.023,2.24,4.555,3.462,7.363,3.462c2.947,0,5.596-1.334,7.664-3.792v-2.658
		l-15.027,0.346V40.045z"/>
	<path style="fill:#FED9AE;" d="M31.914,41.709c6.859,0,12.123-7.188,12.123-19.095c0-14.847-4.355-18.296-12.123-18.296
		c-7.77,0-12.125,3.449-12.125,18.296C19.789,34.521,25.053,41.709,31.914,41.709z"/>
	<path style="fill:#FFD7AF;" d="M43.275,30.238c0,0,1.873,1.996,2.783-2.759c0.973-5.083,0.939-7.841-0.805-8.422
		c-1.115-0.372-1.436,0.578-1.436,0.578L43.275,30.238z"/>
	<path style="fill:#FFE1B9;" d="M32.064,4.321V41.7c6.787-0.107,11.973-7.268,11.973-19.086C44.037,7.865,39.738,4.366,32.064,4.321
		z"/>
	<path style="fill:#584A49;" d="M31.85,0C18.713,0,14.691,12.688,19.725,24.395h1.439c0,0-1.129-9.039,3.574-14.375
		c0,0-1.723,8.222,7.262,8.222c0,0-5.609-5.228-2.504-8.331c0,0,1.797,7.46,9.965,7.46c0,0-2.777-2.341-1.635-6.752
		c0,0,5.609,8.44,5.445,13.776h1.361C49.17,12.96,46.973,0,31.85,0z"/>
	<path style="fill:#DB7B13;" d="M53.18,53.016c-0.293-0.927-0.887-1.729-1.688-2.279L39.514,42.51c0,0-1.727,5.944-7.514,5.944
		s-7.512-5.944-7.512-5.944L12.51,50.736c-0.803,0.55-1.396,1.353-1.689,2.279L7.352,64h23.863h0.699h24.734L53.18,53.016z"/>
</g>
</svg>
