<?xml version="1.0" encoding="iso-8859-1"?>
<!-- Generator: Adobe Illustrator 16.0.0, SVG Export Plug-In . SVG Version: 6.00 Build 0)  -->
<!DOCTYPE svg PUBLIC "-//W3C//DTD SVG 1.1//EN" "http://www.w3.org/Graphics/SVG/1.1/DTD/svg11.dtd">
<svg version="1.1" id="Layer_1" xmlns="http://www.w3.org/2000/svg" xmlns:xlink="http://www.w3.org/1999/xlink" x="0px" y="0px"
	 width="64px" height="64px" viewBox="0 0 64 64" style="enable-background:new 0 0 64 64;" xml:space="preserve">
<g>
	<path style="fill-rule:evenodd;clip-rule:evenodd;fill:#FC611F;" d="M26.485,46.378l9.088,2.646
		c2.372-13.847,9.083-19.556,9.096-33.633c0.009-9.77-8.5-9.729-16.7-10.579c-4.791-0.495-5.976,2.254-8.008,3.821
		C10.587,15.869,24.328,39.131,26.485,46.378z"/>
	<path style="fill-rule:evenodd;clip-rule:evenodd;fill:#FC611F;" d="M41.282,7.459c5.222,6.555,3.497,12.948,1.309,17.747
		c-1.831,9.474-3.328,9.475-6.916,12.848c0.008-0.263,0.173-1.228,0.001-2.03c-0.816-4.571,3.006-9.626,3.521-14.516
		c0.531-5.052-0.978-13.221-4.34-17.358C36.372,3.664,37.916,3.234,41.282,7.459z"/>
	<path style="fill-rule:evenodd;clip-rule:evenodd;fill:#0A818C;" d="M23.829,45.857c0.554-1.189,0.939-1.762,2.353-1.823
		l0.763,2.559l-1.764,1.398l-1.407-0.175L23.829,45.857z"/>
	<path style="fill-rule:evenodd;clip-rule:evenodd;fill:#0A818C;" d="M39.064,45.718c-0.553-1.19-0.939-1.622-2.353-1.684
		l-0.763,2.559l1.764,1.399l1.408-0.176L39.064,45.718z"/>
	<path style="fill-rule:evenodd;clip-rule:evenodd;fill:#F2EFDC;" d="M11.287,63.935c0.006,0.019,0.012,0.044,0.018,0.065h39.108
		l0.126-1.004l6.21-4.324c-0.104-10.094-10.168-7.488-15.392-9.603c-4.265-1.727-4.642-5.324-4.293-12.651l-12.466-0.161
		c1.243,4.762,1.078,9.781-0.678,12.032c-0.448,0.576-2.327,1.028-4.296,1.396c-2.69,0.505-6.066,0.902-7.518,1.205
		c-4.097,0.853-4.617,6.186-4.4,8.351C7.987,62.068,10.555,61.59,11.287,63.935z"/>
	<path style="fill-rule:evenodd;clip-rule:evenodd;fill:#F2EFDC;" d="M6.997,64h50.004c0.048-0.035,0.099-0.068,0.147-0.104
		c0.035-3.825-0.256-7.229-0.731-9.059c-0.424-1.631-2.026-3.354-3.506-4.085c-1.557-0.77-3.414-1.043-5.303-1.072
		c-5.934-0.092-7.54-0.366-8.836-2.359c-1.827-2.09-1.968-5.472-1.709-10.902l-12.466-0.161c1.172,4.488,1.127,9.034-0.358,11.444
		c-2.303,2.43-7.135,1.733-9.707,1.979c-3.569,0.061-5.345,1.652-6.689,4.948c-0.814,1.997-1.033,5.651-0.989,9.27
		C6.9,63.933,6.95,63.965,6.997,64z"/>
	<path style="fill-rule:evenodd;clip-rule:evenodd;fill:#FDC00F;" d="M57.001,64c0.048-0.035,0.099-0.068,0.147-0.104
		c0.035-3.825-0.256-7.229-0.731-9.059c-0.424-1.631-2.026-3.354-3.506-4.085c-1.557-0.77-3.414-1.043-5.303-1.072
		c-5.934-0.092-6.84,0.054-8.135-1.939c-0.348,1.15-2.529,11.104-5.099,16.26H57.001z"/>
	<path style="fill-rule:evenodd;clip-rule:evenodd;fill:#FDC00F;" d="M6.997,64h22.021c-2.481-5.095-5.116-14.854-5.899-15.948
		c-2.303,2.43-6.015,1.383-8.587,1.628c-3.569,0.061-5.345,1.652-6.689,4.948c-0.814,1.997-1.033,5.651-0.989,9.27
		C6.9,63.933,6.95,63.965,6.997,64z"/>
	<path style="fill-rule:evenodd;clip-rule:evenodd;fill:#14B0BF;" d="M38.239,64h12.008c-0.276-0.585-0.565-1.182-0.883-1.8
		c-0.944-2.426-2.544-7.698-1.756-12.521c-1.587-0.075-3.196-0.063-4.666-0.219c-0.421-0.109-0.824-0.237-1.204-0.392
		c-1.882-0.764-2.332-2.396-2.971-4.049C39.405,51.966,38.718,57.663,38.239,64z"/>
	<path style="fill-rule:evenodd;clip-rule:evenodd;fill:#DCD9C8;" d="M24.597,36.257c1.179,5.108,1.37,9.202-1.178,12.143
		c6.826-0.77,11.169-2.936,13.466-8.707c-0.02-1.382,0.091-1.428,0.178-3.274L24.597,36.257z"/>
	<path style="fill-rule:evenodd;clip-rule:evenodd;fill:#F2EFDC;" d="M18.944,20.421c-1.162-1.734-2.528-0.555-2.105,1.548
		c0.346,1.713,1.137,3.66,1.575,5.612c0.299,1.337,0.78,2.288,1.955,2.038l-0.13-5.572L18.944,20.421z"/>
	<path style="fill-rule:evenodd;clip-rule:evenodd;fill:#F2EFDC;" d="M43.185,20.421c1.161-1.734,2.528-0.555,2.104,1.548
		c-0.346,1.713-1.135,3.66-1.573,5.612c-0.3,1.337-0.782,2.288-1.956,2.038l0.13-5.572L43.185,20.421z"/>
	<path style="fill-rule:evenodd;clip-rule:evenodd;fill:#F2EFDC;" d="M35.834,38.869c1.431-1.272,2.52-2.465,3.874-4.651
		c1.606-2.593,2.237-4.375,2.908-8.862c0.513-3.43,0.938-6.994,0.372-10.231C41.892,8.838,37.754,4.057,31.064,4.079
		C23.657,4.104,20.036,7.044,18.95,14.13c-0.711,4.629-0.423,7.618,0.358,11.521c0.867,4.324,1.618,6.758,3.454,9.341
		c1.161,1.631,2.062,2.726,3.229,3.74c2.374,2.063,3.657,2.976,4.98,2.976C32.331,41.707,33.725,40.745,35.834,38.869z"/>
	<path style="fill-rule:evenodd;clip-rule:evenodd;fill:#14B0BF;" d="M13.087,64h11.628c-0.48-6.39-1.323-11.668-0.679-18.664
		c-0.64,1.651-0.949,2.83-2.832,3.593c-0.38,0.153-0.782,0.282-1.203,0.394c-1.471,0.154-3.079,0.143-4.666,0.217
		C16.124,54.362,14.944,59.703,14,62.13C13.647,62.815,13.355,63.424,13.087,64z"/>
	<path style="fill-rule:evenodd;clip-rule:evenodd;fill:#FC611F;" d="M22.219,4.825c5.436-4.988,9.583-5.451,14.516-1.711
		c-0.359,0.104,3.329,3.276,4.48,4.896c0.808,1.138,1.165,4.358,0.706,4.358c-2.817,3.693-13.239,3.123-19.12,7.921
		c-2.362,1.927-2.87,3.83-2.925,6.33C16.754,22.648,13.917,12.922,22.219,4.825z"/>
	<path style="fill-rule:evenodd;clip-rule:evenodd;fill:#FC611F;" d="M40.523,9.364c0.514,2.625,2.634,5.755,2.464,9.597
		c-0.093,2.083-0.179,4.21-0.586,7.016c0.793-2.669,1.756-6.178,2.014-7.564c0.698-3.754-1.032-4.816-3.826-10.214L40.523,9.364z"/>
	<path style="fill-rule:evenodd;clip-rule:evenodd;fill:#14B0BF;" d="M16.782,15.14l2.186-1.554l6.855-2.827l11.932-0.438
		l5.634,1.896c0.21-4.565,0.01-7.946-4.686-10.34C28.862-3.146,14.589,2.127,16.782,15.14z"/>
	<path style="fill-rule:evenodd;clip-rule:evenodd;fill:#0A818C;" d="M16.833,15.441c5.902-2.849,13.423-4.114,17.858-4.176
		c4.84-0.067,9.774,1.306,9.939,4.507c11.007-7.642,4.942-8.822-5.575-8.707c-6.539,0.071-14.793,1.67-18.33,3.66
		C18.15,12.176,16.349,14.34,16.833,15.441z"/>
</g>
</svg>
