<?xml version="1.0" encoding="iso-8859-1"?>
<!-- Generator: Adobe Illustrator 16.0.0, SVG Export Plug-In . SVG Version: 6.00 Build 0)  -->
<!DOCTYPE svg PUBLIC "-//W3C//DTD SVG 1.1//EN" "http://www.w3.org/Graphics/SVG/1.1/DTD/svg11.dtd">
<svg version="1.1" id="Layer_1" xmlns="http://www.w3.org/2000/svg" xmlns:xlink="http://www.w3.org/1999/xlink" x="0px" y="0px"
	 width="64px" height="64px" viewBox="0 0 64 64" style="enable-background:new 0 0 64 64;" xml:space="preserve">
<g id="_x31_0_1_">
	<g>
		<g id="XMLID_1_">
			<path style="fill:#706451;" d="M30.458,64c-0.555-0.49-1.137-0.986-1.764-1.48c-2.182-1.722-4.283-3.021-6.123-3.998
				c0,0,3.316-4.762,2.941-4.762l-6.936,1.166c0,0-0.43-0.23-0.174-5.333c0.857-3.854,2.766-6.14,4.279-7.405
				c-0.246,0.084-9.174,3.726-13.891,5.191C6.382,48.127,3.827,49,2.716,51.502c-0.438,0.983-0.395,2.472-0.52,3.531
				C1.847,58.01,1.661,61.007,1.511,64H30.458z"/>
			<path style="fill:#877960;" d="M33.882,63.494c0,0-11.539-13.606-9.84-18.964c0.746-2.112,0.781-3.745,0.781-3.745
				s-0.291,0.115-0.746,0.379c-0.391,0.22-0.945,0.571-1.566,1.094c0,0-0.004,0-0.008,0.004c-1.537,1.301-3.477,3.65-4.348,7.613
				c-0.258,5.244,0.178,5.482,0.178,5.482l7.045-1.199c-0.623,1.182-3.408,4.882-3.408,4.882c1.871,1.003,4.426,2.353,6.641,4.123
				c0.35,0.279,0.666,0.558,0.994,0.837h0.9h3.156h0.041c-0.008-0.009-0.018-0.022-0.027-0.033L33.882,63.494z"/>
			<path style="fill:#877960;" d="M62.489,64c-0.1-1.33-0.203-2.666-0.322-4.02c-0.33-3.739-0.301-8.297-2.742-11.429
				c-1.775-2.274-4.807-2.774-7.412-3.569c-3.107-0.947-6.215-1.896-9.322-2.844c1.736,1.548,3.645,4.851,3.691,11.916
				c-2.01,0.388-5.432,0.626-6.416,0.225c0.854,0.725,3.523,3.176,3.525,3.178c-0.121-0.111-2.703,1.705-2.836,1.842
				c-1.828,1.897-6.135,1.864-7.369,4.195c-0.043,0.08-0.102,0.268-0.168,0.506H62.489z"/>
			<g>
				<path style="fill:#ECA982;" d="M24.616,35.428c-0.012,0.004-0.021,0.004-0.025,0.007c-0.01,0.004-0.016,0.004-0.016,0.004
					s0.08,0.459,0.158,1.187c0.211,1.881,0.398,5.575-0.887,7.905c1.264,2.825,2.008,5.519,7.908,5.698V34.242
					C28.399,34.606,25.019,35.34,24.616,35.428z"/>
				<path style="fill:#DE9F7A;" d="M38.8,35.949c-0.01-0.12-0.018-0.242-0.02-0.361c-0.008-0.052-0.008-0.099-0.012-0.149
					c-0.063-1.558-3.525-1.575-7.014-1.196v15.986c0.852,0.026,1.809,0,2.893-0.086c3.74-0.85,5.781-2.721,6.973-6.292
					C40.171,42.16,39.024,38.962,38.8,35.949z"/>
				<path style="fill:#CE9174;" d="M24.616,35.428c-0.012,0.004-0.021,0.004-0.025,0.007c-0.01,0.004-0.016,0.004-0.016,0.004
					s3.684,5.296,7.18,5.517v-6.713C28.399,34.606,25.019,35.34,24.616,35.428z"/>
				<path style="fill:#C0876C;" d="M38.769,35.438c-0.063-1.558-3.525-1.575-7.014-1.196v6.713c0.143,0.008,0.283,0.013,0.426,0.004
					c2.367-0.262,5.092-2.99,6.6-5.371C38.772,35.536,38.772,35.489,38.769,35.438z"/>
			</g>
			<path style="fill:#CAD9E0;" d="M36.093,49.463c-1.76,0.658-3.344,0.602-4.338,0.469c-0.32-0.042-0.582-0.092-0.766-0.129
				c-4.391-0.881-6.68-4.504-7.143-5.272c-1.234,3.89,4.611,12.126,7.908,16.349c1.244,1.592,2.127,2.615,2.127,2.615l4.953-9.19
				c0.094-0.177,0.186-0.354,0.277-0.534c1.535-3.034,2.379-6.378,2.404-9.78C41.257,44.649,39.804,48.074,36.093,49.463z"/>
			<path style="fill:#706451;" d="M44.507,57.631c0,0-2.752-1.768-3.871-2.766c1.377,0.212,4.221-0.016,5.988-0.357
				c-0.041-6.311-1.535-9.675-3.09-11.471c-0.281-0.348-0.564-0.649-0.844-0.898c-1.455-1.299-2.795-1.354-2.795-1.354
				s0.365,1.269,1.43,3.126c-0.004,0.027,0.191,0.055,0.191,0.078c-0.025,3.402-0.869,6.746-2.404,9.78
				c-0.092,0.18-0.184,0.357-0.277,0.534l-6.236,8.737c-0.146,0.301-0.289,0.624-0.43,0.959h0.223h1.572h0.707
				C37.708,60.944,44.446,57.676,44.507,57.631z"/>
		</g>
		<g>
			<path style="fill:#754C29;" d="M31.792,0c-0.012,0.001-0.025,0.002-0.037,0.002v0.013C31.767,0.01,31.78,0.005,31.792,0z"/>
			<path style="fill:#393B42;" d="M40.892,3.51c-0.803-0.479-1.664-0.87-2.568-1.152c-2.131-0.665-4.33-1.535-6.568-1.557v11.748
				c0.064,0.002,0.125,0.007,0.189,0.007c1.277,0.003,2.365,0.278,3.521,0.806c0.486,0.225,1.008,0.633,1.533,0.627
				c-0.145-0.222-0.326-0.447-0.529-0.627c0.785,0.549,1.834,0.891,2.625,1.436c1.252,0.864,2.609,2.327,2.99,3.841
				c0.48,1.897-0.49,3.908-0.037,5.837c0.139-0.518,0.797-1.463,1.297-1.918c-0.303,0.333,0.857,0.244,0.904,0.23
				c0.273-0.078,0.445-0.204,0.574-0.371c0.205-0.266,0.287-0.629,0.436-1.061c0.518-1.473,0.865-3.041,0.816-4.609
				c0.063,0.071,0.201,0.228,0.344,0.412c0.252,0.319,0.527,0.721,0.477,0.898C48.552,12.521,45.735,6.392,40.892,3.51z"/>
			<path style="fill:#414244;" d="M29.7,1.044c0.643-0.421,1.334-0.766,2.055-1.029V0.002c-1.412,0.059-2.814,0.308-4.156,0.742
				c-0.752,0.246-1.494,0.555-2.119,1.039c-0.789,0.608-1.297,1.567-1.604,2.5c-0.652-0.286-2.213,0.081-2.891,0.374
				c-1.693,0.73-2.508,2.173-3.65,3.5c-0.441,0.517-0.805,0.989-1.088,1.487c-0.428,0.737-0.688,1.526-0.799,2.592
				c-0.137,1.278-0.059,2.57,0.02,3.854c0.201-0.66,0.518-1.31,0.963-1.838c0.031,0.586-0.32,1.031-0.441,1.583
				c-0.154,0.704-0.035,1.489,0.107,2.183c0.297,1.437,0.936,2.865,1.848,4.018c0.125,0.164,0.283,0.326,0.449,0.493
				c0.139,0.137,0.285,0.272,0.439,0.413c0.85,0.781,1.846,1.636,1.951,2.602c-0.221-2-0.846-3.763-0.723-5.647
				c0.016-0.271,0.053-0.547,0.104-0.826c0.082-0.428,0.205-0.864,0.389-1.313c0.082,0.248,0.23,0.51,0.299,0.759
				c0.1-2.498,1.494-3.256,2.902-5.027c0.635-0.8,1.518-1.412,1.713-2.477c0.729,0.932,1.457,0.595,2.451,0.815
				c1.342,0.3,2.449,0.685,3.836,0.722V0.801C31.073,0.794,30.39,0.863,29.7,1.044z"/>
			<path style="fill:#EBB39A;" d="M43.56,22.39c-0.643,0.376-1.305,1.32-1.514,2.086c-0.449-1.929,0.518-3.939,0.039-5.837
				c-0.383-1.514-1.738-2.979-2.988-3.84c-0.793-0.547-1.84-0.889-2.627-1.438c0.205,0.182,0.383,0.406,0.529,0.627
				c-0.527,0.008-1.047-0.401-1.535-0.625c-1.154-0.529-2.244-0.805-3.52-0.808c-0.064,0-0.125-0.005-0.189-0.007v26.715
				c1.76-0.012,1.916-0.366,2.693-0.937c0.934-0.685,1.938-1.15,2.955-1.704c0.434-0.236,0.766-0.496,1.045-0.796
				c0.371-0.396,0.652-0.859,0.943-1.444c0.301-0.598,1.457-3.09,1.92-3.675c-0.031,0.04,0.568,0.213,0.623,0.218
				c0.24,0.023,0.516-0.008,0.732-0.123c0.379-0.199,0.676-0.664,0.885-1.023c0.506-0.871,0.686-1.877,1.043-2.809
				c0.389-1.01,1.092-2.021,1.063-3.146C45.626,22.663,44.659,21.744,43.56,22.39z"/>
			<path style="fill:#F9BDA3;" d="M27.919,11.828c-0.992-0.22-1.721,0.113-2.451-0.818c-0.197,1.064-1.076,1.68-1.713,2.479
				c-1.408,1.771-2.803,2.529-2.902,5.028c-0.068-0.249-0.217-0.512-0.299-0.762c-0.186,0.45-0.307,0.888-0.389,1.316
				c-0.006,0.282-0.041,0.558-0.104,0.825c-0.123,1.883,0.5,3.646,0.723,5.645c-0.125-1.133-1.484-2.12-2.389-3.014
				c-0.076,0.064-0.154,0.127-0.232,0.188c-0.082,0.063-0.152,0.134-0.207,0.212c-0.801,1.13,0.396,3.018,0.793,4.044
				c0.316,0.822,0.49,1.697,0.875,2.494c0.166,0.342,0.377,0.708,0.592,1.019c0.205,0.298,0.74,0.389,1.08,0.341
				c0.178-0.026,0.354-0.116,0.445-0.271c0.617,1.392,1.525,2.467,2.209,3.831c0.498,0.992,0.955,1.645,1.896,2.184
				c0.033,0.019,0.061,0.038,0.094,0.056c1.018,0.554,2.02,1.02,2.955,1.704c0.791,0.58,0.762,0.938,2.775,0.938
				c0.031,0,0.055-0.001,0.084-0.001V12.549C30.368,12.513,29.261,12.126,27.919,11.828z"/>
			<g>
				<path style="fill:#C0876C;" d="M20.905,27.544c0.066,0.437,0.07,0.981-0.43,1.105c-0.139,0.034-0.289-0.015-0.4-0.12
					c-0.436-0.413-0.369-1.018-0.248-1.549c0.09-0.398,0.211-0.805,0.16-1.211c-0.098-0.78-0.979-1.552-1.664-1.225
					c0.178-0.085,0.25-0.255,0.494-0.307c0.307-0.066,0.453-0.027,0.773,0.164c0.115,0.068,0.229,0.154,0.32,0.26
					C20.575,25.429,20.755,26.531,20.905,27.544z"/>
				<path style="fill:#C0876C;" d="M42.208,27.715c-0.066,0.436-0.07,0.981,0.428,1.104c0.141,0.036,0.293-0.014,0.402-0.119
					c0.434-0.414,0.369-1.019,0.248-1.55c-0.092-0.396-0.211-0.803-0.16-1.211c0.098-0.779,0.979-1.551,1.664-1.224
					c-0.178-0.085-0.25-0.255-0.494-0.308c-0.307-0.065-0.453-0.027-0.773,0.164c-0.115,0.07-0.229,0.154-0.32,0.261
					C42.538,25.6,42.358,26.702,42.208,27.715z"/>
			</g>
		</g>
	</g>
	<path style="fill:#231F20;" d="M43.175,21.738c-0.057-0.067-4.59-1.83-10.346,0.297c-0.539,0.075-1.047,0.1-1.328,0.109
		c-0.01,0-0.02,0-0.027-0.002c-0.287-0.009-0.779-0.035-1.303-0.107c-5.645-1.948-10.289-0.364-10.344-0.297
		c-0.314,0.383-0.002,0.941,0,0.945c0.01,0.018,0.248,0.078,0.277,0.092c0.229,0.104,0.596,0.283,0.705,0.508
		c0.113,0.234,0.08,0.619,0.119,0.878c0.074,0.485,0.164,0.973,0.326,1.44c0.207,0.604,0.6,1.277,1.201,1.634
		c1.252,0.743,3.826,0.587,5.131,0.266c1.441-0.447,2.721-3.046,2.857-3.866c0.094-0.504,0.682-0.617,1.029-0.639
		c0.008-0.002,0.018-0.002,0.027-0.003c0.342,0.019,0.959,0.125,1.057,0.642c0.137,0.82,1.416,3.419,2.855,3.866
		c1.305,0.321,3.881,0.478,5.133-0.266c0.602-0.356,0.992-1.03,1.201-1.634c0.162-0.468,0.252-0.955,0.326-1.44
		c0.039-0.259,0.004-0.644,0.119-0.878c0.109-0.225,0.477-0.404,0.705-0.508c0.029-0.014,0.268-0.074,0.277-0.092
		C43.177,22.68,43.489,22.121,43.175,21.738z M25.272,26.959c-0.834-0.091-1.928-0.26-2.48-0.9c-0.23-0.27-0.363-0.596-0.459-0.922
		c-0.168-0.564-0.328-1.422-0.084-2.063c0.076-0.198,0.189-0.377,0.354-0.518c0.656-0.563,1.779-0.606,2.619-0.584
		c1.918,0.051,3.768,0.277,3.914,1.639C29.089,24.416,28.368,27.298,25.272,26.959z M40.669,25.137
		c-0.098,0.326-0.229,0.652-0.459,0.922c-0.555,0.641-1.648,0.81-2.48,0.9c-3.096,0.339-3.816-2.543-3.863-3.348
		c0.146-1.361,1.994-1.588,3.914-1.639c0.838-0.022,1.963,0.021,2.617,0.584c0.166,0.141,0.279,0.319,0.355,0.518
		C40.997,23.715,40.837,24.572,40.669,25.137z"/>
</g>
</svg>
