<?xml version="1.0" encoding="iso-8859-1"?>
<!-- Generator: Adobe Illustrator 16.0.0, SVG Export Plug-In . SVG Version: 6.00 Build 0)  -->
<!DOCTYPE svg PUBLIC "-//W3C//DTD SVG 1.1//EN" "http://www.w3.org/Graphics/SVG/1.1/DTD/svg11.dtd">
<svg version="1.1" id="Layer_1" xmlns="http://www.w3.org/2000/svg" xmlns:xlink="http://www.w3.org/1999/xlink" x="0px" y="0px"
	 width="64px" height="64px" viewBox="0 0 64 64" style="enable-background:new 0 0 64 64;" xml:space="preserve">
<g id="_x31_6">
	<g id="_x35__2_">
		<path style="fill:#DEB09D;" d="M16.365,55.735c1.459,2.496,2.918,4.991,4.377,7.486c0.078,0.134,0.263,0.415,0.504,0.778h7.918
			c2.108-2.83,4.385-5.536,6.855-8.059c4.646-4.742,10.278-7.73,15.946-11.17c-2.137,1.297-5.354,0.252-7.625,0.226
			c-2.951-0.036-4.745-1.772-5.927-4.284c-0.287-0.612-2.38-7.504-2.088-7.537c-2.4,0.271-5.068,0.26-7.521,0.103
			c-1.493-0.096-2.991-0.344-4.486-0.39c-0.697-0.021-1.907-0.166-2.519,0.256c-1.227,0.846-0.596,0.554-0.461,1.797
			c0.198,1.822,0.812,3.149,0.211,5.041c-0.336,1.061-0.924,2.035-1.688,2.844c-0.704,0.746-1.559,1.352-2.505,1.752
			c-0.924,0.391-1.916,0.592-2.858,0.934c-2.019,0.732-3.498,2.356-2.236,4.316C13.517,51.774,15.136,53.633,16.365,55.735z"/>
		<path style="fill:#E2BBA1;" d="M15.519,11.815c-1.177,2.565-1.422,5.567-1.104,8.494c-1.959,0.184-1.482,2.819-0.556,5.047
			c0.542,1.3,1.236,2.46,1.687,2.91c0.517,0.517,1.005,0.771,1.448,0.841c1.821,3.987,4.375,7.661,8.345,9.407
			c0.78,0.344,1.56,0.529,2.329,0.583V4.855C22.639,4.703,17.812,6.814,15.519,11.815z"/>
		<path style="fill:#F9CFB3;" d="M41.709,19.41c-0.193-5.106-2.233-10.097-6.732-12.657c-0.763-0.435-1.596-0.8-2.502-1.083
			c-1.572-0.491-3.2-0.766-4.808-0.814v34.242c5.129,0.359,9.871-5.222,12.233-10.377c2.169-1.146,3.736-3.531,3.894-6.089
			C43.867,21.438,43.017,19.521,41.709,19.41z"/>
		<path style="fill:#FFFFFF;" d="M34.046,64c2.484-8.049,4.512-15.609,4.59-18.833c-12.933,8.45-19.197,0.804-19.197,0.804
			L15.276,64H34.046z"/>
		<path style="fill:#186EA8;" d="M54.866,64c0.095-0.713,0.175-1.429,0.28-2.141c0.563-3.833,1.291-7.643,2.23-11.397
			c0.461-1.829,1.037-2.824-0.673-4.128c-1.098-0.84-2.564-1.189-3.825-1.533c-6.947-1.884-13.805-5.089-13.805-5.089
			S34.177,51.24,29.761,64H54.866z"/>
		<path style="fill:#186EA8;" d="M7.867,64h10.93c-0.757-12.688,1.114-21.802,1.114-21.802L9.096,46.478
			c-2.776,1.099-4.335,4.058-3.668,6.96L7.867,64z"/>
		<path style="fill:#1C75BC;" d="M14.604,64h6.062c-0.031-0.838-0.064-1.675-0.089-2.514c-0.094-3.152-0.141-6.306-0.137-9.46
			c0.003-1.911,0.023-3.822,0.063-5.732c0.021-0.955,0.046-1.911,0.076-2.866c0.014-0.45,0.393-2.357,0.559-2.447
			c-0.531,0.268-3.949,2.643-4.361,3.033c-1.471,1.391-2.941,2.78-4.412,4.171l4.509,4.679c0,0-4.506,3.971-4.509,3.974
			c-0.243,0.214,0.994,3.417,1.084,3.703C13.653,61.195,14.063,62.422,14.604,64z"/>
		<path style="fill:#1C75BC;" d="M39.28,64c2.648-3.352,5.28-6.484,7.852-9.377l-4.019-2.628l4.019-5.018l-3.19-5.418l-4.847-2.055
			C34.997,49.096,31.934,57.264,29.647,64H39.28z"/>
		<path style="fill:#2C2C2C;" d="M33.639,20.693c-2.324,0-4.265,0.981-4.899,2.688l-0.007-0.032h-2.131l-0.008,0.031
			c-0.635-1.707-2.575-2.688-4.897-2.688c-2.053,0-3.82,0.759-4.643,2.113l0.001-0.003l-1.778-0.202l-0.448,0.896l1.815,0.338
			c-0.053,0.246-0.085,0.502-0.085,0.772c0,2.47,2.3,4.193,5.138,4.193c2.793,0,5.054-1.674,5.124-4.082l1.684-0.087
			c0.016,2.457,2.307,4.169,5.135,4.169c2.837,0,5.138-1.724,5.138-4.193S36.476,20.693,33.639,20.693z M21.696,27.687
			c-2.308,0-4.179-1.07-4.179-3.079c0-2.008,1.871-2.8,4.179-2.8s4.178,0.792,4.178,2.8C25.874,26.616,24.004,27.687,21.696,27.687z
			 M33.639,27.687c-2.308,0-4.179-1.07-4.179-3.079c0-2.008,1.871-2.8,4.179-2.8s4.179,0.792,4.179,2.8
			C37.817,26.616,35.946,27.687,33.639,27.687z"/>
		<path style="fill:#824327;" d="M15.835,20.365c0.146-3.254,0.896-6.598,3.051-8.736c0.751-0.274,4.037,1.918,4.718,2.25
			c3.279,1.605,7.022,2.693,9.747,5.232c3.205,2.984,4.594,7.226,4.998,11.503c0.314,3.337,0.061,6.7-0.213,10.042
			c-0.102,1.232-0.206,2.469-0.171,3.706c-0.023-0.81,1.707-2.907,2.059-3.79c0.63-1.582,1.04-3.253,1.212-4.947
			c0.354-3.478-0.478-6.971-0.079-10.478c0.165-1.45,0.509-2.875,0.718-4.319c0.613-4.231,0.316-10.342-2.285-13.902
			c-2.495-3.412-7.203-5.225-11.325-5.146c-7.419,0.145-11.91,6.209-14.192,12.658c-2.925,8.268-1.317,18.808,1.872,26.756
			c-0.419-5.358,0.547-10.712,0.042-16.019C15.847,23.716,15.76,22.053,15.835,20.365z"/>
		<path style="fill:#1C75BC;" d="M12.306,64c-0.043-1.041-0.08-2.074-0.143-3.139c-0.311-5.348-0.833-10.363-1.482-15.009
			c-2.119,0.772-4.093,1.253-5.471,3.038c-0.1,0.13-0.196,0.266-0.29,0.409c-1.133,1.744-1.121,3.921-1.312,5.917
			c-0.273,2.844-0.546,5.689-0.818,8.533C2.782,63.834,2.774,63.917,2.766,64H12.306z"/>
		<path style="fill:#1C75BC;" d="M61.234,64c-0.217-2.721-0.527-5.514-0.978-8.391c-0.283-1.813-0.604-3.57-0.955-5.275
			c-0.349-1.69-1.472-3.12-3.027-3.883c0,0-1.303-1.028-3.184-1.557c-0.439,1.824-0.658,4.025-1.055,5.689
			c-1.142,4.82-1.708,9.332-1.904,13.416H61.234z"/>
	</g>
	<path style="fill:#824327;" d="M45.026,14.905c1.123,3.663,1.448,7.53,1.214,11.344c-0.405,6.616-0.301,11.271-3.098,19.629
		c-0.039,0.116-1.091,2.783-1.665,4.367c1.083,1.104,2.783,1.826,4.049,2.472c0.698,0.356,1.414,0.694,2.125,1.042
		c0.205-0.735,1.351-4.222,2.48-6.496C56.226,34.991,57.16,9.667,42.744,1.42c-2.76-1.578-6.021-1.784-9.049-0.897
		c-1.068,0.313-1.595,0.593-2.021,1.687c-0.175,0.446-0.536,3.74,0.481,3.681c2.447-0.145,4.956-0.056,7.29,0.766
		C42.632,7.777,44.131,11.986,45.026,14.905z"/>
</g>
</svg>
