<?xml version="1.0" encoding="iso-8859-1"?>
<!-- Generator: Adobe Illustrator 16.0.0, SVG Export Plug-In . SVG Version: 6.00 Build 0)  -->
<!DOCTYPE svg PUBLIC "-//W3C//DTD SVG 1.1//EN" "http://www.w3.org/Graphics/SVG/1.1/DTD/svg11.dtd">
<svg version="1.1" id="Layer_1" xmlns="http://www.w3.org/2000/svg" xmlns:xlink="http://www.w3.org/1999/xlink" x="0px" y="0px"
	 width="64px" height="64px" viewBox="0 0 64 64" style="enable-background:new 0 0 64 64;" xml:space="preserve">
<g>
	<path style="fill:#774E3E;" d="M32.001,5.312L32.001,5.312L32.001,5.312c-7.016,0-13.461,5.658-13.461,12.637
		c0,3.394,0.641,20.781-1.441,22.204c-0.807,0.552,7.488,4.397,14.883,4.472c7.393,0.075,15.402-3.621,14.92-4.472
		c-3.059-5.403-1.439-18.811-1.439-22.204C45.462,10.97,39.017,5.312,32.001,5.312z"/>
	<path style="fill:#F9D5BE;" d="M56.216,51.206c-0.268-5.092-7.703-6.096-13.465-7.034c-3.08-0.501-4.045-3.699-4.285-6.57
		c-1.951,1.81-4.469,3.656-6.467,3.656c-1.973,0-4.502-1.854-6.463-3.668c-0.238,2.874-1.203,6.08-4.287,6.582
		c-5.762,0.938-13.195,1.942-13.465,7.034C7.517,56.296,7.651,64,7.651,64h24.047h0.604h24.047
		C56.349,64,56.483,56.296,56.216,51.206z"/>
	<path style="fill:#F9D5BE;" d="M38.466,37.602c-0.041-0.479-0.066-0.953-0.072-1.4H25.606c-0.006,0.443-0.031,0.913-0.07,1.389
		c1.961,1.813,4.49,3.668,6.463,3.668C33.997,41.258,36.515,39.411,38.466,37.602z"/>
	<path style="opacity:0.55;fill:#DBBBA9;" d="M38.466,37.602c-0.041-0.479-0.066-0.953-0.072-1.4H25.606
		c-0.006,0.443-0.031,0.913-0.07,1.389c1.961,1.813,4.49,3.668,6.463,3.668C33.997,41.258,36.515,39.411,38.466,37.602z"/>
	<path style="fill:#F9D5BE;" d="M44.835,22.199c-0.637-0.221-1.219,0.148-1.674,0.634c0.021-0.63,0.016-1.112-0.004-1.369
		c0-7.542-5.92-11.828-11.158-11.837c-5.236,0.009-11.156,4.295-11.156,11.837c-0.02,0.257-0.025,0.739-0.004,1.369
		c-0.455-0.485-1.037-0.854-1.674-0.634c-1.012,0.353-0.51,6.528,2.449,7.635c0.09,0.034,0.162,0.042,0.242,0.063
		c0.385,1.427,0.898,2.813,1.596,3.96c0.803,1.321,5.451,6.493,8.547,6.493c3.141,0,7.746-5.172,8.549-6.493
		c0.697-1.147,1.213-2.533,1.596-3.96c0.082-0.021,0.152-0.029,0.242-0.063C45.347,28.728,45.849,22.552,44.835,22.199z"/>
	<path style="fill:#FFFFFF;" d="M55.489,51.248c-0.26-4.938-7.473-5.913-13.061-6.822c-1.697-0.276-2.732-1.398-3.354-2.826
		l-7.074,6.965L24.925,41.6c-0.621,1.428-1.654,2.55-3.354,2.826c-5.588,0.909-12.799,1.885-13.061,6.822
		c-0.26,4.938-0.129,12.41-0.129,12.41h47.236C55.618,63.658,55.749,56.187,55.489,51.248z"/>
	<g>
		<rect x="31.288" y="49.751" style="opacity:0.55;fill:#CCCCCC;" width="1.424" height="7.477"/>
		<circle style="fill:#FFFFFF;" cx="32" cy="51.395" r="0.427"/>
		<circle style="fill:#FFFFFF;" cx="32" cy="54.572" r="0.427"/>
	</g>
	<path style="fill:#02426B;" d="M56.216,51.206c-0.268-5.092-7.703-6.096-13.465-7.034c-1.75-0.284-2.816-1.441-3.455-2.914
		l-0.291,4.398l-7.004,10.687l-6.939-10.687l-0.355-4.398c-0.641,1.473-1.707,2.63-3.457,2.914
		c-5.762,0.938-13.195,1.942-13.465,7.034c-0.268,5.09-0.133,12.793-0.133,12.793h48.697C56.349,63.999,56.483,56.296,56.216,51.206
		z"/>
	<g>
		<polygon style="opacity:0.55;fill:#CCCCCC;" points="42.419,44.55 39.028,40.825 31.989,48.406 25.038,40.825 21.647,44.55 
			21.077,49.261 25.062,46.131 32.001,49.372 39.005,46.131 42.987,49.261 		"/>
		<polygon style="fill:#FFFFFF;" points="42.419,44.075 39.028,40.351 31.989,47.933 25.038,40.351 21.647,44.075 21.077,48.786 
			25.062,45.656 32.001,48.897 39.005,45.656 42.987,48.786 		"/>
	</g>
	<rect x="38.466" y="57.228" style="fill:#FFFFFF;" width="7.463" height="0.854"/>
	<circle style="fill:#FFFFFF;" cx="42.987" cy="31.334" r="0.791"/>
	<circle style="fill:#FFFFFF;" cx="21.077" cy="31.334" r="0.791"/>
	<path style="fill:#774E3E;" d="M32.356,6.766c-9.818,0-13.4,7.136-13.059,12.949c0.154,2.614,1.281,6.053,1.281,6.053
		c0.127,0.175,0.588,0.069,0.555-0.246c-0.848-8.035,4.402-4.779,4.018-11.996c0,0,3.324,7.091,12.762,5.193
		c-1.328-0.595-2.23-2.293-2.135-3.573c0,0,0.686,1.344,1.645,2.085c1.338,1.034,3.258,0.902,4.445-0.3
		c0.014-0.014,0.021-0.021,0.021-0.021c0.996,2.276,1.439,6.004,1.02,8.612c-0.051,0.313,0.436,0.421,0.563,0.246
		c0,0,1.229-3.927,1.232-6.545C44.706,16.63,43.501,6.766,32.356,6.766z"/>
	<g>
		<path style="fill:#02426B;" d="M35.272,0l-3.289,2.032L28.692,0l-7.27,10.269c0,0,5.32,3.447,10.268,4.196
			c0,0,0.107-0.012,0.293-0.039c0.184,0.027,0.291,0.039,0.291,0.039c4.947-0.749,10.268-4.196,10.268-4.196L35.272,0z"/>
		<polygon style="fill:#ABBAEB;" points="37.327,2.903 31.983,7.329 26.667,2.86 26.462,3.166 31.983,7.743 37.511,3.166 		"/>
		<g>
			<ellipse style="fill:#EFBF4A;" cx="31.982" cy="11.128" rx="1.95" ry="0.948"/>
			<path style="fill:#02426B;" d="M33.05,10.809c-0.023-0.09-0.172-0.087-0.213-0.126c-0.143-0.132-0.309-0.043-0.309-0.043
				c-0.115,0.084-0.596,0.439-0.93,0.687c-0.072,0.015-0.15,0.028-0.229,0.042l-0.09-0.267l-0.037,0.024
				c-0.016,0.046-0.008,0.158,0.006,0.261c-0.238,0.033-0.479,0.05-0.643,0.021c0,0,0.139,0.084,0.42,0.105
				c0.008,0.036,0.037,0.064,0.076,0.064c0.037,0,0.063-0.026,0.074-0.06c0.027,0,0.061-0.004,0.09-0.005
				c0.004,0.021,0.006,0.04,0.01,0.052c-0.004,0.003-0.008,0.006-0.008,0.006c-0.074,0.113,0.133,0.063,0.133,0.063l0.043-0.013
				l0.582-0.181c0.104-0.004,0.268-0.016,0.432-0.03c0.006,0.043,0.043,0.077,0.088,0.077c0.049,0,0.09-0.039,0.09-0.087
				c0-0.002-0.002-0.004-0.002-0.005c0.037-0.004,0.072-0.007,0.105-0.01c-0.004,0.009-0.012,0.016-0.012,0.027
				c0,0.037,0.031,0.067,0.07,0.067c0.037,0,0.068-0.03,0.068-0.067c0-0.015-0.006-0.026-0.016-0.038
				c0.084-0.008,0.139-0.013,0.139-0.013c-0.061-0.004-0.123-0.009-0.186-0.015c-0.002,0-0.004-0.003-0.006-0.003
				s-0.002,0.001-0.004,0.001c-0.074-0.007-0.146-0.016-0.211-0.025c-0.012-0.004-0.023-0.008-0.037-0.008
				c-0.002,0-0.006,0.002-0.008,0.002c-0.025-0.004-0.049-0.007-0.072-0.011l0.338-0.104c0.182-0.058,0.236-0.178,0.248-0.271
				C33.063,10.861,33.05,10.809,33.05,10.809z"/>
		</g>
	</g>
</g>
</svg>
