<?xml version="1.0" encoding="iso-8859-1"?>
<!-- Generator: Adobe Illustrator 16.0.0, SVG Export Plug-In . SVG Version: 6.00 Build 0)  -->
<!DOCTYPE svg PUBLIC "-//W3C//DTD SVG 1.1//EN" "http://www.w3.org/Graphics/SVG/1.1/DTD/svg11.dtd">
<svg version="1.1" id="Layer_1" xmlns="http://www.w3.org/2000/svg" xmlns:xlink="http://www.w3.org/1999/xlink" x="0px" y="0px"
	 width="64px" height="64px" viewBox="0 0 64 64" style="enable-background:new 0 0 64 64;" xml:space="preserve">
<g>
	<path style="fill-rule:evenodd;clip-rule:evenodd;fill:#F2EFDC;" d="M59.438,64c-0.006-3.855-0.311-7.244-0.796-9.116
		c-0.463-1.78-2.211-3.66-3.824-4.456c-1.701-0.84-3.726-1.14-5.786-1.171c-6.475-0.101-8.227-0.398-9.64-2.574
		c-1.993-2.279-2.147-5.969-1.865-11.895l-13.603-0.177c1.278,4.898,1.229,9.857-0.39,12.487c-2.514,2.65-7.785,1.892-10.591,2.158
		c-3.895,0.065-5.831,1.802-7.298,5.398C4.814,56.692,4.554,60.312,4.563,64H59.438z"/>
	<path style="fill-rule:evenodd;clip-rule:evenodd;fill:#FDC00F;" d="M26.968,64c-5.131-2.83-8.338-7.879-9.381-14.875
		c-1.729,0.094-3.42,0.015-4.644,0.132c-3.895,0.065-5.831,1.802-7.298,5.398C4.814,56.692,4.554,60.312,4.563,64H26.968z"/>
	<path style="fill-rule:evenodd;clip-rule:evenodd;fill:#DCD9C8;" d="M23.924,34.611c1.286,5.575,1.494,10.041-1.285,13.249
		c7.448-0.839,12.188-3.204,14.694-9.5c-0.021-1.507,0.098-1.559,0.193-3.572L23.924,34.611z"/>
	<path style="fill-rule:evenodd;clip-rule:evenodd;fill:#F2EFDC;" d="M17.756,17.336c-1.267-1.895-2.759-0.605-2.296,1.688
		c0.377,1.868,1.24,3.992,1.718,6.123c0.327,1.458,0.853,2.495,2.134,2.222l-0.142-6.077L17.756,17.336z"/>
	<path style="fill-rule:evenodd;clip-rule:evenodd;fill:#F2EFDC;" d="M44.204,17.336c1.268-1.895,2.759-0.605,2.297,1.688
		c-0.378,1.868-1.24,3.992-1.718,6.123c-0.326,1.458-0.853,2.495-2.134,2.222l0.142-6.077L44.204,17.336z"/>
	<path style="fill-rule:evenodd;clip-rule:evenodd;fill:#F2EFDC;" d="M36.186,37.462c1.561-1.388,2.749-2.689,4.227-5.074
		c1.752-2.828,2.439-4.772,3.172-9.668c0.559-3.742,1.022-7.633,0.406-11.162C42.793,4.698,38.278,0.55,30.98,0.575
		c-8.084,0.027-12.033,2.165-13.219,9.896c-0.773,5.051-0.461,8.311,0.394,12.569c0.944,4.718,1.765,7.374,3.768,10.189
		c1.266,1.781,2.249,2.977,3.522,4.082c2.59,2.253,3.991,3.248,5.435,3.248C32.362,40.56,33.883,39.51,36.186,37.462z"/>
	<path style="fill-rule:evenodd;clip-rule:evenodd;fill:#0E2F3E;" d="M31.534,0.367c-8.398-1.646-16.425,3.055-17.912,11.596
		c-1.861,10.686,3.176,24.484,11.898,31.03c0.229-2.347-0.077-4.714-0.552-7.012c-2.365-2.621-3.067-3.818-4.066-7.287
		c-0.077,0.466-0.297,0.776-0.635,0.815c-0.939,0.109-0.813-1.034-1.458-2.944c-0.438-1.292-1.848-3.896-0.98-5.291
		c0.343-0.549,0.791-0.404,1.245,0.15c0.395,1.302,0.713,4.122,2.068,6.773c-1.016-8.022,0.208-15.067,3.083-18.61
		c0.011,0.01,0.02,0.021,0.029,0.029c1.356,3.167,4.103,4.638,10.077,7.312c-0.978-0.739-1.747-1.265-2.79-1.912
		c2.903,1.256,3.74,1.57,5.657,3.785c-0.459-0.877-1.007-1.613-1.629-2.262c3.433,2.271,6.203,5.437,6.409,11.423
		c0.324-3.593,0.074-6.306-0.601-8.454c0.214,0.536,0.393,1.113,0.536,1.742c0.259,1.152,0.59,4.539-0.028,7.778
		c-0.032-0.083-0.06-0.175-0.08-0.273c-1.031,3.855-1.967,5.225-4.714,8.165c-0.217,4.364,0.843,10.411,2.211,14.639
		c-0.307-1.773-0.364-3.224-0.241-4.476c1.506,4.981,5.85,7.445,6.175,11.761c8.062-3.295,7.221-6.102,5.226-8.976
		c0.13,0.017,0.259,0.034,0.386,0.053c-2.669-2.19-3.71-5.011-4.067-8.343c-0.052-6.799,4.555-15.38,2.473-27.22
		C47.811,6.152,43.307-1.822,31.534,0.367z"/>
	<path style="fill-rule:evenodd;clip-rule:evenodd;fill:#FC611F;" d="M25.08,37.771l-0.459,6.186
		c1.994,4.277,8.245,3.031,13.291,2.063c1.123-2.865,0.953-7.269-0.766-7.714C34.193,42.412,25.837,41.495,25.08,37.771z"/>
	<path style="fill-rule:evenodd;clip-rule:evenodd;fill:#FC611F;" d="M35.053,64h2.989c0.571-2.182,1.477-3.784,2.467-6.065
		c-2.961-4.36-1.569-7.124-3.514-12.068l-2.902,0.306C34.242,48.903,32.387,57.139,35.053,64z"/>
	<path style="fill-rule:evenodd;clip-rule:evenodd;fill:#FC611F;" d="M37.358,44.165c4.563-5.532,12.062-4.063,16.422-7.025
		c3.496,1.517-1.105,4.75,3.741,4.965c-7.23,5.974-12.645,0.43-20.393,3.819L37.358,44.165z"/>
</g>
</svg>
