<?xml version="1.0" encoding="iso-8859-1"?>
<!-- Generator: Adobe Illustrator 16.0.0, SVG Export Plug-In . SVG Version: 6.00 Build 0)  -->
<!DOCTYPE svg PUBLIC "-//W3C//DTD SVG 1.1//EN" "http://www.w3.org/Graphics/SVG/1.1/DTD/svg11.dtd">
<svg version="1.1" id="Layer_1" xmlns="http://www.w3.org/2000/svg" xmlns:xlink="http://www.w3.org/1999/xlink" x="0px" y="0px"
	 width="64px" height="64px" viewBox="0 0 64 64" style="enable-background:new 0 0 64 64;" xml:space="preserve">
<g>
	<g>
		<ellipse style="fill:#6D3500;" cx="31.726" cy="40.954" rx="12.096" ry="13.088"/>
	</g>
	<g>
		<g>
			<path style="fill:#FFE9BA;" d="M19.785,45.406l3.784-0.698c0.019,0,0.019,0,0.037,0c2.039-0.019,3.711-1.654,3.767-3.692v-2.774
				c-4.465-2.756-7.588-9.207-7.588-16.721c0-10.032,5.549-15.139,12.4-15.139l0,0h0.001c6.853,0,12.401,5.106,12.401,15.139
				c0,7.514-3.124,13.965-7.588,16.721v2.774c0.055,2.038,1.727,3.674,3.766,3.692c0.02,0,0.02,0,0.037,0l3.785,0.698
				c8.378,2.591,9.921,8.801,9.921,15.947V64H32.187h-0.001H9.863v-2.646C9.863,54.207,11.406,47.997,19.785,45.406z"/>
		</g>
		<g>
			<path style="fill:#FFE9BA;" d="M27.354,40.427c0,0,0-0.019,0.018-0.036v0.036C27.354,40.427,27.354,40.427,27.354,40.427z"/>
		</g>
	</g>
	<g>
		<g>
			<path style="fill:#FFFFFF;" d="M9.862,61.354V64h44.646v-2.646c0-7.146-1.543-13.356-9.921-15.947l-3.785-0.698
				c-0.018,0-0.018,0-0.037,0c-0.734,0-1.432-0.221-2.021-0.624c-1.47,2.038-3.858,3.362-6.56,3.362s-5.089-1.324-6.559-3.362
				c-0.589,0.403-1.287,0.624-2.021,0.624c-0.019,0-0.019,0-0.037,0l-3.784,0.698C11.405,47.997,9.862,54.207,9.862,61.354z"/>
		</g>
	</g>
	<g>
		<g>
			<polygon style="fill:#F2F2F5;" points="29.76,64 25.961,57.273 24.317,60.151 20.62,45.048 21.526,44.828 24.667,57.656 
				25.968,55.387 30.827,63.995 			"/>
		</g>
	</g>
	<g>
		<g>
			<polygon style="fill:#F2F2F5;" points="34.549,64 38.348,57.273 39.99,60.151 43.688,45.048 42.781,44.828 39.641,57.656 
				38.341,55.387 33.481,63.995 			"/>
		</g>
	</g>
	<g>
		<g>
			<path style="fill:#FFE9BA;" d="M23.073,33.793c1.175,1.911,2.645,3.437,4.298,4.448v2.627c0.956,0.313,1.948,0.478,2.959,0.478
				c2.462,0,4.759-0.975,6.67-2.665v-0.439c-1.452,0.825-3.032,1.267-4.687,1.267C28.64,39.508,25.313,37.285,23.073,33.793z"/>
		</g>
		<g>
			<path style="fill:#FFE9BA;" d="M27.354,40.427c0,0,0,0,0.018,0v-0.036C27.354,40.408,27.354,40.427,27.354,40.427z"/>
		</g>
	</g>
	<g>
		<path style="fill:#FFE9BA;" d="M37.073,38.203c0.367-0.202,0.734-0.441,1.083-0.697c0.019,0,0.019,0,0.037-0.019
			c0.019-0.02,0.019-0.02,0.019-0.037c0.073-0.074,0.146-0.165,0.221-0.257C37.992,37.562,37.55,37.909,37.073,38.203z"/>
	</g>
	<g>
		<path style="fill:#EED59C;" d="M27.371,38.241v2.149c-0.018,0.018-0.018,0.036-0.018,0.036s0,0,0.018,0v0.441
			c0.956,0.313,1.948,0.478,2.959,0.478c2.462,0,4.759-0.975,6.67-2.665c0.403-0.367,0.789-0.753,1.156-1.175
			c0.019,0,0.019,0,0.037-0.019c0.019-0.02,0.019-0.02,0.019-0.037c0.073-0.074,0.146-0.165,0.221-0.257
			c-0.44,0.368-0.883,0.716-1.359,1.01c-0.019,0.019-0.037,0.038-0.073,0.038c-1.452,0.825-3.032,1.267-4.687,1.267
			C28.64,39.508,27.371,38.241,27.371,38.241z"/>
	</g>
	<g>
		<path style="fill:#9C603E;" d="M9.838,37.699c0.002,0.025,0.009,0.043,0.012,0.068c0.005-0.025,0.013-0.068,0.013-0.068
			s1.112,4.811,3.9,4.814c8.088,0.012,3.313-11.673,2.576-14.649C15.42,24.152,13.813,0.611,32.187,2.756
			s15.715,20.351,14.698,25.108c-1.017,4.759-4.774,15.127,1.117,15.685c4.106,0.388,5.006-4.279,5.006-4.279s1.8,6.588-2.793,9.916
			c-4.594,3.331-11.47-5.102-11.47-5.102S44.128,25.11,37,21.572c-7.129-3.539-9.629-10.855-9.629-10.855
			c-10.877,13.669-2.478,24-2.986,33.899c0,0-7.159,6.331-11.753,3C8.038,44.286,9.838,37.699,9.838,37.699z"/>
	</g>
	<g>
		<path style="fill:#FFFFFF;" d="M48.336,6.819c0,3.767-3.141,6.82-7.015,6.82H22.293c-3.874,0-7.015-3.054-7.015-6.82l0,0
			C15.278,3.054,18.419,0,22.293,0h19.028C45.195,0,48.336,3.054,48.336,6.819L48.336,6.819z"/>
	</g>
	<g>
		<path style="fill:#BEBFBC;" d="M47.585,12.721c0,0.509-0.444,0.919-0.992,0.919H17.188c-0.547,0-0.992-0.41-0.992-0.919v-0.215
			c0-0.508,0.445-0.918,0.992-0.918h29.404c0.548,0,0.992,0.41,0.992,0.918V12.721z"/>
	</g>
	<g>
		<g>
			<rect x="31.009" y="3.777" style="fill:#3D95CA;" width="1.435" height="5.209"/>
		</g>
		<g>
			<rect x="29.123" y="5.664" style="fill:#3D95CA;" width="5.207" height="1.436"/>
		</g>
	</g>
	<g>
		<path style="fill:#FFFFFF;" d="M24.667,44.543l0.955-0.459C25.329,44.284,25.016,44.451,24.667,44.543z"/>
	</g>
	<g>
		<polygon style="fill:#FFFFFF;" points="32.273,64 32.053,64 32.163,63.67 		"/>
	</g>
	<g>
		<polygon style="fill:#FFFFFF;" points="32.273,64 32.053,64 32.163,63.67 		"/>
	</g>
	<g>
		<path style="fill:#FFFFFF;" d="M38.704,44.084l0.019,0.018c-0.019,0.018-0.019,0.037-0.036,0.056L38.704,44.084z"/>
	</g>
	<g>
		<path style="fill:#DFB64C;" d="M25.724,44.209L32.053,64l6.634-19.843C38.687,44.157,33.471,49.854,25.724,44.209z"/>
	</g>
</g>
</svg>
