<?xml version="1.0" encoding="iso-8859-1"?>
<!-- Generator: Adobe Illustrator 16.0.0, SVG Export Plug-In . SVG Version: 6.00 Build 0)  -->
<!DOCTYPE svg PUBLIC "-//W3C//DTD SVG 1.1//EN" "http://www.w3.org/Graphics/SVG/1.1/DTD/svg11.dtd">
<svg version="1.1" id="Layer_1" xmlns="http://www.w3.org/2000/svg" xmlns:xlink="http://www.w3.org/1999/xlink" x="0px" y="0px"
	 width="64px" height="64px" viewBox="0 0 64 64" style="enable-background:new 0 0 64 64;" xml:space="preserve">
<g>
	<path style="fill:#CBC9C0;" d="M51.042,44.8h-38.11c-1.16,0-2.101-0.94-2.101-2.101v-9.336c0-1.16,0.94-2.1,2.101-2.1h38.11
		c1.16,0,2.101,0.939,2.101,2.1v9.336C53.143,43.859,52.202,44.8,51.042,44.8z"/>
	<path style="fill:#B2AFAD;" d="M37.2,2.661H26.477c-4.584,0-8.301,3.009-8.301,6.722v20.551c0,3.715,3.717,6.723,8.301,6.723H37.2
		c4.585,0,8.302-3.008,8.302-6.723V9.383C45.502,5.67,41.785,2.661,37.2,2.661z"/>
	<g>
		<path style="fill:#774E3E;" d="M31.999,1.248L31.999,1.248L31.999,1.248c6.817,0,12.343,5.497,12.343,12.278
			c0,3.298-0.973,5.619-1.55,5.78c-1.829,0.514-5.61-7.897-10.792-7.897h-0.001l0,0c-5.183,0-8.963,8.411-10.792,7.897
			c-0.577-0.161-1.551-2.482-1.551-5.78C19.656,6.745,25.183,1.248,31.999,1.248z"/>
		<g>
			<path style="fill:#F9D5BE;" d="M8.47,45.844c0.261-4.947,7.485-5.924,13.083-6.834c2.993-0.488,3.932-3.596,4.164-6.385
				c1.897,1.758,4.343,3.553,6.283,3.553c1.919,0,4.375-1.803,6.282-3.564c0.23,2.791,1.167,5.908,4.165,6.396
				c5.597,0.91,12.822,1.887,13.083,6.834C55.79,50.791,55.66,64,55.66,64H32.293h-0.586H8.34C8.34,64,8.21,50.791,8.47,45.844z"/>
			<path style="fill:#F9D5BE;" d="M25.717,32.625c0.039-0.467,0.065-0.928,0.07-1.361h12.426c0.005,0.431,0.031,0.886,0.069,1.35
				c-1.907,1.762-4.363,3.564-6.282,3.564C30.06,36.178,27.614,34.383,25.717,32.625z"/>
			<path style="opacity:0.35;fill:#C69E89;" d="M25.717,32.625c0.039-0.467,0.065-0.928,0.07-1.361h12.426
				c0.005,0.431,0.031,0.886,0.069,1.35c-1.907,1.762-4.363,3.564-6.282,3.564C30.06,36.178,27.614,34.383,25.717,32.625z"/>
		</g>
		<path style="fill:#F9D5BE;" d="M19.528,17.658c0.618-0.215,1.185,0.144,1.626,0.615c-0.021-0.613-0.015-1.081,0.004-1.33
			c0-7.329,5.753-11.494,10.842-11.502c5.089,0.008,10.842,4.173,10.842,11.502c0.019,0.249,0.024,0.717,0.003,1.33
			c0.442-0.472,1.009-0.83,1.626-0.615c0.985,0.342,0.497,6.343-2.379,7.418c-0.088,0.033-0.156,0.041-0.235,0.062
			c-0.373,1.386-0.873,2.733-1.55,3.847c-0.781,1.285-5.298,6.311-8.307,6.311c-3.051,0-7.526-5.025-8.307-6.311
			c-0.677-1.113-1.177-2.461-1.55-3.847c-0.079-0.021-0.148-0.028-0.236-0.062C19.032,24.001,18.544,18,19.528,17.658z"/>
		<path style="fill:#774E3E;" d="M31.653,2.661c9.54,0,13.021,6.933,12.688,12.583c-0.149,2.539-1.244,5.881-1.244,5.881
			c-0.124,0.17-0.587,0.065-0.538-0.239c0.831-5.163-1.662-9.055-2.911-10.369c-2.057-1.833-3.833-2.729-7.776-2.729
			c-3.81,0-7.42,1.548-9.481,5.539c-0.968,2.212-1.398,5.023-0.991,7.559c0.049,0.305-0.424,0.409-0.548,0.239
			c0,0-1.191-3.816-1.195-6.36C19.653,12.246,20.825,2.661,31.653,2.661z"/>
	</g>
	<g>
		<path style="fill:#FBFFFD;" d="M32.07,0.012c0,0-17.706-0.664-17.706,14.855V33.33c0,5.455,4.766,9.875,10.645,9.875h13.75
			c5.879,0,10.646-4.42,10.646-9.875V14.867C49.405-0.971,32.07,0.012,32.07,0.012z M44.46,23.707c0,4.354-3.806,7.886-8.501,7.886
			h-8.148c-4.696,0-8.503-3.531-8.503-7.886v-6.533c0-8.046,12.764-7.886,12.764-7.886S44.46,9.446,44.46,17.174V23.707z"/>
		<g>
			<path style="fill:#CBC9C0;" d="M16.838,21.801c0,1.025-1.006,1.857-2.244,1.857l0,0c-1.238,0-2.243-0.832-2.243-1.857v-6.475
				c0-1.027,1.005-1.859,2.243-1.859l0,0c1.238,0,2.244,0.832,2.244,1.859V21.801z"/>
			<g>
				<polygon style="fill:#CBC9C0;" points="12.972,15.739 14.596,7.666 15.756,15.739 				"/>
				<ellipse style="fill:#C04028;" cx="14.364" cy="8.674" rx="1.741" ry="1.441"/>
			</g>
		</g>
		<g>
			<path style="fill:#CBC9C0;" d="M51.648,21.801c0,1.025-1.006,1.857-2.243,1.857l0,0c-1.239,0-2.245-0.832-2.245-1.857v-6.475
				c0-1.027,1.006-1.859,2.245-1.859l0,0c1.237,0,2.243,0.832,2.243,1.859V21.801z"/>
			<g>
				<polygon style="fill:#CBC9C0;" points="50.797,15.739 49.171,7.666 48.012,15.739 				"/>
				<ellipse style="fill:#C04028;" cx="49.404" cy="8.674" rx="1.74" ry="1.441"/>
			</g>
		</g>
	</g>
	<linearGradient id="SVGID_1_" gradientUnits="userSpaceOnUse" x1="18.3174" y1="10.8818" x2="47.6756" y2="29.9389">
		<stop  offset="0.0909" style="stop-color:#EAEAEA"/>
		<stop  offset="0.8182" style="stop-color:#464644"/>
	</linearGradient>
	<path style="opacity:0.32;fill:url(#SVGID_1_);" d="M37.2,2.661H26.477c-4.584,0-8.301,3.009-8.301,6.722v20.551
		c0,3.715,3.717,6.723,8.301,6.723H37.2c4.585,0,8.302-3.008,8.302-6.723V9.383C45.502,5.67,41.785,2.661,37.2,2.661z"/>
	<g>
		<path style="fill:#FBFFFD;" d="M8.47,45.844c0.261-4.947,7.485-5.924,13.083-6.834c1.868-0.305,2.936-1.629,3.531-3.26
			c1.241,0.99,4.563,2.4,6.916,2.4c2.412,0,5.527-1.281,6.916-2.4c0.596,1.631,1.663,2.955,3.531,3.26
			c5.597,0.91,12.822,1.887,13.083,6.834C55.79,50.791,55.66,64,55.66,64H32.293h-0.586H8.34C8.34,64,8.21,50.791,8.47,45.844z"/>
		<rect x="14.308" y="51.914" style="fill:#C04028;" width="35.063" height="3.106"/>
		<rect x="24.296" y="48.665" style="fill:#CBC9C0;" width="16.057" height="15.335"/>
		<circle style="fill:#C04028;" cx="34.145" cy="53.469" r="1.231"/>
		<circle style="fill:#565956;" cx="37.521" cy="53.469" r="1.231"/>
	</g>
</g>
</svg>
