<?xml version="1.0" encoding="iso-8859-1"?>
<!-- Generator: Adobe Illustrator 16.0.0, SVG Export Plug-In . SVG Version: 6.00 Build 0)  -->
<!DOCTYPE svg PUBLIC "-//W3C//DTD SVG 1.1//EN" "http://www.w3.org/Graphics/SVG/1.1/DTD/svg11.dtd">
<svg version="1.1" id="Layer_1" xmlns="http://www.w3.org/2000/svg" xmlns:xlink="http://www.w3.org/1999/xlink" x="0px" y="0px"
	 width="64px" height="64px" viewBox="0 0 64 64" style="enable-background:new 0 0 64 64;" xml:space="preserve">
<g>
	<g>
		<g>
			<path style="fill:#FFE9BA;" d="M20.033,46.058l3.652-0.674c0.018,0,0.018,0,0.037,0c1.967-0.017,3.58-1.595,3.633-3.563v-2.676
				c-4.309-2.66-7.322-8.884-7.322-16.136c0-9.681,5.355-14.608,11.967-14.608l0,0h0.002c6.611,0,11.965,4.928,11.965,14.608
				c0,7.252-3.014,13.476-7.32,16.136v2.676c0.053,1.968,1.666,3.546,3.633,3.563c0.018,0,0.018,0,0.035,0l3.652,0.674
				c8.086,2.501,9.574,8.493,9.574,15.389V64H32.002H32H10.461v-2.554C10.461,54.551,11.949,48.559,20.033,46.058z"/>
		</g>
		<g>
			<path style="fill:#FFE9BA;" d="M27.338,41.253c0,0,0-0.018,0.018-0.033v0.033C27.338,41.253,27.338,41.253,27.338,41.253z"/>
		</g>
	</g>
	<g>
		<g>
			<path style="fill:#FFE9BA;" d="M23.207,34.853c1.135,1.844,2.553,3.316,4.148,4.293v2.533c0.922,0.302,1.879,0.463,2.855,0.463
				c2.375,0,4.592-0.941,6.436-2.573v-0.423c-1.402,0.796-2.926,1.222-4.523,1.222C28.578,40.367,25.369,38.222,23.207,34.853z"/>
		</g>
		<g>
			<path style="fill:#FFE9BA;" d="M27.338,41.253c0,0,0,0,0.018,0V41.22C27.338,41.235,27.338,41.253,27.338,41.253z"/>
		</g>
	</g>
	<g>
		<g>
			<path style="fill:#FFFFFF;" d="M10.459,61.446V64h43.082v-2.554c0-6.896-1.488-12.888-9.574-15.389l-3.652-0.674
				c-0.018,0-0.018,0-0.035,0c-0.709,0-1.383-0.213-1.951-0.602c-1.418,1.967-3.721,3.244-6.328,3.244s-4.91-1.277-6.328-3.244
				c-0.568,0.389-1.242,0.602-1.951,0.602c-0.018,0-0.018,0-0.035,0l-3.652,0.674C11.947,48.559,10.459,54.551,10.459,61.446z"/>
		</g>
		<g>
			<path style="fill:#FFFFFF;" d="M27.338,41.253c0,0,0,0,0.018,0V41.22C27.338,41.235,27.338,41.253,27.338,41.253z"/>
		</g>
	</g>
	<g>
		<path style="fill:#C77543;" d="M36.717,39.108c0.354-0.196,0.709-0.426,1.045-0.672c0.018,0,0.018,0,0.035-0.019
			c0.018-0.02,0.018-0.02,0.018-0.036c0.07-0.071,0.143-0.16,0.215-0.248C37.604,38.489,37.178,38.824,36.717,39.108z"/>
	</g>
	<g>
		<path style="fill:#EED59C;" d="M27.355,39.146v2.074c-0.018,0.016-0.018,0.033-0.018,0.033s0,0,0.018,0v0.426
			c0.922,0.302,1.879,0.463,2.855,0.463c2.375,0,4.592-0.941,6.436-2.573c0.389-0.354,0.762-0.727,1.115-1.132
			c0.018,0,0.018,0,0.035-0.019c0.018-0.02,0.018-0.02,0.018-0.036c0.07-0.071,0.143-0.16,0.215-0.248
			c-0.426,0.355-0.852,0.69-1.313,0.975c-0.018,0.017-0.037,0.037-0.07,0.037c-1.402,0.796-2.926,1.222-4.523,1.222
			C28.578,40.367,27.355,39.146,27.355,39.146z"/>
	</g>
	<g>
		<path style="fill:#C77543;" d="M25.877,11.921c0,0,8.945,1.764,13.518,6.428c4.572,4.661,1.68,8.348,2.982,13.822
			c0,0,4-5.069,3.113-13.158S40.451,5.161,32,5.938c0,0-2.799-1.884-7.232-0.555c-4.432,1.329-11.867,18.42-2.625,27.546
			C22.143,32.929,17.123,18.68,25.877,11.921z"/>
	</g>
	<g>
		<ellipse style="fill:#FFE9BA;" cx="42.875" cy="28.164" rx="1.727" ry="3.107"/>
	</g>
	<g>
		<ellipse style="fill:#FFE9BA;" cx="21.126" cy="28.164" rx="1.728" ry="3.107"/>
	</g>
	<g>
		<path style="fill:#C77543;" d="M40.883,19.574c-0.098-0.388,0.451,0.51,3.002,5.339c0,0-0.084,0.313-0.385,0.361
			c-0.5,0.08-0.625,0.535-2.109,2.89C41.391,28.164,42.082,24.327,40.883,19.574z"/>
	</g>
	<g>
		<path style="fill:#C77543;" d="M39.395,18.349c0,0,0.646,1.644,1.035,4.58c0,0,1.457-1.68,1.313-2.971
			C41.596,18.665,39.395,18.349,39.395,18.349z"/>
	</g>
	<g>
		<path style="fill:#C77543;" d="M25.877,11.921c0.438,0.095,6.723,4.361,9.232,4.952l-1.254-3.474L25.877,11.921z"/>
	</g>
	<g>
		<path style="fill:#C77543;" d="M22.531,33.709c0,0,0.734,7.513,9.469,7.544c0,0,6.639,0.342,9.328-7.284
			c0,0-2.59-1.587-3.299,1.592c-0.656,2.937-11.33,2.661-12.512-0.146C25.518,35.414,25.16,32.668,22.531,33.709z"/>
	</g>
	<g>
		<path style="fill:#C77543;" d="M25.859,33.472c0,0-0.084-2.098,2.844-2.189c2.932-0.091,6.936,0,6.936,0s2.469,0.078,2.504,2.189
			H25.859z"/>
	</g>
	<g>
		<g>
			<path style="fill:#EFAC15;" d="M45.176,15.169C45.148,7.448,39.01,0.665,31.361,0.665c-7.646,0-13.904,6.813-13.904,14.554h0.086
				v0.699c0,0.49,0.396,0.887,0.887,0.887h25.863c0.488,0,0.887-0.396,0.887-0.887v-0.737C45.18,15.177,45.176,15.173,45.176,15.169
				z"/>
		</g>
		<g>
			<path style="fill:#E0910E;" d="M35.855,10.813c-0.348,0.348-0.906,0.348-1.254,0l-0.705-0.706c-0.346-0.346-0.346-0.907,0-1.253
				l5.484-5.484c0.348-0.347,0.906-0.347,1.254,0l0.705,0.706c0.346,0.346,0.346,0.907,0,1.253L35.855,10.813z"/>
		</g>
		<g>
			<path style="fill:#E0910E;" d="M42.107,14.017c0,0.275-0.225,0.5-0.5,0.5H20.664c-0.273,0-0.498-0.225-0.498-0.5l0,0
				c0-0.274,0.225-0.498,0.498-0.498h20.943C41.883,13.519,42.107,13.742,42.107,14.017L42.107,14.017z"/>
		</g>
		<g>
			<path style="fill:#E0910E;" d="M32.465,8.644c0,0.49-0.395,0.886-0.885,0.886h-0.998c-0.49,0-0.887-0.396-0.887-0.886V0.888
				C29.695,0.396,30.092,0,30.582,0h0.998c0.49,0,0.885,0.396,0.885,0.888V8.644z"/>
		</g>
		<g>
			<path style="fill:#E0910E;" d="M28.486,8.854c0.348,0.346,0.348,0.907,0,1.253l-0.705,0.706c-0.348,0.348-0.906,0.348-1.254,0
				l-5.484-5.484c-0.346-0.346-0.346-0.907,0-1.253l0.705-0.706c0.348-0.347,0.906-0.347,1.254,0L28.486,8.854z"/>
		</g>
		<g>
			<path style="fill:#FED17C;" d="M28.486,10.114l-0.48,0.461l-6.719-6.736l0.463-0.463c0.354-0.353,0.902-0.353,1.258,0l5.479,5.48
				C28.842,9.193,28.842,9.76,28.486,10.114z"/>
		</g>
		<g>
			<path style="fill:#FED17C;" d="M31.744,9.529L31.08,9.516l0.014-9.514h0.652c0.5,0,0.889,0.389,0.889,0.89V8.64
				C32.648,9.128,32.248,9.529,31.744,9.529z"/>
		</g>
		<g>
			<path style="fill:#FED17C;" d="M34.598,10.808l-0.461-0.479l6.736-6.72l0.461,0.462c0.354,0.354,0.354,0.902,0,1.259l-5.48,5.479
				C35.518,11.162,34.951,11.162,34.598,10.808z"/>
		</g>
	</g>
	<g>
		<path style="fill:#EFAC15;" d="M15.035,48.63L17.457,64h28.82l3.883-14.223c0,0-2.656-4.097-9.846-4.394l-0.92,9.379l-14.789-0.07
			l-0.92-9.309C23.686,45.384,16.592,45.521,15.035,48.63z"/>
	</g>
	<g>
		<path style="fill:#FED17C;" d="M39.395,63.113c0,0.491-0.396,0.887-0.887,0.887H25.906c-0.49,0-0.887-0.396-0.887-0.887V59.79
			c0-0.49,0.396-0.887,0.887-0.887h12.602c0.49,0,0.887,0.396,0.887,0.887V63.113z"/>
	</g>
	<g>
		<path style="fill:#E0910E;" d="M39.395,58.903c0,0.367-0.297,0.664-0.664,0.664H25.684c-0.367,0-0.664-0.297-0.664-0.664l0,0
			c0-0.367,0.297-0.664,0.664-0.664H38.73C39.098,58.239,39.395,58.536,39.395,58.903L39.395,58.903z"/>
	</g>
</g>
</svg>
