<?xml version="1.0" encoding="iso-8859-1"?>
<!-- Generator: Adobe Illustrator 16.0.0, SVG Export Plug-In . SVG Version: 6.00 Build 0)  -->
<!DOCTYPE svg PUBLIC "-//W3C//DTD SVG 1.1//EN" "http://www.w3.org/Graphics/SVG/1.1/DTD/svg11.dtd">
<svg version="1.1" id="Layer_1" xmlns="http://www.w3.org/2000/svg" xmlns:xlink="http://www.w3.org/1999/xlink" x="0px" y="0px"
	 width="64px" height="64px" viewBox="0 0 64 64" style="enable-background:new 0 0 64 64;" xml:space="preserve">
<g>
	<path style="fill:#F9D5BE;" d="M55.543,44.661c-0.261-4.95-7.489-5.927-13.09-6.839c-2.994-0.487-3.934-3.597-4.166-6.388
		c-1.897,1.759-4.346,3.555-6.287,3.555c-1.92,0-4.377-1.804-6.285-3.567c-0.23,2.795-1.168,5.912-4.168,6.4
		c-5.601,0.912-12.829,1.889-13.09,6.839C8.196,49.61,8.326,64,8.326,64h23.381h0.587h23.38C55.674,64,55.804,49.61,55.543,44.661z"
		/>
	<path style="fill:#F9D5BE;" d="M38.287,31.435c-0.039-0.467-0.065-0.927-0.07-1.362H25.784c-0.005,0.432-0.031,0.888-0.069,1.35
		c1.908,1.764,4.365,3.567,6.285,3.567C33.941,34.989,36.39,33.193,38.287,31.435z"/>
	<path style="opacity:0.55;fill:#F9D5BE;" d="M38.287,31.435c-0.039-0.467-0.065-0.927-0.07-1.362H25.784
		c-0.005,0.432-0.031,0.888-0.069,1.35c1.908,1.764,4.365,3.567,6.285,3.567C33.941,34.989,36.39,33.193,38.287,31.435z"/>
	<g>
		<path style="fill:#FFFFFF;" d="M32.001,0L32.001,0L32.001,0c-7.604,0-13.769,6.132-13.769,13.696c0,3.679,1.086,6.268,1.729,6.447
			c2.04,0.573,6.258-8.809,12.038-8.809h0.001l0,0c5.781,0,9.999,9.382,12.038,8.809c0.644-0.18,1.729-2.769,1.729-6.447
			C45.768,6.132,39.605,0,32.001,0z"/>
		<path style="fill:#F9D5BE;" d="M44.478,16.459c-0.618-0.215-1.184,0.145-1.627,0.616c0.021-0.613,0.016-1.081-0.003-1.331
			c0-7.334-5.756-11.5-10.848-11.509C26.909,4.244,21.152,8.41,21.152,15.744c-0.019,0.25-0.023,0.718-0.003,1.331
			c-0.442-0.472-1.01-0.831-1.628-0.616c-0.985,0.343-0.497,6.348,2.381,7.423c0.088,0.033,0.156,0.041,0.235,0.062
			c0.374,1.388,0.874,2.734,1.551,3.85c0.782,1.284,5.301,6.314,8.312,6.314c3.053,0,7.53-5.03,8.313-6.314
			c0.676-1.115,1.176-2.462,1.551-3.85c0.078-0.021,0.146-0.028,0.234-0.062C44.976,22.807,45.464,16.802,44.478,16.459z"/>
		<path style="fill:#FFFFFF;" d="M32.348,1.454c-9.546,0-13.029,6.937-12.696,12.59c0.149,2.541,1.244,5.885,1.244,5.885
			c0.124,0.169,0.588,0.065,0.539-0.239c-0.549-3.411,0.352-7.322,1.389-9.712c1.187-2.733,4.827-3.507,9.317-3.507
			c3.911,0,7.998,0.541,9.475,4.113c0.969,2.213,1.398,6.568,0.99,9.105c-0.049,0.305,0.425,0.408,0.548,0.239
			c0,0,1.193-3.818,1.197-6.364C44.354,11.045,43.181,1.454,32.348,1.454z"/>
	</g>
	<path style="fill:#0D1014;" d="M55.543,44.661c-0.261-4.95-7.489-5.927-13.09-6.839c-1.703-0.276-2.738-1.401-3.36-2.833
		c0,0-2.184,3.132-7.103,3.132c-4.887,0-7.082-3.132-7.082-3.132c-0.622,1.432-1.659,2.557-3.361,2.833
		c-5.601,0.912-12.829,1.889-13.09,6.839C8.196,49.61,8.326,64,8.326,64h23.381h0.587h23.38C55.674,64,55.804,49.61,55.543,44.661z"
		/>
	<rect x="30.262" y="37.879" style="fill:#FFFFFF;" width="3.543" height="2.86"/>
	<g>
		<g>
			<g>
				<circle style="fill:#B59E85;" cx="24.888" cy="37.699" r="0.528"/>
				<circle style="fill:#B59E85;" cx="25.417" cy="39.189" r="0.528"/>
				<circle style="fill:#B59E85;" cx="26.059" cy="40.594" r="0.528"/>
				<circle style="fill:#B59E85;" cx="26.794" cy="41.956" r="0.528"/>
				<circle style="fill:#B59E85;" cx="27.65" cy="43.189" r="0.528"/>
				<circle style="fill:#B59E85;" cx="28.708" cy="44.247" r="0.529"/>
				<circle style="fill:#B59E85;" cx="29.938" cy="45.11" r="0.529"/>
				<circle style="fill:#B59E85;" cx="31.324" cy="45.425" r="0.529"/>
			</g>
			<g>
				<circle style="fill:#B59E85;" cx="39.227" cy="37.699" r="0.529"/>
				<circle style="fill:#B59E85;" cx="38.699" cy="39.189" r="0.529"/>
				<circle style="fill:#B59E85;" cx="38.057" cy="40.594" r="0.528"/>
				<circle style="fill:#B59E85;" cx="37.321" cy="41.956" r="0.528"/>
				<circle style="fill:#B59E85;" cx="36.465" cy="43.189" r="0.528"/>
				<circle style="fill:#B59E85;" cx="35.408" cy="44.247" r="0.529"/>
				<circle style="fill:#B59E85;" cx="34.177" cy="45.11" r="0.528"/>
				<circle style="fill:#B59E85;" cx="32.791" cy="45.425" r="0.529"/>
			</g>
		</g>
		<g>
			<rect x="31.696" y="46.516" style="fill:#B59E85;" width="0.673" height="5.884"/>
			<rect x="29.756" y="48.937" style="fill:#B59E85;" width="4.555" height="0.521"/>
		</g>
	</g>
</g>
</svg>
