<?xml version="1.0" encoding="iso-8859-1"?>
<!-- Generator: Adobe Illustrator 16.0.0, SVG Export Plug-In . SVG Version: 6.00 Build 0)  -->
<!DOCTYPE svg PUBLIC "-//W3C//DTD SVG 1.1//EN" "http://www.w3.org/Graphics/SVG/1.1/DTD/svg11.dtd">
<svg version="1.1" id="Layer_1" xmlns="http://www.w3.org/2000/svg" xmlns:xlink="http://www.w3.org/1999/xlink" x="0px" y="0px"
	 width="64px" height="64px" viewBox="0 0 64 64" style="enable-background:new 0 0 64 64;" xml:space="preserve">
<g>
	<path style="fill:#C24E46;" d="M46.138,48.271l5.917,4.291c0.807,0.585,1.376,1.439,1.605,2.408L55.799,64H32.033l0.161-16.838
		L46.138,48.271z"/>
	<path style="fill:#C24E46;" d="M17.861,48.271l-5.916,4.291c-0.807,0.585-1.376,1.439-1.605,2.408L8.201,64h23.766l-0.161-16.838
		L17.861,48.271z"/>
	<path style="fill:#FFD7AF;" d="M43.151,48.811c-2.922-1.715-4.137-6.734-4.208-7.039v-3.482l-13.821,0.367v3.061
		c0,0-1.201,5.301-4.215,7.066c-1.607,0.941,1.624,4.035,4.99,6.714l1.289,2.96L31.967,64l3.811-5.612l1.264-1.991
		C40.75,53.557,44.938,49.857,43.151,48.811z"/>
	<path style="fill:#584A49;" d="M20.05,6.641c0,0,4.365-9.64,17.564-5.691l-2.91,2.371c0,0,9.978-2.682,13.303,7.088L44.993,9.16
		c0,0,3.741,2.182,4.157,10.705l-3.014-2.184c0,0,5.039,10.979-2.391,17.773c-4.022,3.678-5.924,3.846-6.132,4.156
		c-0.208,0.313-11.849,0-11.849,0s-9.457-1.766-9.873-16.004l-2.078,2.592c0,0-1.455-6.957,1.455-11.115l-2.737,1.559
		C12.532,16.643,12.255,8.594,20.05,6.641z"/>
	<path style="fill:#F5CDA5;" d="M25.122,41.141c1.86,2.139,4.189,3.305,6.771,3.305c2.712,0,5.148-1.273,7.05-3.621v-2.535
		l-13.821,0.328V41.141z"/>
	<path style="fill:#FFD7AF;" d="M21.129,31.635c0,0-1.788,1.904-2.656-2.633c-0.928-4.85-0.896-7.482,0.769-8.035
		c1.063-0.355,1.369,0.551,1.369,0.551L21.129,31.635z"/>
	<path style="fill:#FED9AE;" d="M31.806,42.584c6.547,0,11.571-6.859,11.571-18.225C43.377,10.191,39.22,6.9,31.806,6.9
		c-7.413,0-11.57,3.291-11.57,17.459C20.235,35.725,25.258,42.584,31.806,42.584z"/>
	<path style="fill:#FFD7AF;" d="M42.649,31.635c0,0,1.787,1.904,2.655-2.633c0.929-4.85,0.896-7.482-0.768-8.035
		c-1.063-0.355-1.369,0.551-1.369,0.551L42.649,31.635z"/>
	<path style="fill:#FFE1B9;" d="M31.95,6.902v35.672c6.476-0.104,11.427-6.936,11.427-18.215
		C43.377,10.283,39.272,6.945,31.95,6.902z"/>
	<path style="fill:#584A49;" d="M42.188,9.783C38.81,5.107,28.78,4.432,22.908,10.199c0,0-0.397,0.354-0.957,1l-0.343-1.416
		c-0.916,1.27-1.49,2.908-1.843,4.623c-0.813,1.561-1.49,3.5-1.587,5.719c0,0,0.403,0.049,1.074,0.057
		c0.01,2.307,0.225,3.996,0.225,3.996h0.863c-0.066-1.076,0.111-2.539,0.387-4.047c3.09-0.234,8.266-1.457,11.326-6.709
		l-2.078,5.871c0,0,6.34-1.506,6.703-8.314c0,0,2.339,5.301,1.559,7.016c0,0,2.547-1.506,3.118-4.781c0,0,2.313,7.494,2.099,10.965
		h0.863C44.317,24.178,45.564,14.461,42.188,9.783z"/>
	<path style="fill:#584A49;" d="M31.967,52.464c-0.006,0-0.011,0-0.017,0c-8.432-0.007-10.005-4.999-10.068-5.212l0.598-0.178
		c0.059,0.195,1.532,4.763,9.479,4.766c7.978-0.003,9.465-4.717,9.479-4.766l0.598,0.178C41.973,47.465,40.399,52.457,31.967,52.464
		L31.967,52.464z"/>
	<polygon style="fill:#F95F51;" points="23.578,45.748 21.782,45.748 17.861,48.271 31.967,64 22.666,47.162 	"/>
	<polygon style="fill:#F95F51;" points="40.423,45.748 42.218,45.748 46.138,48.271 32.033,64 41.335,47.162 	"/>
	<circle style="fill:#C24E46;" cx="31.967" cy="52.152" r="1.812"/>
</g>
</svg>
