<?xml version="1.0" encoding="iso-8859-1"?>
<!-- Generator: Adobe Illustrator 16.0.0, SVG Export Plug-In . SVG Version: 6.00 Build 0)  -->
<!DOCTYPE svg PUBLIC "-//W3C//DTD SVG 1.1//EN" "http://www.w3.org/Graphics/SVG/1.1/DTD/svg11.dtd">
<svg version="1.1" id="Layer_1" xmlns="http://www.w3.org/2000/svg" xmlns:xlink="http://www.w3.org/1999/xlink" x="0px" y="0px"
	 width="64px" height="64px" viewBox="0 0 64 64" style="enable-background:new 0 0 64 64;" xml:space="preserve">
<g>
	<g>
		<g>
			<g>
				<path style="fill:#FFFFFF;" d="M20.025,40.743l0.58-0.225c0.064-0.024,6.299-2.5,6.299-9.206v-0.51h10.19v0.51
					c0,6.687,6.04,9.106,6.298,9.206l0.58,0.227L32.789,58.316h-1.58L20.025,40.743z"/>
				<path style="fill:#E3C7AA;" d="M33.003,58.707h-2.007L19.441,40.552l1.023-0.396c0.061-0.024,6.05-2.446,6.05-8.844v-0.899
					h10.97v0.899c0,6.416,5.802,8.747,6.049,8.844l1.023,0.396L33.003,58.707z"/>
			</g>
		</g>
		<g>
			<path style="fill:#FFFFFF;" d="M9.381,45.167c2.01-2.007,7.184-5.376,14.563-7.265c0,0,1.154,5.683,8.057,5.683
				c6.439,0,8.057-5.683,8.057-5.683c7.379,1.889,12.554,5.258,14.562,7.265c3.63,3.628,2.34,12.969,2.34,18.443H7.043
				C7.043,58.136,5.752,48.795,9.381,45.167z"/>
			<path style="fill:#F0DE33;" d="M57.348,64H6.652v-0.39c0-1.059-0.049-2.27-0.1-3.553c-0.219-5.401-0.49-12.124,2.553-15.166
				c1.796-1.794,6.921-5.366,14.741-7.367l0.396-0.101l0.083,0.4c0.045,0.219,1.187,5.371,7.675,5.371c6.057,0,7.619-5.18,7.683-5.4
				l0.104-0.363l0.367,0.093c7.82,2.002,12.945,5.573,14.739,7.367c3.044,3.042,2.772,9.766,2.555,15.168
				c-0.052,1.282-0.101,2.492-0.101,3.551V64z"/>
		</g>
		<g>
			<path style="fill:#FF8B26;" d="M32,45.5c-9.424,0-9.88-7.4-9.883-7.471l2.334-0.516c0.014,0.199,0.41,5.649,7.549,5.649
				c6.764,0,7.529-5.546,7.559-5.748l2.313,0.723C41.861,38.208,40.765,45.5,32,45.5z"/>
		</g>
		<g>
			<path style="fill:#3A3E42;" d="M17.421,17.443C17.893,6.942,20.998,2.78,32.189,2.78c10.058,0,13.932,4.157,14.275,14.663
				c0.438,13.441-7.879-3.76-14.523-3.76C24.994,13.684,16.883,29.402,17.421,17.443z"/>
		</g>
		<g>
			<path style="fill:#FFE5CB;" d="M19.021,21.113c-0.005-0.167-0.006-0.333-0.011-0.5c-0.294-8.694,5.817-15.564,12.993-15.564
				s12.992,7.684,12.992,15.564c0,0.168-0.006,0.336-0.012,0.504c0.739,0.326,1.281,1.339,1.281,2.553
				c0,1.477-0.799,2.676-1.783,2.676c-0.142,0-0.279-0.032-0.412-0.08c-3.283,7.339-6.594,10.792-12.066,10.792
				c-5.475,0-10.154-4.83-12.068-10.795c-0.135,0.05-0.273,0.083-0.42,0.083c-0.984,0-1.783-1.199-1.783-2.676
				C17.732,22.452,18.279,21.437,19.021,21.113z"/>
			<path style="fill:#E3C7AA;" d="M32.004,37.447c-5.224,0-10.142-4.294-12.325-10.723c-1.283,0.156-2.336-1.26-2.336-3.055
				c0-1.225,0.506-2.303,1.282-2.788c-0.002-0.096-0.004-0.183-0.004-0.269c0-8.499,6.254-15.954,13.383-15.954
				s13.383,7.455,13.383,15.954c0,0.093-0.002,0.184-0.005,0.275c0.771,0.486,1.273,1.563,1.273,2.781
				c0,1.807-1.056,3.23-2.363,3.052C40.789,34.434,37.326,37.447,32.004,37.447z M20.182,25.757l0.125,0.386
				c2.02,6.296,6.721,10.525,11.697,10.525c5.027,0,8.311-2.962,11.711-10.562l0.146-0.329l0.34,0.121
				c0.107,0.038,0.199,0.058,0.281,0.058c0.756,0,1.395-1.047,1.395-2.286c0-1.021-0.432-1.924-1.05-2.195l-0.241-0.107l0.01-0.266
				c0.006-0.163,0.006-0.325,0.012-0.488c0.289-9.201-5.89-15.175-12.604-15.175S19.4,12.529,19.4,20.613
				c0,0.145,0.004,0.289,0.009,0.433l0.009,0.264l-0.24,0.16c-0.622,0.271-1.057,1.175-1.057,2.2c0,1.239,0.639,2.286,1.395,2.286
				c0.086,0,0.177-0.02,0.285-0.06L20.182,25.757z"/>
		</g>
		<g>
			<path style="fill:#3362A3;" d="M45.459,20.025l-1.199-0.472c-0.711-0.507-2.379-1.356-5.578-1.356
				c-3.978,0-5.525,1.458-6.119,2.46h-1.386c-0.584-1.003-2.123-2.46-6.128-2.46c-3.32,0-5.008,0.949-5.539,1.341l-1.387,0.552
				l-0.053,1.716l1.28-0.393c0.524,1.542,1.998,4.336,5.775,4.336c1.655,0,2.987-0.326,3.909-0.942
				c1.133-0.524,1.666-1.676,1.917-2.315h1.828c0.249,0.64,0.776,1.786,1.868,2.288c0.971,0.644,2.302,0.97,3.956,0.97
				c3.825,0,5.288-2.843,5.802-4.41l1.522,0.467l-0.04-1.143L45.459,20.025z"/>
		</g>
		<g>
			<path style="fill:#3A3E42;" d="M40.023,5.436c0,0-2.67-3.707-10.13-3.707c-7.459,0-10.872,4.201-12.354,1.978
				c0,0-1.444,3.161,7.413,6.425C35.322,13.95,40.023,5.436,40.023,5.436z"/>
		</g>
		<g>
			<path style="fill:#3A3E42;" d="M37.812,9.011c0,0-3.524-7.81-10.362-4.236c-9.775,5.108-12.432,0.14-12.432,0.14
				s-2.2,4.264,6.859,7.99C32.485,17.267,37.812,9.011,37.812,9.011z"/>
		</g>
		<g>
			<path style="fill:#3A3E42;" d="M42.391,6.448c-1.35-1.033-6.383-3.322-6.478,2.053c-0.09,5.089-4.06,7.201-4.06,7.201
				s2.417,1.355,8.424-1.073C47.309,11.784,44.068,7.73,42.391,6.448z"/>
		</g>
		<g>
			<path style="fill:#3A3E42;" d="M43.977,12.354c-1.289,1.105-4.84,1.428-8.55-2.461C32.117,6.424,31.869,0,31.869,0
				s1.777,1.612,7.908,3.706C46.955,6.159,45.582,10.979,43.977,12.354z"/>
		</g>
		<g>
			<path style="fill:#3A3E42;" d="M43.195,7.599c0.746,0.289,1.402,1.655,0.922,4.225c-0.745,3.99-5.44,4.113-5.44,4.113
				s2.438-1.397,1.913-4.503C39.975,7.796,42.268,7.24,43.195,7.599z"/>
		</g>
		<g>
			<path style="fill:#3A3E42;" d="M40.338,5.413c0.662-0.49,2.809-0.637,4.443,1.897c2.297,3.561,1.886,6.198,1.886,6.198
				s-0.187-1.714-3.374-3.247C39.562,8.468,39.511,6.025,40.338,5.413z"/>
		</g>
		<g>
			<path style="fill:#3A3E42;" d="M43.248,10.253c-0.793,0.233-3.436-2.485-4.185-4.246C38.396,4.437,37.936,2.1,37.936,2.1
				s3.286,2.068,4.704,3.013C46.09,7.412,44.234,9.962,43.248,10.253z"/>
		</g>
		<g>
			<path style="fill:#3A3E42;" d="M22.75,10.363c-0.171,0.781-1.446,1.927-4.033,1.556c-2.308-0.329-4.307-2.636-4.307-2.636
				s1.165,0.084,4.152-0.91C22.064,7.21,22.963,9.391,22.75,10.363z"/>
		</g>
		<g>
			<path style="fill:#3A3E42;" d="M24.578,8.212c-0.9-0.758-3.356-0.946-5.877,1.81c-2.246,2.457-2.342,6.946-2.342,6.946
				s1.207-1.143,5.42-2.671C26.71,12.51,25.705,9.157,24.578,8.212z"/>
		</g>
	</g>
	<g>
		<g>
			<g>
				<path style="fill:#FFFFFF;" d="M20.025,40.743l0.58-0.225c0.064-0.024,6.299-2.5,6.299-9.206v-0.51h10.19v0.51
					c0,6.687,6.04,9.106,6.298,9.206l0.58,0.227L32.789,58.316h-1.58L20.025,40.743z"/>
				<path style="fill:#E3C7AA;" d="M33.003,58.707h-2.007L19.441,40.552l1.023-0.396c0.061-0.024,6.05-2.446,6.05-8.844v-0.899
					h10.97v0.899c0,6.416,5.802,8.747,6.049,8.844l1.023,0.396L33.003,58.707z"/>
			</g>
		</g>
		<g>
			<path style="fill:#FFFFFF;" d="M9.381,45.167c2.01-2.007,7.184-5.376,14.563-7.265c0,0,1.154,5.683,8.057,5.683
				c6.439,0,8.057-5.683,8.057-5.683c7.379,1.889,12.554,5.258,14.562,7.265c3.63,3.628,2.34,12.969,2.34,18.443H7.043
				C7.043,58.136,5.752,48.795,9.381,45.167z"/>
			<path style="fill:#F0DE33;" d="M57.348,64H6.652v-0.39c0-1.059-0.049-2.27-0.1-3.553c-0.219-5.401-0.49-12.124,2.553-15.166
				c1.796-1.794,6.921-5.366,14.741-7.367l0.396-0.101l0.083,0.4c0.045,0.219,1.187,5.371,7.675,5.371c6.057,0,7.619-5.18,7.683-5.4
				l0.104-0.363l0.367,0.093c7.82,2.002,12.945,5.573,14.739,7.367c3.044,3.042,2.772,9.766,2.555,15.168
				c-0.052,1.282-0.101,2.492-0.101,3.551V64z"/>
		</g>
		<g>
			<path style="fill:#FF8B26;" d="M32,45.5c-9.424,0-9.88-7.4-9.883-7.471l2.334-0.516c0.014,0.199,0.41,5.649,7.549,5.649
				c6.764,0,7.529-5.546,7.559-5.748l2.313,0.723C41.861,38.208,40.765,45.5,32,45.5z"/>
		</g>
		<g>
			<path style="fill:#3A3E42;" d="M17.421,17.443C17.893,6.942,20.998,2.78,32.189,2.78c10.058,0,13.932,4.157,14.275,14.663
				c0.438,13.441-7.879-3.76-14.523-3.76C24.994,13.684,16.883,29.402,17.421,17.443z"/>
		</g>
		<g>
			<path style="fill:#FFE5CB;" d="M19.021,21.113c-0.005-0.167-0.006-0.333-0.011-0.5c-0.294-8.694,5.817-15.564,12.993-15.564
				s12.992,7.684,12.992,15.564c0,0.168-0.006,0.336-0.012,0.504c0.739,0.326,1.281,1.339,1.281,2.553
				c0,1.477-0.799,2.676-1.783,2.676c-0.142,0-0.279-0.032-0.412-0.08c-3.283,7.339-6.594,10.792-12.066,10.792
				c-5.475,0-10.154-4.83-12.068-10.795c-0.135,0.05-0.273,0.083-0.42,0.083c-0.984,0-1.783-1.199-1.783-2.676
				C17.732,22.452,18.279,21.437,19.021,21.113z"/>
			<path style="fill:#E3C7AA;" d="M32.004,37.447c-5.224,0-10.142-4.294-12.325-10.723c-1.283,0.156-2.336-1.26-2.336-3.055
				c0-1.225,0.506-2.303,1.282-2.788c-0.002-0.096-0.004-0.183-0.004-0.269c0-8.499,6.254-15.954,13.383-15.954
				s13.383,7.455,13.383,15.954c0,0.093-0.002,0.184-0.005,0.275c0.771,0.486,1.273,1.563,1.273,2.781
				c0,1.807-1.056,3.23-2.363,3.052C40.789,34.434,37.326,37.447,32.004,37.447z M20.182,25.757l0.125,0.386
				c2.02,6.296,6.721,10.525,11.697,10.525c5.027,0,8.311-2.962,11.711-10.562l0.146-0.329l0.34,0.121
				c0.107,0.038,0.199,0.058,0.281,0.058c0.756,0,1.395-1.047,1.395-2.286c0-1.021-0.432-1.924-1.05-2.195l-0.241-0.107l0.01-0.266
				c0.006-0.163,0.006-0.325,0.012-0.488c0.289-9.201-5.89-15.175-12.604-15.175S19.4,12.529,19.4,20.613
				c0,0.145,0.004,0.289,0.009,0.433l0.009,0.264l-0.24,0.16c-0.622,0.271-1.057,1.175-1.057,2.2c0,1.239,0.639,2.286,1.395,2.286
				c0.086,0,0.177-0.02,0.285-0.06L20.182,25.757z"/>
		</g>
		<g>
			<path style="fill:#3362A3;" d="M45.459,20.025l-1.199-0.472c-0.711-0.507-2.379-1.356-5.578-1.356
				c-3.978,0-5.525,1.458-6.119,2.46h-1.386c-0.584-1.003-2.123-2.46-6.128-2.46c-3.32,0-5.008,0.949-5.539,1.341l-1.387,0.552
				l-0.053,1.716l1.28-0.393c0.524,1.542,1.998,4.336,5.775,4.336c1.655,0,2.987-0.326,3.909-0.942
				c1.133-0.524,1.666-1.676,1.917-2.315h1.828c0.249,0.64,0.776,1.786,1.868,2.288c0.971,0.644,2.302,0.97,3.956,0.97
				c3.825,0,5.288-2.843,5.802-4.41l1.522,0.467l-0.04-1.143L45.459,20.025z"/>
		</g>
		<g>
			<path style="fill:#3A3E42;" d="M40.023,5.436c0,0-2.67-3.707-10.13-3.707c-7.459,0-10.872,4.201-12.354,1.978
				c0,0-1.444,3.161,7.413,6.425C35.322,13.95,40.023,5.436,40.023,5.436z"/>
		</g>
		<g>
			<path style="fill:#3A3E42;" d="M37.812,9.011c0,0-3.524-7.81-10.362-4.236c-9.775,5.108-12.432,0.14-12.432,0.14
				s-2.2,4.264,6.859,7.99C32.485,17.267,37.812,9.011,37.812,9.011z"/>
		</g>
		<g>
			<path style="fill:#3A3E42;" d="M42.391,6.448c-1.35-1.033-6.383-3.322-6.478,2.053c-0.09,5.089-4.06,7.201-4.06,7.201
				s2.417,1.355,8.424-1.073C47.309,11.784,44.068,7.73,42.391,6.448z"/>
		</g>
		<g>
			<path style="fill:#3A3E42;" d="M43.977,12.354c-1.289,1.105-4.84,1.428-8.55-2.461C32.117,6.424,31.869,0,31.869,0
				s1.777,1.612,7.908,3.706C46.955,6.159,45.582,10.979,43.977,12.354z"/>
		</g>
		<g>
			<path style="fill:#3A3E42;" d="M43.195,7.599c0.746,0.289,1.402,1.655,0.922,4.225c-0.745,3.99-5.44,4.113-5.44,4.113
				s2.438-1.397,1.913-4.503C39.975,7.796,42.268,7.24,43.195,7.599z"/>
		</g>
		<g>
			<path style="fill:#3A3E42;" d="M40.338,5.413c0.662-0.49,2.809-0.637,4.443,1.897c2.297,3.561,1.886,6.198,1.886,6.198
				s-0.187-1.714-3.374-3.247C39.562,8.468,39.511,6.025,40.338,5.413z"/>
		</g>
		<g>
			<path style="fill:#3A3E42;" d="M43.248,10.253c-0.793,0.233-3.436-2.485-4.185-4.246C38.396,4.437,37.936,2.1,37.936,2.1
				s3.286,2.068,4.704,3.013C46.09,7.412,44.234,9.962,43.248,10.253z"/>
		</g>
		<g>
			<path style="fill:#3A3E42;" d="M22.75,10.363c-0.171,0.781-1.446,1.927-4.033,1.556c-2.308-0.329-4.307-2.636-4.307-2.636
				s1.165,0.084,4.152-0.91C22.064,7.21,22.963,9.391,22.75,10.363z"/>
		</g>
		<g>
			<path style="fill:#3A3E42;" d="M24.578,8.212c-0.9-0.758-3.356-0.946-5.877,1.81c-2.246,2.457-2.342,6.946-2.342,6.946
				s1.207-1.143,5.42-2.671C26.71,12.51,25.705,9.157,24.578,8.212z"/>
		</g>
	</g>
</g>
</svg>
