<?xml version="1.0" encoding="iso-8859-1"?>
<!-- Generator: Adobe Illustrator 16.0.0, SVG Export Plug-In . SVG Version: 6.00 Build 0)  -->
<!DOCTYPE svg PUBLIC "-//W3C//DTD SVG 1.1//EN" "http://www.w3.org/Graphics/SVG/1.1/DTD/svg11.dtd">
<svg version="1.1" id="Layer_1" xmlns="http://www.w3.org/2000/svg" xmlns:xlink="http://www.w3.org/1999/xlink" x="0px" y="0px"
	 width="64px" height="64px" viewBox="0 0 64 64" style="enable-background:new 0 0 64 64;" xml:space="preserve">
<g>
	<g>
		<g>
			<g>
				<path style="fill:#E3C7AA;" d="M33.055,58.841h-2.109l-12.156-19.1l1.074-0.418c0.261-0.101,6.367-2.548,6.367-9.304v-0.947
					h11.54v0.947c0,6.723,6.302,9.278,6.365,9.304l1.077,0.416L33.055,58.841z"/>
			</g>
		</g>
		<g>
			<path style="fill:#339ECC;" d="M55.796,44.596c-2.112-2.112-7.556-5.657-15.319-7.644c0,0-1.213,5.979-8.477,5.979
				c-6.774,0-8.477-5.979-8.477-5.979c-7.763,1.986-13.208,5.531-15.32,7.644C4.386,48.412,5.741,58.24,5.741,64h52.517
				C58.258,58.24,59.614,48.412,55.796,44.596z"/>
		</g>
		<g>
			<path style="fill:#3A3E42;" d="M47.274,15.427C46.776,4.379,47.19,0,31.734,0C17.036,0,17.079,4.374,16.718,15.427
				c-0.463,14.143,8.287-3.955,15.277-3.955C39.306,11.472,47.841,28.009,47.274,15.427z"/>
		</g>
		<g>
			<path style="fill:#FFE5CB;" d="M45.653,19.288c0.005-0.176,0.012-0.351,0.012-0.525c0-8.292-6.119-16.376-13.67-16.376
				c-7.549,0-13.67,8.084-13.67,16.376c0,0.177,0.008,0.353,0.013,0.53c-0.777,0.342-1.349,1.408-1.349,2.686
				c0,1.553,0.841,2.814,1.877,2.814c0.15,0,0.293-0.033,0.434-0.084c3.454,7.722,6.938,11.354,12.695,11.354
				c5.76,0,10.684-5.082,12.697-11.357c0.143,0.052,0.288,0.087,0.441,0.087c1.035,0,1.877-1.262,1.877-2.814
				C47.011,20.696,46.436,19.628,45.653,19.288z"/>
			<path style="fill:#E3C7AA;" d="M31.995,36.473c-5.601,0-9.244-3.17-12.93-11.284c-1.378,0.188-2.486-1.31-2.486-3.21
				c0-1.283,0.529-2.416,1.341-2.927c-0.002-0.097-0.005-0.192-0.005-0.289c0-8.942,6.58-16.786,14.08-16.786
				c7.501,0,14.08,7.844,14.08,16.786c0,0.094-0.002,0.188-0.004,0.282c0.817,0.51,1.35,1.645,1.35,2.934
				c0,1.886-1.085,3.373-2.458,3.214C42.665,31.955,37.492,36.473,31.995,36.473z M19.519,24.195l0.155,0.347
				c3.577,7.995,7.031,11.111,12.321,11.111c5.237,0,10.182-4.449,12.307-11.073l0.13-0.405l0.401,0.146
				c0.115,0.043,0.212,0.063,0.301,0.063c0.795,0,1.467-1.102,1.467-2.404c0-1.079-0.456-2.03-1.11-2.315l-0.254-0.11l0.011-0.381
				c0.004-0.137,0.008-0.273,0.008-0.409c0-8.506-6.196-15.966-13.26-15.966s-13.26,7.46-13.26,15.966
				c0,0.128,0.004,0.255,0.008,0.384l0.012,0.409l-0.252,0.112c-0.649,0.287-1.104,1.236-1.104,2.311
				c0,1.303,0.671,2.404,1.467,2.404c0.088,0,0.182-0.019,0.296-0.06L19.519,24.195z"/>
		</g>
		<g>
			<path style="fill:#3A3E42;" d="M18.187,19.068c2.917,0,1.968-12.116,6.258-12.116c0,0,2.34,2.459,7.427,2.459
				c5.441,0,7.986-2.636,7.986-2.636c3.301,0,3.322,13.436,6.596,11.903c0,0,2.773-18.479-14.822-17.681
				C17.426,0.998,15.865,19.068,18.187,19.068z"/>
		</g>
		<g>
			<g>
				<path style="fill:#3A3E42;" d="M33.229,28.789h-2.459c-1.799,0-3.168,0.615-3.168,1.856c0,0,1.488,0,4.39,0
					c2.072,0,4.405,0,4.405,0C36.397,29.404,35.028,28.789,33.229,28.789z"/>
			</g>
		</g>
		<g>
			<g>
				<polygon style="fill:#3A3E42;" points="28.491,35.418 26.931,35.027 27.71,29.958 29.271,29.958 				"/>
			</g>
			<g>
				<polygon style="fill:#3A3E42;" points="37.069,35.027 35.509,35.418 34.729,29.958 36.289,29.958 				"/>
			</g>
		</g>
		<g>
			<path style="fill:#3A3E42;" d="M43.113,28.531l-6.369,3.899l-1.04,0.909c0,0-1.603,0.733-3.704,0.793
				c-2.102-0.06-3.704-0.793-3.704-0.793l-1.04-0.909l-6.369-3.899c0,0,2.991,6.173,4.857,7.34c1.306,0.816,4.084,0.543,6.132,0.578
				c0.016,0.002,5.074,0.238,6.38-0.578C40.122,34.704,43.113,28.531,43.113,28.531z"/>
		</g>
	</g>
	<g>
		<g>
			<g>
				<path style="fill:#E3C7AA;" d="M33.055,58.841h-2.109l-12.156-19.1l1.074-0.418c0.261-0.101,6.367-2.548,6.367-9.304v-0.947
					h11.54v0.947c0,6.723,6.302,9.278,6.365,9.304l1.077,0.416L33.055,58.841z"/>
			</g>
		</g>
		<g>
			<path style="fill:#339ECC;" d="M55.796,44.596c-2.112-2.112-7.556-5.657-15.319-7.644c0,0-1.213,5.979-8.477,5.979
				c-6.774,0-8.477-5.979-8.477-5.979c-7.763,1.986-13.208,5.531-15.32,7.644C4.386,48.412,5.741,58.24,5.741,64h52.517
				C58.258,58.24,59.614,48.412,55.796,44.596z"/>
		</g>
		<g>
			<path style="fill:#3A3E42;" d="M47.274,15.427C46.776,4.379,47.19,0,31.734,0C17.036,0,17.079,4.374,16.718,15.427
				c-0.463,14.143,8.287-3.955,15.277-3.955C39.306,11.472,47.841,28.009,47.274,15.427z"/>
		</g>
		<g>
			<path style="fill:#FFE5CB;" d="M45.653,19.288c0.005-0.176,0.012-0.351,0.012-0.525c0-8.292-6.119-16.376-13.67-16.376
				c-7.549,0-13.67,8.084-13.67,16.376c0,0.177,0.008,0.353,0.013,0.53c-0.777,0.342-1.349,1.408-1.349,2.686
				c0,1.553,0.841,2.814,1.877,2.814c0.15,0,0.293-0.033,0.434-0.084c3.454,7.722,6.938,11.354,12.695,11.354
				c5.76,0,10.684-5.082,12.697-11.357c0.143,0.052,0.288,0.087,0.441,0.087c1.035,0,1.877-1.262,1.877-2.814
				C47.011,20.696,46.436,19.628,45.653,19.288z"/>
			<path style="fill:#E3C7AA;" d="M31.995,36.473c-5.601,0-9.244-3.17-12.93-11.284c-1.378,0.188-2.486-1.31-2.486-3.21
				c0-1.283,0.529-2.416,1.341-2.927c-0.002-0.097-0.005-0.192-0.005-0.289c0-8.942,6.58-16.786,14.08-16.786
				c7.501,0,14.08,7.844,14.08,16.786c0,0.094-0.002,0.188-0.004,0.282c0.817,0.51,1.35,1.645,1.35,2.934
				c0,1.886-1.085,3.373-2.458,3.214C42.665,31.955,37.492,36.473,31.995,36.473z M19.519,24.195l0.155,0.347
				c3.577,7.995,7.031,11.111,12.321,11.111c5.237,0,10.182-4.449,12.307-11.073l0.13-0.405l0.401,0.146
				c0.115,0.043,0.212,0.063,0.301,0.063c0.795,0,1.467-1.102,1.467-2.404c0-1.079-0.456-2.03-1.11-2.315l-0.254-0.11l0.011-0.381
				c0.004-0.137,0.008-0.273,0.008-0.409c0-8.506-6.196-15.966-13.26-15.966s-13.26,7.46-13.26,15.966
				c0,0.128,0.004,0.255,0.008,0.384l0.012,0.409l-0.252,0.112c-0.649,0.287-1.104,1.236-1.104,2.311
				c0,1.303,0.671,2.404,1.467,2.404c0.088,0,0.182-0.019,0.296-0.06L19.519,24.195z"/>
		</g>
		<g>
			<path style="fill:#3A3E42;" d="M18.187,19.068c2.917,0,1.968-12.116,6.258-12.116c0,0,2.34,2.459,7.427,2.459
				c5.441,0,7.986-2.636,7.986-2.636c3.301,0,3.322,13.436,6.596,11.903c0,0,2.773-18.479-14.822-17.681
				C17.426,0.998,15.865,19.068,18.187,19.068z"/>
		</g>
		<g>
			<g>
				<path style="fill:#3A3E42;" d="M33.229,28.789h-2.459c-1.799,0-3.168,0.615-3.168,1.856c0,0,1.488,0,4.39,0
					c2.072,0,4.405,0,4.405,0C36.397,29.404,35.028,28.789,33.229,28.789z"/>
			</g>
		</g>
		<g>
			<g>
				<polygon style="fill:#3A3E42;" points="28.491,35.418 26.931,35.027 27.71,29.958 29.271,29.958 				"/>
			</g>
			<g>
				<polygon style="fill:#3A3E42;" points="37.069,35.027 35.509,35.418 34.729,29.958 36.289,29.958 				"/>
			</g>
		</g>
		<g>
			<path style="fill:#3A3E42;" d="M43.113,28.531l-6.369,3.899l-1.04,0.909c0,0-1.603,0.733-3.704,0.793
				c-2.102-0.06-3.704-0.793-3.704-0.793l-1.04-0.909l-6.369-3.899c0,0,2.991,6.173,4.857,7.34c1.306,0.816,4.084,0.543,6.132,0.578
				c0.016,0.002,5.074,0.238,6.38-0.578C40.122,34.704,43.113,28.531,43.113,28.531z"/>
		</g>
	</g>
</g>
</svg>
