<?xml version="1.0" encoding="iso-8859-1"?>
<!-- Generator: Adobe Illustrator 16.0.0, SVG Export Plug-In . SVG Version: 6.00 Build 0)  -->
<!DOCTYPE svg PUBLIC "-//W3C//DTD SVG 1.1//EN" "http://www.w3.org/Graphics/SVG/1.1/DTD/svg11.dtd">
<svg version="1.1" id="Layer_1" xmlns="http://www.w3.org/2000/svg" xmlns:xlink="http://www.w3.org/1999/xlink" x="0px" y="0px"
	 width="64px" height="64px" viewBox="0 0 64 64" style="enable-background:new 0 0 64 64;" xml:space="preserve">
<g>
	<path style="fill:#333333;" d="M32.253,53.678c0,0,22.766,5.244,20.868,0c-1.896-5.245-2.901-18.414-2.901-32.475
		S43.747,0,32.253,0h-0.266C20.493,0,14.021,7.143,14.021,21.203s-1.005,27.229-2.901,32.475c-1.897,5.244,20.868,0,20.868,0H32.253
		z"/>
	<path style="fill:#FED9AE;" d="M52.067,54.033c-0.341-0.666-0.871-1.207-1.53-1.559c-2.091-1.116-6.98-3.771-10.186-5.846
		c-0.459-0.296-0.833-0.693-1.116-1.152c-0.357-0.775-0.93-2.415-1.235-5.39h-0.063h-5.904l0,0h-0.063h-0.001h-5.904H26
		c-0.306,2.975-0.879,4.615-1.234,5.39c-0.283,0.459-0.658,0.856-1.116,1.152c-3.206,2.074-8.097,4.729-10.187,5.846
		c-0.659,0.352-1.188,0.893-1.529,1.559L6.822,64h25.146h0.064h25.146L52.067,54.033z"/>
	<path style="fill:#F5CDA5;" d="M38,40.087h-5.968l0,0h-5.969c-0.048,0.465-0.104,0.89-0.162,1.291
		c1.794,1.432,3.876,2.198,6.131,2.198c2.254,0,4.336-0.767,6.13-2.198C38.104,40.977,38.048,40.552,38,40.087z"/>
	<path style="fill:#FFD7AF;" d="M20.567,30.392c0,0-1.92,2.044-2.853-2.827c-0.996-5.209-0.961-8.035,0.825-8.631
		c1.143-0.38,1.471,0.593,1.471,0.593L20.567,30.392z"/>
	<path style="fill:#FED9AE;" d="M32.032,42.146c7.03,0,12.423-7.366,12.423-19.566c0-15.215-4.464-18.748-12.423-18.748
		c-7.961,0-12.425,3.533-12.425,18.748C19.607,34.78,25.001,42.146,32.032,42.146z"/>
	<path style="fill:#FFD7AF;" d="M43.674,30.392c0,0,1.92,2.044,2.854-2.827c0.995-5.209,0.961-8.035-0.825-8.631
		c-1.143-0.38-1.471,0.593-1.471,0.593L43.674,30.392z"/>
	<path style="fill:#FFE1B9;" d="M32.187,3.833v38.303c6.953-0.108,12.269-7.446,12.269-19.556
		C44.455,7.466,40.048,3.881,32.187,3.833z"/>
	<path style="fill:#333333;" d="M18.986,25.667h1.228c0,0-0.354-5.989,5.858-9.095c3.795-1.897,10.435-2.679,13.838-7.756
		c0,0,4.018,7.532,4.018,16.851h1.228c0,0,1.842-10.657-1.45-16.851c-3.292-6.194-11.438-5.469-11.718-5.469
		S24.12,3.236,21.219,9.15C18.316,15.065,17.368,16.349,18.986,25.667z"/>
	<polygon style="fill:#C85123;" points="46.346,50.237 41.922,61.564 31.968,61.564 31.935,61.564 21.981,61.564 17.558,50.237 
		14.958,51.669 17.059,64 31.935,64 31.968,64 46.845,64 48.945,51.669 	"/>
	<g>
		<circle style="fill:#C85123;" cx="32.186" cy="52.71" r="1.699"/>
		<circle style="fill:#C85123;" cx="35.534" cy="51.334" r="1.339"/>
		<circle style="fill:#C85123;" cx="28.838" cy="51.334" r="1.339"/>
		<circle style="fill:#C85123;" cx="26.296" cy="49.791" r="1.25"/>
		<circle style="fill:#C85123;" cx="38.112" cy="49.791" r="1.25"/>
		<circle style="fill:#C85123;" cx="24.226" cy="47.927" r="1.116"/>
		<circle style="fill:#C85123;" cx="40.147" cy="47.927" r="1.116"/>
	</g>
</g>
</svg>
