<?xml version="1.0" encoding="iso-8859-1"?>
<!-- Generator: Adobe Illustrator 16.0.0, SVG Export Plug-In . SVG Version: 6.00 Build 0)  -->
<!DOCTYPE svg PUBLIC "-//W3C//DTD SVG 1.1//EN" "http://www.w3.org/Graphics/SVG/1.1/DTD/svg11.dtd">
<svg version="1.1" id="Layer_1" xmlns="http://www.w3.org/2000/svg" xmlns:xlink="http://www.w3.org/1999/xlink" x="0px" y="0px"
	 width="64px" height="64px" viewBox="0 0 64 64" style="enable-background:new 0 0 64 64;" xml:space="preserve">
<g>
	<g>
		<path style="fill:#E3C7AA;" d="M56.848,43.282c-1.937-1.937-7.45-5.781-15.867-7.961c-0.489-0.624-3.044-4.02-3.044-6.799v-0.957
			H26.063v0.957c0,2.791-2.555,6.177-3.044,6.799C14.603,37.5,9.09,41.345,7.152,43.282C3.854,46.581,4.147,53.877,4.385,59.74
			c0.056,1.392,0.108,2.707,0.108,3.856V64h55.014v-0.403c0-1.149,0.053-2.465,0.109-3.855
			C59.852,53.878,60.146,46.581,56.848,43.282z"/>
		<g>
			<path style="fill:#339ECC;" d="M47.869,38.057c-1.085-0.493-2.257-0.969-3.506-1.411c0,0-2.845,14.57-12.363,14.748
				c-9.52-0.178-12.363-14.748-12.363-14.748c-1.25,0.442-2.421,0.918-3.507,1.411c0,0,7.188,10.125,0.748,17.37l-0.805,7.902
				h15.754h16.1l-0.806-7.902C40.683,48.182,47.869,38.057,47.869,38.057z"/>
		</g>
		<g>
			<g>
				<path style="fill:#FFE5CB;" d="M46.093,16.239c0.006-0.182,0.013-0.362,0.013-0.543c0-8.558-6.317-15.293-14.11-15.293
					c-7.792,0-14.109,6.735-14.109,15.293c0,0.181,0.007,0.363,0.013,0.546c-0.802,0.354-1.393,1.455-1.393,2.772
					c0,1.604,0.868,2.906,1.938,2.906c0.155,0,0.304-0.035,0.448-0.087c2.078,6.476,7.16,13.329,13.104,13.329
					c5.945,0,11.027-6.854,13.104-13.332c0.147,0.054,0.298,0.09,0.457,0.09c1.069,0,1.937-1.303,1.937-2.906
					C47.493,17.693,46.899,16.589,46.093,16.239z"/>
				<path style="fill:#E3C7AA;" d="M31.995,35.566c-6.153,0-11.198-6.803-13.37-13.254c-1.407,0.173-2.521-1.357-2.521-3.298
					c0-1.32,0.546-2.487,1.384-3.01c-0.003-0.114-0.005-0.212-0.005-0.309C17.482,7.042,23.992,0,31.995,0
					c8.002,0,14.513,7.042,14.513,15.696c0,0.101-0.002,0.202-0.004,0.303c0.843,0.519,1.393,1.688,1.393,3.016
					c0,1.943-1.125,3.478-2.53,3.297C43.195,28.764,38.149,35.566,31.995,35.566z M19.148,21.313l0.127,0.397
					c2.081,6.484,7.118,13.051,12.72,13.051c5.603,0,10.641-6.566,12.721-13.053l0.128-0.399l0.394,0.144
					c0.122,0.044,0.224,0.065,0.319,0.065c0.831,0,1.533-1.146,1.533-2.503c0-1.121-0.476-2.11-1.157-2.406l-0.251-0.109
					l0.011-0.354c0.005-0.149,0.01-0.3,0.01-0.448c0-8.21-6.149-14.89-13.707-14.89s-13.707,6.68-13.707,14.89
					c0,0.15,0.006,0.303,0.011,0.454l0.009,0.272l-0.246,0.188c-0.679,0.301-1.152,1.29-1.152,2.404
					c0,1.356,0.702,2.503,1.534,2.503c0.094,0,0.192-0.021,0.312-0.063L19.148,21.313z"/>
			</g>
		</g>
		<g>
			<g>
				<g>
					<path style="fill:#3A3E42;" d="M20.104,15.186c0,2.895,2.345,5.241,5.239,5.241s5.24-2.347,5.24-5.241
						c0-0.071-2.566-0.509-5.159-0.51C22.778,14.675,20.104,15.112,20.104,15.186z"/>
				</g>
			</g>
			<g>
				<g>
					<path style="fill:#3A3E42;" d="M33.416,15.186c0,2.895,2.345,5.241,5.239,5.241s5.24-2.347,5.24-5.241
						c0-0.074-2.85-0.513-5.578-0.509C35.815,14.679,33.416,15.117,33.416,15.186z"/>
				</g>
			</g>
		</g>
		<g>
			<rect x="18.043" y="15.328" style="fill:#3A3E42;" width="27.914" height="1.132"/>
		</g>
		<g>
			<g>
				<path style="fill:#3A3E42;" d="M33.073,25.104h-2.146c-2.223,0-4.024,1.803-4.024,4.025v5.635c0,1.2,1.341,2.364,1.341,2.242
					V31.72c0-2.246,1.328-4.065,2.966-4.065h1.582c1.637,0,2.966,1.819,2.966,4.065c0,0-0.02,5.122-0.027,5.242
					c0.833-0.736,1.368-0.997,1.368-2.197V29.13C37.098,26.907,35.296,25.104,33.073,25.104z"/>
			</g>
		</g>
	</g>
	<path style="fill:#E3C7AA;" d="M56.848,43.282c-1.937-1.937-7.45-5.781-15.867-7.961c-0.489-0.624-3.044-4.02-3.044-6.799v-0.957
		H26.063v0.957c0,2.791-2.555,6.177-3.044,6.799C14.603,37.5,9.09,41.345,7.152,43.282C3.854,46.581,4.147,53.877,4.385,59.74
		c0.056,1.392,0.108,2.707,0.108,3.856V64h55.014v-0.403c0-1.149,0.053-2.465,0.109-3.855
		C59.852,53.878,60.146,46.581,56.848,43.282z"/>
	<g>
		<path style="fill:#339ECC;" d="M47.869,38.057c-1.085-0.493-2.257-0.969-3.506-1.411c0,0-2.845,14.57-12.363,14.748
			c-9.52-0.178-12.363-14.748-12.363-14.748c-1.25,0.442-2.421,0.918-3.507,1.411c0,0,7.188,10.125,0.748,17.37l-0.805,7.902h15.754
			h16.1l-0.806-7.902C40.683,48.182,47.869,38.057,47.869,38.057z"/>
	</g>
	<g>
		<g>
			<path style="fill:#FFE5CB;" d="M46.093,16.239c0.006-0.182,0.013-0.362,0.013-0.543c0-8.558-6.317-15.293-14.11-15.293
				c-7.792,0-14.109,6.735-14.109,15.293c0,0.181,0.007,0.363,0.013,0.546c-0.802,0.354-1.393,1.455-1.393,2.772
				c0,1.604,0.868,2.906,1.938,2.906c0.155,0,0.304-0.035,0.448-0.087c2.078,6.476,7.16,13.329,13.104,13.329
				c5.945,0,11.027-6.854,13.104-13.332c0.147,0.054,0.298,0.09,0.457,0.09c1.069,0,1.937-1.303,1.937-2.906
				C47.493,17.693,46.899,16.589,46.093,16.239z"/>
			<path style="fill:#E3C7AA;" d="M31.995,35.566c-6.153,0-11.198-6.803-13.37-13.254c-1.407,0.173-2.521-1.357-2.521-3.298
				c0-1.32,0.546-2.487,1.384-3.01c-0.003-0.114-0.005-0.212-0.005-0.309C17.482,7.042,23.992,0,31.995,0
				c8.002,0,14.513,7.042,14.513,15.696c0,0.101-0.002,0.202-0.004,0.303c0.843,0.519,1.393,1.688,1.393,3.016
				c0,1.943-1.125,3.478-2.53,3.297C43.195,28.764,38.149,35.566,31.995,35.566z M19.148,21.313l0.127,0.397
				c2.081,6.484,7.118,13.051,12.72,13.051c5.603,0,10.641-6.566,12.721-13.053l0.128-0.399l0.394,0.144
				c0.122,0.044,0.224,0.065,0.319,0.065c0.831,0,1.533-1.146,1.533-2.503c0-1.121-0.476-2.11-1.157-2.406l-0.251-0.109l0.011-0.354
				c0.005-0.149,0.01-0.3,0.01-0.448c0-8.21-6.149-14.89-13.707-14.89s-13.707,6.68-13.707,14.89c0,0.15,0.006,0.303,0.011,0.454
				l0.009,0.272l-0.246,0.188c-0.679,0.301-1.152,1.29-1.152,2.404c0,1.356,0.702,2.503,1.534,2.503
				c0.094,0,0.192-0.021,0.312-0.063L19.148,21.313z"/>
		</g>
	</g>
	<g>
		<g>
			<g>
				<path style="fill:#3A3E42;" d="M20.104,15.186c0,2.895,2.345,5.241,5.239,5.241s5.24-2.347,5.24-5.241
					c0-0.071-2.566-0.509-5.159-0.51C22.778,14.675,20.104,15.112,20.104,15.186z"/>
			</g>
		</g>
		<g>
			<g>
				<path style="fill:#3A3E42;" d="M33.416,15.186c0,2.895,2.345,5.241,5.239,5.241s5.24-2.347,5.24-5.241
					c0-0.074-2.85-0.513-5.578-0.509C35.815,14.679,33.416,15.117,33.416,15.186z"/>
			</g>
		</g>
	</g>
	<g>
		<rect x="18.043" y="15.328" style="fill:#3A3E42;" width="27.914" height="1.132"/>
	</g>
	<g>
		<g>
			<path style="fill:#3A3E42;" d="M33.073,25.104h-2.146c-2.223,0-4.024,1.803-4.024,4.025v5.635c0,1.2,1.341,2.364,1.341,2.242
				V31.72c0-2.246,1.328-4.065,2.966-4.065h1.582c1.637,0,2.966,1.819,2.966,4.065c0,0-0.02,5.122-0.027,5.242
				c0.833-0.736,1.368-0.997,1.368-2.197V29.13C37.098,26.907,35.296,25.104,33.073,25.104z"/>
		</g>
	</g>
</g>
</svg>
