<?xml version="1.0" encoding="iso-8859-1"?>
<!-- Generator: Adobe Illustrator 16.0.0, SVG Export Plug-In . SVG Version: 6.00 Build 0)  -->
<!DOCTYPE svg PUBLIC "-//W3C//DTD SVG 1.1//EN" "http://www.w3.org/Graphics/SVG/1.1/DTD/svg11.dtd">
<svg version="1.1" id="Layer_1" xmlns="http://www.w3.org/2000/svg" xmlns:xlink="http://www.w3.org/1999/xlink" x="0px" y="0px"
	 width="64px" height="64px" viewBox="0 0 64 64" style="enable-background:new 0 0 64 64;" xml:space="preserve">
<g>
	<g>
		<path style="fill:#F0DE33;" d="M15.982,22.045c0,11.12-10.597,26.133-10.597,26.133S50.56,58.979,50.607,22.045
			c0.014-11.136-6.501-19.086-16.992-19.291C23.744,2.56,15.982,10.924,15.982,22.045z"/>
	</g>
	<g>
		<g>
			<path style="fill:#E3C7AA;" d="M45.272,61.338H24.306l-3.063-21.044l0.863-0.336c0.246-0.096,6.012-2.399,6.012-8.787v-0.894
				h10.9v0.894c0,6.366,5.95,8.763,6.01,8.786l0.832,0.322L45.272,61.338z"/>
		</g>
	</g>
	<g>
		<path style="fill:#FFFFFF;" d="M56.069,45.675c-1.995-1.995-5.714-4.865-13.045-6.742l-9.099,5.531l-9.939-5.531
			c-7.332,1.877-10.872,4.747-12.867,6.742C7.513,49.279,8.795,58.561,8.795,64h49.599C58.395,58.561,59.674,49.279,56.069,45.675z"
			/>
	</g>
	<g>
		<path style="fill:#3A3E42;" d="M56.069,45.675c-1.995-1.995-4.553-4.092-11.884-5.968l-10.26,19.519l-11.1-19.519
			c-7.332,1.876-9.711,3.973-11.706,5.968C7.513,49.279,8.795,58.561,8.795,64h49.599C58.395,58.561,59.674,49.279,56.069,45.675z"
			/>
	</g>
	<g>
		<path style="fill:#3A3E42;" d="M47.995,17.883C46.59,8.57,43.224,4.772,33.32,4.772c-8.164,0-12.778,3.798-14.183,13.11
			c-1.763,11.672,7.827-3.36,14.429-3.36C40.47,14.522,49.756,29.555,47.995,17.883z"/>
	</g>
	<g>
		<path style="fill:#FFE5CB;" d="M46.463,21.037c0.006-0.166,0.012-0.332,0.012-0.497c0-7.83-5.779-12.151-12.91-12.151
			c-7.129,0-12.91,4.321-12.91,12.151c0,0.167,0.005,0.333,0.012,0.5c-0.734,0.324-1.274,1.331-1.274,2.537
			c0,1.467,0.794,2.658,1.771,2.658c0.143,0,0.278-0.032,0.411-0.079c1.901,5.925,6.552,11.091,11.99,11.091
			c5.44,0,10.089-5.167,11.99-11.094c0.134,0.049,0.272,0.082,0.417,0.082c0.979,0,1.772-1.191,1.772-2.658
			C47.744,22.366,47.201,21.357,46.463,21.037z"/>
		<path style="fill:#E3C7AA;" d="M33.564,37.635c-5.863,0-10.412-5.648-12.247-11.021c-1.274,0.149-2.313-1.257-2.313-3.036
			c0-1.211,0.499-2.28,1.267-2.764c-0.003-0.091-0.005-0.183-0.005-0.273c0-7.499,5.344-12.539,13.297-12.539
			c7.953,0,13.297,5.04,13.297,12.539c0,0.089-0.002,0.179-0.004,0.269c0.771,0.48,1.274,1.552,1.274,2.769
			c0,1.783-1.026,3.198-2.321,3.035C43.976,31.986,39.427,37.635,33.564,37.635z M21.821,25.656l0.122,0.382
			c1.673,5.212,6.023,10.822,11.622,10.822c5.599,0,9.949-5.611,11.622-10.825l0.123-0.385l0.38,0.14
			c0.108,0.039,0.198,0.059,0.282,0.059c0.751,0,1.386-1.041,1.386-2.271c0-1.019-0.432-1.917-1.049-2.186l-0.241-0.104l0.009-0.264
			c0.005-0.161,0.011-0.322,0.011-0.483c0-8.127-6.289-11.765-12.522-11.765c-6.234,0-12.523,3.638-12.523,11.765
			c0,0.162,0.006,0.324,0.012,0.486l0.009,0.262l-0.239,0.106c-0.614,0.271-1.043,1.169-1.043,2.183c0,1.23,0.634,2.271,1.384,2.271
			c0.084,0,0.173-0.019,0.28-0.058L21.821,25.656z"/>
	</g>
	<g>
		<g>
			<path style="fill:#3A3E42;" d="M32.625,4.215c0.185,0,0.355,0.012,0.536,0.016c0.18-0.004,0.353-0.016,0.537-0.016H32.625z"/>
		</g>
		<g>
			<path style="fill:#F0DE33;" d="M33.16,4.23c-16.661,0-13.714,17.063-13.714,17.063s5.089-12.402,8.035-8.964
				c12.276,14.73,20.412,6.999,20.412,6.999S50.938,4.23,33.16,4.23z"/>
		</g>
	</g>
	<g>
		<path style="fill:#FFFFFF;" d="M37.517,35.342c-0.06,0-0.119-0.004-0.179-0.012l-4.045-0.551c-0.363-0.051-0.688-0.247-0.918-0.55
			c-0.269-0.355-0.384-0.83-0.317-1.306l0.129-0.921c0.119-0.833,0.771-1.461,1.514-1.461c0.06,0,0.12,0.005,0.181,0.012
			l4.043,0.552c0.363,0.05,0.688,0.245,0.92,0.552c0.124,0.165,0.216,0.356,0.271,0.561c0.909,0.088,1.762,0.131,2.542,0.131
			c2.991,0,4.105-0.631,4.445-0.903c0.134-0.107,0.23-0.241,0.302-0.433c-0.43-0.14-0.799-0.39-1.048-0.718
			c-0.253-0.335-0.362-0.732-0.308-1.119l1.557-12.267l0.35-0.175c0.027-0.015,0.529-0.266,1.193-0.433
			C47.323,6.58,42.923,3.044,33.035,3.044c-4.866,0-7.987,1.007-10.242,3.282c-2.149,2.17-3.35,5.488-3.658,10.133
			c0.592,0.167,1.026,0.385,1.051,0.398l0.347,0.177l1.558,12.273c0.1,0.706-0.557,1.358-1.95,1.925l-0.086,0.034l-1.487,0.204
			c-0.06,0.008-0.119,0.011-0.179,0.011c-1.223,0-2.112-1.645-2.207-2.317c-0.012-0.095-1.032-8.338-1.341-11.064
			c-0.079-0.707,0.716-1.182,1.311-1.436c0.311-5.586,1.794-9.645,4.526-12.404C23.517,1.395,27.67,0,33.374,0
			c11.747,0,16.925,4.819,17.774,16.611c0.586,0.274,1.221,0.724,1.148,1.365c-0.309,2.728-1.329,10.97-1.339,11.054
			c-0.091,0.645-0.886,2.141-1.998,2.313c-0.161,0.703-0.492,1.467-1.257,2.079c-1.224,0.977-3.233,1.471-5.974,1.471
			c-0.929,0-1.955-0.056-3.058-0.168C38.388,35.108,37.969,35.342,37.517,35.342z"/>
	</g>
	<g>
		<path style="fill:#3362A3;" d="M50.444,17.119c-0.725-11.75-5.63-16.382-17.07-16.382c-5.497,0-9.478,1.321-12.173,4.042
			c-2.673,2.697-4.097,6.771-4.339,12.407c-0.758,0.236-1.312,0.63-1.29,0.83c0.313,2.755,1.339,11.046,1.339,11.046
			c0.072,0.514,0.843,1.775,1.557,1.678l0.326-0.044l1.069-0.146c0,0,1.568-0.639,1.497-1.15l-1.51-11.887
			c0,0-0.689-0.353-1.486-0.469c0.249-5.15,1.531-8.841,3.907-11.237C24.67,3.387,28.302,2.21,33.374,2.21
			c10.457,0,14.829,4.029,15.559,14.696c-0.861,0.089-1.646,0.484-1.646,0.484l-1.51,11.887c-0.071,0.512,0.451,1.008,1.167,1.105
			l0.33,0.046c-0.074,0.664-0.227,1.204-0.713,1.592c-1.06,0.848-3.66,1.375-8.136,0.866l0.004-0.029
			c0.073-0.509-0.199-0.966-0.604-1.021l-4.044-0.552c-0.404-0.056-0.793,0.313-0.866,0.82l-0.13,0.922
			c-0.071,0.51,0.202,0.967,0.607,1.022l4.046,0.552c0.356,0.049,0.688-0.243,0.813-0.662c4.936,0.568,7.657-0.026,8.99-1.091
			c0.774-0.621,1.002-1.434,1.103-2.274l0.325,0.045c0.715,0.099,1.484-1.167,1.557-1.679c0,0,1.026-8.29,1.339-11.045
			C51.586,17.709,51.113,17.357,50.444,17.119z"/>
	</g>
	<g>
		<g>
			<polygon style="fill:#FFFFFF;" points="50.533,55.617 42.73,55.617 45.992,51.539 			"/>
		</g>
		<g>
			<rect x="41.196" y="55.549" style="fill:#FFFFFF;" width="10.871" height="1.216"/>
		</g>
	</g>
	<g>
		<polygon style="fill:#3362A3;" points="35.28,49.045 36.924,45.674 31.001,45.674 32.644,49.045 30.536,53.886 33.963,60.291 
			37.39,53.886 		"/>
	</g>
	<g>
		<path style="fill:#F0DE33;" d="M15.982,22.045c0,11.12-10.597,26.133-10.597,26.133S50.56,58.979,50.607,22.045
			c0.014-11.136-6.501-19.086-16.992-19.291C23.744,2.56,15.982,10.924,15.982,22.045z"/>
	</g>
	<g>
		<g>
			<path style="fill:#E3C7AA;" d="M45.272,61.338H24.306l-3.063-21.044l0.863-0.336c0.246-0.096,6.012-2.399,6.012-8.787v-0.894
				h10.9v0.894c0,6.366,5.95,8.763,6.01,8.786l0.832,0.322L45.272,61.338z"/>
		</g>
	</g>
	<g>
		<path style="fill:#FFFFFF;" d="M56.069,45.675c-1.995-1.995-5.714-4.865-13.045-6.742l-9.099,5.531l-9.939-5.531
			c-7.332,1.877-10.872,4.747-12.867,6.742C7.513,49.279,8.795,58.561,8.795,64h49.599C58.395,58.561,59.674,49.279,56.069,45.675z"
			/>
	</g>
	<g>
		<path style="fill:#3A3E42;" d="M56.069,45.675c-1.995-1.995-4.553-4.092-11.884-5.968l-10.26,19.519l-11.1-19.519
			c-7.332,1.876-9.711,3.973-11.706,5.968C7.513,49.279,8.795,58.561,8.795,64h49.599C58.395,58.561,59.674,49.279,56.069,45.675z"
			/>
	</g>
	<g>
		<path style="fill:#3A3E42;" d="M47.995,17.883C46.59,8.57,43.224,4.772,33.32,4.772c-8.164,0-12.778,3.798-14.183,13.11
			c-1.763,11.672,7.827-3.36,14.429-3.36C40.47,14.522,49.756,29.555,47.995,17.883z"/>
	</g>
	<g>
		<path style="fill:#FFE5CB;" d="M46.463,21.037c0.006-0.166,0.012-0.332,0.012-0.497c0-7.83-5.779-12.151-12.91-12.151
			c-7.129,0-12.91,4.321-12.91,12.151c0,0.167,0.005,0.333,0.012,0.5c-0.734,0.324-1.274,1.331-1.274,2.537
			c0,1.467,0.794,2.658,1.771,2.658c0.143,0,0.278-0.032,0.411-0.079c1.901,5.925,6.552,11.091,11.99,11.091
			c5.44,0,10.089-5.167,11.99-11.094c0.134,0.049,0.272,0.082,0.417,0.082c0.979,0,1.772-1.191,1.772-2.658
			C47.744,22.366,47.201,21.357,46.463,21.037z"/>
		<path style="fill:#E3C7AA;" d="M33.564,37.635c-5.863,0-10.412-5.648-12.247-11.021c-1.274,0.149-2.313-1.257-2.313-3.036
			c0-1.211,0.499-2.28,1.267-2.764c-0.003-0.091-0.005-0.183-0.005-0.273c0-7.499,5.344-12.539,13.297-12.539
			c7.953,0,13.297,5.04,13.297,12.539c0,0.089-0.002,0.179-0.004,0.269c0.771,0.48,1.274,1.552,1.274,2.769
			c0,1.783-1.026,3.198-2.321,3.035C43.976,31.986,39.427,37.635,33.564,37.635z M21.821,25.656l0.122,0.382
			c1.673,5.212,6.023,10.822,11.622,10.822c5.599,0,9.949-5.611,11.622-10.825l0.123-0.385l0.38,0.14
			c0.108,0.039,0.198,0.059,0.282,0.059c0.751,0,1.386-1.041,1.386-2.271c0-1.019-0.432-1.917-1.049-2.186l-0.241-0.104l0.009-0.264
			c0.005-0.161,0.011-0.322,0.011-0.483c0-8.127-6.289-11.765-12.522-11.765c-6.234,0-12.523,3.638-12.523,11.765
			c0,0.162,0.006,0.324,0.012,0.486l0.009,0.262l-0.239,0.106c-0.614,0.271-1.043,1.169-1.043,2.183c0,1.23,0.634,2.271,1.384,2.271
			c0.084,0,0.173-0.019,0.28-0.058L21.821,25.656z"/>
	</g>
	<g>
		<g>
			<path style="fill:#3A3E42;" d="M32.625,4.215c0.185,0,0.355,0.012,0.536,0.016c0.18-0.004,0.353-0.016,0.537-0.016H32.625z"/>
		</g>
		<g>
			<path style="fill:#F0DE33;" d="M33.16,4.23c-16.661,0-13.714,17.063-13.714,17.063s5.089-12.402,8.035-8.964
				c12.276,14.73,20.412,6.999,20.412,6.999S50.938,4.23,33.16,4.23z"/>
		</g>
	</g>
	<g>
		<path style="fill:#FFFFFF;" d="M37.517,35.342c-0.06,0-0.119-0.004-0.179-0.012l-4.045-0.551c-0.363-0.051-0.688-0.247-0.918-0.55
			c-0.269-0.355-0.384-0.83-0.317-1.306l0.129-0.921c0.119-0.833,0.771-1.461,1.514-1.461c0.06,0,0.12,0.005,0.181,0.012
			l4.043,0.552c0.363,0.05,0.688,0.245,0.92,0.552c0.124,0.165,0.216,0.356,0.271,0.561c0.909,0.088,1.762,0.131,2.542,0.131
			c2.991,0,4.105-0.631,4.445-0.903c0.134-0.107,0.23-0.241,0.302-0.433c-0.43-0.14-0.799-0.39-1.048-0.718
			c-0.253-0.335-0.362-0.732-0.308-1.119l1.557-12.267l0.35-0.175c0.027-0.015,0.529-0.266,1.193-0.433
			C47.323,6.58,42.923,3.044,33.035,3.044c-4.866,0-7.987,1.007-10.242,3.282c-2.149,2.17-3.35,5.488-3.658,10.133
			c0.592,0.167,1.026,0.385,1.051,0.398l0.347,0.177l1.558,12.273c0.1,0.706-0.557,1.358-1.95,1.925l-0.086,0.034l-1.487,0.204
			c-0.06,0.008-0.119,0.011-0.179,0.011c-1.223,0-2.112-1.645-2.207-2.317c-0.012-0.095-1.032-8.338-1.341-11.064
			c-0.079-0.707,0.716-1.182,1.311-1.436c0.311-5.586,1.794-9.645,4.526-12.404C23.517,1.395,27.67,0,33.374,0
			c11.747,0,16.925,4.819,17.774,16.611c0.586,0.274,1.221,0.724,1.148,1.365c-0.309,2.728-1.329,10.97-1.339,11.054
			c-0.091,0.645-0.886,2.141-1.998,2.313c-0.161,0.703-0.492,1.467-1.257,2.079c-1.224,0.977-3.233,1.471-5.974,1.471
			c-0.929,0-1.955-0.056-3.058-0.168C38.388,35.108,37.969,35.342,37.517,35.342z"/>
	</g>
	<g>
		<path style="fill:#3362A3;" d="M50.444,17.119c-0.725-11.75-5.63-16.382-17.07-16.382c-5.497,0-9.478,1.321-12.173,4.042
			c-2.673,2.697-4.097,6.771-4.339,12.407c-0.758,0.236-1.312,0.63-1.29,0.83c0.313,2.755,1.339,11.046,1.339,11.046
			c0.072,0.514,0.843,1.775,1.557,1.678l0.326-0.044l1.069-0.146c0,0,1.568-0.639,1.497-1.15l-1.51-11.887
			c0,0-0.689-0.353-1.486-0.469c0.249-5.15,1.531-8.841,3.907-11.237C24.67,3.387,28.302,2.21,33.374,2.21
			c10.457,0,14.829,4.029,15.559,14.696c-0.861,0.089-1.646,0.484-1.646,0.484l-1.51,11.887c-0.071,0.512,0.451,1.008,1.167,1.105
			l0.33,0.046c-0.074,0.664-0.227,1.204-0.713,1.592c-1.06,0.848-3.66,1.375-8.136,0.866l0.004-0.029
			c0.073-0.509-0.199-0.966-0.604-1.021l-4.044-0.552c-0.404-0.056-0.793,0.313-0.866,0.82l-0.13,0.922
			c-0.071,0.51,0.202,0.967,0.607,1.022l4.046,0.552c0.356,0.049,0.688-0.243,0.813-0.662c4.936,0.568,7.657-0.026,8.99-1.091
			c0.774-0.621,1.002-1.434,1.103-2.274l0.325,0.045c0.715,0.099,1.484-1.167,1.557-1.679c0,0,1.026-8.29,1.339-11.045
			C51.586,17.709,51.113,17.357,50.444,17.119z"/>
	</g>
	<g>
		<g>
			<polygon style="fill:#FFFFFF;" points="50.533,55.617 42.73,55.617 45.992,51.539 			"/>
		</g>
		<g>
			<rect x="41.196" y="55.549" style="fill:#FFFFFF;" width="10.871" height="1.216"/>
		</g>
	</g>
	<g>
		<polygon style="fill:#3362A3;" points="35.28,49.045 36.924,45.674 31.001,45.674 32.644,49.045 30.536,53.886 33.963,60.291 
			37.39,53.886 		"/>
	</g>
</g>
</svg>
