<?xml version="1.0" encoding="iso-8859-1"?>
<!-- Generator: Adobe Illustrator 16.0.0, SVG Export Plug-In . SVG Version: 6.00 Build 0)  -->
<!DOCTYPE svg PUBLIC "-//W3C//DTD SVG 1.1//EN" "http://www.w3.org/Graphics/SVG/1.1/DTD/svg11.dtd">
<svg version="1.1" id="Layer_1" xmlns="http://www.w3.org/2000/svg" xmlns:xlink="http://www.w3.org/1999/xlink" x="0px" y="0px"
	 width="64px" height="64px" viewBox="0 0 64 64" style="enable-background:new 0 0 64 64;" xml:space="preserve">
<g>
	<path style="fill:#E89D6B;" d="M32,0L32,0L32,0c-7.252,0-13.914,6.052-13.914,13.517c0,1.986,0.198,2.241,0.025,7.94
		c-0.143,4.719,27.516,3.48,27.392-0.409c-0.181-5.667,0.409-5.378,0.409-7.531C45.913,6.052,39.25,0,32,0z"/>
	<path style="fill:#F9D5BE;" d="M55.092,44.789c-0.256-4.854-7.347-5.813-12.841-6.707c-2.937-0.478-3.858-3.527-4.087-6.266
		c-1.86,1.726-4.262,3.487-6.165,3.487c-1.883,0-4.295-1.77-6.165-3.499c-0.227,2.741-1.146,5.798-4.088,6.277
		c-5.494,0.895-12.585,1.853-12.84,6.707S8.78,64,8.78,64h22.932h0.575h22.932C55.219,64,55.347,49.644,55.092,44.789z"/>
	<path style="fill:#F9D5BE;" d="M38.164,31.816c-0.038-0.458-0.063-0.909-0.068-1.336H25.902c-0.005,0.423-0.03,0.871-0.067,1.324
		c1.87,1.729,4.282,3.499,6.165,3.499C33.902,35.304,36.304,33.542,38.164,31.816z"/>
	<path style="opacity:0.55;fill:#DBBBA9;" d="M38.164,31.816c-0.038-0.458-0.063-0.909-0.068-1.336H25.902
		c-0.005,0.423-0.03,0.871-0.067,1.324c1.87,1.729,4.282,3.499,6.165,3.499C33.902,35.304,36.304,33.542,38.164,31.816z"/>
	<path style="fill:#F9D5BE;" d="M44.238,17.129c-0.606-0.211-1.162,0.141-1.596,0.604c0.02-0.602,0.015-1.061-0.004-1.306
		c0-7.193-5.646-11.28-10.639-11.288c-4.994,0.008-10.641,4.095-10.641,11.288c-0.019,0.245-0.023,0.704-0.003,1.306
		c-0.435-0.463-0.989-0.814-1.596-0.604c-0.967,0.335-0.488,6.224,2.334,7.28c0.087,0.032,0.154,0.04,0.231,0.06
		c0.367,1.36,0.856,2.683,1.521,3.776c0.767,1.26,5.199,6.192,8.152,6.192c2.993,0,7.385-4.933,8.151-6.192
		c0.665-1.094,1.156-2.416,1.522-3.776c0.077-0.02,0.145-0.027,0.23-0.06C44.726,23.353,45.205,17.464,44.238,17.129z"/>
	<path style="fill:#02426B;" d="M55.092,44.789c-0.256-4.854-7.347-5.813-12.841-6.707c-1.669-0.271-2.686-1.375-3.296-2.778
		c0,0-4.461,2.053-6.956,2.053c-2.405,0-6.938-2.097-6.957-2.053c-0.609,1.403-1.626,2.507-3.296,2.778
		c-5.494,0.895-12.585,1.853-12.84,6.707S8.78,64,8.78,64h46.44C55.22,64,55.347,49.644,55.092,44.789z"/>
	<path style="fill:#E89D6B;" d="M31.639,2.41c9.362,0,12.778,6.804,12.453,12.349c-0.146,2.493-1.222,5.772-1.222,5.772
		c-0.121,0.166-0.56,0.065-0.528-0.235c0.807-7.663-4.198-4.558-3.831-11.44c0,0-7.098,4.894-15.943,3.247
		c-0.018-0.003-0.02-0.02-0.02-0.02c-0.949,2.171-1.373,5.726-0.973,8.213c0.049,0.299-0.416,0.401-0.537,0.235
		c0,0-1.17-3.745-1.174-6.242C19.862,11.817,21.012,2.41,31.639,2.41z"/>
	<g>
		<circle style="fill:#FFFFFF;" cx="23.128" cy="38.738" r="0.663"/>
		<circle style="fill:#FFFFFF;" cx="23.792" cy="40.607" r="0.663"/>
		<circle style="fill:#FFFFFF;" cx="24.651" cy="42.304" r="0.663"/>
		<circle style="fill:#FFFFFF;" cx="25.601" cy="43.999" r="0.664"/>
		<circle style="fill:#FFFFFF;" cx="26.565" cy="45.628" r="0.664"/>
		<circle style="fill:#FFFFFF;" cx="27.591" cy="47.165" r="0.664"/>
		<circle style="fill:#FFFFFF;" cx="28.585" cy="48.703" r="0.663"/>
		<circle style="fill:#FFFFFF;" cx="29.739" cy="50.029" r="0.663"/>
		<circle style="fill:#FFFFFF;" cx="31.163" cy="51.047" r="0.664"/>
		<circle style="fill:#FFFFFF;" cx="40.939" cy="38.738" r="0.664"/>
		<circle style="fill:#FFFFFF;" cx="40.276" cy="40.607" r="0.664"/>
		<circle style="fill:#FFFFFF;" cx="39.417" cy="42.304" r="0.664"/>
		<circle style="fill:#FFFFFF;" cx="38.467" cy="43.999" r="0.663"/>
		<circle style="fill:#FFFFFF;" cx="37.502" cy="45.628" r="0.664"/>
		<circle style="fill:#FFFFFF;" cx="36.477" cy="47.165" r="0.664"/>
		<circle style="fill:#FFFFFF;" cx="35.482" cy="48.703" r="0.663"/>
		<circle style="fill:#FFFFFF;" cx="34.329" cy="50.029" r="0.664"/>
		<circle style="fill:#FFFFFF;" cx="32.905" cy="51.047" r="0.663"/>
	</g>
	<path style="fill:#75535B;" d="M43.25,16.059l-2.411,0.702V16.74l-7.989,0.824h-0.46h-0.385h-0.011H31.61h-0.461l-7.988-0.824
		l-0.001,0.021l-2.41-0.702l-0.211,0.693l2.51,0.728c0,0,0.055,3.618,3.289,4.258c1.799,0.355,3.2,0.078,4.104-0.771
		c0.811-0.759,1.201-2.223,1.203-2.725h0.35h0.011h0.35c0.001,0.502,0.393,1.966,1.202,2.725c0.905,0.85,2.307,1.127,4.105,0.771
		c3.234-0.64,3.288-4.258,3.288-4.258l2.511-0.728L43.25,16.059z M30.063,20.276c-0.683,0.85-1.822,1.237-3.7,0.829
		c-2.129-0.463-2.521-2.396-2.535-3.461l7.065,0.621C30.835,18.827,30.64,19.558,30.063,20.276z M37.636,21.105
		c-1.878,0.408-3.018,0.021-3.699-0.829c-0.577-0.719-0.772-1.449-0.831-2.011l7.066-0.621
		C40.157,18.709,39.765,20.643,37.636,21.105z"/>
	<circle style="fill:#FFFFFF;" cx="21.402" cy="25.203" r="0.693"/>
	<circle style="fill:#FFFFFF;" cx="42.567" cy="25.203" r="0.693"/>
</g>
</svg>
