<?xml version="1.0" encoding="iso-8859-1"?>
<!-- Generator: Adobe Illustrator 16.0.0, SVG Export Plug-In . SVG Version: 6.00 Build 0)  -->
<!DOCTYPE svg PUBLIC "-//W3C//DTD SVG 1.1//EN" "http://www.w3.org/Graphics/SVG/1.1/DTD/svg11.dtd">
<svg version="1.1" id="Layer_1" xmlns="http://www.w3.org/2000/svg" xmlns:xlink="http://www.w3.org/1999/xlink" x="0px" y="0px"
	 width="64px" height="64px" viewBox="0 0 64 64" style="enable-background:new 0 0 64 64;" xml:space="preserve">
<g>
	<path style="fill-rule:evenodd;clip-rule:evenodd;fill:#F2EFDC;" d="M4.219,64H59.93c0.079-0.079,0.163-0.155,0.242-0.236
		c-0.023-1.546-0.045-5.989-0.063-6.346c-0.349-7.294-2.129-8.312-10.182-7.962c-2.898,0.127-9.413-2.269-10.368-4.796
		c-0.723-1.915-0.73-4.938-0.287-6.927l-7.699,0.148l-7.7-0.148c0.444,1.988,0.413,5.002-0.287,6.927
		c-0.688,1.893-7.019,4.906-9.544,4.796c-8.197-0.354-9.896,0.704-10.2,8.36c-0.012,0.298-0.016,4.522-0.013,5.801
		C3.956,63.749,4.091,63.871,4.219,64z"/>
	<path style="fill-rule:evenodd;clip-rule:evenodd;fill:#8FC3D8;" d="M4.219,64H59.93c0.079-0.079,0.163-0.155,0.242-0.236
		c-0.023-1.546-0.045-5.989-0.063-6.346c-0.349-7.294-2.129-8.312-10.182-7.962c-2.898,0.127-9.413-2.269-10.368-4.796
		c-3.41,3.893-11.025,4.338-15.974,0c-0.688,1.893-7.019,4.906-9.544,4.796c-8.197-0.354-9.896,0.704-10.2,8.36
		c-0.012,0.298-0.016,4.522-0.013,5.801C3.956,63.749,4.091,63.871,4.219,64z"/>
	<g>
		<path style="fill-rule:evenodd;clip-rule:evenodd;fill:#F2EFDC;" d="M22.588,31.657l0.444-5.313
			c-0.787-0.775-1.354-1.287-1.764-1.924c-1.129-1.752-1.838-2.155-2.525-1.645c-0.277,0.206-0.376,0.864-0.213,1.689
			c0.285,1.443,1.193,3.593,1.48,4.855C20.24,30.337,21.569,33.816,22.588,31.657z"/>
		<path style="fill-rule:evenodd;clip-rule:evenodd;fill:#F2EFDC;" d="M40.396,31.657l-0.446-5.313
			c0.789-0.775,1.355-1.287,1.767-1.924c1.128-1.752,1.838-2.155,2.524-1.645c0.277,0.206,0.377,0.864,0.214,1.689
			c-0.285,1.443-1.195,3.593-1.48,4.855C42.744,30.337,41.415,33.816,40.396,31.657z"/>
	</g>
	<path style="fill-rule:evenodd;clip-rule:evenodd;fill:#DCD9C8;" d="M23.48,45.396c0.717,0.185,1.261,4.597,3.932,3.8
		c1.346-2.787,2.694-5.104,4.699-5.846c1.399-0.519,2.342-0.481,3.492-1.392c0.909-0.719,2.063-2.305,3.474-3.313
		c0.05-0.416,0.115-0.551,0.195-0.912l-7.699,0.148l-7.7-0.148C24.073,38.634,24.549,42.661,23.48,45.396z"/>
	<path style="fill-rule:evenodd;clip-rule:evenodd;fill:#F2EFDC;" d="M31.692,42.354c-0.043,0.004-0.087,0.005-0.13,0.005
		c-1.601,0.01-2.396-0.016-3.266-0.384c-0.841-0.356-1.249-1.183-2.403-2.295c-0.984-0.946-2.748-1.913-3.18-2.944
		c-0.589-1.413-0.357-2.97-0.724-5.163c-0.292-1.748-1.115-3.3-1.212-5.049c-0.1-1.89,0.203-3.793,0.139-5.929
		c-0.063-2.089-0.122-3.815,0.135-5.282c0.257-1.479,0.837-2.707,2.043-3.785l0,0c0,0,0,0,0-0.005
		c0.668-0.591,1.425-1.096,2.247-1.511c0.009-0.003,0.018-0.007,0.026-0.01c0.055-0.024,0.109-0.052,0.162-0.079
		c0.032-0.015,0.061-0.027,0.092-0.046c0.042-0.02,0.087-0.041,0.13-0.058c0.042-0.017,0.084-0.038,0.127-0.056
		c0.047-0.025,0.094-0.042,0.138-0.06c0.041-0.021,0.08-0.037,0.123-0.054c0.059-0.024,0.116-0.05,0.176-0.069
		c0.027-0.012,0.056-0.024,0.085-0.034c0.085-0.035,0.175-0.067,0.262-0.098c0,0,0,0,0.002-0.004
		c2.192-0.793,4.681-1.018,7.038-0.666c2.348,0.346,4.561,1.264,6.204,2.73c1.202,1.076,1.774,2.296,2.035,3.77
		c0.257,1.459,0.205,3.181,0.145,5.262c-0.061,2.131,0.248,4.024,0.147,5.908c-0.093,1.744-0.913,3.295-1.198,5.04
		c-0.357,2.188-0.128,3.732-0.712,5.151c-0.428,1.036-2.18,2.013-3.156,2.969c-1.151,1.129-1.556,1.954-2.393,2.325
		C33.94,42.299,33.173,42.349,31.692,42.354z"/>
	<g>
		<path style="fill-rule:evenodd;clip-rule:evenodd;fill:#A9D6E8;" d="M39.117,42.712c0.229,1.62,0.722,2.362,1.801,3.183
			l-4.623,7.896l-4.894-6.846C33.834,45.605,38.17,43.935,39.117,42.712z"/>
		<path style="fill-rule:evenodd;clip-rule:evenodd;fill:#A9D6E8;" d="M23.896,42.712c-0.231,1.62-0.723,2.362-1.802,3.183
			l4.624,7.896l4.895-6.846C29.179,45.605,24.844,43.935,23.896,42.712z"/>
	</g>
	<polygon style="fill-rule:evenodd;clip-rule:evenodd;fill:#0D2F3B;" points="28.948,64 34.092,64 34.309,57.301 32.087,53.728 
		34.068,51.716 34.128,50.816 31.726,47.272 31.278,47.26 28.884,50.799 28.944,51.701 30.926,53.711 28.705,57.283 	"/>
	<path style="fill-rule:evenodd;clip-rule:evenodd;fill:#232426;" d="M22.233,30.516c-0.626-1.749-1.592-5.07-2.359-8.004
		l0.007,0.052l-0.026-0.129c-0.162-0.617-0.314-1.219-0.452-1.781c-0.544-2.217-0.515-3.396-0.597-4.729
		c-0.109-1.754-0.271-3.085,1.133-4.298c-0.934-0.659-1.272-1.098-1.598-2.902c0.36,1.052,1.137,2.425,1.822,2.642
		c-1.635-1.896-1.09-4.472-0.47-7.393c-0.204,2.343-0.654,5.925,0.951,6.022c-0.508-1.308-0.743-2.086-0.583-3.524
		c0.283,1.293,0.514,2.311,1.557,2.171c-0.418-1.328-1.016-1.935-1.352-3.604c0.654,1.828,1.405,2.281,2.13,2.254
		c-0.138-1.946-0.293-2.508,0.205-4.425c-0.14,1.438-0.119,3.1,0.778,3.892c0.939-2.009,1.315-2.156,2.657-2.345
		c4.245-0.6,2.17-3.962,8.525-3.962c-2.578,0.662-3.461,0.258-4.712,3.07c1.868-1.045,5.66-3.308,8.604-3.522
		c-1.575,0.501-2.346,1.738-2.499,2.827c2.774-0.242,1.917,0.04,2.949,2.416c1.453-0.245,1.817-1.265,1.966-2.867
		c0.604,1.122-0.273,2.76-0.778,3.892c1.171-0.146,0.995,0.318,1.188,1.474c0.311-1.023,0.535-1.822,0.491-4.014
		c0.434,0.978,0.528,2.603-0.082,4.751c0.82-0.91,1.199-1.707,0.86-3.849c0.879,2.55-0.635,5.14-0.389,5.755
		c1.812-0.796,2.434,0.247,2.026,1.985c1.109,0,0.952-0.12,1.968-0.696c-0.524,0.852-0.745,0.747-1.68,1.229
		c0.116,0.385,1.335,0.577,1.516,2.581c-0.414-1.054-0.709-1.602-1.843-1.885c0.59,0.835,0.401,0.773,1.27,1.393
		c-0.425-0.148-0.775-0.267-1.188-0.45c0.911,1.404,0.608,4.424-0.052,5.633c0.249-0.89,0.164-2.748-0.002-3.604
		c-0.203,1.087-0.11,3.822-0.358,5.434c-0.115,0.755-0.454,0.83-0.594,1.504c-0.562,2.729-1.121,5.002-2.313,6.73
		c1.423-5.242,0.664-4.258,0.398-7.902c-0.118-1.617-0.128-2.061-0.663-4.398c-0.343-1.496-0.835-3.122-1.578-4.297
		c-1.319,0.009-4.748,0.112-8.405-0.237c-3.429-0.327-6.747-1.144-7.589-1.073c1.202,0.411,1.177,0.561,2.437,0.776
		c-1.687-0.032-1.386,0.126-3.044-0.238c-0.068,0.322-0.286,0.539-0.438,0.895c0.371,1.118,0.751,2.238,1.378,3.417
		c-0.797-0.8-1.238-1.526-1.527-2.367c0.051,0.693,0.334,1.715,1.092,3.333c-0.699-0.612-1.117-1.207-1.558-2.006
		c0.574,1.933,0.831,3.318,0.816,4.577c-0.017,1.432-0.335,2.713-0.078,4.761c-0.16-0.387-0.308-0.753-0.451-1.146
		C21.603,26.604,21.997,28.271,22.233,30.516z"/>
	<path style="fill-rule:evenodd;clip-rule:evenodd;fill:#232426;" d="M21.571,27.004c0.386,2.133,0.557,7.007,0.825,8.552
		c0.217,1.259,0.877,1.591,3.162,4.195c0.913,1.04,2.486,3.188,3.156,4.559l-0.09-1.465c0.561,1.12,2.426,3.547,2.954,4.381
		c0.579-0.669,2.449-3.307,2.985-4.381l-0.089,1.465c0.67-1.37,2.244-3.519,3.156-4.559c2.286-2.604,2.944-2.937,3.162-4.195
		c0.268-1.545,0.262-6.063,0.647-8.197l-1.285,2.352c-0.51,0.756-2.2,3.78-2.986,4.007c-0.721,0.21-1.652-0.186-2.872-0.279
		l0.399-0.489c-0.045,0.005-0.851-0.491-1.837-0.622c-0.446-0.059-0.803,0.321-1.284,0.321c-0.401,0-0.906-0.28-1.271-0.232
		c-0.991,0.127-1.758,0.538-1.813,0.533l0.399,0.489c-1.219,0.094-2.151,0.489-2.873,0.279c-0.786-0.227-2.552-3.206-2.984-4.007
		L21.571,27.004L21.571,27.004z M30.471,37.613c-1.704,0.005-2.36-1.58-4.107-2.712c1.524,0,2.665-0.92,4.146-1.04
		c0.261-0.021,1.68-0.021,2-0.01c1.565,0.06,2.736,1.05,4.317,1.05c-1.835,1.188-2.466,2.876-4.369,2.7
		C30.589,37.429,32.406,37.608,30.471,37.613z"/>
	<path style="fill-rule:evenodd;clip-rule:evenodd;fill:#2F5B74;" d="M50.357,64c-0.196-3.866,0.709-10.96,2.263-14.594
		c-0.514,0.01-1.054,0.027-1.625,0.05c-2.082,0.085-5.585-0.941-8.105-2.194C42.367,47.85,39.906,57.434,37.503,64H50.357z"/>
	<path style="fill-rule:evenodd;clip-rule:evenodd;fill:#2F5B74;" d="M12.784,64h12.854c-2.404-6.566-4.865-16.15-5.387-16.738
		c-2.52,1.253-6.022,2.279-8.104,2.194c-0.571-0.022-1.112-0.04-1.626-0.05C12.075,53.04,12.982,60.134,12.784,64z"/>
</g>
</svg>
