<?xml version="1.0" encoding="iso-8859-1"?>
<!-- Generator: Adobe Illustrator 16.0.0, SVG Export Plug-In . SVG Version: 6.00 Build 0)  -->
<!DOCTYPE svg PUBLIC "-//W3C//DTD SVG 1.1//EN" "http://www.w3.org/Graphics/SVG/1.1/DTD/svg11.dtd">
<svg version="1.1" id="Layer_1" xmlns="http://www.w3.org/2000/svg" xmlns:xlink="http://www.w3.org/1999/xlink" x="0px" y="0px"
	 width="64px" height="64px" viewBox="0 0 64 64" style="enable-background:new 0 0 64 64;" xml:space="preserve">
<g>
	<g>
		<path style="fill:#774E3E;" d="M44.663,13.03c-0.041,3.378-1.018,5.604-1.609,5.771c-1.873,0.526-5.746-8.089-11.053-8.089l0,0
			h-0.002c-5.307,0-9.18,8.615-11.053,8.089c-0.592-0.166-1.588-2.543-1.588-5.92c0-3.845,0.285-9.688,4.295-9.372
			c0,0-0.264-3.271,5.738-3.481c4.229-0.148,8.439,0.289,10.996,1.725C43.675,3.598,44.733,7.226,44.663,13.03z"/>
		<g>
			<path style="fill:#F9D5BE;" d="M8.249,46.291c0.266-5.066,7.318-6.379,13.053-7.312c3.064-0.499,4.025-3.682,4.264-6.539
				c1.943,1.801,4.447,3.64,6.436,3.64c1.965,0,4.48-1.847,6.434-3.651c0.236,2.859,1.195,6.051,4.266,6.551
				c5.732,0.933,12.705,2.562,12.973,7.628C55.938,51.673,56.233,64,56.233,64H32.3h-0.6H7.767C7.767,64,7.981,51.356,8.249,46.291z
				"/>
			<path style="fill:#FFFFFF;" d="M8.249,46.291c0.266-5.066,7.318-6.379,13.053-7.312c3.064-0.499,8.711,2.577,10.699,2.577
				c1.965,0,7.629-3.077,10.699-2.577c5.732,0.933,12.389,2.245,12.656,7.312C55.622,51.356,56.233,64,56.233,64H32.3h-0.6H7.767
				C7.767,64,7.981,51.356,8.249,46.291z"/>
			<path style="fill:#F9D5BE;" d="M25.565,32.44c0.041-0.478,0.066-0.949,0.072-1.395h12.727c0.004,0.441,0.031,0.908,0.07,1.383
				c-1.953,1.805-4.469,3.651-6.434,3.651C30.013,36.08,27.509,34.241,25.565,32.44z"/>
			<path style="opacity:0.35;fill:#C69E89;" d="M25.565,32.44c0.041-0.478,0.066-0.949,0.072-1.395h12.727
				c0.004,0.441,0.031,0.908,0.07,1.383c-1.953,1.805-4.469,3.651-6.434,3.651C30.013,36.08,27.509,34.241,25.565,32.44z"/>
		</g>
		<path style="fill:#F9D5BE;" d="M19.228,17.111c0.633-0.22,1.213,0.147,1.666,0.631c-0.021-0.627-0.018-1.107,0.002-1.362
			c0-7.507,5.893-11.772,11.105-11.78c5.211,0.008,11.104,4.273,11.104,11.78c0.02,0.255,0.023,0.735,0.004,1.362
			c0.453-0.483,1.033-0.851,1.664-0.631c1.01,0.352,0.51,6.497-2.436,7.599c-0.09,0.033-0.16,0.042-0.24,0.063
			c-0.383,1.419-0.895,2.799-1.59,3.939c-0.799,1.315-5.424,6.463-8.506,6.463c-3.125,0-7.709-5.147-8.508-6.463
			c-0.693-1.141-1.205-2.521-1.588-3.939c-0.08-0.021-0.15-0.03-0.242-0.063C18.718,23.608,18.218,17.463,19.228,17.111z"/>
		<path style="fill:#774E3E;" d="M32.376,1.752c-9.771,0-13.336,7.101-12.996,12.887c0.154,2.603,1.275,6.023,1.275,6.023
			c0.127,0.174,0.602,0.067,0.551-0.244C20.354,15.129,23.44,10.051,24.997,8.6c3.262-3.229,11.633,6.62,16.867,4.077
			c0.99,2.266,1.432,5.145,1.014,7.741c-0.051,0.312,0.434,0.418,0.561,0.244c0,0,1.221-3.907,1.225-6.514
			C44.667,11.569,43.468,1.752,32.376,1.752z"/>
	</g>
	<polygon style="fill:#0D1014;" points="34.63,41.188 29.392,41.188 30.94,44.708 30.2,64 33.759,63.999 32.964,44.708 	"/>
	<polygon style="opacity:0.55;fill:#CCCCCC;" points="38.993,35.529 31.968,41.065 25.007,35.529 21.743,38.92 25.146,45.57 
		32.001,41.833 38.856,45.57 42.259,38.92 	"/>
	<polygon style="fill:#FFFFFF;" points="38.993,35.529 31.968,40.59 25.007,35.529 21.612,38.067 25.366,44.953 31.978,41.065 
		38.634,44.953 42.388,38.067 	"/>
	<path style="fill:#B0A59E;" d="M7.901,45.979c0.266-5.067,8.566-6.378,14.301-7.312l9.809,18.911l9.867-19.043
		c5.732,0.933,13.955,2.376,14.221,7.443C56.366,51.046,56.233,64,56.233,64H32.3h-0.6H7.767C7.767,64,7.634,51.046,7.901,45.979z"
		/>
	<polygon style="fill:#938983;" points="17.981,40.191 22.036,37.604 32.011,57.579 32.001,64 28.716,63.975 19.854,46.66 
		21.612,44.953 	"/>
	<polygon style="fill:#938983;" points="46.04,40.191 41.987,37.604 32.011,57.579 32.022,64 35.306,63.975 44.167,46.66 
		42.409,44.953 	"/>
</g>
</svg>
