<?xml version="1.0" encoding="iso-8859-1"?>
<!-- Generator: Adobe Illustrator 16.0.0, SVG Export Plug-In . SVG Version: 6.00 Build 0)  -->
<!DOCTYPE svg PUBLIC "-//W3C//DTD SVG 1.1//EN" "http://www.w3.org/Graphics/SVG/1.1/DTD/svg11.dtd">
<svg version="1.1" id="Layer_1" xmlns="http://www.w3.org/2000/svg" xmlns:xlink="http://www.w3.org/1999/xlink" x="0px" y="0px"
	 width="64px" height="64px" viewBox="0 0 64 64" style="enable-background:new 0 0 64 64;" xml:space="preserve">
<g>
	<path style="fill-rule:evenodd;clip-rule:evenodd;" d="M26.364,46.773l9.29,2.704c2.426-14.152,10.931-20.273,10.944-34.663
		C46.606,4.83,36.263,5.156,27.88,4.287c-8.437-0.875-16.151,3.512-12.292,18.351C18.08,32.218,23.09,35.777,26.364,46.773z"/>
	<path style="fill-rule:evenodd;clip-rule:evenodd;fill:#FDAA10;" d="M23.648,46.1c0.566-1.217,0.959-1.657,2.405-1.723l0.78,2.616
		l-1.805,1.431l-1.438-0.178L23.648,46.1z"/>
	<path style="fill-rule:evenodd;clip-rule:evenodd;fill:#FDAA10;" d="M39.223,46.1c-0.565-1.217-0.961-1.657-2.405-1.723
		l-0.78,2.616l1.804,1.431l1.438-0.178L39.223,46.1z"/>
	<path style="fill-rule:evenodd;clip-rule:evenodd;fill:#F2EFDC;" d="M10.5,64H50.92l0.03-0.236l6.348-4.424
		c-0.105-10.317-10.393-7.652-15.732-9.815c-4.359-1.766-4.745-5.441-4.389-12.931l-12.743-0.165
		c1.27,4.867,1.102,9.999-0.692,12.302c-0.459,0.587-2.378,1.049-4.392,1.426c-2.75,0.516-6.201,0.922-7.684,1.232
		c-4.188,0.873-4.719,6.321-4.498,8.533C7.423,62.48,9.505,62.396,10.5,64z"/>
	<path style="fill-rule:evenodd;clip-rule:evenodd;fill:#FDC00F;" d="M36.231,64h21.475c-0.003-3.627-0.289-6.819-0.746-8.578
		c-0.434-1.67-2.071-3.431-3.584-4.176c-2.932-1.447-6.901-0.972-10.19-1.317c-0.429-0.116-0.841-0.245-1.23-0.404
		c-1.924-0.778-2.563-2.591-3.216-4.281C39.114,49.324,37.812,56.924,36.231,64z"/>
	<path style="fill-rule:evenodd;clip-rule:evenodd;fill:#DCD9C8;" d="M24.625,64h3.477c-0.3-1.367-0.6-2.716-0.884-4
		c-1.166-5.274-1.069-9.375-1.086-10.031c-0.031-1.203,8.783-5.339,10.864-10.026c-0.021-1.414,0.093-1.46,0.182-3.349
		l-12.743-0.165c1.204,5.222,1.9,9.263-1.204,12.413C23.462,48.802,23.71,56.282,24.625,64z"/>
	<path style="fill-rule:evenodd;clip-rule:evenodd;fill:#FDC00F;" d="M27.505,64c-1.913-6.382-3.604-12.758-3.434-16.792
		c-0.051,0.181,0.05-1.117-0.002-0.956c-0.9,2.817-1.817,3.359-4.719,3.904c-1.624,0.304-3.594,0.48-5.24,0.639
		c-3.648,0.061-5.426,1.042-6.801,4.413C6.528,57.123,6.286,60.532,6.295,64H27.505z"/>
	<path style="fill-rule:evenodd;clip-rule:evenodd;fill:#FFDD78;" d="M18.702,56.915c0.856,1.691,2.184,4.338,3.564,7.085h5.386
		c-1.635-5.957-3.237-12.835-3.556-18.783c-3.087,2.859-3.281,3.151-7.149,4.811c2.049,1.917,4.129,3.738,6.24,5.589L18.702,56.915z
		"/>
	<path style="fill-rule:evenodd;clip-rule:evenodd;fill:#FFDD78;" d="M41.202,64c1.006-2.687,1.999-5.283,2.911-7.085l-4.484-1.299
		c2.109-1.851,4.191-3.672,6.239-5.589c-3.867-1.659-4.063-1.974-7.151-4.833C38.424,50.681,37.311,57.771,36.054,64H41.202z"/>
	<path style="fill-rule:evenodd;clip-rule:evenodd;fill:#F2EFDC;" d="M18.656,20.243c-1.188-1.774-2.585-0.568-2.152,1.582
		c0.353,1.751,1.161,3.741,1.608,5.735c0.307,1.369,0.799,2.339,2,2.082l-0.133-5.693L18.656,20.243z"/>
	<path style="fill-rule:evenodd;clip-rule:evenodd;fill:#E8A476;" d="M17.938,20.487c-0.558-0.409-0.981-0.095-1.094,0.563
		c-0.165,0.964,0.781,2.819,1.088,3.95c-0.083-1.563-1.039-3.081-0.844-3.923c0.12-0.52,0.538-0.606,0.967-0.141
		C18.016,20.784,17.977,20.634,17.938,20.487z"/>
	<path style="fill-rule:evenodd;clip-rule:evenodd;" d="M36.113,3.08c2.408-2.169,6.071-1.185,8.31,1.623
		c5.339,6.7,0.642,15.525-1.596,20.432c-1.872,9.682-3.402,9.684-7.069,13.131c0.008-0.269,0.176-1.254,0-2.076
		c-0.833-4.672,3.073-9.838,3.599-14.837C39.9,16.189,38.359,7.841,34.922,3.61L36.113,3.08z"/>
	<path style="fill-rule:evenodd;clip-rule:evenodd;fill:#F2EFDC;" d="M43.434,20.243c1.187-1.774,2.586-0.568,2.151,1.582
		c-0.353,1.751-1.161,3.741-1.608,5.735c-0.308,1.369-0.8,2.339-2,2.082l0.134-5.693L43.434,20.243z"/>
	<path style="fill-rule:evenodd;clip-rule:evenodd;fill:#F2EFDC;" d="M35.922,39.099c1.461-1.301,2.573-2.52,3.958-4.754
		c1.643-2.649,2.287-4.472,2.973-9.058c0.523-3.506,0.959-7.151,0.382-10.458c-1.123-6.426-5.352-11.313-12.19-11.29
		c-7.572,0.025-11.272,3.03-12.383,10.272c-0.726,4.733-0.433,7.787,0.367,11.776c0.886,4.419,1.653,6.908,3.53,9.547
		c1.187,1.667,2.107,2.787,3.3,3.825c2.426,2.108,3.739,3.04,5.091,3.04C32.339,42,33.763,41.017,35.922,39.099z"/>
	<path style="fill-rule:evenodd;clip-rule:evenodd;" d="M17.661,26.673c-4.155-5.369-5.963-16.6,0.407-22.444
		c5.556-5.097,13.73-5.499,18.774-1.676c-0.368,0.108,3.402,3.349,4.579,5.005c0.825,1.162-0.239,1.021-0.71,1.02
		c-2.88,4.775-12.101,6.627-18.112,11.531c-2.415,1.969-2.934,3.915-2.989,6.47C18.455,25.111,18.682,21,17.661,26.673z"/>
	<path style="fill-rule:evenodd;clip-rule:evenodd;" d="M40.714,8.939c0.524,2.686,2.692,5.884,2.518,9.811
		c-0.094,2.13-0.182,4.303-0.598,7.171c0.811-2.729,1.793-6.316,2.057-7.732c0.715-3.836-1.055-4.923-3.91-10.44L40.714,8.939z"/>
	<path style="fill-rule:evenodd;clip-rule:evenodd;fill:#1F0300;" d="M38.107,4.64c-6.915-6.828-17.595-5.248-22.773,4.148
		C20.648,0.347,30.455-1.228,38.107,4.64z"/>
	<path style="fill-rule:evenodd;clip-rule:evenodd;" d="M39.418,9.742c-6.652,2.628-12.519,2.716-16.732,5.967
		c-4.527,3.494-8.251,11.133-4.078,16.789c-3.512-6.154,1.78-11.207,5.603-14.05C27.361,16.106,35.621,15.037,39.418,9.742z"/>
</g>
</svg>
