<?xml version="1.0" encoding="iso-8859-1"?>
<!-- Generator: Adobe Illustrator 16.0.0, SVG Export Plug-In . SVG Version: 6.00 Build 0)  -->
<!DOCTYPE svg PUBLIC "-//W3C//DTD SVG 1.1//EN" "http://www.w3.org/Graphics/SVG/1.1/DTD/svg11.dtd">
<svg version="1.1" id="Layer_1" xmlns="http://www.w3.org/2000/svg" xmlns:xlink="http://www.w3.org/1999/xlink" x="0px" y="0px"
	 width="64px" height="64px" viewBox="0 0 64 64" style="enable-background:new 0 0 64 64;" xml:space="preserve">
<g>
	<g>
		<g>
			<path style="fill:#FF8B26;" d="M47.155,20.387c1.91-11.076-4.797-14.581-14.919-14.766V5.603c-0.087,0-0.162,0.008-0.247,0.008
				s-0.16-0.008-0.246-0.008v0.019c-10.122,0.185-16.26,4.994-14.919,14.766c1.674,12.198,13.137,12.546,13.137,12.546h1.042
				C31.003,32.933,44.617,35.094,47.155,20.387z"/>
		</g>
		<g>
			<g>
				<path style="fill:#E3C7AA;" d="M32.739,58.181h-1.48L20.776,41.709l0.545-0.211c0.241-0.093,5.902-2.361,5.902-8.628v-0.478
					h9.552v0.478c0,6.285,5.842,8.604,5.9,8.628l0.545,0.211L32.739,58.181z"/>
				<path style="fill:#E3C7AA;" d="M31.466,57.804h1.066l10.123-15.909l-0.114-0.044c-0.255-0.102-6.143-2.517-6.143-8.98v-0.102
					h-8.798v0.102c0,6.525-5.893,8.882-6.144,8.979l-0.115,0.045L31.466,57.804z"/>
			</g>
		</g>
		<g>
			<path style="fill:#3A3E42;" d="M53.198,46.549c-1.881-1.882-4.294-3.858-11.209-5.627l-2.034,5.031c0,0-6.163,4.72-7.956,6.061
				c-1.792-1.341-7.954-5.714-7.954-5.714l-1.855-5.378c-6.916,1.769-9.508,3.745-11.389,5.627
				C7.399,49.95,8.607,58.705,8.607,63.836h46.784C55.392,58.705,56.6,49.95,53.198,46.549z"/>
		</g>
		<g>
			<path style="fill:#FF8B26;" d="M45.606,19.869c-1.326-9.76-4.501-13.741-13.842-13.741c-7.7,0-12.053,3.981-13.378,13.741
				c-1.662,12.234,7.383-3.521,13.61-3.521C38.508,16.348,47.267,32.104,45.606,19.869z"/>
		</g>
		<g>
			<path style="fill:#FFE5CB;" d="M44.161,23.311c0.006-0.156,0.012-0.313,0.012-0.469c0-7.386-5.451-11.461-12.178-11.461
				c-6.725,0-12.177,4.075-12.177,11.461c0,0.157,0.006,0.313,0.011,0.472c-0.692,0.307-1.201,1.256-1.201,2.393
				c0,1.385,0.749,2.508,1.671,2.508c0.135,0,0.263-0.029,0.389-0.074c1.792,5.589,6.179,10.462,11.308,10.462
				c5.132,0,9.517-4.874,11.31-10.465c0.127,0.047,0.258,0.077,0.395,0.077c0.923,0,1.671-1.123,1.671-2.508
				C45.37,24.565,44.857,23.613,44.161,23.311z"/>
			<path style="fill:#E3C7AA;" d="M31.995,38.979c-5.532,0-9.824-5.325-11.559-10.395c-1.213,0.136-2.186-1.195-2.186-2.878
				c0-1.142,0.471-2.153,1.194-2.613c-0.002-0.093-0.004-0.172-0.004-0.251c0-7.081,5.045-11.838,12.554-11.838
				c7.51,0,12.554,4.757,12.554,11.838c0,0.082-0.001,0.164-0.003,0.247c0.728,0.457,1.201,1.471,1.201,2.617
				c0,1.686-0.975,3.01-2.192,2.877C41.819,33.653,37.527,38.979,31.995,38.979z M20.926,27.651l0.119,0.373
				c1.577,4.913,5.676,10.201,10.95,10.201c5.275,0,9.374-5.289,10.951-10.203l0.12-0.375l0.368,0.136
				c0.1,0.037,0.186,0.055,0.265,0.055c0.701,0,1.295-0.976,1.295-2.132c0-0.955-0.404-1.798-0.982-2.051l-0.234-0.102l0.008-0.256
				c0.005-0.171,0.011-0.313,0.011-0.456c0-7.657-5.927-11.084-11.801-11.084c-5.873,0-11.8,3.427-11.8,11.084
				c0,0.128,0.004,0.256,0.008,0.384l0.01,0.329l-0.23,0.103c-0.576,0.256-0.978,1.099-0.978,2.049c0,1.156,0.593,2.132,1.294,2.132
				c0.079,0,0.161-0.018,0.259-0.053L20.926,27.651z"/>
		</g>
		<g>
			<g>
				<path style="fill:#3A3E42;" d="M31.109,7.442c0.174,0,0.335,0.013,0.505,0.017c0.171-0.004,0.332-0.017,0.506-0.017H31.109z"/>
			</g>
			<g>
				<path style="fill:#FF8B26;" d="M31.614,7.459C15.899,7.459,18.33,23.9,18.33,23.9s6.421-1.39,6.421-10.073
					c2.432,9.032,20.759,7.871,20.759,7.871S45.016,7.788,31.614,7.459z"/>
			</g>
		</g>
		<g>
			<g>
				<g>
					<g>
						<path style="fill:#FFFFFF;" d="M21.421,41.584c0,0,1.421,4.226,2.407,5.863c-0.044-0.072,9.375,6.725,8.491,6.183l0.016,0.492
							L21.566,51.69l1.391-3.475l-4.189-0.859L21.421,41.584z"/>
					</g>
				</g>
			</g>
			<g>
				<g>
					<g>
						<path style="fill:#FFFFFF;" d="M42.578,41.584c0,0-1.422,4.226-2.407,5.863c0.045-0.072-9.375,6.725-8.492,6.183l-0.016,0.492
							l10.769-2.432l-1.389-3.475l4.188-0.859L42.578,41.584z"/>
					</g>
				</g>
			</g>
		</g>
		<g>
			<rect x="31.176" y="53.079" style="fill:#FFFFFF;" width="1.647" height="10.921"/>
		</g>
		<g>
			<path style="fill:#FF8B26;" d="M13.628,15.563c0,2.646,1.869,4.796,4.175,4.796s4.175-2.149,4.175-4.796
				c0-2.646-1.869-4.795-4.175-4.795S13.628,12.918,13.628,15.563z"/>
		</g>
		<g>
			<ellipse style="fill:#FF8B26;" cx="20.234" cy="9.658" rx="4.175" ry="4.795"/>
		</g>
		<g>
			<ellipse style="fill:#FF8B26;" cx="25.098" cy="6.185" rx="4.863" ry="4.795"/>
		</g>
		<g>
			<path style="fill:#FF8B26;" d="M26.487,4.795c0,2.646,2.333,4.796,5.211,4.796c2.877,0,5.21-2.149,5.21-4.796
				c0-2.646-2.333-4.795-5.21-4.795C28.82,0,26.487,2.149,26.487,4.795z"/>
		</g>
		<g>
			<ellipse style="fill:#FF8B26;" cx="38.646" cy="6.185" rx="4.87" ry="4.795"/>
		</g>
		<g>
			<path style="fill:#FF8B26;" d="M40.027,9.311c0,2.646,1.87,4.796,4.175,4.796c2.306,0,4.176-2.149,4.176-4.796
				c0-2.646-1.87-4.794-4.176-4.794C41.897,4.517,40.027,6.665,40.027,9.311z"/>
		</g>
		<g>
			<ellipse style="fill:#FF8B26;" cx="46.287" cy="15.217" rx="4.175" ry="4.795"/>
		</g>
		<g>
			<g>
				<g>
					
						<rect x="19.291" y="22.392" transform="matrix(0.2928 0.9562 -0.9562 0.2928 37.1667 -1.928)" style="fill:#3362A3;" width="1.191" height="3.538"/>
				</g>
				<g>
					
						<rect x="41.93" y="23.565" transform="matrix(0.956 0.2934 -0.2934 0.956 9.0137 -11.7597)" style="fill:#3362A3;" width="3.538" height="1.191"/>
				</g>
			</g>
			<g>
				<g>
					<g>
						<path style="fill:#FFFFFF;" d="M30.643,24.674c0,0,0.273,3.272-4.771,3.272c-4.5,0-4.771-4.636-4.771-4.636
							s1.354-0.546,5.044-0.546S30.643,24.674,30.643,24.674z"/>
					</g>
					<g>
						<path style="fill:#3362A3;" d="M25.871,28.286c-4.765,0-5.107-4.906-5.111-4.955l-0.014-0.244l0.227-0.091
							c0.058-0.023,1.458-0.57,5.171-0.57c3.87,0,4.775,2.029,4.813,2.115l0.025,0.104c0.004,0.049,0.09,1.208-0.838,2.215
							C29.273,27.806,27.836,28.286,25.871,28.286z M21.467,23.553c0.131,0.94,0.833,4.054,4.404,4.054
							c1.759,0,3.024-0.401,3.763-1.196c0.631-0.677,0.675-1.435,0.673-1.651c-0.152-0.28-1.059-1.653-4.163-1.653
							C23.426,23.105,21.994,23.408,21.467,23.553z"/>
					</g>
				</g>
				<g>
					<g>
						<path style="fill:#FFFFFF;" d="M32.685,24.674c0,0-0.272,3.272,4.771,3.272c4.5,0,4.772-4.636,4.772-4.636
							s-1.355-0.546-5.045-0.546S32.685,24.674,32.685,24.674z"/>
					</g>
					<g>
						<path style="fill:#3362A3;" d="M37.456,28.286c-1.964,0-3.401-0.48-4.271-1.426c-0.928-1.007-0.842-2.166-0.838-2.215
							l0.025-0.104c0.037-0.086,0.941-2.115,4.812-2.115c3.713,0,5.114,0.547,5.172,0.57l0.227,0.091l-0.015,0.244
							C42.564,23.38,42.222,28.286,37.456,28.286z M33.021,24.759c-0.002,0.215,0.041,0.973,0.672,1.651
							c0.739,0.795,2.005,1.196,3.763,1.196c3.571,0,4.274-3.113,4.405-4.054c-0.526-0.145-1.959-0.447-4.678-0.447
							C34.087,23.105,33.179,24.474,33.021,24.759z"/>
					</g>
				</g>
				<g>
					<rect x="30.654" y="24.098" style="fill:#3362A3;" width="2.03" height="1.41"/>
				</g>
			</g>
		</g>
	</g>
	<g>
		<g>
			<path style="fill:#FF8B26;" d="M47.155,20.387c1.91-11.076-4.797-14.581-14.919-14.766V5.603c-0.087,0-0.162,0.008-0.247,0.008
				s-0.16-0.008-0.246-0.008v0.019c-10.122,0.185-16.26,4.994-14.919,14.766c1.674,12.198,13.137,12.546,13.137,12.546h1.042
				C31.003,32.933,44.617,35.094,47.155,20.387z"/>
		</g>
		<g>
			<g>
				<path style="fill:#E3C7AA;" d="M32.739,58.181h-1.48L20.776,41.709l0.545-0.211c0.241-0.093,5.902-2.361,5.902-8.628v-0.478
					h9.552v0.478c0,6.285,5.842,8.604,5.9,8.628l0.545,0.211L32.739,58.181z"/>
				<path style="fill:#E3C7AA;" d="M31.466,57.804h1.066l10.123-15.909l-0.114-0.044c-0.255-0.102-6.143-2.517-6.143-8.98v-0.102
					h-8.798v0.102c0,6.525-5.893,8.882-6.144,8.979l-0.115,0.045L31.466,57.804z"/>
			</g>
		</g>
		<g>
			<path style="fill:#3A3E42;" d="M53.198,46.549c-1.881-1.882-4.294-3.858-11.209-5.627l-2.034,5.031c0,0-6.163,4.72-7.956,6.061
				c-1.792-1.341-7.954-5.714-7.954-5.714l-1.855-5.378c-6.916,1.769-9.508,3.745-11.389,5.627
				C7.399,49.95,8.607,58.705,8.607,63.836h46.784C55.392,58.705,56.6,49.95,53.198,46.549z"/>
		</g>
		<g>
			<path style="fill:#FF8B26;" d="M45.606,19.869c-1.326-9.76-4.501-13.741-13.842-13.741c-7.7,0-12.053,3.981-13.378,13.741
				c-1.662,12.234,7.383-3.521,13.61-3.521C38.508,16.348,47.267,32.104,45.606,19.869z"/>
		</g>
		<g>
			<path style="fill:#FFE5CB;" d="M44.161,23.311c0.006-0.156,0.012-0.313,0.012-0.469c0-7.386-5.451-11.461-12.178-11.461
				c-6.725,0-12.177,4.075-12.177,11.461c0,0.157,0.006,0.313,0.011,0.472c-0.692,0.307-1.201,1.256-1.201,2.393
				c0,1.385,0.749,2.508,1.671,2.508c0.135,0,0.263-0.029,0.389-0.074c1.792,5.589,6.179,10.462,11.308,10.462
				c5.132,0,9.517-4.874,11.31-10.465c0.127,0.047,0.258,0.077,0.395,0.077c0.923,0,1.671-1.123,1.671-2.508
				C45.37,24.565,44.857,23.613,44.161,23.311z"/>
			<path style="fill:#E3C7AA;" d="M31.995,38.979c-5.532,0-9.824-5.325-11.559-10.395c-1.213,0.136-2.186-1.195-2.186-2.878
				c0-1.142,0.471-2.153,1.194-2.613c-0.002-0.093-0.004-0.172-0.004-0.251c0-7.081,5.045-11.838,12.554-11.838
				c7.51,0,12.554,4.757,12.554,11.838c0,0.082-0.001,0.164-0.003,0.247c0.728,0.457,1.201,1.471,1.201,2.617
				c0,1.686-0.975,3.01-2.192,2.877C41.819,33.653,37.527,38.979,31.995,38.979z M20.926,27.651l0.119,0.373
				c1.577,4.913,5.676,10.201,10.95,10.201c5.275,0,9.374-5.289,10.951-10.203l0.12-0.375l0.368,0.136
				c0.1,0.037,0.186,0.055,0.265,0.055c0.701,0,1.295-0.976,1.295-2.132c0-0.955-0.404-1.798-0.982-2.051l-0.234-0.102l0.008-0.256
				c0.005-0.171,0.011-0.313,0.011-0.456c0-7.657-5.927-11.084-11.801-11.084c-5.873,0-11.8,3.427-11.8,11.084
				c0,0.128,0.004,0.256,0.008,0.384l0.01,0.329l-0.23,0.103c-0.576,0.256-0.978,1.099-0.978,2.049c0,1.156,0.593,2.132,1.294,2.132
				c0.079,0,0.161-0.018,0.259-0.053L20.926,27.651z"/>
		</g>
		<g>
			<g>
				<path style="fill:#3A3E42;" d="M31.109,7.442c0.174,0,0.335,0.013,0.505,0.017c0.171-0.004,0.332-0.017,0.506-0.017H31.109z"/>
			</g>
			<g>
				<path style="fill:#FF8B26;" d="M31.614,7.459C15.899,7.459,18.33,23.9,18.33,23.9s6.421-1.39,6.421-10.073
					c2.432,9.032,20.759,7.871,20.759,7.871S45.016,7.788,31.614,7.459z"/>
			</g>
		</g>
		<g>
			<g>
				<g>
					<g>
						<path style="fill:#FFFFFF;" d="M21.421,41.584c0,0,1.421,4.226,2.407,5.863c-0.044-0.072,9.375,6.725,8.491,6.183l0.016,0.492
							L21.566,51.69l1.391-3.475l-4.189-0.859L21.421,41.584z"/>
					</g>
				</g>
			</g>
			<g>
				<g>
					<g>
						<path style="fill:#FFFFFF;" d="M42.578,41.584c0,0-1.422,4.226-2.407,5.863c0.045-0.072-9.375,6.725-8.492,6.183l-0.016,0.492
							l10.769-2.432l-1.389-3.475l4.188-0.859L42.578,41.584z"/>
					</g>
				</g>
			</g>
		</g>
		<g>
			<rect x="31.176" y="53.079" style="fill:#FFFFFF;" width="1.647" height="10.921"/>
		</g>
		<g>
			<path style="fill:#FF8B26;" d="M13.628,15.563c0,2.646,1.869,4.796,4.175,4.796s4.175-2.149,4.175-4.796
				c0-2.646-1.869-4.795-4.175-4.795S13.628,12.918,13.628,15.563z"/>
		</g>
		<g>
			<ellipse style="fill:#FF8B26;" cx="20.234" cy="9.658" rx="4.175" ry="4.795"/>
		</g>
		<g>
			<ellipse style="fill:#FF8B26;" cx="25.098" cy="6.185" rx="4.863" ry="4.795"/>
		</g>
		<g>
			<path style="fill:#FF8B26;" d="M26.487,4.795c0,2.646,2.333,4.796,5.211,4.796c2.877,0,5.21-2.149,5.21-4.796
				c0-2.646-2.333-4.795-5.21-4.795C28.82,0,26.487,2.149,26.487,4.795z"/>
		</g>
		<g>
			<ellipse style="fill:#FF8B26;" cx="38.646" cy="6.185" rx="4.87" ry="4.795"/>
		</g>
		<g>
			<path style="fill:#FF8B26;" d="M40.027,9.311c0,2.646,1.87,4.796,4.175,4.796c2.306,0,4.176-2.149,4.176-4.796
				c0-2.646-1.87-4.794-4.176-4.794C41.897,4.517,40.027,6.665,40.027,9.311z"/>
		</g>
		<g>
			<ellipse style="fill:#FF8B26;" cx="46.287" cy="15.217" rx="4.175" ry="4.795"/>
		</g>
		<g>
			<g>
				<g>
					
						<rect x="19.291" y="22.392" transform="matrix(0.2928 0.9562 -0.9562 0.2928 37.1667 -1.928)" style="fill:#3362A3;" width="1.191" height="3.538"/>
				</g>
				<g>
					
						<rect x="41.93" y="23.565" transform="matrix(0.956 0.2934 -0.2934 0.956 9.0137 -11.7597)" style="fill:#3362A3;" width="3.538" height="1.191"/>
				</g>
			</g>
			<g>
				<g>
					<g>
						<path style="fill:#FFFFFF;" d="M30.643,24.674c0,0,0.273,3.272-4.771,3.272c-4.5,0-4.771-4.636-4.771-4.636
							s1.354-0.546,5.044-0.546S30.643,24.674,30.643,24.674z"/>
					</g>
					<g>
						<path style="fill:#3362A3;" d="M25.871,28.286c-4.765,0-5.107-4.906-5.111-4.955l-0.014-0.244l0.227-0.091
							c0.058-0.023,1.458-0.57,5.171-0.57c3.87,0,4.775,2.029,4.813,2.115l0.025,0.104c0.004,0.049,0.09,1.208-0.838,2.215
							C29.273,27.806,27.836,28.286,25.871,28.286z M21.467,23.553c0.131,0.94,0.833,4.054,4.404,4.054
							c1.759,0,3.024-0.401,3.763-1.196c0.631-0.677,0.675-1.435,0.673-1.651c-0.152-0.28-1.059-1.653-4.163-1.653
							C23.426,23.105,21.994,23.408,21.467,23.553z"/>
					</g>
				</g>
				<g>
					<g>
						<path style="fill:#FFFFFF;" d="M32.685,24.674c0,0-0.272,3.272,4.771,3.272c4.5,0,4.772-4.636,4.772-4.636
							s-1.355-0.546-5.045-0.546S32.685,24.674,32.685,24.674z"/>
					</g>
					<g>
						<path style="fill:#3362A3;" d="M37.456,28.286c-1.964,0-3.401-0.48-4.271-1.426c-0.928-1.007-0.842-2.166-0.838-2.215
							l0.025-0.104c0.037-0.086,0.941-2.115,4.812-2.115c3.713,0,5.114,0.547,5.172,0.57l0.227,0.091l-0.015,0.244
							C42.564,23.38,42.222,28.286,37.456,28.286z M33.021,24.759c-0.002,0.215,0.041,0.973,0.672,1.651
							c0.739,0.795,2.005,1.196,3.763,1.196c3.571,0,4.274-3.113,4.405-4.054c-0.526-0.145-1.959-0.447-4.678-0.447
							C34.087,23.105,33.179,24.474,33.021,24.759z"/>
					</g>
				</g>
				<g>
					<rect x="30.654" y="24.098" style="fill:#3362A3;" width="2.03" height="1.41"/>
				</g>
			</g>
		</g>
	</g>
</g>
</svg>
