<?xml version="1.0" encoding="iso-8859-1"?>
<!-- Generator: Adobe Illustrator 16.0.0, SVG Export Plug-In . SVG Version: 6.00 Build 0)  -->
<!DOCTYPE svg PUBLIC "-//W3C//DTD SVG 1.1//EN" "http://www.w3.org/Graphics/SVG/1.1/DTD/svg11.dtd">
<svg version="1.1" id="Layer_1" xmlns="http://www.w3.org/2000/svg" xmlns:xlink="http://www.w3.org/1999/xlink" x="0px" y="0px"
	 width="64px" height="64px" viewBox="0 0 64 64" style="enable-background:new 0 0 64 64;" xml:space="preserve">
<g>
	<g>
		<g>
			<path style="fill:#FFE9BA;" d="M43.426,46.867l-3.486-0.643c-0.018,0-0.018,0-0.035,0c-1.878-0.017-3.418-1.523-3.469-3.401
				v-2.557c4.113-2.54,6.99-8.481,6.99-15.406c0-9.243-5.112-13.948-11.426-13.948l0,0h-0.001c-6.313,0-11.426,4.705-11.426,13.948
				c0,6.925,2.878,12.866,6.991,15.406v2.557c-0.051,1.878-1.591,3.385-3.47,3.401c-0.018,0-0.018,0-0.034,0l-3.487,0.643
				c-7.72,2.388-9.142,8.109-9.142,14.694V64h20.567H32h20.567v-2.438C52.567,54.977,51.146,49.255,43.426,46.867z"/>
		</g>
		<g>
			<path style="fill:#FFE9BA;" d="M36.451,42.28c0,0,0-0.017-0.016-0.033v0.033C36.451,42.28,36.451,42.28,36.451,42.28z"/>
		</g>
	</g>
	<g>
		<g>
			<path style="fill:#FFE9BA;" d="M40.396,36.076c-1.084,1.761-2.438,3.166-3.961,4.098v2.42c-0.881,0.289-1.795,0.44-2.727,0.44
				c-2.268,0-4.384-0.897-6.145-2.454v-0.406c1.338,0.762,2.793,1.168,4.316,1.168C35.268,41.342,38.332,39.293,40.396,36.076z"/>
		</g>
		<g>
			<path style="fill:#FFE9BA;" d="M36.451,42.188c0,0,0,0-0.016,0v-0.033C36.451,42.172,36.451,42.188,36.451,42.188z"/>
		</g>
	</g>
	<g>
		<g>
			<path style="fill:#A4D2E6;" d="M52.568,61.562V64H11.432v-2.438c0-6.585,1.422-12.307,9.142-14.694l3.487-0.643
				c0.017,0,0.017,0,0.034,0c0.677,0,1.319-0.203,1.862-0.575c1.354,1.879,3.554,3.098,6.043,3.098c2.488,0,4.689-1.219,6.043-3.098
				c0.543,0.372,1.186,0.575,1.863,0.575c0.017,0,0.017,0,0.033,0l3.487,0.643C51.146,49.255,52.568,54.977,52.568,61.562z"/>
		</g>
		<g>
			<path style="fill:#A4D2E6;" d="M36.451,42.28c0,0,0,0-0.016,0v-0.033C36.451,42.264,36.451,42.28,36.451,42.28z"/>
		</g>
	</g>
	<g>
		<path style="fill:#C77543;" d="M27.496,40.139c-0.337-0.186-0.676-0.405-0.998-0.642c-0.016,0-0.016,0-0.033-0.017
			c-0.018-0.02-0.018-0.02-0.018-0.035c-0.066-0.067-0.135-0.152-0.203-0.236C26.65,39.548,27.057,39.868,27.496,40.139z"/>
	</g>
	<g>
		<path style="fill:#EED59C;" d="M36.436,40.174v1.981c0.016,0.017,0.016,0.033,0.016,0.033s0,0-0.016,0v0.405
			c-0.881,0.289-1.795,0.44-2.727,0.44c-2.268,0-4.384-0.897-6.145-2.454c-0.372-0.34-0.728-0.695-1.066-1.083
			c-0.016,0-0.016,0-0.033-0.017c-0.018-0.02-0.018-0.02-0.018-0.035c-0.066-0.067-0.135-0.152-0.203-0.236
			c0.406,0.339,0.813,0.659,1.252,0.93c0.018,0.018,0.034,0.035,0.068,0.035c1.338,0.762,2.793,1.168,4.316,1.168
			C35.268,41.342,36.436,40.174,36.436,40.174z"/>
	</g>
	<g>
		<path style="fill:#9C603E;" d="M37.848,14.179c0,0-8.542,1.686-12.908,6.137c-4.366,4.452-1.605,7.973-2.849,13.199
			c0,0-3.817-4.839-2.971-12.563C19.967,13.228,23.932,7.725,32,8.466c0,0,2.674-1.798,6.905-0.528
			c4.233,1.269,11.333,17.588,2.509,26.301C41.414,34.238,46.205,20.633,37.848,14.179z"/>
	</g>
	<g>
		<ellipse style="fill:#FFE9BA;" cx="21.616" cy="29.689" rx="1.649" ry="2.968"/>
	</g>
	<g>
		<ellipse style="fill:#FFE9BA;" cx="42.384" cy="29.689" rx="1.649" ry="2.968"/>
	</g>
	<g>
		<path style="fill:#9C603E;" d="M23.951,24.689c0.37-2.803,0.988-4.374,0.988-4.374s-2.103,0.305-2.242,1.538
			c-0.025,0.244,0.018,0.502,0.087,0.763c-0.444,0.8-1.113,2.042-2.131,3.969c0,0,0.078,0.299,0.365,0.346
			c0.478,0.075,0.599,0.511,2.016,2.759c0,0-0.466-2.651,0.091-6.227C23.49,24.151,23.951,24.689,23.951,24.689z"/>
	</g>
	<g>
		<path style="fill:#9C603E;" d="M37.848,14.179c-0.419,0.091-6.42,4.165-8.817,4.729l1.199-3.315L37.848,14.179z"/>
	</g>
	<g>
		<path style="fill:#9C603E;" d="M41.041,34.983c0,0-0.701,7.175-9.041,7.205c0,0-6.339,0.325-8.908-6.956
			c0,0,2.475-1.516,3.152,1.521c0.625,2.804,10.818,2.54,11.946-0.142C38.19,36.611,38.531,33.99,41.041,34.983z"/>
	</g>
	<g>
		<path style="fill:#3D95CA;" d="M35.273,52.176c0,0.467-0.379,0.846-0.848,0.846h-3.397c-0.468,0-0.846-0.379-0.846-0.846v-1.982
			c0-0.467,0.378-0.845,0.846-0.845h3.397c0.469,0,0.848,0.378,0.848,0.845V52.176z"/>
	</g>
	<g>
		<polygon style="fill:#FFFFFF;" points="27.458,44.825 32.588,48.773 30.022,53.867 23.681,45.675 		"/>
	</g>
	<g>
		<polygon style="fill:#FFFFFF;" points="37.717,44.825 32.587,48.773 35.152,53.867 41.494,45.675 		"/>
	</g>
	<g>
		<polygon style="fill:#3D95CA;" points="32.219,52.996 29.9,64 35.556,64 33.535,52.996 		"/>
	</g>
	<g>
		<g>
			<path style="fill:#1B2431;" d="M33.07,49.355c-8.109,0-14.729,6.57-14.797,14.645h3.386c0.067-6.213,5.163-11.258,11.411-11.258
				c6.229,0,11.324,5.045,11.393,11.258h3.385C47.781,55.926,41.162,49.355,33.07,49.355z"/>
		</g>
	</g>
	<g>
		<path style="fill:#1B2431;" d="M33.341,63.985c0,0-1.659,0.032-3.86,0H33.341z"/>
	</g>
	<g>
		<path style="fill:#1B2431;" d="M32.918,62.511c-0.051-0.051-0.221-0.051-0.441,0L30.988,64h-3.166
			c-1.981-4.096-8.024-3.486-8.024-3.486c-0.321-0.322,1.472-2.574,1.812-2.896l2.996-2.997c0.322-0.322,2.149-1.725,2.488-1.389
			c0,0-0.288,5.165,5.383,8.076c0.068,0.034,0.152,0.084,0.221,0.119C37.184,63.746,34.17,62.68,32.918,62.511z"/>
	</g>
	<g>
		<path style="fill:#1B2431;" d="M45.597,60.514c0,0-6.044-0.609-8.024,3.486h-3.148l-1.506-1.489c-0.051-0.051-0.221-0.051-0.441,0
			c-1.252,0.169-4.266,1.235,0.221-1.083c0.067-0.035,0.152-0.085,0.221-0.119c5.67-2.911,5.383-8.076,5.383-8.076
			c0.339-0.336,2.168,1.066,2.488,1.389l2.997,2.997C44.124,57.939,45.918,60.191,45.597,60.514z"/>
	</g>
	<g>
		<path style="fill:#414953;" d="M37.166,64h-8.143c0-2.251,1.828-4.063,4.08-4.063C35.338,59.937,37.166,61.749,37.166,64z"/>
	</g>
	<g>
		<ellipse cx="32.57" cy="8.419" rx="17.615" ry="8.421"/>
	</g>
	<g>
		<path style="fill:#1B2431;" d="M50.185,8.416c0,0.324-0.034,0.648-0.118,0.956c-0.982-4.188-8.448-7.458-17.506-7.458
			c-9.039,0-16.505,3.27-17.486,7.458c-0.085-0.308-0.119-0.632-0.119-0.956c0-4.646,7.889-8.414,17.605-8.414
			C42.295,0.002,50.185,3.77,50.185,8.416z"/>
	</g>
	<g>
		<ellipse style="fill:#414953;" cx="32.57" cy="14.183" rx="12.006" ry="2.657"/>
	</g>
	<g>
		<ellipse style="fill:#1B2431;" cx="32.57" cy="7.868" rx="12.006" ry="2.509"/>
	</g>
	<g>
		<path style="fill:#1B2431;" d="M44.576,13.745c0,0.467-0.359,0.847-0.804,0.847H21.368c-0.444,0-0.805-0.38-0.805-0.847V8.02
			c0-0.468,0.36-0.847,0.805-0.847h22.404c0.444,0,0.804,0.379,0.804,0.847V13.745z"/>
	</g>
	<g>
		<path style="fill:#A4D2E6;" d="M37.041,12.049c0,0.467-0.38,0.846-0.847,0.846h-6.448c-0.469,0-0.848-0.379-0.848-0.846V9.266
			c0-0.467,0.379-0.847,0.848-0.847h6.448c0.467,0,0.847,0.38,0.847,0.847V12.049z"/>
	</g>
</g>
</svg>
