<?xml version="1.0" encoding="iso-8859-1"?>
<!-- Generator: Adobe Illustrator 16.0.0, SVG Export Plug-In . SVG Version: 6.00 Build 0)  -->
<!DOCTYPE svg PUBLIC "-//W3C//DTD SVG 1.1//EN" "http://www.w3.org/Graphics/SVG/1.1/DTD/svg11.dtd">
<svg version="1.1" id="Layer_1" xmlns="http://www.w3.org/2000/svg" xmlns:xlink="http://www.w3.org/1999/xlink" x="0px" y="0px"
	 width="64px" height="64px" viewBox="0 0 64 64" style="enable-background:new 0 0 64 64;" xml:space="preserve">
<g>
	<path style="fill:#C04028;" d="M41.959,11.903l-9.958-2.093l-9.959,2.093c-7.582,0-6.492,4.333-5.766,8.079
		c1.045,4.223,2.582,7.128,5.766,7.128h9.959h9.958c3.186,0,4.723-2.905,5.766-7.128C48.451,16.236,49.541,11.903,41.959,11.903z"/>
	<path style="fill:#F9D5BE;" d="M54.188,48.398c-0.246-4.664-7.059-5.585-12.336-6.443c-2.822-0.459-3.707-3.39-3.926-6.021
		c-1.789,1.658-4.096,3.351-5.924,3.351c-1.811,0-4.127-1.7-5.924-3.361c-0.217,2.634-1.102,5.571-3.928,6.031
		c-5.277,0.858-12.09,1.779-12.336,6.443C9.568,53.063,9.691,64,9.691,64h22.033h0.553h22.034
		C54.311,64,54.434,53.063,54.188,48.398z"/>
	<path style="fill:#FCB23A;" d="M54.188,48.398c-0.246-4.664-7.059-5.585-12.336-6.443c-2.822-0.459-3.707-3.39-3.926-6.021
		c-1.789,1.658-4.096,3.351-5.924,3.351c-1.811,0-4.127-1.7-5.924-3.361c-0.217,2.634-1.102,5.571-3.928,6.031
		c-5.277,0.858-12.09,1.779-12.336,6.443C9.568,53.063,9.691,64,9.691,64h22.033h0.553h22.034
		C54.311,64,54.434,53.063,54.188,48.398z"/>
	<path style="fill:#F9D5BE;" d="M37.926,35.935c-0.037-0.439-0.063-0.873-0.066-1.283H26.142c-0.004,0.406-0.029,0.836-0.064,1.272
		c1.797,1.661,4.113,3.361,5.924,3.361C33.83,39.285,36.137,37.593,37.926,35.935z"/>
	<path style="fill:#FCB23A;" d="M37.926,35.935c-0.037-0.439-0.063-0.873-0.066-1.283H26.142c-0.004,0.406-0.029,0.836-0.064,1.272
		c1.797,1.661,4.113,3.361,5.924,3.361C33.83,39.285,36.137,37.593,37.926,35.935z"/>
	<path style="opacity:0.45;fill:#E0982F;" d="M38.777,39.18c0.479,0.264,0,1.697-1.449,1.697H26.673
		c-1.449,0-2.039-1.238-1.449-1.697v-2.731c0-0.801,0.65-1.449,1.449-1.449h10.655c0.801,0,1.449,0.648,1.449,1.449V39.18z"/>
	<path style="fill:#FCB23A;" d="M38.777,38.832c0,0.8-0.648,1.448-1.449,1.448H26.673c-0.799,0-1.449-0.648-1.449-1.448v-2.731
		c0-0.8,0.65-1.449,1.449-1.449h10.655c0.801,0,1.449,0.649,1.449,1.449V38.832z"/>
	<path style="opacity:0.15;fill:#FCB23A;" d="M38.578,35.367c0,0-0.375-0.609-0.719-0.609H26.142c0,0-0.504,0.212-0.723,0.622
		c0,0,3.047,3.905,6.582,3.905C35.418,39.285,38.578,35.367,38.578,35.367z"/>
	<g>
		<path style="fill:#774E3E;" d="M32.001,6.35L32.001,6.35L32.001,6.35c-6.428,0-11.639,5.184-11.639,11.578
			c0,3.109,0.918,5.298,1.461,5.45c1.727,0.484,5.291-7.446,10.178-7.446l0,0l0,0c4.887,0,8.452,7.931,10.176,7.446
			c0.545-0.152,1.461-2.341,1.461-5.45C43.639,11.533,38.43,6.35,32.001,6.35z"/>
		<path style="fill:#F9D5BE;" d="M43.76,21.823c-0.582-0.202-1.115,0.136-1.533,0.581c0.02-0.578,0.016-1.021-0.002-1.255
			c0-6.911-5.426-10.837-10.223-10.845c-4.799,0.008-10.225,3.934-10.225,10.845c-0.018,0.234-0.021,0.677-0.002,1.255
			c-0.418-0.445-0.951-0.783-1.533-0.581c-0.93,0.323-0.469,5.98,2.242,6.995c0.084,0.031,0.148,0.038,0.223,0.057
			c0.352,1.308,0.824,2.578,1.461,3.628c0.736,1.211,4.996,5.95,7.834,5.95c2.875,0,7.096-4.739,7.833-5.95
			c0.639-1.05,1.109-2.32,1.461-3.628c0.074-0.019,0.139-0.025,0.223-0.057C44.229,27.804,44.689,22.146,43.76,21.823z"/>
		<path style="fill:#774E3E;" d="M32.328,7.683c-8.996,0-12.277,6.537-11.965,11.864c0.141,2.396,1.174,5.546,1.174,5.546
			c0.115,0.16,0.555,0.062,0.508-0.226c-0.785-4.869,1.57-10.818,2.744-11.231c5.99-1.556,8.756,5.952,16.274,2.65
			c0.912,2.085,1.318,6.19,0.934,8.581c-0.047,0.287,0.4,0.386,0.516,0.226c0,0,1.125-3.599,1.127-5.997
			C43.643,16.721,42.539,7.683,32.328,7.683z"/>
	</g>
	<path style="fill:#CC4736;" d="M32.001,19.087c-18.82,0-14.129-8.521-13.561-9.241c0.033-0.042,0.148-0.154,0.111-0.115
		C18.441,9.846,45.51,9.782,45.51,9.782S51.906,19.087,32.001,19.087z"/>
	<rect x="15.763" y="50.979" style="fill:#C04028;" width="32.475" height="3.128"/>
	<rect x="15.763" y="55.499" style="fill:#EFE6D9;" width="32.475" height="3.128"/>
	<g>
		<path style="opacity:0.55;fill:#C04028;" d="M42.58,11.307c0,5.411-21.159,5.411-21.159,0c0-5.413,4.736-9.8,10.58-9.8
			C37.844,1.507,42.58,5.894,42.58,11.307z"/>
		<path style="fill:#C04028;" d="M42.227,10.319c0,5.23-20.45,5.23-20.45,0s4.578-9.471,10.225-9.471
			C37.648,0.849,42.227,5.089,42.227,10.319z"/>
		<circle style="fill:#EFE6D9;" cx="31.977" cy="10.757" r="2.226"/>
		<path style="opacity:0.55;fill:#C04028;" d="M33.52,7.346h-3.042c-0.6,0-1.086-0.523-1.086-1.168V1.603
			c0-0.645,0.486-1.168,1.086-1.168h3.042c0.602,0,1.088,0.523,1.088,1.168v4.575C34.607,6.822,34.121,7.346,33.52,7.346z"/>
		<path style="fill:#CC4736;" d="M33.52,6.911h-3.042c-0.6,0-1.086-0.522-1.086-1.168V1.168C29.392,0.523,29.878,0,30.478,0h3.042
			c0.602,0,1.088,0.523,1.088,1.168v4.575C34.607,6.389,34.121,6.911,33.52,6.911z"/>
	</g>
</g>
</svg>
