<?xml version="1.0" encoding="iso-8859-1"?>
<!-- Generator: Adobe Illustrator 16.0.0, SVG Export Plug-In . SVG Version: 6.00 Build 0)  -->
<!DOCTYPE svg PUBLIC "-//W3C//DTD SVG 1.1//EN" "http://www.w3.org/Graphics/SVG/1.1/DTD/svg11.dtd">
<svg version="1.1" id="Layer_1" xmlns="http://www.w3.org/2000/svg" xmlns:xlink="http://www.w3.org/1999/xlink" x="0px" y="0px"
	 width="64px" height="64px" viewBox="0 0 64 64" style="enable-background:new 0 0 64 64;" xml:space="preserve">
<g id="_x31_4">
	<g id="_x31_0">
		<g>
			<path style="fill:#DEB09D;" d="M29.494,44.641c-1.131-0.173-2.262-0.449-3.258-1.009c-0.836-0.47-1.539-1.118-2.156-1.854
				c-0.531,0.836-1.053,1.676-1.393,2.661c-0.025,0.072-0.027,0.15-0.004,0.224c1.412,4.592,2.777,9.537,6.939,12.438
				c0.605,0.421,1.25,0.792,1.947,1.03c1.766,0.6,3.822,0.261,5.303-0.877c2.102-1.617,2.219-4.377,2.957-6.724
				c0.613-1.952,1.207-3.912,1.813-5.868c0.021-0.073,0.02-0.151-0.006-0.225l-0.672-1.924
				C37.564,44.459,33.393,45.237,29.494,44.641z"/>
			<g>
				<path style="fill:#DEB09D;" d="M39.863,39.446c-0.004-0.055,0.006-0.114-0.006-0.169c-0.441-2.151-0.25-4.519-0.105-5.692
					c-0.277,0.269-0.559,0.533-0.848,0.792c-0.141,0.127-0.283,0.255-0.426,0.382c-1.592,1.412-3.164,2.078-4.723,2.034
					c-1.559,0.044-3.133-0.622-4.723-2.034c-0.145-0.127-0.287-0.255-0.428-0.382c-0.83-0.746-1.621-1.498-2.314-2.301
					c0.23,2.133,0.053,4.31-0.529,6.375c-0.359,1.276-1.025,2.298-1.682,3.326c0.617,0.736,1.32,1.385,2.156,1.854
					c0.996,0.56,2.127,0.836,3.258,1.009c3.898,0.597,8.07-0.182,11.471-2.127l-1.082-3.102L39.863,39.446z"/>
				<path style="fill:#F9CFB3;" d="M43.994,19.118c-0.023-0.047-0.051-0.094-0.076-0.143c-0.637-1.215-0.932-2.92-1.301-4.239
					c-0.371-1.321-1.082-2.5-1.232-3.898c0.129,1.197-3.289,2.801-4.164,3.406c-1.049,0.729-2.246,1.168-3.465,1.757v15.224v5.568
					c1.559,0.044,3.131-0.622,4.723-2.034c0.143-0.127,0.285-0.255,0.426-0.382c0.289-0.259,0.57-0.523,0.848-0.792
					c1.643-1.589,3.064-3.36,3.813-5.562c0.186-0.546,0.094-0.457,0.223-1.013c0.41-0.005,1.014-0.13,1.221-0.491
					c0.201-0.35,0.246-0.767,0.285-1.169c0.053-0.532,0.105-1.788,0.156-2.32C45.645,21.054,44.811,20.6,43.994,19.118z"/>
				<path style="fill:#E2BBA1;" d="M33.756,15.98c-0.104-0.05-4.34,1.221-6.219,2.268c-2.16,1.205-4.258,3.412-6.217,5
					c0.244,1.305,0.822,3.453,2.059,3.528c0.381,0.022,0.586,0.468,0.65,0.842c0.301,1.747,1.15,3.169,2.262,4.458
					c0.693,0.803,1.484,1.555,2.314,2.301c0.141,0.127,0.283,0.255,0.428,0.382c1.59,1.412,3.164,2.078,4.723,2.034l-0.012-5.57
					L33.717,16.02c0.012-0.008,0.025-0.013,0.039-0.019V15.98z"/>
			</g>
			<path style="fill:#E2BBA1;" d="M24.23,41.543c0,0.122-0.012,0.23-0.035,0.352c-0.037-0.037-0.072-0.086-0.109-0.121
				C24.135,41.701,24.184,41.616,24.23,41.543z"/>
			<path style="fill:#7B371C;" d="M35.793,0.123C30.402-0.58,24.988,1.766,21.809,6.196c-0.975,1.359-1.645,2.913-2.189,4.495
				c-1.277,3.707-2.102,7.811-1.4,11.723c0.33,1.83,1.02,3.592,2.143,5.082c1.008,1.341,2.432,2.39,4.016,2.934
				c-0.324-0.305-0.5-0.672-0.695-1.06c-0.178-0.346-0.346-0.689-0.467-1.054c-0.211-0.643-0.354-1.317-0.41-1.993
				c-0.109-1.324,0.115-2.729,0.908-3.825c1.781-2.459,6.174-3.554,8.854-4.619c2.729-1.086,9.014-3.236,8.826-6.969
				c0.211,1.727,0.559,3.783,1.271,5.386c1.072,2.409,2.369,4.294,2.623,7.025c0.275,2.969-0.453,6.022-2.039,8.549
				c0.998,0.036,1.941-0.528,2.6-1.278c3.406-3.877,5.059-9.476,4.959-14.578c-0.086-4.4-1.428-8.135-4.957-10.864
				c-0.316-0.245-3.301-1.911-3.277-1.351C42.486,1.768,37.238,0.313,35.793,0.123z"/>
		</g>
		<g>
			<path style="fill:#728D96;" d="M60.197,64c-0.439-4.811-1.059-9.291-1.637-11.455c-1.238-4.64-3.979-5.867-8.531-7.258
				c-0.691-0.211-10.035-1.625-9.414-3.658c-2.055,6.722-4.561,12.793-6.625,19.521c-0.293,0.951-0.586,1.901-0.877,2.851H60.197z"
				/>
			<path style="fill:#647C82;" d="M14.545,64H31c-0.293-0.949-0.584-1.899-0.877-2.851c-2.066-6.728-3.668-13.147-5.727-19.87
				c0,0.331-4.543,2.549-5.02,2.738c-1.873,0.743-3.482,0.766-5.15,1.1C15.26,51.233,14.807,57.621,14.545,64z"/>
			<path style="fill:#E6E7E8;" d="M29.922,64h4.48c0.967-2.279,1.936-4.559,2.904-6.84c0.742-1.75,1.625-3.178,2.168-5.001
				c0.316-1.063,0.799-2.064,1.102-3.134c0.152-0.538,0.227-2.978,0.547-3.251c-2.297,1.963-5.313,3.063-8.334,3.042
				c-1.758-0.014-3.51-0.406-5.113-1.125c-1.336-0.6-2.604-2.096-4.063-2.164C25.199,51.982,27.33,57.893,29.922,64z"/>
			<g>
				<g>
					<path style="fill:#647C82;" d="M38.875,64c2.822-4.208,5.426-7.973,5.307-8.188c-0.004-0.006-2.963-5.298-2.963-5.298
						l4.031,0.433c-0.412-1.283-1.34-7.569-2.525-8.203l-2.277-1.833l-4.846,14.443L32.98,64H38.875z"/>
					<path style="fill:#728D96;" d="M20.145,55.812c-0.123,0.219,2.42,3.97,5.217,8.188h5.982l-2.621-8.646l-4.424-14.392
						L21.6,42.743c-1.186,0.634-2.113,6.92-2.525,8.203l4.031-0.433C23.105,50.514,20.146,55.806,20.145,55.812z"/>
				</g>
			</g>
			<path style="fill:#647C82;" d="M15.459,64c-0.213-2.377-0.523-4.744-0.465-7.139c0.096-3.925-0.111-7.863-0.768-11.743
				c-0.822,0.163-1.588,0.583-2.545,0.841c-6.875,1.85-7.076,6.521-7.574,11.473C3.879,59.711,4.188,61.809,3.803,64H15.459z"/>
		</g>
		<path style="fill:#7B371C;" d="M25.768,38.449c-0.135,0.472-0.279,1.039-0.641,1.378c-0.17,0.157-1.148,0.762-1.113,0.968
			c0.363,1.619,0.375,3.299,0.049,4.919c-0.291,1.391-0.799,2.779-2.176,3.407c-0.205,0.098-0.375,0.183-0.543,0.314
			c-0.074,0.049-0.135,0.109-0.207,0.17c-0.375,0.339-0.229,0.508-0.145,0.979c0.012,0.085,0.023,0.156,0.035,0.241
			c0.098,0.689,0.109,1.391,0.014,2.067c-0.072,0.592-0.219,1.173-0.387,1.74c-0.617,2.127-1.258,4.183-3.324,5.33
			c-1.342,0.75-3.131,1.173-3.602,2.623c-1.717-4.991,0.725-9.862,4.629-12.969c0.035-0.024,0.061-0.049,0.098-0.073
			c0.119-0.097,0.266-0.192,0.338-0.338c0.133-0.229,0.107-0.495,0.023-0.75c-0.049-0.156-0.121-0.326-0.193-0.471
			c-0.762-1.729-0.459-3.832,0.629-5.354c0.811-1.125,3.639-1.583,3.469-3.264c-0.037-0.424-0.314-0.786-0.531-1.159
			c-1.547-2.745,0.99-4.812,3.215-6.227c0.182-0.108,0.363-0.217,0.531-0.326c0.121,0.146,0.23,0.29,0.35,0.424
			C26.516,34.207,26.346,36.383,25.768,38.449z"/>
	</g>
	<path style="fill:#E6E7E8;" d="M21.137,49.605c-0.375,0.339-0.229,0.508-0.145,0.979c0.012,0.085,0.023,0.156,0.035,0.241
		c-0.773-0.387-1.775-0.857-2.67-1.208c0.035-0.024,0.061-0.049,0.098-0.073c0.119-0.097,0.266-0.192,0.338-0.338
		c0.133-0.229,0.107-0.495,0.023-0.75c0.678,0.17,1.656,0.496,2.527,0.979C21.27,49.484,21.209,49.545,21.137,49.605z"/>
</g>
</svg>
