<?xml version="1.0" encoding="iso-8859-1"?>
<!-- Generator: Adobe Illustrator 16.0.0, SVG Export Plug-In . SVG Version: 6.00 Build 0)  -->
<!DOCTYPE svg PUBLIC "-//W3C//DTD SVG 1.1//EN" "http://www.w3.org/Graphics/SVG/1.1/DTD/svg11.dtd">
<svg version="1.1" id="Layer_1" xmlns="http://www.w3.org/2000/svg" xmlns:xlink="http://www.w3.org/1999/xlink" x="0px" y="0px"
	 width="64px" height="64px" viewBox="0 0 64 64" style="enable-background:new 0 0 64 64;" xml:space="preserve">
<g>
	<path style="fill-rule:evenodd;clip-rule:evenodd;fill:#F2EFDC;" d="M61.637,56.209c-0.004-0.157-0.008-0.279-0.012-0.361
		c-0.363-7.553-2.206-8.605-10.543-8.243c-3,0.131-9.748-2.348-10.737-4.967c-0.747-1.983-0.757-5.114-0.296-7.173l-7.971,0.154
		l-7.974-0.154c0.461,2.059,0.428,5.181-0.295,7.173c-0.713,1.959-7.268,5.081-9.883,4.967c-8.47-0.366-10.239,0.726-10.56,8.604
		H61.637z"/>
	<path style="fill-rule:evenodd;clip-rule:evenodd;fill:#14B0BF;" d="M63.422,64c-0.001-0.887-0.012-9.328-0.035-9.604
		c-0.586-6.238-2.87-7.129-11.201-6.792c-2.873,0.116-8.591-1.74-10.77-3.585l-9.5,7.706l-9.397-7.689
		c-2.154,1.818-7.781,3.687-10.689,3.568c-8.33-0.337-10.615,0.554-11.2,6.792C0.604,54.668,0.587,63.11,0.578,64H63.422z"/>
	<g>
		<path style="fill-rule:evenodd;clip-rule:evenodd;fill:#F2EFDC;" d="M22.773,29.174l0.46-5.499
			c-0.815-0.803-1.402-1.332-1.828-1.993c-1.167-1.814-1.902-2.231-2.613-1.702c-0.287,0.215-0.389,0.895-0.22,1.749
			c0.293,1.493,1.235,3.72,1.533,5.027C20.343,27.808,21.719,31.411,22.773,29.174z"/>
		<path style="fill-rule:evenodd;clip-rule:evenodd;fill:#F2EFDC;" d="M41.213,29.174l-0.461-5.499
			c0.816-0.803,1.404-1.332,1.828-1.993c1.167-1.814,1.902-2.231,2.613-1.702c0.289,0.215,0.389,0.895,0.221,1.749
			c-0.293,1.493-1.236,3.72-1.532,5.027C43.645,27.808,42.27,31.411,41.213,29.174z"/>
	</g>
	<path style="fill-rule:evenodd;clip-rule:evenodd;fill:#DCD9C8;" d="M23.436,43.239c3.004-1.285,6.472-1.555,9.198-1.958
		c1.53-0.227,2.424-0.499,3.616-1.441c0.943-0.745,2.137-2.387,3.598-3.429c0.052-0.432,0.119-0.571,0.201-0.946l-7.971,0.154
		l-7.974-0.154C24.313,36.398,24.915,40.88,23.436,43.239z"/>
	<path style="fill-rule:evenodd;clip-rule:evenodd;fill:#F2EFDC;" d="M28.18,39.049c-5.898-2.685-7.545-10.231-7.817-15.19
		c-0.104-1.958,0.748-3.927,0.681-6.139c-0.065-2.161-0.126-3.95,0.139-5.47c1.002-5.75,8.298-7.477,13.099-6.766
		c7.877,1.166,8.879,5.332,8.682,12.18c-0.063,2.207,0.795,4.166,0.691,6.118c-0.268,4.97-2.402,13.073-8.396,15.427
		c-0.676,0.295-1.852,1.056-3.171,1.066C30.734,40.287,28.867,39.34,28.18,39.049z"/>
	<path style="fill-rule:evenodd;clip-rule:evenodd;fill:#0D2F3B;" d="M18.23,8.77C17.732,3.046,28.484-3.504,34.607,2.194
		c9.851-0.774,11.081,12.044,8.801,18.751c-0.142-2.834-1.885-10.646-1.518-4.737c-1.172-4.264-2.459-7.115-7.926-7.554
		c-6.063,3.468-12.3,8.088-12.972,15.396c-1.295-2.909-4.624-10.624-1.748-15.954C19.688,7.273,19.793,6.926,18.23,8.77z"/>
</g>
</svg>
