<?xml version="1.0" encoding="iso-8859-1"?>
<!-- Generator: Adobe Illustrator 16.0.0, SVG Export Plug-In . SVG Version: 6.00 Build 0)  -->
<!DOCTYPE svg PUBLIC "-//W3C//DTD SVG 1.1//EN" "http://www.w3.org/Graphics/SVG/1.1/DTD/svg11.dtd">
<svg version="1.1" id="Layer_1" xmlns="http://www.w3.org/2000/svg" xmlns:xlink="http://www.w3.org/1999/xlink" x="0px" y="0px"
	 width="64px" height="64px" viewBox="0 0 64 64" style="enable-background:new 0 0 64 64;" xml:space="preserve">
<g>
	<g>
		<path style="fill:#774E3E;" d="M32,2.129L32,2.129L32,2.129c6.652,0,12.044,5.365,12.044,11.983c0,3.218-0.949,5.483-1.512,5.641
			c-1.785,0.502-5.475-7.707-10.532-7.707H32l0,0c-5.058,0-8.747,8.209-10.533,7.707c-0.563-0.157-1.513-2.423-1.513-5.641
			C19.954,7.494,25.347,2.129,32,2.129z"/>
		<g>
			<path style="fill:#F9D5BE;" d="M9.037,45.649c0.255-4.827,7.306-5.779,12.769-6.669c2.921-0.476,3.837-3.509,4.063-6.231
				c1.852,1.717,4.238,3.468,6.132,3.468c1.872,0,4.269-1.759,6.129-3.479c0.226,2.727,1.141,5.768,4.064,6.243
				c5.463,0.89,12.515,1.842,12.769,6.669C55.217,50.478,55.09,64,55.09,64H32.286h-0.571H8.911C8.911,64,8.783,50.478,9.037,45.649
				z"/>
			<path style="fill:#F9D5BE;" d="M25.869,32.749c0.038-0.454,0.063-0.903,0.068-1.328h12.125c0.006,0.421,0.03,0.865,0.067,1.316
				c-1.86,1.721-4.258,3.479-6.129,3.479C30.107,36.217,27.72,34.466,25.869,32.749z"/>
			<path style="opacity:0.35;fill:#C69E89;" d="M25.869,32.749c0.038-0.454,0.063-0.903,0.068-1.328h12.125
				c0.006,0.421,0.03,0.865,0.067,1.316c-1.86,1.721-4.258,3.479-6.129,3.479C30.107,36.217,27.72,34.466,25.869,32.749z"/>
		</g>
		<path style="fill:#F9D5BE;" d="M19.83,18.144c0.603-0.209,1.155,0.141,1.587,0.602c-0.021-0.599-0.016-1.056,0.003-1.299
			c0-7.152,5.614-11.216,10.581-11.225c4.965,0.009,10.58,4.072,10.58,11.225c0.019,0.243,0.023,0.7,0.004,1.299
			c0.431-0.461,0.983-0.811,1.586-0.602c0.962,0.335,0.485,6.19-2.321,7.24c-0.086,0.032-0.152,0.039-0.229,0.06
			c-0.364,1.353-0.853,2.668-1.513,3.754c-0.762,1.254-5.17,6.159-8.106,6.159c-2.978,0-7.345-4.905-8.107-6.159
			c-0.66-1.086-1.147-2.401-1.513-3.754c-0.076-0.021-0.144-0.027-0.229-0.06C19.344,24.334,18.869,18.479,19.83,18.144z"/>
		<path style="fill:#774E3E;" d="M31.662,3.509c9.31,0,12.708,6.766,12.382,12.279c-0.146,2.479-1.214,5.739-1.214,5.739
			c-0.12,0.166-0.573,0.063-0.525-0.233c0.812-5.039-1.623-8.837-2.841-10.119c-2.007-1.79-3.741-2.663-7.588-2.663
			c-3.718,0-7.241,1.511-9.253,5.406c-0.944,2.158-1.365,4.902-0.968,7.376c0.049,0.297-0.413,0.399-0.534,0.233
			c0,0-1.163-3.724-1.167-6.206C19.951,12.862,21.094,3.509,31.662,3.509z"/>
	</g>
	<path style="fill:#AD4A47;" d="M9.037,45.649c0.255-4.827,7.306-5.779,12.769-6.669c1.822-0.297,2.864-1.59,3.445-3.182
		c1.211,0.968,4.453,2.344,6.75,2.344c2.353,0,5.393-1.25,6.75-2.344c0.58,1.592,1.622,2.885,3.444,3.182
		c5.463,0.89,12.515,1.842,12.769,6.669C55.217,50.478,55.09,64,55.09,64H32.286h-0.571H8.911C8.911,64,8.783,50.478,9.037,45.649z"
		/>
	<g>
		<path style="fill:#FEE960;" d="M20.259,8.736c0-4.045,4.059-3.533,9.063-3.533h5.375c5.005,0,9.063-0.512,9.063,3.533l0.862,5.387
			c0,4.044-4.921,5.725-9.926,5.725h-5.375c-5.005,0-9.667-2.127-9.667-6.171L20.259,8.736z"/>
		<path style="fill:#F7D62C;" d="M43.085,9.364c0,4.941-4.958,6.174-11.075,6.174c-6.117,0-11.076-1.232-11.076-6.174
			s4.959-8.948,11.076-8.948C38.127,0.416,43.085,4.423,43.085,9.364z"/>
		<rect x="27.932" y="0.74" style="fill:#FEE960;" width="8.156" height="12.937"/>
		<rect x="27.932" style="fill:#FEE960;" width="8.156" height="12.937"/>
	</g>
	<g>
		<path style="fill:#F7D62C;" d="M30.612,47.101l-8.807-8.12c-8.539,1.228-9.948,2.609-9.948,2.609
			C17.438,44.933,18.369,64,18.369,64h12.243V47.101z"/>
		<path style="fill:#F7D62C;" d="M42.194,38.98l-8.525,7.862V64h11.962c0,0,0.931-19.067,6.512-22.41
			C52.143,41.59,50.733,40.208,42.194,38.98z"/>
	</g>
	<rect x="35.76" y="50.362" style="fill:#FEE960;" width="8.863" height="12.627"/>
	<rect x="19.656" y="50.362" style="fill:#FEE960;" width="8.863" height="12.627"/>
</g>
</svg>
