<?xml version="1.0" encoding="iso-8859-1"?>
<!-- Generator: Adobe Illustrator 16.0.0, SVG Export Plug-In . SVG Version: 6.00 Build 0)  -->
<!DOCTYPE svg PUBLIC "-//W3C//DTD SVG 1.1//EN" "http://www.w3.org/Graphics/SVG/1.1/DTD/svg11.dtd">
<svg version="1.1" id="Layer_1" xmlns="http://www.w3.org/2000/svg" xmlns:xlink="http://www.w3.org/1999/xlink" x="0px" y="0px"
	 width="64px" height="64px" viewBox="0 0 64 64" style="enable-background:new 0 0 64 64;" xml:space="preserve">
<g id="_x31_3">
	<g>
		<g>
			<g>
				<path style="fill:#F0D09F;" d="M21.676,22.813c0.111-0.597-0.253-1.605-0.475-2.153c-0.066-0.164-0.141-0.346-0.232-0.518
					c-0.139-0.26-0.32-0.494-0.59-0.603c-1.148-0.463-2.233,1.128-2.328,2.089c-0.022,0.23-0.022,0.471-0.008,0.715
					c0.016,0.502,0.129,0.982,0.292,1.443c0.081,0.231,0.175,0.458,0.277,0.684c1.134,1.524,1.134,4.811,3.597,3.167
					c0.822-0.821,0-3.284-0.535-4.107C21.634,23.306,21.629,23.069,21.676,22.813z"/>
			</g>
			<g>
				<path style="fill:#E2B477;" d="M43.623,19.54c-0.269,0.108-0.451,0.343-0.59,0.603c-0.092,0.172-0.164,0.354-0.23,0.518
					c-0.223,0.548-0.588,1.557-0.477,2.153c0.049,0.256,0.043,0.493,0.004,0.717c-0.537,0.823-1.357,3.286-0.537,4.107
					c2.464,1.644,2.464-1.643,3.598-3.167c0.103-0.226,0.196-0.452,0.277-0.684c0.162-0.461,0.276-0.941,0.291-1.443
					c0.016-0.244,0.016-0.484-0.008-0.715C45.857,20.667,44.771,19.077,43.623,19.54z"/>
			</g>
		</g>
		<g>
			<g>
				<path style="fill:#D2A965;" d="M39.105,34.397c-0.011,0.012-0.023,0.022-0.035,0.032c-0.242,0.258-0.492,0.518-0.757,0.774
					c-1.587,1.538-3.531,2.963-5.491,3.31c-0.139,0.024-0.48,0.036-0.82,0.036c-0.219,0-0.43-0.005-0.595-0.016v12.741
					c0.134-0.009,0.261-0.008,0.403-0.028c0.073,0.01,0.338,0.01,0.411,0c4.174,0.573,4.218-3.807,7.432-7.48
					c-0.272-1.836-0.516-3.754-0.718-5.748C38.755,36.25,39.088,35.796,39.105,34.397z"/>
			</g>
			<g>
				<path style="fill:#E2B477;" d="M25.607,35.126c-0.236-0.232-0.459-0.467-0.68-0.7c-0.009-0.01-0.02-0.019-0.029-0.028
					c-0.1,1.656,0.255,1.853,0.075,3.621c-0.202,1.994-0.445,3.912-0.718,5.748c3.104,3.548,3.377,7.741,7.151,7.509V38.534
					c-0.093-0.005-0.176-0.012-0.226-0.021C29.187,38.161,27.209,36.693,25.607,35.126z"/>
			</g>
			<g>
				<path style="fill:#F0D09F;" d="M20.725,14.412c-0.111,0.643-0.176,1.307-0.191,1.986c-0.322,2.335,0.268,8.913,0.27,9.051
					c0.059,2.963,1.325,5.73,3.229,7.978c0.273,0.324,0.578,0.66,0.896,0.999c0.221,0.233,0.443,0.468,0.68,0.7
					c1.602,1.567,3.579,3.035,5.574,3.388c0.05,0.009,0.133,0.016,0.226,0.021V7.073C24.838,7.502,21.66,8.958,20.725,14.412z"/>
			</g>
			<g>
				<path style="fill:#E2B477;" d="M43.279,14.412c-0.965-5.618-4.297-6.996-11.277-7.379c-0.205,0.012-0.396,0.027-0.595,0.04
					v31.461c0.165,0.011,0.376,0.016,0.595,0.016c0.34,0,0.682-0.012,0.82-0.036c1.96-0.347,3.904-1.771,5.491-3.31
					c0.265-0.257,0.515-0.517,0.757-0.774c0.32-0.34,0.627-0.678,0.902-1.003c1.902-2.248,3.168-5.015,3.227-7.978
					c0.003-0.138,0.593-6.716,0.271-9.051C43.454,15.718,43.389,15.054,43.279,14.412z"/>
			</g>
		</g>
		<g>
			<g>
				<path style="fill:#A4D7E7;" d="M31.973,63.796l-0.006-13.978c0,0-1.913,4.098-4.105,3.006l-3.385-8.45l-2.98,1.371l-3.465,1.602
					l-1.068,0.328l-2.833,0.887l-7.202,2.234c-0.813,0.254-1.544,0.706-2.127,1.322L2.033,55.05
					c-0.648,0.689-1.092,1.544-1.264,2.479C0.588,58.501,0.323,62.047,0,63.796H31.973z"/>
			</g>
			<g>
				<path style="fill:#A4D7E7;" d="M31.973,63.796l-0.006-13.978c0,0-4.722,0.607-5.766,1.908l-1.725-7.353l-2.98,1.371
					l-3.465,1.602l-1.068,0.328c0.446,3.245,1.417,10.879,3.317,16.121H31.973z"/>
			</g>
			<g>
				<path style="fill:#0D99A8;" d="M14.6,55.351c0.016,0.41,0.024,0.822,0.033,1.249c0.017,1.142,0.017,4.462,0.008,5.702
					c0,0.49-0.006,0.992-0.012,1.494h11.93c-0.359-0.526-0.701-1.072-1.012-1.659c-1.133-2.11-1.979-6.654-2.611-9.028
					c-0.271-1.019-0.51-2.028-0.699-2.997c-0.09-0.394-0.164-0.788-0.229-1.166c-0.222-1.175-0.386-2.267-0.509-3.202l-2.078,0.961
					l-1.388,0.64l-3.9,1.216c0.131,0.871,0.229,1.896,0.312,3.038C14.518,52.731,14.575,53.996,14.6,55.351z"/>
			</g>
			<g>
				<path style="fill:#FFFFFF;" d="M24.426,42.581l-3.989,3.471c0.749,1.483,1.699,3.133,2.907,4.854
					c1.576,2.244,3.201,4.054,4.654,5.475c0,0,1.096-4.379,3.969-6.56C27.587,48.323,24.426,42.581,24.426,42.581z"/>
			</g>
		</g>
		<g>
			<g>
				<path style="fill:#7BC2D6;" d="M64,63.796c-0.323-1.749-0.588-5.295-0.77-6.267c-0.172-0.936-0.615-1.79-1.264-2.479
					l-2.768-2.932c-0.583-0.616-1.314-1.068-2.127-1.322l-7.202-2.234l-2.833-0.887l-1.068-0.328l-3.465-1.602l-2.981-1.371
					l-3.384,8.45c-2.192,1.092-4.105-3.006-4.105-3.006l-0.006,13.978H64z"/>
			</g>
			<g>
				<path style="fill:#7BC2D6;" d="M43.72,63.796c1.899-5.242,2.871-12.876,3.317-16.121l-1.068-0.328l-3.465-1.602l-2.981-1.371
					l-1.724,7.353c-1.045-1.301-5.766-1.908-5.766-1.908l-0.006,13.978H43.72z"/>
			</g>
			<g>
				<path style="fill:#0D8B91;" d="M49.373,63.796c-0.008-0.621-0.016-1.244-0.02-1.848c0-1.248,0.008-4.569,0.025-5.71
					c0-0.074,0-0.148,0.008-0.214c0.017-1.33,0.066-2.578,0.131-3.721c0.083-1.429,0.197-2.693,0.354-3.744l-3.9-1.216l-0.879-0.402
					l-2.587-1.198c-0.147,1.133-0.361,2.488-0.648,3.958l-0.009,0.008c-0.188,0.97-0.418,1.995-0.682,3.03
					c-0.615,2.373-1.445,6.951-2.554,9.103c-0.356,0.692-0.751,1.341-1.171,1.954H49.373z"/>
			</g>
			<g>
				<path style="fill:#D1D3D4;" d="M31.967,49.82c2.875,2.181,3.97,6.56,3.97,6.56c1.452-1.421,3.077-3.23,4.653-5.475
					c1.209-1.721,2.159-3.37,2.908-4.854l-3.971-3.471C39.527,42.581,36.348,48.323,31.967,49.82z"/>
			</g>
		</g>
		<g>
			<path style="fill:#636363;" d="M42.505,45.743c-0.147,1.133-0.361,2.488-0.648,3.958l3.235-2.76L42.505,45.743z"/>
			<path style="fill:#636363;" d="M42.742,63.796l4.411-5.874l2.2,4.026c0-1.248,0.008-4.569,0.025-5.71l-0.123-0.107l0.131-0.106
				c0.017-1.33,0.066-2.578,0.131-3.721l-2.356,2.013l-5.313-4.607c-0.188,0.97-0.418,1.995-0.682,3.03l3.893,3.375l-5.346,6.68
				l-1.101-0.952c-0.356,0.692-0.751,1.341-1.171,1.954H42.742z"/>
			<path style="fill:#636363;" d="M15.339,55.991L14.633,56.6c0.017,1.142,0.017,4.462,0.008,5.702l2.793-4.496l4.47,5.99h4.655
				c-0.359-0.526-0.701-1.072-1.012-1.659l-0.698,0.592l-5.313-6.721l3.4-2.899c-0.271-1.019-0.51-2.027-0.699-2.997L17.441,54.2
				l-2.998-2.603c0.074,1.134,0.132,2.398,0.156,3.753L15.339,55.991z"/>
		</g>
		<g>
			<path style="fill:#894E3A;" d="M20.555,5.557C17.842,8.726,18.039,12.07,18.867,16c0.219,1.041,0.798,4.776,1.569,7.771
				c0.116,0.453,0.703,0.109,0.999,0.153c0.391-1.222-0.012-6.946,0.293-8.519c0.291-1.504,0.628-4.219,1.855-5.198
				c0.91-0.727,2.137-0.94,3.299-0.895c1.164,0.045,2.304,0.322,3.459,0.471c0.431,0.056,0.879,0.048,1.34,0.003v-8.76
				c-0.506,0.029-1.01,0.066-1.512,0.116C26.549,1.504,22.973,2.732,20.555,5.557z"/>
		</g>
		<g>
			<path style="fill:#7B371C;" d="M42.49,0.211c-3.518,0.858-7.188,0.612-10.809,0.815v8.76c2.172-0.205,4.586-1.246,6.531-0.599
				c2.183,0.726,3.375,4.868,3.861,6.88c0.577,2.385,0.38,4.725,0.457,7.166c0.35-0.055,0.697-0.111,1.047-0.166
				c0.617-3.42,2.604-6.331,2.768-10c0.033-0.735,0.011-1.47-0.058-2.199C46.193,9.869,43.777-0.102,42.49,0.211z"/>
		</g>
	</g>
	<g>
		<g>
			<path style="fill:#4C4B4B;" d="M20.333,19.958c-0.316,0.385-0.003,0.945-0.001,0.948c0.011,0.019,0.25,0.079,0.279,0.093
				c0.23,0.105,0.599,0.284,0.709,0.51c0.115,0.236,0.08,0.621,0.119,0.882c0.074,0.486,0.166,0.977,0.327,1.446
				c0.21,0.605,0.604,1.28,1.208,1.639c1.258,0.746,3.902,0.647,5.214,0.324c1.448-0.449,2.677-3.113,2.813-3.938
				c0.096-0.506,0.686-0.619,1.035-0.643v-0.854c-0.288-0.009-0.782-0.036-1.309-0.109C25.157,17.852,20.389,19.892,20.333,19.958z
				 M25.742,25.625c-0.979-0.106-2.267-0.305-2.917-1.058c-0.273-0.317-0.428-0.699-0.542-1.084
				c-0.197-0.662-0.387-1.671-0.099-2.425c0.089-0.233,0.224-0.441,0.417-0.608c0.771-0.662,2.095-0.712,3.083-0.686
				c2.259,0.059,4.435,0.325,4.606,1.926C30.236,22.637,29.387,26.023,25.742,25.625z"/>
		</g>
		<g>
			<path style="fill:#373434;" d="M33.4,20.256c-0.543,0.076-1.053,0.102-1.336,0.11c-0.009,0-0.02-0.001-0.027-0.001v0.854
				c0.008,0,0.019-0.001,0.027-0.001c0.344,0.019,0.965,0.125,1.063,0.644c0.137,0.824,1.365,3.488,2.813,3.938
				c1.312,0.323,3.957,0.422,5.215-0.324c0.604-0.358,0.998-1.033,1.207-1.639c0.162-0.47,0.253-0.96,0.327-1.446
				c0.04-0.261,0.005-0.646,0.12-0.882c0.109-0.226,0.479-0.404,0.709-0.51c0.029-0.014,0.269-0.074,0.279-0.093
				c0.001-0.003,0.315-0.563-0.002-0.948C43.74,19.892,38.972,17.852,33.4,20.256z M41.846,23.483
				c-0.114,0.385-0.269,0.767-0.542,1.084c-0.65,0.753-1.938,0.951-2.917,1.058c-3.645,0.398-4.495-2.987-4.549-3.935
				c0.172-1.601,2.348-1.867,4.606-1.926c0.988-0.026,2.312,0.023,3.082,0.686c0.194,0.167,0.329,0.375,0.418,0.608
				C42.231,21.812,42.043,22.821,41.846,23.483z"/>
		</g>
	</g>
</g>
</svg>
