<?xml version="1.0" encoding="iso-8859-1"?>
<!-- Generator: Adobe Illustrator 16.0.0, SVG Export Plug-In . SVG Version: 6.00 Build 0)  -->
<!DOCTYPE svg PUBLIC "-//W3C//DTD SVG 1.1//EN" "http://www.w3.org/Graphics/SVG/1.1/DTD/svg11.dtd">
<svg version="1.1" id="Layer_1" xmlns="http://www.w3.org/2000/svg" xmlns:xlink="http://www.w3.org/1999/xlink" x="0px" y="0px"
	 width="64px" height="64px" viewBox="0 0 64 64" style="enable-background:new 0 0 64 64;" xml:space="preserve">
<g>
	<g>
		<g>
			<path style="fill:#3A3E42;" d="M55.891,25.791c-0.031-0.438-5.293,3.285-7.194-9.882C47.18,5.404,43.16,0.217,32.266,0.019V0
				C32.174,0,32.092,0.009,32,0.009C31.909,0.009,31.827,0,31.735,0v0.019C20.841,0.217,16.822,5.404,15.305,15.909
				c-1.9,13.167-7.161,9.444-7.195,9.882c-0.509,6.7,9.112,11.342,23.891,9.882C46.78,37.133,56.399,32.491,55.891,25.791z"/>
		</g>
		<g>
			<path style="fill:#FFFFFF;" d="M54.213,45.003c-1.994-1.993-7.09-5.316-14.351-7.236c-1.423-1.479-2.723-3.664-2.723-6.738
				v-0.514H26.86v0.514c0,3.08-1.271,5.255-2.679,6.727c-7.283,1.917-12.396,5.25-14.394,7.248
				c-3.661,3.661-2.36,13.083-2.36,18.604h49.146C56.573,58.086,57.873,48.664,54.213,45.003z"/>
			<path style="fill:#E3C7AA;" d="M56.966,64H7.035v-0.393c0-1.067-0.05-2.289-0.102-3.582c-0.22-5.449-0.493-12.23,2.576-15.301
				c1.764-1.764,6.788-5.28,14.464-7.321c1.655-1.769,2.494-3.913,2.494-6.375v-0.907h11.064v0.907c0,2.452,0.854,4.601,2.538,6.387
				c7.654,2.045,12.663,5.552,14.421,7.31c3.069,3.07,2.796,9.852,2.576,15.301c-0.053,1.293-0.102,2.515-0.102,3.582V64z"/>
		</g>
		<g>
			<path style="fill:#3A3E42;" d="M46.646,15.354C45.219,4.85,41.8,0.564,31.748,0.564c-8.287,0-12.972,4.285-14.398,14.789
				c-1.788,13.166,7.946-3.789,14.647-3.789C39.006,11.564,48.433,28.52,46.646,15.354z"/>
		</g>
		<g>
			<path style="fill:#FFE5CB;" d="M45.09,19.057c0.006-0.168,0.012-0.337,0.012-0.504c0-7.948-5.867-12.335-13.105-12.335
				s-13.105,4.387-13.105,12.335c0,0.168,0.006,0.338,0.012,0.508c-0.745,0.33-1.293,1.352-1.293,2.575
				c0,1.49,0.806,2.698,1.799,2.698c0.144,0,0.282-0.031,0.416-0.08c1.931,6.016,6.651,11.26,12.172,11.26
				c5.521,0,10.242-5.246,12.173-11.262c0.135,0.049,0.275,0.082,0.422,0.082c0.994,0,1.8-1.208,1.8-2.698
				C46.391,20.408,45.839,19.383,45.09,19.057z"/>
			<path style="fill:#E3C7AA;" d="M31.996,35.906c-5.951,0-10.569-5.733-12.432-11.188c-1.3,0.157-2.348-1.275-2.349-3.083
				c0-1.228,0.508-2.314,1.286-2.806c-0.003-0.103-0.005-0.19-0.005-0.277c0-7.613,5.425-12.729,13.499-12.729
				s13.498,5.115,13.498,12.729c0,0.09-0.001,0.182-0.003,0.272c0.782,0.488,1.293,1.576,1.293,2.811c0,1.81-1.04,3.248-2.356,3.082
				C42.565,30.172,37.947,35.906,31.996,35.906z M20.074,23.746l0.125,0.388c1.697,5.292,6.114,10.986,11.797,10.986
				c5.684,0,10.1-5.696,11.799-10.988l0.124-0.389l0.384,0.14c0.111,0.039,0.203,0.059,0.288,0.059c0.763,0,1.407-1.056,1.407-2.306
				c0-1.033-0.438-1.946-1.064-2.218l-0.245-0.106l0.009-0.269c0.006-0.163,0.012-0.328,0.012-0.49
				c0-8.25-6.385-11.942-12.713-11.942s-12.713,3.692-12.713,11.942c0,0.139,0.005,0.278,0.009,0.418l0.009,0.265l-0.239,0.185
				c-0.624,0.275-1.06,1.188-1.06,2.216c0,1.25,0.644,2.306,1.406,2.306c0.084,0,0.175-0.019,0.283-0.058L20.074,23.746z"/>
		</g>
		<g>
			<g>
				<path style="fill:#3A3E42;" d="M31.415,1.98c0.201,0,0.389,0.015,0.585,0.018c0.196-0.003,0.385-0.018,0.585-0.018H31.415z"/>
			</g>
			<g>
				<path style="fill:#3A3E42;" d="M32,1.998C16.496,2.39,15.925,18.051,15.925,18.051S29.065,19.931,32,12.31
					c2.936,7.621,16.076,5.741,16.076,5.741S47.505,2.39,32,1.998z"/>
			</g>
		</g>
		<g>
			<path style="fill:#339ECC;" d="M46.111,50.587l0.57-10.3c-1.034-0.469-1.401-0.921-2.592-1.343l-1.821,10.274
				c0,0-3.489-0.501-6.095,0.374c-2.265,0.759-3.563,1.695-4.174,2.226c-0.609-0.53-1.908-1.467-4.173-2.226
				c-2.605-0.875-6.095-0.374-6.095-0.374L19.91,38.944c-1.19,0.422-1.558,0.874-2.591,1.343l0.57,10.3
				c-3.522,4.247-1.373,13.021-1.373,13.021h30.968C47.484,63.607,49.634,54.834,46.111,50.587z"/>
		</g>
	</g>
	<g>
		<g>
			<path style="fill:#3A3E42;" d="M55.891,25.791c-0.031-0.438-5.293,3.285-7.194-9.882C47.18,5.404,43.16,0.217,32.266,0.019V0
				C32.174,0,32.092,0.009,32,0.009C31.909,0.009,31.827,0,31.735,0v0.019C20.841,0.217,16.822,5.404,15.305,15.909
				c-1.9,13.167-7.161,9.444-7.195,9.882c-0.509,6.7,9.112,11.342,23.891,9.882C46.78,37.133,56.399,32.491,55.891,25.791z"/>
		</g>
		<g>
			<path style="fill:#FFFFFF;" d="M54.213,45.003c-1.994-1.993-7.09-5.316-14.351-7.236c-1.423-1.479-2.723-3.664-2.723-6.738
				v-0.514H26.86v0.514c0,3.08-1.271,5.255-2.679,6.727c-7.283,1.917-12.396,5.25-14.394,7.248
				c-3.661,3.661-2.36,13.083-2.36,18.604h49.146C56.573,58.086,57.873,48.664,54.213,45.003z"/>
			<path style="fill:#E3C7AA;" d="M56.966,64H7.035v-0.393c0-1.067-0.05-2.289-0.102-3.582c-0.22-5.449-0.493-12.23,2.576-15.301
				c1.764-1.764,6.788-5.28,14.464-7.321c1.655-1.769,2.494-3.913,2.494-6.375v-0.907h11.064v0.907c0,2.452,0.854,4.601,2.538,6.387
				c7.654,2.045,12.663,5.552,14.421,7.31c3.069,3.07,2.796,9.852,2.576,15.301c-0.053,1.293-0.102,2.515-0.102,3.582V64z"/>
		</g>
		<g>
			<path style="fill:#3A3E42;" d="M46.646,15.354C45.219,4.85,41.8,0.564,31.748,0.564c-8.287,0-12.972,4.285-14.398,14.789
				c-1.788,13.166,7.946-3.789,14.647-3.789C39.006,11.564,48.433,28.52,46.646,15.354z"/>
		</g>
		<g>
			<path style="fill:#FFE5CB;" d="M45.09,19.057c0.006-0.168,0.012-0.337,0.012-0.504c0-7.948-5.867-12.335-13.105-12.335
				s-13.105,4.387-13.105,12.335c0,0.168,0.006,0.338,0.012,0.508c-0.745,0.33-1.293,1.352-1.293,2.575
				c0,1.49,0.806,2.698,1.799,2.698c0.144,0,0.282-0.031,0.416-0.08c1.931,6.016,6.651,11.26,12.172,11.26
				c5.521,0,10.242-5.246,12.173-11.262c0.135,0.049,0.275,0.082,0.422,0.082c0.994,0,1.8-1.208,1.8-2.698
				C46.391,20.408,45.839,19.383,45.09,19.057z"/>
			<path style="fill:#E3C7AA;" d="M31.996,35.906c-5.951,0-10.569-5.733-12.432-11.188c-1.3,0.157-2.348-1.275-2.349-3.083
				c0-1.228,0.508-2.314,1.286-2.806c-0.003-0.103-0.005-0.19-0.005-0.277c0-7.613,5.425-12.729,13.499-12.729
				s13.498,5.115,13.498,12.729c0,0.09-0.001,0.182-0.003,0.272c0.782,0.488,1.293,1.576,1.293,2.811c0,1.81-1.04,3.248-2.356,3.082
				C42.565,30.172,37.947,35.906,31.996,35.906z M20.074,23.746l0.125,0.388c1.697,5.292,6.114,10.986,11.797,10.986
				c5.684,0,10.1-5.696,11.799-10.988l0.124-0.389l0.384,0.14c0.111,0.039,0.203,0.059,0.288,0.059c0.763,0,1.407-1.056,1.407-2.306
				c0-1.033-0.438-1.946-1.064-2.218l-0.245-0.106l0.009-0.269c0.006-0.163,0.012-0.328,0.012-0.49
				c0-8.25-6.385-11.942-12.713-11.942s-12.713,3.692-12.713,11.942c0,0.139,0.005,0.278,0.009,0.418l0.009,0.265l-0.239,0.185
				c-0.624,0.275-1.06,1.188-1.06,2.216c0,1.25,0.644,2.306,1.406,2.306c0.084,0,0.175-0.019,0.283-0.058L20.074,23.746z"/>
		</g>
		<g>
			<g>
				<path style="fill:#3A3E42;" d="M31.415,1.98c0.201,0,0.389,0.015,0.585,0.018c0.196-0.003,0.385-0.018,0.585-0.018H31.415z"/>
			</g>
			<g>
				<path style="fill:#3A3E42;" d="M32,1.998C16.496,2.39,15.925,18.051,15.925,18.051S29.065,19.931,32,12.31
					c2.936,7.621,16.076,5.741,16.076,5.741S47.505,2.39,32,1.998z"/>
			</g>
		</g>
		<g>
			<path style="fill:#339ECC;" d="M46.111,50.587l0.57-10.3c-1.034-0.469-1.401-0.921-2.592-1.343l-1.821,10.274
				c0,0-3.489-0.501-6.095,0.374c-2.265,0.759-3.563,1.695-4.174,2.226c-0.609-0.53-1.908-1.467-4.173-2.226
				c-2.605-0.875-6.095-0.374-6.095-0.374L19.91,38.944c-1.19,0.422-1.558,0.874-2.591,1.343l0.57,10.3
				c-3.522,4.247-1.373,13.021-1.373,13.021h30.968C47.484,63.607,49.634,54.834,46.111,50.587z"/>
		</g>
	</g>
</g>
</svg>
