<?xml version="1.0" encoding="iso-8859-1"?>
<!-- Generator: Adobe Illustrator 16.0.0, SVG Export Plug-In . SVG Version: 6.00 Build 0)  -->
<!DOCTYPE svg PUBLIC "-//W3C//DTD SVG 1.1//EN" "http://www.w3.org/Graphics/SVG/1.1/DTD/svg11.dtd">
<svg version="1.1" id="Layer_1" xmlns="http://www.w3.org/2000/svg" xmlns:xlink="http://www.w3.org/1999/xlink" x="0px" y="0px"
	 width="64px" height="64px" viewBox="0 0 64 64" style="enable-background:new 0 0 64 64;" xml:space="preserve">
<g>
	<g>
		<g>
			<path style="fill:#FF8B26;" d="M51.446,33.036c0,0-5.397-3.289-3.364-15.961c1.122-6.998-0.526-13.773-5.355-15.73
				c-3.375-1.365-5.749-0.197-6.81,0.404c-1.061-0.602-6.379-2.756-11.119-1.188c-7.513,2.486-10.004,9.516-8.881,16.514
				c2.034,12.672-3.364,15.961-3.364,15.961H51.446z"/>
		</g>
		<g>
			<g>
				<path style="fill:#E3C7AA;" d="M32.834,61.273h-1.67L19.345,39.05l0.613-0.236c0.272-0.105,6.656-2.662,6.656-9.73v-0.537h10.77
					v0.537c0,7.088,6.589,9.705,6.655,9.73l0.614,0.236L32.834,61.273z"/>
				<path style="fill:#E3C7AA;" d="M31.412,60.862h1.174l11.485-21.596l-0.181-0.068c-0.068-0.027-6.918-2.754-6.918-10.115v-0.127
					h-9.946v0.127c0,7.355-6.637,10.006-6.919,10.115l-0.182,0.068L31.412,60.862z"/>
			</g>
		</g>
		<g>
			<path style="fill:#3362A3;" d="M55.904,44.509c-2.123-2.122-4.843-4.35-12.64-6.346L31.998,57.232L20.938,38.163
				c-7.799,1.996-10.721,4.224-12.843,6.346C4.26,48.345,5.623,58.216,5.623,64.001h52.754
				C58.377,58.216,59.738,48.345,55.904,44.509z"/>
		</g>
		<g>
			<path style="fill:#FFE5CB;" d="M45.714,18.304c0.006-0.176,0.012-0.354,0.012-0.527c0-8.328-6.146-12.924-13.73-12.924
				c-7.583,0-13.73,4.596-13.73,12.924c0,0.176,0.006,0.354,0.012,0.531c-0.779,0.346-1.355,1.416-1.355,2.699
				c0,1.561,0.845,2.828,1.885,2.828c0.152,0,0.296-0.035,0.437-0.086c2.022,6.303,6.969,11.797,12.753,11.797
				c5.785,0,10.73-5.496,12.753-11.799c0.143,0.051,0.289,0.088,0.443,0.088c1.041,0,1.886-1.268,1.886-2.828
				C47.077,19.72,46.498,18.646,45.714,18.304z"/>
			<path style="fill:#E3C7AA;" d="M31.995,35.958c-6.235,0-11.073-6.006-13.025-11.723c-1.368,0.156-2.461-1.334-2.461-3.229
				c0-1.287,0.532-2.426,1.349-2.941c-0.003-0.096-0.005-0.193-0.005-0.289c0-7.977,5.684-13.336,14.143-13.336
				S46.138,9.8,46.138,17.776c0,0.094-0.002,0.189-0.004,0.285c0.82,0.512,1.354,1.652,1.354,2.945c0,1.896-1.103,3.404-2.469,3.229
				C43.068,29.952,38.23,35.958,31.995,35.958z M19.504,23.218l0.131,0.406c1.779,5.545,6.406,11.512,12.36,11.512
				s10.581-5.969,12.36-11.516l0.132-0.408l0.402,0.148c0.116,0.043,0.212,0.063,0.302,0.063c0.799,0,1.474-1.107,1.474-2.416
				c0-1.084-0.459-2.039-1.115-2.326l-0.258-0.111l0.01-0.281c0.007-0.17,0.013-0.342,0.013-0.512
				c0-8.645-6.69-12.512-13.319-12.512c-6.63,0-13.318,3.867-13.318,12.512c0,0.172,0.005,0.344,0.012,0.516l0.01,0.279
				l-0.255,0.111c-0.654,0.291-1.11,1.246-1.11,2.324c0,1.309,0.674,2.416,1.473,2.416c0.09,0,0.184-0.02,0.298-0.061L19.504,23.218
				z"/>
		</g>
		<g>
			<g>
				<path style="fill:#FF8B26;" d="M31.72,4.085c-19.715,0-13.638,12.928-13.638,12.928s7.112-0.322,10.504-1.959
					c4.869-2.352,7.442-5.484,7.442-5.484s1.735,1.959,4.477,4.234c2.392,1.982,5.501,3.467,5.501,3.467S51.119,4.085,31.72,4.085z"
					/>
			</g>
		</g>
		<g>
			<g>
				<g>
					<g>
						<g>
							<g>
								<path style="fill:#FFFFFF;" d="M21.597,37.911c0,0,11.355,20.94,10.328,20.31l0.019,3.002L19.102,48.875l3.104-2.446h-3.925
									l1.573-7.691L21.597,37.911z"/>
							</g>
						</g>
					</g>
				</g>
				<g>
					<g>
						<g>
							<g>
								<path style="fill:#FFFFFF;" d="M22.403,37.104c0,0,10.952,20.938,9.925,20.309l-0.374,3.002L20.299,48.851l3.89-3.229h-5.1
									l1.571-7.692L22.403,37.104z"/>
							</g>
						</g>
					</g>
				</g>
			</g>
			<g>
				<g>
					<g>
						<g>
							<g>
								<path style="fill:#FFFFFF;" d="M42.403,37.911c0,0-11.355,20.94-10.33,20.31l-0.017,3.002l12.842-12.348l-3.105-2.446h3.926
									l-1.573-7.691L42.403,37.911z"/>
							</g>
						</g>
					</g>
				</g>
				<g>
					<g>
						<g>
							<g>
								<path style="fill:#FFFFFF;" d="M41.595,37.104c0,0-10.951,20.938-9.924,20.309l0.393,3.002l11.635-11.564l-3.888-3.229h5.1
									l-1.573-7.692L41.595,37.104z"/>
							</g>
						</g>
					</g>
				</g>
			</g>
		</g>
		<g>
			<g>
				<g>
					<path style="fill:#FFFFFF;" d="M30.782,20.638c0,0.479-0.29,0.863-0.647,0.863H21.4c-0.355,0-0.646-0.385-0.646-0.863v-2.16
						c0-0.477,0.291-0.865,0.646-0.865h8.734c0.357,0,0.647,0.389,0.647,0.865V20.638z"/>
					<path style="fill:#3A3E42;" d="M30.135,21.913H21.4c-0.594,0-1.059-0.561-1.059-1.275v-2.16c0-0.705,0.476-1.277,1.059-1.277
						h8.734c0.594,0,1.059,0.561,1.059,1.277v2.16C31.193,21.353,30.729,21.913,30.135,21.913z M21.4,18.024
						c-0.082,0-0.235,0.172-0.235,0.453v2.16c0,0.271,0.142,0.451,0.235,0.451h8.734c0.094,0,0.235-0.18,0.235-0.451v-2.16
						c0-0.271-0.142-0.453-0.235-0.453H21.4z"/>
				</g>
				<g>
					<path style="fill:#FFFFFF;" d="M43.647,20.638c0,0.479-0.288,0.863-0.646,0.863h-8.733c-0.356,0-0.647-0.385-0.647-0.863v-2.16
						c0-0.477,0.291-0.865,0.647-0.865h8.733c0.358,0,0.646,0.389,0.646,0.865V20.638z"/>
					<path style="fill:#3A3E42;" d="M43.001,21.913h-8.733c-0.595,0-1.06-0.561-1.06-1.275v-2.16c0-0.705,0.476-1.277,1.06-1.277
						h8.733c0.594,0,1.059,0.561,1.059,1.277v2.16C44.06,21.353,43.595,21.913,43.001,21.913z M43.236,18.478
						c0-0.271-0.142-0.453-0.235-0.453h-8.733c-0.083,0-0.236,0.172-0.236,0.453v2.16c0,0.271,0.142,0.451,0.236,0.451h8.733
						C43.095,21.089,43.236,18.478,43.236,18.478z"/>
				</g>
			</g>
			<g>
				<rect x="30.904" y="18.079" style="fill:#3A3E42;" width="2.832" height="1.281"/>
			</g>
			<g>
				<rect x="16.767" y="18.079" style="fill:#3A3E42;" width="3.712" height="1.281"/>
			</g>
			<g>
				<rect x="43.52" y="18.079" style="fill:#3A3E42;" width="3.712" height="1.281"/>
			</g>
		</g>
	</g>
	<g>
		<g>
			<path style="fill:#FF8B26;" d="M51.446,33.036c0,0-5.397-3.289-3.364-15.961c1.122-6.998-0.526-13.773-5.355-15.73
				c-3.375-1.365-5.749-0.197-6.81,0.404c-1.061-0.602-6.379-2.756-11.119-1.188c-7.513,2.486-10.004,9.516-8.881,16.514
				c2.034,12.672-3.364,15.961-3.364,15.961H51.446z"/>
		</g>
		<g>
			<g>
				<path style="fill:#E3C7AA;" d="M32.834,61.273h-1.67L19.345,39.05l0.613-0.236c0.272-0.105,6.656-2.662,6.656-9.73v-0.537h10.77
					v0.537c0,7.088,6.589,9.705,6.655,9.73l0.614,0.236L32.834,61.273z"/>
				<path style="fill:#E3C7AA;" d="M31.412,60.862h1.174l11.485-21.596l-0.181-0.068c-0.068-0.027-6.918-2.754-6.918-10.115v-0.127
					h-9.946v0.127c0,7.355-6.637,10.006-6.919,10.115l-0.182,0.068L31.412,60.862z"/>
			</g>
		</g>
		<g>
			<path style="fill:#3362A3;" d="M55.904,44.509c-2.123-2.122-4.843-4.35-12.64-6.346L31.998,57.232L20.938,38.163
				c-7.799,1.996-10.721,4.224-12.843,6.346C4.26,48.345,5.623,58.216,5.623,64.001h52.754
				C58.377,58.216,59.738,48.345,55.904,44.509z"/>
		</g>
		<g>
			<path style="fill:#FFE5CB;" d="M45.714,18.304c0.006-0.176,0.012-0.354,0.012-0.527c0-8.328-6.146-12.924-13.73-12.924
				c-7.583,0-13.73,4.596-13.73,12.924c0,0.176,0.006,0.354,0.012,0.531c-0.779,0.346-1.355,1.416-1.355,2.699
				c0,1.561,0.845,2.828,1.885,2.828c0.152,0,0.296-0.035,0.437-0.086c2.022,6.303,6.969,11.797,12.753,11.797
				c5.785,0,10.73-5.496,12.753-11.799c0.143,0.051,0.289,0.088,0.443,0.088c1.041,0,1.886-1.268,1.886-2.828
				C47.077,19.72,46.498,18.646,45.714,18.304z"/>
			<path style="fill:#E3C7AA;" d="M31.995,35.958c-6.235,0-11.073-6.006-13.025-11.723c-1.368,0.156-2.461-1.334-2.461-3.229
				c0-1.287,0.532-2.426,1.349-2.941c-0.003-0.096-0.005-0.193-0.005-0.289c0-7.977,5.684-13.336,14.143-13.336
				S46.138,9.8,46.138,17.776c0,0.094-0.002,0.189-0.004,0.285c0.82,0.512,1.354,1.652,1.354,2.945c0,1.896-1.103,3.404-2.469,3.229
				C43.068,29.952,38.23,35.958,31.995,35.958z M19.504,23.218l0.131,0.406c1.779,5.545,6.406,11.512,12.36,11.512
				s10.581-5.969,12.36-11.516l0.132-0.408l0.402,0.148c0.116,0.043,0.212,0.063,0.302,0.063c0.799,0,1.474-1.107,1.474-2.416
				c0-1.084-0.459-2.039-1.115-2.326l-0.258-0.111l0.01-0.281c0.007-0.17,0.013-0.342,0.013-0.512
				c0-8.645-6.69-12.512-13.319-12.512c-6.63,0-13.318,3.867-13.318,12.512c0,0.172,0.005,0.344,0.012,0.516l0.01,0.279
				l-0.255,0.111c-0.654,0.291-1.11,1.246-1.11,2.324c0,1.309,0.674,2.416,1.473,2.416c0.09,0,0.184-0.02,0.298-0.061L19.504,23.218
				z"/>
		</g>
		<g>
			<g>
				<path style="fill:#FF8B26;" d="M31.72,4.085c-19.715,0-13.638,12.928-13.638,12.928s7.112-0.322,10.504-1.959
					c4.869-2.352,7.442-5.484,7.442-5.484s1.735,1.959,4.477,4.234c2.392,1.982,5.501,3.467,5.501,3.467S51.119,4.085,31.72,4.085z"
					/>
			</g>
		</g>
		<g>
			<g>
				<g>
					<g>
						<g>
							<g>
								<path style="fill:#FFFFFF;" d="M21.597,37.911c0,0,11.355,20.94,10.328,20.31l0.019,3.002L19.102,48.875l3.104-2.446h-3.925
									l1.573-7.691L21.597,37.911z"/>
							</g>
						</g>
					</g>
				</g>
				<g>
					<g>
						<g>
							<g>
								<path style="fill:#FFFFFF;" d="M22.403,37.104c0,0,10.952,20.938,9.925,20.309l-0.374,3.002L20.299,48.851l3.89-3.229h-5.1
									l1.571-7.692L22.403,37.104z"/>
							</g>
						</g>
					</g>
				</g>
			</g>
			<g>
				<g>
					<g>
						<g>
							<g>
								<path style="fill:#FFFFFF;" d="M42.403,37.911c0,0-11.355,20.94-10.33,20.31l-0.017,3.002l12.842-12.348l-3.105-2.446h3.926
									l-1.573-7.691L42.403,37.911z"/>
							</g>
						</g>
					</g>
				</g>
				<g>
					<g>
						<g>
							<g>
								<path style="fill:#FFFFFF;" d="M41.595,37.104c0,0-10.951,20.938-9.924,20.309l0.393,3.002l11.635-11.564l-3.888-3.229h5.1
									l-1.573-7.692L41.595,37.104z"/>
							</g>
						</g>
					</g>
				</g>
			</g>
		</g>
		<g>
			<g>
				<g>
					<path style="fill:#FFFFFF;" d="M30.782,20.638c0,0.479-0.29,0.863-0.647,0.863H21.4c-0.355,0-0.646-0.385-0.646-0.863v-2.16
						c0-0.477,0.291-0.865,0.646-0.865h8.734c0.357,0,0.647,0.389,0.647,0.865V20.638z"/>
					<path style="fill:#3A3E42;" d="M30.135,21.913H21.4c-0.594,0-1.059-0.561-1.059-1.275v-2.16c0-0.705,0.476-1.277,1.059-1.277
						h8.734c0.594,0,1.059,0.561,1.059,1.277v2.16C31.193,21.353,30.729,21.913,30.135,21.913z M21.4,18.024
						c-0.082,0-0.235,0.172-0.235,0.453v2.16c0,0.271,0.142,0.451,0.235,0.451h8.734c0.094,0,0.235-0.18,0.235-0.451v-2.16
						c0-0.271-0.142-0.453-0.235-0.453H21.4z"/>
				</g>
				<g>
					<path style="fill:#FFFFFF;" d="M43.647,20.638c0,0.479-0.288,0.863-0.646,0.863h-8.733c-0.356,0-0.647-0.385-0.647-0.863v-2.16
						c0-0.477,0.291-0.865,0.647-0.865h8.733c0.358,0,0.646,0.389,0.646,0.865V20.638z"/>
					<path style="fill:#3A3E42;" d="M43.001,21.913h-8.733c-0.595,0-1.06-0.561-1.06-1.275v-2.16c0-0.705,0.476-1.277,1.06-1.277
						h8.733c0.594,0,1.059,0.561,1.059,1.277v2.16C44.06,21.353,43.595,21.913,43.001,21.913z M43.236,18.478
						c0-0.271-0.142-0.453-0.235-0.453h-8.733c-0.083,0-0.236,0.172-0.236,0.453v2.16c0,0.271,0.142,0.451,0.236,0.451h8.733
						C43.095,21.089,43.236,18.478,43.236,18.478z"/>
				</g>
			</g>
			<g>
				<rect x="30.904" y="18.079" style="fill:#3A3E42;" width="2.832" height="1.281"/>
			</g>
			<g>
				<rect x="16.767" y="18.079" style="fill:#3A3E42;" width="3.712" height="1.281"/>
			</g>
			<g>
				<rect x="43.52" y="18.079" style="fill:#3A3E42;" width="3.712" height="1.281"/>
			</g>
		</g>
	</g>
</g>
</svg>
