<?xml version="1.0" encoding="iso-8859-1"?>
<!-- Generator: Adobe Illustrator 16.0.0, SVG Export Plug-In . SVG Version: 6.00 Build 0)  -->
<!DOCTYPE svg PUBLIC "-//W3C//DTD SVG 1.1//EN" "http://www.w3.org/Graphics/SVG/1.1/DTD/svg11.dtd">
<svg version="1.1" id="Layer_1" xmlns="http://www.w3.org/2000/svg" xmlns:xlink="http://www.w3.org/1999/xlink" x="0px" y="0px"
	 width="64px" height="64px" viewBox="0 0 64 64" style="enable-background:new 0 0 64 64;" xml:space="preserve">
<g>
	<path style="fill-rule:evenodd;clip-rule:evenodd;fill:#F2EFDC;" d="M61.155,64c-0.005-0.162-0.01-0.292-0.013-0.374
		c-0.347-7.261-2.119-17.651-10.134-17.303c-2.883,0.125-9.368-2.259-10.318-4.773c-0.719-1.906-0.727-4.915-0.284-6.894
		l-7.663,0.147l-7.663-0.147c0.442,1.979,0.412,4.979-0.285,6.894c-0.686,1.883-6.986,4.883-9.499,4.773
		C7.181,45.972,4.142,56.391,3.811,64H61.155z"/>
	<polygon style="fill-rule:evenodd;clip-rule:evenodd;fill:#8FC3D8;" points="41.259,64 42.04,42.895 32.72,43.939 23.515,42.955 
		24.382,64 	"/>
	<g>
		<path style="fill-rule:evenodd;clip-rule:evenodd;fill:#F2EFDC;" d="M23.802,28.608l0.442-5.286
			c-0.785-0.771-1.348-1.281-1.756-1.914c-1.124-1.744-1.83-2.146-2.512-1.638c-0.277,0.206-0.375,0.86-0.213,1.682
			c0.282,1.436,1.188,3.575,1.473,4.832C21.465,27.295,22.788,30.759,23.802,28.608z"/>
		<path style="fill-rule:evenodd;clip-rule:evenodd;fill:#F2EFDC;" d="M41.524,28.608l-0.442-5.286
			c0.783-0.771,1.347-1.281,1.756-1.914c1.124-1.744,1.828-2.146,2.512-1.638c0.277,0.206,0.375,0.86,0.213,1.682
			c-0.282,1.436-1.189,3.575-1.473,4.832C43.861,27.295,42.538,30.759,41.524,28.608z"/>
	</g>
	<path style="fill-rule:evenodd;clip-rule:evenodd;fill:#DCD9C8;" d="M24.689,42.281c0.714,0.184,1.254,4.575,3.914,3.781
		c1.339-2.772,2.681-5.079,4.675-5.817c1.394-0.516,2.331-0.479,3.476-1.384c0.906-0.717,2.054-2.296,3.458-3.297
		c0.048-0.415,0.114-0.549,0.194-0.908l-7.663,0.147l-7.663-0.147C25.281,35.553,25.754,39.561,24.689,42.281z"/>
	<path style="fill-rule:evenodd;clip-rule:evenodd;fill:#F2EFDC;" d="M32.862,39.254c-0.043,0.003-0.086,0.005-0.129,0.006
		c-1.593,0.009-2.385-0.018-3.25-0.383c-0.836-0.356-1.242-1.177-2.392-2.285c-0.979-0.941-2.734-1.902-3.163-2.929
		c-0.587-1.406-0.356-2.956-0.722-5.139c-0.291-1.739-1.109-3.284-1.205-5.024c-0.1-1.882,0.202-3.775,0.138-5.9
		c-0.063-2.078-0.121-3.797,0.134-5.256c0.256-1.473,0.833-2.694,2.033-3.769l0,0c0,0,0,0,0-0.003
		c0.665-0.59,1.418-1.092,2.236-1.505c0.008-0.004,0.018-0.006,0.026-0.01c0.054-0.023,0.108-0.052,0.162-0.079
		c0.031-0.015,0.06-0.028,0.091-0.045c0.042-0.021,0.086-0.041,0.128-0.059c0.042-0.016,0.084-0.036,0.126-0.055
		c0.046-0.023,0.094-0.042,0.138-0.059c0.04-0.021,0.079-0.037,0.122-0.055c0.058-0.024,0.116-0.049,0.175-0.068
		c0.027-0.011,0.056-0.024,0.085-0.035c0.083-0.034,0.173-0.066,0.26-0.096c0,0,0,0,0.002-0.004c2.182-0.79,4.657-1.012,7.002-0.664
		c2.338,0.346,4.539,1.258,6.176,2.718c1.194,1.072,1.767,2.286,2.023,3.751c0.257,1.453,0.205,3.168,0.146,5.237
		c-0.061,2.121,0.247,4.006,0.146,5.88c-0.093,1.735-0.908,3.279-1.192,5.016c-0.357,2.177-0.128,3.715-0.709,5.127
		c-0.427,1.031-2.169,2.003-3.141,2.955c-1.146,1.122-1.549,1.943-2.38,2.313C35.099,39.199,34.335,39.249,32.862,39.254z"/>
	<path style="fill-rule:evenodd;clip-rule:evenodd;fill:#0D2F3B;" d="M20.454,12.749C20.578,3.714,24.8,1.497,30.272,0.356
		c7.444-1.551,14.696,1.758,14.915,14.026c0.051,2.791-1.258,6.502-2.323,8.666c0.01-1.063,0-1.667-0.152-3.749
		c-0.12-1.652-0.13-2.105-0.678-4.493c-0.35-1.527-0.853-3.192-1.611-4.391c-2.543-3.1-6.883,3.581-11.575,2.507
		c-2.668-0.256-2.059-3.549-3.794-3.439c-2.116,0.134-2.351,7.764-2.14,13.449C20.264,18.592,20.39,17.314,20.454,12.749z"/>
	<g>
		<path style="fill-rule:evenodd;clip-rule:evenodd;fill:#A9D6E8;" d="M40.251,39.611c0.229,1.611,0.719,2.351,1.792,3.166
			l-4.601,7.858l-4.871-6.813C34.993,42.49,39.308,40.827,40.251,39.611z"/>
		<path style="fill-rule:evenodd;clip-rule:evenodd;fill:#A9D6E8;" d="M25.102,39.611c-0.229,1.611-0.719,2.351-1.793,3.166
			l4.603,7.858l4.87-6.813C30.361,42.49,26.046,40.827,25.102,39.611z"/>
	</g>
	<path style="fill-rule:evenodd;clip-rule:evenodd;fill:#2F5B74;" d="M62.87,64c0-0.866-0.01-1.502-0.035-1.77
		C62.273,56.234,60.078,46,52.071,46.323c-2.797,0.114-8.164-1.786-10.234-3.535C40.223,47.575,37.848,56.73,35.92,64H62.87z"/>
	<path style="fill-rule:evenodd;clip-rule:evenodd;fill:#2F5B74;" d="M29.455,64c-1.95-7.331-4.347-16.494-5.939-21.212
		c-2.069,1.749-7.438,3.649-10.233,3.535C5.275,46,1.741,56.333,1.178,62.328C1.155,62.582,1.139,63.184,1.13,64H29.455z"/>
	<polygon style="fill-rule:evenodd;clip-rule:evenodd;fill:#0D2F3B;" points="30.571,64 34.856,64 35.465,54.13 33.254,50.575 
		35.226,48.571 35.286,47.675 32.896,44.149 32.451,44.136 30.068,47.659 30.127,48.556 32.099,50.557 29.889,54.112 	"/>
	<path style="fill-rule:evenodd;clip-rule:evenodd;fill:#416F8A;" d="M42.354,64l2.546-5.813l-2.511-3.347l4.304,0.479l-0.239-10.04
		l0.096-0.071c-1.902-0.675-3.7-1.564-4.712-2.419C40.23,47.552,37.87,56.711,35.947,64H42.354z"/>
	<path style="fill-rule:evenodd;clip-rule:evenodd;fill:#416F8A;" d="M22.964,54.84l-2.509,3.347L23.219,64h6.198
		c-1.934-7.321-4.306-16.482-5.902-21.212c-1.011,0.854-2.809,1.744-4.71,2.419l0.096,0.071l-0.239,10.04L22.964,54.84z"/>
</g>
</svg>
