<?xml version="1.0" encoding="iso-8859-1"?>
<!-- Generator: Adobe Illustrator 16.0.0, SVG Export Plug-In . SVG Version: 6.00 Build 0)  -->
<!DOCTYPE svg PUBLIC "-//W3C//DTD SVG 1.1//EN" "http://www.w3.org/Graphics/SVG/1.1/DTD/svg11.dtd">
<svg version="1.1" id="Layer_1" xmlns="http://www.w3.org/2000/svg" xmlns:xlink="http://www.w3.org/1999/xlink" x="0px" y="0px"
	 width="64px" height="64px" viewBox="0 0 64 64" style="enable-background:new 0 0 64 64;" xml:space="preserve">
<g>
	<g>
		<path style="fill:#774E3E;" d="M31.999,0.604L31.999,0.604L31.999,0.604c7.202,0,13.039,5.806,13.039,12.97
			c0,3.483-1.028,5.935-1.638,6.105c-1.932,0.543-5.926-8.342-11.4-8.342l0,0h-0.001c-5.475,0-9.468,8.885-11.4,8.342
			c-0.609-0.171-1.637-2.622-1.637-6.105C18.962,6.409,24.799,0.604,31.999,0.604z"/>
		<g>
			<path style="fill:#F9D5BE;" d="M7.145,47.71c0.275-5.225,7.907-6.257,13.82-7.22c3.161-0.514,4.153-3.797,4.399-6.743
				C27.367,35.604,29.951,37.5,32,37.5c2.027,0,4.622-1.904,6.636-3.766c0.244,2.95,1.234,6.241,4.4,6.756
				c5.912,0.963,13.545,1.995,13.819,7.22C57.131,52.936,56.993,64,56.993,64H32.31H31.69H7.007C7.007,64,6.869,52.936,7.145,47.71z
				"/>
			<path style="fill:#F9D5BE;" d="M25.364,33.747c0.04-0.493,0.067-0.979,0.073-1.438h13.125c0.006,0.455,0.033,0.938,0.073,1.426
				C36.622,35.596,34.027,37.5,32,37.5C29.951,37.5,27.367,35.604,25.364,33.747z"/>
			<path style="opacity:0.35;fill:#C69E89;" d="M25.364,33.747c0.04-0.493,0.067-0.979,0.073-1.438h13.125
				c0.006,0.455,0.033,0.938,0.073,1.426C36.622,35.596,34.027,37.5,32,37.5C29.951,37.5,27.367,35.604,25.364,33.747z"/>
		</g>
		<path style="fill:#F9D5BE;" d="M18.826,17.938c0.652-0.227,1.251,0.152,1.718,0.65c-0.021-0.647-0.017-1.143,0.004-1.406
			c0-7.742,6.077-12.141,11.452-12.149c5.375,0.009,11.453,4.407,11.453,12.149c0.02,0.264,0.024,0.759,0.003,1.406
			c0.467-0.498,1.065-0.877,1.718-0.65c1.041,0.361,0.525,6.7-2.513,7.837c-0.093,0.034-0.166,0.042-0.249,0.064
			c-0.395,1.464-0.922,2.888-1.638,4.063C39.95,31.259,35.18,36.568,32,36.568c-3.222,0-7.949-5.31-8.774-6.666
			c-0.715-1.176-1.243-2.6-1.638-4.063c-0.083-0.022-0.155-0.03-0.249-0.064C18.302,24.638,17.786,18.299,18.826,17.938z"/>
		<path style="fill:#774E3E;" d="M32.389,2.096c-10.078,0-13.755,7.323-13.404,13.292c0.157,2.683,1.314,6.212,1.314,6.212
			c0.131,0.18,0.62,0.069,0.568-0.252c-0.878-5.455,1.761-10.491,3.075-10.954c6.711-1.741,9.696,7.95,18.23,2.97
			c1.022,2.336,1.478,5.307,1.046,7.984c-0.051,0.321,0.448,0.432,0.579,0.252c0,0,1.259-4.03,1.263-6.718
			C45.063,12.221,43.826,2.096,32.389,2.096z"/>
	</g>
	<path style="fill:#FFFFFF;" d="M7.145,47.71c0.275-5.225,7.907-6.257,13.82-7.22c1.973-0.321,3.101-1.72,3.729-3.443l7.316,6.103
		l7.296-6.103c0.629,1.723,1.756,3.122,3.729,3.443c5.912,0.963,13.545,1.995,13.819,7.22C57.131,52.936,56.993,64,56.993,64H32.31
		H31.69H7.007C7.007,64,6.869,52.936,7.145,47.71z"/>
	<polygon style="fill:#0D1014;" points="34.712,42.768 29.311,42.768 30.906,46.399 30.144,64 33.814,63.999 32.993,46.399 	"/>
	<polygon style="opacity:0.55;fill:#CCCCCC;" points="39.213,36.194 31.967,42.643 24.788,36.194 21.42,40.429 24.93,47.288 
		31.978,43.639 39.07,47.288 42.58,40.429 	"/>
	<polygon style="fill:#FFFFFF;" points="39.212,35.704 31.967,42.152 24.788,35.704 21.286,39.551 25.158,46.652 31.978,43.149 
		38.841,46.652 42.713,39.551 	"/>
	<g>
		<path style="fill:#0D1014;" d="M45.103,25.396c0,0,0.947,5.89-7.759,5.532c-0.128-0.604-0.696-1.06-1.379-1.06h-1.911
			c-0.776,0-1.405,0.589-1.405,1.316s0.629,1.316,1.405,1.316h1.911c0.671,0,1.23-0.439,1.371-1.026
			c2.312,0.105,8.237-0.203,8.778-6.079H45.103z"/>
		<path style="fill:#0D1014;" d="M31.779,0L31.779,0c-7.808,0-13.755,5.959-13.755,13.309c0,1.021,0.125,2.013,0.356,2.968h1.8
			c-0.341-1.054-0.526-2.169-0.526-3.326c0-3.78,1.952-7.131,4.959-9.209c1.004-0.693,4.06-1.386,7.113-1.4
			c0.018,0,0.035,0.001,0.052,0.001c3.036-0.006,6.058,0.653,7.045,1.317c3.076,2.07,5.08,5.46,5.08,9.291
			c0,1.157-0.187,2.272-0.526,3.326h1.8c0.23-0.955,0.357-1.947,0.357-2.968C45.534,5.959,39.586,0,31.779,0z"/>
		<g>
			<path style="fill:#DBD4D1;" d="M19.003,21.241c0.169,1.782-0.657,3.306-1.843,3.405c-1.188,0.098-2.286-1.268-2.454-3.049
				c-0.169-1.781,0.656-3.306,1.843-3.405C17.735,18.095,18.835,19.459,19.003,21.241z"/>
			<path style="fill:#E1E8EA;" d="M18.932,24.478c0.057,0.606-0.422,1.144-1.07,1.197l0,0c-0.648,0.054-1.221-0.395-1.278-1.003
				l-0.624-6.597c-0.058-0.607,0.421-1.144,1.069-1.197l0,0c0.648-0.054,1.222,0.395,1.279,1.002L18.932,24.478z"/>
			<path style="fill:#232323;" d="M21.273,25.533c0.078,0.827-0.574,1.557-1.458,1.63l0,0c-0.884,0.073-1.663-0.538-1.741-1.364
				l-0.818-8.657c-0.079-0.827,0.574-1.556,1.457-1.629l0,0c0.884-0.073,1.662,0.536,1.741,1.364L21.273,25.533z"/>
		</g>
		<g>
			<path style="fill:#DBD4D1;" d="M44.557,21.241c-0.169,1.782,0.657,3.306,1.844,3.405c1.187,0.098,2.285-1.268,2.454-3.049
				c0.168-1.781-0.657-3.306-1.845-3.405C45.824,18.095,44.725,19.459,44.557,21.241z"/>
			<path style="fill:#E1E8EA;" d="M44.628,24.478c-0.058,0.606,0.422,1.144,1.07,1.197l0,0c0.648,0.054,1.221-0.395,1.278-1.003
				l0.624-6.597c0.058-0.607-0.422-1.144-1.069-1.197l0,0c-0.649-0.054-1.222,0.395-1.28,1.002L44.628,24.478z"/>
			<path style="fill:#232323;" d="M42.287,25.533c-0.078,0.827,0.573,1.557,1.457,1.63l0,0c0.884,0.073,1.662-0.538,1.74-1.364
				l0.82-8.657c0.077-0.827-0.575-1.556-1.458-1.629l0,0c-0.884-0.073-1.663,0.536-1.741,1.364L42.287,25.533z"/>
		</g>
	</g>
</g>
</svg>
