<?xml version="1.0" encoding="iso-8859-1"?>
<!-- Generator: Adobe Illustrator 16.0.0, SVG Export Plug-In . SVG Version: 6.00 Build 0)  -->
<!DOCTYPE svg PUBLIC "-//W3C//DTD SVG 1.1//EN" "http://www.w3.org/Graphics/SVG/1.1/DTD/svg11.dtd">
<svg version="1.1" id="Layer_1" xmlns="http://www.w3.org/2000/svg" xmlns:xlink="http://www.w3.org/1999/xlink" x="0px" y="0px"
	 width="64px" height="64px" viewBox="0 0 64 64" style="enable-background:new 0 0 64 64;" xml:space="preserve">
<g>
	<g>
		<g>
			<g>
				<path style="fill:#E3C7AA;" d="M33.056,58.841h-2.112l-12.155-19.1l1.076-0.418c0.259-0.101,6.365-2.551,6.365-9.304v-0.947
					h11.541v0.947c0,6.723,6.301,9.278,6.364,9.304l1.076,0.416L33.056,58.841z"/>
			</g>
		</g>
		<g>
			<g>
				<path style="fill:#FF8B26;" d="M47.274,15.426C45.787,4.469,42.222,0,31.737,0c-8.644,0-13.529,4.469-15.019,15.426
					c-1.864,13.733,8.289-3.954,15.278-3.954C39.306,11.472,49.14,29.159,47.274,15.426z"/>
			</g>
			<g>
				<path style="fill:#FFE5CB;" d="M45.654,19.288c0.006-0.176,0.012-0.352,0.012-0.525c0-8.292-6.12-12.866-13.67-12.866
					c-7.548,0-13.668,4.574-13.668,12.866c0,0.175,0.006,0.353,0.011,0.529c-0.776,0.343-1.348,1.409-1.348,2.687
					c0,1.553,0.84,2.814,1.876,2.814c0.15,0,0.295-0.033,0.434-0.084c2.015,6.273,6.938,11.743,12.695,11.743
					c5.76,0,10.684-5.471,12.698-11.746c0.142,0.052,0.288,0.087,0.44,0.087c1.036,0,1.878-1.262,1.878-2.814
					C47.012,20.696,46.436,19.628,45.654,19.288z"/>
				<path style="fill:#E3C7AA;" d="M31.996,36.862c-6.206,0-11.023-5.98-12.966-11.669c-1.363,0.146-2.449-1.332-2.449-3.215
					c0-1.283,0.529-2.415,1.341-2.927c-0.002-0.104-0.004-0.197-0.004-0.289c0-7.94,5.657-13.276,14.078-13.276
					c8.421,0,14.081,5.336,14.081,13.276c0,0.094-0.001,0.188-0.004,0.282c0.816,0.51,1.349,1.646,1.349,2.934
					c0,1.887-1.089,3.372-2.457,3.214C43.021,30.882,38.204,36.862,31.996,36.862z M19.562,24.181l0.13,0.402
					c1.771,5.52,6.377,11.459,12.304,11.459c5.929,0,10.536-5.941,12.307-11.462l0.13-0.406l0.401,0.146
					c0.115,0.043,0.21,0.063,0.3,0.063c0.796,0,1.468-1.102,1.468-2.404c0-1.079-0.457-2.03-1.11-2.315l-0.256-0.11l0.009-0.278
					c0.007-0.208,0.013-0.36,0.013-0.512c0-8.605-6.66-12.457-13.261-12.457c-6.6,0-13.259,3.852-13.259,12.457
					c0,0.152,0.005,0.305,0.01,0.458l0.009,0.275l-0.25,0.17c-0.65,0.289-1.105,1.238-1.105,2.313c0,1.303,0.672,2.404,1.467,2.404
					c0.088,0,0.183-0.019,0.297-0.06L19.562,24.181z"/>
			</g>
			<g>
				<path style="fill:#FF8B26;" d="M17.778,16.729c0,0,17.577-1.963,20.52-8.782c0,0,2.371,6.038,7.767,8.782
					c0,0-1.147-15.435-13.652-14.951C18.689,2.309,17.778,16.729,17.778,16.729z"/>
			</g>
		</g>
		<g>
			<g>
				<path style="fill:#FF8B26;" d="M32.358,27.5c0.015-0.912-0.946-1.588-2.761-1.508c-2.093,0.091-2.472,2.779-4.785,2.223
					C23.256,27.84,32.278,32.582,32.358,27.5z"/>
			</g>
			<g>
				<path style="fill:#FF8B26;" d="M31.644,27.5c-0.015-0.912,0.944-1.588,2.758-1.508c2.094,0.091,2.473,2.779,4.787,2.223
					C40.744,27.84,31.722,32.582,31.644,27.5z"/>
			</g>
		</g>
		<g>
			<path style="fill:#FFFFFF;" d="M55.797,44.596c-2.113-2.113-7.558-5.658-15.32-7.644l-5.354,2.017l-5.507,0.032l-6.091-2.049
				c-7.763,1.985-13.208,5.53-15.32,7.644C4.385,48.412,5.741,58.24,5.741,64h52.518C58.259,58.24,59.614,48.412,55.797,44.596z"/>
		</g>
		<g>
			<path style="fill:#3A3E42;" d="M55.797,44.596c-2.113-2.113-7.558-5.658-15.32-7.644l-1.498,4.634c0,0-4.968,10.368-6.979,11.872
				c-2.012-1.504-6.978-11.872-6.978-11.872l-1.498-4.634c-7.763,1.985-13.208,5.53-15.32,7.644C4.385,48.412,5.741,58.24,5.741,64
				h52.518C58.259,58.24,59.614,48.412,55.797,44.596z"/>
		</g>
		<g>
			<polygon style="fill:#3A3E42;" points="32.518,42.51 35.122,38.969 28.877,38.969 31.484,42.51 28.442,49.228 32,53.89 
				35.558,49.228 			"/>
		</g>
		<g>
			<rect x="41.929" y="51.609" style="fill:#FFFFFF;" width="7.082" height="1.849"/>
		</g>
	</g>
	<g>
		<g>
			<g>
				<path style="fill:#E3C7AA;" d="M33.056,58.841h-2.112l-12.155-19.1l1.076-0.418c0.259-0.101,6.365-2.551,6.365-9.304v-0.947
					h11.541v0.947c0,6.723,6.301,9.278,6.364,9.304l1.076,0.416L33.056,58.841z"/>
			</g>
		</g>
		<g>
			<g>
				<path style="fill:#FF8B26;" d="M47.274,15.426C45.787,4.469,42.222,0,31.737,0c-8.644,0-13.529,4.469-15.019,15.426
					c-1.864,13.733,8.289-3.954,15.278-3.954C39.306,11.472,49.14,29.159,47.274,15.426z"/>
			</g>
			<g>
				<path style="fill:#FFE5CB;" d="M45.654,19.288c0.006-0.176,0.012-0.352,0.012-0.525c0-8.292-6.12-12.866-13.67-12.866
					c-7.548,0-13.668,4.574-13.668,12.866c0,0.175,0.006,0.353,0.011,0.529c-0.776,0.343-1.348,1.409-1.348,2.687
					c0,1.553,0.84,2.814,1.876,2.814c0.15,0,0.295-0.033,0.434-0.084c2.015,6.273,6.938,11.743,12.695,11.743
					c5.76,0,10.684-5.471,12.698-11.746c0.142,0.052,0.288,0.087,0.44,0.087c1.036,0,1.878-1.262,1.878-2.814
					C47.012,20.696,46.436,19.628,45.654,19.288z"/>
				<path style="fill:#E3C7AA;" d="M31.996,36.862c-6.206,0-11.023-5.98-12.966-11.669c-1.363,0.146-2.449-1.332-2.449-3.215
					c0-1.283,0.529-2.415,1.341-2.927c-0.002-0.104-0.004-0.197-0.004-0.289c0-7.94,5.657-13.276,14.078-13.276
					c8.421,0,14.081,5.336,14.081,13.276c0,0.094-0.001,0.188-0.004,0.282c0.816,0.51,1.349,1.646,1.349,2.934
					c0,1.887-1.089,3.372-2.457,3.214C43.021,30.882,38.204,36.862,31.996,36.862z M19.562,24.181l0.13,0.402
					c1.771,5.52,6.377,11.459,12.304,11.459c5.929,0,10.536-5.941,12.307-11.462l0.13-0.406l0.401,0.146
					c0.115,0.043,0.21,0.063,0.3,0.063c0.796,0,1.468-1.102,1.468-2.404c0-1.079-0.457-2.03-1.11-2.315l-0.256-0.11l0.009-0.278
					c0.007-0.208,0.013-0.36,0.013-0.512c0-8.605-6.66-12.457-13.261-12.457c-6.6,0-13.259,3.852-13.259,12.457
					c0,0.152,0.005,0.305,0.01,0.458l0.009,0.275l-0.25,0.17c-0.65,0.289-1.105,1.238-1.105,2.313c0,1.303,0.672,2.404,1.467,2.404
					c0.088,0,0.183-0.019,0.297-0.06L19.562,24.181z"/>
			</g>
			<g>
				<path style="fill:#FF8B26;" d="M17.778,16.729c0,0,17.577-1.963,20.52-8.782c0,0,2.371,6.038,7.767,8.782
					c0,0-1.147-15.435-13.652-14.951C18.689,2.309,17.778,16.729,17.778,16.729z"/>
			</g>
		</g>
		<g>
			<g>
				<path style="fill:#FF8B26;" d="M32.358,27.5c0.015-0.912-0.946-1.588-2.761-1.508c-2.093,0.091-2.472,2.779-4.785,2.223
					C23.256,27.84,32.278,32.582,32.358,27.5z"/>
			</g>
			<g>
				<path style="fill:#FF8B26;" d="M31.644,27.5c-0.015-0.912,0.944-1.588,2.758-1.508c2.094,0.091,2.473,2.779,4.787,2.223
					C40.744,27.84,31.722,32.582,31.644,27.5z"/>
			</g>
		</g>
		<g>
			<path style="fill:#FFFFFF;" d="M55.797,44.596c-2.113-2.113-7.558-5.658-15.32-7.644l-5.354,2.017l-5.507,0.032l-6.091-2.049
				c-7.763,1.985-13.208,5.53-15.32,7.644C4.385,48.412,5.741,58.24,5.741,64h52.518C58.259,58.24,59.614,48.412,55.797,44.596z"/>
		</g>
		<g>
			<path style="fill:#3A3E42;" d="M55.797,44.596c-2.113-2.113-7.558-5.658-15.32-7.644l-1.498,4.634c0,0-4.968,10.368-6.979,11.872
				c-2.012-1.504-6.978-11.872-6.978-11.872l-1.498-4.634c-7.763,1.985-13.208,5.53-15.32,7.644C4.385,48.412,5.741,58.24,5.741,64
				h52.518C58.259,58.24,59.614,48.412,55.797,44.596z"/>
		</g>
		<g>
			<polygon style="fill:#3A3E42;" points="32.518,42.51 35.122,38.969 28.877,38.969 31.484,42.51 28.442,49.228 32,53.89 
				35.558,49.228 			"/>
		</g>
		<g>
			<rect x="41.929" y="51.609" style="fill:#FFFFFF;" width="7.082" height="1.849"/>
		</g>
	</g>
</g>
</svg>
