<?xml version="1.0" encoding="iso-8859-1"?>
<!-- Generator: Adobe Illustrator 16.0.0, SVG Export Plug-In . SVG Version: 6.00 Build 0)  -->
<!DOCTYPE svg PUBLIC "-//W3C//DTD SVG 1.1//EN" "http://www.w3.org/Graphics/SVG/1.1/DTD/svg11.dtd">
<svg version="1.1" id="Layer_1" xmlns="http://www.w3.org/2000/svg" xmlns:xlink="http://www.w3.org/1999/xlink" x="0px" y="0px"
	 width="64px" height="64px" viewBox="0 0 64 64" style="enable-background:new 0 0 64 64;" xml:space="preserve">
<g>
	<rect x="19.303" y="29.715" style="fill:#393939;" width="25.395" height="9.285"/>
	<path style="fill:#FFD7AF;" d="M20.554,30.103c0,0-1.916,2.042-2.846-2.821c-0.996-5.2-0.961-8.021,0.822-8.615
		c1.142-0.381,1.469,0.592,1.469,0.592L20.554,30.103z"/>
	<path style="fill:#FFD7AF;" d="M24.468,37.433v3.679c0,1.34,0.602,2.607,1.64,3.454l3.206,2.614
		c1.633,1.333,3.977,1.338,5.617,0.015l3.253-2.629c1.048-0.846,1.656-2.12,1.656-3.467v-4.021L24.468,37.433z"/>
	<path style="fill:#F5CDA5;" d="M24.468,40.137c2.068,2.291,4.658,3.54,7.531,3.54c3.017,0,5.727-1.364,7.841-3.88v-2.719
		l-15.372,0.354V40.137z"/>
	<path style="fill:#FED9AE;" d="M31.999,41.839c7.02,0,12.403-7.353,12.403-19.534c0-15.188-4.456-18.717-12.403-18.717
		c-7.945,0-12.402,3.528-12.402,18.717C19.597,34.486,24.981,41.839,31.999,41.839z"/>
	<path style="fill:#FFD7AF;" d="M43.622,30.103c0,0,1.917,2.042,2.848-2.821c0.994-5.2,0.961-8.021-0.822-8.615
		c-1.141-0.381-1.469,0.592-1.469,0.592L43.622,30.103z"/>
	<path style="fill:#FFE1B9;" d="M32.155,3.592v38.236c6.941-0.109,12.247-7.435,12.247-19.523
		C44.402,7.215,40.003,3.637,32.155,3.592z"/>
	<path style="fill:#393939;" d="M20.013,26.061C14.742,23.529,10.948,0,30.036,0c5.199,0,7.354,2.376,7.354,2.376
		c4.029-3.64,18.178,4.994,6.578,22.177c0,0,1.148-8.02-3.162-11.389c-3.063-2.396-3.564-4.104-3.564-4.104s-2.07,3.654-8.131,5.192
		C23.093,15.781,21.494,19.686,20.013,26.061z"/>
	<path style="fill:#393939;" d="M28.829,25.809h-4.455c-1.229,0-2.229-1-2.229-2.229v-0.557c0-1.229,1-2.229,2.229-2.229h4.455
		c1.229,0,2.229,0.999,2.229,2.229v0.557C31.058,24.809,30.059,25.809,28.829,25.809z M24.374,21.686
		c-0.738,0-1.338,0.601-1.338,1.338v0.557c0,0.737,0.6,1.337,1.338,1.337h4.455c0.738,0,1.338-0.6,1.338-1.337v-0.557
		c0-0.737-0.6-1.338-1.338-1.338H24.374z"/>
	<path style="fill:#393939;" d="M39.858,25.809h-4.455c-1.229,0-2.229-1-2.229-2.229v-0.557c0-1.229,1-2.229,2.229-2.229h4.455
		c1.229,0,2.229,0.999,2.229,2.229v0.557C42.087,24.809,41.088,25.809,39.858,25.809z M35.403,21.686
		c-0.738,0-1.338,0.601-1.338,1.338v0.557c0,0.737,0.6,1.337,1.338,1.337h4.455c0.738,0,1.338-0.6,1.338-1.337v-0.557
		c0-0.737-0.6-1.338-1.338-1.338H35.403z"/>
	<rect x="30.612" y="21.761" style="fill:#393939;" width="3.008" height="0.892"/>
	<path style="fill:#416687;" d="M20.565,46.51l-9.894,6.408c-0.938,0.607-1.612,1.545-1.892,2.625L6.597,64h25.412V47.934
		L20.565,46.51z"/>
	<polygon style="fill:#E9635E;" points="24.478,40.865 23.697,40.865 20.565,46.51 28.042,53.861 32.009,47.934 	"/>
	<path style="fill:#416687;" d="M43.436,46.49l9.894,6.408c0.938,0.607,1.611,1.545,1.891,2.626l2.184,8.456H31.991V47.914
		L43.436,46.49z"/>
	<polygon style="fill:#E9635E;" points="39.522,40.848 40.304,40.848 43.436,46.49 35.958,53.843 31.991,47.914 	"/>
	<g>
		<g>
			<path style="fill:#393939;" d="M34.704,51.719c0,1.1-0.9,2-2,2h-1.232c-1.1,0-2-0.9-2-2v-1.23c0-1.1,0.9-2,2-2h1.232
				c1.1,0,2,0.9,2,2V51.719z"/>
		</g>
		<polygon style="fill:#393939;" points="30.343,53.273 23.696,55.57 23.696,46.64 30.343,48.936 		"/>
		<polygon style="fill:#393939;" points="33.835,53.273 40.481,55.57 40.481,46.64 33.835,48.936 		"/>
	</g>
</g>
</svg>
