<?xml version="1.0" encoding="iso-8859-1"?>
<!-- Generator: Adobe Illustrator 16.0.0, SVG Export Plug-In . SVG Version: 6.00 Build 0)  -->
<!DOCTYPE svg PUBLIC "-//W3C//DTD SVG 1.1//EN" "http://www.w3.org/Graphics/SVG/1.1/DTD/svg11.dtd">
<svg version="1.1" id="Layer_1" xmlns="http://www.w3.org/2000/svg" xmlns:xlink="http://www.w3.org/1999/xlink" x="0px" y="0px"
	 width="64px" height="64px" viewBox="0 0 64 64" style="enable-background:new 0 0 64 64;" xml:space="preserve">
<g>
	<g>
		<ellipse style="fill:#9C603E;" cx="32.263" cy="41.855" rx="11.624" ry="12.576"/>
	</g>
	<g>
		<g>
			<path style="fill:#FFE9BA;" d="M43.738,46.133l-3.638-0.671c-0.018,0-0.018,0-0.035,0c-1.96-0.017-3.566-1.589-3.619-3.548
				v-2.666c4.29-2.648,7.292-8.846,7.292-16.066c0-9.641-5.333-14.547-11.917-14.547l0,0H31.82c-6.585,0-11.915,4.906-11.915,14.547
				c0,7.221,3.001,13.418,7.291,16.066v2.666c-0.054,1.959-1.66,3.531-3.62,3.548c-0.017,0-0.017,0-0.034,0l-3.637,0.671
				c-8.052,2.49-9.534,8.457-9.534,15.324V64H31.82h0.001h21.451v-2.543C53.271,54.59,51.789,48.623,43.738,46.133z"/>
		</g>
		<g>
			<path style="fill:#FFE9BA;" d="M36.465,41.349c0,0,0-0.018-0.018-0.035v0.035C36.465,41.349,36.465,41.349,36.465,41.349z"/>
		</g>
	</g>
	<g>
		<g>
			<path style="fill:#FFE9BA;" d="M40.578,34.975c-1.13,1.836-2.542,3.301-4.131,4.273v2.524c-0.918,0.3-1.871,0.459-2.843,0.459
				c-2.367,0-4.574-0.937-6.409-2.561v-0.423c1.394,0.793,2.912,1.218,4.502,1.218C35.229,40.466,38.425,38.329,40.578,34.975z"/>
		</g>
		<g>
			<path style="fill:#FFE9BA;" d="M36.465,41.349c0,0,0,0-0.018,0v-0.035C36.465,41.331,36.465,41.349,36.465,41.349z"/>
		</g>
	</g>
	<g>
		<g>
			<path style="fill:#A4D2E6;" d="M53.271,61.457V64H10.371v-2.543c0-6.867,1.482-12.834,9.534-15.324l3.637-0.671
				c0.018,0,0.018,0,0.034,0c0.707,0,1.377-0.212,1.942-0.6c1.412,1.958,3.707,3.23,6.303,3.23c2.596,0,4.891-1.272,6.303-3.23
				c0.565,0.388,1.236,0.6,1.942,0.6c0.018,0,0.018,0,0.035,0l3.637,0.671C51.789,48.623,53.271,54.59,53.271,61.457z"/>
		</g>
		<g>
			<path style="fill:#A4D2E6;" d="M36.465,41.349c0,0,0,0-0.018,0v-0.035C36.465,41.331,36.465,41.349,36.465,41.349z"/>
		</g>
	</g>
	<g>
		<path style="fill:#FFE9BA;" d="M27.124,39.212c-0.352-0.194-0.705-0.424-1.04-0.671c-0.018,0-0.018,0-0.035-0.017
			c-0.018-0.019-0.018-0.019-0.018-0.036c-0.071-0.071-0.142-0.159-0.213-0.247C26.242,38.595,26.667,38.93,27.124,39.212z"/>
	</g>
	<g>
		<path style="fill:#EED59C;" d="M36.447,39.248v2.065c0.018,0.018,0.018,0.035,0.018,0.035s0,0-0.018,0v0.424
			c-0.918,0.3-1.871,0.459-2.843,0.459c-2.367,0-4.574-0.937-6.409-2.561c-0.389-0.354-0.759-0.726-1.112-1.13
			c-0.018,0-0.018,0-0.035-0.017c-0.018-0.019-0.018-0.019-0.018-0.036c-0.071-0.071-0.142-0.159-0.213-0.247
			c0.424,0.354,0.849,0.688,1.306,0.971c0.019,0.018,0.036,0.036,0.072,0.036c1.394,0.793,2.912,1.218,4.502,1.218
			C35.229,40.466,36.447,39.248,36.447,39.248z"/>
	</g>
	<g>
		<path style="fill:#C77543;" d="M53.296,38.728c-0.002,0.024-0.009,0.042-0.012,0.065c-0.004-0.023-0.013-0.065-0.013-0.065
			s-1.068,4.622-3.747,4.627c-7.772,0.011-3.183-11.217-2.476-14.076C47.932,25.71,49.477,3.09,31.82,5.15
			c-17.655,2.061-15.1,19.555-14.123,24.128c0.977,4.571,4.588,14.534-1.073,15.07c-3.946,0.372-4.812-4.112-4.812-4.112
			s-1.729,6.329,2.686,9.529c4.413,3.2,11.021-4.903,11.021-4.903s-5.173-18.231,1.678-21.631c6.85-3.4,9.251-10.432,9.251-10.432
			c10.453,13.135,2.381,23.062,2.87,32.574c0,0,6.88,6.083,11.294,2.883C55.024,45.057,53.296,38.728,53.296,38.728z"/>
	</g>
	<g>
		<polygon style="fill:#FFFFFF;" points="26.471,43.979 31.821,48.095 29.145,53.408 22.533,44.863 		"/>
	</g>
	<g>
		<polygon style="fill:#FFFFFF;" points="37.171,43.979 31.82,48.095 34.495,53.408 41.11,44.863 		"/>
	</g>
	<g>
		<path style="fill:#FFFFFF;" d="M39.545,57.82c0,0,0.723-7.11,1.134-7.307s4.52,3.653,4.52,3.653l-0.797,1.998l2.758-1.214v3.421
			L39.545,57.82z"/>
	</g>
	<g>
		<polygon style="fill:#3D95CA;" points="40.482,0 32.609,1.544 24.736,0 20.913,10.313 32.609,13.021 44.306,10.313 		"/>
	</g>
	<g>
		<polygon style="fill:#A4D2E6;" points="24.736,0 32.609,0 40.482,0 32.609,3.09 		"/>
	</g>
	<g>
		<path style="fill:#3D95CA;" d="M48.3,61.226c0,0.488-0.395,0.883-0.883,0.883h-8.883c-0.487,0-0.882-0.395-0.882-0.883v-3.363
			c0-0.488,0.395-0.884,0.882-0.884h8.883c0.488,0,0.883,0.396,0.883,0.884V61.226z"/>
	</g>
	<g>
		<g>
			<ellipse style="fill:#EFAC15;" cx="43.606" cy="59.586" rx="3.553" ry="0.601"/>
		</g>
		<g>
			
				<ellipse transform="matrix(0.7579 -0.6523 0.6523 0.7579 -28.4743 42.4369)" style="fill:#EFAC15;" cx="42.945" cy="59.586" rx="2.395" ry="0.402"/>
		</g>
		<g>
			
				<ellipse transform="matrix(0.652 0.7582 -0.7582 0.652 58.7783 -9.7116)" style="fill:#EFAC15;" cx="39.969" cy="59.179" rx="0.883" ry="0.298"/>
		</g>
	</g>
	<g>
		<g>
			<ellipse style="fill:#EFAC15;" cx="33.404" cy="8.635" rx="4.249" ry="0.718"/>
		</g>
		<g>
			
				<ellipse transform="matrix(0.758 -0.6523 0.6523 0.758 2.2614 23.363)" style="fill:#EFAC15;" cx="32.612" cy="8.634" rx="2.863" ry="0.483"/>
		</g>
		<g>
			
				<ellipse transform="matrix(0.6516 0.7585 -0.7585 0.6516 16.3022 -19.2002)" style="fill:#EFAC15;" cx="29.054" cy="8.148" rx="1.055" ry="0.356"/>
		</g>
	</g>
	<g>
		<circle style="fill:#3D95CA;" cx="32.263" cy="55.174" r="1.805"/>
	</g>
	<g>
		<circle style="fill:#3D95CA;" cx="32.263" cy="60.305" r="1.805"/>
	</g>
</g>
</svg>
