<?xml version="1.0" encoding="iso-8859-1"?>
<!-- Generator: Adobe Illustrator 16.0.0, SVG Export Plug-In . SVG Version: 6.00 Build 0)  -->
<!DOCTYPE svg PUBLIC "-//W3C//DTD SVG 1.1//EN" "http://www.w3.org/Graphics/SVG/1.1/DTD/svg11.dtd">
<svg version="1.1" id="Layer_1" xmlns="http://www.w3.org/2000/svg" xmlns:xlink="http://www.w3.org/1999/xlink" x="0px" y="0px"
	 width="64px" height="64px" viewBox="0 0 64 64" style="enable-background:new 0 0 64 64;" xml:space="preserve">
<g>
	<path style="fill:#393939;" d="M7.131,64l3.197-12.209c0.287-1.094,0.981-2.035,1.941-2.631l9.877-6.138l0.883,8.28L29.875,64
		H7.131z"/>
	<path style="fill:#393939;" d="M56.869,64l-3.197-12.209c-0.287-1.094-0.98-2.035-1.941-2.631l-9.877-6.138l-0.883,8.28L34.125,64
		H56.869z"/>
	<path style="fill:#FFD7AF;" d="M20.504,29.834c0,0-1.899,2.022-2.821-2.797c-0.985-5.153-0.952-7.949,0.815-8.539
		c1.131-0.376,1.455,0.587,1.455,0.587L20.504,29.834z"/>
	<path style="fill:#F0F0F0;" d="M39.464,39.747l1.267,0.923c0.686,0.498,1.09,1.295,1.09,2.142v6.015
		c0,1.619-0.445,3.209-1.287,4.593L34.092,64h-2.245V41.463L39.464,39.747z"/>
	<path style="fill:#F0F0F0;" d="M24.382,39.747l-1.267,0.923c-0.686,0.498-1.09,1.295-1.09,2.142v6.015
		c0,1.619,0.445,3.209,1.287,4.592L29.754,64h2.245V41.453L24.382,39.747z"/>
	<path style="fill:#FFD7AF;" d="M24.382,37.097v3.646c0,1.327,0.597,2.584,1.625,3.423l3.177,2.591
		c1.619,1.321,3.941,1.326,5.566,0.014l3.225-2.604c1.039-0.839,1.643-2.102,1.643-3.435v-3.984L24.382,37.097z"/>
	<path style="fill:#F5CDA5;" d="M24.382,39.776c2.05,2.271,4.617,3.511,7.465,3.511c2.989,0,5.674-1.354,7.771-3.847v-2.694
		l-15.235,0.351V39.776z"/>
	<path style="fill:#FED9AE;" d="M31.847,41.463c6.956,0,12.292-7.287,12.292-19.357c0-15.053-4.417-18.548-12.292-18.548
		c-7.876,0-12.292,3.495-12.292,18.548C19.555,34.176,24.891,41.463,31.847,41.463z"/>
	<path style="fill:#FFD7AF;" d="M43.365,29.834c0,0,1.899,2.022,2.822-2.797c0.984-5.153,0.951-7.949-0.816-8.539
		c-1.131-0.376-1.455,0.587-1.455,0.587L43.365,29.834z"/>
	<path style="fill:#FFE1B9;" d="M31.999,3.559v37.895c6.88-0.107,12.14-7.366,12.14-19.348C44.139,7.152,39.777,3.605,31.999,3.559z
		"/>
	<path style="fill:#DC843A;" d="M19.967,25.828C14.744,23.318,10.984,0,29.9,0c5.153,0,7.287,2.355,7.287,2.355
		c3.994-3.606,18.016,4.95,6.52,21.979c0,0,1.139-7.947-3.133-11.287c-3.037-2.373-3.533-4.066-3.533-4.066
		s-2.053,3.621-8.057,5.146C23.02,15.642,21.436,19.51,19.967,25.828z"/>
	<path style="fill:#393939;" d="M28.705,25.578h-4.416c-1.219,0-2.209-0.991-2.209-2.208v-0.552c0-1.218,0.99-2.208,2.209-2.208
		h4.416c1.217,0,2.208,0.99,2.208,2.208v0.552C30.913,24.587,29.922,25.578,28.705,25.578z M24.289,21.493
		c-0.73,0-1.325,0.595-1.325,1.325v0.552c0,0.73,0.595,1.325,1.325,1.325h4.416c0.73,0,1.325-0.595,1.325-1.325v-0.552
		c0-0.73-0.595-1.325-1.325-1.325H24.289z"/>
	<path style="fill:#393939;" d="M39.635,25.578h-4.416c-1.217,0-2.207-0.991-2.207-2.208v-0.552c0-1.218,0.99-2.208,2.207-2.208
		h4.416c1.218,0,2.209,0.99,2.209,2.208v0.552C41.844,24.587,40.853,25.578,39.635,25.578z M35.219,21.493
		c-0.73,0-1.324,0.595-1.324,1.325v0.552c0,0.73,0.594,1.325,1.324,1.325h4.416c0.731,0,1.326-0.595,1.326-1.325v-0.552
		c0-0.73-0.595-1.325-1.326-1.325H35.219z"/>
	<rect x="30.472" y="21.566" style="fill:#393939;" width="2.981" height="0.884"/>
	<polygon style="fill:#48525E;" points="34.906,64 33.453,55.559 31.999,55.559 31.962,55.559 30.509,55.559 29.055,64 31.962,64 
		31.999,64 	"/>
	<path style="fill:#48525E;" d="M32,56.602l2.229-1.459c0.691-0.453,0.977-1.327,0.685-2.101l-1.03-2.73
		c-0.258-0.688-0.916-1.144-1.652-1.144H32l0,0h-0.23c-0.736,0-1.395,0.456-1.653,1.144l-1.029,2.73
		c-0.292,0.773-0.007,1.647,0.685,2.101L32,56.602L32,56.602L32,56.602L32,56.602L32,56.602z"/>
</g>
</svg>
