<?xml version="1.0" encoding="iso-8859-1"?>
<!-- Generator: Adobe Illustrator 16.0.0, SVG Export Plug-In . SVG Version: 6.00 Build 0)  -->
<!DOCTYPE svg PUBLIC "-//W3C//DTD SVG 1.1//EN" "http://www.w3.org/Graphics/SVG/1.1/DTD/svg11.dtd">
<svg version="1.1" id="Layer_1" xmlns="http://www.w3.org/2000/svg" xmlns:xlink="http://www.w3.org/1999/xlink" x="0px" y="0px"
	 width="64px" height="64px" viewBox="0 0 64 64" style="enable-background:new 0 0 64 64;" xml:space="preserve">
<g>
	<path style="fill-rule:evenodd;clip-rule:evenodd;fill:#F2EFDC;" d="M60.477,64c-0.021-1.371-0.041-10.173-0.059-10.503
		c-0.352-7.375-2.151-8.401-10.293-8.049c-2.93,0.128-9.516-2.292-10.481-4.849c-0.729-1.937-0.736-4.992-0.288-7.003l-7.784,0.15
		l-7.784-0.15c0.449,2.011,0.418,5.059-0.29,7.003c-0.696,1.913-7.095,4.961-9.648,4.849c-8.287-0.359-10.004,0.711-10.312,8.451
		C3.526,54.182,3.522,62.83,3.524,64H60.477z"/>
	<path style="fill-rule:evenodd;clip-rule:evenodd;fill:#FDC00F;" d="M60.477,64c-0.021-1.371-0.041-10.173-0.059-10.503
		c-0.352-7.375-2.151-8.401-10.293-8.049c-2.93,0.128-9.516-2.292-10.481-4.849c-3.446,3.938-11.145,4.385-16.146,0
		c-0.696,1.913-7.095,4.961-9.648,4.849c-8.287-0.359-10.004,0.711-10.312,8.451C3.526,54.182,3.522,62.83,3.524,64H60.477z"/>
	<g>
		<path style="fill-rule:evenodd;clip-rule:evenodd;fill:#F2EFDC;" d="M22.488,27.454l0.449-5.368
			c-0.796-0.784-1.368-1.301-1.783-1.946c-1.143-1.771-1.858-2.179-2.553-1.662c-0.281,0.21-0.38,0.873-0.215,1.707
			c0.287,1.46,1.206,3.632,1.496,4.909C20.115,26.12,21.458,29.639,22.488,27.454z"/>
		<path style="fill-rule:evenodd;clip-rule:evenodd;fill:#F2EFDC;" d="M40.49,27.454l-0.45-5.368
			c0.798-0.784,1.371-1.301,1.785-1.946c1.141-1.771,1.857-2.179,2.552-1.662c0.281,0.21,0.381,0.873,0.217,1.707
			c-0.288,1.46-1.209,3.632-1.496,4.909C42.865,26.12,41.521,29.639,40.49,27.454z"/>
	</g>
	<path style="fill-rule:evenodd;clip-rule:evenodd;fill:#DCD9C8;" d="M23.391,41.344c0.725,0.188,1.273,4.646,3.975,3.839
		c1.36-2.816,2.724-5.158,4.75-5.907c1.416-0.524,2.367-0.487,3.529-1.407c0.922-0.728,2.087-2.331,3.512-3.349
		c0.051-0.421,0.117-0.557,0.199-0.923l-7.784,0.15l-7.784-0.15C23.99,34.509,24.471,38.579,23.391,41.344z"/>
	<path style="fill-rule:evenodd;clip-rule:evenodd;fill:#F2EFDC;" d="M31.691,38.268c-0.044,0.005-0.088,0.005-0.132,0.005
		c-1.617,0.01-2.422-0.015-3.302-0.387c-0.849-0.362-1.261-1.196-2.429-2.321c-0.994-0.957-2.777-1.934-3.214-2.976
		c-0.595-1.43-0.361-3.003-0.731-5.22c-0.296-1.767-1.127-3.336-1.225-5.104c-0.102-1.912,0.205-3.835,0.14-5.994
		c-0.064-2.111-0.124-3.857,0.136-5.34c0.26-1.495,0.847-2.736,2.065-3.827l0,0c0,0,0,0,0-0.003c0.676-0.599,1.44-1.108,2.272-1.527
		C25.28,5.57,25.29,5.567,25.3,5.563c0.054-0.024,0.109-0.053,0.164-0.081c0.031-0.015,0.061-0.028,0.092-0.046
		c0.043-0.02,0.088-0.042,0.131-0.059c0.043-0.018,0.085-0.037,0.128-0.056c0.048-0.024,0.096-0.042,0.14-0.061
		c0.04-0.02,0.081-0.037,0.124-0.055c0.059-0.024,0.118-0.05,0.178-0.069c0.027-0.012,0.057-0.025,0.087-0.035
		c0.086-0.035,0.176-0.067,0.264-0.099c0,0,0,0,0.002-0.004c2.217-0.804,4.732-1.026,7.114-0.674
		c2.374,0.351,4.611,1.277,6.272,2.761c1.215,1.089,1.795,2.32,2.057,3.811c0.261,1.477,0.208,3.217,0.147,5.319
		c-0.062,2.155,0.25,4.068,0.149,5.974c-0.095,1.762-0.924,3.331-1.212,5.095c-0.362,2.211-0.131,3.773-0.719,5.207
		c-0.435,1.047-2.204,2.035-3.192,3.003c-1.163,1.14-1.572,1.974-2.417,2.35C33.964,38.213,33.188,38.263,31.691,38.268z"/>
	<g>
		<path style="fill-rule:evenodd;clip-rule:evenodd;fill:#FFDD78;" d="M39.197,38.631c0.232,1.639,0.73,2.389,1.82,3.217
			l-4.674,7.982l-4.947-6.92C33.857,41.555,38.24,39.866,39.197,38.631z"/>
		<path style="fill-rule:evenodd;clip-rule:evenodd;fill:#FFDD78;" d="M23.81,38.631c-0.233,1.639-0.73,2.389-1.821,3.217
			l4.674,7.982l4.948-6.92C29.151,41.555,24.769,39.866,23.81,38.631z"/>
	</g>
	<polygon style="fill-rule:evenodd;clip-rule:evenodd;fill:#FC611F;" points="28.874,64 34.156,64 34.336,53.378 32.09,49.767 
		34.094,47.733 34.154,46.822 31.726,43.24 31.273,43.227 28.852,46.806 28.914,47.715 30.917,49.75 28.671,53.361 	"/>
	<path style="fill-rule:evenodd;clip-rule:evenodd;fill:#2F5B74;" d="M50.536,64c-0.079-3.697,0.824-15.12,2.313-18.602
		c-0.52,0.011-1.066,0.027-1.644,0.05c-2.105,0.086-5.646-0.952-8.193-2.218c-0.513,0.574-2.865,14.356-5.223,20.77H50.536z"/>
	<path style="fill-rule:evenodd;clip-rule:evenodd;fill:#2F5B74;" d="M12.604,64h12.745c-2.357-6.413-4.71-20.195-5.222-20.77
		c-2.548,1.266-6.089,2.304-8.193,2.218c-0.578-0.022-1.124-0.039-1.644-0.05C11.779,48.88,12.684,60.303,12.604,64z"/>
	<path style="fill-rule:evenodd;clip-rule:evenodd;" d="M32.755,8.185c-0.319-0.142-0.637-0.258-0.947-0.35
		c-6.117-1.22-8.815,4.999-10.309,10.313c0.088-0.914,0.25-1.938,0.483-2.997c-0.437,1.466-0.672,3.028-0.674,4.577
		c-0.002,1.345,0.103,3.827,0.349,5.768c-1.077-3.575-2.2-4.8-2.264-11.143l-0.354,1.554c-0.772-6.166-0.045-8.406,4.025-11.807
		c2.842-2.373,5.095-3.162,7.293-3.331c-2.003-0.186-5.124,0.999-8.433,3.885c2.787-2.903,5.264-4.848,9.81-4.639
		c3.322,0.153,3.917,1.24,4.859,3.019c6.299-1.042,7.801,2.712,7.746,7.414c-0.417-2.115-0.828-3.663-1.818-4.351
		c1.957,3.139,1.854,5.677,0.932,9.365c-0.031-0.694-0.044-1.344-0.044-2.041c-0.538,3.759-1.555,7.182-1.821,10.831l-0.31-0.354
		c-0.482-4.915,0.948-5.112-1.377-9.855C40.173,9.649,38.557,7.68,32.755,8.185z"/>
	<g>
		<path style="fill-rule:evenodd;clip-rule:evenodd;" d="M36.716,16.507c2.342,0,4.241,1.898,4.241,4.241s-1.899,4.242-4.241,4.242
			c-2.343,0-4.242-1.899-4.242-4.242S34.373,16.507,36.716,16.507L36.716,16.507z M36.716,17.296c-1.906,0-3.454,1.545-3.454,3.452
			s1.548,3.453,3.454,3.453c1.905,0,3.452-1.546,3.452-3.453S38.621,17.296,36.716,17.296z"/>
		<path style="fill-rule:evenodd;clip-rule:evenodd;" d="M26.293,16.507c2.342,0,4.24,1.898,4.24,4.241s-1.898,4.242-4.24,4.242
			c-2.344,0-4.243-1.899-4.243-4.242S23.949,16.507,26.293,16.507L26.293,16.507z M26.293,17.296c-1.907,0-3.453,1.545-3.453,3.452
			s1.546,3.453,3.453,3.453c1.905,0,3.451-1.546,3.451-3.453S28.198,17.296,26.293,17.296z"/>
	</g>
	<rect x="30.122" y="19.763" style="fill-rule:evenodd;clip-rule:evenodd;" width="2.796" height="1.116"/>
	<polygon style="fill-rule:evenodd;clip-rule:evenodd;" points="40.612,19.303 41.533,18.293 41.533,19.411 40.612,20.419 	"/>
	<polygon style="fill-rule:evenodd;clip-rule:evenodd;" points="22.198,19.303 21.278,18.293 21.278,19.411 22.198,20.419 	"/>
</g>
</svg>
