<?xml version="1.0" encoding="iso-8859-1"?>
<!-- Generator: Adobe Illustrator 16.0.0, SVG Export Plug-In . SVG Version: 6.00 Build 0)  -->
<!DOCTYPE svg PUBLIC "-//W3C//DTD SVG 1.1//EN" "http://www.w3.org/Graphics/SVG/1.1/DTD/svg11.dtd">
<svg version="1.1" id="Layer_1" xmlns="http://www.w3.org/2000/svg" xmlns:xlink="http://www.w3.org/1999/xlink" x="0px" y="0px"
	 width="64px" height="64px" viewBox="0 0 64 64" style="enable-background:new 0 0 64 64;" xml:space="preserve">
<g>
	<g>
		<g>
			<path style="fill:#FFE9BA;" d="M20.025,40.479l3.535-0.651c0.016,0,0.016,0,0.033,0c1.904-0.017,3.467-1.545,3.518-3.448v-2.591
				c-4.169-2.574-7.086-8.598-7.086-15.615c0-9.368,5.182-14.137,11.581-14.137l0,0h0.001c6.398,0,11.581,4.769,11.581,14.137
				c0,7.018-2.917,13.041-7.087,15.615v2.591c0.052,1.903,1.613,3.432,3.518,3.448c0.018,0,0.018,0,0.034,0l3.535,0.651
				c7.823,2.42,9.265,8.219,9.265,14.893v2.472H31.607h-0.001H10.76v-2.472C10.76,48.698,12.201,42.899,20.025,40.479z"/>
		</g>
		<g>
			<path style="fill:#FFE9BA;" d="M27.094,35.83c0,0,0-0.017,0.018-0.034v0.034C27.094,35.83,27.094,35.83,27.094,35.83z"/>
		</g>
	</g>
	<g>
		<g>
			<path style="fill:#FFE9BA;" d="M23.096,29.636c1.099,1.784,2.471,3.208,4.016,4.153v2.453c0.893,0.292,1.818,0.445,2.762,0.445
				c2.3,0,4.444-0.909,6.229-2.488v-0.41c-1.355,0.771-2.83,1.183-4.375,1.183C28.295,34.972,25.189,32.896,23.096,29.636z"/>
		</g>
		<g>
			<path style="fill:#FFE9BA;" d="M27.094,35.83c0,0,0,0,0.018,0v-0.034C27.094,35.813,27.094,35.83,27.094,35.83z"/>
		</g>
	</g>
	<g>
		<g>
			<path style="fill:#7E817A;" d="M10.76,55.372v2.472h41.693v-2.472c0-6.674-1.441-12.473-9.265-14.893l-3.535-0.651
				c-0.017,0-0.017,0-0.034,0c-0.686,0-1.338-0.206-1.888-0.583c-1.372,1.903-3.603,3.14-6.125,3.14s-4.753-1.236-6.126-3.14
				c-0.549,0.377-1.2,0.583-1.887,0.583c-0.018,0-0.018,0-0.035,0l-3.534,0.651C12.201,42.899,10.76,48.698,10.76,55.372z"/>
		</g>
		<g>
			<path style="fill:#FFE9BA;" d="M27.094,35.83c0,0,0,0,0.018,0v-0.034C27.094,35.813,27.094,35.83,27.094,35.83z"/>
		</g>
	</g>
	<g>
		<path style="fill:#FFE9BA;" d="M36.171,33.754c0.343-0.189,0.687-0.412,1.012-0.651c0.017,0,0.017,0,0.034-0.018
			c0.017-0.018,0.017-0.018,0.017-0.035c0.069-0.068,0.138-0.154,0.206-0.239C37.029,33.153,36.616,33.479,36.171,33.754z"/>
	</g>
	<g>
		<path style="fill:#EED59C;" d="M27.111,33.789v2.007c-0.018,0.018-0.018,0.034-0.018,0.034s0,0,0.018,0v0.412
			c0.893,0.292,1.818,0.445,2.762,0.445c2.3,0,4.444-0.909,6.229-2.488c0.377-0.343,0.737-0.703,1.081-1.097
			c0.017,0,0.017,0,0.034-0.018c0.017-0.018,0.017-0.018,0.017-0.035c0.069-0.068,0.138-0.154,0.206-0.239
			c-0.41,0.343-0.823,0.669-1.269,0.943c-0.018,0.017-0.034,0.035-0.069,0.035c-1.355,0.771-2.83,1.183-4.375,1.183
			C28.295,34.972,27.111,33.789,27.111,33.789z"/>
	</g>
	<g>
		<path style="fill:#DFB64C;" d="M24.885,10.659c0,0,5.721,8.436,14.585,8.864c0,0,1.073,7.497-2.287,13.579
			c0,0,3.056,3.002,8.774-0.55c0,0,14.388-32.031-13.691-30.33c0,0-3.23-3.52-9.17-1.701c-7.424,2.272-15.512,14.283-5.154,31.52
			c0,0,1.887,1.376,8.204,0.935C26.146,32.976,18.594,27.817,24.885,10.659z"/>
	</g>
	<g>
		<path style="fill:#BD8025;" d="M39.47,19.523c0,0,4.274-1.036,3.156-6.291c0,0,2.638,4.604-3.034,7.673L39.47,19.523z"/>
	</g>
	<g>
		<defs>
			<rect id="SVGID_1_" x="9.587" y="36.322" width="44.826" height="21.521"/>
		</defs>
		<clipPath id="SVGID_2_">
			<use xlink:href="#SVGID_1_"  style="overflow:visible;"/>
		</clipPath>
		<g style="clip-path:url(#SVGID_2_);">
			<g>
				<g>
					<g>
						
							<rect x="31.921" y="43.921" transform="matrix(0.9686 -0.2487 0.2487 0.9686 -12.0387 11.2737)" style="fill:#FFFFFF;" width="13.345" height="18.714"/>
					</g>
				</g>
			</g>
			<g>
				<g>
					<g>
						
							<rect x="31.84" y="46.479" transform="matrix(0.9686 -0.2488 0.2488 0.9686 -10.444 10.622)" style="fill:#7E817A;" width="9.936" height="0.315"/>
					</g>
				</g>
				<g>
					<g>
						
							<rect x="32.156" y="47.718" transform="matrix(0.9686 -0.2486 0.2486 0.9686 -10.7367 10.733)" style="fill:#7E817A;" width="9.938" height="0.315"/>
					</g>
				</g>
				<g>
					<g>
						
							<rect x="32.475" y="48.954" transform="matrix(0.9686 -0.2486 0.2486 0.9686 -11.0323 10.8485)" style="fill:#7E817A;" width="9.936" height="0.314"/>
					</g>
				</g>
				<g>
					<g>
						
							<rect x="32.792" y="50.191" transform="matrix(0.9686 -0.2485 0.2485 0.9686 -11.3293 10.965)" style="fill:#7E817A;" width="9.937" height="0.319"/>
					</g>
				</g>
				<g>
					<g>
						
							<rect x="33.112" y="51.432" transform="matrix(0.9686 -0.2486 0.2486 0.9686 -11.6311 11.0881)" style="fill:#7E817A;" width="9.937" height="0.315"/>
					</g>
				</g>
				<g>
					<g>
						
							<rect x="33.429" y="52.669" transform="matrix(0.9685 -0.2489 0.2489 0.9685 -11.941 11.2204)" style="fill:#7E817A;" width="9.938" height="0.318"/>
					</g>
				</g>
				<g>
					<g>
						
							<rect x="33.747" y="53.912" transform="matrix(0.9686 -0.2485 0.2485 0.9686 -12.2192 11.3142)" style="fill:#7E817A;" width="9.937" height="0.311"/>
					</g>
				</g>
				<g>
					<g>
						
							<rect x="34.066" y="55.146" transform="matrix(0.9686 -0.2486 0.2486 0.9686 -12.523 11.4395)" style="fill:#7E817A;" width="9.935" height="0.319"/>
					</g>
				</g>
				<g>
					<g>
						
							<rect x="34.384" y="56.387" transform="matrix(0.9685 -0.2489 0.2489 0.9685 -12.8363 11.5747)" style="fill:#7E817A;" width="9.934" height="0.315"/>
					</g>
				</g>
				<g>
					<g>
						
							<rect x="34.701" y="57.624" transform="matrix(0.9686 -0.2487 0.2487 0.9686 -13.1232 11.6802)" style="fill:#7E817A;" width="9.935" height="0.316"/>
					</g>
				</g>
			</g>
			<g>
				<g>
					<path style="fill:#D05B51;" d="M38.143,59.458c-0.181-0.573,0.28-1.818,0.687-2.916c0.178-0.482,0.347-0.938,0.423-1.24
						c0.196-0.787,0.361-1.608,0.523-2.404c0.184-0.913,0.375-1.86,0.615-2.76l0.102-0.375l0.22,0.319
						c1.155,1.659,1.593,3.863,1.979,5.808c0.214,1.081,0.417,2.105,0.721,2.973l-0.341,0.117c-0.311-0.892-0.517-1.925-0.733-3.02
						c-0.37-1.865-0.753-3.789-1.7-5.335c-0.191,0.771-0.353,1.569-0.508,2.345c-0.162,0.797-0.329,1.625-0.528,2.42
						c-0.08,0.322-0.251,0.786-0.435,1.278c-0.347,0.938-0.823,2.227-0.68,2.681L38.143,59.458z"/>
				</g>
			</g>
			<g>
				<g>
					<path style="fill:#D05B51;" d="M43.301,55.377c-0.377-0.001-1.107-0.062-1.636-0.12c-0.202-0.023-0.473-0.08-0.787-0.147
						c-0.808-0.171-2.028-0.432-2.376-0.084l-0.254-0.256c0.488-0.48,1.718-0.222,2.705-0.013c0.305,0.064,0.568,0.121,0.752,0.141
						c0.518,0.059,1.233,0.118,1.597,0.119L43.301,55.377z"/>
				</g>
			</g>
		</g>
		<g style="clip-path:url(#SVGID_2_);">
			<g>
				<g>
					<rect x="21.741" y="42.967" style="fill:#D05B51;" width="13.727" height="16.537"/>
				</g>
				<g>
					<polygon style="fill:#D05B51;" points="19.168,44.737 21.741,42.967 21.813,47.477 19.668,48.12 					"/>
				</g>
				<g>
					<polygon style="fill:#FFFFFF;" points="32.895,60.847 19.933,60.56 19.933,44.737 21.741,43.401 35.11,43.401 35.11,59.845 
											"/>
				</g>
				<g>
					<rect x="19.168" y="44.737" style="fill:#D05B51;" width="13.727" height="16.538"/>
				</g>
			</g>
			<g>
				<g>
					<path style="fill:#FFFFFF;" d="M23.786,52.95l-0.521-1.331H21.59l-0.516,1.331h-0.492l1.653-4.199h0.409l1.646,4.199H23.786z
						 M23.114,51.183l-0.487-1.298c-0.063-0.163-0.127-0.365-0.193-0.603c-0.042,0.183-0.103,0.383-0.18,0.603l-0.492,1.298H23.114z
						"/>
				</g>
				<g>
					<path style="fill:#FFFFFF;" d="M24.864,48.768h1.182c0.556,0,0.957,0.082,1.204,0.248c0.248,0.165,0.371,0.428,0.371,0.786
						c0,0.249-0.068,0.452-0.206,0.614c-0.138,0.161-0.341,0.267-0.605,0.313v0.029c0.636,0.108,0.953,0.442,0.953,1.001
						c0,0.375-0.126,0.666-0.38,0.875c-0.252,0.211-0.605,0.316-1.06,0.316h-1.459V48.768z M25.352,50.558h0.801
						c0.343,0,0.59-0.055,0.74-0.162c0.15-0.106,0.227-0.289,0.227-0.545c0-0.234-0.084-0.403-0.252-0.506
						c-0.168-0.105-0.436-0.157-0.801-0.157h-0.715V50.558z M25.352,50.969v1.565h0.872c0.337,0,0.591-0.065,0.763-0.196
						c0.17-0.132,0.255-0.336,0.255-0.614c0-0.259-0.087-0.449-0.261-0.57c-0.176-0.122-0.44-0.185-0.797-0.185H25.352z"/>
				</g>
				<g>
					<path style="fill:#FFFFFF;" d="M30.451,49.142c-0.459,0-0.822,0.154-1.088,0.458c-0.268,0.307-0.399,0.727-0.399,1.259
						c0,0.547,0.128,0.97,0.385,1.268c0.256,0.299,0.622,0.447,1.097,0.447c0.293,0,0.625-0.051,0.998-0.156v0.428
						c-0.289,0.106-0.646,0.162-1.072,0.162c-0.616,0-1.092-0.188-1.426-0.562c-0.335-0.374-0.502-0.904-0.502-1.594
						c0-0.431,0.08-0.808,0.242-1.134c0.16-0.322,0.393-0.572,0.697-0.748c0.304-0.175,0.662-0.263,1.074-0.263
						c0.438,0,0.821,0.08,1.149,0.239L31.4,49.365C31.084,49.216,30.768,49.142,30.451,49.142z"/>
				</g>
			</g>
		</g>
	</g>
	<g>
		<g>
			<path style="fill:#6D3500;" d="M27.674,26.224h-2.973c-1.467,0-2.659-1.192-2.659-2.659c0-1.466,1.192-2.659,2.659-2.659h2.973
				c1.468,0,2.66,1.193,2.66,2.659C30.334,25.031,29.142,26.224,27.674,26.224z M24.701,21.763c-0.992,0-1.801,0.808-1.801,1.802
				c0,0.993,0.809,1.801,1.801,1.801h2.973c0.994,0,1.803-0.808,1.803-1.801c0-0.994-0.809-1.802-1.803-1.802H24.701z"/>
		</g>
	</g>
	<g>
		<g>
			<path style="fill:#6D3500;" d="M37.963,26.224h-2.972c-1.468,0-2.659-1.192-2.659-2.659c0-1.466,1.191-2.659,2.659-2.659h2.972
				c1.468,0,2.66,1.193,2.66,2.659C40.623,25.031,39.431,26.224,37.963,26.224z M34.991,21.763c-0.994,0-1.802,0.808-1.802,1.802
				c0,0.993,0.808,1.801,1.802,1.801h2.972c0.994,0,1.803-0.808,1.803-1.801c0-0.994-0.809-1.802-1.803-1.802H34.991z"/>
		</g>
	</g>
	<g>
		<g>
			<path style="fill:#6D3500;" d="M33.35,25.638c-0.799-0.895-1.561-1.325-2.289-1.247c-1.03,0.096-1.689,1.172-1.696,1.182
				l-0.736-0.439c0.035-0.059,0.88-1.454,2.346-1.595c1.005-0.103,2.024,0.417,3.016,1.529L33.35,25.638z"/>
		</g>
	</g>
</g>
</svg>
