<?xml version="1.0" encoding="iso-8859-1"?>
<!-- Generator: Adobe Illustrator 16.0.0, SVG Export Plug-In . SVG Version: 6.00 Build 0)  -->
<!DOCTYPE svg PUBLIC "-//W3C//DTD SVG 1.1//EN" "http://www.w3.org/Graphics/SVG/1.1/DTD/svg11.dtd">
<svg version="1.1" id="Layer_1" xmlns="http://www.w3.org/2000/svg" xmlns:xlink="http://www.w3.org/1999/xlink" x="0px" y="0px"
	 width="64px" height="64px" viewBox="0 0 64 64" style="enable-background:new 0 0 64 64;" xml:space="preserve">
<g>
	<g>
		<g>
			<path style="fill:#FFE9BA;" d="M44.122,45.775l-3.7-0.682c-0.018,0-0.018,0-0.036,0c-1.993-0.018-3.628-1.617-3.682-3.609v-2.713
				c4.364-2.692,7.418-8.997,7.418-16.343c0-9.806-5.425-14.797-12.122-14.797l0,0h-0.001c-6.697,0-12.121,4.991-12.121,14.797
				c0,7.346,3.053,13.65,7.417,16.343v2.713c-0.054,1.992-1.688,3.592-3.682,3.609c-0.019,0-0.019,0-0.036,0l-3.699,0.682
				c-8.189,2.532-9.697,8.603-9.697,15.588v2.587h21.818H32h21.819v-2.587C53.819,54.378,52.311,48.308,44.122,45.775z"/>
		</g>
		<g>
			<path style="fill:#FFE9BA;" d="M36.724,40.909c0,0,0-0.018-0.018-0.035v0.035C36.724,40.909,36.724,40.909,36.724,40.909z"/>
		</g>
	</g>
	<g>
		<g>
			<path style="fill:#FFE9BA;" d="M40.907,34.426c-1.149,1.867-2.586,3.357-4.201,4.346v2.568c-0.935,0.306-1.904,0.467-2.893,0.467
				c-2.406,0-4.65-0.952-6.519-2.604v-0.432c1.419,0.809,2.963,1.239,4.58,1.239C35.466,40.011,38.717,37.838,40.907,34.426z"/>
		</g>
		<g>
			<path style="fill:#FFE9BA;" d="M36.724,40.909c0,0,0,0-0.018,0v-0.035C36.724,40.892,36.724,40.909,36.724,40.909z"/>
		</g>
	</g>
	<g>
		<path style="fill:#26618D;" d="M53.819,61.363v2.587H10.181v-2.587c0-6.985,1.508-13.056,9.697-15.588l3.699-0.682
			c0.018,0,0.018,0,0.036,0c0.719,0,1.4-0.217,1.976-0.61c1.437,1.992,3.771,3.286,6.411,3.286s4.975-1.294,6.411-3.286
			c0.575,0.394,1.258,0.61,1.976,0.61c0.019,0,0.019,0,0.036,0l3.699,0.682C52.312,48.308,53.819,54.378,53.819,61.363z"/>
	</g>
	<g>
		<path style="fill:#FFE9BA;" d="M27.223,38.735c-0.358-0.197-0.719-0.431-1.059-0.682c-0.018,0-0.018,0-0.036-0.018
			c-0.018-0.02-0.018-0.02-0.018-0.036c-0.072-0.072-0.145-0.162-0.216-0.252C26.324,38.108,26.757,38.447,27.223,38.735z"/>
	</g>
	<g>
		<path style="fill:#EED59C;" d="M36.706,38.771v2.103c0.018,0.018,0.018,0.035,0.018,0.035s0,0-0.018,0v0.431
			c-0.935,0.306-1.904,0.467-2.893,0.467c-2.406,0-4.65-0.952-6.519-2.604c-0.395-0.36-0.771-0.737-1.131-1.149
			c-0.018,0-0.018,0-0.036-0.018c-0.018-0.02-0.018-0.02-0.018-0.036c-0.072-0.072-0.145-0.162-0.216-0.252
			c0.43,0.36,0.862,0.699,1.328,0.987c0.019,0.019,0.036,0.036,0.072,0.036c1.419,0.809,2.963,1.239,4.58,1.239
			C35.466,40.011,36.706,38.771,36.706,38.771z"/>
	</g>
	<g>
		<path style="fill:#9C603E;" d="M21.317,30.799c0,0-5.985-4.564-3.143-15.637c0,0,1.029,0.449,1.188,1.048
			c0.158,0.599-0.739-3.835,2.702-8.578c0,0,1.347,1.094,1.347,1.692c0,0.602,0.748-1.646,5.238-5.236l0.749,1.945
			c0,0,6.854-4.34,11.508-1.945c0,0-1.631,1.197-1.481,1.797c0,0,4.19,0.599,5.537,5.387l-1.048-0.151c0,0,1.947,4.893,2.096,5.963
			c0,0,1.707,9.476-3.2,13.146c0,0,2.097-8.285-2.185-14.82c-0.188-0.285-0.389-0.568-0.602-0.845c0,0-5.058,3.9-10.326-0.149
			C29.698,14.414,20.121,15.457,21.317,30.799z"/>
	</g>
	<g>
		<ellipse style="fill:#FFE9BA;" cx="21.318" cy="27.65" rx="1.75" ry="3.148"/>
	</g>
	<g>
		<ellipse style="fill:#FFE9BA;" cx="43.349" cy="27.65" rx="1.75" ry="3.148"/>
	</g>
	<g>
		<path style="fill:#9C603E;" d="M19.961,24.502c0,0,0.759-0.063,1.356,1.885l0.604-3.943L19.961,24.502z"/>
	</g>
	<g>
		<path style="fill:#9C603E;" d="M43.08,22.063c0,0,0.438,3.887,0,4.636c0,0,1.314-1.602,2.019-0.449
			C45.373,26.698,43.08,22.063,43.08,22.063z"/>
	</g>
	<g>
		<g>
			<path style="fill:#1B2431;" d="M26.871,30.129c-2.345,0-4.252-1.643-4.252-3.66s1.907-3.659,4.252-3.659s4.252,1.642,4.252,3.659
				S29.216,30.129,26.871,30.129z M26.871,23.707c-1.849,0-3.354,1.24-3.354,2.762c0,1.523,1.506,2.762,3.354,2.762
				c1.85,0,3.354-1.238,3.354-2.762C30.226,24.947,28.721,23.707,26.871,23.707z"/>
		</g>
	</g>
	<g>
		<g>
			<path style="fill:#1B2431;" d="M37.36,30.044c-2.346,0-4.253-1.641-4.253-3.657c0-2.02,1.907-3.661,4.253-3.661
				c2.344,0,4.252,1.642,4.252,3.661C41.612,28.403,39.704,30.044,37.36,30.044z M37.36,23.623c-1.85,0-3.354,1.24-3.354,2.764
				c0,1.521,1.505,2.76,3.354,2.76c1.849,0,3.354-1.239,3.354-2.76C40.714,24.863,39.209,23.623,37.36,23.623z"/>
		</g>
	</g>
	<g>
		<path style="fill:#C77543;" d="M25.895,37.748c0,0,3.007,2.619,5.98,2.263c0,0,4.042-0.241,6.235-2.263
			c0,0-1.79,2.483-4.784,3.697l-0.224-1.027l-0.748,1.027l-0.86-0.989l-0.211,0.989C31.283,41.445,27.104,39.344,25.895,37.748z"/>
	</g>
	<g>
		<g>
			<path style="fill:#1B2431;" d="M33.716,28.27c-0.346-0.577-0.894-1.263-1.526-1.266c-0.001,0-0.002,0-0.003,0
				c-0.694,0-1.34,0.81-1.531,1.123l-0.769-0.465c0.039-0.063,0.954-1.555,2.3-1.555l0,0c0.847,0,1.62,0.571,2.3,1.698L33.716,28.27
				z"/>
		</g>
	</g>
	<g>
		<g>
			<path style="fill:#1B2431;" d="M23.339,28.1c-0.131,0-0.261-0.056-0.349-0.168l-1.861-2.299
				c-0.156-0.193-0.126-0.475,0.066-0.631c0.193-0.154,0.477-0.128,0.631,0.066l1.862,2.3c0.155,0.193,0.126,0.475-0.067,0.631
				C23.538,28.065,23.438,28.1,23.339,28.1z"/>
		</g>
	</g>
	<g>
		<g>
			<path style="fill:#1B2431;" d="M41,27.744c-0.139,0-0.276-0.064-0.364-0.186c-0.146-0.198-0.101-0.479,0.101-0.625l2.267-1.641
				c0.199-0.147,0.481-0.102,0.627,0.1c0.146,0.2,0.1,0.482-0.101,0.627l-2.267,1.639C41.183,27.717,41.091,27.744,41,27.744z"/>
		</g>
	</g>
	<g>
		<path style="fill:#FFFFFF;" d="M25.589,44.483l7.495,15.595l0,0l5.326-15.595C38.41,44.483,32.74,51.379,25.589,44.483z"/>
	</g>
	<g>
		<g>
			<path d="M35.48,51.379c0,0.496-0.401,0.897-0.897,0.897h-3.605c-0.496,0-0.897-0.401-0.897-0.897v-2.101
				c0-0.497,0.401-0.898,0.897-0.898h3.605c0.496,0,0.897,0.401,0.897,0.898V51.379z"/>
		</g>
		<g>
			<polygon style="fill:#FFFFFF;" points="26.775,43.259 32.632,47.77 29.653,52.463 25.589,44.483 			"/>
		</g>
		<g>
			<polygon style="fill:#FFFFFF;" points="37.219,43.259 32.631,47.77 35.685,52.463 38.41,44.483 			"/>
		</g>
		<g>
			<polygon points="32.49,52.049 31.167,56.763 34.394,56.763 33.24,52.049 			"/>
		</g>
	</g>
	<g>
		<g>
			<polygon style="fill:#194C6B;" points="28.318,64 27.061,58.415 23.135,59.891 22.186,45.324 22.632,45.295 23.543,59.255 
				27.385,57.812 28.757,63.9 			"/>
		</g>
	</g>
	<g>
		<g>
			<polygon style="fill:#194C6B;" points="35.999,64 37.257,58.415 41.183,59.891 42.133,45.324 41.686,45.295 40.774,59.255 
				36.933,57.812 35.561,63.9 			"/>
		</g>
	</g>
	<g>
		<ellipse style="fill:#26618D;" cx="32.002" cy="8.932" rx="18.687" ry="8.932"/>
	</g>
	<g>
		<path style="fill:#194C6B;" d="M50.688,8.929c0,0.344-0.036,0.687-0.125,1.015c-1.042-4.443-8.962-7.912-18.57-7.912
			c-9.59,0-17.51,3.469-18.551,7.912c-0.091-0.328-0.126-0.671-0.126-1.015c0-4.93,8.369-8.927,18.677-8.927
			C42.319,0.002,50.688,3.999,50.688,8.929z"/>
	</g>
	<g>
		<ellipse style="fill:#26618D;" cx="32.002" cy="15.045" rx="12.737" ry="2.818"/>
	</g>
	<g>
		<path style="fill:#194C6B;" d="M44.739,8.347c0,1.474-5.703,2.662-12.736,2.662c-7.035,0-12.737-1.188-12.737-2.662
			c0-1.469,5.702-2.657,12.737-2.657C39.036,5.689,44.739,6.878,44.739,8.347z"/>
	</g>
	<g>
		<path style="fill:#194C6B;" d="M44.739,14.581c0,0.495-0.382,0.897-0.854,0.897H20.119c-0.472,0-0.854-0.402-0.854-0.897V8.508
			c0-0.497,0.382-0.897,0.854-0.897h23.766c0.473,0,0.854,0.4,0.854,0.897V14.581z"/>
	</g>
	<g>
		<path style="fill:#EFAC15;" d="M36.724,9.48c0,2.849-2.111,5.158-4.715,5.158s-4.714-2.31-4.714-5.158
			C27.295,6.633,36.724,6.633,36.724,9.48z"/>
	</g>
	<g>
		<path style="fill:#EFAC15;" d="M48.84,60.049c0,1.535-1.138,2.782-2.542,2.782c-1.403,0-2.542-1.247-2.542-2.782
			S48.84,58.514,48.84,60.049z"/>
	</g>
</g>
</svg>
