<?xml version="1.0" encoding="iso-8859-1"?>
<!-- Generator: Adobe Illustrator 16.0.0, SVG Export Plug-In . SVG Version: 6.00 Build 0)  -->
<!DOCTYPE svg PUBLIC "-//W3C//DTD SVG 1.1//EN" "http://www.w3.org/Graphics/SVG/1.1/DTD/svg11.dtd">
<svg version="1.1" id="Layer_1" xmlns="http://www.w3.org/2000/svg" xmlns:xlink="http://www.w3.org/1999/xlink" x="0px" y="0px"
	 width="64px" height="64px" viewBox="0 0 64 64" style="enable-background:new 0 0 64 64;" xml:space="preserve">
<g>
	<path style="fill-rule:evenodd;clip-rule:evenodd;fill:#D94100;" d="M30.151,18.917c7.865,0,14.238,6.26,14.238,13.984
		c0,7.723-6.373,13.729-14.238,13.729c-3.34,0-14.174-7.92-14.236-13.729C15.851,27.089,22.288,18.917,30.151,18.917z"/>
	<path style="fill-rule:evenodd;clip-rule:evenodd;fill:#F2EFDC;" d="M54.885,64c0.03-3.475-0.232-6.568-0.666-8.231
		c-0.386-1.484-1.844-3.052-3.19-3.718c-1.726-0.852-3.854-0.954-5.945-1.018c-2.738-0.081-4.883-0.037-6.9-2.159
		c-2.124-2.496-1.73-6.538-1.572-9.868l-11.345-0.146c1.17,4.484,1.261,8.647-0.884,10.835c-0.535,0.546-1.686,1.182-2.789,1.454
		c-1.969,0.487-4.207,0.374-5.519,0.5c-3.249,0.055-4.832,0.931-6.056,3.93C9.279,57.395,9.078,60.714,9.116,64H54.885z"/>
	<path style="fill-rule:evenodd;clip-rule:evenodd;fill:#14B0BF;" d="M49.018,64c-3.202-4.715-11.335-5.541-16.094,0H49.018z"/>
	<path style="fill-rule:evenodd;clip-rule:evenodd;fill:#14B0BF;" d="M31.389,64c-6.045-5.475-12.99-4.371-15.942,0H31.389z"/>
	<path style="fill-rule:evenodd;clip-rule:evenodd;fill:#DCD9C8;" d="M25.266,38.859c1.071,4.648,1.31,8.503-1.104,11.178
		c6.431-0.718,8.523-4.511,12.286-8.051c-0.018-1.258,0.082-1.3,0.163-2.98L25.266,38.859z"/>
	<path style="fill-rule:evenodd;clip-rule:evenodd;fill:#F2EFDC;" d="M20.12,24.449c-1.057-1.58-2.302-0.506-1.915,1.408
		c0.314,1.559,1.034,3.329,1.432,5.106c0.273,1.219,0.712,2.081,1.78,1.854l-0.117-5.07L20.12,24.449z"/>
	<path style="fill-rule:evenodd;clip-rule:evenodd;fill:#F2EFDC;" d="M42.177,24.449c1.059-1.58,2.303-0.506,1.916,1.408
		c-0.313,1.559-1.031,3.329-1.432,5.106c-0.273,1.219-0.709,2.081-1.778,1.854l0.118-5.07L42.177,24.449z"/>
	<path style="fill-rule:evenodd;clip-rule:evenodd;fill:#F2EFDC;" d="M35.491,41.237c1.303-1.159,2.294-2.245,3.525-4.233
		c1.462-2.358,2.036-3.98,2.646-8.064c0.465-3.121,0.852-6.366,0.338-9.311c-0.996-5.722-4.763-10.072-10.852-10.052
		c-6.74,0.022-10.035,2.697-11.024,9.146c-0.645,4.214-0.384,6.932,0.328,10.484c0.788,3.934,1.472,6.15,3.143,8.5
		c1.056,1.484,1.876,2.482,2.938,3.405c2.16,1.876,3.328,2.706,4.533,2.706C32.304,43.818,33.571,42.944,35.491,41.237z"/>
	<path style="fill-rule:evenodd;clip-rule:evenodd;fill:#FC611F;" d="M39.842,38.331c2.261-7.339,1.029-12.839-4.884-17.961
		l2.867,3.624c-3.644-2.673-5.763-4.529-9.028-7.673c1.6,2.198,3.399,3.938,5.192,5.986c-3.974-2.833-8.473-6.251-11.781-10.049
		c-2.179,6.556-1.891,13.592,0.282,20c-1.292-2.523-2.528-5.125-3.37-9.921c0.733,6.729,1.896,11.716,4.195,16.64
		c-2.225-2.762-3.642-6.018-4.895-10.091c1.608,7.575,4.934,11.448,11.316,17.247c-8.669-1.792-13.955-8.787-16.586-18.37
		l0.465,2.714c-2.554-6.646-1.901-13.362,0.854-18.989c-1.12,1.174-1.903,3.354-2.189,5.715c0.306-5.701,3.041-9.698,7.879-11.163
		c0.008-0.253,0.052-0.421,0.146-0.463c2.905-5.045,9.486-6.605,15.436-4.933c1.928,0.542,3.58,1.28,4.991,2.164
		c5.719,1.91,8.642,8.114,9.182,14.374c-0.647-2.328-1.27-4.12-2.449-6.354c2.486,6.027,3.815,11.765,1.852,18.606l-0.122-2.819
		c-0.825,9.075-5.464,17.13-14.562,19.829c2.895-3.136,5.032-6.278,6.447-9.475C40.676,37.436,40.263,37.888,39.842,38.331z"/>
</g>
</svg>
