<?xml version="1.0" encoding="iso-8859-1"?>
<!-- Generator: Adobe Illustrator 16.0.0, SVG Export Plug-In . SVG Version: 6.00 Build 0)  -->
<!DOCTYPE svg PUBLIC "-//W3C//DTD SVG 1.1//EN" "http://www.w3.org/Graphics/SVG/1.1/DTD/svg11.dtd">
<svg version="1.1" id="Layer_1" xmlns="http://www.w3.org/2000/svg" xmlns:xlink="http://www.w3.org/1999/xlink" x="0px" y="0px"
	 width="64px" height="64px" viewBox="0 0 64 64" style="enable-background:new 0 0 64 64;" xml:space="preserve">
<g>
	<path style="fill-rule:evenodd;clip-rule:evenodd;fill:#F2EFDC;" d="M61.673,64c-0.002-0.083-0.006-0.176-0.008-0.228
		c-0.363-7.563-2.207-15.828-10.559-15.466c-3.004,0.132-9.76-2.35-10.748-4.973c-0.749-1.986-0.758-5.12-0.297-7.183l-7.986,0.154
		l-7.981-0.154c0.462,2.063,0.429,5.188-0.296,7.183c-0.716,1.962-7.279,5.088-9.897,4.973C5.471,47.942,3.671,56.239,3.334,64
		H61.673z"/>
	<path style="fill-rule:evenodd;clip-rule:evenodd;fill:#8FC3D8;" d="M63.464,64c-0.002-0.817-0.01-8.631-0.035-8.891
		c-0.584-6.247-2.873-7.14-11.215-6.803c-2.822,0.115-8.163-1.74-10.452-3.514l0.002-0.058l-0.068,0.007
		c-0.048-0.038-0.099-0.079-0.143-0.117l-0.048,0.139l-9.451,1.062l-9.53-1.021l-0.059-0.179c-2.157,1.821-7.749,3.801-10.664,3.682
		C3.459,47.97,1.173,48.862,0.587,55.109C0.562,55.367,0.547,63.181,0.536,64H63.464z"/>
	<g>
		<path style="fill-rule:evenodd;clip-rule:evenodd;fill:#F2EFDC;" d="M22.761,29.852l0.461-5.507
			c-0.816-0.804-1.403-1.335-1.829-1.996c-1.171-1.816-1.904-2.234-2.618-1.705c-0.288,0.215-0.389,0.896-0.222,1.753
			c0.297,1.495,1.238,3.724,1.535,5.034C20.325,28.483,21.704,32.091,22.761,29.852z"/>
		<path style="fill-rule:evenodd;clip-rule:evenodd;fill:#F2EFDC;" d="M41.226,29.852l-0.461-5.507
			c0.816-0.804,1.403-1.335,1.829-1.996c1.171-1.816,1.907-2.234,2.618-1.705c0.287,0.215,0.391,0.896,0.223,1.753
			c-0.295,1.495-1.239,3.724-1.536,5.034C43.659,28.483,42.282,32.091,41.226,29.852z"/>
	</g>
	<path style="fill-rule:evenodd;clip-rule:evenodd;fill:#DCD9C8;" d="M23.686,44.097c3.009-1.287,6.22-1.717,8.948-2.121
		c1.533-0.228,2.429-0.499,3.621-1.442c0.945-0.747,2.14-2.392,3.603-3.435c0.051-0.433,0.121-0.572,0.204-0.947l-7.983,0.154
		l-7.984-0.154C24.303,37.087,24.795,41.262,23.686,44.097z"/>
	<path style="fill-rule:evenodd;clip-rule:evenodd;fill:#F2EFDC;" d="M28.175,39.74c-5.906-2.688-7.556-10.246-7.83-15.211
		c-0.104-1.962,0.751-3.933,0.684-6.147c-0.066-2.165-0.126-3.956,0.141-5.478c1.003-5.759,8.307-7.486,13.114-6.774
		c7.889,1.166,8.893,5.34,8.695,12.196c-0.063,2.21,0.795,4.172,0.692,6.126c-0.269,4.977-2.405,13.092-8.408,15.448
		c-0.679,0.295-1.856,1.058-3.176,1.067C30.731,40.979,28.862,40.032,28.175,39.74z"/>
	<g>
		<path style="fill-rule:evenodd;clip-rule:evenodd;fill:#A9D6E8;" d="M39.899,41.314c0.239,1.681,0.749,2.45,1.866,3.299
			l-4.792,8.188l-5.076-7.099C34.421,44.313,38.915,42.582,39.899,41.314z"/>
		<path style="fill-rule:evenodd;clip-rule:evenodd;fill:#A9D6E8;" d="M24.116,41.314c-0.237,1.681-0.749,2.45-1.867,3.299
			l4.795,8.188l5.073-7.099C29.594,44.313,25.1,42.582,24.116,41.314z"/>
	</g>
	<polygon style="fill-rule:evenodd;clip-rule:evenodd;fill:#0D2F3B;" points="29.127,64 34.892,64 34.913,63.651 32.609,52.735 
		34.663,50.65 34.727,49.717 32.236,46.042 31.772,46.029 29.288,49.699 29.353,50.633 31.405,52.72 29.102,63.634 	"/>
	<path style="fill-rule:evenodd;clip-rule:evenodd;fill:#0D2F3B;" d="M21.28,5.069c4.496-6.881,18.897-7.37,22.607,2.354
		c2.154,5.65,0.593,11.624-1.47,16.637c0.029-2.926-0.009-5.736-0.661-8.59c-0.364-1.592-0.89-3.323-1.68-4.573
		c-2.649-3.229-7.709,2.313-13.475,4.5c1.063-2.694-0.055-5.722-2.539-5.471c-2.196,0.22-2.447,8.087-2.228,14.012
		C18.688,18.785,17.83,10.352,21.28,5.069z"/>
	<path style="fill-rule:evenodd;clip-rule:evenodd;" d="M30.244,21.553l-7.448-0.682l0,0c-0.024-0.001-0.046-0.002-0.065-0.002l0,0
		c-0.196-0.003-0.369,0.066-0.499,0.186c-0.132,0.118-0.218,0.286-0.235,0.479c-0.002,0.022-0.004,0.045-0.004,0.068l0,0
		c-0.024,2.336,1.259,3.871,2.871,4.559c0.6,0.256,1.242,0.396,1.882,0.415c0.642,0.02,1.273-0.081,1.85-0.302
		c1.395-0.536,2.464-1.794,2.488-3.807c0.002-0.228-0.09-0.445-0.244-0.609C30.686,21.69,30.475,21.575,30.244,21.553L30.244,21.553
		z M33.736,21.148l7.445-0.682c0.033-0.003,0.068-0.004,0.102-0.004l0,0c0.303-0.004,0.573,0.104,0.777,0.291
		c0.202,0.184,0.336,0.445,0.364,0.744v0.001c0.002,0.032,0.005,0.064,0.005,0.098v0.001c0.026,2.528-1.366,4.192-3.115,4.938
		c-0.646,0.275-1.342,0.427-2.033,0.447c-0.689,0.02-1.377-0.088-2.006-0.329c-1.449-0.559-2.58-1.813-2.731-3.799h-1.07
		c-0.151,1.985-1.284,3.24-2.734,3.799c-0.626,0.241-1.313,0.349-2.005,0.329c-0.689-0.021-1.386-0.172-2.032-0.447
		c-1.75-0.745-3.143-2.409-3.116-4.938v-0.001c0-0.033,0.002-0.065,0.007-0.098v-0.001c0.026-0.299,0.162-0.561,0.364-0.744
		c0.202-0.187,0.475-0.295,0.777-0.291l0,0c0.033,0,0.066,0.001,0.099,0.004l7.446,0.682c0.336,0.031,0.641,0.196,0.86,0.436
		c0.11,0.12,0.198,0.259,0.26,0.409h1.219c0.062-0.15,0.149-0.289,0.259-0.409C33.097,21.345,33.402,21.18,33.736,21.148
		L33.736,21.148z M41.222,20.871l-7.448,0.682c-0.23,0.022-0.443,0.138-0.598,0.306c-0.151,0.164-0.246,0.382-0.243,0.609
		c0.026,2.013,1.096,3.271,2.488,3.807c0.577,0.221,1.21,0.321,1.85,0.302c0.639-0.02,1.284-0.159,1.884-0.415
		c1.61-0.688,2.893-2.223,2.869-4.559l0,0c0-0.023,0-0.046-0.003-0.068c-0.02-0.193-0.103-0.361-0.234-0.479
		c-0.13-0.119-0.306-0.188-0.499-0.186l0,0C41.266,20.869,41.243,20.87,41.222,20.871L41.222,20.871z"/>
	<path style="fill-rule:evenodd;clip-rule:evenodd;fill:#0D2F3B;" d="M29.835,36.633c0.798,0.741,1.435,0.449,2.401,0.499
		c0.727,0.036,1.393,0.058,1.91-0.292c0.077,0.764-0.375,1.847-0.846,2.267c-0.028-0.215-0.013-0.359-0.046-0.566
		c-0.072,0.131-0.149,0.275-0.232,0.426c0.248,1.261,1.268,0.904,2.133,0.452c1.155-0.603,0.896-1.608,0.867-3.029
		c0.347,1.619,0.773,2.307,0.075,3.148c-0.767,0.816-0.969,0.957-1.408,1.178c-0.83,0.419-1.674,0.324-2.688,0.284
		c-1.013,0.04-1.855,0.135-2.687-0.284c-0.438-0.221-0.641-0.361-1.407-1.178c-0.698-0.842-0.235-1.529,0.111-3.148
		c-0.03,1.421-0.324,2.427,0.831,3.029c0.885,0.463,1.931,0.825,2.147-0.541c-0.081-0.164-0.149-0.345-0.204-0.559
		c-0.09,0.248,0.002,0.479-0.07,0.626C30.391,38.72,29.888,37.29,29.835,36.633L29.835,36.633z M32.607,33.292
		c0.47-0.054,0.992-0.134,1.342-0.052c0.281,0.065,1.175,0.777,1.706,1.008c0.921,0.398,0.813,0.169,0.394,1.991
		c0-1.223,0.134-1.364-0.547-1.543c-1.046-0.274-1.864-0.587-2.866-0.612c-0.312-0.01-0.89-0.01-1.199,0
		c-1.006,0.024-1.825,0.336-2.871,0.612c-0.681,0.179-0.547,0.32-0.547,1.543c-0.419-1.822-0.526-1.593,0.394-1.991
		c0.531-0.23,1.426-0.942,1.707-1.008c0.345-0.081,0.858-0.004,1.326,0.05C32.117,33.368,31.927,33.371,32.607,33.292z"/>
</g>
</svg>
