<?xml version="1.0" encoding="iso-8859-1"?>
<!-- Generator: Adobe Illustrator 16.0.0, SVG Export Plug-In . SVG Version: 6.00 Build 0)  -->
<!DOCTYPE svg PUBLIC "-//W3C//DTD SVG 1.1//EN" "http://www.w3.org/Graphics/SVG/1.1/DTD/svg11.dtd">
<svg version="1.1" id="Layer_1" xmlns="http://www.w3.org/2000/svg" xmlns:xlink="http://www.w3.org/1999/xlink" x="0px" y="0px"
	 width="64px" height="64px" viewBox="0 0 64 64" style="enable-background:new 0 0 64 64;" xml:space="preserve">
<g>
	<path style="fill:#F9D5BE;" d="M54.766,46.568c-0.252-4.785-7.243-5.73-12.658-6.611c-2.896-0.472-3.804-3.479-4.029-6.177
		c-1.835,1.7-4.201,3.438-6.078,3.438c-1.856,0-4.233-1.745-6.078-3.449c-0.223,2.701-1.13,5.716-4.029,6.188
		c-5.416,0.881-12.406,1.826-12.658,6.611C8.983,51.354,9.108,64,9.108,64h22.608h0.566h22.607
		C54.891,64,55.018,51.354,54.766,46.568z"/>
	<path style="fill:#F9D5BE;" d="M38.078,33.78c-0.037-0.452-0.062-0.896-0.067-1.317H25.989c-0.005,0.417-0.029,0.858-0.067,1.306
		c1.845,1.704,4.222,3.449,6.078,3.449C33.877,37.218,36.243,35.48,38.078,33.78z"/>
	<path style="opacity:0.55;fill:#F9D5BE;" d="M38.078,33.78c-0.037-0.452-0.062-0.896-0.067-1.317H25.989
		c-0.005,0.417-0.029,0.858-0.067,1.306c1.845,1.704,4.222,3.449,6.078,3.449C33.877,37.218,36.243,35.48,38.078,33.78z"/>
	<g>
		<path style="fill:#774E3E;" d="M32.001,3.424L32.001,3.424L32.001,3.424c-6.596,0-11.942,5.318-11.942,11.879
			c0,3.19,0.941,5.436,1.5,5.593c1.77,0.497,5.428-7.642,10.441-7.642l0,0h0.001c5.014,0,8.672,8.139,10.441,7.642
			c0.559-0.157,1.5-2.402,1.5-5.593C43.942,8.742,38.596,3.424,32.001,3.424z"/>
		<path style="fill:#F9D5BE;" d="M44.065,19.3c-0.597-0.208-1.145,0.14-1.573,0.596c0.021-0.593,0.016-1.046-0.003-1.287
			c0-7.091-5.566-11.12-10.489-11.128c-4.923,0.008-10.489,4.037-10.489,11.128c-0.019,0.241-0.023,0.694-0.003,1.287
			c-0.429-0.456-0.976-0.804-1.573-0.596c-0.953,0.331-0.481,6.137,2.301,7.178c0.086,0.032,0.152,0.039,0.229,0.059
			c0.361,1.341,0.844,2.645,1.499,3.723c0.756,1.242,5.126,6.105,8.037,6.105c2.951,0,7.281-4.863,8.037-6.105
			c0.654-1.078,1.139-2.382,1.499-3.723c0.076-0.02,0.144-0.026,0.229-0.059C44.547,25.437,45.019,19.631,44.065,19.3z"/>
		<path style="fill:#774E3E;" d="M32.335,4.791c-9.229,0-12.598,6.707-12.276,12.173c0.145,2.458,1.204,5.69,1.204,5.69
			c0.119,0.164,0.568,0.063,0.521-0.231c-0.804-4.995,1.613-11.101,2.816-11.524c2.963-3.052,14.079-3.615,16.697,2.72
			c0.937,2.141,1.354,6.352,0.959,8.805c-0.048,0.295,0.41,0.396,0.529,0.231c0,0,1.153-3.691,1.157-6.153
			C43.945,14.064,42.812,4.791,32.335,4.791z"/>
	</g>
	<path style="fill:#FFFFFF;" d="M54.766,46.568c-0.252-4.785-7.243-5.73-12.658-6.611c-1.646-0.269-2.648-1.355-3.25-2.739
		c0,0-2.111,3.027-6.867,3.027c-4.726,0-6.849-3.027-6.849-3.027c-0.601,1.384-1.604,2.471-3.249,2.739
		c-5.416,0.881-12.406,1.826-12.658,6.611C8.983,51.354,9.108,64,9.108,64h22.608h0.566h22.607
		C54.891,64,55.018,51.354,54.766,46.568z"/>
	<path style="fill:#54433C;" d="M28.636,56.125c0.064-1.558-0.049-4.46-1.678-5.437c-1.112-0.667-2.694-0.301-4.692,1.076
		c-0.814-0.603-4.257-3.352-4.055-6.684c0.072-1.161,0.869-3.135,1.742-4.284l0.519-0.666c0,0-0.688,0.018-0.778,0.127
		c-1.086,1.316-2.008,3.483-2.087,4.79c-0.211,3.499,3.062,6.272,4.149,7.094c-1.576,1.548-2.192,2.923-1.803,4.091
		c0.599,1.804,3.407,2.545,4.942,2.819c0.147,0.49,0.632,0.815,1.156,0.742c0.58-0.081,0.985-0.615,0.903-1.195
		c-0.08-0.58-0.617-0.984-1.196-0.904c-0.42,0.059-0.745,0.357-0.863,0.739c-1.438-0.269-3.882-0.932-4.369-2.392
		c-0.313-0.942,0.261-2.122,1.691-3.511c0.071-0.065,0.456-0.32,0.562-0.391c1.703-1.139,3.003-1.452,3.867-0.934
		c1.32,0.793,1.437,3.324,1.387,4.783c-0.397,0.033-0.761,0.287-0.908,0.684c-0.207,0.549,0.073,1.158,0.621,1.364
		c0.548,0.203,1.159-0.074,1.362-0.622C29.295,56.921,29.083,56.377,28.636,56.125z"/>
	<g>
		<path style="fill:#54433C;" d="M45.796,49.076c-1.132,2.738-4.645,3.804-6.115,4.139l0.321,0.551
			c1.66-0.391,5.146-1.538,6.354-4.455c0.966-2.335,0.113-5.86-2.502-9.104c-0.085-0.106-0.873-0.143-0.873-0.143l0.402,0.52
			C45.942,43.697,46.714,46.859,45.796,49.076z"/>
		<circle style="fill:#A6A6A7;" cx="39.479" cy="53.93" r="2.088"/>
	</g>
	<path style="fill:#FFFFFF;" d="M32.001,0c-3.259-0.016-6.973,0.972-10.871,3.907c-0.674,0.508-1.071,1.31-1.071,2.153v8.771
		c0,0,4.834-4.493,11.942-4.469c7.107-0.024,11.941,4.469,11.941,4.469V6.061c0-0.844-0.397-1.646-1.071-2.153
		C38.972,0.972,35.259-0.016,32.001,0z"/>
	<circle style="opacity:0.35;fill:#54433C;" cx="34.587" cy="51.073" r="0.842"/>
	<circle style="opacity:0.35;fill:#54433C;" cx="34.587" cy="56.95" r="0.842"/>
	<rect x="31.604" y="46.183" style="opacity:0.35;fill:#54433C;" width="0.679" height="17.817"/>
</g>
</svg>
