<?xml version="1.0" encoding="iso-8859-1"?>
<!-- Generator: Adobe Illustrator 16.0.0, SVG Export Plug-In . SVG Version: 6.00 Build 0)  -->
<!DOCTYPE svg PUBLIC "-//W3C//DTD SVG 1.1//EN" "http://www.w3.org/Graphics/SVG/1.1/DTD/svg11.dtd">
<svg version="1.1" id="Layer_1" xmlns="http://www.w3.org/2000/svg" xmlns:xlink="http://www.w3.org/1999/xlink" x="0px" y="0px"
	 width="64px" height="64px" viewBox="0 0 64 64" style="enable-background:new 0 0 64 64;" xml:space="preserve">
<g>
	<g>
		<path style="fill:#FFD7AF;" d="M32,52.138l6.965-5.529c0,0-1.002-1.348-1.432-5.529H32l0,0h-5.533
			c-0.428,4.182-1.432,5.529-1.432,5.529L32,52.138L32,52.138L32,52.138L32,52.138L32,52.138z"/>
		<path style="fill:#F5CDA5;" d="M37.533,41.079H32l0,0h-5.533c-0.044,0.431-0.095,0.824-0.149,1.196
			c1.663,1.327,3.593,2.037,5.683,2.037s4.021-0.71,5.684-2.037C37.629,41.903,37.577,41.51,37.533,41.079z"/>
		<path style="fill:#FFD7AF;" d="M21.373,32.091c0,0-1.779,1.896-2.645-2.621c-0.924-4.828-0.891-7.448,0.766-8
			c1.059-0.353,1.363,0.55,1.363,0.55L21.373,32.091z"/>
		<path style="fill:#FED9AE;" d="M32,42.987c6.518,0,11.518-6.828,11.518-18.138c0-14.104-4.139-17.38-11.518-17.38
			s-11.518,3.276-11.518,17.38C20.482,36.159,25.482,42.987,32,42.987z"/>
		<path style="fill:#FFD7AF;" d="M42.793,32.091c0,0,1.779,1.896,2.645-2.621c0.923-4.828,0.891-7.448-0.765-8
			c-1.06-0.353-1.363,0.55-1.363,0.55L42.793,32.091z"/>
		<path style="fill:#FFE1B9;" d="M32.144,7.472v35.507c6.446-0.102,11.374-6.903,11.374-18.129
			C43.518,10.839,39.432,7.516,32.144,7.472z"/>
	</g>
	<path style="fill:#CC5525;" d="M31.893,4.482c-13.134,0-14.146,12.874-13.541,17.517c0.305,2.328,2.131,4.555,2.131,4.555
		s0.481-6.278,4.551-8.071c4.07-1.793,10.02-0.827,12.898-5.172c3.381,5.144,4.887,7.31,5.547,13.243
		C47.231,22.62,50.207,4.62,31.893,4.482z"/>
	<ellipse style="fill:#CC5525;" cx="31.893" cy="4.482" rx="7.419" ry="4.483"/>
	<polygon style="fill:#E6E6E6;" points="32,49.104 22.742,47.862 32,64 41.258,47.862 	"/>
	<polygon style="fill:#F0F0F0;" points="26.08,43.626 25.035,44.138 22.742,47.862 29.569,56.655 32,49.104 25.92,44.313 	"/>
	<polygon style="fill:#F0F0F0;" points="37.922,43.626 38.965,44.138 41.258,47.862 34.431,56.655 32,49.104 38.081,44.313 	"/>
	<path style="fill:#48525E;" d="M22.742,47.862l-7.998,4.851c-0.939,0.57-1.614,1.49-1.875,2.559L10.742,64H32L22.742,47.862z"/>
	<path style="fill:#48525E;" d="M41.258,47.862l7.998,4.851c0.939,0.569,1.614,1.49,1.875,2.558L53.258,64H32L41.258,47.862z"/>
</g>
</svg>
