<?xml version="1.0" encoding="iso-8859-1"?>
<!-- Generator: Adobe Illustrator 16.0.0, SVG Export Plug-In . SVG Version: 6.00 Build 0)  -->
<!DOCTYPE svg PUBLIC "-//W3C//DTD SVG 1.1//EN" "http://www.w3.org/Graphics/SVG/1.1/DTD/svg11.dtd">
<svg version="1.1" id="Layer_1" xmlns="http://www.w3.org/2000/svg" xmlns:xlink="http://www.w3.org/1999/xlink" x="0px" y="0px"
	 width="64px" height="64px" viewBox="0 0 64 64" style="enable-background:new 0 0 64 64;" xml:space="preserve">
<g>
	<path style="fill:#393939;" d="M54.459,55.583c-0.232-0.971-0.793-1.83-1.588-2.434l-2.041-1.547l-5.246-4.313l-2.181-1.94H32
		H20.597l-2.181,1.94l-5.246,4.313l-2.04,1.547c-0.796,0.604-1.356,1.463-1.589,2.434L7.528,64H32h24.472L54.459,55.583z"/>
	<path style="fill:#FFD7AF;" d="M20.596,30.401c0,0-1.854,1.975-2.754-2.731c-0.963-5.032-0.93-7.763,0.797-8.337
		c1.103-0.368,1.42,0.572,1.42,0.572L20.596,30.401z"/>
	<path style="fill:#7E3728;" d="M24.484,40.104l-1.54,1.652l-2.349,2.579c-0.16,0.174-0.24,0.405-0.224,0.642
		c0.017,0.235,0.13,0.453,0.312,0.604c1.446,1.197,4.966,3.85,8.441,4.512c0,0-7.007,0.432-10.905-1.853
		c-0.673-0.396-1.478-0.49-2.101-0.021l-3.775,2.844l-0.646,1.652l0.629-0.476c0.201-0.151,0.457-0.208,0.703-0.154
		c0.246,0.053,0.456,0.211,0.576,0.433c1.049,1.938,4.137,6.271,10.777,6.271c8.552,0,17.88-9.117,20.984-9.848
		c2.104-0.493,4.744,2.094,4.744,2.094l-0.183-0.446c-0.257-0.623-0.686-1.161-1.237-1.55l-2.447-1.721
		c-0.746-0.526-1.668-0.742-2.57-0.604v-0.242c0-0.819-0.284-1.612-0.804-2.246l-2.03-2.471l-1.72-1.413L24.484,40.104z"/>
	<path style="fill:#FFD7AF;" d="M24.383,36.63v1.296c0,2.381,0.787,7.863,7.617,7.761c6.139-0.091,7.258-5.38,7.258-7.761v-1.639
		L24.383,36.63z"/>
	<path style="fill:#F5CDA5;" d="M24.484,40.104c2.001,2.217,4.407,3.432,7.188,3.432c2.918,0,5.495-1.449,7.542-3.883l0.044-2.504
		l-14.875,0.343L24.484,40.104z"/>
	<path style="fill:#FED9AE;" d="M31.672,41.756c6.791,0,12.002-7.115,12.002-18.901c0-14.697-4.313-18.111-12.002-18.111
		c-7.69,0-12.003,3.414-12.003,18.111C19.669,34.641,24.88,41.756,31.672,41.756z"/>
	<path style="fill:#FFD7AF;" d="M42.919,30.401c0,0,1.854,1.975,2.755-2.731c0.963-5.032,0.93-7.763-0.796-8.337
		c-1.104-0.368-1.421,0.572-1.421,0.572L42.919,30.401z"/>
	<path style="fill:#FFE1B9;" d="M31.82,4.745v37.002c6.718-0.105,11.854-7.193,11.854-18.893C43.674,8.254,39.416,4.79,31.82,4.745z
		"/>
	<path style="fill:#C85123;" d="M22.657,3.593C29.948-1.876,35.881,4.672,45.728,0c0,0-3.505,4.313-6.882,4.743
		c0,0,4.653,2.228,10.403-4.743c0,0-0.755,6.971-7.62,10.059c0,0,3.07,0.218,6.65-3.734c0,0-1.187,9.559-16.279,9.559
		c-7.906,0-9.846-4.671-9.846-4.671s-1.941,2.731-1.51,13.152h-1.15c0,0-4.455-8.409,0-14.088
		C19.484,7.768,19.781,5.749,22.657,3.593z"/>
	<path style="fill:#C85123;" d="M42.04,11.212c0,0,1.94,2.731,1.509,13.152h1.15c0,0,4.456-8.409,0-14.088L42.04,11.212z"/>
</g>
</svg>
