<?xml version="1.0" encoding="iso-8859-1"?>
<!-- Generator: Adobe Illustrator 16.0.0, SVG Export Plug-In . SVG Version: 6.00 Build 0)  -->
<!DOCTYPE svg PUBLIC "-//W3C//DTD SVG 1.1//EN" "http://www.w3.org/Graphics/SVG/1.1/DTD/svg11.dtd">
<svg version="1.1" id="Layer_1" xmlns="http://www.w3.org/2000/svg" xmlns:xlink="http://www.w3.org/1999/xlink" x="0px" y="0px"
	 width="64px" height="64px" viewBox="0 0 64 64" style="enable-background:new 0 0 64 64;" xml:space="preserve">
<g>
	<g>
		<path style="fill:#E3C7AA;" d="M43.95,39.696c-0.063-0.024-6.268-2.531-6.268-9.163v-0.931H26.316v0.931
			c0,6.664-6.012,9.063-6.268,9.163l-1.061,0.411L30.959,58.92h2.08l11.972-18.813L43.95,39.696z"/>
		<g>
			<path style="fill:#32C7A4;" d="M55.437,44.889c-2.081-2.08-7.443-5.57-15.088-7.527c0,0-6.366,5.331-8.349,6.813
				c-1.981-1.482-8.348-6.813-8.348-6.813c-7.646,1.957-13.007,5.447-15.089,7.527C4.803,48.649,6.141,58.328,6.141,64h51.72
				C57.86,58.328,59.195,48.649,55.437,44.889z"/>
		</g>
		<g>
			<g>
				<circle style="fill:#3A3E42;" cx="32" cy="47.759" r="1.231"/>
			</g>
			<g>
				<circle style="fill:#3A3E42;" cx="32" cy="52.367" r="1.231"/>
			</g>
			<g>
				<circle style="fill:#3A3E42;" cx="32" cy="56.976" r="1.231"/>
			</g>
		</g>
		<path style="fill:#FFE5CB;" d="M46.768,21.23c-0.237-0.605-0.621-1.064-1.081-1.265c0.005-0.172-0.008-0.347,0.012-0.518
			c0.876-7.927-6.027-12.671-13.463-12.671c-7.435,0-14.052,4.072-13.463,12.671c0.012,0.173,0.008,0.347,0.013,0.521
			c-0.453,0.199-0.83,0.651-1.066,1.245c-0.164,0.41-0.262,0.886-0.262,1.4c0,1.529,0.828,2.771,1.848,2.771
			c0.148,0,0.29-0.033,0.428-0.082c1.982,6.179,6.832,11.566,12.503,11.566c5.672,0,10.521-5.389,12.504-11.569
			c0.141,0.05,0.284,0.085,0.436,0.085c1.019,0,1.848-1.242,1.848-2.771C47.022,22.107,46.928,21.637,46.768,21.23z"/>
		<path style="fill:#E3C7AA;" d="M32.235,37.274c-6.113,0-10.856-5.891-12.771-11.493c-1.335,0.148-2.411-1.311-2.411-3.166
			c0-1.263,0.521-2.379,1.319-2.883c-0.002-0.095-0.005-0.189-0.005-0.284c0-7.821,5.573-13.075,13.867-13.075
			s13.866,5.254,13.866,13.075c0,0.093-0.002,0.186-0.004,0.278c0.804,0.502,1.328,1.619,1.328,2.889c0,1.86-1.08,3.329-2.42,3.166
			C43.093,31.384,38.35,37.274,32.235,37.274z M19.989,24.784l0.128,0.397c1.744,5.436,6.28,11.285,12.118,11.285
			c5.84,0,10.376-5.852,12.119-11.288l0.128-0.399l0.394,0.143c0.117,0.042,0.212,0.062,0.299,0.062
			c0.782,0,1.444-1.085,1.444-2.368c0-1.063-0.45-2-1.093-2.279l-0.25-0.108l0.01-0.375c0.004-0.136-0.012-0.271,0.008-0.404
			c1.415-9.607-6.559-12.268-13.059-12.268s-14.187,3.132-13.06,12.268c0.015,0.118,0.004,0.238,0.008,0.358l0.012,0.422
			l-0.247,0.111c-0.641,0.281-1.088,1.218-1.088,2.275c0,1.283,0.662,2.368,1.444,2.368c0.087,0,0.18-0.019,0.292-0.059
			L19.989,24.784z"/>
		<g>
			<path style="fill:#FF8B26;" d="M19.486,11.593c0,0,16.906,6.279,26.568-5.796c0,0-2.66-1.865-13.41-1.865
				C19.119,3.932,19.486,11.593,19.486,11.593z"/>
		</g>
		<g>
			<path style="fill:#FF8B26;" d="M22.868,3.863c0,0,1.658-3.863,9.388-3.863c7.728,0,14.184,6.18,17.081,0.866
				c0,0,0.099,6.379-9.08,9.76C29.512,14.586,22.868,3.863,22.868,3.863z"/>
		</g>
		<g>
			<path style="fill:#3A3E42;" d="M26.393,24.359c-2.644,0-4.796-2.151-4.796-4.797c0-2.645,2.152-4.797,4.796-4.797
				c2.646,0,4.798,2.152,4.798,4.797C31.19,22.208,29.038,24.359,26.393,24.359z M26.393,15.573c-2.199,0-3.988,1.79-3.988,3.989
				c0,2.2,1.789,3.989,3.988,3.989c2.201,0,3.99-1.789,3.99-3.989C30.383,17.363,28.594,15.573,26.393,15.573z"/>
		</g>
		<g>
			<path style="fill:#3A3E42;" d="M37.5,24.359c-2.646,0-4.797-2.151-4.797-4.797c0-2.645,2.151-4.797,4.797-4.797
				c2.645,0,4.796,2.152,4.796,4.797C42.296,22.208,40.145,24.359,37.5,24.359z M37.5,15.573c-2.199,0-3.989,1.79-3.989,3.989
				c0,2.2,1.79,3.989,3.989,3.989s3.988-1.789,3.988-3.989C41.488,17.363,39.699,15.573,37.5,15.573z"/>
		</g>
		<g>
			<polygon style="fill:#3A3E42;" points="18.002,20.782 17.62,19.549 22.088,18.179 22.066,19.412 			"/>
		</g>
		<g>
			<polygon style="fill:#3A3E42;" points="45.905,20.782 41.84,19.412 41.813,18.179 46.279,19.549 			"/>
		</g>
		<g>
			<rect x="30.354" y="17.973" style="fill:#3A3E42;" width="2.844" height="1.143"/>
		</g>
		<g>
			<g>
				<g>
					<g>
						<polygon style="fill:#3A3E42;" points="23.558,38.029 30.47,43.79 26.63,48.398 21.753,38.76 						"/>
					</g>
				</g>
			</g>
			<g>
				<g>
					<g>
						<polygon style="fill:#3A3E42;" points="40.443,38.029 33.53,43.79 37.371,48.398 42.248,38.76 						"/>
					</g>
				</g>
			</g>
		</g>
		<path style="fill:#FF8B26;" d="M18.772,19.045c0-8.165,6.028-12.268,13.463-12.268c7.436,0,13.463,4.506,13.463,12.671
			c0,0.172,0.024,0.773,0.263,1.378c0,0,1.151-2.307,0.917-4.664C45.802,5.326,42.294,0.454,31.979,0.97
			c-9.222,0.462-13.124,4.363-14.47,15.262c-0.393,3.179,0.612,4.579,0.612,4.579C18.359,20.218,18.772,19.219,18.772,19.045z"/>
	</g>
	<path style="fill:#E3C7AA;" d="M43.95,39.696c-0.063-0.024-6.268-2.531-6.268-9.163v-0.931H26.316v0.931
		c0,6.664-6.012,9.063-6.268,9.163l-1.061,0.411L30.959,58.92h2.08l11.972-18.813L43.95,39.696z"/>
	<g>
		<path style="fill:#32C7A4;" d="M55.437,44.889c-2.081-2.08-7.443-5.57-15.088-7.527c0,0-6.366,5.331-8.349,6.813
			c-1.981-1.482-8.348-6.813-8.348-6.813c-7.646,1.957-13.007,5.447-15.089,7.527C4.803,48.649,6.141,58.328,6.141,64h51.72
			C57.86,58.328,59.195,48.649,55.437,44.889z"/>
	</g>
	<g>
		<g>
			<circle style="fill:#3A3E42;" cx="32" cy="47.759" r="1.231"/>
		</g>
		<g>
			<circle style="fill:#3A3E42;" cx="32" cy="52.367" r="1.231"/>
		</g>
		<g>
			<circle style="fill:#3A3E42;" cx="32" cy="56.976" r="1.231"/>
		</g>
	</g>
	<path style="fill:#FFE5CB;" d="M46.768,21.23c-0.237-0.605-0.621-1.064-1.081-1.265c0.005-0.172-0.008-0.347,0.012-0.518
		c0.876-7.927-6.027-12.671-13.463-12.671c-7.435,0-14.052,4.072-13.463,12.671c0.012,0.173,0.008,0.347,0.013,0.521
		c-0.453,0.199-0.83,0.651-1.066,1.245c-0.164,0.41-0.262,0.886-0.262,1.4c0,1.529,0.828,2.771,1.848,2.771
		c0.148,0,0.29-0.033,0.428-0.082c1.982,6.179,6.832,11.566,12.503,11.566c5.672,0,10.521-5.389,12.504-11.569
		c0.141,0.05,0.284,0.085,0.436,0.085c1.019,0,1.848-1.242,1.848-2.771C47.022,22.107,46.928,21.637,46.768,21.23z"/>
	<path style="fill:#E3C7AA;" d="M32.235,37.274c-6.113,0-10.856-5.891-12.771-11.493c-1.335,0.148-2.411-1.311-2.411-3.166
		c0-1.263,0.521-2.379,1.319-2.883c-0.002-0.095-0.005-0.189-0.005-0.284c0-7.821,5.573-13.075,13.867-13.075
		s13.866,5.254,13.866,13.075c0,0.093-0.002,0.186-0.004,0.278c0.804,0.502,1.328,1.619,1.328,2.889c0,1.86-1.08,3.329-2.42,3.166
		C43.093,31.384,38.35,37.274,32.235,37.274z M19.989,24.784l0.128,0.397c1.744,5.436,6.28,11.285,12.118,11.285
		c5.84,0,10.376-5.852,12.119-11.288l0.128-0.399l0.394,0.143c0.117,0.042,0.212,0.062,0.299,0.062c0.782,0,1.444-1.085,1.444-2.368
		c0-1.063-0.45-2-1.093-2.279l-0.25-0.108l0.01-0.375c0.004-0.136-0.012-0.271,0.008-0.404c1.415-9.607-6.559-12.268-13.059-12.268
		s-14.187,3.132-13.06,12.268c0.015,0.118,0.004,0.238,0.008,0.358l0.012,0.422l-0.247,0.111c-0.641,0.281-1.088,1.218-1.088,2.275
		c0,1.283,0.662,2.368,1.444,2.368c0.087,0,0.18-0.019,0.292-0.059L19.989,24.784z"/>
	<g>
		<path style="fill:#FF8B26;" d="M19.486,11.593c0,0,16.906,6.279,26.568-5.796c0,0-2.66-1.865-13.41-1.865
			C19.119,3.932,19.486,11.593,19.486,11.593z"/>
	</g>
	<g>
		<path style="fill:#FF8B26;" d="M22.868,3.863c0,0,1.658-3.863,9.388-3.863c7.728,0,14.184,6.18,17.081,0.866
			c0,0,0.099,6.379-9.08,9.76C29.512,14.586,22.868,3.863,22.868,3.863z"/>
	</g>
	<g>
		<path style="fill:#3A3E42;" d="M26.393,24.359c-2.644,0-4.796-2.151-4.796-4.797c0-2.645,2.152-4.797,4.796-4.797
			c2.646,0,4.798,2.152,4.798,4.797C31.19,22.208,29.038,24.359,26.393,24.359z M26.393,15.573c-2.199,0-3.988,1.79-3.988,3.989
			c0,2.2,1.789,3.989,3.988,3.989c2.201,0,3.99-1.789,3.99-3.989C30.383,17.363,28.594,15.573,26.393,15.573z"/>
	</g>
	<g>
		<path style="fill:#3A3E42;" d="M37.5,24.359c-2.646,0-4.797-2.151-4.797-4.797c0-2.645,2.151-4.797,4.797-4.797
			c2.645,0,4.796,2.152,4.796,4.797C42.296,22.208,40.145,24.359,37.5,24.359z M37.5,15.573c-2.199,0-3.989,1.79-3.989,3.989
			c0,2.2,1.79,3.989,3.989,3.989s3.988-1.789,3.988-3.989C41.488,17.363,39.699,15.573,37.5,15.573z"/>
	</g>
	<g>
		<polygon style="fill:#3A3E42;" points="18.002,20.782 17.62,19.549 22.088,18.179 22.066,19.412 		"/>
	</g>
	<g>
		<polygon style="fill:#3A3E42;" points="45.905,20.782 41.84,19.412 41.813,18.179 46.279,19.549 		"/>
	</g>
	<g>
		<rect x="30.354" y="17.973" style="fill:#3A3E42;" width="2.844" height="1.143"/>
	</g>
	<g>
		<g>
			<g>
				<g>
					<polygon style="fill:#3A3E42;" points="23.558,38.029 30.47,43.79 26.63,48.398 21.753,38.76 					"/>
				</g>
			</g>
		</g>
		<g>
			<g>
				<g>
					<polygon style="fill:#3A3E42;" points="40.443,38.029 33.53,43.79 37.371,48.398 42.248,38.76 					"/>
				</g>
			</g>
		</g>
	</g>
	<path style="fill:#FF8B26;" d="M18.772,19.045c0-8.165,6.028-12.268,13.463-12.268c7.436,0,13.463,4.506,13.463,12.671
		c0,0.172,0.024,0.773,0.263,1.378c0,0,1.151-2.307,0.917-4.664C45.802,5.326,42.294,0.454,31.979,0.97
		c-9.222,0.462-13.124,4.363-14.47,15.262c-0.393,3.179,0.612,4.579,0.612,4.579C18.359,20.218,18.772,19.219,18.772,19.045z"/>
</g>
</svg>
