<?xml version="1.0" encoding="iso-8859-1"?>
<!-- Generator: Adobe Illustrator 16.0.0, SVG Export Plug-In . SVG Version: 6.00 Build 0)  -->
<!DOCTYPE svg PUBLIC "-//W3C//DTD SVG 1.1//EN" "http://www.w3.org/Graphics/SVG/1.1/DTD/svg11.dtd">
<svg version="1.1" id="Layer_1" xmlns="http://www.w3.org/2000/svg" xmlns:xlink="http://www.w3.org/1999/xlink" x="0px" y="0px"
	 width="64px" height="64px" viewBox="0 0 64 64" style="enable-background:new 0 0 64 64;" xml:space="preserve">
<g>
	<path style="fill:#DBD4D1;" d="M33.04,49.867c-34.919,0-6.79-43.372,0-43.372C39.831,6.495,64.119,49.867,33.04,49.867z"/>
	<path style="fill:#F9D5BE;" d="M54.581,45.858c-0.25-4.747-7.184-5.685-12.556-6.559c-2.872-0.468-3.773-3.45-3.996-6.127
		c-1.82,1.688-4.168,3.409-6.029,3.409c-1.842,0-4.199-1.73-6.028-3.421c-0.222,2.681-1.121,5.67-3.998,6.139
		c-5.372,0.874-12.306,1.812-12.556,6.559C9.169,50.605,9.293,64,9.293,64h22.426h0.563h22.425
		C54.706,64,54.831,50.605,54.581,45.858z"/>
	<path style="fill:#F9D5BE;" d="M38.029,33.173c-0.037-0.448-0.063-0.89-0.067-1.307H26.037c-0.005,0.413-0.029,0.852-0.065,1.295
		c1.829,1.69,4.187,3.421,6.028,3.421C33.861,36.582,36.209,34.86,38.029,33.173z"/>
	<path style="opacity:0.55;fill:#F9D5BE;" d="M38.029,33.173c-0.037-0.448-0.063-0.89-0.067-1.307H26.037
		c-0.005,0.413-0.029,0.852-0.065,1.295c1.829,1.69,4.187,3.421,6.028,3.421C33.861,36.582,36.209,34.86,38.029,33.173z"/>
	<g>
		<path style="fill:#FFFFFF;" d="M32.001,3.062L32.001,3.062L32.001,3.062c-6.543,0-11.846,5.275-11.846,11.783
			c0,3.165,0.934,5.392,1.487,5.547c1.756,0.493,5.384-7.578,10.357-7.578l0,0h0.001c4.973,0,8.602,8.071,10.356,7.578
			c0.555-0.155,1.488-2.382,1.488-5.547C43.846,8.337,38.542,3.062,32.001,3.062z"/>
		<path style="fill:#F9D5BE;" d="M43.968,18.81c-0.593-0.206-1.136,0.138-1.561,0.591c0.021-0.588,0.016-1.038-0.003-1.276
			c0-7.034-5.521-11.03-10.404-11.038c-4.884,0.008-10.405,4.004-10.405,11.038c-0.018,0.238-0.022,0.688-0.003,1.276
			c-0.424-0.453-0.968-0.797-1.561-0.591c-0.945,0.329-0.477,6.087,2.283,7.119c0.084,0.032,0.15,0.04,0.226,0.059
			c0.358,1.331,0.838,2.624,1.488,3.692c0.749,1.232,5.083,6.057,7.972,6.057c2.928,0,7.223-4.824,7.971-6.057
			c0.65-1.068,1.13-2.361,1.488-3.692c0.075-0.019,0.142-0.026,0.227-0.059C44.444,24.896,44.913,19.139,43.968,18.81z"/>
	</g>
	<path style="fill:#0D1014;" d="M54.581,45.858c-0.25-4.747-7.184-5.685-12.556-6.559c-1.956-0.319-2.996-1.804-3.532-3.563
		l-3.849,2.919c-0.917,0.514-1.828,3.267-2.645,3.267c-0.807,0-1.711-2.753-2.628-3.267l-3.865-2.919
		c-0.537,1.76-1.577,3.244-3.533,3.563c-5.372,0.874-12.306,1.812-12.556,6.559C9.169,50.605,9.293,64,9.293,64h22.426h0.563h22.425
		C54.706,64,54.831,50.605,54.581,45.858z"/>
	<g>
		<path style="fill:#FFFFFF;" d="M30.951,43.497l-5.665,8.222c-0.313,0.455-0.024,1.08,0.526,1.135l8.589,0.859
			c0.498,0.05,0.896-0.407,0.778-0.894l-2.192-9.08c-0.079-0.326-0.371-0.557-0.707-0.557h-0.73
			C31.311,43.183,31.087,43.301,30.951,43.497z"/>
		<path style="fill:#FFFFFF;" d="M33.049,43.497l5.665,8.222c0.314,0.455,0.024,1.08-0.526,1.135L29.6,53.713
			c-0.498,0.05-0.896-0.407-0.779-0.894l2.193-9.08c0.078-0.326,0.37-0.557,0.706-0.557h0.731
			C32.689,43.183,32.914,43.301,33.049,43.497z"/>
		<path style="fill:#E5E2E1;" d="M30.958,43.549l-5.836,10.214c-0.255,0.447,0.022,1.011,0.532,1.081l8.757,1.198
			c0.495,0.067,0.908-0.372,0.812-0.861l-2.254-11.412c-0.067-0.34-0.366-0.586-0.713-0.586H31.59
			C31.329,43.183,31.088,43.323,30.958,43.549z"/>
		<path style="fill:#E5E2E1;" d="M33.042,43.549l5.836,10.214c0.256,0.447-0.022,1.011-0.532,1.081l-8.757,1.198
			c-0.494,0.067-0.908-0.372-0.812-0.861l2.255-11.412c0.067-0.34,0.365-0.586,0.713-0.586h0.666
			C32.672,43.183,32.913,43.323,33.042,43.549z"/>
		<path style="fill:#FFFFFF;" d="M30.997,43.669l-4.063,11.543c-0.166,0.473,0.185,0.968,0.686,0.968h8.78
			c0.501,0,0.852-0.495,0.686-0.968l-4.063-11.543c-0.103-0.292-0.377-0.486-0.686-0.486h-0.655
			C31.374,43.183,31.1,43.377,30.997,43.669z"/>
	</g>
	<circle style="fill:#FFFFFF;" cx="28.963" cy="42.862" r="0.693"/>
	<circle style="fill:#FFFFFF;" cx="35.2" cy="42.862" r="0.693"/>
	<g>
		<path style="fill:#FFFFFF;" d="M31.989,4.426L31.989,4.426c-0.002,0-0.004,0-0.007,0c-0.002,0-0.005,0-0.007,0l0,0
			c-8.883,0.173-12.135,6.717-11.82,12.066c0.143,2.438,1.194,5.645,1.194,5.645c0.118,0.163,0.563,0.063,0.517-0.229
			c-0.798-4.955,1.599-11.011,2.793-11.431c1.315-1.354,4.25-2.212,7.323-2.187c3.074-0.025,6.009,0.832,7.323,2.187
			c1.194,0.42,3.592,6.476,2.794,11.431c-0.047,0.292,0.397,0.393,0.517,0.229c0,0,1.051-3.207,1.194-5.645
			C44.125,11.143,40.872,4.599,31.989,4.426z"/>
		<path style="fill:#FFFFFF;" d="M32.374,5.655c0,0-0.192,10.63-9.426,8.248C12.58,11.228,31.715-9.879,32.374,5.655z"/>
		<circle style="fill:#FFFFFF;" cx="21.419" cy="14.44" r="3.656"/>
		<circle style="fill:#FFFFFF;" cx="19.393" cy="20.734" r="3.656"/>
		<circle style="fill:#FFFFFF;" cx="18.105" cy="27.367" r="3.656"/>
		<circle style="fill:#FFFFFF;" cx="16.38" cy="33.846" r="3.656"/>
		<circle style="fill:#FFFFFF;" cx="15.093" cy="40.238" r="3.656"/>
		<path style="fill:#FFFFFF;" d="M31.592,5.655c0,0,0.192,10.63,9.426,8.248C51.386,11.228,32.25-9.879,31.592,5.655z"/>
		<circle style="fill:#FFFFFF;" cx="42.546" cy="14.44" r="3.656"/>
		<circle style="fill:#FFFFFF;" cx="44.573" cy="20.734" r="3.656"/>
		<circle style="fill:#FFFFFF;" cx="45.86" cy="27.367" r="3.656"/>
		<circle style="fill:#FFFFFF;" cx="47.585" cy="33.846" r="3.657"/>
		<circle style="fill:#FFFFFF;" cx="48.873" cy="40.238" r="3.656"/>
	</g>
</g>
</svg>
