<?xml version="1.0" encoding="iso-8859-1"?>
<!-- Generator: Adobe Illustrator 16.0.0, SVG Export Plug-In . SVG Version: 6.00 Build 0)  -->
<!DOCTYPE svg PUBLIC "-//W3C//DTD SVG 1.1//EN" "http://www.w3.org/Graphics/SVG/1.1/DTD/svg11.dtd">
<svg version="1.1" id="Layer_1" xmlns="http://www.w3.org/2000/svg" xmlns:xlink="http://www.w3.org/1999/xlink" x="0px" y="0px"
	 width="64px" height="64px" viewBox="0 0 64 64" style="enable-background:new 0 0 64 64;" xml:space="preserve">
<g id="_x31_5">
	<g>
		<g>
			<g>
				<g>
					<g>
						<g>
							<g>
								<path style="fill:#CCA692;" d="M41.663,33.106l0.037,0.73c0.2,3.943-0.44,6.307,2.665,9.174
									c1.27,1.173,2.578,2.7,2.292,4.405c-0.269,1.597-1.878,2.644-3.458,2.996c-1.581,0.354-3.236,0.221-4.828,0.521
									c-1.859,0.352-3.629,1.293-5.521,1.22c-2.307-0.089-4.27-1.659-5.911-3.282c-1.641-1.625-3.234-3.438-5.395-4.252
									c-0.396-0.148-0.899-0.415-0.804-0.827c0.039-0.173,0.183-0.3,0.316-0.417c3.843-3.331,4.475-5.442,4.229-10.312
									L41.663,33.106z"/>
								<path style="fill:#F9CFB3;" d="M32.223,10.282c0.967,0.261,2.277-0.984,2.902-1.492c1.132-0.922,2.418-1.655,3.788-2.156
									c1.003-0.367,2.107-0.611,3.135-0.321c1.511,0.429,2.507,1.948,2.787,3.493c0.571,3.146-1.011,6.403-0.505,9.555
									c0.071,0.44,0.192,1.44,0.896,0.959c0.291-0.199,0.105-0.74,0.417-0.979c0.688-0.528,1.025,0.315,1.079,0.824
									c0.192,1.815,0.013,3.815-0.769,5.509c-0.453,0.98-1.139,1.289-1.803,2.016c-0.736,0.805-0.531,2.301-0.771,3.271
									c-0.163,0.66-0.432,1.268-0.808,1.805c-0.804,1.15-2.271,1.742-3.203,2.795c-0.874,0.988-1.679,1.971-2.914,2.641
									c-0.745,0.406-1.81,0.467-2.792,0.471c-0.127,0.014-0.256,0.023-0.386,0.035L31.83,10.195
									C31.961,10.225,32.096,10.247,32.223,10.282z"/>
								<path style="fill:#E2BBA1;" d="M18.798,21.581c0.002-0.512,0.252-1.386,0.99-0.929c0.334,0.206,0.204,0.763,0.515,0.931
									c0.748,0.41,0.767-0.598,0.793-1.043c0.098-1.697-0.798-3.275-0.666-4.944c0.121-1.529-0.033-3.103,0.448-4.603
									c0.418-1.301,1.243-2.498,2.417-3.197c1.084-0.646,2.436-0.826,3.652-0.49c1.072,0.296,1.814,0.943,2.535,1.75
									c0.785,0.879,1.156,0.87,2.348,1.14l1.446,28.511c-0.864,0.066-1.759,0.064-2.438-0.221
									c-1.297-0.543-2.197-1.438-3.166-2.332c-1.034-0.953-2.555-1.395-3.47-2.455c-0.429-0.498-0.757-1.074-0.985-1.715
									c-0.338-0.941-0.286-2.451-1.1-3.178c-0.734-0.654-1.447-0.893-1.998-1.822C19.171,25.378,18.79,23.405,18.798,21.581z"/>
								<path style="fill:#728D96;" d="M45.928,18.037c-0.275,1.288-0.59,2.502-0.854,3.554c-0.122,0.484-0.227,1.027-0.382,1.492
									c-0.067,0.203-0.075,0.381-0.228,0.561c-0.035,0.041-0.582,0.416-0.572,0.316c0.184-1.824,0.383-3.555,0.188-5.385
									c-0.295-2.746,0.408-9.763-3.76-10.1c-1.495-0.121-2.705,1.115-4.039,1.801c-1.525,0.782-3.352,0.853-5.014,0.436
									c-2.367-0.593-6.838-4.796-8.922-1.555c-0.228,0.353-0.369,0.754-0.485,1.156c-0.452,1.566-0.237,3.016-0.362,4.598
									c-0.136,1.699-0.27,3.416-0.135,5.12c0.055,0.704,0.299,1.326,0.393,2.019c0.04,0.293,0.52,2.342,0.367,2.477
									c-0.116,0.104-0.279-0.053-0.352-0.191c-2.464-4.722-4.087-11.19-1.142-16.278c2.64-4.562,8.978-6.403,13.903-6.337
									c0.959,0.012,1.932,0.088,2.832,0.418c1.446,0.531,2.789,1.392,4.211,1.949c2.402,0.943,3.671,3.457,4.214,5.84
									c0.276,1.21,0.333,2.447,0.593,3.652C46.707,15.091,46.245,16.546,45.928,18.037z"/>
							</g>
							<path style="fill:#414042;" d="M27.393,61.082c0.084,0.391,0.179,0.779,0.265,1.169h9.733c1.15-2.37,2.2-4.765,3.496-7.113
								c1.408-2.569,3.371-4.8,4.613-7.471c0.533-1.148,1.039-2.478,0.809-3.767c-0.32-1.771-2.922-2.466-2.922-2.466
								c-0.962,0.91-3.994,3.542-8.652,3.956c-6.608,0.587-11.074-3.77-11.712-4.412c-0.206,2.1-0.183,4.43,0.649,6.399
								C25.558,51.837,26.407,56.471,27.393,61.082z"/>
						</g>
					</g>
				</g>
			</g>
			<g>
				<path style="fill:#728D96;" d="M35.127,20.025v2.247c0,0,3.865-2.149,7.488-2.247C42.615,18.658,35.127,20.025,35.127,20.025z"
					/>
				<path style="fill:#728D96;" d="M30.805,20.025v2.247c0,0-3.866-2.149-7.489-2.247C23.315,18.658,30.805,20.025,30.805,20.025z"
					/>
			</g>
			<path style="fill:#728D96;" d="M41.916,32.978c-0.492,0.6-1.009,1.381-1.63,1.846c-1.486,1.115-3.088,2.18-4.741,3.008
				c-0.251,0.127-0.519,0.256-0.799,0.232c-0.779-0.061-1.279-2.064-1.996-0.76c-0.152,0.277-0.247,0.607-0.503,0.795
				c-1.353,0.981-4.249-1.744-5.228-2.463c-0.462-0.34-0.92-0.688-1.316-1.102c-1.146-1.195-1.734-2.729-2.684-4.055
				c-0.279,1.361,0.549,2.479,1.178,3.637c0.212,0.393,0.426,0.785,0.683,1.148c1.166,1.646,3.267,2.465,4.858,3.631
				c0.872,0.64,2.018,1.087,3.195,1.261c1.163-0.174,2.318-0.628,3.218-1.284l3.665-2.494c0.423-0.352,0.791-0.76,1.136-1.186
				c0.592-0.729,1.292-1.389,1.86-2.133c0.523-0.688,0.635-1.691,0.611-2.527C42.999,31.392,42.523,32.233,41.916,32.978z"/>
		</g>
		<path style="fill:#728D96;" d="M34.18,30.985c-0.361-0.104-0.749-0.158-1.109-0.061c-0.361-0.098-0.75-0.043-1.11,0.061
			c-1.897,0.549-3.33,2.416-3.366,4.391c-0.023,1.211,0.586,2.551,1.748,2.887c-0.205-0.824-0.41-1.656-0.44-2.506
			c-0.03-0.848,0.128-1.727,0.598-2.434c0.174-0.262,0.396-0.502,0.677-0.641c0.55-0.27,1.206-0.111,1.789,0.08
			c0.033,0.012,0.069,0.021,0.105,0.029c0.035-0.008,0.07-0.018,0.105-0.029c0.582-0.191,1.238-0.35,1.788-0.08
			c0.282,0.139,0.503,0.379,0.677,0.641c0.471,0.707,0.628,1.586,0.598,2.434c-0.03,0.85-0.236,1.682-0.441,2.506
			c1.164-0.336,1.772-1.676,1.75-2.887C37.51,33.401,36.076,31.534,34.18,30.985z"/>
		<g id="_x33__2_">
			<path style="fill:#1C75BC;" d="M29.473,62.251l-3.25-10.094c0,0-3.008-11.251-3.2-11.179c-1.631,0.605-12.223,4.545-13.927,5.473
				c-1.68,0.597-3.514,1.321-4.507,2.688c-1.95,2.684-3.11,7.154-3.889,10.323c-0.233,0.949-0.466,1.881-0.7,2.819h14.252
				c0-0.011,0.002-0.021,0.002-0.031H29.473z"/>
			<path style="fill:#1C75BC;" d="M61.908,53.708c-0.795-3.43-2.202-5.371-6.305-7.554c0.004-0.034-4.41-2.026-6.352-2.587
				c-1.177-0.339-6.346-2.385-6.346-2.385S38.786,53.576,37.6,56.47c-0.344,0.843-1.337,3.082-2.475,5.781H52.33h0.447H64
				C63.271,59.375,62.56,56.513,61.908,53.708z"/>
		</g>
	</g>
</g>
</svg>
