<?xml version="1.0" encoding="iso-8859-1"?>
<!-- Generator: Adobe Illustrator 16.0.0, SVG Export Plug-In . SVG Version: 6.00 Build 0)  -->
<!DOCTYPE svg PUBLIC "-//W3C//DTD SVG 1.1//EN" "http://www.w3.org/Graphics/SVG/1.1/DTD/svg11.dtd">
<svg version="1.1" id="Layer_1" xmlns="http://www.w3.org/2000/svg" xmlns:xlink="http://www.w3.org/1999/xlink" x="0px" y="0px"
	 width="64px" height="64px" viewBox="0 0 64 64" style="enable-background:new 0 0 64 64;" xml:space="preserve">
<g>
	<g>
		<g>
			<path style="fill:#FFE9BA;" d="M44.804,44.799l-3.908-0.719c-0.019,0-0.019,0-0.039,0c-2.104-0.02-3.831-1.709-3.889-3.813
				v-2.865c4.611-2.846,7.836-9.507,7.836-17.263C44.804,9.78,39.074,4.506,32,4.506l0,0h-0.002
				c-7.075,0-12.805,5.273-12.805,15.633c0,7.756,3.226,14.417,7.835,17.263v2.865c-0.057,2.104-1.783,3.793-3.889,3.813
				c-0.019,0-0.019,0-0.037,0l-3.909,0.719c-8.65,2.676-10.244,9.088-10.244,16.469V64h23.049H32h23.05v-2.732
				C55.05,53.887,53.455,47.475,44.804,44.799z"/>
		</g>
		<g>
			<path style="fill:#FFE9BA;" d="M36.988,39.66c0,0,0-0.021-0.019-0.039v0.039C36.988,39.66,36.988,39.66,36.988,39.66z"/>
		</g>
	</g>
	<g>
		<g>
			<path style="fill:#FFE9BA;" d="M41.409,32.811c-1.214,1.972-2.731,3.546-4.439,4.591v2.713c-0.985,0.322-2.011,0.492-3.055,0.492
				c-2.542,0-4.914-1.006-6.887-2.752v-0.453c1.499,0.852,3.131,1.307,4.839,1.307C35.661,38.709,39.095,36.414,41.409,32.811z"/>
		</g>
		<g>
			<path style="fill:#FFE9BA;" d="M36.988,39.66c0,0,0,0-0.019,0v-0.039C36.988,39.639,36.988,39.66,36.988,39.66z"/>
		</g>
	</g>
	<g>
		<g>
			<path style="fill:#D05B51;" d="M55.051,61.268V64H8.949v-2.732c0-7.381,1.594-13.793,10.244-16.469l3.909-0.719
				c0.019,0,0.019,0,0.037,0c0.759,0,1.479-0.229,2.088-0.646c1.517,2.107,3.982,3.475,6.772,3.475c2.789,0,5.254-1.367,6.772-3.475
				c0.607,0.418,1.328,0.646,2.086,0.646c0.021,0,0.021,0,0.039,0l3.908,0.719C53.457,47.475,55.051,53.887,55.051,61.268z"/>
		</g>
		<g>
			<path style="fill:#FFE9BA;" d="M36.988,39.66c0,0,0,0-0.019,0v-0.039C36.988,39.639,36.988,39.66,36.988,39.66z"/>
		</g>
	</g>
	<g>
		<g>
			<path style="fill:#7E817A;" d="M48.382,48.5V64H16.585V48.5c0-0.514,0.417-0.949,0.949-0.949h29.897
				C47.964,47.551,48.382,47.986,48.382,48.5z"/>
		</g>
		<g>
			<path style="fill:#FFE9BA;" d="M36.988,39.66c0,0,0,0-0.019,0v-0.039C36.988,39.639,36.988,39.66,36.988,39.66z"/>
		</g>
	</g>
	<g>
		<path style="fill:#FFE9BA;" d="M26.954,37.365c-0.38-0.211-0.76-0.459-1.121-0.723c-0.018,0-0.018,0-0.037-0.018
			c-0.019-0.02-0.019-0.02-0.019-0.041c-0.076-0.076-0.152-0.17-0.228-0.264C26.004,36.699,26.459,37.059,26.954,37.365z"/>
	</g>
	<g>
		<path style="fill:#EED59C;" d="M36.97,37.402v2.219c0.019,0.018,0.019,0.039,0.019,0.039s0,0-0.019,0v0.455
			c-0.985,0.322-2.011,0.492-3.055,0.492c-2.542,0-4.914-1.006-6.887-2.752c-0.417-0.379-0.815-0.777-1.195-1.213
			c-0.018,0-0.018,0-0.037-0.018c-0.019-0.02-0.019-0.02-0.019-0.041c-0.076-0.076-0.152-0.17-0.228-0.264
			c0.454,0.379,0.909,0.738,1.404,1.045c0.018,0.018,0.037,0.037,0.074,0.037c1.499,0.852,3.131,1.307,4.839,1.307
			C35.661,38.709,36.97,37.402,36.97,37.402z"/>
	</g>
	<g>
		<path style="fill:#9C603E;" d="M20.714,28.979c0,0-6.322-4.822-3.318-16.521c0,0,1.087,0.479,1.254,1.109
			c0.167,0.633-0.779-4.053,2.854-9.061c0,0,1.425,1.154,1.425,1.787c0,0.635,0.789-1.736,5.531-5.532l0.791,2.053
			c0,0,7.241-4.583,12.158-2.053c0,0-1.724,1.266-1.565,1.897c0,0,4.428,0.635,5.85,5.691l-1.106-0.16c0,0,2.056,5.168,2.213,6.301
			c0,0,1.804,10.01-3.381,13.885c0,0,2.216-8.75-2.308-15.656c-0.197-0.301-0.41-0.598-0.635-0.893c0,0-5.344,4.123-10.909-0.156
			C29.567,11.67,19.45,12.77,20.714,28.979z"/>
	</g>
	<g>
		<ellipse style="fill:#FFE9BA;" cx="20.715" cy="25.653" rx="1.848" ry="3.326"/>
	</g>
	<g>
		<ellipse style="fill:#FFE9BA;" cx="43.988" cy="25.653" rx="1.848" ry="3.326"/>
	</g>
	<g>
		<path style="fill:#9C603E;" d="M19.282,22.327c0,0,0.8-0.066,1.432,1.99l0.638-4.166L19.282,22.327z"/>
	</g>
	<g>
		<path style="fill:#9C603E;" d="M43.704,19.749c0,0,0.463,4.105,0,4.898c0,0,1.389-1.691,2.132-0.475
			C46.126,24.647,43.704,19.749,43.704,19.749z"/>
	</g>
	<g>
		<path style="fill:#BEBFBC;" d="M48.382,48.5L47.104,64H18.186l-1.601-15.5c0-0.514,0.417-0.949,0.949-0.949h29.897
			C47.964,47.551,48.382,47.986,48.382,48.5z"/>
	</g>
	<g>
		<circle style="fill:#FFFFFF;" cx="32.492" cy="56.496" r="2.777"/>
	</g>
	<g>
		<g>
			<g>
				<path style="fill:#414953;" d="M34.919,34.723l-0.11-0.939c7.467-0.878,8.391-6.769,8.427-7.021l0.939,0.131
					C44.165,26.963,43.132,33.758,34.919,34.723z"/>
			</g>
		</g>
		<g>
			<path style="fill:#2D3037;" d="M36.97,34.119c0,0.523-0.424,0.947-0.948,0.947h-2.58c-0.525,0-0.949-0.424-0.949-0.947v-0.361
				c0-0.523,0.424-0.947,0.949-0.947h2.58c0.524,0,0.948,0.423,0.948,0.947V34.119z"/>
		</g>
		<g>
			<g>
				<path style="fill:#414953;" d="M43.988,26.127c-0.186,0-0.363-0.111-0.438-0.295c-0.065-0.162-0.63-1.602-0.053-2.486
					c0.182-0.279,0.549-0.615,1.274-0.635c0.003,0,0.007,0,0.011,0c0.256,0,0.468,0.205,0.475,0.465
					c0.006,0.262-0.202,0.477-0.462,0.484c-0.378,0.008-0.473,0.154-0.503,0.203c-0.243,0.369-0.014,1.246,0.135,1.609
					c0.099,0.244-0.018,0.518-0.259,0.619C44.107,26.116,44.049,26.127,43.988,26.127z"/>
			</g>
		</g>
		<g>
			<g>
				<path style="fill:#414953;" d="M20.575,25.268c-0.06,0-0.12-0.012-0.181-0.037c-0.241-0.098-0.355-0.375-0.258-0.617
					c0.149-0.365,0.379-1.24,0.136-1.611c-0.031-0.047-0.126-0.191-0.503-0.201c-0.261-0.008-0.469-0.225-0.462-0.484
					c0.006-0.264,0.196-0.477,0.486-0.463c0.723,0.018,1.092,0.354,1.273,0.633c0.578,0.885,0.013,2.324-0.053,2.486
					C20.938,25.157,20.761,25.268,20.575,25.268z"/>
			</g>
		</g>
		<g>
			<path style="fill:#2D3037;" d="M45.136,27.293c0,0.523-0.426,0.947-0.948,0.947h-0.313c-0.525,0-0.949-0.424-0.949-0.947v-2.029
				c0-0.523,0.424-0.947,0.949-0.947h0.313c0.522,0,0.948,0.424,0.948,0.947V27.293z"/>
		</g>
		<g>
			<g>
				<path style="fill:#2D3037;" d="M21.421,27.293c0,0.523-0.424,0.947-0.948,0.947h-0.311c-0.525,0-0.949-0.424-0.949-0.947v-2.029
					c0-0.523,0.424-0.947,0.949-0.947h0.311c0.524,0,0.948,0.424,0.948,0.947V27.293z"/>
			</g>
		</g>
	</g>
</g>
</svg>
